<?xml version="1.0" encoding="UTF-8" standalone="no"?>
<!DOCTYPE svg PUBLIC "-//W3C//DTD SVG 1.0//EN"
 "http://www.w3.org/TR/2001/REC-SVG-20010904/DTD/svg10.dtd" [
 <!ATTLIST svg xmlns:xlink CDATA #FIXED "http://www.w3.org/1999/xlink">
]>
<!-- Generated by dot version 2.7 (Mon Oct 24 21:09:41 UTC 2005)
     For user: (ellson) John Ellson -->
<!-- Title: ip_map Pages: 1 -->
<svg width="371pt" height="537pt"
 viewBox = "0 0 371 537"
 xmlns="http://www.w3.org/2000/svg" xmlns:xlink="http://www.w3.org/1999/xlink">
<g id="graph0" class="graph" style="font-family:Times-Roman;font-size:14.00;">
<title>ip_map</title>
<polygon style="fill:white;stroke:white;" points="0,537 0,0 371,0 371,537 0,537"/>
<!-- MH -->
<g id="node1" class="node"><title>MH</title>
<ellipse style="fill:none;stroke:black;" cx="167" cy="234" rx="27" ry="18"/>
<text text-anchor="middle" x="167" y="239">MH</text>
</g>
<!-- ERC -->
<g id="node4" class="node"><title>ERC</title>
<ellipse style="fill:none;stroke:black;" cx="260" cy="252" rx="27" ry="18"/>
<text text-anchor="middle" x="260" y="257">ERC</text>
</g>
<!-- MH&#45;&#45;ERC -->
<g id="edge3" class="edge"><title>MH&#45;&#45;ERC</title>
<path style="fill:none;stroke:black;" d="M193,239C206,241 221,244 234,247"/>
</g>
<!-- ALC -->
<g id="node5" class="node"><title>ALC</title>
<ellipse style="fill:none;stroke:black;" cx="80" cy="269" rx="28" ry="18"/>
<text text-anchor="middle" x="80" y="274">ALC</text>
</g>
<!-- MH&#45;&#45;ALC -->
<g id="edge4" class="edge"><title>MH&#45;&#45;ALC</title>
<path style="fill:none;stroke:black;" d="M144,243C132,248 116,254 104,259"/>
</g>
<!-- WH1 -->
<g id="node6" class="node"><title>WH1</title>
<ellipse style="fill:none;stroke:black;" cx="159" cy="316" rx="29" ry="18"/>
<text text-anchor="middle" x="159" y="321">WH1</text>
</g>
<!-- MH&#45;&#45;WH1 -->
<g id="edge5" class="edge"><title>MH&#45;&#45;WH1</title>
<path style="fill:none;stroke:black;" d="M165,252C164,266 162,284 161,298"/>
</g>
<!-- HO1 -->
<g id="node7" class="node"><title>HO1</title>
<ellipse style="fill:none;stroke:black;" cx="241" cy="203" rx="27" ry="18"/>
<text text-anchor="middle" x="241" y="208">HO1</text>
</g>
<!-- MH&#45;&#45;HO1 -->
<g id="edge6" class="edge"><title>MH&#45;&#45;HO1</title>
<path style="fill:none;stroke:black;" d="M190,224C199,220 209,216 218,213"/>
</g>
<!-- IH1 -->
<g id="node8" class="node"><title>IH1</title>
<ellipse style="fill:none;stroke:black;" cx="143" cy="183" rx="27" ry="18"/>
<text text-anchor="middle" x="143" y="188">IH1</text>
</g>
<!-- MH&#45;&#45;IH1 -->
<g id="edge7" class="edge"><title>MH&#45;&#45;IH1</title>
<path style="fill:none;stroke:black;" d="M159,217C156,212 154,206 151,200"/>
</g>
<!-- MV -->
<g id="node10" class="node"><title>MV</title>
<ellipse style="fill:none;stroke:black;" cx="104" cy="325" rx="27" ry="18"/>
<text text-anchor="middle" x="104" y="330">MV</text>
</g>
<!-- ALC&#45;&#45;MV -->
<g id="edge9" class="edge"><title>ALC&#45;&#45;MV</title>
<path style="fill:none;stroke:black;" d="M87,286C90,293 94,301 97,307"/>
</g>
<!-- HO3 -->
<g id="node13" class="node"><title>HO3</title>
<ellipse style="fill:none;stroke:black;" cx="189" cy="271" rx="27" ry="18"/>
<text text-anchor="middle" x="189" y="276">HO3</text>
</g>
<!-- HO1&#45;&#45;HO3 -->
<g id="edge59" class="edge"><title>HO1&#45;&#45;HO3</title>
<path style="fill:none;stroke:black;" d="M229,219C220,230 209,244 201,255"/>
</g>
<!-- HR -->
<g id="node24" class="node"><title>HR</title>
<ellipse style="fill:none;stroke:black;" cx="327" cy="177" rx="27" ry="18"/>
<text text-anchor="middle" x="327" y="182">HR</text>
</g>
<!-- HO1&#45;&#45;HR -->
<g id="edge24" class="edge"><title>HO1&#45;&#45;HR</title>
<path style="fill:none;stroke:black;" d="M266,195C277,192 291,188 302,184"/>
</g>
<!-- CB -->
<g id="node28" class="node"><title>CB</title>
<ellipse style="fill:none;stroke:black;" cx="221" cy="150" rx="27" ry="18"/>
<text text-anchor="middle" x="221" y="155">CB</text>
</g>
<!-- HO1&#45;&#45;CB -->
<g id="edge28" class="edge"><title>HO1&#45;&#45;CB</title>
<path style="fill:none;stroke:black;" d="M234,185C232,179 230,173 228,168"/>
</g>
<!-- HV -->
<g id="node31" class="node"><title>HV</title>
<ellipse style="fill:none;stroke:black;" cx="230" cy="109" rx="27" ry="18"/>
<text text-anchor="middle" x="230" y="114">HV</text>
</g>
<!-- HO1&#45;&#45;HV -->
<g id="edge32" class="edge"><title>HO1&#45;&#45;HV</title>
<path style="fill:none;stroke:black;" d="M239,185C237,169 234,144 232,127"/>
</g>
<!-- IH1&#45;&#45;IH1 -->
<g id="edge36" class="edge"><title>IH1&#45;&#45;IH1</title>
<path style="fill:none;stroke:black;" d="M168,176C179,176 188,178 188,183 188,188 179,190 168,190"/>
</g>
<!-- IHC -->
<g id="node29" class="node"><title>IHC</title>
<ellipse style="fill:none;stroke:black;" cx="49" cy="193" rx="27" ry="18"/>
<text text-anchor="middle" x="49" y="198">IHC</text>
</g>
<!-- IH1&#45;&#45;IHC -->
<g id="edge30" class="edge"><title>IH1&#45;&#45;IHC</title>
<path style="fill:none;stroke:black;" d="M116,186C104,187 89,189 76,190"/>
</g>
<!-- IHP -->
<g id="node33" class="node"><title>IHP</title>
<ellipse style="fill:none;stroke:black;" cx="88" cy="112" rx="27" ry="18"/>
<text text-anchor="middle" x="88" y="117">IHP</text>
</g>
<!-- IH1&#45;&#45;IHP -->
<g id="edge37" class="edge"><title>IH1&#45;&#45;IHP</title>
<path style="fill:none;stroke:black;" d="M131,167C122,155 109,140 100,128"/>
</g>
<!-- IW -->
<g id="node34" class="node"><title>IW</title>
<ellipse style="fill:none;stroke:black;" cx="98" cy="145" rx="27" ry="18"/>
<text text-anchor="middle" x="98" y="150">IW</text>
</g>
<!-- IH1&#45;&#45;IW -->
<g id="edge38" class="edge"><title>IH1&#45;&#45;IW</title>
<path style="fill:none;stroke:black;" d="M126,169C122,166 118,162 115,159"/>
</g>
<!-- IH2 -->
<g id="node35" class="node"><title>IH2</title>
<ellipse style="fill:none;stroke:black;" cx="141" cy="97" rx="27" ry="18"/>
<text text-anchor="middle" x="141" y="102">IH2</text>
</g>
<!-- IH1&#45;&#45;IH2 -->
<g id="edge39" class="edge"><title>IH1&#45;&#45;IH2</title>
<path style="fill:none;stroke:black;" d="M143,165C142,150 142,130 141,115"/>
</g>
<!-- IH4 -->
<g id="node36" class="node"><title>IH4</title>
<ellipse style="fill:none;stroke:black;" cx="165" cy="108" rx="27" ry="18"/>
<text text-anchor="middle" x="165" y="113">IH4</text>
</g>
<!-- IH1&#45;&#45;IH4 -->
<g id="edge40" class="edge"><title>IH1&#45;&#45;IH4</title>
<path style="fill:none;stroke:black;" d="M148,165C152,153 156,138 160,126"/>
</g>
<!-- AN -->
<g id="node11" class="node"><title>AN</title>
<ellipse style="fill:none;stroke:black;" cx="33" cy="369" rx="27" ry="18"/>
<text text-anchor="middle" x="33" y="374">AN</text>
</g>
<!-- MV&#45;&#45;AN -->
<g id="edge10" class="edge"><title>MV&#45;&#45;AN</title>
<path style="fill:none;stroke:black;" d="M84,337C74,343 63,350 53,356"/>
</g>
<!-- MV&#45;&#45;HO3 -->
<g id="edge12" class="edge"><title>MV&#45;&#45;HO3</title>
<path style="fill:none;stroke:black;" d="M124,312C138,304 156,292 169,284"/>
</g>
<!-- HO3&#45;&#45;WH1 -->
<g id="edge13" class="edge"><title>HO3&#45;&#45;WH1</title>
<path style="fill:none;stroke:black;" d="M178,288C175,292 173,295 170,299"/>
</g>
<!-- HO3&#45;&#45;IH1 -->
<g id="edge61" class="edge"><title>HO3&#45;&#45;IH1</title>
<path style="fill:none;stroke:black;" d="M180,254C172,238 160,216 152,200"/>
</g>
<!-- MT -->
<g id="node15" class="node"><title>MT</title>
<ellipse style="fill:none;stroke:black;" cx="249" cy="347" rx="27" ry="18"/>
<text text-anchor="middle" x="249" y="352">MT</text>
</g>
<!-- HO3&#45;&#45;MT -->
<g id="edge15" class="edge"><title>HO3&#45;&#45;MT</title>
<path style="fill:none;stroke:black;" d="M202,287C212,300 226,318 236,331"/>
</g>
<!-- LZ -->
<g id="node17" class="node"><title>LZ</title>
<ellipse style="fill:none;stroke:black;" cx="214" cy="432" rx="27" ry="18"/>
<text text-anchor="middle" x="214" y="437">LZ</text>
</g>
<!-- MT&#45;&#45;LZ -->
<g id="edge17" class="edge"><title>MT&#45;&#45;LZ</title>
<path style="fill:none;stroke:black;" d="M242,365C236,380 227,400 221,415"/>
</g>
<!-- FJ -->
<g id="node20" class="node"><title>FJ</title>
<ellipse style="fill:none;stroke:black;" cx="327" cy="379" rx="27" ry="18"/>
<text text-anchor="middle" x="327" y="384">FJ</text>
</g>
<!-- MT&#45;&#45;FJ -->
<g id="edge20" class="edge"><title>MT&#45;&#45;FJ</title>
<path style="fill:none;stroke:black;" d="M272,357C282,361 294,366 304,370"/>
</g>
<!-- ER -->
<g id="node22" class="node"><title>ER</title>
<ellipse style="fill:none;stroke:black;" cx="338" cy="329" rx="27" ry="18"/>
<text text-anchor="middle" x="338" y="334">ER</text>
</g>
<!-- MT&#45;&#45;ER -->
<g id="edge22" class="edge"><title>MT&#45;&#45;ER</title>
<path style="fill:none;stroke:black;" d="M275,342C287,339 300,336 312,334"/>
</g>
<!-- DR -->
<g id="node26" class="node"><title>DR</title>
<ellipse style="fill:none;stroke:black;" cx="280" cy="416" rx="27" ry="18"/>
<text text-anchor="middle" x="280" y="421">DR</text>
</g>
<!-- MT&#45;&#45;DR -->
<g id="edge26" class="edge"><title>MT&#45;&#45;DR</title>
<path style="fill:none;stroke:black;" d="M257,364C262,375 267,388 272,398"/>
</g>
<!-- FL -->
<g id="node18" class="node"><title>FL</title>
<ellipse style="fill:none;stroke:black;" cx="210" cy="513" rx="27" ry="18"/>
<text text-anchor="middle" x="210" y="518">FL</text>
</g>
<!-- LZ&#45;&#45;FL -->
<g id="edge18" class="edge"><title>LZ&#45;&#45;FL</title>
<path style="fill:none;stroke:black;" d="M213,450C212,463 212,481 211,495"/>
</g>
<!-- CB&#45;&#45;IH1 -->
<g id="edge29" class="edge"><title>CB&#45;&#45;IH1</title>
<path style="fill:none;stroke:black;" d="M198,160C188,164 176,169 166,173"/>
</g>
<!-- IHP&#45;&#45;IHP -->
<g id="edge41" class="edge"><title>IHP&#45;&#45;IHP</title>
<path style="fill:none;stroke:black;" d="M113,105C124,105 133,107 133,112 133,117 124,119 113,119"/>
</g>
<!-- IHP&#45;&#45;IW -->
<g id="edge42" class="edge"><title>IHP&#45;&#45;IW</title>
<path style="fill:none;stroke:black;" d="M93,130C93,130 93,130 93,130"/>
</g>
<!-- IHP&#45;&#45;IH2 -->
<g id="edge43" class="edge"><title>IHP&#45;&#45;IH2</title>
<path style="fill:none;stroke:black;" d="M113,105C114,105 115,104 116,104"/>
</g>
<!-- IHP&#45;&#45;IH4 -->
<g id="edge44" class="edge"><title>IHP&#45;&#45;IH4</title>
<path style="fill:none;stroke:black;" d="M115,111C122,110 130,110 138,109"/>
</g>
<!-- IW&#45;&#45;IW -->
<g id="edge45" class="edge"><title>IW&#45;&#45;IW</title>
<path style="fill:none;stroke:black;" d="M123,138C134,138 143,140 143,145 143,150 134,152 123,152"/>
</g>
<!-- IW&#45;&#45;IH2 -->
<g id="edge46" class="edge"><title>IW&#45;&#45;IH2</title>
<path style="fill:none;stroke:black;" d="M112,129C117,124 122,118 127,113"/>
</g>
<!-- IW&#45;&#45;IH4 -->
<g id="edge47" class="edge"><title>IW&#45;&#45;IH4</title>
<path style="fill:none;stroke:black;" d="M119,133C127,129 136,124 144,120"/>
</g>
<!-- IH2&#45;&#45;HV -->
<g id="edge54" class="edge"><title>IH2&#45;&#45;HV</title>
<path style="fill:none;stroke:black;" d="M168,101C179,102 192,104 203,105"/>
</g>
<!-- IH2&#45;&#45;IH2 -->
<g id="edge48" class="edge"><title>IH2&#45;&#45;IH2</title>
<path style="fill:none;stroke:black;" d="M166,90C177,90 186,92 186,97 186,102 177,104 166,104"/>
</g>
<!-- IH2&#45;&#45;IH4 -->
<g id="edge49" class="edge"><title>IH2&#45;&#45;IH4</title>
<path style="fill:none;stroke:black;" d="M163,107C163,107 163,107 163,107"/>
</g>
<!-- MLM -->
<g id="node42" class="node"><title>MLM</title>
<ellipse style="fill:none;stroke:black;" cx="150" cy="24" rx="30" ry="18"/>
<text text-anchor="middle" x="150" y="29">MLM</text>
</g>
<!-- IH2&#45;&#45;MLM -->
<g id="edge55" class="edge"><title>IH2&#45;&#45;MLM</title>
<path style="fill:none;stroke:black;" d="M143,79C145,68 146,53 148,42"/>
</g>
<!-- IH4&#45;&#45;HV -->
<g id="edge56" class="edge"><title>IH4&#45;&#45;HV</title>
<path style="fill:none;stroke:black;" d="M192,108C196,108 199,108 203,108"/>
</g>
<!-- IH4&#45;&#45;IH4 -->
<g id="edge50" class="edge"><title>IH4&#45;&#45;IH4</title>
<path style="fill:none;stroke:black;" d="M190,101C201,101 210,103 210,108 210,113 201,115 190,115"/>
</g>
<!-- IH4&#45;&#45;MLM -->
<g id="edge57" class="edge"><title>IH4&#45;&#45;MLM</title>
<path style="fill:none;stroke:black;" d="M162,90C159,76 156,56 153,42"/>
</g>
</g>
</svg>
