<?xml version="1.0" encoding="UTF-8" standalone="no"?>
<!DOCTYPE svg PUBLIC "-//W3C//DTD SVG 1.1//EN"
 "http://www.w3.org/Graphics/SVG/1.1/DTD/svg11.dtd">
<!-- Generated by graphviz version 2.43.0 (0)
 -->
<!-- Title: ip_map Pages: 1 -->
<svg width="366pt" height="532pt"
 viewBox="0.00 0.00 366.34 532.49" xmlns="http://www.w3.org/2000/svg" xmlns:xlink="http://www.w3.org/1999/xlink">
<g id="graph0" class="graph" transform="scale(1 1) rotate(0) translate(4 528.49)">
<title>ip_map</title>
<polygon fill="white" stroke="transparent" points="-4,4 -4,-528.49 362.34,-528.49 362.34,4 -4,4"/>
<!-- MH -->
<g id="node1" class="node">
<title>MH</title>
<ellipse fill="none" stroke="black" cx="160.91" cy="-297.47" rx="27" ry="18"/>
<text text-anchor="middle" x="160.91" y="-293.77" font-family="Helvetica,Arial,sans-serif" font-size="14.00">MH</text>
</g>
<!-- ERC -->
<g id="node2" class="node">
<title>ERC</title>
<ellipse fill="none" stroke="black" cx="254.16" cy="-280.1" rx="29.5" ry="18"/>
<text text-anchor="middle" x="254.16" y="-276.4" font-family="Helvetica,Arial,sans-serif" font-size="14.00">ERC</text>
</g>
<!-- MH&#45;&#45;ERC -->
<g id="edge1" class="edge">
<title>MH&#45;&#45;ERC</title>
<path fill="none" stroke="black" d="M187.38,-292.54C199.45,-290.29 213.74,-287.63 226,-285.35"/>
</g>
<!-- ALC -->
<g id="node3" class="node">
<title>ALC</title>
<ellipse fill="none" stroke="black" cx="73.95" cy="-261.83" rx="27.9" ry="18"/>
<text text-anchor="middle" x="73.95" y="-258.13" font-family="Helvetica,Arial,sans-serif" font-size="14.00">ALC</text>
</g>
<!-- MH&#45;&#45;ALC -->
<g id="edge2" class="edge">
<title>MH&#45;&#45;ALC</title>
<path fill="none" stroke="black" d="M137.61,-287.92C125.23,-282.85 110.05,-276.63 97.62,-271.53"/>
</g>
<!-- WH1 -->
<g id="node4" class="node">
<title>WH1</title>
<ellipse fill="none" stroke="black" cx="152.86" cy="-215.71" rx="30.59" ry="18"/>
<text text-anchor="middle" x="152.86" y="-212.01" font-family="Helvetica,Arial,sans-serif" font-size="14.00">WH1</text>
</g>
<!-- MH&#45;&#45;WH1 -->
<g id="edge3" class="edge">
<title>MH&#45;&#45;WH1</title>
<path fill="none" stroke="black" d="M159.13,-279.32C157.79,-265.77 155.98,-247.34 154.65,-233.8"/>
</g>
<!-- HO1 -->
<g id="node5" class="node">
<title>HO1</title>
<ellipse fill="none" stroke="black" cx="234.11" cy="-328.66" rx="29.5" ry="18"/>
<text text-anchor="middle" x="234.11" y="-324.96" font-family="Helvetica,Arial,sans-serif" font-size="14.00">HO1</text>
</g>
<!-- MH&#45;&#45;HO1 -->
<g id="edge4" class="edge">
<title>MH&#45;&#45;HO1</title>
<path fill="none" stroke="black" d="M183.67,-307.17C191.98,-310.71 201.4,-314.72 209.84,-318.32"/>
</g>
<!-- IH1 -->
<g id="node6" class="node">
<title>IH1</title>
<ellipse fill="none" stroke="black" cx="135.14" cy="-347.75" rx="27" ry="18"/>
<text text-anchor="middle" x="135.14" y="-344.05" font-family="Helvetica,Arial,sans-serif" font-size="14.00">IH1</text>
</g>
<!-- MH&#45;&#45;IH1 -->
<g id="edge5" class="edge">
<title>MH&#45;&#45;IH1</title>
<path fill="none" stroke="black" d="M152.04,-314.77C149.42,-319.89 146.55,-325.48 143.94,-330.59"/>
</g>
<!-- MV -->
<g id="node7" class="node">
<title>MV</title>
<ellipse fill="none" stroke="black" cx="97.87" cy="-206.14" rx="27" ry="18"/>
<text text-anchor="middle" x="97.87" y="-202.44" font-family="Helvetica,Arial,sans-serif" font-size="14.00">MV</text>
</g>
<!-- ALC&#45;&#45;MV -->
<g id="edge6" class="edge">
<title>ALC&#45;&#45;MV</title>
<path fill="none" stroke="black" d="M81.52,-244.21C84.37,-237.58 87.6,-230.06 90.43,-223.46"/>
</g>
<!-- HO3 -->
<g id="node9" class="node">
<title>HO3</title>
<ellipse fill="none" stroke="black" cx="182.12" cy="-260.28" rx="29.5" ry="18"/>
<text text-anchor="middle" x="182.12" y="-256.58" font-family="Helvetica,Arial,sans-serif" font-size="14.00">HO3</text>
</g>
<!-- HO1&#45;&#45;HO3 -->
<g id="edge40" class="edge">
<title>HO1&#45;&#45;HO3</title>
<path fill="none" stroke="black" d="M221.52,-312.11C213.35,-301.35 202.74,-287.4 194.59,-276.68"/>
</g>
<!-- HR -->
<g id="node15" class="node">
<title>HR</title>
<ellipse fill="none" stroke="black" cx="320.13" cy="-355.44" rx="27" ry="18"/>
<text text-anchor="middle" x="320.13" y="-351.74" font-family="Helvetica,Arial,sans-serif" font-size="14.00">HR</text>
</g>
<!-- HO1&#45;&#45;HR -->
<g id="edge15" class="edge">
<title>HO1&#45;&#45;HR</title>
<path fill="none" stroke="black" d="M260.38,-336.84C271.55,-340.32 284.5,-344.35 295.48,-347.77"/>
</g>
<!-- CB -->
<g id="node17" class="node">
<title>CB</title>
<ellipse fill="none" stroke="black" cx="213.62" cy="-381.52" rx="27" ry="18"/>
<text text-anchor="middle" x="213.62" y="-377.82" font-family="Helvetica,Arial,sans-serif" font-size="14.00">CB</text>
</g>
<!-- HO1&#45;&#45;CB -->
<g id="edge17" class="edge">
<title>HO1&#45;&#45;CB</title>
<path fill="none" stroke="black" d="M227.28,-346.26C225.1,-351.91 222.67,-358.16 220.48,-363.81"/>
</g>
<!-- HV -->
<g id="node19" class="node">
<title>HV</title>
<ellipse fill="none" stroke="black" cx="222.13" cy="-422.71" rx="27" ry="18"/>
<text text-anchor="middle" x="222.13" y="-419.01" font-family="Helvetica,Arial,sans-serif" font-size="14.00">HV</text>
</g>
<!-- HO1&#45;&#45;HV -->
<g id="edge20" class="edge">
<title>HO1&#45;&#45;HV</title>
<path fill="none" stroke="black" d="M231.8,-346.79C229.68,-363.45 226.55,-388 224.43,-404.63"/>
</g>
<!-- IH1&#45;&#45;IH1 -->
<g id="edge21" class="edge">
<title>IH1&#45;&#45;IH1</title>
<path fill="none" stroke="black" d="M160.58,-354.44C171.17,-354.9 180.14,-352.67 180.14,-347.75 180.14,-342.83 171.17,-340.6 160.58,-341.06"/>
</g>
<!-- IHC -->
<g id="node18" class="node">
<title>IHC</title>
<ellipse fill="none" stroke="black" cx="41.34" cy="-337.48" rx="27" ry="18"/>
<text text-anchor="middle" x="41.34" y="-333.78" font-family="Helvetica,Arial,sans-serif" font-size="14.00">IHC</text>
</g>
<!-- IH1&#45;&#45;IHC -->
<g id="edge19" class="edge">
<title>IH1&#45;&#45;IHC</title>
<path fill="none" stroke="black" d="M108.26,-344.81C95.7,-343.43 80.78,-341.8 68.22,-340.43"/>
</g>
<!-- IHP -->
<g id="node20" class="node">
<title>IHP</title>
<ellipse fill="none" stroke="black" cx="81.14" cy="-420.06" rx="27" ry="18"/>
<text text-anchor="middle" x="81.14" y="-416.36" font-family="Helvetica,Arial,sans-serif" font-size="14.00">IHP</text>
</g>
<!-- IH1&#45;&#45;IHP -->
<g id="edge22" class="edge">
<title>IH1&#45;&#45;IHP</title>
<path fill="none" stroke="black" d="M122.89,-364.16C114.05,-375.99 102.17,-391.9 93.35,-403.72"/>
</g>
<!-- IW -->
<g id="node21" class="node">
<title>IW</title>
<ellipse fill="none" stroke="black" cx="89.12" cy="-385.46" rx="27" ry="18"/>
<text text-anchor="middle" x="89.12" y="-381.76" font-family="Helvetica,Arial,sans-serif" font-size="14.00">IW</text>
</g>
<!-- IH1&#45;&#45;IW -->
<g id="edge23" class="edge">
<title>IH1&#45;&#45;IW</title>
<path fill="none" stroke="black" d="M118,-361.79C114.22,-364.89 110.21,-368.18 106.42,-371.28"/>
</g>
<!-- IH2 -->
<g id="node22" class="node">
<title>IH2</title>
<ellipse fill="none" stroke="black" cx="136.84" cy="-431.72" rx="27" ry="18"/>
<text text-anchor="middle" x="136.84" y="-428.02" font-family="Helvetica,Arial,sans-serif" font-size="14.00">IH2</text>
</g>
<!-- IH1&#45;&#45;IH2 -->
<g id="edge24" class="edge">
<title>IH1&#45;&#45;IH2</title>
<path fill="none" stroke="black" d="M135.51,-365.97C135.79,-380.06 136.19,-399.46 136.47,-413.53"/>
</g>
<!-- IH4 -->
<g id="node23" class="node">
<title>IH4</title>
<ellipse fill="none" stroke="black" cx="154.07" cy="-424.25" rx="27" ry="18"/>
<text text-anchor="middle" x="154.07" y="-420.55" font-family="Helvetica,Arial,sans-serif" font-size="14.00">IH4</text>
</g>
<!-- IH1&#45;&#45;IH4 -->
<g id="edge25" class="edge">
<title>IH1&#45;&#45;IH4</title>
<path fill="none" stroke="black" d="M139.62,-365.88C142.64,-378.08 146.6,-394.08 149.61,-406.25"/>
</g>
<!-- AN -->
<g id="node8" class="node">
<title>AN</title>
<ellipse fill="none" stroke="black" cx="27" cy="-161.47" rx="27" ry="18"/>
<text text-anchor="middle" x="27" y="-157.77" font-family="Helvetica,Arial,sans-serif" font-size="14.00">AN</text>
</g>
<!-- MV&#45;&#45;AN -->
<g id="edge7" class="edge">
<title>MV&#45;&#45;AN</title>
<path fill="none" stroke="black" d="M78.13,-193.7C68.3,-187.5 56.45,-180.03 46.64,-173.84"/>
</g>
<!-- MV&#45;&#45;HO3 -->
<g id="edge8" class="edge">
<title>MV&#45;&#45;HO3</title>
<path fill="none" stroke="black" d="M117.41,-218.69C130.73,-227.25 148.32,-238.56 161.8,-247.22"/>
</g>
<!-- HO3&#45;&#45;WH1 -->
<g id="edge9" class="edge">
<title>HO3&#45;&#45;WH1</title>
<path fill="none" stroke="black" d="M171.06,-243.43C168.73,-239.88 166.27,-236.13 163.94,-232.58"/>
</g>
<!-- HO3&#45;&#45;IH1 -->
<g id="edge41" class="edge">
<title>HO3&#45;&#45;IH1</title>
<path fill="none" stroke="black" d="M172.84,-277.56C164.55,-292.99 152.48,-315.47 144.24,-330.8"/>
</g>
<!-- MT -->
<g id="node10" class="node">
<title>MT</title>
<ellipse fill="none" stroke="black" cx="242.51" cy="-184.27" rx="27" ry="18"/>
<text text-anchor="middle" x="242.51" y="-180.57" font-family="Helvetica,Arial,sans-serif" font-size="14.00">MT</text>
</g>
<!-- HO3&#45;&#45;MT -->
<g id="edge10" class="edge">
<title>HO3&#45;&#45;MT</title>
<path fill="none" stroke="black" d="M195.22,-243.78C205.49,-230.86 219.69,-212.99 229.84,-200.21"/>
</g>
<!-- LZ -->
<g id="node11" class="node">
<title>LZ</title>
<ellipse fill="none" stroke="black" cx="207.5" cy="-98.85" rx="27" ry="18"/>
<text text-anchor="middle" x="207.5" y="-95.15" font-family="Helvetica,Arial,sans-serif" font-size="14.00">LZ</text>
</g>
<!-- MT&#45;&#45;LZ -->
<g id="edge11" class="edge">
<title>MT&#45;&#45;LZ</title>
<path fill="none" stroke="black" d="M235.26,-166.57C229.21,-151.81 220.64,-130.9 214.63,-116.23"/>
</g>
<!-- FJ -->
<g id="node13" class="node">
<title>FJ</title>
<ellipse fill="none" stroke="black" cx="319.91" cy="-152.37" rx="27" ry="18"/>
<text text-anchor="middle" x="319.91" y="-148.67" font-family="Helvetica,Arial,sans-serif" font-size="14.00">FJ</text>
</g>
<!-- MT&#45;&#45;FJ -->
<g id="edge13" class="edge">
<title>MT&#45;&#45;FJ</title>
<path fill="none" stroke="black" d="M265.73,-174.7C275.53,-170.66 286.91,-165.97 296.7,-161.93"/>
</g>
<!-- ER -->
<g id="node14" class="node">
<title>ER</title>
<ellipse fill="none" stroke="black" cx="331.34" cy="-202.72" rx="27" ry="18"/>
<text text-anchor="middle" x="331.34" y="-199.02" font-family="Helvetica,Arial,sans-serif" font-size="14.00">ER</text>
</g>
<!-- MT&#45;&#45;ER -->
<g id="edge14" class="edge">
<title>MT&#45;&#45;ER</title>
<path fill="none" stroke="black" d="M268.68,-189.7C280.25,-192.11 293.81,-194.92 305.36,-197.32"/>
</g>
<!-- DR -->
<g id="node16" class="node">
<title>DR</title>
<ellipse fill="none" stroke="black" cx="273.81" cy="-115.73" rx="27" ry="18"/>
<text text-anchor="middle" x="273.81" y="-112.03" font-family="Helvetica,Arial,sans-serif" font-size="14.00">DR</text>
</g>
<!-- MT&#45;&#45;DR -->
<g id="edge16" class="edge">
<title>MT&#45;&#45;DR</title>
<path fill="none" stroke="black" d="M250.41,-166.97C255.12,-156.66 261.08,-143.61 265.81,-133.26"/>
</g>
<!-- FL -->
<g id="node12" class="node">
<title>FL</title>
<ellipse fill="none" stroke="black" cx="203.65" cy="-18" rx="27" ry="18"/>
<text text-anchor="middle" x="203.65" y="-14.3" font-family="Helvetica,Arial,sans-serif" font-size="14.00">FL</text>
</g>
<!-- LZ&#45;&#45;FL -->
<g id="edge12" class="edge">
<title>LZ&#45;&#45;FL</title>
<path fill="none" stroke="black" d="M206.63,-80.5C206,-67.18 205.14,-49.24 204.51,-35.99"/>
</g>
<!-- CB&#45;&#45;IH1 -->
<g id="edge18" class="edge">
<title>CB&#45;&#45;IH1</title>
<path fill="none" stroke="black" d="M190.92,-371.75C180.6,-367.31 168.41,-362.07 158.06,-357.61"/>
</g>
<!-- IHP&#45;&#45;IHP -->
<g id="edge26" class="edge">
<title>IHP&#45;&#45;IHP</title>
<path fill="none" stroke="black" d="M106.59,-426.75C117.17,-427.21 126.14,-424.98 126.14,-420.06 126.14,-415.14 117.17,-412.91 106.59,-413.37"/>
</g>
<!-- IHP&#45;&#45;IW -->
<g id="edge27" class="edge">
<title>IHP&#45;&#45;IW</title>
<path fill="none" stroke="black" d="M85.32,-401.95C85.35,-401.82 85.38,-401.69 85.41,-401.56"/>
</g>
<!-- IHP&#45;&#45;IH2 -->
<g id="edge28" class="edge">
<title>IHP&#45;&#45;IH2</title>
<path fill="none" stroke="black" d="M107.04,-425.48C108.29,-425.74 109.54,-426 110.79,-426.26"/>
</g>
<!-- IHP&#45;&#45;IH4 -->
<g id="edge29" class="edge">
<title>IHP&#45;&#45;IH4</title>
<path fill="none" stroke="black" d="M108.3,-421.62C114.45,-421.97 120.99,-422.35 127.13,-422.7"/>
</g>
<!-- IW&#45;&#45;IW -->
<g id="edge30" class="edge">
<title>IW&#45;&#45;IW</title>
<path fill="none" stroke="black" d="M114.56,-392.15C125.15,-392.61 134.12,-390.38 134.12,-385.46 134.12,-380.54 125.15,-378.31 114.56,-378.77"/>
</g>
<!-- IW&#45;&#45;IH2 -->
<g id="edge31" class="edge">
<title>IW&#45;&#45;IH2</title>
<path fill="none" stroke="black" d="M104.48,-400.35C109.93,-405.63 116.06,-411.58 121.51,-416.86"/>
</g>
<!-- IW&#45;&#45;IH4 -->
<g id="edge32" class="edge">
<title>IW&#45;&#45;IH4</title>
<path fill="none" stroke="black" d="M109.31,-397.52C117.06,-402.15 125.9,-407.43 133.66,-412.06"/>
</g>
<!-- IH2&#45;&#45;HV -->
<g id="edge36" class="edge">
<title>IH2&#45;&#45;HV</title>
<path fill="none" stroke="black" d="M163.83,-428.87C173.88,-427.81 185.28,-426.6 195.32,-425.54"/>
</g>
<!-- IH2&#45;&#45;IH2 -->
<g id="edge33" class="edge">
<title>IH2&#45;&#45;IH2</title>
<path fill="none" stroke="black" d="M162.28,-438.41C172.87,-438.87 181.84,-436.64 181.84,-431.72 181.84,-426.8 172.87,-424.57 162.28,-425.03"/>
</g>
<!-- IH2&#45;&#45;IH4 -->
<g id="edge34" class="edge">
<title>IH2&#45;&#45;IH4</title>
<path fill="none" stroke="black" d="M154.02,-424.27C154.03,-424.27 154.05,-424.26 154.05,-424.26"/>
</g>
<!-- MLM -->
<g id="node24" class="node">
<title>MLM</title>
<ellipse fill="none" stroke="black" cx="140.03" cy="-506.49" rx="31.4" ry="18"/>
<text text-anchor="middle" x="140.03" y="-502.79" font-family="Helvetica,Arial,sans-serif" font-size="14.00">MLM</text>
</g>
<!-- IH2&#45;&#45;MLM -->
<g id="edge37" class="edge">
<title>IH2&#45;&#45;MLM</title>
<path fill="none" stroke="black" d="M137.61,-449.82C138.11,-461.49 138.75,-476.61 139.25,-488.3"/>
</g>
<!-- IH4&#45;&#45;HV -->
<g id="edge38" class="edge">
<title>IH4&#45;&#45;HV</title>
<path fill="none" stroke="black" d="M181.36,-423.63C185.8,-423.53 190.4,-423.43 194.83,-423.33"/>
</g>
<!-- IH4&#45;&#45;IH4 -->
<g id="edge35" class="edge">
<title>IH4&#45;&#45;IH4</title>
<path fill="none" stroke="black" d="M179.51,-430.94C190.1,-431.4 199.07,-429.17 199.07,-424.25 199.07,-419.33 190.1,-417.1 179.51,-417.56"/>
</g>
<!-- IH4&#45;&#45;MLM -->
<g id="edge39" class="edge">
<title>IH4&#45;&#45;MLM</title>
<path fill="none" stroke="black" d="M150.95,-442.5C148.61,-456.23 145.41,-474.93 143.09,-488.58"/>
</g>
</g>
</svg>
