<?xml version="1.0" encoding="UTF-8" standalone="no"?>
<!DOCTYPE svg PUBLIC "-//W3C//DTD SVG 1.1//EN"
 "http://www.w3.org/Graphics/SVG/1.1/DTD/svg11.dtd">
<!-- Generated by graphviz version 2.43.0 (0)
 -->
<!-- Title: %3 Pages: 1 -->
<svg width="364pt" height="258pt"
 viewBox="0.00 0.00 364.00 258.00" xmlns="http://www.w3.org/2000/svg" xmlns:xlink="http://www.w3.org/1999/xlink">
<g id="graph0" class="graph" transform="scale(1 1) rotate(0) translate(4 254)">
<title>%3</title>
<polygon fill="white" stroke="transparent" points="-4,4 -4,-254 360,-254 360,4 -4,4"/>
<g id="clust1" class="cluster">
<title>cluster_1</title>
<polygon fill="none" stroke="black" points="0,-40 0,-250 298,-250 298,-40 0,-40"/>
<text text-anchor="middle" x="149" y="-234.8" font-family="Times,serif" font-size="14.00">composite cluster</text>
</g>
<g id="clust2" class="cluster">
<title>cluster_2</title>
<polygon fill="none" stroke="black" points="2,-82 2,-225 176,-225 176,-82 2,-82"/>
<text text-anchor="middle" x="89" y="-209.8" font-family="Times,serif" font-size="14.00">the first cluster</text>
</g>
<g id="clust3" class="cluster">
<title>cluster_3</title>
<polygon fill="none" stroke="black" points="180,-94 180,-212 296,-212 296,-94 180,-94"/>
<text text-anchor="middle" x="238" y="-196.8" font-family="Times,serif" font-size="14.00">the second</text>
<text text-anchor="middle" x="238" y="-181.8" font-family="Times,serif" font-size="14.00">cluster</text>
</g>
<!-- C -->
<g id="node1" class="node">
<title>C</title>
<ellipse fill="none" stroke="black" cx="31" cy="-182" rx="27" ry="18"/>
<text text-anchor="middle" x="31" y="-178.3" font-family="Times,serif" font-size="14.00">C</text>
</g>
<!-- L -->
<g id="node2" class="node">
<title>L</title>
<ellipse fill="none" stroke="black" cx="89" cy="-182" rx="27" ry="18"/>
<text text-anchor="middle" x="89" y="-178.3" font-family="Times,serif" font-size="14.00">L</text>
</g>
<!-- U -->
<g id="node3" class="node">
<title>U</title>
<ellipse fill="none" stroke="black" cx="147" cy="-182" rx="27" ry="18"/>
<text text-anchor="middle" x="147" y="-178.3" font-family="Times,serif" font-size="14.00">U</text>
</g>
<!-- S -->
<g id="node4" class="node">
<title>S</title>
<ellipse fill="none" stroke="black" cx="31" cy="-142" rx="27" ry="18"/>
<text text-anchor="middle" x="31" y="-138.3" font-family="Times,serif" font-size="14.00">S</text>
</g>
<!-- T -->
<g id="node5" class="node">
<title>T</title>
<ellipse fill="none" stroke="black" cx="89" cy="-142" rx="27" ry="18"/>
<text text-anchor="middle" x="89" y="-138.3" font-family="Times,serif" font-size="14.00">T</text>
</g>
<!-- E -->
<g id="node6" class="node">
<title>E</title>
<ellipse fill="none" stroke="black" cx="147" cy="-142" rx="27" ry="18"/>
<text text-anchor="middle" x="147" y="-138.3" font-family="Times,serif" font-size="14.00">E</text>
</g>
<!-- R -->
<g id="node7" class="node">
<title>R</title>
<ellipse fill="none" stroke="black" cx="31" cy="-102" rx="27" ry="18"/>
<text text-anchor="middle" x="31" y="-98.3" font-family="Times,serif" font-size="14.00">R</text>
</g>
<!-- a -->
<g id="node8" class="node">
<title>a</title>
<ellipse fill="none" stroke="black" cx="209" cy="-154" rx="27" ry="18"/>
<text text-anchor="middle" x="209" y="-150.3" font-family="Times,serif" font-size="14.00">a</text>
</g>
<!-- b -->
<g id="node9" class="node">
<title>b</title>
<ellipse fill="none" stroke="black" cx="267" cy="-154" rx="27" ry="18"/>
<text text-anchor="middle" x="267" y="-150.3" font-family="Times,serif" font-size="14.00">b</text>
</g>
<!-- c -->
<g id="node10" class="node">
<title>c</title>
<ellipse fill="none" stroke="black" cx="209" cy="-114" rx="27" ry="18"/>
<text text-anchor="middle" x="209" y="-110.3" font-family="Times,serif" font-size="14.00">c</text>
</g>
<!-- d -->
<g id="node11" class="node">
<title>d</title>
<ellipse fill="none" stroke="black" cx="267" cy="-114" rx="27" ry="18"/>
<text text-anchor="middle" x="267" y="-110.3" font-family="Times,serif" font-size="14.00">d</text>
</g>
<!-- 1 -->
<g id="node12" class="node">
<title>1</title>
<ellipse fill="none" stroke="black" cx="89" cy="-60" rx="27" ry="18"/>
<text text-anchor="middle" x="89" y="-56.3" font-family="Times,serif" font-size="14.00">1</text>
</g>
<!-- 2 -->
<g id="node13" class="node">
<title>2</title>
<ellipse fill="none" stroke="black" cx="238" cy="-60" rx="27" ry="18"/>
<text text-anchor="middle" x="238" y="-56.3" font-family="Times,serif" font-size="14.00">2</text>
</g>
<!-- 3 -->
<g id="node14" class="node">
<title>3</title>
<ellipse fill="none" stroke="black" cx="329" cy="-145" rx="27" ry="18"/>
<text text-anchor="middle" x="329" y="-141.3" font-family="Times,serif" font-size="14.00">3</text>
</g>
<!-- 4 -->
<g id="node15" class="node">
<title>4</title>
<ellipse fill="none" stroke="black" cx="149" cy="-18" rx="27" ry="18"/>
<text text-anchor="middle" x="149" y="-14.3" font-family="Times,serif" font-size="14.00">4</text>
</g>
<!-- 5 -->
<g id="node16" class="node">
<title>5</title>
<ellipse fill="none" stroke="black" cx="329" cy="-18" rx="27" ry="18"/>
<text text-anchor="middle" x="329" y="-14.3" font-family="Times,serif" font-size="14.00">5</text>
</g>
</g>
</svg>
