<?xml version="1.0" encoding="UTF-8" standalone="no"?>
<!DOCTYPE svg PUBLIC "-//W3C//DTD SVG 1.1//EN"
 "http://www.w3.org/Graphics/SVG/1.1/DTD/svg11.dtd">
<!-- Generated by graphviz version 3.0.1~dev.20220803.1512 (20220803.1512)
 -->
<!-- Pages: 1 -->
<svg width="628pt" height="628pt"
 viewBox="0.00 0.00 628.48 628.48" xmlns="http://www.w3.org/2000/svg" xmlns:xlink="http://www.w3.org/1999/xlink">
<g id="graph0" class="graph" transform="scale(1 1) rotate(0) translate(4 624.48)">
<polygon fill="white" stroke="transparent" points="-4,4 -4,-624.48 624.48,-624.48 624.48,4 -4,4"/>
<!-- 5c -->
<g id="node1" class="node">
<title>5c</title>
<polygon fill="silver" stroke="black" points="620.48,-40.92 498.3,-40.92 498.3,0 620.48,0 620.48,-40.92"/>
<text text-anchor="middle" x="559.39" y="-16.76" font-family="Times,serif" font-size="14.00">5c</text>
</g>
<!-- 10c -->
<g id="node2" class="node">
<title>10c</title>
<polygon fill="silver" stroke="black" points="620.48,-122.77 498.3,-122.77 498.3,-40.92 620.48,-40.92 620.48,-122.77"/>
<text text-anchor="middle" x="559.39" y="-78.15" font-family="Times,serif" font-size="14.00">10c</text>
</g>
<!-- 20c -->
<g id="node3" class="node">
<title>20c</title>
<polygon fill="silver" stroke="black" points="498.3,-122.77 335.4,-122.77 335.4,0 498.3,0 498.3,-122.77"/>
<text text-anchor="middle" x="416.85" y="-57.68" font-family="Times,serif" font-size="14.00">20c</text>
</g>
<!-- 50c -->
<g id="node4" class="node">
<title>50c</title>
<polygon fill="silver" stroke="black" points="620.48,-298.15 335.4,-298.15 335.4,-122.77 620.48,-122.77 620.48,-298.15"/>
<text text-anchor="middle" x="477.94" y="-206.76" font-family="Times,serif" font-size="14.00">50c</text>
</g>
<!-- $1 -->
<g id="node5" class="node">
<title>$1</title>
<polygon fill="gold" stroke="black" points="335.4,-298.15 0,-298.15 0,0 335.4,0 335.4,-298.15"/>
<text text-anchor="middle" x="167.7" y="-145.38" font-family="Times,serif" font-size="14.00">$1</text>
</g>
<!-- $2 -->
<g id="node6" class="node">
<title>$2</title>
<polygon fill="gold" stroke="black" points="620.48,-620.48 0,-620.48 0,-298.15 620.48,-298.15 620.48,-620.48"/>
<text text-anchor="middle" x="310.24" y="-455.62" font-family="Times,serif" font-size="14.00">$2</text>
</g>
</g>
</svg>
