<?xml version="1.0" encoding="UTF-8" standalone="no"?>
<!DOCTYPE svg PUBLIC "-//W3C//DTD SVG 1.1//EN"
 "http://www.w3.org/Graphics/SVG/1.1/DTD/svg11.dtd">
<!-- Generated by graphviz version 2.29.0 (20120110.1522)
 -->
<!-- Title: G Pages: 1 -->
<svg width="224pt" height="407pt"
 viewBox="0.00 0.00 224.00 407.00" xmlns="http://www.w3.org/2000/svg" xmlns:xlink="http://www.w3.org/1999/xlink">
<g id="graph1" class="graph" transform="scale(1 1) rotate(0) translate(4 403)">
<title>G</title>
<defs>
<linearGradient id="l_0" gradientUnits="userSpaceOnUse" x1="-4" y1="-199" x2="221" y2="-199" >
<stop offset="0" style="stop-color:red;stop-opacity:1.;"/>
<stop offset="1" style="stop-color:cyan;stop-opacity:1.;"/>
</linearGradient>
</defs>
<polygon fill="url(#l_0)" points="-4,5 -4,-403 221,-403 221,5 -4,5"/>
<g id="graph2" class="cluster"><title>cluster_0</title>
<defs>
<linearGradient id="l_1" gradientUnits="userSpaceOnUse" x1="53" y1="-64" x2="53" y2="-355" >
<stop offset="0" style="stop-color:blue;stop-opacity:1.;"/>
<stop offset="1" style="stop-color:yellow;stop-opacity:1.;"/>
</linearGradient>
</defs>
<polygon fill="url(#l_1)" points="8,-64 8,-355 98,-355 98,-64 8,-64"/>
<text text-anchor="middle" x="53" y="-339.8" font-family="Times,serif" font-size="14.00">process #1</text>
</g>
<g id="graph3" class="cluster"><title>cluster_1</title>
<defs>
<linearGradient id="l_2" gradientUnits="userSpaceOnUse" x1="171" y1="-64" x2="171" y2="-355" >
<stop offset="0" style="stop-color:blue;stop-opacity:1.;"/>
<stop offset="1" style="stop-color:yellow;stop-opacity:1.;"/>
</linearGradient>
</defs>
<polygon fill="url(#l_2)" points="134,-64 134,-355 208,-355 208,-64 134,-64"/>
<text text-anchor="middle" x="171" y="-339.8" font-family="Times,serif" font-size="14.00">process #2</text>
</g>
<!-- a0 -->
<g id="node2" class="node"><title>a0</title>
<defs>
<linearGradient id="l_3" gradientUnits="userSpaceOnUse" x1="63" y1="-324" x2="63" y2="-288" >
<stop offset="0" style="stop-color:yellow;stop-opacity:1.;"/>
<stop offset="1" style="stop-color:green;stop-opacity:1.;"/>
</linearGradient>
</defs>
<ellipse fill="url(#l_3)" cx="63" cy="-306" rx="27" ry="18"/>
<text text-anchor="middle" x="63" y="-302.3" font-family="Times,serif" font-size="14.00">a0</text>
</g>
<!-- a1 -->
<g id="node3" class="node"><title>a1</title>
<defs>
<linearGradient id="l_4" gradientUnits="userSpaceOnUse" x1="63" y1="-252" x2="63" y2="-216" >
<stop offset="0" style="stop-color:green;stop-opacity:1.;"/>
<stop offset="1" style="stop-color:red;stop-opacity:1.;"/>
</linearGradient>
</defs>
<ellipse fill="url(#l_4)" cx="63" cy="-234" rx="27" ry="18"/>
<text text-anchor="middle" x="63" y="-230.3" font-family="Times,serif" font-size="14.00">a1</text>
</g>
<!-- a0&#45;&gt;a1 -->
<g id="edge3" class="edge"><title>a0&#45;&gt;a1</title>
<path fill="none" stroke="black" d="M63,-287.697C63,-279.983 63,-270.712 63,-262.112"/>
<polygon fill="black" stroke="black" points="66.5001,-262.104 63,-252.104 59.5001,-262.104 66.5001,-262.104"/>
</g>
<!-- a2 -->
<g id="node4" class="node"><title>a2</title>
<defs>
<linearGradient id="l_5" gradientUnits="userSpaceOnUse" x1="63" y1="-180" x2="63" y2="-144" >
<stop offset="0" style="stop-color:red;stop-opacity:1.;"/>
<stop offset="1" style="stop-color:cyan;stop-opacity:1.;"/>
</linearGradient>
</defs>
<ellipse fill="url(#l_5)" cx="63" cy="-162" rx="27" ry="18"/>
<text text-anchor="middle" x="63" y="-158.3" font-family="Times,serif" font-size="14.00">a2</text>
</g>
<!-- a1&#45;&gt;a2 -->
<g id="edge4" class="edge"><title>a1&#45;&gt;a2</title>
<path fill="none" stroke="black" d="M63,-215.697C63,-207.983 63,-198.712 63,-190.112"/>
<polygon fill="black" stroke="black" points="66.5001,-190.104 63,-180.104 59.5001,-190.104 66.5001,-190.104"/>
</g>
<!-- b3 -->
<g id="node11" class="node"><title>b3</title>
<defs>
<linearGradient id="l_6" gradientUnits="userSpaceOnUse" x1="169" y1="-108" x2="169" y2="-72" >
<stop offset="0" style="stop-color:red;stop-opacity:1.;"/>
<stop offset="1" style="stop-color:blue;stop-opacity:1.;"/>
</linearGradient>
</defs>
<ellipse fill="url(#l_6)" cx="169" cy="-90" rx="27" ry="18"/>
<text text-anchor="middle" x="169" y="-86.3" font-family="Times,serif" font-size="14.00">b3</text>
</g>
<!-- a1&#45;&gt;b3 -->
<g id="edge16" class="edge"><title>a1&#45;&gt;b3</title>
<path fill="none" stroke="black" d="M74.5456,-217.533C93.1037,-192.672 129.69,-143.661 151.48,-114.47"/>
<polygon fill="black" stroke="black" points="154.291,-116.555 157.469,-106.448 148.682,-112.368 154.291,-116.555"/>
</g>
<!-- a3 -->
<g id="node5" class="node"><title>a3</title>
<defs>
<linearGradient id="l_7" gradientUnits="userSpaceOnUse" x1="63" y1="-108" x2="63" y2="-72" >
<stop offset="0" style="stop-color:cyan;stop-opacity:1.;"/>
<stop offset="1" style="stop-color:blue;stop-opacity:1.;"/>
</linearGradient>
</defs>
<ellipse fill="url(#l_7)" cx="63" cy="-90" rx="27" ry="18"/>
<text text-anchor="middle" x="63" y="-86.3" font-family="Times,serif" font-size="14.00">a3</text>
</g>
<!-- a2&#45;&gt;a3 -->
<g id="edge5" class="edge"><title>a2&#45;&gt;a3</title>
<path fill="none" stroke="black" d="M63,-143.697C63,-135.983 63,-126.712 63,-118.112"/>
<polygon fill="black" stroke="black" points="66.5001,-118.104 63,-108.104 59.5001,-118.104 66.5001,-118.104"/>
</g>
<!-- a3&#45;&gt;a0 -->
<g id="edge20" class="edge"><title>a3&#45;&gt;a0</title>
<path fill="none" stroke="black" d="M49.2496,-105.931C41.0392,-115.9 31.381,-129.753 27,-144 12.8916,-189.88 12.8916,-206.12 27,-252 30.2858,-262.685 36.5399,-273.149 42.9254,-281.919"/>
<polygon fill="black" stroke="black" points="40.354,-284.314 49.2496,-290.069 45.8844,-280.023 40.354,-284.314"/>
</g>
<!-- end -->
<g id="node20" class="node"><title>end</title>
<defs>
<radialGradient id="r_8" cx="50%" cy="50%" r="75%" fx="49%" fy="0%">
<stop offset="0" style="stop-color:orange;stop-opacity:1.;"/>
<stop offset="1" style="stop-color:blue;stop-opacity:1.;"/>
</radialGradient>
</defs>
<polygon fill="url(#r_8)" points="134,-36 98,-36 98,-0 134,-0 134,-36"/>
<polyline fill="none" stroke="black" points="110,-36 98,-24 "/>
<polyline fill="none" stroke="black" points="98,-12 110,-0 "/>
<polyline fill="none" stroke="black" points="122,-0 134,-12 "/>
<polyline fill="none" stroke="black" points="134,-24 122,-36 "/>
<text text-anchor="middle" x="116" y="-14.3" font-family="Times,serif" font-size="14.00">end</text>
</g>
<!-- a3&#45;&gt;end -->
<g id="edge22" class="edge"><title>a3&#45;&gt;end</title>
<path fill="none" stroke="black" d="M74.7624,-73.4647C81.1781,-64.9912 89.2837,-54.2857 96.6072,-44.6131"/>
<polygon fill="black" stroke="black" points="99.5336,-46.5462 102.78,-36.4609 93.9528,-42.3207 99.5336,-46.5462"/>
</g>
<!-- b0 -->
<g id="node8" class="node"><title>b0</title>
<defs>
<linearGradient id="l_9" gradientUnits="userSpaceOnUse" x1="171" y1="-324" x2="171" y2="-288" >
<stop offset="0" style="stop-color:yellow;stop-opacity:1.;"/>
<stop offset="1" style="stop-color:magenta;stop-opacity:1.;"/>
</linearGradient>
</defs>
<ellipse fill="url(#l_9)" cx="171" cy="-306" rx="27" ry="18"/>
<text text-anchor="middle" x="171" y="-302.3" font-family="Times,serif" font-size="14.00">b0</text>
</g>
<!-- b1 -->
<g id="node9" class="node"><title>b1</title>
<defs>
<linearGradient id="l_10" gradientUnits="userSpaceOnUse" x1="172" y1="-252" x2="172" y2="-216" >
<stop offset="0" style="stop-color:magenta;stop-opacity:1.;"/>
<stop offset="1" style="stop-color:cyan;stop-opacity:1.;"/>
</linearGradient>
</defs>
<ellipse fill="url(#l_10)" cx="172" cy="-234" rx="27" ry="18"/>
<text text-anchor="middle" x="172" y="-230.3" font-family="Times,serif" font-size="14.00">b1</text>
</g>
<!-- b0&#45;&gt;b1 -->
<g id="edge8" class="edge"><title>b0&#45;&gt;b1</title>
<path fill="none" stroke="black" d="M171.247,-287.697C171.357,-279.983 171.49,-270.712 171.613,-262.112"/>
<polygon fill="black" stroke="black" points="175.112,-262.153 171.756,-252.104 168.113,-262.053 175.112,-262.153"/>
</g>
<!-- b2 -->
<g id="node10" class="node"><title>b2</title>
<defs>
<linearGradient id="l_11" gradientUnits="userSpaceOnUse" x1="173" y1="-180" x2="173" y2="-144" >
<stop offset="0" style="stop-color:cyan;stop-opacity:1.;"/>
<stop offset="1" style="stop-color:red;stop-opacity:1.;"/>
</linearGradient>
</defs>
<ellipse fill="url(#l_11)" cx="173" cy="-162" rx="27" ry="18"/>
<text text-anchor="middle" x="173" y="-158.3" font-family="Times,serif" font-size="14.00">b2</text>
</g>
<!-- b1&#45;&gt;b2 -->
<g id="edge9" class="edge"><title>b1&#45;&gt;b2</title>
<path fill="none" stroke="black" d="M172.247,-215.697C172.357,-207.983 172.49,-198.712 172.613,-190.112"/>
<polygon fill="black" stroke="black" points="176.112,-190.153 172.756,-180.104 169.113,-190.053 176.112,-190.153"/>
</g>
<!-- b2&#45;&gt;a3 -->
<g id="edge18" class="edge"><title>b2&#45;&gt;a3</title>
<path fill="none" stroke="black" d="M153.839,-148.807C136.331,-137.665 110.241,-121.062 90.5068,-108.504"/>
<polygon fill="black" stroke="black" points="92.2567,-105.469 81.941,-103.053 88.4985,-111.375 92.2567,-105.469"/>
</g>
<!-- b2&#45;&gt;b3 -->
<g id="edge10" class="edge"><title>b2&#45;&gt;b3</title>
<path fill="none" stroke="black" d="M172.011,-143.697C171.57,-135.983 171.041,-126.712 170.549,-118.112"/>
<polygon fill="black" stroke="black" points="174.042,-117.888 169.977,-108.104 167.054,-118.288 174.042,-117.888"/>
</g>
<!-- b3&#45;&gt;end -->
<g id="edge24" class="edge"><title>b3&#45;&gt;end</title>
<path fill="none" stroke="black" d="M157.238,-73.4647C150.822,-64.9912 142.716,-54.2857 135.393,-44.6131"/>
<polygon fill="black" stroke="black" points="138.047,-42.3207 129.22,-36.4609 132.466,-46.5462 138.047,-42.3207"/>
</g>
<!-- start -->
<g id="node13" class="node"><title>start</title>
<defs>
<radialGradient id="r_12" cx="50%" cy="50%" r="75%" fx="49%" fy="0%">
<stop offset="0" style="stop-color:yellow;stop-opacity:1.;"/>
<stop offset="1" style="stop-color:brown;stop-opacity:1.;"/>
</radialGradient>
</defs>
<polygon fill="url(#r_12)" points="117,-399 80.8467,-381 117,-363 153.153,-381 117,-399"/>
<polyline fill="none" stroke="black" points="91.5889,-386.348 91.5889,-375.652 "/>
<polyline fill="none" stroke="black" points="106.258,-368.348 127.742,-368.348 "/>
<polyline fill="none" stroke="black" points="142.411,-375.652 142.411,-386.348 "/>
<polyline fill="none" stroke="black" points="127.742,-393.652 106.258,-393.652 "/>
<text text-anchor="middle" x="117" y="-377.3" font-family="Times,serif" font-size="14.00">start</text>
</g>
<!-- start&#45;&gt;a0 -->
<g id="edge12" class="edge"><title>start&#45;&gt;a0</title>
<path fill="none" stroke="black" d="M107.594,-367.284C100.153,-357.226 89.5554,-342.899 80.5579,-330.736"/>
<polygon fill="black" stroke="black" points="83.1181,-328.311 74.3572,-322.353 77.4904,-332.474 83.1181,-328.311"/>
</g>
<!-- start&#45;&gt;b0 -->
<g id="edge14" class="edge"><title>start&#45;&gt;b0</title>
<path fill="none" stroke="black" d="M126.406,-367.284C133.847,-357.226 144.445,-342.899 153.442,-330.736"/>
<polygon fill="black" stroke="black" points="156.51,-332.474 159.643,-322.353 150.882,-328.311 156.51,-332.474"/>
</g>
</g>
</svg>
