<?xml version="1.0" encoding="UTF-8" standalone="no"?>
<!DOCTYPE svg PUBLIC "-//W3C//DTD SVG 1.1//EN"
 "http://www.w3.org/Graphics/SVG/1.1/DTD/svg11.dtd">
<!-- Generated by graphviz version 2.45.20200621.0824 (20200621.0824)
 -->
<!-- Title: G Pages: 1 -->
<svg width="565pt" height="410pt"
 viewBox="0.00 0.00 565.00 410.39" xmlns="http://www.w3.org/2000/svg" xmlns:xlink="http://www.w3.org/1999/xlink">
<g id="graph0" class="graph" transform="scale(1 1) rotate(0) translate(4 406.39)">
<title>G</title>
<polygon fill="white" stroke="transparent" points="-4,4 -4,-406.39 561,-406.39 561,4 -4,4"/>
<g id="clust1" class="cluster">
<title>cluster_1</title>
<polygon fill="none" stroke="black" points="68,-309.39 68,-394.39 540,-394.39 540,-309.39 68,-309.39"/>
<text text-anchor="middle" x="304" y="-379.19" font-family="Times,serif" font-size="14.00">X11 Colors</text>
</g>
<g id="clust2" class="cluster">
<title>cluster_2</title>
<polygon fill="none" stroke="black" points="68,-216.39 68,-301.39 543,-301.39 543,-216.39 68,-216.39"/>
<text text-anchor="middle" x="305.5" y="-286.19" font-family="Times,serif" font-size="14.00">SVG Colors</text>
</g>
<g id="clust3" class="cluster">
<title>cluster_3</title>
<polygon fill="none" stroke="black" points="8,-112.19 8,-208.39 549,-208.39 549,-112.19 8,-112.19"/>
<text text-anchor="middle" x="278.5" y="-193.19" font-family="Times,serif" font-size="14.00">Brewer &#45; accent</text>
</g>
<g id="clust4" class="cluster">
<title>cluster_4</title>
<polygon fill="none" stroke="black" points="8,-8 8,-104.19 549,-104.19 549,-8 8,-8"/>
<text text-anchor="middle" x="278.5" y="-88.99" font-family="Times,serif" font-size="14.00">Brewer &#45; blues</text>
</g>
<!-- n5 -->
<g id="node1" class="node">
<title>n5</title>
<defs>
<linearGradient id="l_0" gradientUnits="userSpaceOnUse" x1="478" y1="-340.39" x2="532" y2="-340.39" >
<stop offset="0" style="stop-color:antiquewhite;stop-opacity:1.;"/>
<stop offset="1" style="stop-color:aquamarine;stop-opacity:1.;"/>
</linearGradient>
</defs>
<polygon fill="url(#l_0)" stroke="black" points="532,-358.39 478,-358.39 478,-322.39 532,-322.39 532,-358.39"/>
<text text-anchor="middle" x="505" y="-336.69" font-family="Times,serif" font-size="14.00">n5</text>
</g>
<!-- n4 -->
<g id="node2" class="node">
<title>n4</title>
<defs>
<linearGradient id="l_1" gradientUnits="userSpaceOnUse" x1="406" y1="-340.39" x2="460" y2="-340.39" >
<stop offset="0" style="stop-color:#8b7d6b;stop-opacity:1.;"/>
<stop offset="1" style="stop-color:#0000ee;stop-opacity:1.;"/>
</linearGradient>
</defs>
<ellipse fill="url(#l_1)" stroke="black" cx="433" cy="-340.39" rx="27" ry="18"/>
<text text-anchor="middle" x="433" y="-336.69" font-family="Times,serif" font-size="14.00">n4</text>
</g>
<!-- n3 -->
<g id="node3" class="node">
<title>n3</title>
<defs>
<linearGradient id="l_2" gradientUnits="userSpaceOnUse" x1="342" y1="-340.39" x2="388" y2="-340.39" >
<stop offset="0" style="stop-color:#98f5ff;stop-opacity:1.;"/>
<stop offset="1" style="stop-color:#ff7f24;stop-opacity:1.;"/>
</linearGradient>
</defs>
<ellipse fill="url(#l_2)" stroke="black" cx="365" cy="-340.39" rx="23" ry="23"/>
<text text-anchor="middle" x="365" y="-336.69" font-family="Times,serif" font-size="14.00">n3</text>
</g>
<!-- n9 -->
<g id="node9" class="node">
<title>n9</title>
<defs>
<linearGradient id="l_3" gradientUnits="userSpaceOnUse" x1="342" y1="-247.39" x2="388" y2="-247.39" >
<stop offset="0" style="stop-color:deepskyblue;stop-opacity:1.;"/>
<stop offset="1" style="stop-color:gold;stop-opacity:1.;"/>
</linearGradient>
</defs>
<ellipse fill="url(#l_3)" stroke="black" cx="365" cy="-247.39" rx="23" ry="23"/>
<text text-anchor="middle" x="365" y="-243.69" font-family="Times,serif" font-size="14.00">n9</text>
</g>
<!-- n3&#45;&gt;n9 -->
<g id="edge1" class="edge">
<title>n3&#45;&gt;n9</title>
<path fill="none" stroke="black" d="M365,-317.36C365,-306.3 365,-292.68 365,-280.48"/>
<polygon fill="black" stroke="black" points="368.5,-280.22 365,-270.22 361.5,-280.22 368.5,-280.22"/>
</g>
<!-- n2 -->
<g id="node4" class="node">
<title>n2</title>
<defs>
<linearGradient id="l_4" gradientUnits="userSpaceOnUse" x1="259.66" y1="-340.39" x2="324.34" y2="-340.39" >
<stop offset="0" style="stop-color:crimson;stop-opacity:1.;"/>
<stop offset="1" style="stop-color:#008b8b;stop-opacity:1.;"/>
</linearGradient>
</defs>
<polygon fill="url(#l_4)" stroke="black" points="292,-358.39 259.66,-340.39 292,-322.39 324.34,-340.39 292,-358.39"/>
<text text-anchor="middle" x="292" y="-336.69" font-family="Times,serif" font-size="14.00">n2</text>
</g>
<!-- n1 -->
<g id="node5" class="node">
<title>n1</title>
<defs>
<linearGradient id="l_5" gradientUnits="userSpaceOnUse" x1="150.51" y1="-346.14" x2="241.49" y2="-346.14" >
<stop offset="0" style="stop-color:#00b2ee;stop-opacity:1.;"/>
<stop offset="1" style="stop-color:firebrick;stop-opacity:1.;"/>
</linearGradient>
</defs>
<polygon fill="url(#l_5)" stroke="black" points="196,-363.39 150.51,-328.89 241.49,-328.89 196,-363.39"/>
<text text-anchor="middle" x="196" y="-336.69" font-family="Times,serif" font-size="14.00">n1</text>
</g>
<!-- n0 -->
<g id="node6" class="node">
<title>n0</title>
<defs>
<linearGradient id="l_6" gradientUnits="userSpaceOnUse" x1="75.76" y1="-342.11" x2="132.24" y2="-342.11" >
<stop offset="0" style="stop-color:#3d3d3d;stop-opacity:1.;"/>
<stop offset="1" style="stop-color:#e0e0e0;stop-opacity:1.;"/>
</linearGradient>
</defs>
<polygon fill="url(#l_6)" stroke="black" points="132.24,-345.95 104,-358.39 75.76,-345.95 86.55,-325.83 121.45,-325.83 132.24,-345.95"/>
<text text-anchor="middle" x="104" y="-336.69" font-family="Times,serif" font-size="14.00">n0</text>
</g>
<!-- n11 -->
<g id="node7" class="node">
<title>n11</title>
<defs>
<linearGradient id="l_7" gradientUnits="userSpaceOnUse" x1="481" y1="-247.39" x2="535" y2="-247.39" >
<stop offset="0" style="stop-color:bisque;stop-opacity:1.;"/>
<stop offset="1" style="stop-color:brown;stop-opacity:1.;"/>
</linearGradient>
</defs>
<polygon fill="url(#l_7)" stroke="black" points="535,-265.39 481,-265.39 481,-229.39 535,-229.39 535,-265.39"/>
<text text-anchor="middle" x="508" y="-243.69" font-family="Times,serif" font-size="14.00">n11</text>
</g>
<!-- n10 -->
<g id="node8" class="node">
<title>n10</title>
<defs>
<linearGradient id="l_8" gradientUnits="userSpaceOnUse" x1="405.3" y1="-247.39" x2="462.7" y2="-247.39" >
<stop offset="0" style="stop-color:green;stop-opacity:1.;"/>
<stop offset="1" style="stop-color:darkorchid;stop-opacity:1.;"/>
</linearGradient>
</defs>
<ellipse fill="url(#l_8)" stroke="black" cx="434" cy="-247.39" rx="28.7" ry="18"/>
<text text-anchor="middle" x="434" y="-243.69" font-family="Times,serif" font-size="14.00">n10</text>
</g>
<!-- n15 -->
<g id="node15" class="node">
<title>n15</title>
<defs>
<linearGradient id="l_9" gradientUnits="userSpaceOnUse" x1="336.3" y1="-148.79" x2="393.7" y2="-148.79" >
<stop offset="0" style="stop-color:#7fc97f;stop-opacity:1.;"/>
<stop offset="1" style="stop-color:#386cb0;stop-opacity:1.;"/>
</linearGradient>
</defs>
<ellipse fill="url(#l_9)" stroke="black" cx="365" cy="-148.79" rx="28.7" ry="28.7"/>
<text text-anchor="middle" x="365" y="-145.09" font-family="Times,serif" font-size="14.00">n15</text>
</g>
<!-- n9&#45;&gt;n15 -->
<g id="edge2" class="edge">
<title>n9&#45;&gt;n15</title>
<path fill="none" stroke="black" d="M365,-224.47C365,-213.6 365,-200.15 365,-187.68"/>
<polygon fill="black" stroke="black" points="368.5,-187.51 365,-177.51 361.5,-187.51 368.5,-187.51"/>
</g>
<!-- n8 -->
<g id="node10" class="node">
<title>n8</title>
<defs>
<linearGradient id="l_10" gradientUnits="userSpaceOnUse" x1="259.66" y1="-247.39" x2="324.34" y2="-247.39" >
<stop offset="0" style="stop-color:lightseagreen;stop-opacity:1.;"/>
<stop offset="1" style="stop-color:orangered;stop-opacity:1.;"/>
</linearGradient>
</defs>
<polygon fill="url(#l_10)" stroke="black" points="292,-265.39 259.66,-247.39 292,-229.39 324.34,-247.39 292,-265.39"/>
<text text-anchor="middle" x="292" y="-243.69" font-family="Times,serif" font-size="14.00">n8</text>
</g>
<!-- n7 -->
<g id="node11" class="node">
<title>n7</title>
<defs>
<linearGradient id="l_11" gradientUnits="userSpaceOnUse" x1="150.51" y1="-253.14" x2="241.49" y2="-253.14" >
<stop offset="0" style="stop-color:turquoise;stop-opacity:1.;"/>
<stop offset="1" style="stop-color:salmon;stop-opacity:1.;"/>
</linearGradient>
</defs>
<polygon fill="url(#l_11)" stroke="black" points="196,-270.39 150.51,-235.89 241.49,-235.89 196,-270.39"/>
<text text-anchor="middle" x="196" y="-243.69" font-family="Times,serif" font-size="14.00">n7</text>
</g>
<!-- n6 -->
<g id="node12" class="node">
<title>n6</title>
<defs>
<linearGradient id="l_12" gradientUnits="userSpaceOnUse" x1="75.76" y1="-249.11" x2="132.24" y2="-249.11" >
<stop offset="0" style="stop-color:snow;stop-opacity:1.;"/>
<stop offset="1" style="stop-color:black;stop-opacity:1.;"/>
</linearGradient>
</defs>
<polygon fill="url(#l_12)" stroke="black" points="132.24,-252.95 104,-265.39 75.76,-252.95 86.55,-232.83 121.45,-232.83 132.24,-252.95"/>
<text text-anchor="middle" x="104" y="-243.69" font-family="Times,serif" font-size="14.00">n6</text>
</g>
<!-- n17 -->
<g id="node13" class="node">
<title>n17</title>
<defs>
<linearGradient id="l_13" gradientUnits="userSpaceOnUse" x1="487" y1="-148.79" x2="541" y2="-148.79" >
<stop offset="0" style="stop-color:#7fc97f;stop-opacity:1.;"/>
<stop offset="1" style="stop-color:#fdc086;stop-opacity:1.;"/>
</linearGradient>
</defs>
<polygon fill="url(#l_13)" stroke="black" points="541,-166.79 487,-166.79 487,-130.79 541,-130.79 541,-166.79"/>
<text text-anchor="middle" x="514" y="-145.09" font-family="Times,serif" font-size="14.00">n17</text>
</g>
<!-- n16 -->
<g id="node14" class="node">
<title>n16</title>
<defs>
<linearGradient id="l_14" gradientUnits="userSpaceOnUse" x1="411.3" y1="-148.79" x2="468.7" y2="-148.79" >
<stop offset="0" style="stop-color:#7fc97f;stop-opacity:1.;"/>
<stop offset="1" style="stop-color:#ffff99;stop-opacity:1.;"/>
</linearGradient>
</defs>
<ellipse fill="url(#l_14)" stroke="black" cx="440" cy="-148.79" rx="28.7" ry="18"/>
<text text-anchor="middle" x="440" y="-145.09" font-family="Times,serif" font-size="14.00">n16</text>
</g>
<!-- n21 -->
<g id="node21" class="node">
<title>n21</title>
<defs>
<linearGradient id="l_15" gradientUnits="userSpaceOnUse" x1="336.3" y1="-44.6" x2="393.7" y2="-44.6" >
<stop offset="0" style="stop-color:#eff3ff;stop-opacity:1.;"/>
<stop offset="1" style="stop-color:#3182bd;stop-opacity:1.;"/>
</linearGradient>
</defs>
<ellipse fill="url(#l_15)" stroke="black" cx="365" cy="-44.6" rx="28.7" ry="28.7"/>
<text text-anchor="middle" x="365" y="-40.9" font-family="Times,serif" font-size="14.00">n21</text>
</g>
<!-- n15&#45;&gt;n21 -->
<g id="edge3" class="edge">
<title>n15&#45;&gt;n21</title>
<path fill="none" stroke="black" d="M365,-120.14C365,-108.89 365,-95.71 365,-83.58"/>
<polygon fill="black" stroke="black" points="368.5,-83.27 365,-73.27 361.5,-83.28 368.5,-83.27"/>
</g>
<!-- n14 -->
<g id="node16" class="node">
<title>n14</title>
<defs>
<linearGradient id="l_16" gradientUnits="userSpaceOnUse" x1="237.61" y1="-148.79" x2="318.39" y2="-148.79" >
<stop offset="0" style="stop-color:#7fc97f;stop-opacity:1.;"/>
<stop offset="1" style="stop-color:#f0027f;stop-opacity:1.;"/>
</linearGradient>
</defs>
<polygon fill="url(#l_16)" stroke="black" points="278,-166.79 237.61,-148.79 278,-130.79 318.39,-148.79 278,-166.79"/>
<text text-anchor="middle" x="278" y="-145.09" font-family="Times,serif" font-size="14.00">n14</text>
</g>
<!-- n13 -->
<g id="node17" class="node">
<title>n13</title>
<defs>
<linearGradient id="l_17" gradientUnits="userSpaceOnUse" x1="104.61" y1="-154.54" x2="219.39" y2="-154.54" >
<stop offset="0" style="stop-color:#7fc97f;stop-opacity:1.;"/>
<stop offset="1" style="stop-color:#bf5b17;stop-opacity:1.;"/>
</linearGradient>
</defs>
<polygon fill="url(#l_17)" stroke="black" points="162,-171.79 104.61,-137.29 219.39,-137.29 162,-171.79"/>
<text text-anchor="middle" x="162" y="-145.09" font-family="Times,serif" font-size="14.00">n13</text>
</g>
<!-- n12 -->
<g id="node18" class="node">
<title>n12</title>
<defs>
<linearGradient id="l_18" gradientUnits="userSpaceOnUse" x1="15.8" y1="-150.51" x2="86.2" y2="-150.51" >
<stop offset="0" style="stop-color:#7fc97f;stop-opacity:1.;"/>
<stop offset="1" style="stop-color:#666666;stop-opacity:1.;"/>
</linearGradient>
</defs>
<polygon fill="url(#l_18)" stroke="black" points="86.2,-154.35 51,-166.79 15.8,-154.35 29.25,-134.23 72.75,-134.23 86.2,-154.35"/>
<text text-anchor="middle" x="51" y="-145.09" font-family="Times,serif" font-size="14.00">n12</text>
</g>
<!-- n23 -->
<g id="node19" class="node">
<title>n23</title>
<defs>
<linearGradient id="l_19" gradientUnits="userSpaceOnUse" x1="487" y1="-44.6" x2="541" y2="-44.6" >
<stop offset="0" style="stop-color:#deebf7;stop-opacity:1.;"/>
<stop offset="1" style="stop-color:#9ecae1;stop-opacity:1.;"/>
</linearGradient>
</defs>
<polygon fill="url(#l_19)" stroke="black" points="541,-62.6 487,-62.6 487,-26.6 541,-26.6 541,-62.6"/>
<text text-anchor="middle" x="514" y="-40.9" font-family="Times,serif" font-size="14.00">n23</text>
</g>
<!-- n22 -->
<g id="node20" class="node">
<title>n22</title>
<defs>
<linearGradient id="l_20" gradientUnits="userSpaceOnUse" x1="411.3" y1="-44.6" x2="468.7" y2="-44.6" >
<stop offset="0" style="stop-color:#eff3ff;stop-opacity:1.;"/>
<stop offset="1" style="stop-color:#6baed6;stop-opacity:1.;"/>
</linearGradient>
</defs>
<ellipse fill="url(#l_20)" stroke="black" cx="440" cy="-44.6" rx="28.7" ry="18"/>
<text text-anchor="middle" x="440" y="-40.9" font-family="Times,serif" font-size="14.00">n22</text>
</g>
<!-- n20 -->
<g id="node22" class="node">
<title>n20</title>
<defs>
<linearGradient id="l_21" gradientUnits="userSpaceOnUse" x1="237.61" y1="-44.6" x2="318.39" y2="-44.6" >
<stop offset="0" style="stop-color:#eff3ff;stop-opacity:1.;"/>
<stop offset="1" style="stop-color:#3182bd;stop-opacity:1.;"/>
</linearGradient>
</defs>
<polygon fill="url(#l_21)" stroke="black" points="278,-62.6 237.61,-44.6 278,-26.6 318.39,-44.6 278,-62.6"/>
<text text-anchor="middle" x="278" y="-40.9" font-family="Times,serif" font-size="14.00">n20</text>
</g>
<!-- n19 -->
<g id="node23" class="node">
<title>n19</title>
<defs>
<linearGradient id="l_22" gradientUnits="userSpaceOnUse" x1="104.61" y1="-50.35" x2="219.39" y2="-50.35" >
<stop offset="0" style="stop-color:#eff3ff;stop-opacity:1.;"/>
<stop offset="1" style="stop-color:#2171b5;stop-opacity:1.;"/>
</linearGradient>
</defs>
<polygon fill="url(#l_22)" stroke="black" points="162,-67.6 104.61,-33.1 219.39,-33.1 162,-67.6"/>
<text text-anchor="middle" x="162" y="-40.9" font-family="Times,serif" font-size="14.00">n19</text>
</g>
<!-- n18 -->
<g id="node24" class="node">
<title>n18</title>
<defs>
<linearGradient id="l_23" gradientUnits="userSpaceOnUse" x1="15.8" y1="-46.32" x2="86.2" y2="-46.32" >
<stop offset="0" style="stop-color:#f7fbff;stop-opacity:1.;"/>
<stop offset="1" style="stop-color:#2171b5;stop-opacity:1.;"/>
</linearGradient>
</defs>
<polygon fill="url(#l_23)" stroke="black" points="86.2,-50.16 51,-62.6 15.8,-50.16 29.25,-30.04 72.75,-30.04 86.2,-50.16"/>
<text text-anchor="middle" x="51" y="-40.9" font-family="Times,serif" font-size="14.00">n18</text>
</g>
</g>
</svg>
