<?xml version="1.0" encoding="UTF-8" standalone="no"?>
<!DOCTYPE svg PUBLIC "-//W3C//DTD SVG 1.1//EN"
 "http://www.w3.org/Graphics/SVG/1.1/DTD/svg11.dtd">
<!-- Generated by graphviz version 2.43.0 (0)
 -->
<!-- Title: G Pages: 1 -->
<svg width="524pt" height="397pt"
 viewBox="0.00 0.00 524.00 397.39" xmlns="http://www.w3.org/2000/svg" xmlns:xlink="http://www.w3.org/1999/xlink">
<g id="graph0" class="graph" transform="scale(1 1) rotate(0) translate(4 393.39)">
<title>G</title>
<polygon fill="white" stroke="transparent" points="-4,4 -4,-393.39 520,-393.39 520,4 -4,4"/>
<g id="clust1" class="cluster">
<title>cluster_1</title>
<polygon fill="none" stroke="black" points="52,-296.39 52,-381.39 504,-381.39 504,-296.39 52,-296.39"/>
<text text-anchor="middle" x="278" y="-366.19" font-family="Helvetica,Arial,sans-serif" font-size="14.00">X11 Colors</text>
</g>
<g id="clust2" class="cluster">
<title>cluster_2</title>
<polygon fill="none" stroke="black" points="52,-203.39 52,-288.39 504,-288.39 504,-203.39 52,-203.39"/>
<text text-anchor="middle" x="278" y="-273.19" font-family="Helvetica,Arial,sans-serif" font-size="14.00">SVG Colors</text>
</g>
<g id="clust3" class="cluster">
<title>cluster_3</title>
<polygon fill="none" stroke="black" points="8,-105.7 8,-195.39 508,-195.39 508,-105.7 8,-105.7"/>
<text text-anchor="middle" x="258" y="-180.19" font-family="Helvetica,Arial,sans-serif" font-size="14.00">Brewer &#45; accent</text>
</g>
<g id="clust4" class="cluster">
<title>cluster_4</title>
<polygon fill="none" stroke="black" points="8,-8 8,-97.7 508,-97.7 508,-8 8,-8"/>
<text text-anchor="middle" x="258" y="-82.5" font-family="Helvetica,Arial,sans-serif" font-size="14.00">Brewer &#45; blues</text>
</g>
<!-- n5 -->
<g id="node1" class="node">
<title>n5</title>
<defs>
<linearGradient id="l_0" gradientUnits="userSpaceOnUse" x1="442" y1="-327.39" x2="496" y2="-327.39" >
<stop offset="0" style="stop-color:antiquewhite;stop-opacity:1.;"/>
<stop offset="1" style="stop-color:aquamarine;stop-opacity:1.;"/>
</linearGradient>
</defs>
<polygon fill="url(#l_0)" stroke="black" points="496,-345.39 442,-345.39 442,-309.39 496,-309.39 496,-345.39"/>
<text text-anchor="middle" x="469" y="-323.69" font-family="Helvetica,Arial,sans-serif" font-size="14.00">n5</text>
</g>
<!-- n4 -->
<g id="node2" class="node">
<title>n4</title>
<defs>
<linearGradient id="l_1" gradientUnits="userSpaceOnUse" x1="370" y1="-327.39" x2="424" y2="-327.39" >
<stop offset="0" style="stop-color:#8b7d6b;stop-opacity:1.;"/>
<stop offset="1" style="stop-color:#0000ee;stop-opacity:1.;"/>
</linearGradient>
</defs>
<ellipse fill="url(#l_1)" stroke="black" cx="397" cy="-327.39" rx="27" ry="18"/>
<text text-anchor="middle" x="397" y="-323.69" font-family="Helvetica,Arial,sans-serif" font-size="14.00">n4</text>
</g>
<!-- n3 -->
<g id="node3" class="node">
<title>n3</title>
<defs>
<linearGradient id="l_2" gradientUnits="userSpaceOnUse" x1="310.4" y1="-327.39" x2="351.6" y2="-327.39" >
<stop offset="0" style="stop-color:#98f5ff;stop-opacity:1.;"/>
<stop offset="1" style="stop-color:#ff7f24;stop-opacity:1.;"/>
</linearGradient>
</defs>
<ellipse fill="url(#l_2)" stroke="black" cx="331" cy="-327.39" rx="20.6" ry="20.6"/>
<text text-anchor="middle" x="331" y="-323.69" font-family="Helvetica,Arial,sans-serif" font-size="14.00">n3</text>
</g>
<!-- n9 -->
<g id="node9" class="node">
<title>n9</title>
<defs>
<linearGradient id="l_3" gradientUnits="userSpaceOnUse" x1="310.4" y1="-234.39" x2="351.6" y2="-234.39" >
<stop offset="0" style="stop-color:deepskyblue;stop-opacity:1.;"/>
<stop offset="1" style="stop-color:gold;stop-opacity:1.;"/>
</linearGradient>
</defs>
<ellipse fill="url(#l_3)" stroke="black" cx="331" cy="-234.39" rx="20.6" ry="20.6"/>
<text text-anchor="middle" x="331" y="-230.69" font-family="Helvetica,Arial,sans-serif" font-size="14.00">n9</text>
</g>
<!-- n3&#45;&gt;n9 -->
<g id="edge1" class="edge">
<title>n3&#45;&gt;n9</title>
<path fill="none" stroke="black" d="M331,-306.2C331,-294.21 331,-278.8 331,-265.41"/>
<polygon fill="black" stroke="black" points="334.5,-265.22 331,-255.22 327.5,-265.22 334.5,-265.22"/>
</g>
<!-- n2 -->
<g id="node4" class="node">
<title>n2</title>
<defs>
<linearGradient id="l_4" gradientUnits="userSpaceOnUse" x1="233.67" y1="-327.39" x2="292.33" y2="-327.39" >
<stop offset="0" style="stop-color:crimson;stop-opacity:1.;"/>
<stop offset="1" style="stop-color:#008b8b;stop-opacity:1.;"/>
</linearGradient>
</defs>
<polygon fill="url(#l_4)" stroke="black" points="263,-345.39 233.67,-327.39 263,-309.39 292.33,-327.39 263,-345.39"/>
<text text-anchor="middle" x="263" y="-323.69" font-family="Helvetica,Arial,sans-serif" font-size="14.00">n2</text>
</g>
<!-- n1 -->
<g id="node5" class="node">
<title>n1</title>
<defs>
<linearGradient id="l_5" gradientUnits="userSpaceOnUse" x1="132.31" y1="-333.14" x2="215.69" y2="-333.14" >
<stop offset="0" style="stop-color:#00b2ee;stop-opacity:1.;"/>
<stop offset="1" style="stop-color:firebrick;stop-opacity:1.;"/>
</linearGradient>
</defs>
<polygon fill="url(#l_5)" stroke="black" points="174,-350.39 132.31,-315.89 215.69,-315.89 174,-350.39"/>
<text text-anchor="middle" x="174" y="-323.69" font-family="Helvetica,Arial,sans-serif" font-size="14.00">n1</text>
</g>
<!-- n0 -->
<g id="node6" class="node">
<title>n0</title>
<defs>
<linearGradient id="l_6" gradientUnits="userSpaceOnUse" x1="60" y1="-329.11" x2="114" y2="-329.11" >
<stop offset="0" style="stop-color:#3d3d3d;stop-opacity:1.;"/>
<stop offset="1" style="stop-color:#e0e0e0;stop-opacity:1.;"/>
</linearGradient>
</defs>
<polygon fill="url(#l_6)" stroke="black" points="114,-332.95 87,-345.39 60,-332.95 70.31,-312.83 103.69,-312.83 114,-332.95"/>
<text text-anchor="middle" x="87" y="-323.69" font-family="Helvetica,Arial,sans-serif" font-size="14.00">n0</text>
</g>
<!-- n11 -->
<g id="node7" class="node">
<title>n11</title>
<defs>
<linearGradient id="l_7" gradientUnits="userSpaceOnUse" x1="442" y1="-234.39" x2="496" y2="-234.39" >
<stop offset="0" style="stop-color:bisque;stop-opacity:1.;"/>
<stop offset="1" style="stop-color:brown;stop-opacity:1.;"/>
</linearGradient>
</defs>
<polygon fill="url(#l_7)" stroke="black" points="496,-252.39 442,-252.39 442,-216.39 496,-216.39 496,-252.39"/>
<text text-anchor="middle" x="469" y="-230.69" font-family="Helvetica,Arial,sans-serif" font-size="14.00">n11</text>
</g>
<!-- n10 -->
<g id="node8" class="node">
<title>n10</title>
<defs>
<linearGradient id="l_8" gradientUnits="userSpaceOnUse" x1="370" y1="-234.39" x2="424" y2="-234.39" >
<stop offset="0" style="stop-color:green;stop-opacity:1.;"/>
<stop offset="1" style="stop-color:darkorchid;stop-opacity:1.;"/>
</linearGradient>
</defs>
<ellipse fill="url(#l_8)" stroke="black" cx="397" cy="-234.39" rx="27" ry="18"/>
<text text-anchor="middle" x="397" y="-230.69" font-family="Helvetica,Arial,sans-serif" font-size="14.00">n10</text>
</g>
<!-- n15 -->
<g id="node15" class="node">
<title>n15</title>
<defs>
<linearGradient id="l_9" gradientUnits="userSpaceOnUse" x1="305.8" y1="-139.04" x2="356.2" y2="-139.04" >
<stop offset="0" style="stop-color:#7fc97f;stop-opacity:1.;"/>
<stop offset="1" style="stop-color:#386cb0;stop-opacity:1.;"/>
</linearGradient>
</defs>
<ellipse fill="url(#l_9)" stroke="black" cx="331" cy="-139.04" rx="25.2" ry="25.2"/>
<text text-anchor="middle" x="331" y="-135.34" font-family="Helvetica,Arial,sans-serif" font-size="14.00">n15</text>
</g>
<!-- n9&#45;&gt;n15 -->
<g id="edge2" class="edge">
<title>n9&#45;&gt;n15</title>
<path fill="none" stroke="black" d="M331,-213.14C331,-201.88 331,-187.57 331,-174.6"/>
<polygon fill="black" stroke="black" points="334.5,-174.57 331,-164.57 327.5,-174.57 334.5,-174.57"/>
</g>
<!-- n8 -->
<g id="node10" class="node">
<title>n8</title>
<defs>
<linearGradient id="l_10" gradientUnits="userSpaceOnUse" x1="233.67" y1="-234.39" x2="292.33" y2="-234.39" >
<stop offset="0" style="stop-color:lightseagreen;stop-opacity:1.;"/>
<stop offset="1" style="stop-color:orangered;stop-opacity:1.;"/>
</linearGradient>
</defs>
<polygon fill="url(#l_10)" stroke="black" points="263,-252.39 233.67,-234.39 263,-216.39 292.33,-234.39 263,-252.39"/>
<text text-anchor="middle" x="263" y="-230.69" font-family="Helvetica,Arial,sans-serif" font-size="14.00">n8</text>
</g>
<!-- n7 -->
<g id="node11" class="node">
<title>n7</title>
<defs>
<linearGradient id="l_11" gradientUnits="userSpaceOnUse" x1="132.31" y1="-240.14" x2="215.69" y2="-240.14" >
<stop offset="0" style="stop-color:turquoise;stop-opacity:1.;"/>
<stop offset="1" style="stop-color:salmon;stop-opacity:1.;"/>
</linearGradient>
</defs>
<polygon fill="url(#l_11)" stroke="black" points="174,-257.39 132.31,-222.89 215.69,-222.89 174,-257.39"/>
<text text-anchor="middle" x="174" y="-230.69" font-family="Helvetica,Arial,sans-serif" font-size="14.00">n7</text>
</g>
<!-- n6 -->
<g id="node12" class="node">
<title>n6</title>
<defs>
<linearGradient id="l_12" gradientUnits="userSpaceOnUse" x1="60" y1="-236.11" x2="114" y2="-236.11" >
<stop offset="0" style="stop-color:snow;stop-opacity:1.;"/>
<stop offset="1" style="stop-color:black;stop-opacity:1.;"/>
</linearGradient>
</defs>
<polygon fill="url(#l_12)" stroke="black" points="114,-239.95 87,-252.39 60,-239.95 70.31,-219.83 103.69,-219.83 114,-239.95"/>
<text text-anchor="middle" x="87" y="-230.69" font-family="Helvetica,Arial,sans-serif" font-size="14.00">n6</text>
</g>
<!-- n17 -->
<g id="node13" class="node">
<title>n17</title>
<defs>
<linearGradient id="l_13" gradientUnits="userSpaceOnUse" x1="446" y1="-139.04" x2="500" y2="-139.04" >
<stop offset="0" style="stop-color:#7fc97f;stop-opacity:1.;"/>
<stop offset="1" style="stop-color:#fdc086;stop-opacity:1.;"/>
</linearGradient>
</defs>
<polygon fill="url(#l_13)" stroke="black" points="500,-157.04 446,-157.04 446,-121.04 500,-121.04 500,-157.04"/>
<text text-anchor="middle" x="473" y="-135.34" font-family="Helvetica,Arial,sans-serif" font-size="14.00">n17</text>
</g>
<!-- n16 -->
<g id="node14" class="node">
<title>n16</title>
<defs>
<linearGradient id="l_14" gradientUnits="userSpaceOnUse" x1="374" y1="-139.04" x2="428" y2="-139.04" >
<stop offset="0" style="stop-color:#7fc97f;stop-opacity:1.;"/>
<stop offset="1" style="stop-color:#ffff99;stop-opacity:1.;"/>
</linearGradient>
</defs>
<ellipse fill="url(#l_14)" stroke="black" cx="401" cy="-139.04" rx="27" ry="18"/>
<text text-anchor="middle" x="401" y="-135.34" font-family="Helvetica,Arial,sans-serif" font-size="14.00">n16</text>
</g>
<!-- n21 -->
<g id="node21" class="node">
<title>n21</title>
<defs>
<linearGradient id="l_15" gradientUnits="userSpaceOnUse" x1="305.8" y1="-41.35" x2="356.2" y2="-41.35" >
<stop offset="0" style="stop-color:#eff3ff;stop-opacity:1.;"/>
<stop offset="1" style="stop-color:#3182bd;stop-opacity:1.;"/>
</linearGradient>
</defs>
<ellipse fill="url(#l_15)" stroke="black" cx="331" cy="-41.35" rx="25.2" ry="25.2"/>
<text text-anchor="middle" x="331" y="-37.65" font-family="Helvetica,Arial,sans-serif" font-size="14.00">n21</text>
</g>
<!-- n15&#45;&gt;n21 -->
<g id="edge3" class="edge">
<title>n15&#45;&gt;n21</title>
<path fill="none" stroke="black" d="M331,-113.4C331,-102.35 331,-89.12 331,-77.09"/>
<polygon fill="black" stroke="black" points="334.5,-76.91 331,-66.91 327.5,-76.91 334.5,-76.91"/>
</g>
<!-- n14 -->
<g id="node16" class="node">
<title>n14</title>
<defs>
<linearGradient id="l_16" gradientUnits="userSpaceOnUse" x1="216.31" y1="-139.04" x2="287.69" y2="-139.04" >
<stop offset="0" style="stop-color:#7fc97f;stop-opacity:1.;"/>
<stop offset="1" style="stop-color:#f0027f;stop-opacity:1.;"/>
</linearGradient>
</defs>
<polygon fill="url(#l_16)" stroke="black" points="252,-157.04 216.31,-139.04 252,-121.04 287.69,-139.04 252,-157.04"/>
<text text-anchor="middle" x="252" y="-135.34" font-family="Helvetica,Arial,sans-serif" font-size="14.00">n14</text>
</g>
<!-- n13 -->
<g id="node17" class="node">
<title>n13</title>
<defs>
<linearGradient id="l_17" gradientUnits="userSpaceOnUse" x1="96.11" y1="-144.79" x2="197.89" y2="-144.79" >
<stop offset="0" style="stop-color:#7fc97f;stop-opacity:1.;"/>
<stop offset="1" style="stop-color:#bf5b17;stop-opacity:1.;"/>
</linearGradient>
</defs>
<polygon fill="url(#l_17)" stroke="black" points="147,-162.04 96.11,-127.54 197.89,-127.54 147,-162.04"/>
<text text-anchor="middle" x="147" y="-135.34" font-family="Helvetica,Arial,sans-serif" font-size="14.00">n13</text>
</g>
<!-- n12 -->
<g id="node18" class="node">
<title>n12</title>
<defs>
<linearGradient id="l_18" gradientUnits="userSpaceOnUse" x1="15.84" y1="-140.76" x2="78.16" y2="-140.76" >
<stop offset="0" style="stop-color:#7fc97f;stop-opacity:1.;"/>
<stop offset="1" style="stop-color:#666666;stop-opacity:1.;"/>
</linearGradient>
</defs>
<polygon fill="url(#l_18)" stroke="black" points="78.16,-144.61 47,-157.04 15.84,-144.61 27.74,-124.48 66.26,-124.48 78.16,-144.61"/>
<text text-anchor="middle" x="47" y="-135.34" font-family="Helvetica,Arial,sans-serif" font-size="14.00">n12</text>
</g>
<!-- n23 -->
<g id="node19" class="node">
<title>n23</title>
<defs>
<linearGradient id="l_19" gradientUnits="userSpaceOnUse" x1="446" y1="-41.35" x2="500" y2="-41.35" >
<stop offset="0" style="stop-color:#deebf7;stop-opacity:1.;"/>
<stop offset="1" style="stop-color:#9ecae1;stop-opacity:1.;"/>
</linearGradient>
</defs>
<polygon fill="url(#l_19)" stroke="black" points="500,-59.35 446,-59.35 446,-23.35 500,-23.35 500,-59.35"/>
<text text-anchor="middle" x="473" y="-37.65" font-family="Helvetica,Arial,sans-serif" font-size="14.00">n23</text>
</g>
<!-- n22 -->
<g id="node20" class="node">
<title>n22</title>
<defs>
<linearGradient id="l_20" gradientUnits="userSpaceOnUse" x1="374" y1="-41.35" x2="428" y2="-41.35" >
<stop offset="0" style="stop-color:#eff3ff;stop-opacity:1.;"/>
<stop offset="1" style="stop-color:#6baed6;stop-opacity:1.;"/>
</linearGradient>
</defs>
<ellipse fill="url(#l_20)" stroke="black" cx="401" cy="-41.35" rx="27" ry="18"/>
<text text-anchor="middle" x="401" y="-37.65" font-family="Helvetica,Arial,sans-serif" font-size="14.00">n22</text>
</g>
<!-- n20 -->
<g id="node22" class="node">
<title>n20</title>
<defs>
<linearGradient id="l_21" gradientUnits="userSpaceOnUse" x1="216.31" y1="-41.35" x2="287.69" y2="-41.35" >
<stop offset="0" style="stop-color:#eff3ff;stop-opacity:1.;"/>
<stop offset="1" style="stop-color:#3182bd;stop-opacity:1.;"/>
</linearGradient>
</defs>
<polygon fill="url(#l_21)" stroke="black" points="252,-59.35 216.31,-41.35 252,-23.35 287.69,-41.35 252,-59.35"/>
<text text-anchor="middle" x="252" y="-37.65" font-family="Helvetica,Arial,sans-serif" font-size="14.00">n20</text>
</g>
<!-- n19 -->
<g id="node23" class="node">
<title>n19</title>
<defs>
<linearGradient id="l_22" gradientUnits="userSpaceOnUse" x1="96.11" y1="-47.1" x2="197.89" y2="-47.1" >
<stop offset="0" style="stop-color:#eff3ff;stop-opacity:1.;"/>
<stop offset="1" style="stop-color:#2171b5;stop-opacity:1.;"/>
</linearGradient>
</defs>
<polygon fill="url(#l_22)" stroke="black" points="147,-64.35 96.11,-29.85 197.89,-29.85 147,-64.35"/>
<text text-anchor="middle" x="147" y="-37.65" font-family="Helvetica,Arial,sans-serif" font-size="14.00">n19</text>
</g>
<!-- n18 -->
<g id="node24" class="node">
<title>n18</title>
<defs>
<linearGradient id="l_23" gradientUnits="userSpaceOnUse" x1="15.84" y1="-43.07" x2="78.16" y2="-43.07" >
<stop offset="0" style="stop-color:#f7fbff;stop-opacity:1.;"/>
<stop offset="1" style="stop-color:#2171b5;stop-opacity:1.;"/>
</linearGradient>
</defs>
<polygon fill="url(#l_23)" stroke="black" points="78.16,-46.91 47,-59.35 15.84,-46.91 27.74,-26.79 66.26,-26.79 78.16,-46.91"/>
<text text-anchor="middle" x="47" y="-37.65" font-family="Helvetica,Arial,sans-serif" font-size="14.00">n18</text>
</g>
</g>
</svg>
