<?xml version="1.0" encoding="UTF-8" standalone="no"?>
<!DOCTYPE svg PUBLIC "-//W3C//DTD SVG 1.1//EN"
 "http://www.w3.org/Graphics/SVG/1.1/DTD/svg11.dtd">
<!-- Generated by graphviz version 2.43.0 (0)
 -->
<!-- Title: g Pages: 1 -->
<svg width="866pt" height="608pt"
 viewBox="0.00 0.00 866.00 608.00" xmlns="http://www.w3.org/2000/svg" xmlns:xlink="http://www.w3.org/1999/xlink">
<g id="graph0" class="graph" transform="scale(1 1) rotate(0) translate(4 604)">
<title>g</title>
<defs>
<linearGradient id="l_0" gradientUnits="userSpaceOnUse" x1="429" y1="-604" x2="429" y2="4" >
<stop offset="0" style="stop-color:white;stop-opacity:1.;"/>
<stop offset="1" style="stop-color:lightblue;stop-opacity:1.;"/>
</linearGradient>
</defs>
<polygon fill="url(#l_0)" stroke="transparent" points="-4,4 -4,-604 862,-604 862,4 -4,4"/>
<!-- node0 -->
<g id="node1" class="node">
<title>node0</title>
<defs>
<linearGradient id="l_1" gradientUnits="userSpaceOnUse" x1="39.5" y1="-444.5" x2="39.5" y2="-496.5" >
<stop offset="0" style="stop-color:yellow;stop-opacity:1.;"/>
<stop offset="1" style="stop-color:blue;stop-opacity:1.;"/>
</linearGradient>
</defs>
<polygon fill="url(#l_1)" stroke="black" points="0,-444.5 0,-496.5 79,-496.5 79,-444.5 0,-444.5"/>
<text text-anchor="middle" x="39.5" y="-479.7" font-family="Helvetica,Arial,sans-serif" font-size="16.00">0x10ba8</text>
<polyline fill="none" stroke="black" points="0,-470.5 79,-470.5 "/>
<text text-anchor="middle" x="39.5" y="-453.7" font-family="Helvetica,Arial,sans-serif" font-size="16.00"> </text>
</g>
<!-- node1 -->
<g id="node2" class="node">
<title>node1</title>
<defs>
<linearGradient id="l_2" gradientUnits="userSpaceOnUse" x1="115" y1="-493.5" x2="211" y2="-493.5" >
<stop offset="0" style="stop-color:blue;stop-opacity:1.;"/>
<stop offset="1" style="stop-color:red;stop-opacity:1.;"/>
</linearGradient>
</defs>
<polygon fill="url(#l_2)" stroke="black" points="115,-441.5 115,-545.5 211,-545.5 211,-441.5 115,-441.5"/>
<text text-anchor="middle" x="163" y="-528.7" font-family="Helvetica,Arial,sans-serif" font-size="16.00">0xf7fc4380</text>
<polyline fill="none" stroke="black" points="115,-519.5 211,-519.5 "/>
<text text-anchor="middle" x="163" y="-502.7" font-family="Helvetica,Arial,sans-serif" font-size="16.00"> </text>
<polyline fill="none" stroke="black" points="115,-493.5 211,-493.5 "/>
<text text-anchor="middle" x="163" y="-476.7" font-family="Helvetica,Arial,sans-serif" font-size="16.00"> </text>
<polyline fill="none" stroke="black" points="115,-467.5 211,-467.5 "/>
<text text-anchor="middle" x="163" y="-450.7" font-family="Helvetica,Arial,sans-serif" font-size="16.00">&#45;1</text>
</g>
<!-- node0&#45;&gt;node1 -->
<g id="0" class="edge">
<title>node0:f0&#45;&gt;node1:f0</title>
<path fill="none" stroke="black" d="M79,-483.5C101.8,-483.5 92.52,-518.38 105.29,-529.28"/>
<polygon fill="black" stroke="black" points="104.41,-532.68 115,-532.5 106.61,-526.03 104.41,-532.68"/>
</g>
<!-- node2 -->
<g id="node3" class="node">
<title>node2</title>
<defs>
<linearGradient id="l_3" gradientUnits="userSpaceOnUse" x1="163" y1="-318.5" x2="163" y2="-422.5" >
<stop offset="0" style="stop-color:brown;stop-opacity:1.;"/>
<stop offset="1" style="stop-color:yellow;stop-opacity:1.;"/>
</linearGradient>
</defs>
<polygon fill="url(#l_3)" stroke="black" points="115,-318.5 115,-422.5 211,-422.5 211,-318.5 115,-318.5"/>
<text text-anchor="middle" x="163" y="-405.7" font-family="Helvetica,Arial,sans-serif" font-size="16.00">0xf7fc44b8</text>
<polyline fill="none" stroke="black" points="115,-396.5 211,-396.5 "/>
<text text-anchor="middle" x="163" y="-379.7" font-family="Helvetica,Arial,sans-serif" font-size="16.00"> </text>
<polyline fill="none" stroke="black" points="115,-370.5 211,-370.5 "/>
<text text-anchor="middle" x="163" y="-353.7" font-family="Helvetica,Arial,sans-serif" font-size="16.00"> </text>
<polyline fill="none" stroke="black" points="115,-344.5 211,-344.5 "/>
<text text-anchor="middle" x="163" y="-327.7" font-family="Helvetica,Arial,sans-serif" font-size="16.00">2</text>
</g>
<!-- node0&#45;&gt;node2 -->
<g id="1" class="edge">
<title>node0:f1&#45;&gt;node2:f0</title>
<path fill="none" stroke="black" d="M79,-457.5C101.5,-457.5 92.68,-423.33 105.39,-412.65"/>
<polygon fill="black" stroke="black" points="106.59,-415.94 115,-409.5 104.41,-409.29 106.59,-415.94"/>
</g>
<!-- node3 -->
<g id="node4" class="node">
<title>node3</title>
<defs>
<linearGradient id="l_4" gradientUnits="userSpaceOnUse" x1="750.5" y1="-495.5" x2="750.5" y2="-599.5" >
<stop offset="0" style="stop-color:green;stop-opacity:1.;"/>
<stop offset="1" style="stop-color:red;stop-opacity:1.;"/>
</linearGradient>
</defs>
<polygon fill="url(#l_4)" stroke="black" points="643,-495.5 643,-599.5 858,-599.5 858,-495.5 643,-495.5"/>
<text text-anchor="middle" x="750.5" y="-582.7" font-family="Helvetica,Arial,sans-serif" font-size="16.00">3.43322790286038071e&#45;06</text>
<polyline fill="none" stroke="black" points="643,-573.5 858,-573.5 "/>
<text text-anchor="middle" x="750.5" y="-556.7" font-family="Helvetica,Arial,sans-serif" font-size="16.00">44.79998779296875</text>
<polyline fill="none" stroke="black" points="643,-547.5 858,-547.5 "/>
<text text-anchor="middle" x="750.5" y="-530.7" font-family="Helvetica,Arial,sans-serif" font-size="16.00">0</text>
<polyline fill="none" stroke="black" points="643,-521.5 858,-521.5 "/>
<text text-anchor="middle" x="750.5" y="-504.7" font-family="Helvetica,Arial,sans-serif" font-size="16.00"> </text>
</g>
<!-- node1&#45;&gt;node3 -->
<g id="2" class="edge">
<title>node1:f0&#45;&gt;node3:f0</title>
<path fill="none" stroke="black" d="M211,-532.5C229.3,-532.5 229.49,-547.15 247,-552.5 412.65,-603.08 464.34,-587.16 632.79,-586.52"/>
<polygon fill="black" stroke="black" points="633.01,-590.02 643,-586.5 632.99,-583.02 633.01,-590.02"/>
</g>
<!-- node4 -->
<g id="node5" class="node">
<title>node4</title>
<defs>
<linearGradient id="l_5" gradientUnits="userSpaceOnUse" x1="247" y1="-467.5" x2="343" y2="-467.5" >
<stop offset="0" style="stop-color:red;stop-opacity:1.;"/>
<stop offset="1" style="stop-color:green;stop-opacity:1.;"/>
</linearGradient>
</defs>
<polygon fill="url(#l_5)" stroke="black" points="247,-415.5 247,-519.5 343,-519.5 343,-415.5 247,-415.5"/>
<text text-anchor="middle" x="295" y="-502.7" font-family="Helvetica,Arial,sans-serif" font-size="16.00">0xf7fc4380</text>
<polyline fill="none" stroke="black" points="247,-493.5 343,-493.5 "/>
<text text-anchor="middle" x="295" y="-476.7" font-family="Helvetica,Arial,sans-serif" font-size="16.00"> </text>
<polyline fill="none" stroke="black" points="247,-467.5 343,-467.5 "/>
<text text-anchor="middle" x="295" y="-450.7" font-family="Helvetica,Arial,sans-serif" font-size="16.00"> </text>
<polyline fill="none" stroke="black" points="247,-441.5 343,-441.5 "/>
<text text-anchor="middle" x="295" y="-424.7" font-family="Helvetica,Arial,sans-serif" font-size="16.00">2</text>
</g>
<!-- node1&#45;&gt;node4 -->
<g id="3" class="edge">
<title>node1:f1&#45;&gt;node4:f0</title>
<path fill="none" stroke="black" d="M211,-506.5C223,-506.5 228.25,-506.5 236.88,-506.5"/>
<polygon fill="black" stroke="black" points="237,-510 247,-506.5 237,-503 237,-510"/>
</g>
<!-- node5 -->
<g id="node6" class="node">
<title>node5</title>
<defs>
<linearGradient id="l_6" gradientUnits="userSpaceOnUse" x1="295" y1="-76.5" x2="295" y2="-180.5" >
<stop offset="0" style="stop-color:red;stop-opacity:1.;"/>
<stop offset="1" style="stop-color:red;stop-opacity:1.;"/>
</linearGradient>
</defs>
<polygon fill="url(#l_6)" stroke="black" points="268,-76.5 268,-180.5 322,-180.5 322,-76.5 268,-76.5"/>
<text text-anchor="middle" x="295" y="-163.7" font-family="Helvetica,Arial,sans-serif" font-size="16.00">(nil)</text>
<polyline fill="none" stroke="black" points="268,-154.5 322,-154.5 "/>
<text text-anchor="middle" x="295" y="-137.7" font-family="Helvetica,Arial,sans-serif" font-size="16.00"> </text>
<polyline fill="none" stroke="black" points="268,-128.5 322,-128.5 "/>
<text text-anchor="middle" x="295" y="-111.7" font-family="Helvetica,Arial,sans-serif" font-size="16.00"> </text>
<polyline fill="none" stroke="black" points="268,-102.5 322,-102.5 "/>
<text text-anchor="middle" x="295" y="-85.7" font-family="Helvetica,Arial,sans-serif" font-size="16.00">&#45;1</text>
</g>
<!-- node1&#45;&gt;node5 -->
<g id="4" class="edge">
<title>node1:f2&#45;&gt;node5:f0</title>
<path fill="none" stroke="black" d="M211,-480.5C274.84,-480.5 205.57,-244.06 247,-195.5 258.04,-182.56 280.31,-194.25 290.15,-190.47"/>
<polygon fill="black" stroke="black" points="293.32,-191.96 295,-181.5 287.16,-188.63 293.32,-191.96"/>
</g>
<!-- node4&#45;&gt;node3 -->
<g id="5" class="edge">
<title>node4:f0&#45;&gt;node3:f1</title>
<path fill="none" stroke="black" d="M343,-506.5C417.67,-506.5 436.33,-508.06 511,-508.5 566.11,-508.83 582.4,-508.54 632.81,-508.5"/>
<polygon fill="black" stroke="black" points="633,-512 643,-508.5 633,-505 633,-512"/>
</g>
<!-- node6 -->
<g id="node7" class="node">
<title>node6</title>
<defs>
<linearGradient id="l_7" gradientUnits="userSpaceOnUse" x1="427" y1="-389.5" x2="427" y2="-493.5" >
<stop offset="0" style="stop-color:orange;stop-opacity:1.;"/>
<stop offset="1" style="stop-color:green;stop-opacity:1.;"/>
</linearGradient>
</defs>
<polygon fill="url(#l_7)" stroke="black" points="379,-389.5 379,-493.5 475,-493.5 475,-389.5 379,-389.5"/>
<text text-anchor="middle" x="427" y="-476.7" font-family="Helvetica,Arial,sans-serif" font-size="16.00">0xf7fc4380</text>
<polyline fill="none" stroke="black" points="379,-467.5 475,-467.5 "/>
<text text-anchor="middle" x="427" y="-450.7" font-family="Helvetica,Arial,sans-serif" font-size="16.00"> </text>
<polyline fill="none" stroke="black" points="379,-441.5 475,-441.5 "/>
<text text-anchor="middle" x="427" y="-424.7" font-family="Helvetica,Arial,sans-serif" font-size="16.00"> </text>
<polyline fill="none" stroke="black" points="379,-415.5 475,-415.5 "/>
<text text-anchor="middle" x="427" y="-398.7" font-family="Helvetica,Arial,sans-serif" font-size="16.00">1</text>
</g>
<!-- node4&#45;&gt;node6 -->
<g id="6" class="edge">
<title>node4:f1&#45;&gt;node6:f0</title>
<path fill="none" stroke="black" d="M343,-480.5C355,-480.5 360.25,-480.5 368.88,-480.5"/>
<polygon fill="black" stroke="black" points="369,-484 379,-480.5 369,-477 369,-484"/>
</g>
<!-- node10 -->
<g id="node11" class="node">
<title>node10</title>
<defs>
<linearGradient id="l_8" gradientUnits="userSpaceOnUse" x1="427" y1="-238.5" x2="427" y2="-342.5" >
<stop offset="0" style="stop-color:magenta;stop-opacity:1.;"/>
<stop offset="1" style="stop-color:green;stop-opacity:1.;"/>
</linearGradient>
</defs>
<polygon fill="url(#l_8)" stroke="black" points="400,-238.5 400,-342.5 454,-342.5 454,-238.5 400,-238.5"/>
<text text-anchor="middle" x="427" y="-325.7" font-family="Helvetica,Arial,sans-serif" font-size="16.00">(nil)</text>
<polyline fill="none" stroke="black" points="400,-316.5 454,-316.5 "/>
<text text-anchor="middle" x="427" y="-299.7" font-family="Helvetica,Arial,sans-serif" font-size="16.00"> </text>
<polyline fill="none" stroke="black" points="400,-290.5 454,-290.5 "/>
<text text-anchor="middle" x="427" y="-273.7" font-family="Helvetica,Arial,sans-serif" font-size="16.00"> </text>
<polyline fill="none" stroke="black" points="400,-264.5 454,-264.5 "/>
<text text-anchor="middle" x="427" y="-247.7" font-family="Helvetica,Arial,sans-serif" font-size="16.00">&#45;1</text>
</g>
<!-- node4&#45;&gt;node10 -->
<g id="7" class="edge">
<title>node4:f2&#45;&gt;node10:f0</title>
<path fill="none" stroke="black" d="M343,-454.5C400.07,-454.5 345.85,-344.64 389.01,-330.9"/>
<polygon fill="black" stroke="black" points="389.58,-334.36 399,-329.5 388.61,-327.43 389.58,-334.36"/>
</g>
<!-- node6&#45;&gt;node3 -->
<g id="8" class="edge">
<title>node6:f0&#45;&gt;node3:f1</title>
<path fill="none" stroke="black" d="M475,-480.5C509.82,-480.5 590.72,-504.2 632.92,-507.99"/>
<polygon fill="black" stroke="black" points="632.84,-511.49 643,-508.5 633.19,-504.5 632.84,-511.49"/>
</g>
<!-- node7 -->
<g id="node8" class="node">
<title>node7</title>
<defs>
<linearGradient id="l_9" gradientUnits="userSpaceOnUse" x1="559" y1="-369.5" x2="559" y2="-473.5" >
<stop offset="0" style="stop-color:cyan;stop-opacity:1.;"/>
<stop offset="1" style="stop-color:green;stop-opacity:1.;"/>
</linearGradient>
</defs>
<polygon fill="url(#l_9)" stroke="black" points="511,-369.5 511,-473.5 607,-473.5 607,-369.5 511,-369.5"/>
<text text-anchor="middle" x="559" y="-456.7" font-family="Helvetica,Arial,sans-serif" font-size="16.00">0xf7fc4380</text>
<polyline fill="none" stroke="black" points="511,-447.5 607,-447.5 "/>
<text text-anchor="middle" x="559" y="-430.7" font-family="Helvetica,Arial,sans-serif" font-size="16.00"> </text>
<polyline fill="none" stroke="black" points="511,-421.5 607,-421.5 "/>
<text text-anchor="middle" x="559" y="-404.7" font-family="Helvetica,Arial,sans-serif" font-size="16.00"> </text>
<polyline fill="none" stroke="black" points="511,-395.5 607,-395.5 "/>
<text text-anchor="middle" x="559" y="-378.7" font-family="Helvetica,Arial,sans-serif" font-size="16.00">2</text>
</g>
<!-- node6&#45;&gt;node7 -->
<g id="9" class="edge">
<title>node6:f1&#45;&gt;node7:f0</title>
<path fill="none" stroke="black" d="M475,-454.5C487.17,-454.5 492.21,-457.88 500.81,-459.56"/>
<polygon fill="black" stroke="black" points="500.72,-463.07 511,-460.5 501.36,-456.1 500.72,-463.07"/>
</g>
<!-- node9 -->
<g id="node10" class="node">
<title>node9</title>
<defs>
<linearGradient id="l_10" gradientUnits="userSpaceOnUse" x1="559" y1="-246.5" x2="559" y2="-350.5" >
<stop offset="0" style="stop-color:orange;stop-opacity:1.;"/>
<stop offset="1" style="stop-color:orange;stop-opacity:1.;"/>
</linearGradient>
</defs>
<polygon fill="url(#l_10)" stroke="black" points="532,-246.5 532,-350.5 586,-350.5 586,-246.5 532,-246.5"/>
<text text-anchor="middle" x="559" y="-333.7" font-family="Helvetica,Arial,sans-serif" font-size="16.00">(nil)</text>
<polyline fill="none" stroke="black" points="532,-324.5 586,-324.5 "/>
<text text-anchor="middle" x="559" y="-307.7" font-family="Helvetica,Arial,sans-serif" font-size="16.00"> </text>
<polyline fill="none" stroke="black" points="532,-298.5 586,-298.5 "/>
<text text-anchor="middle" x="559" y="-281.7" font-family="Helvetica,Arial,sans-serif" font-size="16.00"> </text>
<polyline fill="none" stroke="black" points="532,-272.5 586,-272.5 "/>
<text text-anchor="middle" x="559" y="-255.7" font-family="Helvetica,Arial,sans-serif" font-size="16.00">&#45;1</text>
</g>
<!-- node6&#45;&gt;node9 -->
<g id="10" class="edge">
<title>node6:f2&#45;&gt;node9:f0</title>
<path fill="none" stroke="black" d="M475,-428.5C518.59,-428.5 489.32,-351.82 520.96,-339.24"/>
<polygon fill="black" stroke="black" points="521.74,-342.65 531,-337.5 520.55,-335.76 521.74,-342.65"/>
</g>
<!-- node7&#45;&gt;node1 -->
<g id="12" class="edge">
<title>node7:f1&#45;&gt;node1:f0</title>
<path fill="none" stroke="black" d="M511,-434.5C476.41,-434.5 502.7,-482.78 475,-503.5 383.25,-572.13 332.09,-534.85 221.21,-532.6"/>
<polygon fill="black" stroke="black" points="221.04,-529.1 211,-532.5 220.96,-536.1 221.04,-529.1"/>
</g>
<!-- node7&#45;&gt;node3 -->
<g id="11" class="edge">
<title>node7:f0&#45;&gt;node3:f1</title>
<path fill="none" stroke="black" d="M607,-460.5C629.5,-460.5 620.68,-494.67 633.39,-505.35"/>
<polygon fill="black" stroke="black" points="632.41,-508.71 643,-508.5 634.59,-502.06 632.41,-508.71"/>
</g>
<!-- node8 -->
<g id="node9" class="node">
<title>node8</title>
<defs>
<linearGradient id="l_11" gradientUnits="userSpaceOnUse" x1="750.5" y1="-317.5" x2="750.5" y2="-421.5" >
<stop offset="0" style="stop-color:cyan;stop-opacity:1.;"/>
<stop offset="1" style="stop-color:cyan;stop-opacity:1.;"/>
</linearGradient>
</defs>
<polygon fill="url(#l_11)" stroke="black" points="723.5,-317.5 723.5,-421.5 777.5,-421.5 777.5,-317.5 723.5,-317.5"/>
<text text-anchor="middle" x="750.5" y="-404.7" font-family="Helvetica,Arial,sans-serif" font-size="16.00">(nil)</text>
<polyline fill="none" stroke="black" points="723.5,-395.5 777.5,-395.5 "/>
<text text-anchor="middle" x="750.5" y="-378.7" font-family="Helvetica,Arial,sans-serif" font-size="16.00"> </text>
<polyline fill="none" stroke="black" points="723.5,-369.5 777.5,-369.5 "/>
<text text-anchor="middle" x="750.5" y="-352.7" font-family="Helvetica,Arial,sans-serif" font-size="16.00"> </text>
<polyline fill="none" stroke="black" points="723.5,-343.5 777.5,-343.5 "/>
<text text-anchor="middle" x="750.5" y="-326.7" font-family="Helvetica,Arial,sans-serif" font-size="16.00">&#45;1</text>
</g>
<!-- node7&#45;&gt;node8 -->
<g id="13" class="edge">
<title>node7:f2&#45;&gt;node8:f0</title>
<path fill="none" stroke="black" d="M607,-408.5C654.82,-408.5 669.23,-408.5 712.49,-408.5"/>
<polygon fill="black" stroke="black" points="712.5,-412 722.5,-408.5 712.5,-405 712.5,-412"/>
</g>
<!-- node11 -->
<g id="node12" class="node">
<title>node11</title>
<defs>
<linearGradient id="l_12" gradientUnits="userSpaceOnUse" x1="559" y1="-123.5" x2="559" y2="-227.5" >
<stop offset="0" style="stop-color:red;stop-opacity:1.;"/>
<stop offset="1" style="stop-color:green;stop-opacity:1.;"/>
</linearGradient>
</defs>
<polygon fill="url(#l_12)" stroke="black" points="532,-123.5 532,-227.5 586,-227.5 586,-123.5 532,-123.5"/>
<text text-anchor="middle" x="559" y="-210.7" font-family="Helvetica,Arial,sans-serif" font-size="16.00">(nil)</text>
<polyline fill="none" stroke="black" points="532,-201.5 586,-201.5 "/>
<text text-anchor="middle" x="559" y="-184.7" font-family="Helvetica,Arial,sans-serif" font-size="16.00"> </text>
<polyline fill="none" stroke="black" points="532,-175.5 586,-175.5 "/>
<text text-anchor="middle" x="559" y="-158.7" font-family="Helvetica,Arial,sans-serif" font-size="16.00"> </text>
<polyline fill="none" stroke="black" points="532,-149.5 586,-149.5 "/>
<text text-anchor="middle" x="559" y="-132.7" font-family="Helvetica,Arial,sans-serif" font-size="16.00">&#45;1</text>
</g>
<!-- node10&#45;&gt;node11 -->
<g id="14" class="edge">
<title>node10:f1&#45;&gt;node11:f0</title>
<path fill="none" stroke="black" d="M455,-303.5C503.15,-303.5 482.7,-227.22 520.68,-215.9"/>
<polygon fill="black" stroke="black" points="521.56,-219.31 531,-214.5 520.62,-212.37 521.56,-219.31"/>
</g>
<!-- node12 -->
<g id="node13" class="node">
<title>node12</title>
<defs>
<linearGradient id="l_13" gradientUnits="userSpaceOnUse" x1="559" y1="-0.5" x2="559" y2="-104.5" >
<stop offset="0" style="stop-color:magenta;stop-opacity:1.;"/>
<stop offset="1" style="stop-color:magenta;stop-opacity:1.;"/>
</linearGradient>
</defs>
<polygon fill="url(#l_13)" stroke="black" points="511,-0.5 511,-104.5 607,-104.5 607,-0.5 511,-0.5"/>
<text text-anchor="middle" x="559" y="-87.7" font-family="Helvetica,Arial,sans-serif" font-size="16.00">0xf7fc43e0</text>
<polyline fill="none" stroke="black" points="511,-78.5 607,-78.5 "/>
<text text-anchor="middle" x="559" y="-61.7" font-family="Helvetica,Arial,sans-serif" font-size="16.00"> </text>
<polyline fill="none" stroke="black" points="511,-52.5 607,-52.5 "/>
<text text-anchor="middle" x="559" y="-35.7" font-family="Helvetica,Arial,sans-serif" font-size="16.00"> </text>
<polyline fill="none" stroke="black" points="511,-26.5 607,-26.5 "/>
<text text-anchor="middle" x="559" y="-9.7" font-family="Helvetica,Arial,sans-serif" font-size="16.00">1</text>
</g>
<!-- node10&#45;&gt;node12 -->
<g id="15" class="edge">
<title>node10:f2&#45;&gt;node12:f0</title>
<path fill="none" stroke="black" d="M455,-277.5C537.62,-277.5 434.32,-107.14 500.96,-92.5"/>
<polygon fill="black" stroke="black" points="501.4,-95.97 511,-91.5 500.7,-89.01 501.4,-95.97"/>
</g>
<!-- node11&#45;&gt;node1 -->
<g id="16" class="edge">
<title>node11:f2&#45;&gt;node1:f0</title>
<path fill="none" stroke="black" d="M531,-162.5C364.59,-162.5 320.81,-257.35 247,-406.5 222.83,-455.33 263.35,-523.08 220.98,-531.61"/>
<polygon fill="black" stroke="black" points="220.65,-528.12 211,-532.5 221.27,-535.09 220.65,-528.12"/>
</g>
</g>
</svg>
