<?xml version="1.0" encoding="UTF-8" standalone="no"?>
<!DOCTYPE svg PUBLIC "-//W3C//DTD SVG 1.1//EN"
 "http://www.w3.org/Graphics/SVG/1.1/DTD/svg11.dtd">
<!-- Generated by graphviz version 2.43.0 (0)
 -->
<!-- Title: G Pages: 1 -->
<svg width="502pt" height="485pt"
 viewBox="0.00 0.00 502.00 485.00" xmlns="http://www.w3.org/2000/svg" xmlns:xlink="http://www.w3.org/1999/xlink">
<g id="graph0" class="graph" transform="scale(1 1) rotate(0) translate(4 481)">
<title>G</title>
<polygon fill="white" stroke="transparent" points="-4,4 -4,-481 498,-481 498,4 -4,4"/>
<!-- a0 -->
<g id="node1" class="node">
<title>a0</title>
<polygon fill="yellow" stroke="transparent" points="18,-421.5 18,-462.5 60,-462.5 60,-421.5 18,-421.5"/>
<polygon fill="none" stroke="black" stroke-width="3" points="19.5,-423 19.5,-461 58.5,-461 58.5,-423 19.5,-423"/>
<text text-anchor="start" x="31" y="-438.3" font-family="Helvetica,Arial,sans-serif" font-size="14.00">00</text>
<defs>
<radialGradient id="r_0" cx="50%" cy="50%" r="75%" fx="74%" fy="6%">
<stop offset="0" style="stop-color:yellow;stop-opacity:1.;"/>
<stop offset="1" style="stop-color:green;stop-opacity:1.;"/>
</radialGradient>
</defs>
<polygon fill="url(#r_0)" stroke="transparent" stroke-width="3" points="70,-421.5 70,-462.5 112,-462.5 112,-421.5 70,-421.5"/>
<polygon fill="none" stroke="black" stroke-width="3" points="71.5,-423 71.5,-461 110.5,-461 110.5,-423 71.5,-423"/>
<text text-anchor="start" x="83" y="-438.3" font-family="Helvetica,Arial,sans-serif" font-size="14.00">01</text>
<polygon fill="green" stroke="transparent" stroke-width="3" points="122,-421.5 122,-462.5 164,-462.5 164,-421.5 122,-421.5"/>
<polygon fill="none" stroke="black" stroke-width="3" points="123.5,-423 123.5,-461 162.5,-461 162.5,-423 123.5,-423"/>
<text text-anchor="start" x="135" y="-438.3" font-family="Helvetica,Arial,sans-serif" font-size="14.00">02</text>
<defs>
<radialGradient id="r_1" cx="50%" cy="50%" r="75%" fx="74%" fy="6%">
<stop offset="0" style="stop-color:green;stop-opacity:1.;"/>
<stop offset="1" style="stop-color:blue;stop-opacity:1.;"/>
</radialGradient>
</defs>
<polygon fill="url(#r_1)" stroke="transparent" stroke-width="3" points="174,-421.5 174,-462.5 216,-462.5 216,-421.5 174,-421.5"/>
<polygon fill="none" stroke="black" stroke-width="3" points="175.5,-423 175.5,-461 214.5,-461 214.5,-423 175.5,-423"/>
<text text-anchor="start" x="187" y="-438.3" font-family="Helvetica,Arial,sans-serif" font-size="14.00">03</text>
<polygon fill="blue" stroke="transparent" stroke-width="3" points="226,-421.5 226,-462.5 268,-462.5 268,-421.5 226,-421.5"/>
<polygon fill="none" stroke="black" stroke-width="3" points="227.5,-423 227.5,-461 266.5,-461 266.5,-423 227.5,-423"/>
<text text-anchor="start" x="239" y="-438.3" font-family="Helvetica,Arial,sans-serif" font-size="14.00">04</text>
<defs>
<radialGradient id="r_2" cx="50%" cy="50%" r="75%" fx="74%" fy="6%">
<stop offset="0" style="stop-color:blue;stop-opacity:1.;"/>
<stop offset="1" style="stop-color:purple;stop-opacity:1.;"/>
</radialGradient>
</defs>
<polygon fill="url(#r_2)" stroke="transparent" stroke-width="3" points="278,-421.5 278,-462.5 320,-462.5 320,-421.5 278,-421.5"/>
<polygon fill="none" stroke="black" stroke-width="3" points="279.5,-423 279.5,-461 318.5,-461 318.5,-423 279.5,-423"/>
<text text-anchor="start" x="291" y="-438.3" font-family="Helvetica,Arial,sans-serif" font-size="14.00">05</text>
<polygon fill="purple" stroke="transparent" stroke-width="3" points="330,-421.5 330,-462.5 372,-462.5 372,-421.5 330,-421.5"/>
<polygon fill="none" stroke="black" stroke-width="3" points="331.5,-423 331.5,-461 370.5,-461 370.5,-423 331.5,-423"/>
<text text-anchor="start" x="343" y="-438.3" font-family="Helvetica,Arial,sans-serif" font-size="14.00">06</text>
<defs>
<radialGradient id="r_3" cx="50%" cy="50%" r="75%" fx="74%" fy="6%">
<stop offset="0" style="stop-color:purple;stop-opacity:1.;"/>
<stop offset="1" style="stop-color:violet;stop-opacity:1.;"/>
</radialGradient>
</defs>
<polygon fill="url(#r_3)" stroke="transparent" stroke-width="3" points="382,-421.5 382,-462.5 424,-462.5 424,-421.5 382,-421.5"/>
<polygon fill="none" stroke="black" stroke-width="3" points="383.5,-423 383.5,-461 422.5,-461 422.5,-423 383.5,-423"/>
<text text-anchor="start" x="395" y="-438.3" font-family="Helvetica,Arial,sans-serif" font-size="14.00">07</text>
<polygon fill="violet" stroke="transparent" stroke-width="3" points="434,-421.5 434,-462.5 476,-462.5 476,-421.5 434,-421.5"/>
<polygon fill="none" stroke="black" stroke-width="3" points="435.5,-423 435.5,-461 474.5,-461 474.5,-423 435.5,-423"/>
<text text-anchor="start" x="447" y="-438.3" font-family="Helvetica,Arial,sans-serif" font-size="14.00">08</text>
<defs>
<radialGradient id="r_4" cx="50%" cy="50%" r="75%" fx="74%" fy="6%">
<stop offset="0" style="stop-color:yellow;stop-opacity:1.;"/>
<stop offset="1" style="stop-color:gold;stop-opacity:1.;"/>
</radialGradient>
</defs>
<polygon fill="url(#r_4)" stroke="transparent" stroke-width="3" points="18,-370.5 18,-411.5 60,-411.5 60,-370.5 18,-370.5"/>
<polygon fill="none" stroke="black" stroke-width="3" points="19.5,-372 19.5,-410 58.5,-410 58.5,-372 19.5,-372"/>
<text text-anchor="start" x="31" y="-387.3" font-family="Helvetica,Arial,sans-serif" font-size="14.00">10</text>
<defs>
<radialGradient id="r_5" cx="50%" cy="50%" r="75%" fx="74%" fy="6%">
<stop offset="0" style="stop-color:yellow;stop-opacity:1.;"/>
<stop offset="1" style="stop-color:green;stop-opacity:1.;"/>
</radialGradient>
</defs>
<polygon fill="url(#r_5)" stroke="transparent" stroke-width="3" points="70,-370.5 70,-411.5 112,-411.5 112,-370.5 70,-370.5"/>
<polygon fill="none" stroke="black" stroke-width="3" points="71.5,-372 71.5,-410 110.5,-410 110.5,-372 71.5,-372"/>
<text text-anchor="start" x="83" y="-387.3" font-family="Helvetica,Arial,sans-serif" font-size="14.00">11</text>
<defs>
<radialGradient id="r_6" cx="50%" cy="50%" r="75%" fx="74%" fy="6%">
<stop offset="0" style="stop-color:yellow;stop-opacity:1.;"/>
<stop offset="1" style="stop-color:green;stop-opacity:1.;"/>
</radialGradient>
</defs>
<polygon fill="url(#r_6)" stroke="transparent" stroke-width="3" points="122,-370.5 122,-411.5 164,-411.5 164,-370.5 122,-370.5"/>
<polygon fill="none" stroke="black" stroke-width="3" points="123.5,-372 123.5,-410 162.5,-410 162.5,-372 123.5,-372"/>
<text text-anchor="start" x="135" y="-387.3" font-family="Helvetica,Arial,sans-serif" font-size="14.00">12</text>
<defs>
<radialGradient id="r_7" cx="50%" cy="50%" r="75%" fx="74%" fy="6%">
<stop offset="0" style="stop-color:yellow;stop-opacity:1.;"/>
<stop offset="1" style="stop-color:blue;stop-opacity:1.;"/>
</radialGradient>
</defs>
<polygon fill="url(#r_7)" stroke="transparent" stroke-width="3" points="174,-370.5 174,-411.5 216,-411.5 216,-370.5 174,-370.5"/>
<polygon fill="none" stroke="black" stroke-width="3" points="175.5,-372 175.5,-410 214.5,-410 214.5,-372 175.5,-372"/>
<text text-anchor="start" x="187" y="-387.3" font-family="Helvetica,Arial,sans-serif" font-size="14.00">13</text>
<defs>
<radialGradient id="r_8" cx="50%" cy="50%" r="75%" fx="74%" fy="6%">
<stop offset="0" style="stop-color:yellow;stop-opacity:1.;"/>
<stop offset="1" style="stop-color:blue;stop-opacity:1.;"/>
</radialGradient>
</defs>
<polygon fill="url(#r_8)" stroke="transparent" stroke-width="3" points="226,-370.5 226,-411.5 268,-411.5 268,-370.5 226,-370.5"/>
<polygon fill="none" stroke="black" stroke-width="3" points="227.5,-372 227.5,-410 266.5,-410 266.5,-372 227.5,-372"/>
<text text-anchor="start" x="239" y="-387.3" font-family="Helvetica,Arial,sans-serif" font-size="14.00">14</text>
<defs>
<radialGradient id="r_9" cx="50%" cy="50%" r="75%" fx="74%" fy="6%">
<stop offset="0" style="stop-color:yellow;stop-opacity:1.;"/>
<stop offset="1" style="stop-color:purple;stop-opacity:1.;"/>
</radialGradient>
</defs>
<polygon fill="url(#r_9)" stroke="transparent" stroke-width="3" points="278,-370.5 278,-411.5 320,-411.5 320,-370.5 278,-370.5"/>
<polygon fill="none" stroke="black" stroke-width="3" points="279.5,-372 279.5,-410 318.5,-410 318.5,-372 279.5,-372"/>
<text text-anchor="start" x="291" y="-387.3" font-family="Helvetica,Arial,sans-serif" font-size="14.00">15</text>
<defs>
<radialGradient id="r_10" cx="50%" cy="50%" r="75%" fx="74%" fy="6%">
<stop offset="0" style="stop-color:yellow;stop-opacity:1.;"/>
<stop offset="1" style="stop-color:purple;stop-opacity:1.;"/>
</radialGradient>
</defs>
<polygon fill="url(#r_10)" stroke="transparent" stroke-width="3" points="330,-370.5 330,-411.5 372,-411.5 372,-370.5 330,-370.5"/>
<polygon fill="none" stroke="black" stroke-width="3" points="331.5,-372 331.5,-410 370.5,-410 370.5,-372 331.5,-372"/>
<text text-anchor="start" x="343" y="-387.3" font-family="Helvetica,Arial,sans-serif" font-size="14.00">16</text>
<defs>
<radialGradient id="r_11" cx="50%" cy="50%" r="75%" fx="74%" fy="6%">
<stop offset="0" style="stop-color:yellow;stop-opacity:1.;"/>
<stop offset="1" style="stop-color:violet;stop-opacity:1.;"/>
</radialGradient>
</defs>
<polygon fill="url(#r_11)" stroke="transparent" stroke-width="3" points="382,-370.5 382,-411.5 424,-411.5 424,-370.5 382,-370.5"/>
<polygon fill="none" stroke="black" stroke-width="3" points="383.5,-372 383.5,-410 422.5,-410 422.5,-372 383.5,-372"/>
<text text-anchor="start" x="395" y="-387.3" font-family="Helvetica,Arial,sans-serif" font-size="14.00">17</text>
<defs>
<radialGradient id="r_12" cx="50%" cy="50%" r="75%" fx="74%" fy="6%">
<stop offset="0" style="stop-color:yellow;stop-opacity:1.;"/>
<stop offset="1" style="stop-color:violet;stop-opacity:1.;"/>
</radialGradient>
</defs>
<polygon fill="url(#r_12)" stroke="transparent" stroke-width="3" points="434,-370.5 434,-411.5 476,-411.5 476,-370.5 434,-370.5"/>
<polygon fill="none" stroke="black" stroke-width="3" points="435.5,-372 435.5,-410 474.5,-410 474.5,-372 435.5,-372"/>
<text text-anchor="start" x="447" y="-387.3" font-family="Helvetica,Arial,sans-serif" font-size="14.00">18</text>
<polygon fill="gold" stroke="transparent" stroke-width="3" points="18,-319.5 18,-360.5 60,-360.5 60,-319.5 18,-319.5"/>
<polygon fill="none" stroke="black" stroke-width="3" points="19.5,-321 19.5,-359 58.5,-359 58.5,-321 19.5,-321"/>
<text text-anchor="start" x="31" y="-336.3" font-family="Helvetica,Arial,sans-serif" font-size="14.00">20</text>
<defs>
<radialGradient id="r_13" cx="50%" cy="50%" r="75%" fx="74%" fy="6%">
<stop offset="0" style="stop-color:gold;stop-opacity:1.;"/>
<stop offset="1" style="stop-color:green;stop-opacity:1.;"/>
</radialGradient>
</defs>
<polygon fill="url(#r_13)" stroke="transparent" stroke-width="3" points="70,-319.5 70,-360.5 112,-360.5 112,-319.5 70,-319.5"/>
<polygon fill="none" stroke="black" stroke-width="3" points="71.5,-321 71.5,-359 110.5,-359 110.5,-321 71.5,-321"/>
<text text-anchor="start" x="83" y="-336.3" font-family="Helvetica,Arial,sans-serif" font-size="14.00">21</text>
<defs>
<radialGradient id="r_14" cx="50%" cy="50%" r="75%" fx="74%" fy="6%">
<stop offset="0" style="stop-color:gold;stop-opacity:1.;"/>
<stop offset="1" style="stop-color:green;stop-opacity:1.;"/>
</radialGradient>
</defs>
<polygon fill="url(#r_14)" stroke="transparent" stroke-width="3" points="122,-319.5 122,-360.5 164,-360.5 164,-319.5 122,-319.5"/>
<polygon fill="none" stroke="black" stroke-width="3" points="123.5,-321 123.5,-359 162.5,-359 162.5,-321 123.5,-321"/>
<text text-anchor="start" x="135" y="-336.3" font-family="Helvetica,Arial,sans-serif" font-size="14.00">22</text>
<defs>
<radialGradient id="r_15" cx="50%" cy="50%" r="75%" fx="74%" fy="6%">
<stop offset="0" style="stop-color:gold;stop-opacity:1.;"/>
<stop offset="1" style="stop-color:blue;stop-opacity:1.;"/>
</radialGradient>
</defs>
<polygon fill="url(#r_15)" stroke="transparent" stroke-width="3" points="174,-319.5 174,-360.5 216,-360.5 216,-319.5 174,-319.5"/>
<polygon fill="none" stroke="black" stroke-width="3" points="175.5,-321 175.5,-359 214.5,-359 214.5,-321 175.5,-321"/>
<text text-anchor="start" x="187" y="-336.3" font-family="Helvetica,Arial,sans-serif" font-size="14.00">23</text>
<defs>
<radialGradient id="r_16" cx="50%" cy="50%" r="75%" fx="74%" fy="6%">
<stop offset="0" style="stop-color:gold;stop-opacity:1.;"/>
<stop offset="1" style="stop-color:blue;stop-opacity:1.;"/>
</radialGradient>
</defs>
<polygon fill="url(#r_16)" stroke="transparent" stroke-width="3" points="226,-319.5 226,-360.5 268,-360.5 268,-319.5 226,-319.5"/>
<polygon fill="none" stroke="black" stroke-width="3" points="227.5,-321 227.5,-359 266.5,-359 266.5,-321 227.5,-321"/>
<text text-anchor="start" x="239" y="-336.3" font-family="Helvetica,Arial,sans-serif" font-size="14.00">24</text>
<defs>
<radialGradient id="r_17" cx="50%" cy="50%" r="75%" fx="74%" fy="6%">
<stop offset="0" style="stop-color:gold;stop-opacity:1.;"/>
<stop offset="1" style="stop-color:purple;stop-opacity:1.;"/>
</radialGradient>
</defs>
<polygon fill="url(#r_17)" stroke="transparent" stroke-width="3" points="278,-319.5 278,-360.5 320,-360.5 320,-319.5 278,-319.5"/>
<polygon fill="none" stroke="black" stroke-width="3" points="279.5,-321 279.5,-359 318.5,-359 318.5,-321 279.5,-321"/>
<text text-anchor="start" x="291" y="-336.3" font-family="Helvetica,Arial,sans-serif" font-size="14.00">25</text>
<defs>
<radialGradient id="r_18" cx="50%" cy="50%" r="75%" fx="74%" fy="6%">
<stop offset="0" style="stop-color:gold;stop-opacity:1.;"/>
<stop offset="1" style="stop-color:purple;stop-opacity:1.;"/>
</radialGradient>
</defs>
<polygon fill="url(#r_18)" stroke="transparent" stroke-width="3" points="330,-319.5 330,-360.5 372,-360.5 372,-319.5 330,-319.5"/>
<polygon fill="none" stroke="black" stroke-width="3" points="331.5,-321 331.5,-359 370.5,-359 370.5,-321 331.5,-321"/>
<text text-anchor="start" x="343" y="-336.3" font-family="Helvetica,Arial,sans-serif" font-size="14.00">26</text>
<defs>
<radialGradient id="r_19" cx="50%" cy="50%" r="75%" fx="74%" fy="6%">
<stop offset="0" style="stop-color:gold;stop-opacity:1.;"/>
<stop offset="1" style="stop-color:violet;stop-opacity:1.;"/>
</radialGradient>
</defs>
<polygon fill="url(#r_19)" stroke="transparent" stroke-width="3" points="382,-319.5 382,-360.5 424,-360.5 424,-319.5 382,-319.5"/>
<polygon fill="none" stroke="black" stroke-width="3" points="383.5,-321 383.5,-359 422.5,-359 422.5,-321 383.5,-321"/>
<text text-anchor="start" x="395" y="-336.3" font-family="Helvetica,Arial,sans-serif" font-size="14.00">27</text>
<defs>
<radialGradient id="r_20" cx="50%" cy="50%" r="75%" fx="74%" fy="6%">
<stop offset="0" style="stop-color:gold;stop-opacity:1.;"/>
<stop offset="1" style="stop-color:violet;stop-opacity:1.;"/>
</radialGradient>
</defs>
<polygon fill="url(#r_20)" stroke="transparent" stroke-width="3" points="434,-319.5 434,-360.5 476,-360.5 476,-319.5 434,-319.5"/>
<polygon fill="none" stroke="black" stroke-width="3" points="435.5,-321 435.5,-359 474.5,-359 474.5,-321 435.5,-321"/>
<text text-anchor="start" x="447" y="-336.3" font-family="Helvetica,Arial,sans-serif" font-size="14.00">28</text>
<defs>
<radialGradient id="r_21" cx="50%" cy="50%" r="75%" fx="74%" fy="6%">
<stop offset="0" style="stop-color:gold;stop-opacity:1.;"/>
<stop offset="1" style="stop-color:orange;stop-opacity:1.;"/>
</radialGradient>
</defs>
<polygon fill="url(#r_21)" stroke="transparent" stroke-width="3" points="18,-268.5 18,-309.5 60,-309.5 60,-268.5 18,-268.5"/>
<polygon fill="none" stroke="black" stroke-width="3" points="19.5,-270 19.5,-308 58.5,-308 58.5,-270 19.5,-270"/>
<text text-anchor="start" x="31" y="-285.3" font-family="Helvetica,Arial,sans-serif" font-size="14.00">30</text>
<defs>
<radialGradient id="r_22" cx="50%" cy="50%" r="75%" fx="74%" fy="6%">
<stop offset="0" style="stop-color:orange;stop-opacity:1.;"/>
<stop offset="1" style="stop-color:green;stop-opacity:1.;"/>
</radialGradient>
</defs>
<polygon fill="url(#r_22)" stroke="transparent" stroke-width="3" points="70,-268.5 70,-309.5 112,-309.5 112,-268.5 70,-268.5"/>
<polygon fill="none" stroke="black" stroke-width="3" points="71.5,-270 71.5,-308 110.5,-308 110.5,-270 71.5,-270"/>
<text text-anchor="start" x="83" y="-285.3" font-family="Helvetica,Arial,sans-serif" font-size="14.00">31</text>
<defs>
<radialGradient id="r_23" cx="50%" cy="50%" r="75%" fx="74%" fy="6%">
<stop offset="0" style="stop-color:orange;stop-opacity:1.;"/>
<stop offset="1" style="stop-color:green;stop-opacity:1.;"/>
</radialGradient>
</defs>
<polygon fill="url(#r_23)" stroke="transparent" stroke-width="3" points="122,-268.5 122,-309.5 164,-309.5 164,-268.5 122,-268.5"/>
<polygon fill="none" stroke="black" stroke-width="3" points="123.5,-270 123.5,-308 162.5,-308 162.5,-270 123.5,-270"/>
<text text-anchor="start" x="135" y="-285.3" font-family="Helvetica,Arial,sans-serif" font-size="14.00">32</text>
<defs>
<radialGradient id="r_24" cx="50%" cy="50%" r="75%" fx="74%" fy="6%">
<stop offset="0" style="stop-color:orange;stop-opacity:1.;"/>
<stop offset="1" style="stop-color:blue;stop-opacity:1.;"/>
</radialGradient>
</defs>
<polygon fill="url(#r_24)" stroke="transparent" stroke-width="3" points="174,-268.5 174,-309.5 216,-309.5 216,-268.5 174,-268.5"/>
<polygon fill="none" stroke="black" stroke-width="3" points="175.5,-270 175.5,-308 214.5,-308 214.5,-270 175.5,-270"/>
<text text-anchor="start" x="187" y="-285.3" font-family="Helvetica,Arial,sans-serif" font-size="14.00">33</text>
<defs>
<radialGradient id="r_25" cx="50%" cy="50%" r="75%" fx="74%" fy="6%">
<stop offset="0" style="stop-color:orange;stop-opacity:1.;"/>
<stop offset="1" style="stop-color:blue;stop-opacity:1.;"/>
</radialGradient>
</defs>
<polygon fill="url(#r_25)" stroke="transparent" stroke-width="3" points="226,-268.5 226,-309.5 268,-309.5 268,-268.5 226,-268.5"/>
<polygon fill="none" stroke="black" stroke-width="3" points="227.5,-270 227.5,-308 266.5,-308 266.5,-270 227.5,-270"/>
<text text-anchor="start" x="239" y="-285.3" font-family="Helvetica,Arial,sans-serif" font-size="14.00">34</text>
<defs>
<radialGradient id="r_26" cx="50%" cy="50%" r="75%" fx="74%" fy="6%">
<stop offset="0" style="stop-color:orange;stop-opacity:1.;"/>
<stop offset="1" style="stop-color:purple;stop-opacity:1.;"/>
</radialGradient>
</defs>
<polygon fill="url(#r_26)" stroke="transparent" stroke-width="3" points="278,-268.5 278,-309.5 320,-309.5 320,-268.5 278,-268.5"/>
<polygon fill="none" stroke="black" stroke-width="3" points="279.5,-270 279.5,-308 318.5,-308 318.5,-270 279.5,-270"/>
<text text-anchor="start" x="291" y="-285.3" font-family="Helvetica,Arial,sans-serif" font-size="14.00">35</text>
<defs>
<radialGradient id="r_27" cx="50%" cy="50%" r="75%" fx="74%" fy="6%">
<stop offset="0" style="stop-color:orange;stop-opacity:1.;"/>
<stop offset="1" style="stop-color:purple;stop-opacity:1.;"/>
</radialGradient>
</defs>
<polygon fill="url(#r_27)" stroke="transparent" stroke-width="3" points="330,-268.5 330,-309.5 372,-309.5 372,-268.5 330,-268.5"/>
<polygon fill="none" stroke="black" stroke-width="3" points="331.5,-270 331.5,-308 370.5,-308 370.5,-270 331.5,-270"/>
<text text-anchor="start" x="343" y="-285.3" font-family="Helvetica,Arial,sans-serif" font-size="14.00">36</text>
<defs>
<radialGradient id="r_28" cx="50%" cy="50%" r="75%" fx="74%" fy="6%">
<stop offset="0" style="stop-color:orange;stop-opacity:1.;"/>
<stop offset="1" style="stop-color:violet;stop-opacity:1.;"/>
</radialGradient>
</defs>
<polygon fill="url(#r_28)" stroke="transparent" stroke-width="3" points="382,-268.5 382,-309.5 424,-309.5 424,-268.5 382,-268.5"/>
<polygon fill="none" stroke="black" stroke-width="3" points="383.5,-270 383.5,-308 422.5,-308 422.5,-270 383.5,-270"/>
<text text-anchor="start" x="395" y="-285.3" font-family="Helvetica,Arial,sans-serif" font-size="14.00">37</text>
<defs>
<radialGradient id="r_29" cx="50%" cy="50%" r="75%" fx="74%" fy="6%">
<stop offset="0" style="stop-color:orange;stop-opacity:1.;"/>
<stop offset="1" style="stop-color:violet;stop-opacity:1.;"/>
</radialGradient>
</defs>
<polygon fill="url(#r_29)" stroke="transparent" stroke-width="3" points="434,-268.5 434,-309.5 476,-309.5 476,-268.5 434,-268.5"/>
<polygon fill="none" stroke="black" stroke-width="3" points="435.5,-270 435.5,-308 474.5,-308 474.5,-270 435.5,-270"/>
<text text-anchor="start" x="447" y="-285.3" font-family="Helvetica,Arial,sans-serif" font-size="14.00">38</text>
<polygon fill="orange" stroke="transparent" stroke-width="3" points="18,-217.5 18,-258.5 60,-258.5 60,-217.5 18,-217.5"/>
<polygon fill="none" stroke="black" stroke-width="3" points="19.5,-219 19.5,-257 58.5,-257 58.5,-219 19.5,-219"/>
<text text-anchor="start" x="31" y="-234.3" font-family="Helvetica,Arial,sans-serif" font-size="14.00">40</text>
<defs>
<radialGradient id="r_30" cx="50%" cy="50%" r="75%" fx="74%" fy="6%">
<stop offset="0" style="stop-color:orange;stop-opacity:1.;"/>
<stop offset="1" style="stop-color:green;stop-opacity:1.;"/>
</radialGradient>
</defs>
<polygon fill="url(#r_30)" stroke="transparent" stroke-width="3" points="70,-217.5 70,-258.5 112,-258.5 112,-217.5 70,-217.5"/>
<polygon fill="none" stroke="black" stroke-width="3" points="71.5,-219 71.5,-257 110.5,-257 110.5,-219 71.5,-219"/>
<text text-anchor="start" x="83" y="-234.3" font-family="Helvetica,Arial,sans-serif" font-size="14.00">41</text>
<defs>
<radialGradient id="r_31" cx="50%" cy="50%" r="75%" fx="74%" fy="6%">
<stop offset="0" style="stop-color:orange;stop-opacity:1.;"/>
<stop offset="1" style="stop-color:green;stop-opacity:1.;"/>
</radialGradient>
</defs>
<polygon fill="url(#r_31)" stroke="transparent" stroke-width="3" points="122,-217.5 122,-258.5 164,-258.5 164,-217.5 122,-217.5"/>
<polygon fill="none" stroke="black" stroke-width="3" points="123.5,-219 123.5,-257 162.5,-257 162.5,-219 123.5,-219"/>
<text text-anchor="start" x="135" y="-234.3" font-family="Helvetica,Arial,sans-serif" font-size="14.00">42</text>
<defs>
<radialGradient id="r_32" cx="50%" cy="50%" r="75%" fx="74%" fy="6%">
<stop offset="0" style="stop-color:orange;stop-opacity:1.;"/>
<stop offset="1" style="stop-color:blue;stop-opacity:1.;"/>
</radialGradient>
</defs>
<polygon fill="url(#r_32)" stroke="transparent" stroke-width="3" points="174,-217.5 174,-258.5 216,-258.5 216,-217.5 174,-217.5"/>
<polygon fill="none" stroke="black" stroke-width="3" points="175.5,-219 175.5,-257 214.5,-257 214.5,-219 175.5,-219"/>
<text text-anchor="start" x="187" y="-234.3" font-family="Helvetica,Arial,sans-serif" font-size="14.00">43</text>
<defs>
<radialGradient id="r_33" cx="50%" cy="50%" r="75%" fx="74%" fy="6%">
<stop offset="0" style="stop-color:orange;stop-opacity:1.;"/>
<stop offset="1" style="stop-color:blue;stop-opacity:1.;"/>
</radialGradient>
</defs>
<polygon fill="url(#r_33)" stroke="transparent" stroke-width="3" points="226,-217.5 226,-258.5 268,-258.5 268,-217.5 226,-217.5"/>
<polygon fill="none" stroke="black" stroke-width="3" points="227.5,-219 227.5,-257 266.5,-257 266.5,-219 227.5,-219"/>
<text text-anchor="start" x="239" y="-234.3" font-family="Helvetica,Arial,sans-serif" font-size="14.00">44</text>
<defs>
<radialGradient id="r_34" cx="50%" cy="50%" r="75%" fx="74%" fy="6%">
<stop offset="0" style="stop-color:orange;stop-opacity:1.;"/>
<stop offset="1" style="stop-color:purple;stop-opacity:1.;"/>
</radialGradient>
</defs>
<polygon fill="url(#r_34)" stroke="transparent" stroke-width="3" points="278,-217.5 278,-258.5 320,-258.5 320,-217.5 278,-217.5"/>
<polygon fill="none" stroke="black" stroke-width="3" points="279.5,-219 279.5,-257 318.5,-257 318.5,-219 279.5,-219"/>
<text text-anchor="start" x="291" y="-234.3" font-family="Helvetica,Arial,sans-serif" font-size="14.00">45</text>
<defs>
<radialGradient id="r_35" cx="50%" cy="50%" r="75%" fx="74%" fy="6%">
<stop offset="0" style="stop-color:orange;stop-opacity:1.;"/>
<stop offset="1" style="stop-color:purple;stop-opacity:1.;"/>
</radialGradient>
</defs>
<polygon fill="url(#r_35)" stroke="transparent" stroke-width="3" points="330,-217.5 330,-258.5 372,-258.5 372,-217.5 330,-217.5"/>
<polygon fill="none" stroke="black" stroke-width="3" points="331.5,-219 331.5,-257 370.5,-257 370.5,-219 331.5,-219"/>
<text text-anchor="start" x="343" y="-234.3" font-family="Helvetica,Arial,sans-serif" font-size="14.00">46</text>
<defs>
<radialGradient id="r_36" cx="50%" cy="50%" r="75%" fx="74%" fy="6%">
<stop offset="0" style="stop-color:orange;stop-opacity:1.;"/>
<stop offset="1" style="stop-color:violet;stop-opacity:1.;"/>
</radialGradient>
</defs>
<polygon fill="url(#r_36)" stroke="transparent" stroke-width="3" points="382,-217.5 382,-258.5 424,-258.5 424,-217.5 382,-217.5"/>
<polygon fill="none" stroke="black" stroke-width="3" points="383.5,-219 383.5,-257 422.5,-257 422.5,-219 383.5,-219"/>
<text text-anchor="start" x="395" y="-234.3" font-family="Helvetica,Arial,sans-serif" font-size="14.00">47</text>
<defs>
<radialGradient id="r_37" cx="50%" cy="50%" r="75%" fx="74%" fy="6%">
<stop offset="0" style="stop-color:orange;stop-opacity:1.;"/>
<stop offset="1" style="stop-color:violet;stop-opacity:1.;"/>
</radialGradient>
</defs>
<polygon fill="url(#r_37)" stroke="transparent" stroke-width="3" points="434,-217.5 434,-258.5 476,-258.5 476,-217.5 434,-217.5"/>
<polygon fill="none" stroke="black" stroke-width="3" points="435.5,-219 435.5,-257 474.5,-257 474.5,-219 435.5,-219"/>
<text text-anchor="start" x="447" y="-234.3" font-family="Helvetica,Arial,sans-serif" font-size="14.00">48</text>
<defs>
<radialGradient id="r_38" cx="50%" cy="50%" r="75%" fx="74%" fy="6%">
<stop offset="0" style="stop-color:orange;stop-opacity:1.;"/>
<stop offset="1" style="stop-color:red;stop-opacity:1.;"/>
</radialGradient>
</defs>
<polygon fill="url(#r_38)" stroke="transparent" stroke-width="3" points="18,-166.5 18,-207.5 60,-207.5 60,-166.5 18,-166.5"/>
<polygon fill="none" stroke="black" stroke-width="3" points="19.5,-168 19.5,-206 58.5,-206 58.5,-168 19.5,-168"/>
<text text-anchor="start" x="31" y="-183.3" font-family="Helvetica,Arial,sans-serif" font-size="14.00">50</text>
<defs>
<radialGradient id="r_39" cx="50%" cy="50%" r="75%" fx="74%" fy="6%">
<stop offset="0" style="stop-color:red;stop-opacity:1.;"/>
<stop offset="1" style="stop-color:green;stop-opacity:1.;"/>
</radialGradient>
</defs>
<polygon fill="url(#r_39)" stroke="transparent" stroke-width="3" points="70,-166.5 70,-207.5 112,-207.5 112,-166.5 70,-166.5"/>
<polygon fill="none" stroke="black" stroke-width="3" points="71.5,-168 71.5,-206 110.5,-206 110.5,-168 71.5,-168"/>
<text text-anchor="start" x="83" y="-183.3" font-family="Helvetica,Arial,sans-serif" font-size="14.00">51</text>
<defs>
<radialGradient id="r_40" cx="50%" cy="50%" r="75%" fx="74%" fy="6%">
<stop offset="0" style="stop-color:red;stop-opacity:1.;"/>
<stop offset="1" style="stop-color:green;stop-opacity:1.;"/>
</radialGradient>
</defs>
<polygon fill="url(#r_40)" stroke="transparent" stroke-width="3" points="122,-166.5 122,-207.5 164,-207.5 164,-166.5 122,-166.5"/>
<polygon fill="none" stroke="black" stroke-width="3" points="123.5,-168 123.5,-206 162.5,-206 162.5,-168 123.5,-168"/>
<text text-anchor="start" x="135" y="-183.3" font-family="Helvetica,Arial,sans-serif" font-size="14.00">52</text>
<defs>
<radialGradient id="r_41" cx="50%" cy="50%" r="75%" fx="74%" fy="6%">
<stop offset="0" style="stop-color:red;stop-opacity:1.;"/>
<stop offset="1" style="stop-color:blue;stop-opacity:1.;"/>
</radialGradient>
</defs>
<polygon fill="url(#r_41)" stroke="transparent" stroke-width="3" points="174,-166.5 174,-207.5 216,-207.5 216,-166.5 174,-166.5"/>
<polygon fill="none" stroke="black" stroke-width="3" points="175.5,-168 175.5,-206 214.5,-206 214.5,-168 175.5,-168"/>
<text text-anchor="start" x="187" y="-183.3" font-family="Helvetica,Arial,sans-serif" font-size="14.00">53</text>
<defs>
<radialGradient id="r_42" cx="50%" cy="50%" r="75%" fx="74%" fy="6%">
<stop offset="0" style="stop-color:red;stop-opacity:1.;"/>
<stop offset="1" style="stop-color:blue;stop-opacity:1.;"/>
</radialGradient>
</defs>
<polygon fill="url(#r_42)" stroke="transparent" stroke-width="3" points="226,-166.5 226,-207.5 268,-207.5 268,-166.5 226,-166.5"/>
<polygon fill="none" stroke="black" stroke-width="3" points="227.5,-168 227.5,-206 266.5,-206 266.5,-168 227.5,-168"/>
<text text-anchor="start" x="239" y="-183.3" font-family="Helvetica,Arial,sans-serif" font-size="14.00">54</text>
<defs>
<radialGradient id="r_43" cx="50%" cy="50%" r="75%" fx="74%" fy="6%">
<stop offset="0" style="stop-color:red;stop-opacity:1.;"/>
<stop offset="1" style="stop-color:purple;stop-opacity:1.;"/>
</radialGradient>
</defs>
<polygon fill="url(#r_43)" stroke="transparent" stroke-width="3" points="278,-166.5 278,-207.5 320,-207.5 320,-166.5 278,-166.5"/>
<polygon fill="none" stroke="black" stroke-width="3" points="279.5,-168 279.5,-206 318.5,-206 318.5,-168 279.5,-168"/>
<text text-anchor="start" x="291" y="-183.3" font-family="Helvetica,Arial,sans-serif" font-size="14.00">55</text>
<defs>
<radialGradient id="r_44" cx="50%" cy="50%" r="75%" fx="74%" fy="6%">
<stop offset="0" style="stop-color:red;stop-opacity:1.;"/>
<stop offset="1" style="stop-color:purple;stop-opacity:1.;"/>
</radialGradient>
</defs>
<polygon fill="url(#r_44)" stroke="transparent" stroke-width="3" points="330,-166.5 330,-207.5 372,-207.5 372,-166.5 330,-166.5"/>
<polygon fill="none" stroke="black" stroke-width="3" points="331.5,-168 331.5,-206 370.5,-206 370.5,-168 331.5,-168"/>
<text text-anchor="start" x="343" y="-183.3" font-family="Helvetica,Arial,sans-serif" font-size="14.00">56</text>
<defs>
<radialGradient id="r_45" cx="50%" cy="50%" r="75%" fx="74%" fy="6%">
<stop offset="0" style="stop-color:red;stop-opacity:1.;"/>
<stop offset="1" style="stop-color:violet;stop-opacity:1.;"/>
</radialGradient>
</defs>
<polygon fill="url(#r_45)" stroke="transparent" stroke-width="3" points="382,-166.5 382,-207.5 424,-207.5 424,-166.5 382,-166.5"/>
<polygon fill="none" stroke="black" stroke-width="3" points="383.5,-168 383.5,-206 422.5,-206 422.5,-168 383.5,-168"/>
<text text-anchor="start" x="395" y="-183.3" font-family="Helvetica,Arial,sans-serif" font-size="14.00">57</text>
<defs>
<radialGradient id="r_46" cx="50%" cy="50%" r="75%" fx="74%" fy="6%">
<stop offset="0" style="stop-color:red;stop-opacity:1.;"/>
<stop offset="1" style="stop-color:violet;stop-opacity:1.;"/>
</radialGradient>
</defs>
<polygon fill="url(#r_46)" stroke="transparent" stroke-width="3" points="434,-166.5 434,-207.5 476,-207.5 476,-166.5 434,-166.5"/>
<polygon fill="none" stroke="black" stroke-width="3" points="435.5,-168 435.5,-206 474.5,-206 474.5,-168 435.5,-168"/>
<text text-anchor="start" x="447" y="-183.3" font-family="Helvetica,Arial,sans-serif" font-size="14.00">58</text>
<polygon fill="red" stroke="transparent" stroke-width="3" points="18,-115.5 18,-156.5 60,-156.5 60,-115.5 18,-115.5"/>
<polygon fill="none" stroke="black" stroke-width="3" points="19.5,-117 19.5,-155 58.5,-155 58.5,-117 19.5,-117"/>
<text text-anchor="start" x="31" y="-132.3" font-family="Helvetica,Arial,sans-serif" font-size="14.00">60</text>
<defs>
<radialGradient id="r_47" cx="50%" cy="50%" r="75%" fx="74%" fy="6%">
<stop offset="0" style="stop-color:red;stop-opacity:1.;"/>
<stop offset="1" style="stop-color:green;stop-opacity:1.;"/>
</radialGradient>
</defs>
<polygon fill="url(#r_47)" stroke="transparent" stroke-width="3" points="70,-115.5 70,-156.5 112,-156.5 112,-115.5 70,-115.5"/>
<polygon fill="none" stroke="black" stroke-width="3" points="71.5,-117 71.5,-155 110.5,-155 110.5,-117 71.5,-117"/>
<text text-anchor="start" x="83" y="-132.3" font-family="Helvetica,Arial,sans-serif" font-size="14.00">61</text>
<defs>
<radialGradient id="r_48" cx="50%" cy="50%" r="75%" fx="74%" fy="6%">
<stop offset="0" style="stop-color:red;stop-opacity:1.;"/>
<stop offset="1" style="stop-color:green;stop-opacity:1.;"/>
</radialGradient>
</defs>
<polygon fill="url(#r_48)" stroke="transparent" stroke-width="3" points="122,-115.5 122,-156.5 164,-156.5 164,-115.5 122,-115.5"/>
<polygon fill="none" stroke="black" stroke-width="3" points="123.5,-117 123.5,-155 162.5,-155 162.5,-117 123.5,-117"/>
<text text-anchor="start" x="135" y="-132.3" font-family="Helvetica,Arial,sans-serif" font-size="14.00">62</text>
<defs>
<radialGradient id="r_49" cx="50%" cy="50%" r="75%" fx="74%" fy="6%">
<stop offset="0" style="stop-color:red;stop-opacity:1.;"/>
<stop offset="1" style="stop-color:blue;stop-opacity:1.;"/>
</radialGradient>
</defs>
<polygon fill="url(#r_49)" stroke="transparent" stroke-width="3" points="174,-115.5 174,-156.5 216,-156.5 216,-115.5 174,-115.5"/>
<polygon fill="none" stroke="black" stroke-width="3" points="175.5,-117 175.5,-155 214.5,-155 214.5,-117 175.5,-117"/>
<text text-anchor="start" x="187" y="-132.3" font-family="Helvetica,Arial,sans-serif" font-size="14.00">63</text>
<defs>
<radialGradient id="r_50" cx="50%" cy="50%" r="75%" fx="74%" fy="6%">
<stop offset="0" style="stop-color:red;stop-opacity:1.;"/>
<stop offset="1" style="stop-color:blue;stop-opacity:1.;"/>
</radialGradient>
</defs>
<polygon fill="url(#r_50)" stroke="transparent" stroke-width="3" points="226,-115.5 226,-156.5 268,-156.5 268,-115.5 226,-115.5"/>
<polygon fill="none" stroke="black" stroke-width="3" points="227.5,-117 227.5,-155 266.5,-155 266.5,-117 227.5,-117"/>
<text text-anchor="start" x="239" y="-132.3" font-family="Helvetica,Arial,sans-serif" font-size="14.00">64</text>
<defs>
<radialGradient id="r_51" cx="50%" cy="50%" r="75%" fx="74%" fy="6%">
<stop offset="0" style="stop-color:red;stop-opacity:1.;"/>
<stop offset="1" style="stop-color:purple;stop-opacity:1.;"/>
</radialGradient>
</defs>
<polygon fill="url(#r_51)" stroke="transparent" stroke-width="3" points="278,-115.5 278,-156.5 320,-156.5 320,-115.5 278,-115.5"/>
<polygon fill="none" stroke="black" stroke-width="3" points="279.5,-117 279.5,-155 318.5,-155 318.5,-117 279.5,-117"/>
<text text-anchor="start" x="291" y="-132.3" font-family="Helvetica,Arial,sans-serif" font-size="14.00">65</text>
<defs>
<radialGradient id="r_52" cx="50%" cy="50%" r="75%" fx="74%" fy="6%">
<stop offset="0" style="stop-color:red;stop-opacity:1.;"/>
<stop offset="1" style="stop-color:purple;stop-opacity:1.;"/>
</radialGradient>
</defs>
<polygon fill="url(#r_52)" stroke="transparent" stroke-width="3" points="330,-115.5 330,-156.5 372,-156.5 372,-115.5 330,-115.5"/>
<polygon fill="none" stroke="black" stroke-width="3" points="331.5,-117 331.5,-155 370.5,-155 370.5,-117 331.5,-117"/>
<text text-anchor="start" x="343" y="-132.3" font-family="Helvetica,Arial,sans-serif" font-size="14.00">66</text>
<defs>
<radialGradient id="r_53" cx="50%" cy="50%" r="75%" fx="74%" fy="6%">
<stop offset="0" style="stop-color:red;stop-opacity:1.;"/>
<stop offset="1" style="stop-color:violet;stop-opacity:1.;"/>
</radialGradient>
</defs>
<polygon fill="url(#r_53)" stroke="transparent" stroke-width="3" points="382,-115.5 382,-156.5 424,-156.5 424,-115.5 382,-115.5"/>
<polygon fill="none" stroke="black" stroke-width="3" points="383.5,-117 383.5,-155 422.5,-155 422.5,-117 383.5,-117"/>
<text text-anchor="start" x="395" y="-132.3" font-family="Helvetica,Arial,sans-serif" font-size="14.00">67</text>
<defs>
<radialGradient id="r_54" cx="50%" cy="50%" r="75%" fx="74%" fy="6%">
<stop offset="0" style="stop-color:red;stop-opacity:1.;"/>
<stop offset="1" style="stop-color:violet;stop-opacity:1.;"/>
</radialGradient>
</defs>
<polygon fill="url(#r_54)" stroke="transparent" stroke-width="3" points="434,-115.5 434,-156.5 476,-156.5 476,-115.5 434,-115.5"/>
<polygon fill="none" stroke="black" stroke-width="3" points="435.5,-117 435.5,-155 474.5,-155 474.5,-117 435.5,-117"/>
<text text-anchor="start" x="447" y="-132.3" font-family="Helvetica,Arial,sans-serif" font-size="14.00">68</text>
<defs>
<radialGradient id="r_55" cx="50%" cy="50%" r="75%" fx="74%" fy="6%">
<stop offset="0" style="stop-color:red;stop-opacity:1.;"/>
<stop offset="1" style="stop-color:brown;stop-opacity:1.;"/>
</radialGradient>
</defs>
<polygon fill="url(#r_55)" stroke="transparent" stroke-width="3" points="18,-64.5 18,-105.5 60,-105.5 60,-64.5 18,-64.5"/>
<polygon fill="none" stroke="black" stroke-width="3" points="19.5,-66 19.5,-104 58.5,-104 58.5,-66 19.5,-66"/>
<text text-anchor="start" x="31" y="-81.3" font-family="Helvetica,Arial,sans-serif" font-size="14.00">70</text>
<defs>
<radialGradient id="r_56" cx="50%" cy="50%" r="75%" fx="74%" fy="6%">
<stop offset="0" style="stop-color:brown;stop-opacity:1.;"/>
<stop offset="1" style="stop-color:green;stop-opacity:1.;"/>
</radialGradient>
</defs>
<polygon fill="url(#r_56)" stroke="transparent" stroke-width="3" points="70,-64.5 70,-105.5 112,-105.5 112,-64.5 70,-64.5"/>
<polygon fill="none" stroke="black" stroke-width="3" points="71.5,-66 71.5,-104 110.5,-104 110.5,-66 71.5,-66"/>
<text text-anchor="start" x="83" y="-81.3" font-family="Helvetica,Arial,sans-serif" font-size="14.00">71</text>
<defs>
<radialGradient id="r_57" cx="50%" cy="50%" r="75%" fx="74%" fy="6%">
<stop offset="0" style="stop-color:brown;stop-opacity:1.;"/>
<stop offset="1" style="stop-color:green;stop-opacity:1.;"/>
</radialGradient>
</defs>
<polygon fill="url(#r_57)" stroke="transparent" stroke-width="3" points="122,-64.5 122,-105.5 164,-105.5 164,-64.5 122,-64.5"/>
<polygon fill="none" stroke="black" stroke-width="3" points="123.5,-66 123.5,-104 162.5,-104 162.5,-66 123.5,-66"/>
<text text-anchor="start" x="135" y="-81.3" font-family="Helvetica,Arial,sans-serif" font-size="14.00">72</text>
<defs>
<radialGradient id="r_58" cx="50%" cy="50%" r="75%" fx="74%" fy="6%">
<stop offset="0" style="stop-color:brown;stop-opacity:1.;"/>
<stop offset="1" style="stop-color:blue;stop-opacity:1.;"/>
</radialGradient>
</defs>
<polygon fill="url(#r_58)" stroke="transparent" stroke-width="3" points="174,-64.5 174,-105.5 216,-105.5 216,-64.5 174,-64.5"/>
<polygon fill="none" stroke="black" stroke-width="3" points="175.5,-66 175.5,-104 214.5,-104 214.5,-66 175.5,-66"/>
<text text-anchor="start" x="187" y="-81.3" font-family="Helvetica,Arial,sans-serif" font-size="14.00">73</text>
<defs>
<radialGradient id="r_59" cx="50%" cy="50%" r="75%" fx="74%" fy="6%">
<stop offset="0" style="stop-color:brown;stop-opacity:1.;"/>
<stop offset="1" style="stop-color:blue;stop-opacity:1.;"/>
</radialGradient>
</defs>
<polygon fill="url(#r_59)" stroke="transparent" stroke-width="3" points="226,-64.5 226,-105.5 268,-105.5 268,-64.5 226,-64.5"/>
<polygon fill="none" stroke="black" stroke-width="3" points="227.5,-66 227.5,-104 266.5,-104 266.5,-66 227.5,-66"/>
<text text-anchor="start" x="239" y="-81.3" font-family="Helvetica,Arial,sans-serif" font-size="14.00">74</text>
<defs>
<radialGradient id="r_60" cx="50%" cy="50%" r="75%" fx="74%" fy="6%">
<stop offset="0" style="stop-color:brown;stop-opacity:1.;"/>
<stop offset="1" style="stop-color:purple;stop-opacity:1.;"/>
</radialGradient>
</defs>
<polygon fill="url(#r_60)" stroke="transparent" stroke-width="3" points="278,-64.5 278,-105.5 320,-105.5 320,-64.5 278,-64.5"/>
<polygon fill="none" stroke="black" stroke-width="3" points="279.5,-66 279.5,-104 318.5,-104 318.5,-66 279.5,-66"/>
<text text-anchor="start" x="291" y="-81.3" font-family="Helvetica,Arial,sans-serif" font-size="14.00">75</text>
<defs>
<radialGradient id="r_61" cx="50%" cy="50%" r="75%" fx="74%" fy="6%">
<stop offset="0" style="stop-color:brown;stop-opacity:1.;"/>
<stop offset="1" style="stop-color:purple;stop-opacity:1.;"/>
</radialGradient>
</defs>
<polygon fill="url(#r_61)" stroke="transparent" stroke-width="3" points="330,-64.5 330,-105.5 372,-105.5 372,-64.5 330,-64.5"/>
<polygon fill="none" stroke="black" stroke-width="3" points="331.5,-66 331.5,-104 370.5,-104 370.5,-66 331.5,-66"/>
<text text-anchor="start" x="343" y="-81.3" font-family="Helvetica,Arial,sans-serif" font-size="14.00">76</text>
<defs>
<radialGradient id="r_62" cx="50%" cy="50%" r="75%" fx="74%" fy="6%">
<stop offset="0" style="stop-color:brown;stop-opacity:1.;"/>
<stop offset="1" style="stop-color:violet;stop-opacity:1.;"/>
</radialGradient>
</defs>
<polygon fill="url(#r_62)" stroke="transparent" stroke-width="3" points="382,-64.5 382,-105.5 424,-105.5 424,-64.5 382,-64.5"/>
<polygon fill="none" stroke="black" stroke-width="3" points="383.5,-66 383.5,-104 422.5,-104 422.5,-66 383.5,-66"/>
<text text-anchor="start" x="395" y="-81.3" font-family="Helvetica,Arial,sans-serif" font-size="14.00">77</text>
<defs>
<radialGradient id="r_63" cx="50%" cy="50%" r="75%" fx="74%" fy="6%">
<stop offset="0" style="stop-color:brown;stop-opacity:1.;"/>
<stop offset="1" style="stop-color:violet;stop-opacity:1.;"/>
</radialGradient>
</defs>
<polygon fill="url(#r_63)" stroke="transparent" stroke-width="3" points="434,-64.5 434,-105.5 476,-105.5 476,-64.5 434,-64.5"/>
<polygon fill="none" stroke="black" stroke-width="3" points="435.5,-66 435.5,-104 474.5,-104 474.5,-66 435.5,-66"/>
<text text-anchor="start" x="447" y="-81.3" font-family="Helvetica,Arial,sans-serif" font-size="14.00">78</text>
<polygon fill="brown" stroke="transparent" stroke-width="3" points="18,-13.5 18,-54.5 60,-54.5 60,-13.5 18,-13.5"/>
<polygon fill="none" stroke="black" stroke-width="3" points="19.5,-15 19.5,-53 58.5,-53 58.5,-15 19.5,-15"/>
<text text-anchor="start" x="31" y="-30.3" font-family="Helvetica,Arial,sans-serif" font-size="14.00">80</text>
<defs>
<radialGradient id="r_64" cx="50%" cy="50%" r="75%" fx="74%" fy="6%">
<stop offset="0" style="stop-color:brown;stop-opacity:1.;"/>
<stop offset="1" style="stop-color:green;stop-opacity:1.;"/>
</radialGradient>
</defs>
<polygon fill="url(#r_64)" stroke="transparent" stroke-width="3" points="70,-13.5 70,-54.5 112,-54.5 112,-13.5 70,-13.5"/>
<polygon fill="none" stroke="black" stroke-width="3" points="71.5,-15 71.5,-53 110.5,-53 110.5,-15 71.5,-15"/>
<text text-anchor="start" x="83" y="-30.3" font-family="Helvetica,Arial,sans-serif" font-size="14.00">81</text>
<defs>
<radialGradient id="r_65" cx="50%" cy="50%" r="75%" fx="74%" fy="6%">
<stop offset="0" style="stop-color:brown;stop-opacity:1.;"/>
<stop offset="1" style="stop-color:green;stop-opacity:1.;"/>
</radialGradient>
</defs>
<polygon fill="url(#r_65)" stroke="transparent" stroke-width="3" points="122,-13.5 122,-54.5 164,-54.5 164,-13.5 122,-13.5"/>
<polygon fill="none" stroke="black" stroke-width="3" points="123.5,-15 123.5,-53 162.5,-53 162.5,-15 123.5,-15"/>
<text text-anchor="start" x="135" y="-30.3" font-family="Helvetica,Arial,sans-serif" font-size="14.00">82</text>
<defs>
<radialGradient id="r_66" cx="50%" cy="50%" r="75%" fx="74%" fy="6%">
<stop offset="0" style="stop-color:brown;stop-opacity:1.;"/>
<stop offset="1" style="stop-color:blue;stop-opacity:1.;"/>
</radialGradient>
</defs>
<polygon fill="url(#r_66)" stroke="transparent" stroke-width="3" points="174,-13.5 174,-54.5 216,-54.5 216,-13.5 174,-13.5"/>
<polygon fill="none" stroke="black" stroke-width="3" points="175.5,-15 175.5,-53 214.5,-53 214.5,-15 175.5,-15"/>
<text text-anchor="start" x="187" y="-30.3" font-family="Helvetica,Arial,sans-serif" font-size="14.00">83</text>
<defs>
<radialGradient id="r_67" cx="50%" cy="50%" r="75%" fx="74%" fy="6%">
<stop offset="0" style="stop-color:brown;stop-opacity:1.;"/>
<stop offset="1" style="stop-color:blue;stop-opacity:1.;"/>
</radialGradient>
</defs>
<polygon fill="url(#r_67)" stroke="transparent" stroke-width="3" points="226,-13.5 226,-54.5 268,-54.5 268,-13.5 226,-13.5"/>
<polygon fill="none" stroke="black" stroke-width="3" points="227.5,-15 227.5,-53 266.5,-53 266.5,-15 227.5,-15"/>
<text text-anchor="start" x="239" y="-30.3" font-family="Helvetica,Arial,sans-serif" font-size="14.00">84</text>
<defs>
<radialGradient id="r_68" cx="50%" cy="50%" r="75%" fx="74%" fy="6%">
<stop offset="0" style="stop-color:brown;stop-opacity:1.;"/>
<stop offset="1" style="stop-color:purple;stop-opacity:1.;"/>
</radialGradient>
</defs>
<polygon fill="url(#r_68)" stroke="transparent" stroke-width="3" points="278,-13.5 278,-54.5 320,-54.5 320,-13.5 278,-13.5"/>
<polygon fill="none" stroke="black" stroke-width="3" points="279.5,-15 279.5,-53 318.5,-53 318.5,-15 279.5,-15"/>
<text text-anchor="start" x="291" y="-30.3" font-family="Helvetica,Arial,sans-serif" font-size="14.00">85</text>
<defs>
<radialGradient id="r_69" cx="50%" cy="50%" r="75%" fx="74%" fy="6%">
<stop offset="0" style="stop-color:brown;stop-opacity:1.;"/>
<stop offset="1" style="stop-color:purple;stop-opacity:1.;"/>
</radialGradient>
</defs>
<polygon fill="url(#r_69)" stroke="transparent" stroke-width="3" points="330,-13.5 330,-54.5 372,-54.5 372,-13.5 330,-13.5"/>
<polygon fill="none" stroke="black" stroke-width="3" points="331.5,-15 331.5,-53 370.5,-53 370.5,-15 331.5,-15"/>
<text text-anchor="start" x="343" y="-30.3" font-family="Helvetica,Arial,sans-serif" font-size="14.00">86</text>
<defs>
<radialGradient id="r_70" cx="50%" cy="50%" r="75%" fx="74%" fy="6%">
<stop offset="0" style="stop-color:brown;stop-opacity:1.;"/>
<stop offset="1" style="stop-color:violet;stop-opacity:1.;"/>
</radialGradient>
</defs>
<polygon fill="url(#r_70)" stroke="transparent" stroke-width="3" points="382,-13.5 382,-54.5 424,-54.5 424,-13.5 382,-13.5"/>
<polygon fill="none" stroke="black" stroke-width="3" points="383.5,-15 383.5,-53 422.5,-53 422.5,-15 383.5,-15"/>
<text text-anchor="start" x="395" y="-30.3" font-family="Helvetica,Arial,sans-serif" font-size="14.00">87</text>
<defs>
<radialGradient id="r_71" cx="50%" cy="50%" r="75%" fx="74%" fy="6%">
<stop offset="0" style="stop-color:brown;stop-opacity:1.;"/>
<stop offset="1" style="stop-color:violet;stop-opacity:1.;"/>
</radialGradient>
</defs>
<polygon fill="url(#r_71)" stroke="transparent" stroke-width="3" points="434,-13.5 434,-54.5 476,-54.5 476,-13.5 434,-13.5"/>
<polygon fill="none" stroke="black" stroke-width="3" points="435.5,-15 435.5,-53 474.5,-53 474.5,-15 435.5,-15"/>
<text text-anchor="start" x="447" y="-30.3" font-family="Helvetica,Arial,sans-serif" font-size="14.00">88</text>
</g>
</g>
</svg>
