<?xml version="1.0" encoding="UTF-8" standalone="no"?>
<!DOCTYPE svg PUBLIC "-//W3C//DTD SVG 1.1//EN"
 "http://www.w3.org/Graphics/SVG/1.1/DTD/svg11.dtd">
<!-- Generated by graphviz version 2.43.0 (0)
 -->
<!-- Title: G Pages: 1 -->
<svg width="448pt" height="431pt"
 viewBox="0.00 0.00 448.00 431.00" xmlns="http://www.w3.org/2000/svg" xmlns:xlink="http://www.w3.org/1999/xlink">
<g id="graph0" class="graph" transform="scale(1 1) rotate(0) translate(4 427)">
<title>G</title>
<polygon fill="white" stroke="transparent" points="-4,4 -4,-427 444,-427 444,4 -4,4"/>
<!-- a0 -->
<g id="node1" class="node">
<title>a0</title>
<polygon fill="yellow" stroke="transparent" points="18,-373.5 18,-408.5 54,-408.5 54,-373.5 18,-373.5"/>
<text text-anchor="start" x="28" y="-387.3" font-family="Helvetica,Arial,sans-serif" font-size="14.00">00</text>
<defs>
<radialGradient id="r_0" cx="50%" cy="50%" r="75%" fx="74%" fy="6%">
<stop offset="0" style="stop-color:yellow;stop-opacity:1.;"/>
<stop offset="1" style="stop-color:green;stop-opacity:1.;"/>
</radialGradient>
</defs>
<polygon fill="url(#r_0)" stroke="transparent" points="64,-373.5 64,-408.5 100,-408.5 100,-373.5 64,-373.5"/>
<text text-anchor="start" x="74" y="-387.3" font-family="Helvetica,Arial,sans-serif" font-size="14.00">01</text>
<polygon fill="green" stroke="transparent" points="110,-373.5 110,-408.5 146,-408.5 146,-373.5 110,-373.5"/>
<text text-anchor="start" x="120" y="-387.3" font-family="Helvetica,Arial,sans-serif" font-size="14.00">02</text>
<defs>
<radialGradient id="r_1" cx="50%" cy="50%" r="75%" fx="74%" fy="6%">
<stop offset="0" style="stop-color:green;stop-opacity:1.;"/>
<stop offset="1" style="stop-color:blue;stop-opacity:1.;"/>
</radialGradient>
</defs>
<polygon fill="url(#r_1)" stroke="transparent" points="156,-373.5 156,-408.5 192,-408.5 192,-373.5 156,-373.5"/>
<text text-anchor="start" x="166" y="-387.3" font-family="Helvetica,Arial,sans-serif" font-size="14.00">03</text>
<polygon fill="blue" stroke="transparent" points="202,-373.5 202,-408.5 238,-408.5 238,-373.5 202,-373.5"/>
<text text-anchor="start" x="212" y="-387.3" font-family="Helvetica,Arial,sans-serif" font-size="14.00">04</text>
<defs>
<radialGradient id="r_2" cx="50%" cy="50%" r="75%" fx="74%" fy="6%">
<stop offset="0" style="stop-color:blue;stop-opacity:1.;"/>
<stop offset="1" style="stop-color:purple;stop-opacity:1.;"/>
</radialGradient>
</defs>
<polygon fill="url(#r_2)" stroke="transparent" points="248,-373.5 248,-408.5 284,-408.5 284,-373.5 248,-373.5"/>
<text text-anchor="start" x="258" y="-387.3" font-family="Helvetica,Arial,sans-serif" font-size="14.00">05</text>
<polygon fill="purple" stroke="transparent" points="294,-373.5 294,-408.5 330,-408.5 330,-373.5 294,-373.5"/>
<text text-anchor="start" x="304" y="-387.3" font-family="Helvetica,Arial,sans-serif" font-size="14.00">06</text>
<defs>
<radialGradient id="r_3" cx="50%" cy="50%" r="75%" fx="74%" fy="6%">
<stop offset="0" style="stop-color:purple;stop-opacity:1.;"/>
<stop offset="1" style="stop-color:violet;stop-opacity:1.;"/>
</radialGradient>
</defs>
<polygon fill="url(#r_3)" stroke="transparent" points="340,-373.5 340,-408.5 376,-408.5 376,-373.5 340,-373.5"/>
<text text-anchor="start" x="350" y="-387.3" font-family="Helvetica,Arial,sans-serif" font-size="14.00">07</text>
<polygon fill="violet" stroke="transparent" points="386,-373.5 386,-408.5 422,-408.5 422,-373.5 386,-373.5"/>
<text text-anchor="start" x="396" y="-387.3" font-family="Helvetica,Arial,sans-serif" font-size="14.00">08</text>
<defs>
<radialGradient id="r_4" cx="50%" cy="50%" r="75%" fx="74%" fy="6%">
<stop offset="0" style="stop-color:yellow;stop-opacity:1.;"/>
<stop offset="1" style="stop-color:gold;stop-opacity:1.;"/>
</radialGradient>
</defs>
<polygon fill="url(#r_4)" stroke="transparent" points="18,-328.5 18,-363.5 54,-363.5 54,-328.5 18,-328.5"/>
<text text-anchor="start" x="28" y="-342.3" font-family="Helvetica,Arial,sans-serif" font-size="14.00">10</text>
<defs>
<radialGradient id="r_5" cx="50%" cy="50%" r="75%" fx="74%" fy="6%">
<stop offset="0" style="stop-color:yellow;stop-opacity:1.;"/>
<stop offset="1" style="stop-color:green;stop-opacity:1.;"/>
</radialGradient>
</defs>
<polygon fill="url(#r_5)" stroke="transparent" points="64,-328.5 64,-363.5 100,-363.5 100,-328.5 64,-328.5"/>
<text text-anchor="start" x="74" y="-342.3" font-family="Helvetica,Arial,sans-serif" font-size="14.00">11</text>
<defs>
<radialGradient id="r_6" cx="50%" cy="50%" r="75%" fx="74%" fy="6%">
<stop offset="0" style="stop-color:yellow;stop-opacity:1.;"/>
<stop offset="1" style="stop-color:green;stop-opacity:1.;"/>
</radialGradient>
</defs>
<polygon fill="url(#r_6)" stroke="transparent" points="110,-328.5 110,-363.5 146,-363.5 146,-328.5 110,-328.5"/>
<text text-anchor="start" x="120" y="-342.3" font-family="Helvetica,Arial,sans-serif" font-size="14.00">12</text>
<defs>
<radialGradient id="r_7" cx="50%" cy="50%" r="75%" fx="74%" fy="6%">
<stop offset="0" style="stop-color:yellow;stop-opacity:1.;"/>
<stop offset="1" style="stop-color:blue;stop-opacity:1.;"/>
</radialGradient>
</defs>
<polygon fill="url(#r_7)" stroke="transparent" points="156,-328.5 156,-363.5 192,-363.5 192,-328.5 156,-328.5"/>
<text text-anchor="start" x="166" y="-342.3" font-family="Helvetica,Arial,sans-serif" font-size="14.00">13</text>
<defs>
<radialGradient id="r_8" cx="50%" cy="50%" r="75%" fx="74%" fy="6%">
<stop offset="0" style="stop-color:yellow;stop-opacity:1.;"/>
<stop offset="1" style="stop-color:blue;stop-opacity:1.;"/>
</radialGradient>
</defs>
<polygon fill="url(#r_8)" stroke="transparent" points="202,-328.5 202,-363.5 238,-363.5 238,-328.5 202,-328.5"/>
<text text-anchor="start" x="212" y="-342.3" font-family="Helvetica,Arial,sans-serif" font-size="14.00">14</text>
<defs>
<radialGradient id="r_9" cx="50%" cy="50%" r="75%" fx="74%" fy="6%">
<stop offset="0" style="stop-color:yellow;stop-opacity:1.;"/>
<stop offset="1" style="stop-color:purple;stop-opacity:1.;"/>
</radialGradient>
</defs>
<polygon fill="url(#r_9)" stroke="transparent" points="248,-328.5 248,-363.5 284,-363.5 284,-328.5 248,-328.5"/>
<text text-anchor="start" x="258" y="-342.3" font-family="Helvetica,Arial,sans-serif" font-size="14.00">15</text>
<defs>
<radialGradient id="r_10" cx="50%" cy="50%" r="75%" fx="74%" fy="6%">
<stop offset="0" style="stop-color:yellow;stop-opacity:1.;"/>
<stop offset="1" style="stop-color:purple;stop-opacity:1.;"/>
</radialGradient>
</defs>
<polygon fill="url(#r_10)" stroke="transparent" points="294,-328.5 294,-363.5 330,-363.5 330,-328.5 294,-328.5"/>
<text text-anchor="start" x="304" y="-342.3" font-family="Helvetica,Arial,sans-serif" font-size="14.00">16</text>
<defs>
<radialGradient id="r_11" cx="50%" cy="50%" r="75%" fx="74%" fy="6%">
<stop offset="0" style="stop-color:yellow;stop-opacity:1.;"/>
<stop offset="1" style="stop-color:violet;stop-opacity:1.;"/>
</radialGradient>
</defs>
<polygon fill="url(#r_11)" stroke="transparent" points="340,-328.5 340,-363.5 376,-363.5 376,-328.5 340,-328.5"/>
<text text-anchor="start" x="350" y="-342.3" font-family="Helvetica,Arial,sans-serif" font-size="14.00">17</text>
<defs>
<radialGradient id="r_12" cx="50%" cy="50%" r="75%" fx="74%" fy="6%">
<stop offset="0" style="stop-color:yellow;stop-opacity:1.;"/>
<stop offset="1" style="stop-color:violet;stop-opacity:1.;"/>
</radialGradient>
</defs>
<polygon fill="url(#r_12)" stroke="transparent" points="386,-328.5 386,-363.5 422,-363.5 422,-328.5 386,-328.5"/>
<text text-anchor="start" x="396" y="-342.3" font-family="Helvetica,Arial,sans-serif" font-size="14.00">18</text>
<polygon fill="gold" stroke="transparent" points="18,-283.5 18,-318.5 54,-318.5 54,-283.5 18,-283.5"/>
<text text-anchor="start" x="28" y="-297.3" font-family="Helvetica,Arial,sans-serif" font-size="14.00">20</text>
<defs>
<radialGradient id="r_13" cx="50%" cy="50%" r="75%" fx="74%" fy="6%">
<stop offset="0" style="stop-color:gold;stop-opacity:1.;"/>
<stop offset="1" style="stop-color:green;stop-opacity:1.;"/>
</radialGradient>
</defs>
<polygon fill="url(#r_13)" stroke="transparent" points="64,-283.5 64,-318.5 100,-318.5 100,-283.5 64,-283.5"/>
<text text-anchor="start" x="74" y="-297.3" font-family="Helvetica,Arial,sans-serif" font-size="14.00">21</text>
<defs>
<radialGradient id="r_14" cx="50%" cy="50%" r="75%" fx="74%" fy="6%">
<stop offset="0" style="stop-color:gold;stop-opacity:1.;"/>
<stop offset="1" style="stop-color:green;stop-opacity:1.;"/>
</radialGradient>
</defs>
<polygon fill="url(#r_14)" stroke="transparent" points="110,-283.5 110,-318.5 146,-318.5 146,-283.5 110,-283.5"/>
<text text-anchor="start" x="120" y="-297.3" font-family="Helvetica,Arial,sans-serif" font-size="14.00">22</text>
<defs>
<radialGradient id="r_15" cx="50%" cy="50%" r="75%" fx="74%" fy="6%">
<stop offset="0" style="stop-color:gold;stop-opacity:1.;"/>
<stop offset="1" style="stop-color:blue;stop-opacity:1.;"/>
</radialGradient>
</defs>
<polygon fill="url(#r_15)" stroke="transparent" points="156,-283.5 156,-318.5 192,-318.5 192,-283.5 156,-283.5"/>
<text text-anchor="start" x="166" y="-297.3" font-family="Helvetica,Arial,sans-serif" font-size="14.00">23</text>
<defs>
<radialGradient id="r_16" cx="50%" cy="50%" r="75%" fx="74%" fy="6%">
<stop offset="0" style="stop-color:gold;stop-opacity:1.;"/>
<stop offset="1" style="stop-color:blue;stop-opacity:1.;"/>
</radialGradient>
</defs>
<polygon fill="url(#r_16)" stroke="transparent" points="202,-283.5 202,-318.5 238,-318.5 238,-283.5 202,-283.5"/>
<text text-anchor="start" x="212" y="-297.3" font-family="Helvetica,Arial,sans-serif" font-size="14.00">24</text>
<defs>
<radialGradient id="r_17" cx="50%" cy="50%" r="75%" fx="74%" fy="6%">
<stop offset="0" style="stop-color:gold;stop-opacity:1.;"/>
<stop offset="1" style="stop-color:purple;stop-opacity:1.;"/>
</radialGradient>
</defs>
<polygon fill="url(#r_17)" stroke="transparent" points="248,-283.5 248,-318.5 284,-318.5 284,-283.5 248,-283.5"/>
<text text-anchor="start" x="258" y="-297.3" font-family="Helvetica,Arial,sans-serif" font-size="14.00">25</text>
<defs>
<radialGradient id="r_18" cx="50%" cy="50%" r="75%" fx="74%" fy="6%">
<stop offset="0" style="stop-color:gold;stop-opacity:1.;"/>
<stop offset="1" style="stop-color:purple;stop-opacity:1.;"/>
</radialGradient>
</defs>
<polygon fill="url(#r_18)" stroke="transparent" points="294,-283.5 294,-318.5 330,-318.5 330,-283.5 294,-283.5"/>
<text text-anchor="start" x="304" y="-297.3" font-family="Helvetica,Arial,sans-serif" font-size="14.00">26</text>
<defs>
<radialGradient id="r_19" cx="50%" cy="50%" r="75%" fx="74%" fy="6%">
<stop offset="0" style="stop-color:gold;stop-opacity:1.;"/>
<stop offset="1" style="stop-color:violet;stop-opacity:1.;"/>
</radialGradient>
</defs>
<polygon fill="url(#r_19)" stroke="transparent" points="340,-283.5 340,-318.5 376,-318.5 376,-283.5 340,-283.5"/>
<text text-anchor="start" x="350" y="-297.3" font-family="Helvetica,Arial,sans-serif" font-size="14.00">27</text>
<defs>
<radialGradient id="r_20" cx="50%" cy="50%" r="75%" fx="74%" fy="6%">
<stop offset="0" style="stop-color:gold;stop-opacity:1.;"/>
<stop offset="1" style="stop-color:violet;stop-opacity:1.;"/>
</radialGradient>
</defs>
<polygon fill="url(#r_20)" stroke="transparent" points="386,-283.5 386,-318.5 422,-318.5 422,-283.5 386,-283.5"/>
<text text-anchor="start" x="396" y="-297.3" font-family="Helvetica,Arial,sans-serif" font-size="14.00">28</text>
<defs>
<radialGradient id="r_21" cx="50%" cy="50%" r="75%" fx="74%" fy="6%">
<stop offset="0" style="stop-color:gold;stop-opacity:1.;"/>
<stop offset="1" style="stop-color:orange;stop-opacity:1.;"/>
</radialGradient>
</defs>
<polygon fill="url(#r_21)" stroke="transparent" points="18,-238.5 18,-273.5 54,-273.5 54,-238.5 18,-238.5"/>
<text text-anchor="start" x="28" y="-252.3" font-family="Helvetica,Arial,sans-serif" font-size="14.00">30</text>
<defs>
<radialGradient id="r_22" cx="50%" cy="50%" r="75%" fx="74%" fy="6%">
<stop offset="0" style="stop-color:orange;stop-opacity:1.;"/>
<stop offset="1" style="stop-color:green;stop-opacity:1.;"/>
</radialGradient>
</defs>
<polygon fill="url(#r_22)" stroke="transparent" points="64,-238.5 64,-273.5 100,-273.5 100,-238.5 64,-238.5"/>
<text text-anchor="start" x="74" y="-252.3" font-family="Helvetica,Arial,sans-serif" font-size="14.00">31</text>
<defs>
<radialGradient id="r_23" cx="50%" cy="50%" r="75%" fx="74%" fy="6%">
<stop offset="0" style="stop-color:orange;stop-opacity:1.;"/>
<stop offset="1" style="stop-color:green;stop-opacity:1.;"/>
</radialGradient>
</defs>
<polygon fill="url(#r_23)" stroke="transparent" points="110,-238.5 110,-273.5 146,-273.5 146,-238.5 110,-238.5"/>
<text text-anchor="start" x="120" y="-252.3" font-family="Helvetica,Arial,sans-serif" font-size="14.00">32</text>
<defs>
<radialGradient id="r_24" cx="50%" cy="50%" r="75%" fx="74%" fy="6%">
<stop offset="0" style="stop-color:orange;stop-opacity:1.;"/>
<stop offset="1" style="stop-color:blue;stop-opacity:1.;"/>
</radialGradient>
</defs>
<polygon fill="url(#r_24)" stroke="transparent" points="156,-238.5 156,-273.5 192,-273.5 192,-238.5 156,-238.5"/>
<text text-anchor="start" x="166" y="-252.3" font-family="Helvetica,Arial,sans-serif" font-size="14.00">33</text>
<defs>
<radialGradient id="r_25" cx="50%" cy="50%" r="75%" fx="74%" fy="6%">
<stop offset="0" style="stop-color:orange;stop-opacity:1.;"/>
<stop offset="1" style="stop-color:blue;stop-opacity:1.;"/>
</radialGradient>
</defs>
<polygon fill="url(#r_25)" stroke="transparent" points="202,-238.5 202,-273.5 238,-273.5 238,-238.5 202,-238.5"/>
<text text-anchor="start" x="212" y="-252.3" font-family="Helvetica,Arial,sans-serif" font-size="14.00">34</text>
<defs>
<radialGradient id="r_26" cx="50%" cy="50%" r="75%" fx="74%" fy="6%">
<stop offset="0" style="stop-color:orange;stop-opacity:1.;"/>
<stop offset="1" style="stop-color:purple;stop-opacity:1.;"/>
</radialGradient>
</defs>
<polygon fill="url(#r_26)" stroke="transparent" points="248,-238.5 248,-273.5 284,-273.5 284,-238.5 248,-238.5"/>
<text text-anchor="start" x="258" y="-252.3" font-family="Helvetica,Arial,sans-serif" font-size="14.00">35</text>
<defs>
<radialGradient id="r_27" cx="50%" cy="50%" r="75%" fx="74%" fy="6%">
<stop offset="0" style="stop-color:orange;stop-opacity:1.;"/>
<stop offset="1" style="stop-color:purple;stop-opacity:1.;"/>
</radialGradient>
</defs>
<polygon fill="url(#r_27)" stroke="transparent" points="294,-238.5 294,-273.5 330,-273.5 330,-238.5 294,-238.5"/>
<text text-anchor="start" x="304" y="-252.3" font-family="Helvetica,Arial,sans-serif" font-size="14.00">36</text>
<defs>
<radialGradient id="r_28" cx="50%" cy="50%" r="75%" fx="74%" fy="6%">
<stop offset="0" style="stop-color:orange;stop-opacity:1.;"/>
<stop offset="1" style="stop-color:violet;stop-opacity:1.;"/>
</radialGradient>
</defs>
<polygon fill="url(#r_28)" stroke="transparent" points="340,-238.5 340,-273.5 376,-273.5 376,-238.5 340,-238.5"/>
<text text-anchor="start" x="350" y="-252.3" font-family="Helvetica,Arial,sans-serif" font-size="14.00">37</text>
<defs>
<radialGradient id="r_29" cx="50%" cy="50%" r="75%" fx="74%" fy="6%">
<stop offset="0" style="stop-color:orange;stop-opacity:1.;"/>
<stop offset="1" style="stop-color:violet;stop-opacity:1.;"/>
</radialGradient>
</defs>
<polygon fill="url(#r_29)" stroke="transparent" points="386,-238.5 386,-273.5 422,-273.5 422,-238.5 386,-238.5"/>
<text text-anchor="start" x="396" y="-252.3" font-family="Helvetica,Arial,sans-serif" font-size="14.00">38</text>
<polygon fill="orange" stroke="transparent" points="18,-193.5 18,-228.5 54,-228.5 54,-193.5 18,-193.5"/>
<text text-anchor="start" x="28" y="-207.3" font-family="Helvetica,Arial,sans-serif" font-size="14.00">40</text>
<defs>
<radialGradient id="r_30" cx="50%" cy="50%" r="75%" fx="74%" fy="6%">
<stop offset="0" style="stop-color:orange;stop-opacity:1.;"/>
<stop offset="1" style="stop-color:green;stop-opacity:1.;"/>
</radialGradient>
</defs>
<polygon fill="url(#r_30)" stroke="transparent" points="64,-193.5 64,-228.5 100,-228.5 100,-193.5 64,-193.5"/>
<text text-anchor="start" x="74" y="-207.3" font-family="Helvetica,Arial,sans-serif" font-size="14.00">41</text>
<defs>
<radialGradient id="r_31" cx="50%" cy="50%" r="75%" fx="74%" fy="6%">
<stop offset="0" style="stop-color:orange;stop-opacity:1.;"/>
<stop offset="1" style="stop-color:green;stop-opacity:1.;"/>
</radialGradient>
</defs>
<polygon fill="url(#r_31)" stroke="transparent" points="110,-193.5 110,-228.5 146,-228.5 146,-193.5 110,-193.5"/>
<text text-anchor="start" x="120" y="-207.3" font-family="Helvetica,Arial,sans-serif" font-size="14.00">42</text>
<defs>
<radialGradient id="r_32" cx="50%" cy="50%" r="75%" fx="74%" fy="6%">
<stop offset="0" style="stop-color:orange;stop-opacity:1.;"/>
<stop offset="1" style="stop-color:blue;stop-opacity:1.;"/>
</radialGradient>
</defs>
<polygon fill="url(#r_32)" stroke="transparent" points="156,-193.5 156,-228.5 192,-228.5 192,-193.5 156,-193.5"/>
<text text-anchor="start" x="166" y="-207.3" font-family="Helvetica,Arial,sans-serif" font-size="14.00">43</text>
<defs>
<radialGradient id="r_33" cx="50%" cy="50%" r="75%" fx="74%" fy="6%">
<stop offset="0" style="stop-color:orange;stop-opacity:1.;"/>
<stop offset="1" style="stop-color:blue;stop-opacity:1.;"/>
</radialGradient>
</defs>
<polygon fill="url(#r_33)" stroke="transparent" points="202,-193.5 202,-228.5 238,-228.5 238,-193.5 202,-193.5"/>
<text text-anchor="start" x="212" y="-207.3" font-family="Helvetica,Arial,sans-serif" font-size="14.00">44</text>
<defs>
<radialGradient id="r_34" cx="50%" cy="50%" r="75%" fx="74%" fy="6%">
<stop offset="0" style="stop-color:orange;stop-opacity:1.;"/>
<stop offset="1" style="stop-color:purple;stop-opacity:1.;"/>
</radialGradient>
</defs>
<polygon fill="url(#r_34)" stroke="transparent" points="248,-193.5 248,-228.5 284,-228.5 284,-193.5 248,-193.5"/>
<text text-anchor="start" x="258" y="-207.3" font-family="Helvetica,Arial,sans-serif" font-size="14.00">45</text>
<defs>
<radialGradient id="r_35" cx="50%" cy="50%" r="75%" fx="74%" fy="6%">
<stop offset="0" style="stop-color:orange;stop-opacity:1.;"/>
<stop offset="1" style="stop-color:purple;stop-opacity:1.;"/>
</radialGradient>
</defs>
<polygon fill="url(#r_35)" stroke="transparent" points="294,-193.5 294,-228.5 330,-228.5 330,-193.5 294,-193.5"/>
<text text-anchor="start" x="304" y="-207.3" font-family="Helvetica,Arial,sans-serif" font-size="14.00">46</text>
<defs>
<radialGradient id="r_36" cx="50%" cy="50%" r="75%" fx="74%" fy="6%">
<stop offset="0" style="stop-color:orange;stop-opacity:1.;"/>
<stop offset="1" style="stop-color:violet;stop-opacity:1.;"/>
</radialGradient>
</defs>
<polygon fill="url(#r_36)" stroke="transparent" points="340,-193.5 340,-228.5 376,-228.5 376,-193.5 340,-193.5"/>
<text text-anchor="start" x="350" y="-207.3" font-family="Helvetica,Arial,sans-serif" font-size="14.00">47</text>
<defs>
<radialGradient id="r_37" cx="50%" cy="50%" r="75%" fx="74%" fy="6%">
<stop offset="0" style="stop-color:orange;stop-opacity:1.;"/>
<stop offset="1" style="stop-color:violet;stop-opacity:1.;"/>
</radialGradient>
</defs>
<polygon fill="url(#r_37)" stroke="transparent" points="386,-193.5 386,-228.5 422,-228.5 422,-193.5 386,-193.5"/>
<text text-anchor="start" x="396" y="-207.3" font-family="Helvetica,Arial,sans-serif" font-size="14.00">48</text>
<defs>
<radialGradient id="r_38" cx="50%" cy="50%" r="75%" fx="74%" fy="6%">
<stop offset="0" style="stop-color:orange;stop-opacity:1.;"/>
<stop offset="1" style="stop-color:red;stop-opacity:1.;"/>
</radialGradient>
</defs>
<polygon fill="url(#r_38)" stroke="transparent" points="18,-148.5 18,-183.5 54,-183.5 54,-148.5 18,-148.5"/>
<text text-anchor="start" x="28" y="-162.3" font-family="Helvetica,Arial,sans-serif" font-size="14.00">50</text>
<defs>
<radialGradient id="r_39" cx="50%" cy="50%" r="75%" fx="74%" fy="6%">
<stop offset="0" style="stop-color:red;stop-opacity:1.;"/>
<stop offset="1" style="stop-color:green;stop-opacity:1.;"/>
</radialGradient>
</defs>
<polygon fill="url(#r_39)" stroke="transparent" points="64,-148.5 64,-183.5 100,-183.5 100,-148.5 64,-148.5"/>
<text text-anchor="start" x="74" y="-162.3" font-family="Helvetica,Arial,sans-serif" font-size="14.00">51</text>
<defs>
<radialGradient id="r_40" cx="50%" cy="50%" r="75%" fx="74%" fy="6%">
<stop offset="0" style="stop-color:red;stop-opacity:1.;"/>
<stop offset="1" style="stop-color:green;stop-opacity:1.;"/>
</radialGradient>
</defs>
<polygon fill="url(#r_40)" stroke="transparent" points="110,-148.5 110,-183.5 146,-183.5 146,-148.5 110,-148.5"/>
<text text-anchor="start" x="120" y="-162.3" font-family="Helvetica,Arial,sans-serif" font-size="14.00">52</text>
<defs>
<radialGradient id="r_41" cx="50%" cy="50%" r="75%" fx="74%" fy="6%">
<stop offset="0" style="stop-color:red;stop-opacity:1.;"/>
<stop offset="1" style="stop-color:blue;stop-opacity:1.;"/>
</radialGradient>
</defs>
<polygon fill="url(#r_41)" stroke="transparent" points="156,-148.5 156,-183.5 192,-183.5 192,-148.5 156,-148.5"/>
<text text-anchor="start" x="166" y="-162.3" font-family="Helvetica,Arial,sans-serif" font-size="14.00">53</text>
<defs>
<radialGradient id="r_42" cx="50%" cy="50%" r="75%" fx="74%" fy="6%">
<stop offset="0" style="stop-color:red;stop-opacity:1.;"/>
<stop offset="1" style="stop-color:blue;stop-opacity:1.;"/>
</radialGradient>
</defs>
<polygon fill="url(#r_42)" stroke="transparent" points="202,-148.5 202,-183.5 238,-183.5 238,-148.5 202,-148.5"/>
<text text-anchor="start" x="212" y="-162.3" font-family="Helvetica,Arial,sans-serif" font-size="14.00">54</text>
<defs>
<radialGradient id="r_43" cx="50%" cy="50%" r="75%" fx="74%" fy="6%">
<stop offset="0" style="stop-color:red;stop-opacity:1.;"/>
<stop offset="1" style="stop-color:purple;stop-opacity:1.;"/>
</radialGradient>
</defs>
<polygon fill="url(#r_43)" stroke="transparent" points="248,-148.5 248,-183.5 284,-183.5 284,-148.5 248,-148.5"/>
<text text-anchor="start" x="258" y="-162.3" font-family="Helvetica,Arial,sans-serif" font-size="14.00">55</text>
<defs>
<radialGradient id="r_44" cx="50%" cy="50%" r="75%" fx="74%" fy="6%">
<stop offset="0" style="stop-color:red;stop-opacity:1.;"/>
<stop offset="1" style="stop-color:purple;stop-opacity:1.;"/>
</radialGradient>
</defs>
<polygon fill="url(#r_44)" stroke="transparent" points="294,-148.5 294,-183.5 330,-183.5 330,-148.5 294,-148.5"/>
<text text-anchor="start" x="304" y="-162.3" font-family="Helvetica,Arial,sans-serif" font-size="14.00">56</text>
<defs>
<radialGradient id="r_45" cx="50%" cy="50%" r="75%" fx="74%" fy="6%">
<stop offset="0" style="stop-color:red;stop-opacity:1.;"/>
<stop offset="1" style="stop-color:violet;stop-opacity:1.;"/>
</radialGradient>
</defs>
<polygon fill="url(#r_45)" stroke="transparent" points="340,-148.5 340,-183.5 376,-183.5 376,-148.5 340,-148.5"/>
<text text-anchor="start" x="350" y="-162.3" font-family="Helvetica,Arial,sans-serif" font-size="14.00">57</text>
<defs>
<radialGradient id="r_46" cx="50%" cy="50%" r="75%" fx="74%" fy="6%">
<stop offset="0" style="stop-color:red;stop-opacity:1.;"/>
<stop offset="1" style="stop-color:violet;stop-opacity:1.;"/>
</radialGradient>
</defs>
<polygon fill="url(#r_46)" stroke="transparent" points="386,-148.5 386,-183.5 422,-183.5 422,-148.5 386,-148.5"/>
<text text-anchor="start" x="396" y="-162.3" font-family="Helvetica,Arial,sans-serif" font-size="14.00">58</text>
<polygon fill="red" stroke="transparent" points="18,-103.5 18,-138.5 54,-138.5 54,-103.5 18,-103.5"/>
<text text-anchor="start" x="28" y="-117.3" font-family="Helvetica,Arial,sans-serif" font-size="14.00">60</text>
<defs>
<radialGradient id="r_47" cx="50%" cy="50%" r="75%" fx="74%" fy="6%">
<stop offset="0" style="stop-color:red;stop-opacity:1.;"/>
<stop offset="1" style="stop-color:green;stop-opacity:1.;"/>
</radialGradient>
</defs>
<polygon fill="url(#r_47)" stroke="transparent" points="64,-103.5 64,-138.5 100,-138.5 100,-103.5 64,-103.5"/>
<text text-anchor="start" x="74" y="-117.3" font-family="Helvetica,Arial,sans-serif" font-size="14.00">61</text>
<defs>
<radialGradient id="r_48" cx="50%" cy="50%" r="75%" fx="74%" fy="6%">
<stop offset="0" style="stop-color:red;stop-opacity:1.;"/>
<stop offset="1" style="stop-color:green;stop-opacity:1.;"/>
</radialGradient>
</defs>
<polygon fill="url(#r_48)" stroke="transparent" points="110,-103.5 110,-138.5 146,-138.5 146,-103.5 110,-103.5"/>
<text text-anchor="start" x="120" y="-117.3" font-family="Helvetica,Arial,sans-serif" font-size="14.00">62</text>
<defs>
<radialGradient id="r_49" cx="50%" cy="50%" r="75%" fx="74%" fy="6%">
<stop offset="0" style="stop-color:red;stop-opacity:1.;"/>
<stop offset="1" style="stop-color:blue;stop-opacity:1.;"/>
</radialGradient>
</defs>
<polygon fill="url(#r_49)" stroke="transparent" points="156,-103.5 156,-138.5 192,-138.5 192,-103.5 156,-103.5"/>
<text text-anchor="start" x="166" y="-117.3" font-family="Helvetica,Arial,sans-serif" font-size="14.00">63</text>
<defs>
<radialGradient id="r_50" cx="50%" cy="50%" r="75%" fx="74%" fy="6%">
<stop offset="0" style="stop-color:red;stop-opacity:1.;"/>
<stop offset="1" style="stop-color:blue;stop-opacity:1.;"/>
</radialGradient>
</defs>
<polygon fill="url(#r_50)" stroke="transparent" points="202,-103.5 202,-138.5 238,-138.5 238,-103.5 202,-103.5"/>
<text text-anchor="start" x="212" y="-117.3" font-family="Helvetica,Arial,sans-serif" font-size="14.00">64</text>
<defs>
<radialGradient id="r_51" cx="50%" cy="50%" r="75%" fx="74%" fy="6%">
<stop offset="0" style="stop-color:red;stop-opacity:1.;"/>
<stop offset="1" style="stop-color:purple;stop-opacity:1.;"/>
</radialGradient>
</defs>
<polygon fill="url(#r_51)" stroke="transparent" points="248,-103.5 248,-138.5 284,-138.5 284,-103.5 248,-103.5"/>
<text text-anchor="start" x="258" y="-117.3" font-family="Helvetica,Arial,sans-serif" font-size="14.00">65</text>
<defs>
<radialGradient id="r_52" cx="50%" cy="50%" r="75%" fx="74%" fy="6%">
<stop offset="0" style="stop-color:red;stop-opacity:1.;"/>
<stop offset="1" style="stop-color:purple;stop-opacity:1.;"/>
</radialGradient>
</defs>
<polygon fill="url(#r_52)" stroke="transparent" points="294,-103.5 294,-138.5 330,-138.5 330,-103.5 294,-103.5"/>
<text text-anchor="start" x="304" y="-117.3" font-family="Helvetica,Arial,sans-serif" font-size="14.00">66</text>
<defs>
<radialGradient id="r_53" cx="50%" cy="50%" r="75%" fx="74%" fy="6%">
<stop offset="0" style="stop-color:red;stop-opacity:1.;"/>
<stop offset="1" style="stop-color:violet;stop-opacity:1.;"/>
</radialGradient>
</defs>
<polygon fill="url(#r_53)" stroke="transparent" points="340,-103.5 340,-138.5 376,-138.5 376,-103.5 340,-103.5"/>
<text text-anchor="start" x="350" y="-117.3" font-family="Helvetica,Arial,sans-serif" font-size="14.00">67</text>
<defs>
<radialGradient id="r_54" cx="50%" cy="50%" r="75%" fx="74%" fy="6%">
<stop offset="0" style="stop-color:red;stop-opacity:1.;"/>
<stop offset="1" style="stop-color:violet;stop-opacity:1.;"/>
</radialGradient>
</defs>
<polygon fill="url(#r_54)" stroke="transparent" points="386,-103.5 386,-138.5 422,-138.5 422,-103.5 386,-103.5"/>
<text text-anchor="start" x="396" y="-117.3" font-family="Helvetica,Arial,sans-serif" font-size="14.00">68</text>
<defs>
<radialGradient id="r_55" cx="50%" cy="50%" r="75%" fx="74%" fy="6%">
<stop offset="0" style="stop-color:red;stop-opacity:1.;"/>
<stop offset="1" style="stop-color:brown;stop-opacity:1.;"/>
</radialGradient>
</defs>
<polygon fill="url(#r_55)" stroke="transparent" points="18,-58.5 18,-93.5 54,-93.5 54,-58.5 18,-58.5"/>
<text text-anchor="start" x="28" y="-72.3" font-family="Helvetica,Arial,sans-serif" font-size="14.00">70</text>
<defs>
<radialGradient id="r_56" cx="50%" cy="50%" r="75%" fx="74%" fy="6%">
<stop offset="0" style="stop-color:brown;stop-opacity:1.;"/>
<stop offset="1" style="stop-color:green;stop-opacity:1.;"/>
</radialGradient>
</defs>
<polygon fill="url(#r_56)" stroke="transparent" points="64,-58.5 64,-93.5 100,-93.5 100,-58.5 64,-58.5"/>
<text text-anchor="start" x="74" y="-72.3" font-family="Helvetica,Arial,sans-serif" font-size="14.00">71</text>
<defs>
<radialGradient id="r_57" cx="50%" cy="50%" r="75%" fx="74%" fy="6%">
<stop offset="0" style="stop-color:brown;stop-opacity:1.;"/>
<stop offset="1" style="stop-color:green;stop-opacity:1.;"/>
</radialGradient>
</defs>
<polygon fill="url(#r_57)" stroke="transparent" points="110,-58.5 110,-93.5 146,-93.5 146,-58.5 110,-58.5"/>
<text text-anchor="start" x="120" y="-72.3" font-family="Helvetica,Arial,sans-serif" font-size="14.00">72</text>
<defs>
<radialGradient id="r_58" cx="50%" cy="50%" r="75%" fx="74%" fy="6%">
<stop offset="0" style="stop-color:brown;stop-opacity:1.;"/>
<stop offset="1" style="stop-color:blue;stop-opacity:1.;"/>
</radialGradient>
</defs>
<polygon fill="url(#r_58)" stroke="transparent" points="156,-58.5 156,-93.5 192,-93.5 192,-58.5 156,-58.5"/>
<text text-anchor="start" x="166" y="-72.3" font-family="Helvetica,Arial,sans-serif" font-size="14.00">73</text>
<defs>
<radialGradient id="r_59" cx="50%" cy="50%" r="75%" fx="74%" fy="6%">
<stop offset="0" style="stop-color:brown;stop-opacity:1.;"/>
<stop offset="1" style="stop-color:blue;stop-opacity:1.;"/>
</radialGradient>
</defs>
<polygon fill="url(#r_59)" stroke="transparent" points="202,-58.5 202,-93.5 238,-93.5 238,-58.5 202,-58.5"/>
<text text-anchor="start" x="212" y="-72.3" font-family="Helvetica,Arial,sans-serif" font-size="14.00">74</text>
<defs>
<radialGradient id="r_60" cx="50%" cy="50%" r="75%" fx="74%" fy="6%">
<stop offset="0" style="stop-color:brown;stop-opacity:1.;"/>
<stop offset="1" style="stop-color:purple;stop-opacity:1.;"/>
</radialGradient>
</defs>
<polygon fill="url(#r_60)" stroke="transparent" points="248,-58.5 248,-93.5 284,-93.5 284,-58.5 248,-58.5"/>
<text text-anchor="start" x="258" y="-72.3" font-family="Helvetica,Arial,sans-serif" font-size="14.00">75</text>
<defs>
<radialGradient id="r_61" cx="50%" cy="50%" r="75%" fx="74%" fy="6%">
<stop offset="0" style="stop-color:brown;stop-opacity:1.;"/>
<stop offset="1" style="stop-color:purple;stop-opacity:1.;"/>
</radialGradient>
</defs>
<polygon fill="url(#r_61)" stroke="transparent" points="294,-58.5 294,-93.5 330,-93.5 330,-58.5 294,-58.5"/>
<text text-anchor="start" x="304" y="-72.3" font-family="Helvetica,Arial,sans-serif" font-size="14.00">76</text>
<defs>
<radialGradient id="r_62" cx="50%" cy="50%" r="75%" fx="74%" fy="6%">
<stop offset="0" style="stop-color:brown;stop-opacity:1.;"/>
<stop offset="1" style="stop-color:violet;stop-opacity:1.;"/>
</radialGradient>
</defs>
<polygon fill="url(#r_62)" stroke="transparent" points="340,-58.5 340,-93.5 376,-93.5 376,-58.5 340,-58.5"/>
<text text-anchor="start" x="350" y="-72.3" font-family="Helvetica,Arial,sans-serif" font-size="14.00">77</text>
<defs>
<radialGradient id="r_63" cx="50%" cy="50%" r="75%" fx="74%" fy="6%">
<stop offset="0" style="stop-color:brown;stop-opacity:1.;"/>
<stop offset="1" style="stop-color:violet;stop-opacity:1.;"/>
</radialGradient>
</defs>
<polygon fill="url(#r_63)" stroke="transparent" points="386,-58.5 386,-93.5 422,-93.5 422,-58.5 386,-58.5"/>
<text text-anchor="start" x="396" y="-72.3" font-family="Helvetica,Arial,sans-serif" font-size="14.00">78</text>
<polygon fill="brown" stroke="transparent" points="18,-13.5 18,-48.5 54,-48.5 54,-13.5 18,-13.5"/>
<text text-anchor="start" x="28" y="-27.3" font-family="Helvetica,Arial,sans-serif" font-size="14.00">80</text>
<defs>
<radialGradient id="r_64" cx="50%" cy="50%" r="75%" fx="74%" fy="6%">
<stop offset="0" style="stop-color:brown;stop-opacity:1.;"/>
<stop offset="1" style="stop-color:green;stop-opacity:1.;"/>
</radialGradient>
</defs>
<polygon fill="url(#r_64)" stroke="transparent" points="64,-13.5 64,-48.5 100,-48.5 100,-13.5 64,-13.5"/>
<text text-anchor="start" x="74" y="-27.3" font-family="Helvetica,Arial,sans-serif" font-size="14.00">81</text>
<defs>
<radialGradient id="r_65" cx="50%" cy="50%" r="75%" fx="74%" fy="6%">
<stop offset="0" style="stop-color:brown;stop-opacity:1.;"/>
<stop offset="1" style="stop-color:green;stop-opacity:1.;"/>
</radialGradient>
</defs>
<polygon fill="url(#r_65)" stroke="transparent" points="110,-13.5 110,-48.5 146,-48.5 146,-13.5 110,-13.5"/>
<text text-anchor="start" x="120" y="-27.3" font-family="Helvetica,Arial,sans-serif" font-size="14.00">82</text>
<defs>
<radialGradient id="r_66" cx="50%" cy="50%" r="75%" fx="74%" fy="6%">
<stop offset="0" style="stop-color:brown;stop-opacity:1.;"/>
<stop offset="1" style="stop-color:blue;stop-opacity:1.;"/>
</radialGradient>
</defs>
<polygon fill="url(#r_66)" stroke="transparent" points="156,-13.5 156,-48.5 192,-48.5 192,-13.5 156,-13.5"/>
<text text-anchor="start" x="166" y="-27.3" font-family="Helvetica,Arial,sans-serif" font-size="14.00">83</text>
<defs>
<radialGradient id="r_67" cx="50%" cy="50%" r="75%" fx="74%" fy="6%">
<stop offset="0" style="stop-color:brown;stop-opacity:1.;"/>
<stop offset="1" style="stop-color:blue;stop-opacity:1.;"/>
</radialGradient>
</defs>
<polygon fill="url(#r_67)" stroke="transparent" points="202,-13.5 202,-48.5 238,-48.5 238,-13.5 202,-13.5"/>
<text text-anchor="start" x="212" y="-27.3" font-family="Helvetica,Arial,sans-serif" font-size="14.00">84</text>
<defs>
<radialGradient id="r_68" cx="50%" cy="50%" r="75%" fx="74%" fy="6%">
<stop offset="0" style="stop-color:brown;stop-opacity:1.;"/>
<stop offset="1" style="stop-color:purple;stop-opacity:1.;"/>
</radialGradient>
</defs>
<polygon fill="url(#r_68)" stroke="transparent" points="248,-13.5 248,-48.5 284,-48.5 284,-13.5 248,-13.5"/>
<text text-anchor="start" x="258" y="-27.3" font-family="Helvetica,Arial,sans-serif" font-size="14.00">85</text>
<defs>
<radialGradient id="r_69" cx="50%" cy="50%" r="75%" fx="74%" fy="6%">
<stop offset="0" style="stop-color:brown;stop-opacity:1.;"/>
<stop offset="1" style="stop-color:purple;stop-opacity:1.;"/>
</radialGradient>
</defs>
<polygon fill="url(#r_69)" stroke="transparent" points="294,-13.5 294,-48.5 330,-48.5 330,-13.5 294,-13.5"/>
<text text-anchor="start" x="304" y="-27.3" font-family="Helvetica,Arial,sans-serif" font-size="14.00">86</text>
<defs>
<radialGradient id="r_70" cx="50%" cy="50%" r="75%" fx="74%" fy="6%">
<stop offset="0" style="stop-color:brown;stop-opacity:1.;"/>
<stop offset="1" style="stop-color:violet;stop-opacity:1.;"/>
</radialGradient>
</defs>
<polygon fill="url(#r_70)" stroke="transparent" points="340,-13.5 340,-48.5 376,-48.5 376,-13.5 340,-13.5"/>
<text text-anchor="start" x="350" y="-27.3" font-family="Helvetica,Arial,sans-serif" font-size="14.00">87</text>
<defs>
<radialGradient id="r_71" cx="50%" cy="50%" r="75%" fx="74%" fy="6%">
<stop offset="0" style="stop-color:brown;stop-opacity:1.;"/>
<stop offset="1" style="stop-color:violet;stop-opacity:1.;"/>
</radialGradient>
</defs>
<polygon fill="url(#r_71)" stroke="transparent" points="386,-13.5 386,-48.5 422,-48.5 422,-13.5 386,-13.5"/>
<text text-anchor="start" x="396" y="-27.3" font-family="Helvetica,Arial,sans-serif" font-size="14.00">88</text>
</g>
</g>
</svg>
