<?xml version="1.0" encoding="UTF-8" standalone="no"?>
<!DOCTYPE svg PUBLIC "-//W3C//DTD SVG 1.1//EN"
 "http://www.w3.org/Graphics/SVG/1.1/DTD/svg11.dtd">
<!-- Generated by graphviz version 2.43.0 (0)
 -->
<!-- Title: G Pages: 1 -->
<svg width="766pt" height="767pt"
 viewBox="0.00 0.00 766.00 766.91" xmlns="http://www.w3.org/2000/svg" xmlns:xlink="http://www.w3.org/1999/xlink">
<g id="graph0" class="graph" transform="scale(1 1) rotate(0) translate(4 762.91)">
<title>G</title>
<defs>
<linearGradient id="l_0" gradientUnits="userSpaceOnUse" x1="-4" y1="-379.45" x2="762" y2="-379.45" >
<stop offset="0" style="stop-color:purple;stop-opacity:1.;"/>
<stop offset="1" style="stop-color:pink;stop-opacity:1.;"/>
</linearGradient>
</defs>
<polygon fill="url(#l_0)" stroke="transparent" points="-4,4 -4,-762.91 762,-762.91 762,4 -4,4"/>
<g id="clust1" class="cluster">
<title>cluster1</title>
<defs>
<linearGradient id="l_1" gradientUnits="userSpaceOnUse" x1="8" y1="-379.45" x2="750" y2="-379.45" >
<stop offset="0" style="stop-color:blue;stop-opacity:1.;"/>
<stop offset="1" style="stop-color:green;stop-opacity:1.;"/>
</linearGradient>
</defs>
<polygon fill="url(#l_1)" stroke="black" points="8,-8 8,-750.91 750,-750.91 750,-8 8,-8"/>
</g>
<!-- a0 -->
<g id="node1" class="node">
<title>a0</title>
<defs>
<radialGradient id="r_0" cx="50%" cy="50%" r="75%" fx="0%" fy="50%">
<stop offset="0" style="stop-color:gold;stop-opacity:1.;"/>
<stop offset="1" style="stop-color:brown;stop-opacity:1.;"/>
</radialGradient>
</defs>
<ellipse fill="url(#r_0)" stroke="black" cx="379" cy="-379.45" rx="363.41" ry="363.41"/>
<defs>
<linearGradient id="l_2" gradientUnits="userSpaceOnUse" x1="206.47" y1="-548.8" x2="551.53" y2="-210.1" >
<stop offset="0" style="stop-color:yellow;stop-opacity:1.;"/>
<stop offset="1" style="stop-color:violet;stop-opacity:1.;"/>
</linearGradient>
</defs>
<path fill="url(#l_2)" stroke="transparent" d="M147,-139.95C147,-139.95 611,-139.95 611,-139.95 617,-139.95 623,-145.95 623,-151.95 623,-151.95 623,-606.95 623,-606.95 623,-612.95 617,-618.95 611,-618.95 611,-618.95 147,-618.95 147,-618.95 141,-618.95 135,-612.95 135,-606.95 135,-606.95 135,-151.95 135,-151.95 135,-145.95 141,-139.95 147,-139.95"/>
<polygon fill="yellow" stroke="transparent" points="150,-562.45 150,-603.45 192,-603.45 192,-562.45 150,-562.45"/>
<polygon fill="none" stroke="black" stroke-width="3" points="151.5,-563.95 151.5,-601.95 190.5,-601.95 190.5,-563.95 151.5,-563.95"/>
<text text-anchor="start" x="163" y="-579.25" font-family="Helvetica,Arial,sans-serif" font-size="14.00">00</text>
<defs>
<radialGradient id="r_1" cx="50%" cy="50%" r="75%" fx="74%" fy="6%">
<stop offset="0" style="stop-color:yellow;stop-opacity:1.;"/>
<stop offset="1" style="stop-color:green;stop-opacity:1.;"/>
</radialGradient>
</defs>
<polygon fill="url(#r_1)" stroke="transparent" stroke-width="3" points="202,-562.45 202,-603.45 244,-603.45 244,-562.45 202,-562.45"/>
<polygon fill="none" stroke="black" stroke-width="3" points="203.5,-563.95 203.5,-601.95 242.5,-601.95 242.5,-563.95 203.5,-563.95"/>
<text text-anchor="start" x="215" y="-579.25" font-family="Helvetica,Arial,sans-serif" font-size="14.00">01</text>
<polygon fill="green" stroke="transparent" stroke-width="3" points="254,-562.45 254,-603.45 296,-603.45 296,-562.45 254,-562.45"/>
<polygon fill="none" stroke="black" stroke-width="3" points="255.5,-563.95 255.5,-601.95 294.5,-601.95 294.5,-563.95 255.5,-563.95"/>
<text text-anchor="start" x="267" y="-579.25" font-family="Helvetica,Arial,sans-serif" font-size="14.00">02</text>
<defs>
<radialGradient id="r_2" cx="50%" cy="50%" r="75%" fx="74%" fy="6%">
<stop offset="0" style="stop-color:green;stop-opacity:1.;"/>
<stop offset="1" style="stop-color:blue;stop-opacity:1.;"/>
</radialGradient>
</defs>
<polygon fill="url(#r_2)" stroke="transparent" stroke-width="3" points="306,-562.45 306,-603.45 348,-603.45 348,-562.45 306,-562.45"/>
<polygon fill="none" stroke="black" stroke-width="3" points="307.5,-563.95 307.5,-601.95 346.5,-601.95 346.5,-563.95 307.5,-563.95"/>
<text text-anchor="start" x="319" y="-579.25" font-family="Helvetica,Arial,sans-serif" font-size="14.00">03</text>
<polygon fill="blue" stroke="transparent" stroke-width="3" points="358,-562.45 358,-603.45 400,-603.45 400,-562.45 358,-562.45"/>
<polygon fill="none" stroke="black" stroke-width="3" points="359.5,-563.95 359.5,-601.95 398.5,-601.95 398.5,-563.95 359.5,-563.95"/>
<text text-anchor="start" x="371" y="-579.25" font-family="Helvetica,Arial,sans-serif" font-size="14.00">04</text>
<defs>
<radialGradient id="r_3" cx="50%" cy="50%" r="75%" fx="74%" fy="6%">
<stop offset="0" style="stop-color:blue;stop-opacity:1.;"/>
<stop offset="1" style="stop-color:purple;stop-opacity:1.;"/>
</radialGradient>
</defs>
<polygon fill="url(#r_3)" stroke="transparent" stroke-width="3" points="410,-562.45 410,-603.45 452,-603.45 452,-562.45 410,-562.45"/>
<polygon fill="none" stroke="black" stroke-width="3" points="411.5,-563.95 411.5,-601.95 450.5,-601.95 450.5,-563.95 411.5,-563.95"/>
<text text-anchor="start" x="423" y="-579.25" font-family="Helvetica,Arial,sans-serif" font-size="14.00">05</text>
<polygon fill="purple" stroke="transparent" stroke-width="3" points="462,-562.45 462,-603.45 504,-603.45 504,-562.45 462,-562.45"/>
<polygon fill="none" stroke="black" stroke-width="3" points="463.5,-563.95 463.5,-601.95 502.5,-601.95 502.5,-563.95 463.5,-563.95"/>
<text text-anchor="start" x="475" y="-579.25" font-family="Helvetica,Arial,sans-serif" font-size="14.00">06</text>
<defs>
<radialGradient id="r_4" cx="50%" cy="50%" r="75%" fx="74%" fy="6%">
<stop offset="0" style="stop-color:purple;stop-opacity:1.;"/>
<stop offset="1" style="stop-color:violet;stop-opacity:1.;"/>
</radialGradient>
</defs>
<polygon fill="url(#r_4)" stroke="transparent" stroke-width="3" points="514,-562.45 514,-603.45 556,-603.45 556,-562.45 514,-562.45"/>
<polygon fill="none" stroke="black" stroke-width="3" points="515.5,-563.95 515.5,-601.95 554.5,-601.95 554.5,-563.95 515.5,-563.95"/>
<text text-anchor="start" x="527" y="-579.25" font-family="Helvetica,Arial,sans-serif" font-size="14.00">07</text>
<polygon fill="violet" stroke="transparent" stroke-width="3" points="566,-562.45 566,-603.45 608,-603.45 608,-562.45 566,-562.45"/>
<polygon fill="none" stroke="black" stroke-width="3" points="567.5,-563.95 567.5,-601.95 606.5,-601.95 606.5,-563.95 567.5,-563.95"/>
<text text-anchor="start" x="579" y="-579.25" font-family="Helvetica,Arial,sans-serif" font-size="14.00">08</text>
<defs>
<radialGradient id="r_5" cx="50%" cy="50%" r="75%" fx="74%" fy="6%">
<stop offset="0" style="stop-color:yellow;stop-opacity:1.;"/>
<stop offset="1" style="stop-color:gold;stop-opacity:1.;"/>
</radialGradient>
</defs>
<polygon fill="url(#r_5)" stroke="transparent" stroke-width="3" points="150,-511.45 150,-552.45 192,-552.45 192,-511.45 150,-511.45"/>
<polygon fill="none" stroke="black" stroke-width="3" points="151.5,-512.95 151.5,-550.95 190.5,-550.95 190.5,-512.95 151.5,-512.95"/>
<text text-anchor="start" x="163" y="-528.25" font-family="Helvetica,Arial,sans-serif" font-size="14.00">10</text>
<defs>
<radialGradient id="r_6" cx="50%" cy="50%" r="75%" fx="74%" fy="6%">
<stop offset="0" style="stop-color:yellow;stop-opacity:1.;"/>
<stop offset="1" style="stop-color:green;stop-opacity:1.;"/>
</radialGradient>
</defs>
<polygon fill="url(#r_6)" stroke="transparent" stroke-width="3" points="202,-511.45 202,-552.45 244,-552.45 244,-511.45 202,-511.45"/>
<polygon fill="none" stroke="black" stroke-width="3" points="203.5,-512.95 203.5,-550.95 242.5,-550.95 242.5,-512.95 203.5,-512.95"/>
<text text-anchor="start" x="215" y="-528.25" font-family="Helvetica,Arial,sans-serif" font-size="14.00">11</text>
<defs>
<radialGradient id="r_7" cx="50%" cy="50%" r="75%" fx="74%" fy="6%">
<stop offset="0" style="stop-color:yellow;stop-opacity:1.;"/>
<stop offset="1" style="stop-color:green;stop-opacity:1.;"/>
</radialGradient>
</defs>
<polygon fill="url(#r_7)" stroke="transparent" stroke-width="3" points="254,-511.45 254,-552.45 296,-552.45 296,-511.45 254,-511.45"/>
<polygon fill="none" stroke="black" stroke-width="3" points="255.5,-512.95 255.5,-550.95 294.5,-550.95 294.5,-512.95 255.5,-512.95"/>
<text text-anchor="start" x="267" y="-528.25" font-family="Helvetica,Arial,sans-serif" font-size="14.00">12</text>
<defs>
<radialGradient id="r_8" cx="50%" cy="50%" r="75%" fx="74%" fy="6%">
<stop offset="0" style="stop-color:yellow;stop-opacity:1.;"/>
<stop offset="1" style="stop-color:blue;stop-opacity:1.;"/>
</radialGradient>
</defs>
<polygon fill="url(#r_8)" stroke="transparent" stroke-width="3" points="306,-511.45 306,-552.45 348,-552.45 348,-511.45 306,-511.45"/>
<polygon fill="none" stroke="black" stroke-width="3" points="307.5,-512.95 307.5,-550.95 346.5,-550.95 346.5,-512.95 307.5,-512.95"/>
<text text-anchor="start" x="319" y="-528.25" font-family="Helvetica,Arial,sans-serif" font-size="14.00">13</text>
<defs>
<radialGradient id="r_9" cx="50%" cy="50%" r="75%" fx="74%" fy="6%">
<stop offset="0" style="stop-color:yellow;stop-opacity:1.;"/>
<stop offset="1" style="stop-color:blue;stop-opacity:1.;"/>
</radialGradient>
</defs>
<polygon fill="url(#r_9)" stroke="transparent" stroke-width="3" points="358,-511.45 358,-552.45 400,-552.45 400,-511.45 358,-511.45"/>
<polygon fill="none" stroke="black" stroke-width="3" points="359.5,-512.95 359.5,-550.95 398.5,-550.95 398.5,-512.95 359.5,-512.95"/>
<text text-anchor="start" x="371" y="-528.25" font-family="Helvetica,Arial,sans-serif" font-size="14.00">14</text>
<defs>
<radialGradient id="r_10" cx="50%" cy="50%" r="75%" fx="74%" fy="6%">
<stop offset="0" style="stop-color:yellow;stop-opacity:1.;"/>
<stop offset="1" style="stop-color:purple;stop-opacity:1.;"/>
</radialGradient>
</defs>
<polygon fill="url(#r_10)" stroke="transparent" stroke-width="3" points="410,-511.45 410,-552.45 452,-552.45 452,-511.45 410,-511.45"/>
<polygon fill="none" stroke="black" stroke-width="3" points="411.5,-512.95 411.5,-550.95 450.5,-550.95 450.5,-512.95 411.5,-512.95"/>
<text text-anchor="start" x="423" y="-528.25" font-family="Helvetica,Arial,sans-serif" font-size="14.00">15</text>
<defs>
<radialGradient id="r_11" cx="50%" cy="50%" r="75%" fx="74%" fy="6%">
<stop offset="0" style="stop-color:yellow;stop-opacity:1.;"/>
<stop offset="1" style="stop-color:purple;stop-opacity:1.;"/>
</radialGradient>
</defs>
<polygon fill="url(#r_11)" stroke="transparent" stroke-width="3" points="462,-511.45 462,-552.45 504,-552.45 504,-511.45 462,-511.45"/>
<polygon fill="none" stroke="black" stroke-width="3" points="463.5,-512.95 463.5,-550.95 502.5,-550.95 502.5,-512.95 463.5,-512.95"/>
<text text-anchor="start" x="475" y="-528.25" font-family="Helvetica,Arial,sans-serif" font-size="14.00">16</text>
<defs>
<radialGradient id="r_12" cx="50%" cy="50%" r="75%" fx="74%" fy="6%">
<stop offset="0" style="stop-color:yellow;stop-opacity:1.;"/>
<stop offset="1" style="stop-color:violet;stop-opacity:1.;"/>
</radialGradient>
</defs>
<polygon fill="url(#r_12)" stroke="transparent" stroke-width="3" points="514,-511.45 514,-552.45 556,-552.45 556,-511.45 514,-511.45"/>
<polygon fill="none" stroke="black" stroke-width="3" points="515.5,-512.95 515.5,-550.95 554.5,-550.95 554.5,-512.95 515.5,-512.95"/>
<text text-anchor="start" x="527" y="-528.25" font-family="Helvetica,Arial,sans-serif" font-size="14.00">17</text>
<defs>
<radialGradient id="r_13" cx="50%" cy="50%" r="75%" fx="74%" fy="6%">
<stop offset="0" style="stop-color:yellow;stop-opacity:1.;"/>
<stop offset="1" style="stop-color:violet;stop-opacity:1.;"/>
</radialGradient>
</defs>
<polygon fill="url(#r_13)" stroke="transparent" stroke-width="3" points="566,-511.45 566,-552.45 608,-552.45 608,-511.45 566,-511.45"/>
<polygon fill="none" stroke="black" stroke-width="3" points="567.5,-512.95 567.5,-550.95 606.5,-550.95 606.5,-512.95 567.5,-512.95"/>
<text text-anchor="start" x="579" y="-528.25" font-family="Helvetica,Arial,sans-serif" font-size="14.00">18</text>
<polygon fill="gold" stroke="transparent" stroke-width="3" points="150,-460.45 150,-501.45 192,-501.45 192,-460.45 150,-460.45"/>
<polygon fill="none" stroke="black" stroke-width="3" points="151.5,-461.95 151.5,-499.95 190.5,-499.95 190.5,-461.95 151.5,-461.95"/>
<text text-anchor="start" x="163" y="-477.25" font-family="Helvetica,Arial,sans-serif" font-size="14.00">20</text>
<defs>
<radialGradient id="r_14" cx="50%" cy="50%" r="75%" fx="74%" fy="6%">
<stop offset="0" style="stop-color:gold;stop-opacity:1.;"/>
<stop offset="1" style="stop-color:green;stop-opacity:1.;"/>
</radialGradient>
</defs>
<polygon fill="url(#r_14)" stroke="transparent" stroke-width="3" points="202,-460.45 202,-501.45 244,-501.45 244,-460.45 202,-460.45"/>
<polygon fill="none" stroke="black" stroke-width="3" points="203.5,-461.95 203.5,-499.95 242.5,-499.95 242.5,-461.95 203.5,-461.95"/>
<text text-anchor="start" x="215" y="-477.25" font-family="Helvetica,Arial,sans-serif" font-size="14.00">21</text>
<defs>
<radialGradient id="r_15" cx="50%" cy="50%" r="75%" fx="74%" fy="6%">
<stop offset="0" style="stop-color:gold;stop-opacity:1.;"/>
<stop offset="1" style="stop-color:green;stop-opacity:1.;"/>
</radialGradient>
</defs>
<polygon fill="url(#r_15)" stroke="transparent" stroke-width="3" points="254,-460.45 254,-501.45 296,-501.45 296,-460.45 254,-460.45"/>
<polygon fill="none" stroke="black" stroke-width="3" points="255.5,-461.95 255.5,-499.95 294.5,-499.95 294.5,-461.95 255.5,-461.95"/>
<text text-anchor="start" x="267" y="-477.25" font-family="Helvetica,Arial,sans-serif" font-size="14.00">22</text>
<defs>
<radialGradient id="r_16" cx="50%" cy="50%" r="75%" fx="74%" fy="6%">
<stop offset="0" style="stop-color:gold;stop-opacity:1.;"/>
<stop offset="1" style="stop-color:blue;stop-opacity:1.;"/>
</radialGradient>
</defs>
<polygon fill="url(#r_16)" stroke="transparent" stroke-width="3" points="306,-460.45 306,-501.45 348,-501.45 348,-460.45 306,-460.45"/>
<polygon fill="none" stroke="black" stroke-width="3" points="307.5,-461.95 307.5,-499.95 346.5,-499.95 346.5,-461.95 307.5,-461.95"/>
<text text-anchor="start" x="319" y="-477.25" font-family="Helvetica,Arial,sans-serif" font-size="14.00">23</text>
<defs>
<radialGradient id="r_17" cx="50%" cy="50%" r="75%" fx="74%" fy="6%">
<stop offset="0" style="stop-color:gold;stop-opacity:1.;"/>
<stop offset="1" style="stop-color:blue;stop-opacity:1.;"/>
</radialGradient>
</defs>
<polygon fill="url(#r_17)" stroke="transparent" stroke-width="3" points="358,-460.45 358,-501.45 400,-501.45 400,-460.45 358,-460.45"/>
<polygon fill="none" stroke="black" stroke-width="3" points="359.5,-461.95 359.5,-499.95 398.5,-499.95 398.5,-461.95 359.5,-461.95"/>
<text text-anchor="start" x="371" y="-477.25" font-family="Helvetica,Arial,sans-serif" font-size="14.00">24</text>
<defs>
<radialGradient id="r_18" cx="50%" cy="50%" r="75%" fx="74%" fy="6%">
<stop offset="0" style="stop-color:gold;stop-opacity:1.;"/>
<stop offset="1" style="stop-color:purple;stop-opacity:1.;"/>
</radialGradient>
</defs>
<polygon fill="url(#r_18)" stroke="transparent" stroke-width="3" points="410,-460.45 410,-501.45 452,-501.45 452,-460.45 410,-460.45"/>
<polygon fill="none" stroke="black" stroke-width="3" points="411.5,-461.95 411.5,-499.95 450.5,-499.95 450.5,-461.95 411.5,-461.95"/>
<text text-anchor="start" x="423" y="-477.25" font-family="Helvetica,Arial,sans-serif" font-size="14.00">25</text>
<defs>
<radialGradient id="r_19" cx="50%" cy="50%" r="75%" fx="74%" fy="6%">
<stop offset="0" style="stop-color:gold;stop-opacity:1.;"/>
<stop offset="1" style="stop-color:purple;stop-opacity:1.;"/>
</radialGradient>
</defs>
<polygon fill="url(#r_19)" stroke="transparent" stroke-width="3" points="462,-460.45 462,-501.45 504,-501.45 504,-460.45 462,-460.45"/>
<polygon fill="none" stroke="black" stroke-width="3" points="463.5,-461.95 463.5,-499.95 502.5,-499.95 502.5,-461.95 463.5,-461.95"/>
<text text-anchor="start" x="475" y="-477.25" font-family="Helvetica,Arial,sans-serif" font-size="14.00">26</text>
<defs>
<radialGradient id="r_20" cx="50%" cy="50%" r="75%" fx="74%" fy="6%">
<stop offset="0" style="stop-color:gold;stop-opacity:1.;"/>
<stop offset="1" style="stop-color:violet;stop-opacity:1.;"/>
</radialGradient>
</defs>
<polygon fill="url(#r_20)" stroke="transparent" stroke-width="3" points="514,-460.45 514,-501.45 556,-501.45 556,-460.45 514,-460.45"/>
<polygon fill="none" stroke="black" stroke-width="3" points="515.5,-461.95 515.5,-499.95 554.5,-499.95 554.5,-461.95 515.5,-461.95"/>
<text text-anchor="start" x="527" y="-477.25" font-family="Helvetica,Arial,sans-serif" font-size="14.00">27</text>
<defs>
<radialGradient id="r_21" cx="50%" cy="50%" r="75%" fx="74%" fy="6%">
<stop offset="0" style="stop-color:gold;stop-opacity:1.;"/>
<stop offset="1" style="stop-color:violet;stop-opacity:1.;"/>
</radialGradient>
</defs>
<polygon fill="url(#r_21)" stroke="transparent" stroke-width="3" points="566,-460.45 566,-501.45 608,-501.45 608,-460.45 566,-460.45"/>
<polygon fill="none" stroke="black" stroke-width="3" points="567.5,-461.95 567.5,-499.95 606.5,-499.95 606.5,-461.95 567.5,-461.95"/>
<text text-anchor="start" x="579" y="-477.25" font-family="Helvetica,Arial,sans-serif" font-size="14.00">28</text>
<defs>
<radialGradient id="r_22" cx="50%" cy="50%" r="75%" fx="74%" fy="6%">
<stop offset="0" style="stop-color:gold;stop-opacity:1.;"/>
<stop offset="1" style="stop-color:orange;stop-opacity:1.;"/>
</radialGradient>
</defs>
<polygon fill="url(#r_22)" stroke="transparent" stroke-width="3" points="150,-409.45 150,-450.45 192,-450.45 192,-409.45 150,-409.45"/>
<polygon fill="none" stroke="black" stroke-width="3" points="151.5,-410.95 151.5,-448.95 190.5,-448.95 190.5,-410.95 151.5,-410.95"/>
<text text-anchor="start" x="163" y="-426.25" font-family="Helvetica,Arial,sans-serif" font-size="14.00">30</text>
<defs>
<radialGradient id="r_23" cx="50%" cy="50%" r="75%" fx="74%" fy="6%">
<stop offset="0" style="stop-color:orange;stop-opacity:1.;"/>
<stop offset="1" style="stop-color:green;stop-opacity:1.;"/>
</radialGradient>
</defs>
<polygon fill="url(#r_23)" stroke="transparent" stroke-width="3" points="202,-409.45 202,-450.45 244,-450.45 244,-409.45 202,-409.45"/>
<polygon fill="none" stroke="black" stroke-width="3" points="203.5,-410.95 203.5,-448.95 242.5,-448.95 242.5,-410.95 203.5,-410.95"/>
<text text-anchor="start" x="215" y="-426.25" font-family="Helvetica,Arial,sans-serif" font-size="14.00">31</text>
<defs>
<radialGradient id="r_24" cx="50%" cy="50%" r="75%" fx="74%" fy="6%">
<stop offset="0" style="stop-color:orange;stop-opacity:1.;"/>
<stop offset="1" style="stop-color:green;stop-opacity:1.;"/>
</radialGradient>
</defs>
<polygon fill="url(#r_24)" stroke="transparent" stroke-width="3" points="254,-409.45 254,-450.45 296,-450.45 296,-409.45 254,-409.45"/>
<polygon fill="none" stroke="black" stroke-width="3" points="255.5,-410.95 255.5,-448.95 294.5,-448.95 294.5,-410.95 255.5,-410.95"/>
<text text-anchor="start" x="267" y="-426.25" font-family="Helvetica,Arial,sans-serif" font-size="14.00">32</text>
<defs>
<radialGradient id="r_25" cx="50%" cy="50%" r="75%" fx="74%" fy="6%">
<stop offset="0" style="stop-color:orange;stop-opacity:1.;"/>
<stop offset="1" style="stop-color:blue;stop-opacity:1.;"/>
</radialGradient>
</defs>
<polygon fill="url(#r_25)" stroke="transparent" stroke-width="3" points="306,-409.45 306,-450.45 348,-450.45 348,-409.45 306,-409.45"/>
<polygon fill="none" stroke="black" stroke-width="3" points="307.5,-410.95 307.5,-448.95 346.5,-448.95 346.5,-410.95 307.5,-410.95"/>
<text text-anchor="start" x="319" y="-426.25" font-family="Helvetica,Arial,sans-serif" font-size="14.00">33</text>
<defs>
<radialGradient id="r_26" cx="50%" cy="50%" r="75%" fx="74%" fy="6%">
<stop offset="0" style="stop-color:orange;stop-opacity:1.;"/>
<stop offset="1" style="stop-color:blue;stop-opacity:1.;"/>
</radialGradient>
</defs>
<polygon fill="url(#r_26)" stroke="transparent" stroke-width="3" points="358,-409.45 358,-450.45 400,-450.45 400,-409.45 358,-409.45"/>
<polygon fill="none" stroke="black" stroke-width="3" points="359.5,-410.95 359.5,-448.95 398.5,-448.95 398.5,-410.95 359.5,-410.95"/>
<text text-anchor="start" x="371" y="-426.25" font-family="Helvetica,Arial,sans-serif" font-size="14.00">34</text>
<defs>
<radialGradient id="r_27" cx="50%" cy="50%" r="75%" fx="74%" fy="6%">
<stop offset="0" style="stop-color:orange;stop-opacity:1.;"/>
<stop offset="1" style="stop-color:purple;stop-opacity:1.;"/>
</radialGradient>
</defs>
<polygon fill="url(#r_27)" stroke="transparent" stroke-width="3" points="410,-409.45 410,-450.45 452,-450.45 452,-409.45 410,-409.45"/>
<polygon fill="none" stroke="black" stroke-width="3" points="411.5,-410.95 411.5,-448.95 450.5,-448.95 450.5,-410.95 411.5,-410.95"/>
<text text-anchor="start" x="423" y="-426.25" font-family="Helvetica,Arial,sans-serif" font-size="14.00">35</text>
<defs>
<radialGradient id="r_28" cx="50%" cy="50%" r="75%" fx="74%" fy="6%">
<stop offset="0" style="stop-color:orange;stop-opacity:1.;"/>
<stop offset="1" style="stop-color:purple;stop-opacity:1.;"/>
</radialGradient>
</defs>
<polygon fill="url(#r_28)" stroke="transparent" stroke-width="3" points="462,-409.45 462,-450.45 504,-450.45 504,-409.45 462,-409.45"/>
<polygon fill="none" stroke="black" stroke-width="3" points="463.5,-410.95 463.5,-448.95 502.5,-448.95 502.5,-410.95 463.5,-410.95"/>
<text text-anchor="start" x="475" y="-426.25" font-family="Helvetica,Arial,sans-serif" font-size="14.00">36</text>
<defs>
<radialGradient id="r_29" cx="50%" cy="50%" r="75%" fx="74%" fy="6%">
<stop offset="0" style="stop-color:orange;stop-opacity:1.;"/>
<stop offset="1" style="stop-color:violet;stop-opacity:1.;"/>
</radialGradient>
</defs>
<polygon fill="url(#r_29)" stroke="transparent" stroke-width="3" points="514,-409.45 514,-450.45 556,-450.45 556,-409.45 514,-409.45"/>
<polygon fill="none" stroke="black" stroke-width="3" points="515.5,-410.95 515.5,-448.95 554.5,-448.95 554.5,-410.95 515.5,-410.95"/>
<text text-anchor="start" x="527" y="-426.25" font-family="Helvetica,Arial,sans-serif" font-size="14.00">37</text>
<defs>
<radialGradient id="r_30" cx="50%" cy="50%" r="75%" fx="74%" fy="6%">
<stop offset="0" style="stop-color:orange;stop-opacity:1.;"/>
<stop offset="1" style="stop-color:violet;stop-opacity:1.;"/>
</radialGradient>
</defs>
<polygon fill="url(#r_30)" stroke="transparent" stroke-width="3" points="566,-409.45 566,-450.45 608,-450.45 608,-409.45 566,-409.45"/>
<polygon fill="none" stroke="black" stroke-width="3" points="567.5,-410.95 567.5,-448.95 606.5,-448.95 606.5,-410.95 567.5,-410.95"/>
<text text-anchor="start" x="579" y="-426.25" font-family="Helvetica,Arial,sans-serif" font-size="14.00">38</text>
<polygon fill="orange" stroke="transparent" stroke-width="3" points="150,-358.45 150,-399.45 192,-399.45 192,-358.45 150,-358.45"/>
<polygon fill="none" stroke="black" stroke-width="3" points="151.5,-359.95 151.5,-397.95 190.5,-397.95 190.5,-359.95 151.5,-359.95"/>
<text text-anchor="start" x="163" y="-375.25" font-family="Helvetica,Arial,sans-serif" font-size="14.00">40</text>
<defs>
<radialGradient id="r_31" cx="50%" cy="50%" r="75%" fx="74%" fy="6%">
<stop offset="0" style="stop-color:orange;stop-opacity:1.;"/>
<stop offset="1" style="stop-color:green;stop-opacity:1.;"/>
</radialGradient>
</defs>
<polygon fill="url(#r_31)" stroke="transparent" stroke-width="3" points="202,-358.45 202,-399.45 244,-399.45 244,-358.45 202,-358.45"/>
<polygon fill="none" stroke="black" stroke-width="3" points="203.5,-359.95 203.5,-397.95 242.5,-397.95 242.5,-359.95 203.5,-359.95"/>
<text text-anchor="start" x="215" y="-375.25" font-family="Helvetica,Arial,sans-serif" font-size="14.00">41</text>
<defs>
<radialGradient id="r_32" cx="50%" cy="50%" r="75%" fx="74%" fy="6%">
<stop offset="0" style="stop-color:orange;stop-opacity:1.;"/>
<stop offset="1" style="stop-color:green;stop-opacity:1.;"/>
</radialGradient>
</defs>
<polygon fill="url(#r_32)" stroke="transparent" stroke-width="3" points="254,-358.45 254,-399.45 296,-399.45 296,-358.45 254,-358.45"/>
<polygon fill="none" stroke="black" stroke-width="3" points="255.5,-359.95 255.5,-397.95 294.5,-397.95 294.5,-359.95 255.5,-359.95"/>
<text text-anchor="start" x="267" y="-375.25" font-family="Helvetica,Arial,sans-serif" font-size="14.00">42</text>
<defs>
<radialGradient id="r_33" cx="50%" cy="50%" r="75%" fx="74%" fy="6%">
<stop offset="0" style="stop-color:orange;stop-opacity:1.;"/>
<stop offset="1" style="stop-color:blue;stop-opacity:1.;"/>
</radialGradient>
</defs>
<polygon fill="url(#r_33)" stroke="transparent" stroke-width="3" points="306,-358.45 306,-399.45 348,-399.45 348,-358.45 306,-358.45"/>
<polygon fill="none" stroke="black" stroke-width="3" points="307.5,-359.95 307.5,-397.95 346.5,-397.95 346.5,-359.95 307.5,-359.95"/>
<text text-anchor="start" x="319" y="-375.25" font-family="Helvetica,Arial,sans-serif" font-size="14.00">43</text>
<defs>
<radialGradient id="r_34" cx="50%" cy="50%" r="75%" fx="74%" fy="6%">
<stop offset="0" style="stop-color:orange;stop-opacity:1.;"/>
<stop offset="1" style="stop-color:blue;stop-opacity:1.;"/>
</radialGradient>
</defs>
<polygon fill="url(#r_34)" stroke="transparent" stroke-width="3" points="358,-358.45 358,-399.45 400,-399.45 400,-358.45 358,-358.45"/>
<polygon fill="none" stroke="black" stroke-width="3" points="359.5,-359.95 359.5,-397.95 398.5,-397.95 398.5,-359.95 359.5,-359.95"/>
<text text-anchor="start" x="371" y="-375.25" font-family="Helvetica,Arial,sans-serif" font-size="14.00">44</text>
<defs>
<radialGradient id="r_35" cx="50%" cy="50%" r="75%" fx="74%" fy="6%">
<stop offset="0" style="stop-color:orange;stop-opacity:1.;"/>
<stop offset="1" style="stop-color:purple;stop-opacity:1.;"/>
</radialGradient>
</defs>
<polygon fill="url(#r_35)" stroke="transparent" stroke-width="3" points="410,-358.45 410,-399.45 452,-399.45 452,-358.45 410,-358.45"/>
<polygon fill="none" stroke="black" stroke-width="3" points="411.5,-359.95 411.5,-397.95 450.5,-397.95 450.5,-359.95 411.5,-359.95"/>
<text text-anchor="start" x="423" y="-375.25" font-family="Helvetica,Arial,sans-serif" font-size="14.00">45</text>
<defs>
<radialGradient id="r_36" cx="50%" cy="50%" r="75%" fx="74%" fy="6%">
<stop offset="0" style="stop-color:orange;stop-opacity:1.;"/>
<stop offset="1" style="stop-color:purple;stop-opacity:1.;"/>
</radialGradient>
</defs>
<polygon fill="url(#r_36)" stroke="transparent" stroke-width="3" points="462,-358.45 462,-399.45 504,-399.45 504,-358.45 462,-358.45"/>
<polygon fill="none" stroke="black" stroke-width="3" points="463.5,-359.95 463.5,-397.95 502.5,-397.95 502.5,-359.95 463.5,-359.95"/>
<text text-anchor="start" x="475" y="-375.25" font-family="Helvetica,Arial,sans-serif" font-size="14.00">46</text>
<defs>
<radialGradient id="r_37" cx="50%" cy="50%" r="75%" fx="74%" fy="6%">
<stop offset="0" style="stop-color:orange;stop-opacity:1.;"/>
<stop offset="1" style="stop-color:violet;stop-opacity:1.;"/>
</radialGradient>
</defs>
<polygon fill="url(#r_37)" stroke="transparent" stroke-width="3" points="514,-358.45 514,-399.45 556,-399.45 556,-358.45 514,-358.45"/>
<polygon fill="none" stroke="black" stroke-width="3" points="515.5,-359.95 515.5,-397.95 554.5,-397.95 554.5,-359.95 515.5,-359.95"/>
<text text-anchor="start" x="527" y="-375.25" font-family="Helvetica,Arial,sans-serif" font-size="14.00">47</text>
<defs>
<radialGradient id="r_38" cx="50%" cy="50%" r="75%" fx="74%" fy="6%">
<stop offset="0" style="stop-color:orange;stop-opacity:1.;"/>
<stop offset="1" style="stop-color:violet;stop-opacity:1.;"/>
</radialGradient>
</defs>
<polygon fill="url(#r_38)" stroke="transparent" stroke-width="3" points="566,-358.45 566,-399.45 608,-399.45 608,-358.45 566,-358.45"/>
<polygon fill="none" stroke="black" stroke-width="3" points="567.5,-359.95 567.5,-397.95 606.5,-397.95 606.5,-359.95 567.5,-359.95"/>
<text text-anchor="start" x="579" y="-375.25" font-family="Helvetica,Arial,sans-serif" font-size="14.00">48</text>
<defs>
<radialGradient id="r_39" cx="50%" cy="50%" r="75%" fx="74%" fy="6%">
<stop offset="0" style="stop-color:orange;stop-opacity:1.;"/>
<stop offset="1" style="stop-color:red;stop-opacity:1.;"/>
</radialGradient>
</defs>
<polygon fill="url(#r_39)" stroke="transparent" stroke-width="3" points="150,-307.45 150,-348.45 192,-348.45 192,-307.45 150,-307.45"/>
<polygon fill="none" stroke="black" stroke-width="3" points="151.5,-308.95 151.5,-346.95 190.5,-346.95 190.5,-308.95 151.5,-308.95"/>
<text text-anchor="start" x="163" y="-324.25" font-family="Helvetica,Arial,sans-serif" font-size="14.00">50</text>
<defs>
<radialGradient id="r_40" cx="50%" cy="50%" r="75%" fx="74%" fy="6%">
<stop offset="0" style="stop-color:red;stop-opacity:1.;"/>
<stop offset="1" style="stop-color:green;stop-opacity:1.;"/>
</radialGradient>
</defs>
<polygon fill="url(#r_40)" stroke="transparent" stroke-width="3" points="202,-307.45 202,-348.45 244,-348.45 244,-307.45 202,-307.45"/>
<polygon fill="none" stroke="black" stroke-width="3" points="203.5,-308.95 203.5,-346.95 242.5,-346.95 242.5,-308.95 203.5,-308.95"/>
<text text-anchor="start" x="215" y="-324.25" font-family="Helvetica,Arial,sans-serif" font-size="14.00">51</text>
<defs>
<radialGradient id="r_41" cx="50%" cy="50%" r="75%" fx="74%" fy="6%">
<stop offset="0" style="stop-color:red;stop-opacity:1.;"/>
<stop offset="1" style="stop-color:green;stop-opacity:1.;"/>
</radialGradient>
</defs>
<polygon fill="url(#r_41)" stroke="transparent" stroke-width="3" points="254,-307.45 254,-348.45 296,-348.45 296,-307.45 254,-307.45"/>
<polygon fill="none" stroke="black" stroke-width="3" points="255.5,-308.95 255.5,-346.95 294.5,-346.95 294.5,-308.95 255.5,-308.95"/>
<text text-anchor="start" x="267" y="-324.25" font-family="Helvetica,Arial,sans-serif" font-size="14.00">52</text>
<defs>
<radialGradient id="r_42" cx="50%" cy="50%" r="75%" fx="74%" fy="6%">
<stop offset="0" style="stop-color:red;stop-opacity:1.;"/>
<stop offset="1" style="stop-color:blue;stop-opacity:1.;"/>
</radialGradient>
</defs>
<polygon fill="url(#r_42)" stroke="transparent" stroke-width="3" points="306,-307.45 306,-348.45 348,-348.45 348,-307.45 306,-307.45"/>
<polygon fill="none" stroke="black" stroke-width="3" points="307.5,-308.95 307.5,-346.95 346.5,-346.95 346.5,-308.95 307.5,-308.95"/>
<text text-anchor="start" x="319" y="-324.25" font-family="Helvetica,Arial,sans-serif" font-size="14.00">53</text>
<defs>
<radialGradient id="r_43" cx="50%" cy="50%" r="75%" fx="74%" fy="6%">
<stop offset="0" style="stop-color:red;stop-opacity:1.;"/>
<stop offset="1" style="stop-color:blue;stop-opacity:1.;"/>
</radialGradient>
</defs>
<polygon fill="url(#r_43)" stroke="transparent" stroke-width="3" points="358,-307.45 358,-348.45 400,-348.45 400,-307.45 358,-307.45"/>
<polygon fill="none" stroke="black" stroke-width="3" points="359.5,-308.95 359.5,-346.95 398.5,-346.95 398.5,-308.95 359.5,-308.95"/>
<text text-anchor="start" x="371" y="-324.25" font-family="Helvetica,Arial,sans-serif" font-size="14.00">54</text>
<defs>
<radialGradient id="r_44" cx="50%" cy="50%" r="75%" fx="74%" fy="6%">
<stop offset="0" style="stop-color:red;stop-opacity:1.;"/>
<stop offset="1" style="stop-color:purple;stop-opacity:1.;"/>
</radialGradient>
</defs>
<polygon fill="url(#r_44)" stroke="transparent" stroke-width="3" points="410,-307.45 410,-348.45 452,-348.45 452,-307.45 410,-307.45"/>
<polygon fill="none" stroke="black" stroke-width="3" points="411.5,-308.95 411.5,-346.95 450.5,-346.95 450.5,-308.95 411.5,-308.95"/>
<text text-anchor="start" x="423" y="-324.25" font-family="Helvetica,Arial,sans-serif" font-size="14.00">55</text>
<defs>
<radialGradient id="r_45" cx="50%" cy="50%" r="75%" fx="74%" fy="6%">
<stop offset="0" style="stop-color:red;stop-opacity:1.;"/>
<stop offset="1" style="stop-color:purple;stop-opacity:1.;"/>
</radialGradient>
</defs>
<polygon fill="url(#r_45)" stroke="transparent" stroke-width="3" points="462,-307.45 462,-348.45 504,-348.45 504,-307.45 462,-307.45"/>
<polygon fill="none" stroke="black" stroke-width="3" points="463.5,-308.95 463.5,-346.95 502.5,-346.95 502.5,-308.95 463.5,-308.95"/>
<text text-anchor="start" x="475" y="-324.25" font-family="Helvetica,Arial,sans-serif" font-size="14.00">56</text>
<defs>
<radialGradient id="r_46" cx="50%" cy="50%" r="75%" fx="74%" fy="6%">
<stop offset="0" style="stop-color:red;stop-opacity:1.;"/>
<stop offset="1" style="stop-color:violet;stop-opacity:1.;"/>
</radialGradient>
</defs>
<polygon fill="url(#r_46)" stroke="transparent" stroke-width="3" points="514,-307.45 514,-348.45 556,-348.45 556,-307.45 514,-307.45"/>
<polygon fill="none" stroke="black" stroke-width="3" points="515.5,-308.95 515.5,-346.95 554.5,-346.95 554.5,-308.95 515.5,-308.95"/>
<text text-anchor="start" x="527" y="-324.25" font-family="Helvetica,Arial,sans-serif" font-size="14.00">57</text>
<defs>
<radialGradient id="r_47" cx="50%" cy="50%" r="75%" fx="74%" fy="6%">
<stop offset="0" style="stop-color:red;stop-opacity:1.;"/>
<stop offset="1" style="stop-color:violet;stop-opacity:1.;"/>
</radialGradient>
</defs>
<polygon fill="url(#r_47)" stroke="transparent" stroke-width="3" points="566,-307.45 566,-348.45 608,-348.45 608,-307.45 566,-307.45"/>
<polygon fill="none" stroke="black" stroke-width="3" points="567.5,-308.95 567.5,-346.95 606.5,-346.95 606.5,-308.95 567.5,-308.95"/>
<text text-anchor="start" x="579" y="-324.25" font-family="Helvetica,Arial,sans-serif" font-size="14.00">58</text>
<polygon fill="red" stroke="transparent" stroke-width="3" points="150,-256.45 150,-297.45 192,-297.45 192,-256.45 150,-256.45"/>
<polygon fill="none" stroke="black" stroke-width="3" points="151.5,-257.95 151.5,-295.95 190.5,-295.95 190.5,-257.95 151.5,-257.95"/>
<text text-anchor="start" x="163" y="-273.25" font-family="Helvetica,Arial,sans-serif" font-size="14.00">60</text>
<defs>
<radialGradient id="r_48" cx="50%" cy="50%" r="75%" fx="74%" fy="6%">
<stop offset="0" style="stop-color:red;stop-opacity:1.;"/>
<stop offset="1" style="stop-color:green;stop-opacity:1.;"/>
</radialGradient>
</defs>
<polygon fill="url(#r_48)" stroke="transparent" stroke-width="3" points="202,-256.45 202,-297.45 244,-297.45 244,-256.45 202,-256.45"/>
<polygon fill="none" stroke="black" stroke-width="3" points="203.5,-257.95 203.5,-295.95 242.5,-295.95 242.5,-257.95 203.5,-257.95"/>
<text text-anchor="start" x="215" y="-273.25" font-family="Helvetica,Arial,sans-serif" font-size="14.00">61</text>
<defs>
<radialGradient id="r_49" cx="50%" cy="50%" r="75%" fx="74%" fy="6%">
<stop offset="0" style="stop-color:red;stop-opacity:1.;"/>
<stop offset="1" style="stop-color:green;stop-opacity:1.;"/>
</radialGradient>
</defs>
<polygon fill="url(#r_49)" stroke="transparent" stroke-width="3" points="254,-256.45 254,-297.45 296,-297.45 296,-256.45 254,-256.45"/>
<polygon fill="none" stroke="black" stroke-width="3" points="255.5,-257.95 255.5,-295.95 294.5,-295.95 294.5,-257.95 255.5,-257.95"/>
<text text-anchor="start" x="267" y="-273.25" font-family="Helvetica,Arial,sans-serif" font-size="14.00">62</text>
<defs>
<radialGradient id="r_50" cx="50%" cy="50%" r="75%" fx="74%" fy="6%">
<stop offset="0" style="stop-color:red;stop-opacity:1.;"/>
<stop offset="1" style="stop-color:blue;stop-opacity:1.;"/>
</radialGradient>
</defs>
<polygon fill="url(#r_50)" stroke="transparent" stroke-width="3" points="306,-256.45 306,-297.45 348,-297.45 348,-256.45 306,-256.45"/>
<polygon fill="none" stroke="black" stroke-width="3" points="307.5,-257.95 307.5,-295.95 346.5,-295.95 346.5,-257.95 307.5,-257.95"/>
<text text-anchor="start" x="319" y="-273.25" font-family="Helvetica,Arial,sans-serif" font-size="14.00">63</text>
<defs>
<radialGradient id="r_51" cx="50%" cy="50%" r="75%" fx="74%" fy="6%">
<stop offset="0" style="stop-color:red;stop-opacity:1.;"/>
<stop offset="1" style="stop-color:blue;stop-opacity:1.;"/>
</radialGradient>
</defs>
<polygon fill="url(#r_51)" stroke="transparent" stroke-width="3" points="358,-256.45 358,-297.45 400,-297.45 400,-256.45 358,-256.45"/>
<polygon fill="none" stroke="black" stroke-width="3" points="359.5,-257.95 359.5,-295.95 398.5,-295.95 398.5,-257.95 359.5,-257.95"/>
<text text-anchor="start" x="371" y="-273.25" font-family="Helvetica,Arial,sans-serif" font-size="14.00">64</text>
<defs>
<radialGradient id="r_52" cx="50%" cy="50%" r="75%" fx="74%" fy="6%">
<stop offset="0" style="stop-color:red;stop-opacity:1.;"/>
<stop offset="1" style="stop-color:purple;stop-opacity:1.;"/>
</radialGradient>
</defs>
<polygon fill="url(#r_52)" stroke="transparent" stroke-width="3" points="410,-256.45 410,-297.45 452,-297.45 452,-256.45 410,-256.45"/>
<polygon fill="none" stroke="black" stroke-width="3" points="411.5,-257.95 411.5,-295.95 450.5,-295.95 450.5,-257.95 411.5,-257.95"/>
<text text-anchor="start" x="423" y="-273.25" font-family="Helvetica,Arial,sans-serif" font-size="14.00">65</text>
<defs>
<radialGradient id="r_53" cx="50%" cy="50%" r="75%" fx="74%" fy="6%">
<stop offset="0" style="stop-color:red;stop-opacity:1.;"/>
<stop offset="1" style="stop-color:purple;stop-opacity:1.;"/>
</radialGradient>
</defs>
<polygon fill="url(#r_53)" stroke="transparent" stroke-width="3" points="462,-256.45 462,-297.45 504,-297.45 504,-256.45 462,-256.45"/>
<polygon fill="none" stroke="black" stroke-width="3" points="463.5,-257.95 463.5,-295.95 502.5,-295.95 502.5,-257.95 463.5,-257.95"/>
<text text-anchor="start" x="475" y="-273.25" font-family="Helvetica,Arial,sans-serif" font-size="14.00">66</text>
<defs>
<radialGradient id="r_54" cx="50%" cy="50%" r="75%" fx="74%" fy="6%">
<stop offset="0" style="stop-color:red;stop-opacity:1.;"/>
<stop offset="1" style="stop-color:violet;stop-opacity:1.;"/>
</radialGradient>
</defs>
<polygon fill="url(#r_54)" stroke="transparent" stroke-width="3" points="514,-256.45 514,-297.45 556,-297.45 556,-256.45 514,-256.45"/>
<polygon fill="none" stroke="black" stroke-width="3" points="515.5,-257.95 515.5,-295.95 554.5,-295.95 554.5,-257.95 515.5,-257.95"/>
<text text-anchor="start" x="527" y="-273.25" font-family="Helvetica,Arial,sans-serif" font-size="14.00">67</text>
<defs>
<radialGradient id="r_55" cx="50%" cy="50%" r="75%" fx="74%" fy="6%">
<stop offset="0" style="stop-color:red;stop-opacity:1.;"/>
<stop offset="1" style="stop-color:violet;stop-opacity:1.;"/>
</radialGradient>
</defs>
<polygon fill="url(#r_55)" stroke="transparent" stroke-width="3" points="566,-256.45 566,-297.45 608,-297.45 608,-256.45 566,-256.45"/>
<polygon fill="none" stroke="black" stroke-width="3" points="567.5,-257.95 567.5,-295.95 606.5,-295.95 606.5,-257.95 567.5,-257.95"/>
<text text-anchor="start" x="579" y="-273.25" font-family="Helvetica,Arial,sans-serif" font-size="14.00">68</text>
<defs>
<radialGradient id="r_56" cx="50%" cy="50%" r="75%" fx="74%" fy="6%">
<stop offset="0" style="stop-color:red;stop-opacity:1.;"/>
<stop offset="1" style="stop-color:brown;stop-opacity:1.;"/>
</radialGradient>
</defs>
<polygon fill="url(#r_56)" stroke="transparent" stroke-width="3" points="150,-205.45 150,-246.45 192,-246.45 192,-205.45 150,-205.45"/>
<polygon fill="none" stroke="black" stroke-width="3" points="151.5,-206.95 151.5,-244.95 190.5,-244.95 190.5,-206.95 151.5,-206.95"/>
<text text-anchor="start" x="163" y="-222.25" font-family="Helvetica,Arial,sans-serif" font-size="14.00">70</text>
<defs>
<radialGradient id="r_57" cx="50%" cy="50%" r="75%" fx="74%" fy="6%">
<stop offset="0" style="stop-color:brown;stop-opacity:1.;"/>
<stop offset="1" style="stop-color:green;stop-opacity:1.;"/>
</radialGradient>
</defs>
<polygon fill="url(#r_57)" stroke="transparent" stroke-width="3" points="202,-205.45 202,-246.45 244,-246.45 244,-205.45 202,-205.45"/>
<polygon fill="none" stroke="black" stroke-width="3" points="203.5,-206.95 203.5,-244.95 242.5,-244.95 242.5,-206.95 203.5,-206.95"/>
<text text-anchor="start" x="215" y="-222.25" font-family="Helvetica,Arial,sans-serif" font-size="14.00">71</text>
<defs>
<radialGradient id="r_58" cx="50%" cy="50%" r="75%" fx="74%" fy="6%">
<stop offset="0" style="stop-color:brown;stop-opacity:1.;"/>
<stop offset="1" style="stop-color:green;stop-opacity:1.;"/>
</radialGradient>
</defs>
<polygon fill="url(#r_58)" stroke="transparent" stroke-width="3" points="254,-205.45 254,-246.45 296,-246.45 296,-205.45 254,-205.45"/>
<polygon fill="none" stroke="black" stroke-width="3" points="255.5,-206.95 255.5,-244.95 294.5,-244.95 294.5,-206.95 255.5,-206.95"/>
<text text-anchor="start" x="267" y="-222.25" font-family="Helvetica,Arial,sans-serif" font-size="14.00">72</text>
<defs>
<radialGradient id="r_59" cx="50%" cy="50%" r="75%" fx="74%" fy="6%">
<stop offset="0" style="stop-color:brown;stop-opacity:1.;"/>
<stop offset="1" style="stop-color:blue;stop-opacity:1.;"/>
</radialGradient>
</defs>
<polygon fill="url(#r_59)" stroke="transparent" stroke-width="3" points="306,-205.45 306,-246.45 348,-246.45 348,-205.45 306,-205.45"/>
<polygon fill="none" stroke="black" stroke-width="3" points="307.5,-206.95 307.5,-244.95 346.5,-244.95 346.5,-206.95 307.5,-206.95"/>
<text text-anchor="start" x="319" y="-222.25" font-family="Helvetica,Arial,sans-serif" font-size="14.00">73</text>
<defs>
<radialGradient id="r_60" cx="50%" cy="50%" r="75%" fx="74%" fy="6%">
<stop offset="0" style="stop-color:brown;stop-opacity:1.;"/>
<stop offset="1" style="stop-color:blue;stop-opacity:1.;"/>
</radialGradient>
</defs>
<polygon fill="url(#r_60)" stroke="transparent" stroke-width="3" points="358,-205.45 358,-246.45 400,-246.45 400,-205.45 358,-205.45"/>
<polygon fill="none" stroke="black" stroke-width="3" points="359.5,-206.95 359.5,-244.95 398.5,-244.95 398.5,-206.95 359.5,-206.95"/>
<text text-anchor="start" x="371" y="-222.25" font-family="Helvetica,Arial,sans-serif" font-size="14.00">74</text>
<defs>
<radialGradient id="r_61" cx="50%" cy="50%" r="75%" fx="74%" fy="6%">
<stop offset="0" style="stop-color:brown;stop-opacity:1.;"/>
<stop offset="1" style="stop-color:purple;stop-opacity:1.;"/>
</radialGradient>
</defs>
<polygon fill="url(#r_61)" stroke="transparent" stroke-width="3" points="410,-205.45 410,-246.45 452,-246.45 452,-205.45 410,-205.45"/>
<polygon fill="none" stroke="black" stroke-width="3" points="411.5,-206.95 411.5,-244.95 450.5,-244.95 450.5,-206.95 411.5,-206.95"/>
<text text-anchor="start" x="423" y="-222.25" font-family="Helvetica,Arial,sans-serif" font-size="14.00">75</text>
<defs>
<radialGradient id="r_62" cx="50%" cy="50%" r="75%" fx="74%" fy="6%">
<stop offset="0" style="stop-color:brown;stop-opacity:1.;"/>
<stop offset="1" style="stop-color:purple;stop-opacity:1.;"/>
</radialGradient>
</defs>
<polygon fill="url(#r_62)" stroke="transparent" stroke-width="3" points="462,-205.45 462,-246.45 504,-246.45 504,-205.45 462,-205.45"/>
<polygon fill="none" stroke="black" stroke-width="3" points="463.5,-206.95 463.5,-244.95 502.5,-244.95 502.5,-206.95 463.5,-206.95"/>
<text text-anchor="start" x="475" y="-222.25" font-family="Helvetica,Arial,sans-serif" font-size="14.00">76</text>
<defs>
<radialGradient id="r_63" cx="50%" cy="50%" r="75%" fx="74%" fy="6%">
<stop offset="0" style="stop-color:brown;stop-opacity:1.;"/>
<stop offset="1" style="stop-color:violet;stop-opacity:1.;"/>
</radialGradient>
</defs>
<polygon fill="url(#r_63)" stroke="transparent" stroke-width="3" points="514,-205.45 514,-246.45 556,-246.45 556,-205.45 514,-205.45"/>
<polygon fill="none" stroke="black" stroke-width="3" points="515.5,-206.95 515.5,-244.95 554.5,-244.95 554.5,-206.95 515.5,-206.95"/>
<text text-anchor="start" x="527" y="-222.25" font-family="Helvetica,Arial,sans-serif" font-size="14.00">77</text>
<defs>
<radialGradient id="r_64" cx="50%" cy="50%" r="75%" fx="74%" fy="6%">
<stop offset="0" style="stop-color:brown;stop-opacity:1.;"/>
<stop offset="1" style="stop-color:violet;stop-opacity:1.;"/>
</radialGradient>
</defs>
<polygon fill="url(#r_64)" stroke="transparent" stroke-width="3" points="566,-205.45 566,-246.45 608,-246.45 608,-205.45 566,-205.45"/>
<polygon fill="none" stroke="black" stroke-width="3" points="567.5,-206.95 567.5,-244.95 606.5,-244.95 606.5,-206.95 567.5,-206.95"/>
<text text-anchor="start" x="579" y="-222.25" font-family="Helvetica,Arial,sans-serif" font-size="14.00">78</text>
<polygon fill="brown" stroke="transparent" stroke-width="3" points="150,-154.45 150,-195.45 192,-195.45 192,-154.45 150,-154.45"/>
<polygon fill="none" stroke="black" stroke-width="3" points="151.5,-155.95 151.5,-193.95 190.5,-193.95 190.5,-155.95 151.5,-155.95"/>
<text text-anchor="start" x="163" y="-171.25" font-family="Helvetica,Arial,sans-serif" font-size="14.00">80</text>
<defs>
<radialGradient id="r_65" cx="50%" cy="50%" r="75%" fx="74%" fy="6%">
<stop offset="0" style="stop-color:brown;stop-opacity:1.;"/>
<stop offset="1" style="stop-color:green;stop-opacity:1.;"/>
</radialGradient>
</defs>
<polygon fill="url(#r_65)" stroke="transparent" stroke-width="3" points="202,-154.45 202,-195.45 244,-195.45 244,-154.45 202,-154.45"/>
<polygon fill="none" stroke="black" stroke-width="3" points="203.5,-155.95 203.5,-193.95 242.5,-193.95 242.5,-155.95 203.5,-155.95"/>
<text text-anchor="start" x="215" y="-171.25" font-family="Helvetica,Arial,sans-serif" font-size="14.00">81</text>
<defs>
<radialGradient id="r_66" cx="50%" cy="50%" r="75%" fx="74%" fy="6%">
<stop offset="0" style="stop-color:brown;stop-opacity:1.;"/>
<stop offset="1" style="stop-color:green;stop-opacity:1.;"/>
</radialGradient>
</defs>
<polygon fill="url(#r_66)" stroke="transparent" stroke-width="3" points="254,-154.45 254,-195.45 296,-195.45 296,-154.45 254,-154.45"/>
<polygon fill="none" stroke="black" stroke-width="3" points="255.5,-155.95 255.5,-193.95 294.5,-193.95 294.5,-155.95 255.5,-155.95"/>
<text text-anchor="start" x="267" y="-171.25" font-family="Helvetica,Arial,sans-serif" font-size="14.00">82</text>
<defs>
<radialGradient id="r_67" cx="50%" cy="50%" r="75%" fx="74%" fy="6%">
<stop offset="0" style="stop-color:brown;stop-opacity:1.;"/>
<stop offset="1" style="stop-color:blue;stop-opacity:1.;"/>
</radialGradient>
</defs>
<polygon fill="url(#r_67)" stroke="transparent" stroke-width="3" points="306,-154.45 306,-195.45 348,-195.45 348,-154.45 306,-154.45"/>
<polygon fill="none" stroke="black" stroke-width="3" points="307.5,-155.95 307.5,-193.95 346.5,-193.95 346.5,-155.95 307.5,-155.95"/>
<text text-anchor="start" x="319" y="-171.25" font-family="Helvetica,Arial,sans-serif" font-size="14.00">83</text>
<defs>
<radialGradient id="r_68" cx="50%" cy="50%" r="75%" fx="74%" fy="6%">
<stop offset="0" style="stop-color:brown;stop-opacity:1.;"/>
<stop offset="1" style="stop-color:blue;stop-opacity:1.;"/>
</radialGradient>
</defs>
<polygon fill="url(#r_68)" stroke="transparent" stroke-width="3" points="358,-154.45 358,-195.45 400,-195.45 400,-154.45 358,-154.45"/>
<polygon fill="none" stroke="black" stroke-width="3" points="359.5,-155.95 359.5,-193.95 398.5,-193.95 398.5,-155.95 359.5,-155.95"/>
<text text-anchor="start" x="371" y="-171.25" font-family="Helvetica,Arial,sans-serif" font-size="14.00">84</text>
<defs>
<radialGradient id="r_69" cx="50%" cy="50%" r="75%" fx="74%" fy="6%">
<stop offset="0" style="stop-color:brown;stop-opacity:1.;"/>
<stop offset="1" style="stop-color:purple;stop-opacity:1.;"/>
</radialGradient>
</defs>
<polygon fill="url(#r_69)" stroke="transparent" stroke-width="3" points="410,-154.45 410,-195.45 452,-195.45 452,-154.45 410,-154.45"/>
<polygon fill="none" stroke="black" stroke-width="3" points="411.5,-155.95 411.5,-193.95 450.5,-193.95 450.5,-155.95 411.5,-155.95"/>
<text text-anchor="start" x="423" y="-171.25" font-family="Helvetica,Arial,sans-serif" font-size="14.00">85</text>
<defs>
<radialGradient id="r_70" cx="50%" cy="50%" r="75%" fx="74%" fy="6%">
<stop offset="0" style="stop-color:brown;stop-opacity:1.;"/>
<stop offset="1" style="stop-color:purple;stop-opacity:1.;"/>
</radialGradient>
</defs>
<polygon fill="url(#r_70)" stroke="transparent" stroke-width="3" points="462,-154.45 462,-195.45 504,-195.45 504,-154.45 462,-154.45"/>
<polygon fill="none" stroke="black" stroke-width="3" points="463.5,-155.95 463.5,-193.95 502.5,-193.95 502.5,-155.95 463.5,-155.95"/>
<text text-anchor="start" x="475" y="-171.25" font-family="Helvetica,Arial,sans-serif" font-size="14.00">86</text>
<defs>
<radialGradient id="r_71" cx="50%" cy="50%" r="75%" fx="74%" fy="6%">
<stop offset="0" style="stop-color:brown;stop-opacity:1.;"/>
<stop offset="1" style="stop-color:violet;stop-opacity:1.;"/>
</radialGradient>
</defs>
<polygon fill="url(#r_71)" stroke="transparent" stroke-width="3" points="514,-154.45 514,-195.45 556,-195.45 556,-154.45 514,-154.45"/>
<polygon fill="none" stroke="black" stroke-width="3" points="515.5,-155.95 515.5,-193.95 554.5,-193.95 554.5,-155.95 515.5,-155.95"/>
<text text-anchor="start" x="527" y="-171.25" font-family="Helvetica,Arial,sans-serif" font-size="14.00">87</text>
<defs>
<radialGradient id="r_72" cx="50%" cy="50%" r="75%" fx="74%" fy="6%">
<stop offset="0" style="stop-color:brown;stop-opacity:1.;"/>
<stop offset="1" style="stop-color:violet;stop-opacity:1.;"/>
</radialGradient>
</defs>
<polygon fill="url(#r_72)" stroke="transparent" stroke-width="3" points="566,-154.45 566,-195.45 608,-195.45 608,-154.45 566,-154.45"/>
<polygon fill="none" stroke="black" stroke-width="3" points="567.5,-155.95 567.5,-193.95 606.5,-193.95 606.5,-155.95 567.5,-155.95"/>
<text text-anchor="start" x="579" y="-171.25" font-family="Helvetica,Arial,sans-serif" font-size="14.00">88</text>
<path fill="none" stroke="black" stroke-width="10" d="M147,-139.95C147,-139.95 611,-139.95 611,-139.95 617,-139.95 623,-145.95 623,-151.95 623,-151.95 623,-606.95 623,-606.95 623,-612.95 617,-618.95 611,-618.95 611,-618.95 147,-618.95 147,-618.95 141,-618.95 135,-612.95 135,-606.95 135,-606.95 135,-151.95 135,-151.95 135,-145.95 141,-139.95 147,-139.95"/>
</g>
</g>
</svg>
