<?xml version="1.0" encoding="UTF-8" standalone="no"?>
<!DOCTYPE svg PUBLIC "-//W3C//DTD SVG 1.1//EN"
 "http://www.w3.org/Graphics/SVG/1.1/DTD/svg11.dtd">
<!-- Generated by graphviz version 2.43.0 (0)
 -->
<!-- Title: G Pages: 1 -->
<svg width="548pt" height="524pt"
 viewBox="0.00 0.00 548.00 524.00" xmlns="http://www.w3.org/2000/svg" xmlns:xlink="http://www.w3.org/1999/xlink">
<g id="graph0" class="graph" transform="scale(1 1) rotate(0) translate(4 520)">
<title>G</title>
<defs>
<linearGradient id="l_0" gradientUnits="userSpaceOnUse" x1="-4" y1="-258" x2="544" y2="-258" >
<stop offset="0" style="stop-color:yellow;stop-opacity:1.;"/>
<stop offset="1" style="stop-color:red;stop-opacity:1.;"/>
</linearGradient>
</defs>
<polygon fill="url(#l_0)" stroke="transparent" points="-4,4 -4,-520 544,-520 544,4 -4,4"/>
<g id="clust1" class="cluster">
<title>cluster1</title>
<defs>
<linearGradient id="l_1" gradientUnits="userSpaceOnUse" x1="8" y1="-258" x2="532" y2="-258" >
<stop offset="0" style="stop-color:blue;stop-opacity:1.;"/>
<stop offset="1" style="stop-color:green;stop-opacity:1.;"/>
</linearGradient>
</defs>
<polygon fill="url(#l_1)" stroke="black" points="8,-8 8,-508 532,-508 532,-8 8,-8"/>
</g>
<!-- a0 -->
<g id="node1" class="node">
<title>a0</title>
<defs>
<radialGradient id="r_0" cx="50%" cy="50%" r="75%" fx="0%" fy="50%">
<stop offset="0" style="stop-color:gold;stop-opacity:1.;"/>
<stop offset="1" style="stop-color:brown;stop-opacity:1.;"/>
</radialGradient>
</defs>
<polygon fill="url(#r_0)" stroke="black" points="270,-500 16,-258 270,-16 524,-258 270,-500"/>
<defs>
<linearGradient id="l_2" gradientUnits="userSpaceOnUse" x1="189.39" y1="-337.2" x2="350.61" y2="-178.8" >
<stop offset="0" style="stop-color:#a50026;stop-opacity:1.;"/>
<stop offset="1" style="stop-color:#006837;stop-opacity:1.;"/>
</linearGradient>
</defs>
<path fill="url(#l_2)" stroke="transparent" d="M168,-146C168,-146 372,-146 372,-146 378,-146 384,-152 384,-158 384,-158 384,-358 384,-358 384,-364 378,-370 372,-370 372,-370 168,-370 168,-370 162,-370 156,-364 156,-358 156,-358 156,-158 156,-158 156,-152 162,-146 168,-146"/>
<defs>
<linearGradient id="l_3" gradientUnits="userSpaceOnUse" x1="171" y1="-334.5" x2="213" y2="-334.5" >
<stop offset="0" style="stop-color:#a50026;stop-opacity:1.;"/>
<stop offset="1" style="stop-color:#d73027;stop-opacity:1.;"/>
</linearGradient>
</defs>
<polygon fill="url(#l_3)" stroke="transparent" points="171,-314 171,-355 213,-355 213,-314 171,-314"/>
<polygon fill="none" stroke="black" stroke-width="3" points="172.5,-315.5 172.5,-353.5 211.5,-353.5 211.5,-315.5 172.5,-315.5"/>
<text text-anchor="start" x="184" y="-330.8" font-family="Helvetica,Arial,sans-serif" font-size="14.00">00</text>
<defs>
<linearGradient id="l_4" gradientUnits="userSpaceOnUse" x1="223" y1="-334.5" x2="265" y2="-334.5" >
<stop offset="0" style="stop-color:#d73027;stop-opacity:1.;"/>
<stop offset="1" style="stop-color:#f46d43;stop-opacity:1.;"/>
</linearGradient>
</defs>
<polygon fill="url(#l_4)" stroke="transparent" stroke-width="3" points="223,-314 223,-355 265,-355 265,-314 223,-314"/>
<polygon fill="none" stroke="black" stroke-width="3" points="224.5,-315.5 224.5,-353.5 263.5,-353.5 263.5,-315.5 224.5,-315.5"/>
<text text-anchor="start" x="236" y="-330.8" font-family="Helvetica,Arial,sans-serif" font-size="14.00">01</text>
<defs>
<linearGradient id="l_5" gradientUnits="userSpaceOnUse" x1="275" y1="-334.5" x2="317" y2="-334.5" >
<stop offset="0" style="stop-color:#f46d43;stop-opacity:1.;"/>
<stop offset="1" style="stop-color:#fdae61;stop-opacity:1.;"/>
</linearGradient>
</defs>
<polygon fill="url(#l_5)" stroke="transparent" stroke-width="3" points="275,-314 275,-355 317,-355 317,-314 275,-314"/>
<polygon fill="none" stroke="black" stroke-width="3" points="276.5,-315.5 276.5,-353.5 315.5,-353.5 315.5,-315.5 276.5,-315.5"/>
<text text-anchor="start" x="288" y="-330.8" font-family="Helvetica,Arial,sans-serif" font-size="14.00">02</text>
<defs>
<linearGradient id="l_6" gradientUnits="userSpaceOnUse" x1="327" y1="-334.5" x2="369" y2="-334.5" >
<stop offset="0" style="stop-color:#fdae61;stop-opacity:1.;"/>
<stop offset="1" style="stop-color:#fee08b;stop-opacity:1.;"/>
</linearGradient>
</defs>
<polygon fill="url(#l_6)" stroke="transparent" stroke-width="3" points="327,-314 327,-355 369,-355 369,-314 327,-314"/>
<polygon fill="none" stroke="black" stroke-width="3" points="328.5,-315.5 328.5,-353.5 367.5,-353.5 367.5,-315.5 328.5,-315.5"/>
<text text-anchor="start" x="340" y="-330.8" font-family="Helvetica,Arial,sans-serif" font-size="14.00">03</text>
<defs>
<linearGradient id="l_7" gradientUnits="userSpaceOnUse" x1="192" y1="-304" x2="192" y2="-263" >
<stop offset="0" style="stop-color:#a50026;stop-opacity:1.;"/>
<stop offset="1" style="stop-color:#ffffbf;stop-opacity:1.;"/>
</linearGradient>
</defs>
<polygon fill="url(#l_7)" stroke="transparent" stroke-width="3" points="171,-263 171,-304 213,-304 213,-263 171,-263"/>
<polygon fill="none" stroke="black" stroke-width="3" points="172.5,-264.5 172.5,-302.5 211.5,-302.5 211.5,-264.5 172.5,-264.5"/>
<text text-anchor="start" x="184" y="-279.8" font-family="Helvetica,Arial,sans-serif" font-size="14.00">10</text>
<defs>
<linearGradient id="l_8" gradientUnits="userSpaceOnUse" x1="244" y1="-304" x2="244" y2="-212" >
<stop offset="0" style="stop-color:#f46d43;stop-opacity:1.;"/>
<stop offset="1" style="stop-color:#66bd63;stop-opacity:1.;"/>
</linearGradient>
</defs>
<polygon fill="url(#l_8)" stroke="transparent" stroke-width="3" points="223,-212 223,-304 265,-304 265,-212 223,-212"/>
<polygon fill="none" stroke="black" stroke-width="3" points="224.5,-213.5 224.5,-302.5 263.5,-302.5 263.5,-213.5 224.5,-213.5"/>
<text text-anchor="start" x="236" y="-254.3" font-family="Helvetica,Arial,sans-serif" font-size="14.00">11</text>
<defs>
<linearGradient id="l_9" gradientUnits="userSpaceOnUse" x1="296" y1="-304" x2="296" y2="-263" >
<stop offset="0" style="stop-color:#f46d43;stop-opacity:1.;"/>
<stop offset="1" style="stop-color:#a6d96a;stop-opacity:1.;"/>
</linearGradient>
</defs>
<polygon fill="url(#l_9)" stroke="transparent" stroke-width="3" points="275,-263 275,-304 317,-304 317,-263 275,-263"/>
<polygon fill="none" stroke="black" stroke-width="3" points="276.5,-264.5 276.5,-302.5 315.5,-302.5 315.5,-264.5 276.5,-264.5"/>
<text text-anchor="start" x="288" y="-279.8" font-family="Helvetica,Arial,sans-serif" font-size="14.00">12</text>
<defs>
<linearGradient id="l_10" gradientUnits="userSpaceOnUse" x1="348" y1="-304" x2="348" y2="-263" >
<stop offset="0" style="stop-color:#fdae61;stop-opacity:1.;"/>
<stop offset="1" style="stop-color:#66bd63;stop-opacity:1.;"/>
</linearGradient>
</defs>
<polygon fill="url(#l_10)" stroke="transparent" stroke-width="3" points="327,-263 327,-304 369,-304 369,-263 327,-263"/>
<polygon fill="none" stroke="black" stroke-width="3" points="328.5,-264.5 328.5,-302.5 367.5,-302.5 367.5,-264.5 328.5,-264.5"/>
<text text-anchor="start" x="340" y="-279.8" font-family="Helvetica,Arial,sans-serif" font-size="14.00">13</text>
<defs>
<linearGradient id="l_11" gradientUnits="userSpaceOnUse" x1="192" y1="-253" x2="192" y2="-212" >
<stop offset="0" style="stop-color:#ffffbf;stop-opacity:1.;"/>
<stop offset="1" style="stop-color:#66bd63;stop-opacity:1.;"/>
</linearGradient>
</defs>
<polygon fill="url(#l_11)" stroke="transparent" stroke-width="3" points="171,-212 171,-253 213,-253 213,-212 171,-212"/>
<polygon fill="none" stroke="black" stroke-width="3" points="172.5,-213.5 172.5,-251.5 211.5,-251.5 211.5,-213.5 172.5,-213.5"/>
<text text-anchor="start" x="184" y="-228.8" font-family="Helvetica,Arial,sans-serif" font-size="14.00">20</text>
<defs>
<linearGradient id="l_12" gradientUnits="userSpaceOnUse" x1="275" y1="-232.5" x2="369" y2="-232.5" >
<stop offset="0" style="stop-color:#66bd63;stop-opacity:1.;"/>
<stop offset="1" style="stop-color:#006837;stop-opacity:1.;"/>
</linearGradient>
</defs>
<polygon fill="url(#l_12)" stroke="transparent" stroke-width="3" points="275,-212 275,-253 369,-253 369,-212 275,-212"/>
<polygon fill="none" stroke="black" stroke-width="3" points="276.5,-213.5 276.5,-251.5 367.5,-251.5 367.5,-213.5 276.5,-213.5"/>
<text text-anchor="start" x="314" y="-228.8" font-family="Helvetica,Arial,sans-serif" font-size="14.00">22</text>
<defs>
<radialGradient id="r_1" cx="50%" cy="50%" r="75%" fx="50%" fy="50%">
<stop offset="0" style="stop-color:#a50026;stop-opacity:1.;"/>
<stop offset="1" style="stop-color:#a6d96a;stop-opacity:1.;"/>
</radialGradient>
</defs>
<polygon fill="url(#r_1)" stroke="transparent" stroke-width="3" points="171,-161 171,-202 213,-202 213,-161 171,-161"/>
<polygon fill="none" stroke="black" stroke-width="3" points="172.5,-162.5 172.5,-200.5 211.5,-200.5 211.5,-162.5 172.5,-162.5"/>
<text text-anchor="start" x="184" y="-177.8" font-family="Helvetica,Arial,sans-serif" font-size="14.00">30</text>
<defs>
<radialGradient id="r_2" cx="50%" cy="50%" r="75%" fx="85%" fy="14%">
<stop offset="0" style="stop-color:#a50026;stop-opacity:1.;"/>
<stop offset="1" style="stop-color:#a6d96a;stop-opacity:1.;"/>
</radialGradient>
</defs>
<polygon fill="url(#r_2)" stroke="transparent" stroke-width="3" points="223,-161 223,-202 265,-202 265,-161 223,-161"/>
<polygon fill="none" stroke="black" stroke-width="3" points="224.5,-162.5 224.5,-200.5 263.5,-200.5 263.5,-162.5 224.5,-162.5"/>
<text text-anchor="start" x="236" y="-177.8" font-family="Helvetica,Arial,sans-serif" font-size="14.00">31</text>
<defs>
<radialGradient id="r_3" cx="50%" cy="50%" r="75%" fx="49%" fy="0%">
<stop offset="0" style="stop-color:#a50026;stop-opacity:1.;"/>
<stop offset="1" style="stop-color:#a6d96a;stop-opacity:1.;"/>
</radialGradient>
</defs>
<polygon fill="url(#r_3)" stroke="transparent" stroke-width="3" points="275,-161 275,-202 317,-202 317,-161 275,-161"/>
<polygon fill="none" stroke="black" stroke-width="3" points="276.5,-162.5 276.5,-200.5 315.5,-200.5 315.5,-162.5 276.5,-162.5"/>
<text text-anchor="start" x="288" y="-177.8" font-family="Helvetica,Arial,sans-serif" font-size="14.00">32</text>
<defs>
<radialGradient id="r_4" cx="50%" cy="50%" r="75%" fx="0%" fy="50%">
<stop offset="0" style="stop-color:#a50026;stop-opacity:1.;"/>
<stop offset="1" style="stop-color:#a6d96a;stop-opacity:1.;"/>
</radialGradient>
</defs>
<polygon fill="url(#r_4)" stroke="transparent" stroke-width="3" points="327,-161 327,-202 369,-202 369,-161 327,-161"/>
<polygon fill="none" stroke="black" stroke-width="3" points="328.5,-162.5 328.5,-200.5 367.5,-200.5 367.5,-162.5 328.5,-162.5"/>
<text text-anchor="start" x="340" y="-177.8" font-family="Helvetica,Arial,sans-serif" font-size="14.00">33</text>
<path fill="none" stroke="black" stroke-width="10" d="M168,-146C168,-146 372,-146 372,-146 378,-146 384,-152 384,-158 384,-158 384,-358 384,-358 384,-364 378,-370 372,-370 372,-370 168,-370 168,-370 162,-370 156,-364 156,-358 156,-358 156,-158 156,-158 156,-152 162,-146 168,-146"/>
</g>
</g>
</svg>
