<?xml version="1.0" encoding="UTF-8" standalone="no"?>
<!DOCTYPE svg PUBLIC "-//W3C//DTD SVG 1.1//EN"
 "http://www.w3.org/Graphics/SVG/1.1/DTD/svg11.dtd">
<!-- Generated by graphviz version 2.29.0 (20120110.1522)
 -->
<!-- Title: G Pages: 1 -->
<svg width="534pt" height="518pt"
 viewBox="0.00 0.00 534.00 518.00" xmlns="http://www.w3.org/2000/svg" xmlns:xlink="http://www.w3.org/1999/xlink">
<g id="graph1" class="graph" transform="scale(1 1) rotate(0) translate(4 514)">
<title>G</title>
<defs>
<linearGradient id="l_0" gradientUnits="userSpaceOnUse" x1="-4" y1="-254.5" x2="531" y2="-254.5" >
<stop offset="0" style="stop-color:yellow;stop-opacity:1.;"/>
<stop offset="1" style="stop-color:red;stop-opacity:1.;"/>
</linearGradient>
</defs>
<polygon fill="url(#l_0)" points="-4,5 -4,-514 531,-514 531,5 -4,5"/>
<g id="graph2" class="cluster"><title>cluster1</title>
<defs>
<linearGradient id="l_1" gradientUnits="userSpaceOnUse" x1="8" y1="-255" x2="518" y2="-255" >
<stop offset="0" style="stop-color:blue;stop-opacity:1.;"/>
<stop offset="1" style="stop-color:green;stop-opacity:1.;"/>
</linearGradient>
</defs>
<polygon fill="url(#l_1)" points="8,-8 8,-502 518,-502 518,-8 8,-8"/>
</g>
<!-- a0 -->
<g id="node2" class="node"><title>a0</title>
<defs>
<radialGradient id="r_2" cx="50%" cy="50%" r="75%" fx="0%" fy="50%">
<stop offset="0" style="stop-color:gold;stop-opacity:1.;"/>
<stop offset="1" style="stop-color:brown;stop-opacity:1.;"/>
</radialGradient>
</defs>
<polygon fill="url(#r_2)" points="263,-494 16,-255 263,-16 510,-255 263,-494"/>
<defs>
<linearGradient id="l_3" gradientUnits="userSpaceOnUse" x1="184.865" y1="-333.135" x2="341.135" y2="-176.865" >
<stop offset="0" style="stop-color:#a50026;stop-opacity:1.;"/>
<stop offset="1" style="stop-color:#006837;stop-opacity:1.;"/>
</linearGradient>
</defs>
<polygon fill="url(#l_3)" points="164.5,-144.5 361.5,-144.5 373.5,-156.5 373.5,-353.5 361.5,-365.5 164.5,-365.5 152.5,-353.5 152.5,-156.5 164.5,-144.5"/>
<path fill="#006837" stroke="#006837" d="M361.5,-144.5C367.5,-144.5 373.5,-150.5 373.5,-156.5"/>
<path fill="#006837" stroke="#006837" d="M373.5,-353.5C373.5,-359.5 367.5,-365.5 361.5,-365.5"/>
<path fill="#006837" stroke="#006837" d="M164.5,-365.5C158.5,-365.5 152.5,-359.5 152.5,-353.5"/>
<path fill="#006837" stroke="#006837" d="M152.5,-156.5C152.5,-150.5 158.5,-144.5 164.5,-144.5"/>
<polygon fill="black" stroke="black" points="168,-309 168,-350 170,-350 170,-309 168,-309"/>
<polygon fill="black" stroke="black" points="168,-350 168,-348 209,-348 209,-350 168,-350"/>
<polygon fill="black" stroke="black" points="209,-350 209,-309 207,-309 207,-350 209,-350"/>
<polygon fill="black" stroke="black" points="209,-309 209,-311 168,-311 168,-309 209,-309"/>
<defs>
<linearGradient id="l_4" gradientUnits="userSpaceOnUse" x1="168" y1="-329.5" x2="209" y2="-329.5" >
<stop offset="0" style="stop-color:#a50026;stop-opacity:1.;"/>
<stop offset="1" style="stop-color:#d73027;stop-opacity:1.;"/>
</linearGradient>
</defs>
<polygon fill="url(#l_4)" points="168,-309 168,-350 209,-350 209,-309 168,-309"/>
<text text-anchor="start" x="181.5" y="-326.3" font-family="Times,serif" font-size="14.00">00</text>
<polygon fill="black" stroke="black" points="219,-309 219,-350 221,-350 221,-309 219,-309"/>
<polygon fill="black" stroke="black" points="219,-350 219,-348 259,-348 259,-350 219,-350"/>
<polygon fill="black" stroke="black" points="259,-350 259,-309 257,-309 257,-350 259,-350"/>
<polygon fill="black" stroke="black" points="259,-309 259,-311 219,-311 219,-309 259,-309"/>
<defs>
<linearGradient id="l_5" gradientUnits="userSpaceOnUse" x1="219" y1="-329.5" x2="259" y2="-329.5" >
<stop offset="0" style="stop-color:#d73027;stop-opacity:1.;"/>
<stop offset="1" style="stop-color:#f46d43;stop-opacity:1.;"/>
</linearGradient>
</defs>
<polygon fill="url(#l_5)" points="219,-309 219,-350 259,-350 259,-309 219,-309"/>
<text text-anchor="start" x="232" y="-326.3" font-family="Times,serif" font-size="14.00">01</text>
<polygon fill="black" stroke="black" points="269,-309 269,-350 271,-350 271,-309 269,-309"/>
<polygon fill="black" stroke="black" points="269,-350 269,-348 309,-348 309,-350 269,-350"/>
<polygon fill="black" stroke="black" points="309,-350 309,-309 307,-309 307,-350 309,-350"/>
<polygon fill="black" stroke="black" points="309,-309 309,-311 269,-311 269,-309 309,-309"/>
<defs>
<linearGradient id="l_6" gradientUnits="userSpaceOnUse" x1="269" y1="-329.5" x2="309" y2="-329.5" >
<stop offset="0" style="stop-color:#f46d43;stop-opacity:1.;"/>
<stop offset="1" style="stop-color:#fdae61;stop-opacity:1.;"/>
</linearGradient>
</defs>
<polygon fill="url(#l_6)" points="269,-309 269,-350 309,-350 309,-309 269,-309"/>
<text text-anchor="start" x="282" y="-326.3" font-family="Times,serif" font-size="14.00">02</text>
<polygon fill="black" stroke="black" points="319,-309 319,-350 321,-350 321,-309 319,-309"/>
<polygon fill="black" stroke="black" points="319,-350 319,-348 359,-348 359,-350 319,-350"/>
<polygon fill="black" stroke="black" points="359,-350 359,-309 357,-309 357,-350 359,-350"/>
<polygon fill="black" stroke="black" points="359,-309 359,-311 319,-311 319,-309 359,-309"/>
<defs>
<linearGradient id="l_7" gradientUnits="userSpaceOnUse" x1="319" y1="-329.5" x2="359" y2="-329.5" >
<stop offset="0" style="stop-color:#fdae61;stop-opacity:1.;"/>
<stop offset="1" style="stop-color:#fee08b;stop-opacity:1.;"/>
</linearGradient>
</defs>
<polygon fill="url(#l_7)" points="319,-309 319,-350 359,-350 359,-309 319,-309"/>
<text text-anchor="start" x="332" y="-326.3" font-family="Times,serif" font-size="14.00">03</text>
<polygon fill="black" stroke="black" points="168,-259 168,-299 170,-299 170,-259 168,-259"/>
<polygon fill="black" stroke="black" points="168,-299 168,-297 209,-297 209,-299 168,-299"/>
<polygon fill="black" stroke="black" points="209,-299 209,-259 207,-259 207,-299 209,-299"/>
<polygon fill="black" stroke="black" points="209,-259 209,-261 168,-261 168,-259 209,-259"/>
<defs>
<linearGradient id="l_8" gradientUnits="userSpaceOnUse" x1="188.5" y1="-299" x2="188.5" y2="-259" >
<stop offset="0" style="stop-color:#a50026;stop-opacity:1.;"/>
<stop offset="1" style="stop-color:#ffffbf;stop-opacity:1.;"/>
</linearGradient>
</defs>
<polygon fill="url(#l_8)" points="168,-259 168,-299 209,-299 209,-259 168,-259"/>
<text text-anchor="start" x="181.5" y="-275.8" font-family="Times,serif" font-size="14.00">10</text>
<polygon fill="black" stroke="black" points="219,-209 219,-299 221,-299 221,-209 219,-209"/>
<polygon fill="black" stroke="black" points="219,-299 219,-297 259,-297 259,-299 219,-299"/>
<polygon fill="black" stroke="black" points="259,-299 259,-209 257,-209 257,-299 259,-299"/>
<polygon fill="black" stroke="black" points="259,-209 259,-211 219,-211 219,-209 259,-209"/>
<defs>
<linearGradient id="l_9" gradientUnits="userSpaceOnUse" x1="239" y1="-299" x2="239" y2="-209" >
<stop offset="0" style="stop-color:#f46d43;stop-opacity:1.;"/>
<stop offset="1" style="stop-color:#66bd63;stop-opacity:1.;"/>
</linearGradient>
</defs>
<polygon fill="url(#l_9)" points="219,-209 219,-299 259,-299 259,-209 219,-209"/>
<text text-anchor="start" x="232" y="-250.8" font-family="Times,serif" font-size="14.00">11</text>
<polygon fill="black" stroke="black" points="269,-259 269,-299 271,-299 271,-259 269,-259"/>
<polygon fill="black" stroke="black" points="269,-299 269,-297 309,-297 309,-299 269,-299"/>
<polygon fill="black" stroke="black" points="309,-299 309,-259 307,-259 307,-299 309,-299"/>
<polygon fill="black" stroke="black" points="309,-259 309,-261 269,-261 269,-259 309,-259"/>
<defs>
<linearGradient id="l_10" gradientUnits="userSpaceOnUse" x1="289" y1="-299" x2="289" y2="-259" >
<stop offset="0" style="stop-color:#f46d43;stop-opacity:1.;"/>
<stop offset="1" style="stop-color:#a6d96a;stop-opacity:1.;"/>
</linearGradient>
</defs>
<polygon fill="url(#l_10)" points="269,-259 269,-299 309,-299 309,-259 269,-259"/>
<text text-anchor="start" x="282" y="-275.8" font-family="Times,serif" font-size="14.00">12</text>
<polygon fill="black" stroke="black" points="319,-259 319,-299 321,-299 321,-259 319,-259"/>
<polygon fill="black" stroke="black" points="319,-299 319,-297 359,-297 359,-299 319,-299"/>
<polygon fill="black" stroke="black" points="359,-299 359,-259 357,-259 357,-299 359,-299"/>
<polygon fill="black" stroke="black" points="359,-259 359,-261 319,-261 319,-259 359,-259"/>
<defs>
<linearGradient id="l_11" gradientUnits="userSpaceOnUse" x1="339" y1="-299" x2="339" y2="-259" >
<stop offset="0" style="stop-color:#fdae61;stop-opacity:1.;"/>
<stop offset="1" style="stop-color:#66bd63;stop-opacity:1.;"/>
</linearGradient>
</defs>
<polygon fill="url(#l_11)" points="319,-259 319,-299 359,-299 359,-259 319,-259"/>
<text text-anchor="start" x="332" y="-275.8" font-family="Times,serif" font-size="14.00">13</text>
<polygon fill="black" stroke="black" points="168,-209 168,-249 170,-249 170,-209 168,-209"/>
<polygon fill="black" stroke="black" points="168,-249 168,-247 209,-247 209,-249 168,-249"/>
<polygon fill="black" stroke="black" points="209,-249 209,-209 207,-209 207,-249 209,-249"/>
<polygon fill="black" stroke="black" points="209,-209 209,-211 168,-211 168,-209 209,-209"/>
<defs>
<linearGradient id="l_12" gradientUnits="userSpaceOnUse" x1="188.5" y1="-249" x2="188.5" y2="-209" >
<stop offset="0" style="stop-color:#ffffbf;stop-opacity:1.;"/>
<stop offset="1" style="stop-color:#66bd63;stop-opacity:1.;"/>
</linearGradient>
</defs>
<polygon fill="url(#l_12)" points="168,-209 168,-249 209,-249 209,-209 168,-209"/>
<text text-anchor="start" x="181.5" y="-225.8" font-family="Times,serif" font-size="14.00">20</text>
<polygon fill="black" stroke="black" points="269,-209 269,-249 271,-249 271,-209 269,-209"/>
<polygon fill="black" stroke="black" points="269,-249 269,-247 359,-247 359,-249 269,-249"/>
<polygon fill="black" stroke="black" points="359,-249 359,-209 357,-209 357,-249 359,-249"/>
<polygon fill="black" stroke="black" points="359,-209 359,-211 269,-211 269,-209 359,-209"/>
<defs>
<linearGradient id="l_13" gradientUnits="userSpaceOnUse" x1="269" y1="-229" x2="359" y2="-229" >
<stop offset="0" style="stop-color:#66bd63;stop-opacity:1.;"/>
<stop offset="1" style="stop-color:#006837;stop-opacity:1.;"/>
</linearGradient>
</defs>
<polygon fill="url(#l_13)" points="269,-209 269,-249 359,-249 359,-209 269,-209"/>
<text text-anchor="start" x="307" y="-225.8" font-family="Times,serif" font-size="14.00">22</text>
<polygon fill="black" stroke="black" points="168,-159 168,-199 170,-199 170,-159 168,-159"/>
<polygon fill="black" stroke="black" points="168,-199 168,-197 209,-197 209,-199 168,-199"/>
<polygon fill="black" stroke="black" points="209,-199 209,-159 207,-159 207,-199 209,-199"/>
<polygon fill="black" stroke="black" points="209,-159 209,-161 168,-161 168,-159 209,-159"/>
<defs>
<radialGradient id="r_14" cx="50%" cy="50%" r="75%" fx="50%" fy="50%">
<stop offset="0" style="stop-color:#a50026;stop-opacity:1.;"/>
<stop offset="1" style="stop-color:#a6d96a;stop-opacity:1.;"/>
</radialGradient>
</defs>
<polygon fill="url(#r_14)" points="168,-159 168,-199 209,-199 209,-159 168,-159"/>
<text text-anchor="start" x="181.5" y="-175.8" font-family="Times,serif" font-size="14.00">30</text>
<polygon fill="black" stroke="black" points="219,-159 219,-199 221,-199 221,-159 219,-159"/>
<polygon fill="black" stroke="black" points="219,-199 219,-197 259,-197 259,-199 219,-199"/>
<polygon fill="black" stroke="black" points="259,-199 259,-159 257,-159 257,-199 259,-199"/>
<polygon fill="black" stroke="black" points="259,-159 259,-161 219,-161 219,-159 259,-159"/>
<defs>
<radialGradient id="r_15" cx="50%" cy="50%" r="75%" fx="85%" fy="14%">
<stop offset="0" style="stop-color:#a50026;stop-opacity:1.;"/>
<stop offset="1" style="stop-color:#a6d96a;stop-opacity:1.;"/>
</radialGradient>
</defs>
<polygon fill="url(#r_15)" points="219,-159 219,-199 259,-199 259,-159 219,-159"/>
<text text-anchor="start" x="232" y="-175.8" font-family="Times,serif" font-size="14.00">31</text>
<polygon fill="black" stroke="black" points="269,-159 269,-199 271,-199 271,-159 269,-159"/>
<polygon fill="black" stroke="black" points="269,-199 269,-197 309,-197 309,-199 269,-199"/>
<polygon fill="black" stroke="black" points="309,-199 309,-159 307,-159 307,-199 309,-199"/>
<polygon fill="black" stroke="black" points="309,-159 309,-161 269,-161 269,-159 309,-159"/>
<defs>
<radialGradient id="r_16" cx="50%" cy="50%" r="75%" fx="49%" fy="0%">
<stop offset="0" style="stop-color:#a50026;stop-opacity:1.;"/>
<stop offset="1" style="stop-color:#a6d96a;stop-opacity:1.;"/>
</radialGradient>
</defs>
<polygon fill="url(#r_16)" points="269,-159 269,-199 309,-199 309,-159 269,-159"/>
<text text-anchor="start" x="282" y="-175.8" font-family="Times,serif" font-size="14.00">32</text>
<polygon fill="black" stroke="black" points="319,-159 319,-199 321,-199 321,-159 319,-159"/>
<polygon fill="black" stroke="black" points="319,-199 319,-197 359,-197 359,-199 319,-199"/>
<polygon fill="black" stroke="black" points="359,-199 359,-159 357,-159 357,-199 359,-199"/>
<polygon fill="black" stroke="black" points="359,-159 359,-161 319,-161 319,-159 359,-159"/>
<defs>
<radialGradient id="r_17" cx="50%" cy="50%" r="75%" fx="0%" fy="50%">
<stop offset="0" style="stop-color:#a50026;stop-opacity:1.;"/>
<stop offset="1" style="stop-color:#a6d96a;stop-opacity:1.;"/>
</radialGradient>
</defs>
<polygon fill="url(#r_17)" points="319,-159 319,-199 359,-199 359,-159 319,-159"/>
<text text-anchor="start" x="332" y="-175.8" font-family="Times,serif" font-size="14.00">33</text>
<polyline fill="none" stroke="black" stroke-width="10" points="164.5,-144.5 361.5,-144.5 "/>
<path fill="none" stroke="black" stroke-width="10" d="M361.5,-144.5C367.5,-144.5 373.5,-150.5 373.5,-156.5"/>
<polyline fill="none" stroke="black" stroke-width="10" points="373.5,-156.5 373.5,-353.5 "/>
<path fill="none" stroke="black" stroke-width="10" d="M373.5,-353.5C373.5,-359.5 367.5,-365.5 361.5,-365.5"/>
<polyline fill="none" stroke="black" stroke-width="10" points="361.5,-365.5 164.5,-365.5 "/>
<path fill="none" stroke="black" stroke-width="10" d="M164.5,-365.5C158.5,-365.5 152.5,-359.5 152.5,-353.5"/>
<polyline fill="none" stroke="black" stroke-width="10" points="152.5,-353.5 152.5,-156.5 "/>
<path fill="none" stroke="black" stroke-width="10" d="M152.5,-156.5C152.5,-150.5 158.5,-144.5 164.5,-144.5"/>
</g>
</g>
</svg>
