<?xml version="1.0" encoding="UTF-8" standalone="no"?>
<!DOCTYPE svg PUBLIC "-//W3C//DTD SVG 1.1//EN"
 "http://www.w3.org/Graphics/SVG/1.1/DTD/svg11.dtd">
<!-- Generated by graphviz version 2.43.0 (0)
 -->
<!-- Title: G Pages: 1 -->
<svg width="242pt" height="230pt"
 viewBox="0.00 0.00 242.00 230.00" xmlns="http://www.w3.org/2000/svg" xmlns:xlink="http://www.w3.org/1999/xlink">
<g id="graph0" class="graph" transform="scale(1 1) rotate(0) translate(4 226)">
<title>G</title>
<polygon fill="white" stroke="transparent" points="-4,4 -4,-226 238,-226 238,4 -4,4"/>
<!-- a0 -->
<g id="node1" class="node">
<title>a0</title>
<defs>
<linearGradient id="l_0" gradientUnits="userSpaceOnUse" x1="39.93" y1="-186.66" x2="194.07" y2="-35.34" >
<stop offset="0" style="stop-color:#a50026;stop-opacity:1.;"/>
<stop offset="1" style="stop-color:#006837;stop-opacity:1.;"/>
</linearGradient>
</defs>
<path fill="url(#l_0)" stroke="transparent" d="M20,-4C20,-4 214,-4 214,-4 220,-4 226,-10 226,-16 226,-16 226,-206 226,-206 226,-212 220,-218 214,-218 214,-218 20,-218 20,-218 14,-218 8,-212 8,-206 8,-206 8,-16 8,-16 8,-10 14,-4 20,-4"/>
<defs>
<linearGradient id="l_1" gradientUnits="userSpaceOnUse" x1="18" y1="-187.5" x2="60" y2="-187.5" >
<stop offset="0" style="stop-color:#a50026;stop-opacity:1.;"/>
<stop offset="1" style="stop-color:#d73027;stop-opacity:1.;"/>
</linearGradient>
</defs>
<polygon fill="url(#l_1)" stroke="transparent" points="18,-167 18,-208 60,-208 60,-167 18,-167"/>
<polygon fill="none" stroke="black" stroke-width="3" points="19.5,-168.5 19.5,-206.5 58.5,-206.5 58.5,-168.5 19.5,-168.5"/>
<text text-anchor="start" x="31" y="-183.8" font-family="Helvetica,Arial,sans-serif" font-size="14.00">00</text>
<defs>
<linearGradient id="l_2" gradientUnits="userSpaceOnUse" x1="70" y1="-187.5" x2="112" y2="-187.5" >
<stop offset="0" style="stop-color:#d73027;stop-opacity:1.;"/>
<stop offset="1" style="stop-color:#f46d43;stop-opacity:1.;"/>
</linearGradient>
</defs>
<polygon fill="url(#l_2)" stroke="transparent" stroke-width="3" points="70,-167 70,-208 112,-208 112,-167 70,-167"/>
<polygon fill="none" stroke="black" stroke-width="3" points="71.5,-168.5 71.5,-206.5 110.5,-206.5 110.5,-168.5 71.5,-168.5"/>
<text text-anchor="start" x="83" y="-183.8" font-family="Helvetica,Arial,sans-serif" font-size="14.00">01</text>
<defs>
<linearGradient id="l_3" gradientUnits="userSpaceOnUse" x1="122" y1="-187.5" x2="164" y2="-187.5" >
<stop offset="0" style="stop-color:#f46d43;stop-opacity:1.;"/>
<stop offset="1" style="stop-color:#fdae61;stop-opacity:1.;"/>
</linearGradient>
</defs>
<polygon fill="url(#l_3)" stroke="transparent" stroke-width="3" points="122,-167 122,-208 164,-208 164,-167 122,-167"/>
<polygon fill="none" stroke="black" stroke-width="3" points="123.5,-168.5 123.5,-206.5 162.5,-206.5 162.5,-168.5 123.5,-168.5"/>
<text text-anchor="start" x="135" y="-183.8" font-family="Helvetica,Arial,sans-serif" font-size="14.00">02</text>
<defs>
<linearGradient id="l_4" gradientUnits="userSpaceOnUse" x1="174" y1="-187.5" x2="216" y2="-187.5" >
<stop offset="0" style="stop-color:#fdae61;stop-opacity:1.;"/>
<stop offset="1" style="stop-color:#fee08b;stop-opacity:1.;"/>
</linearGradient>
</defs>
<polygon fill="url(#l_4)" stroke="transparent" stroke-width="3" points="174,-167 174,-208 216,-208 216,-167 174,-167"/>
<polygon fill="none" stroke="black" stroke-width="3" points="175.5,-168.5 175.5,-206.5 214.5,-206.5 214.5,-168.5 175.5,-168.5"/>
<text text-anchor="start" x="187" y="-183.8" font-family="Helvetica,Arial,sans-serif" font-size="14.00">03</text>
<defs>
<linearGradient id="l_5" gradientUnits="userSpaceOnUse" x1="39" y1="-157" x2="39" y2="-116" >
<stop offset="0" style="stop-color:#a50026;stop-opacity:1.;"/>
<stop offset="1" style="stop-color:#ffffbf;stop-opacity:1.;"/>
</linearGradient>
</defs>
<polygon fill="url(#l_5)" stroke="transparent" stroke-width="3" points="18,-116 18,-157 60,-157 60,-116 18,-116"/>
<polygon fill="none" stroke="black" stroke-width="3" points="19.5,-117.5 19.5,-155.5 58.5,-155.5 58.5,-117.5 19.5,-117.5"/>
<text text-anchor="start" x="31" y="-132.8" font-family="Helvetica,Arial,sans-serif" font-size="14.00">10</text>
<defs>
<linearGradient id="l_6" gradientUnits="userSpaceOnUse" x1="91" y1="-157" x2="91" y2="-65" >
<stop offset="0" style="stop-color:#f46d43;stop-opacity:1.;"/>
<stop offset="1" style="stop-color:#66bd63;stop-opacity:1.;"/>
</linearGradient>
</defs>
<polygon fill="url(#l_6)" stroke="transparent" stroke-width="3" points="70,-65 70,-157 112,-157 112,-65 70,-65"/>
<polygon fill="none" stroke="black" stroke-width="3" points="71.5,-66.5 71.5,-155.5 110.5,-155.5 110.5,-66.5 71.5,-66.5"/>
<text text-anchor="start" x="83" y="-107.3" font-family="Helvetica,Arial,sans-serif" font-size="14.00">11</text>
<defs>
<linearGradient id="l_7" gradientUnits="userSpaceOnUse" x1="143" y1="-157" x2="143" y2="-116" >
<stop offset="0" style="stop-color:#f46d43;stop-opacity:1.;"/>
<stop offset="1" style="stop-color:#a6d96a;stop-opacity:1.;"/>
</linearGradient>
</defs>
<polygon fill="url(#l_7)" stroke="transparent" stroke-width="3" points="122,-116 122,-157 164,-157 164,-116 122,-116"/>
<polygon fill="none" stroke="black" stroke-width="3" points="123.5,-117.5 123.5,-155.5 162.5,-155.5 162.5,-117.5 123.5,-117.5"/>
<text text-anchor="start" x="135" y="-132.8" font-family="Helvetica,Arial,sans-serif" font-size="14.00">12</text>
<defs>
<linearGradient id="l_8" gradientUnits="userSpaceOnUse" x1="195" y1="-157" x2="195" y2="-116" >
<stop offset="0" style="stop-color:#fdae61;stop-opacity:1.;"/>
<stop offset="1" style="stop-color:#66bd63;stop-opacity:1.;"/>
</linearGradient>
</defs>
<polygon fill="url(#l_8)" stroke="transparent" stroke-width="3" points="174,-116 174,-157 216,-157 216,-116 174,-116"/>
<polygon fill="none" stroke="black" stroke-width="3" points="175.5,-117.5 175.5,-155.5 214.5,-155.5 214.5,-117.5 175.5,-117.5"/>
<text text-anchor="start" x="187" y="-132.8" font-family="Helvetica,Arial,sans-serif" font-size="14.00">13</text>
<defs>
<linearGradient id="l_9" gradientUnits="userSpaceOnUse" x1="39" y1="-106" x2="39" y2="-65" >
<stop offset="0" style="stop-color:#ffffbf;stop-opacity:1.;"/>
<stop offset="1" style="stop-color:#66bd63;stop-opacity:1.;"/>
</linearGradient>
</defs>
<polygon fill="url(#l_9)" stroke="transparent" stroke-width="3" points="18,-65 18,-106 60,-106 60,-65 18,-65"/>
<polygon fill="none" stroke="black" stroke-width="3" points="19.5,-66.5 19.5,-104.5 58.5,-104.5 58.5,-66.5 19.5,-66.5"/>
<text text-anchor="start" x="31" y="-81.8" font-family="Helvetica,Arial,sans-serif" font-size="14.00">20</text>
<defs>
<linearGradient id="l_10" gradientUnits="userSpaceOnUse" x1="122" y1="-85.5" x2="216" y2="-85.5" >
<stop offset="0" style="stop-color:#66bd63;stop-opacity:1.;"/>
<stop offset="1" style="stop-color:#006837;stop-opacity:1.;"/>
</linearGradient>
</defs>
<polygon fill="url(#l_10)" stroke="transparent" stroke-width="3" points="122,-65 122,-106 216,-106 216,-65 122,-65"/>
<polygon fill="none" stroke="black" stroke-width="3" points="123.5,-66.5 123.5,-104.5 214.5,-104.5 214.5,-66.5 123.5,-66.5"/>
<text text-anchor="start" x="161" y="-81.8" font-family="Helvetica,Arial,sans-serif" font-size="14.00">22</text>
<defs>
<radialGradient id="r_0" cx="50%" cy="50%" r="75%" fx="50%" fy="50%">
<stop offset="0" style="stop-color:#a50026;stop-opacity:1.;"/>
<stop offset="1" style="stop-color:#a6d96a;stop-opacity:1.;"/>
</radialGradient>
</defs>
<polygon fill="url(#r_0)" stroke="transparent" stroke-width="3" points="18,-14 18,-55 60,-55 60,-14 18,-14"/>
<polygon fill="none" stroke="black" stroke-width="3" points="19.5,-15.5 19.5,-53.5 58.5,-53.5 58.5,-15.5 19.5,-15.5"/>
<text text-anchor="start" x="31" y="-30.8" font-family="Helvetica,Arial,sans-serif" font-size="14.00">30</text>
<defs>
<radialGradient id="r_1" cx="50%" cy="50%" r="75%" fx="85%" fy="14%">
<stop offset="0" style="stop-color:#a50026;stop-opacity:1.;"/>
<stop offset="1" style="stop-color:#a6d96a;stop-opacity:1.;"/>
</radialGradient>
</defs>
<polygon fill="url(#r_1)" stroke="transparent" stroke-width="3" points="70,-14 70,-55 112,-55 112,-14 70,-14"/>
<polygon fill="none" stroke="black" stroke-width="3" points="71.5,-15.5 71.5,-53.5 110.5,-53.5 110.5,-15.5 71.5,-15.5"/>
<text text-anchor="start" x="83" y="-30.8" font-family="Helvetica,Arial,sans-serif" font-size="14.00">31</text>
<defs>
<radialGradient id="r_2" cx="50%" cy="50%" r="75%" fx="49%" fy="0%">
<stop offset="0" style="stop-color:#a50026;stop-opacity:1.;"/>
<stop offset="1" style="stop-color:#a6d96a;stop-opacity:1.;"/>
</radialGradient>
</defs>
<polygon fill="url(#r_2)" stroke="transparent" stroke-width="3" points="122,-14 122,-55 164,-55 164,-14 122,-14"/>
<polygon fill="none" stroke="black" stroke-width="3" points="123.5,-15.5 123.5,-53.5 162.5,-53.5 162.5,-15.5 123.5,-15.5"/>
<text text-anchor="start" x="135" y="-30.8" font-family="Helvetica,Arial,sans-serif" font-size="14.00">32</text>
<defs>
<radialGradient id="r_3" cx="50%" cy="50%" r="75%" fx="0%" fy="50%">
<stop offset="0" style="stop-color:#a50026;stop-opacity:1.;"/>
<stop offset="1" style="stop-color:#a6d96a;stop-opacity:1.;"/>
</radialGradient>
</defs>
<polygon fill="url(#r_3)" stroke="transparent" stroke-width="3" points="174,-14 174,-55 216,-55 216,-14 174,-14"/>
<polygon fill="none" stroke="black" stroke-width="3" points="175.5,-15.5 175.5,-53.5 214.5,-53.5 214.5,-15.5 175.5,-15.5"/>
<text text-anchor="start" x="187" y="-30.8" font-family="Helvetica,Arial,sans-serif" font-size="14.00">33</text>
</g>
</g>
</svg>
