<?xml version="1.0" encoding="UTF-8" standalone="no"?>
<!DOCTYPE svg PUBLIC "-//W3C//DTD SVG 1.1//EN"
 "http://www.w3.org/Graphics/SVG/1.1/DTD/svg11.dtd">
<!-- Generated by graphviz version 2.43.0 (0)
 -->
<!-- Title: G Pages: 1 -->
<svg width="218pt" height="206pt"
 viewBox="0.00 0.00 218.00 206.00" xmlns="http://www.w3.org/2000/svg" xmlns:xlink="http://www.w3.org/1999/xlink">
<g id="graph0" class="graph" transform="scale(1 1) rotate(0) translate(4 202)">
<title>G</title>
<polygon fill="white" stroke="transparent" points="-4,4 -4,-202 214,-202 214,4 -4,4"/>
<!-- a0 -->
<g id="node1" class="node">
<title>a0</title>
<defs>
<linearGradient id="l_0" gradientUnits="userSpaceOnUse" x1="36.41" y1="-166.18" x2="173.59" y2="-31.82" >
<stop offset="0" style="stop-color:#a50026;stop-opacity:1.;"/>
<stop offset="1" style="stop-color:#006837;stop-opacity:1.;"/>
</linearGradient>
</defs>
<path fill="url(#l_0)" stroke="transparent" d="M20,-4C20,-4 190,-4 190,-4 196,-4 202,-10 202,-16 202,-16 202,-182 202,-182 202,-188 196,-194 190,-194 190,-194 20,-194 20,-194 14,-194 8,-188 8,-182 8,-182 8,-16 8,-16 8,-10 14,-4 20,-4"/>
<defs>
<linearGradient id="l_1" gradientUnits="userSpaceOnUse" x1="18" y1="-166.5" x2="54" y2="-166.5" >
<stop offset="0" style="stop-color:#a50026;stop-opacity:1.;"/>
<stop offset="1" style="stop-color:#d73027;stop-opacity:1.;"/>
</linearGradient>
</defs>
<polygon fill="url(#l_1)" stroke="transparent" points="18,-149 18,-184 54,-184 54,-149 18,-149"/>
<text text-anchor="start" x="28" y="-162.8" font-family="Helvetica,Arial,sans-serif" font-size="14.00">00</text>
<defs>
<linearGradient id="l_2" gradientUnits="userSpaceOnUse" x1="64" y1="-166.5" x2="100" y2="-166.5" >
<stop offset="0" style="stop-color:#d73027;stop-opacity:1.;"/>
<stop offset="1" style="stop-color:#f46d43;stop-opacity:1.;"/>
</linearGradient>
</defs>
<polygon fill="url(#l_2)" stroke="transparent" points="64,-149 64,-184 100,-184 100,-149 64,-149"/>
<text text-anchor="start" x="74" y="-162.8" font-family="Helvetica,Arial,sans-serif" font-size="14.00">01</text>
<defs>
<linearGradient id="l_3" gradientUnits="userSpaceOnUse" x1="110" y1="-166.5" x2="146" y2="-166.5" >
<stop offset="0" style="stop-color:#f46d43;stop-opacity:1.;"/>
<stop offset="1" style="stop-color:#fdae61;stop-opacity:1.;"/>
</linearGradient>
</defs>
<polygon fill="url(#l_3)" stroke="transparent" points="110,-149 110,-184 146,-184 146,-149 110,-149"/>
<text text-anchor="start" x="120" y="-162.8" font-family="Helvetica,Arial,sans-serif" font-size="14.00">02</text>
<defs>
<linearGradient id="l_4" gradientUnits="userSpaceOnUse" x1="156" y1="-166.5" x2="192" y2="-166.5" >
<stop offset="0" style="stop-color:#fdae61;stop-opacity:1.;"/>
<stop offset="1" style="stop-color:#fee08b;stop-opacity:1.;"/>
</linearGradient>
</defs>
<polygon fill="url(#l_4)" stroke="transparent" points="156,-149 156,-184 192,-184 192,-149 156,-149"/>
<text text-anchor="start" x="166" y="-162.8" font-family="Helvetica,Arial,sans-serif" font-size="14.00">03</text>
<defs>
<linearGradient id="l_5" gradientUnits="userSpaceOnUse" x1="36" y1="-139" x2="36" y2="-104" >
<stop offset="0" style="stop-color:#a50026;stop-opacity:1.;"/>
<stop offset="1" style="stop-color:#ffffbf;stop-opacity:1.;"/>
</linearGradient>
</defs>
<polygon fill="url(#l_5)" stroke="transparent" points="18,-104 18,-139 54,-139 54,-104 18,-104"/>
<text text-anchor="start" x="28" y="-117.8" font-family="Helvetica,Arial,sans-serif" font-size="14.00">10</text>
<defs>
<linearGradient id="l_6" gradientUnits="userSpaceOnUse" x1="82" y1="-139" x2="82" y2="-59" >
<stop offset="0" style="stop-color:#f46d43;stop-opacity:1.;"/>
<stop offset="1" style="stop-color:#66bd63;stop-opacity:1.;"/>
</linearGradient>
</defs>
<polygon fill="url(#l_6)" stroke="transparent" points="64,-59 64,-139 100,-139 100,-59 64,-59"/>
<text text-anchor="start" x="74" y="-95.3" font-family="Helvetica,Arial,sans-serif" font-size="14.00">11</text>
<defs>
<linearGradient id="l_7" gradientUnits="userSpaceOnUse" x1="128" y1="-139" x2="128" y2="-104" >
<stop offset="0" style="stop-color:#f46d43;stop-opacity:1.;"/>
<stop offset="1" style="stop-color:#a6d96a;stop-opacity:1.;"/>
</linearGradient>
</defs>
<polygon fill="url(#l_7)" stroke="transparent" points="110,-104 110,-139 146,-139 146,-104 110,-104"/>
<text text-anchor="start" x="120" y="-117.8" font-family="Helvetica,Arial,sans-serif" font-size="14.00">12</text>
<defs>
<linearGradient id="l_8" gradientUnits="userSpaceOnUse" x1="174" y1="-139" x2="174" y2="-104" >
<stop offset="0" style="stop-color:#fdae61;stop-opacity:1.;"/>
<stop offset="1" style="stop-color:#66bd63;stop-opacity:1.;"/>
</linearGradient>
</defs>
<polygon fill="url(#l_8)" stroke="transparent" points="156,-104 156,-139 192,-139 192,-104 156,-104"/>
<text text-anchor="start" x="166" y="-117.8" font-family="Helvetica,Arial,sans-serif" font-size="14.00">13</text>
<defs>
<linearGradient id="l_9" gradientUnits="userSpaceOnUse" x1="36" y1="-94" x2="36" y2="-59" >
<stop offset="0" style="stop-color:#ffffbf;stop-opacity:1.;"/>
<stop offset="1" style="stop-color:#66bd63;stop-opacity:1.;"/>
</linearGradient>
</defs>
<polygon fill="url(#l_9)" stroke="transparent" points="18,-59 18,-94 54,-94 54,-59 18,-59"/>
<text text-anchor="start" x="28" y="-72.8" font-family="Helvetica,Arial,sans-serif" font-size="14.00">20</text>
<defs>
<linearGradient id="l_10" gradientUnits="userSpaceOnUse" x1="110" y1="-76.5" x2="192" y2="-76.5" >
<stop offset="0" style="stop-color:#66bd63;stop-opacity:1.;"/>
<stop offset="1" style="stop-color:#006837;stop-opacity:1.;"/>
</linearGradient>
</defs>
<polygon fill="url(#l_10)" stroke="transparent" points="110,-59 110,-94 192,-94 192,-59 110,-59"/>
<text text-anchor="start" x="143" y="-72.8" font-family="Helvetica,Arial,sans-serif" font-size="14.00">22</text>
<defs>
<radialGradient id="r_0" cx="50%" cy="50%" r="75%" fx="50%" fy="50%">
<stop offset="0" style="stop-color:#a50026;stop-opacity:1.;"/>
<stop offset="1" style="stop-color:#a6d96a;stop-opacity:1.;"/>
</radialGradient>
</defs>
<polygon fill="url(#r_0)" stroke="transparent" points="18,-14 18,-49 54,-49 54,-14 18,-14"/>
<text text-anchor="start" x="28" y="-27.8" font-family="Helvetica,Arial,sans-serif" font-size="14.00">30</text>
<defs>
<radialGradient id="r_1" cx="50%" cy="50%" r="75%" fx="85%" fy="14%">
<stop offset="0" style="stop-color:#a50026;stop-opacity:1.;"/>
<stop offset="1" style="stop-color:#a6d96a;stop-opacity:1.;"/>
</radialGradient>
</defs>
<polygon fill="url(#r_1)" stroke="transparent" points="64,-14 64,-49 100,-49 100,-14 64,-14"/>
<text text-anchor="start" x="74" y="-27.8" font-family="Helvetica,Arial,sans-serif" font-size="14.00">31</text>
<defs>
<radialGradient id="r_2" cx="50%" cy="50%" r="75%" fx="49%" fy="0%">
<stop offset="0" style="stop-color:#a50026;stop-opacity:1.;"/>
<stop offset="1" style="stop-color:#a6d96a;stop-opacity:1.;"/>
</radialGradient>
</defs>
<polygon fill="url(#r_2)" stroke="transparent" points="110,-14 110,-49 146,-49 146,-14 110,-14"/>
<text text-anchor="start" x="120" y="-27.8" font-family="Helvetica,Arial,sans-serif" font-size="14.00">32</text>
<defs>
<radialGradient id="r_3" cx="50%" cy="50%" r="75%" fx="0%" fy="50%">
<stop offset="0" style="stop-color:#a50026;stop-opacity:1.;"/>
<stop offset="1" style="stop-color:#a6d96a;stop-opacity:1.;"/>
</radialGradient>
</defs>
<polygon fill="url(#r_3)" stroke="transparent" points="156,-14 156,-49 192,-49 192,-14 156,-14"/>
<text text-anchor="start" x="166" y="-27.8" font-family="Helvetica,Arial,sans-serif" font-size="14.00">33</text>
</g>
</g>
</svg>
