<?xml version="1.0" encoding="UTF-8" standalone="no"?>
<!DOCTYPE svg PUBLIC "-//W3C//DTD SVG 1.1//EN"
 "http://www.w3.org/Graphics/SVG/1.1/DTD/svg11.dtd">
<!-- Generated by graphviz version 2.44.1 (20200629.0846)
 -->
<!-- Title: mygraph Pages: 1 -->
<svg width="636pt" height="404pt"
 viewBox="0.00 0.00 636.02 404.00" xmlns="http://www.w3.org/2000/svg" xmlns:xlink="http://www.w3.org/1999/xlink">
<g id="graph0" class="graph" transform="scale(1 1) rotate(0) translate(4 400)">
<title>mygraph</title>
<polygon fill="white" stroke="transparent" points="-4,4 -4,-400 632.02,-400 632.02,4 -4,4"/>
<!-- //absl/random:random -->
<g id="node1" class="node">
<title>//absl/random:random</title>
<polygon fill="none" stroke="black" points="290,-396 153,-396 153,-360 290,-360 290,-396"/>
<text text-anchor="middle" x="221.5" y="-374.3" font-family="Times,serif" font-size="14.00">//absl/random:random</text>
</g>
<!-- //absl/random:distributions -->
<g id="node2" class="node">
<title>//absl/random:distributions</title>
<polygon fill="none" stroke="black" points="163,-252 0,-252 0,-216 163,-216 163,-252"/>
<text text-anchor="middle" x="81.5" y="-230.3" font-family="Times,serif" font-size="14.00">//absl/random:distributions</text>
</g>
<!-- //absl/random:random&#45;&gt;//absl/random:distributions -->
<g id="edge1" class="edge">
<title>//absl/random:random&#45;&gt;//absl/random:distributions</title>
<path fill="none" stroke="black" d="M204.61,-359.87C179.91,-334.82 133.8,-288.05 105.56,-259.41"/>
<polygon fill="black" stroke="black" points="107.96,-256.85 98.45,-252.19 102.98,-261.77 107.96,-256.85"/>
</g>
<!-- //absl/random:seed_sequences -->
<g id="node3" class="node">
<title>//absl/random:seed_sequences</title>
<polygon fill="none" stroke="black" points="461,-324 280,-324 280,-288 461,-288 461,-324"/>
<text text-anchor="middle" x="370.5" y="-302.3" font-family="Times,serif" font-size="14.00">//absl/random:seed_sequences</text>
</g>
<!-- //absl/random:random&#45;&gt;//absl/random:seed_sequences -->
<g id="edge2" class="edge">
<title>//absl/random:random&#45;&gt;//absl/random:seed_sequences</title>
<path fill="none" stroke="black" d="M257.95,-359.88C278.14,-350.39 303.42,-338.51 324.91,-328.42"/>
<polygon fill="black" stroke="black" points="326.61,-331.49 334.17,-324.07 323.63,-325.15 326.61,-331.49"/>
</g>
<!-- //absl/random/internal:pool_urbg -->
<g id="node4" class="node">
<title>//absl/random/internal:pool_urbg</title>
<polygon fill="none" stroke="black" points="321.5,-180 125.5,-180 125.5,-144 321.5,-144 321.5,-180"/>
<text text-anchor="middle" x="223.5" y="-158.3" font-family="Times,serif" font-size="14.00">//absl/random/internal:pool_urbg</text>
</g>
<!-- //absl/random:random&#45;&gt;//absl/random/internal:pool_urbg -->
<g id="edge3" class="edge">
<title>//absl/random:random&#45;&gt;//absl/random/internal:pool_urbg</title>
<path fill="none" stroke="black" d="M221.66,-359.85C222.01,-322.83 222.83,-235.18 223.24,-190.39"/>
<polygon fill="black" stroke="black" points="226.75,-190.26 223.34,-180.23 219.75,-190.2 226.75,-190.26"/>
</g>
<!-- //absl/random/internal:nonsecure_base -->
<g id="node5" class="node">
<title>//absl/random/internal:nonsecure_base</title>
<polygon fill="none" stroke="black" points="483.5,-252 257.5,-252 257.5,-216 483.5,-216 483.5,-252"/>
<text text-anchor="middle" x="370.5" y="-230.3" font-family="Times,serif" font-size="14.00">//absl/random/internal:nonsecure_base</text>
</g>
<!-- //absl/random:random&#45;&gt;//absl/random/internal:nonsecure_base -->
<g id="edge4" class="edge">
<title>//absl/random:random&#45;&gt;//absl/random/internal:nonsecure_base</title>
<path fill="none" stroke="black" d="M227.54,-359.7C235.05,-340.24 249.51,-308.66 270.5,-288 283.49,-275.21 300.21,-264.73 316.23,-256.56"/>
<polygon fill="black" stroke="black" points="318.1,-259.55 325.56,-252.02 315.04,-253.26 318.1,-259.55"/>
</g>
<!-- //absl/strings:strings -->
<g id="node6" class="node">
<title>//absl/strings:strings</title>
<polygon fill="none" stroke="black" points="281,-36 156,-36 156,0 281,0 281,-36"/>
<text text-anchor="middle" x="218.5" y="-14.3" font-family="Times,serif" font-size="14.00">//absl/strings:strings</text>
</g>
<!-- //absl/random:distributions&#45;&gt;//absl/strings:strings -->
<g id="edge5" class="edge">
<title>//absl/random:distributions&#45;&gt;//absl/strings:strings</title>
<path fill="none" stroke="black" d="M86.48,-215.88C92.25,-197.42 102.75,-167.5 116.5,-144 138.71,-106.05 172.05,-67.63 194.51,-43.59"/>
<polygon fill="black" stroke="black" points="197.06,-45.98 201.39,-36.31 191.97,-41.18 197.06,-45.98"/>
</g>
<!-- //absl/random:seed_sequences&#45;&gt;//absl/random/internal:pool_urbg -->
<g id="edge8" class="edge">
<title>//absl/random:seed_sequences&#45;&gt;//absl/random/internal:pool_urbg</title>
<path fill="none" stroke="black" d="M303.23,-287.97C283.23,-279.97 262.85,-268.44 248.5,-252 233.54,-234.86 227.49,-209.41 225.06,-190.11"/>
<polygon fill="black" stroke="black" points="228.53,-189.72 224.05,-180.12 221.57,-190.42 228.53,-189.72"/>
</g>
<!-- //absl/random:seed_sequences&#45;&gt;//absl/random/internal:nonsecure_base -->
<g id="edge9" class="edge">
<title>//absl/random:seed_sequences&#45;&gt;//absl/random/internal:nonsecure_base</title>
<path fill="none" stroke="black" d="M370.5,-287.7C370.5,-279.98 370.5,-270.71 370.5,-262.11"/>
<polygon fill="black" stroke="black" points="374,-262.1 370.5,-252.1 367,-262.1 374,-262.1"/>
</g>
<!-- //absl/random/internal:seed_material -->
<g id="node7" class="node">
<title>//absl/random/internal:seed_material</title>
<polygon fill="none" stroke="black" points="457.5,-108 241.5,-108 241.5,-72 457.5,-72 457.5,-108"/>
<text text-anchor="middle" x="349.5" y="-86.3" font-family="Times,serif" font-size="14.00">//absl/random/internal:seed_material</text>
</g>
<!-- //absl/random:seed_sequences&#45;&gt;//absl/random/internal:seed_material -->
<g id="edge6" class="edge">
<title>//absl/random:seed_sequences&#45;&gt;//absl/random/internal:seed_material</title>
<path fill="none" stroke="black" d="M443.68,-287.9C534.57,-263.27 671.13,-213.08 614.5,-144 595.48,-120.8 529.34,-107.55 467.89,-100.1"/>
<polygon fill="black" stroke="black" points="468.02,-96.6 457.69,-98.91 467.21,-103.55 468.02,-96.6"/>
</g>
<!-- //absl/random/internal:salted_seed_seq -->
<g id="node8" class="node">
<title>//absl/random/internal:salted_seed_seq</title>
<polygon fill="none" stroke="black" points="605,-180 378,-180 378,-144 605,-144 605,-180"/>
<text text-anchor="middle" x="491.5" y="-158.3" font-family="Times,serif" font-size="14.00">//absl/random/internal:salted_seed_seq</text>
</g>
<!-- //absl/random:seed_sequences&#45;&gt;//absl/random/internal:salted_seed_seq -->
<g id="edge7" class="edge">
<title>//absl/random:seed_sequences&#45;&gt;//absl/random/internal:salted_seed_seq</title>
<path fill="none" stroke="black" d="M446.04,-287.89C464.27,-280.04 481.61,-268.61 492.5,-252 504.37,-233.9 502.95,-208.97 499.23,-190.09"/>
<polygon fill="black" stroke="black" points="502.64,-189.28 497,-180.31 495.81,-190.84 502.64,-189.28"/>
</g>
<!-- //absl/random/internal:pool_urbg&#45;&gt;//absl/random/internal:seed_material -->
<g id="edge13" class="edge">
<title>//absl/random/internal:pool_urbg&#45;&gt;//absl/random/internal:seed_material</title>
<path fill="none" stroke="black" d="M254.32,-143.88C270.95,-134.64 291.66,-123.13 309.52,-113.21"/>
<polygon fill="black" stroke="black" points="311.52,-116.11 318.56,-108.19 308.12,-109.99 311.52,-116.11"/>
</g>
<!-- //absl/random/internal:nonsecure_base&#45;&gt;//absl/random/internal:pool_urbg -->
<g id="edge10" class="edge">
<title>//absl/random/internal:nonsecure_base&#45;&gt;//absl/random/internal:pool_urbg</title>
<path fill="none" stroke="black" d="M334.54,-215.88C314.62,-206.39 289.68,-194.51 268.48,-184.42"/>
<polygon fill="black" stroke="black" points="269.88,-181.21 259.34,-180.07 266.87,-187.53 269.88,-181.21"/>
</g>
<!-- //absl/random/internal:nonsecure_base&#45;&gt;//absl/random/internal:seed_material -->
<g id="edge12" class="edge">
<title>//absl/random/internal:nonsecure_base&#45;&gt;//absl/random/internal:seed_material</title>
<path fill="none" stroke="black" d="M367.97,-215.87C364.39,-191.67 357.81,-147.21 353.55,-118.39"/>
<polygon fill="black" stroke="black" points="356.97,-117.57 352.04,-108.19 350.04,-118.59 356.97,-117.57"/>
</g>
<!-- //absl/random/internal:nonsecure_base&#45;&gt;//absl/random/internal:salted_seed_seq -->
<g id="edge11" class="edge">
<title>//absl/random/internal:nonsecure_base&#45;&gt;//absl/random/internal:salted_seed_seq</title>
<path fill="none" stroke="black" d="M400.1,-215.88C416.07,-206.64 435.96,-195.13 453.11,-185.21"/>
<polygon fill="black" stroke="black" points="454.88,-188.23 461.79,-180.19 451.38,-182.17 454.88,-188.23"/>
</g>
<!-- //absl/random/internal:seed_material&#45;&gt;//absl/strings:strings -->
<g id="edge15" class="edge">
<title>//absl/random/internal:seed_material&#45;&gt;//absl/strings:strings</title>
<path fill="none" stroke="black" d="M317.45,-71.88C300.01,-62.55 278.23,-50.92 259.56,-40.94"/>
<polygon fill="black" stroke="black" points="261.14,-37.82 250.67,-36.19 257.84,-43.99 261.14,-37.82"/>
</g>
<!-- //absl/random/internal:salted_seed_seq&#45;&gt;//absl/random/internal:seed_material -->
<g id="edge14" class="edge">
<title>//absl/random/internal:salted_seed_seq&#45;&gt;//absl/random/internal:seed_material</title>
<path fill="none" stroke="black" d="M456.76,-143.88C437.68,-134.47 413.82,-122.71 393.45,-112.67"/>
<polygon fill="black" stroke="black" points="394.89,-109.47 384.37,-108.19 391.79,-115.75 394.89,-109.47"/>
</g>
</g>
</svg>
