<?xml version="1.0" encoding="UTF-8" standalone="no"?>
<!DOCTYPE svg PUBLIC "-//W3C//DTD SVG 1.1//EN"
 "http://www.w3.org/Graphics/SVG/1.1/DTD/svg11.dtd">
<!-- Generated by graphviz version 2.46.1 (20210213.1702)
 -->
<!-- Title: finite_state_machine Pages: 1 -->
<svg width="576pt" height="252pt"
 viewBox="0.00 0.00 576.00 252.00" xmlns="http://www.w3.org/2000/svg" xmlns:xlink="http://www.w3.org/1999/xlink">
<g id="graph0" class="graph" transform="scale(1 1) rotate(0) translate(4 248)">
<title>finite_state_machine</title>
<polygon fill="white" stroke="transparent" points="-4,4 -4,-248 572,-248 572,4 -4,4"/>
<!-- 0 -->
<g id="node1" class="node">
<title>0</title>
<ellipse fill="none" stroke="black" cx="22" cy="-76" rx="18" ry="18"/>
<ellipse fill="none" stroke="black" cx="22" cy="-76" rx="22" ry="22"/>
<text text-anchor="middle" x="22" y="-72.3" font-family="Times,serif" font-size="14.00">0</text>
</g>
<!-- 2 -->
<g id="node5" class="node">
<title>2</title>
<ellipse fill="none" stroke="black" cx="132" cy="-105" rx="18" ry="18"/>
<text text-anchor="middle" x="132" y="-101.3" font-family="Times,serif" font-size="14.00">2</text>
</g>
<!-- 0&#45;&gt;2 -->
<g id="edge1" class="edge">
<title>0&#45;&gt;2</title>
<path fill="none" stroke="black" d="M43.31,-81.45C60.64,-86.11 85.66,-92.83 104.55,-97.9"/>
<polygon fill="black" stroke="black" points="103.75,-101.31 114.32,-100.52 105.57,-94.55 103.75,-101.31"/>
<text text-anchor="middle" x="79" y="-97.8" font-family="Times,serif" font-size="14.00">SS(B)</text>
</g>
<!-- 1 -->
<g id="node6" class="node">
<title>1</title>
<ellipse fill="none" stroke="black" cx="132" cy="-49" rx="18" ry="18"/>
<text text-anchor="middle" x="132" y="-45.3" font-family="Times,serif" font-size="14.00">1</text>
</g>
<!-- 0&#45;&gt;1 -->
<g id="edge2" class="edge">
<title>0&#45;&gt;1</title>
<path fill="none" stroke="black" d="M42.65,-68.26C48.78,-66.03 55.61,-63.74 62,-62 75.69,-58.28 91.2,-55.25 104.04,-53.06"/>
<polygon fill="black" stroke="black" points="104.79,-56.48 114.1,-51.42 103.67,-49.57 104.79,-56.48"/>
<text text-anchor="middle" x="79" y="-65.8" font-family="Times,serif" font-size="14.00">SS(S)</text>
</g>
<!-- 3 -->
<g id="node2" class="node">
<title>3</title>
<ellipse fill="none" stroke="black" cx="251" cy="-22" rx="18" ry="18"/>
<ellipse fill="none" stroke="black" cx="251" cy="-22" rx="22" ry="22"/>
<text text-anchor="middle" x="251" y="-18.3" font-family="Times,serif" font-size="14.00">3</text>
</g>
<!-- 4 -->
<g id="node3" class="node">
<title>4</title>
<ellipse fill="none" stroke="black" cx="251" cy="-222" rx="18" ry="18"/>
<ellipse fill="none" stroke="black" cx="251" cy="-222" rx="22" ry="22"/>
<text text-anchor="middle" x="251" y="-218.3" font-family="Times,serif" font-size="14.00">4</text>
</g>
<!-- 8 -->
<g id="node4" class="node">
<title>8</title>
<ellipse fill="none" stroke="black" cx="546" cy="-113" rx="18" ry="18"/>
<ellipse fill="none" stroke="black" cx="546" cy="-113" rx="22" ry="22"/>
<text text-anchor="middle" x="546" y="-109.3" font-family="Times,serif" font-size="14.00">8</text>
</g>
<!-- 6 -->
<g id="node7" class="node">
<title>6</title>
<ellipse fill="none" stroke="black" cx="251" cy="-131" rx="18" ry="18"/>
<text text-anchor="middle" x="251" y="-127.3" font-family="Times,serif" font-size="14.00">6</text>
</g>
<!-- 8&#45;&gt;6 -->
<g id="edge13" class="edge">
<title>8&#45;&gt;6</title>
<path fill="none" stroke="black" d="M524.53,-118.11C486.66,-126.99 403.08,-143.99 332,-140 314.31,-139.01 294.53,-136.79 279.06,-134.81"/>
<polygon fill="black" stroke="black" points="279.49,-131.33 269.12,-133.49 278.57,-138.27 279.49,-131.33"/>
<text text-anchor="middle" x="398" y="-142.8" font-family="Times,serif" font-size="14.00">S(b)</text>
</g>
<!-- 5 -->
<g id="node8" class="node">
<title>5</title>
<ellipse fill="none" stroke="black" cx="350" cy="-80" rx="18" ry="18"/>
<text text-anchor="middle" x="350" y="-76.3" font-family="Times,serif" font-size="14.00">5</text>
</g>
<!-- 8&#45;&gt;5 -->
<g id="edge14" class="edge">
<title>8&#45;&gt;5</title>
<path fill="none" stroke="black" d="M524.01,-110.87C493.43,-107.57 434.96,-100.48 386,-90 383.1,-89.38 380.09,-88.65 377.11,-87.88"/>
<polygon fill="black" stroke="black" points="377.84,-84.44 367.27,-85.14 375.96,-91.19 377.84,-84.44"/>
<text text-anchor="middle" x="446" y="-106.8" font-family="Times,serif" font-size="14.00">S(a)</text>
</g>
<!-- 2&#45;&gt;4 -->
<g id="edge6" class="edge">
<title>2&#45;&gt;4</title>
<path fill="none" stroke="black" d="M145.52,-117.52C165.07,-137.07 203.14,-175.14 227.53,-199.53"/>
<polygon fill="black" stroke="black" points="225.08,-202.03 234.62,-206.62 230.03,-197.08 225.08,-202.03"/>
<text text-anchor="middle" x="189.5" y="-183.8" font-family="Times,serif" font-size="14.00">S(A)</text>
</g>
<!-- 2&#45;&gt;6 -->
<g id="edge4" class="edge">
<title>2&#45;&gt;6</title>
<path fill="none" stroke="black" d="M149.76,-108.73C168.96,-112.99 200.68,-120.04 223.29,-125.07"/>
<polygon fill="black" stroke="black" points="222.75,-128.53 233.27,-127.28 224.27,-121.7 222.75,-128.53"/>
<text text-anchor="middle" x="189.5" y="-124.8" font-family="Times,serif" font-size="14.00">SS(b)</text>
</g>
<!-- 2&#45;&gt;5 -->
<g id="edge5" class="edge">
<title>2&#45;&gt;5</title>
<path fill="none" stroke="black" d="M149.93,-101.7C169.06,-98.09 201.15,-92.36 229,-89 260.66,-85.18 297.22,-82.72 321.59,-81.35"/>
<polygon fill="black" stroke="black" points="322.07,-84.83 331.86,-80.8 321.69,-77.84 322.07,-84.83"/>
<text text-anchor="middle" x="251" y="-92.8" font-family="Times,serif" font-size="14.00">SS(a)</text>
</g>
<!-- 1&#45;&gt;3 -->
<g id="edge3" class="edge">
<title>1&#45;&gt;3</title>
<path fill="none" stroke="black" d="M149.76,-45.13C167.87,-40.95 197.12,-34.2 219.36,-29.07"/>
<polygon fill="black" stroke="black" points="220.37,-32.43 229.32,-26.77 218.79,-25.61 220.37,-32.43"/>
<text text-anchor="middle" x="189.5" y="-44.8" font-family="Times,serif" font-size="14.00">S($end)</text>
</g>
<!-- 6&#45;&gt;6 -->
<g id="edge9" class="edge">
<title>6&#45;&gt;6</title>
<path fill="none" stroke="black" d="M242.37,-146.92C240.11,-157.15 242.99,-167 251,-167 256.26,-167 259.3,-162.76 260.14,-156.95"/>
<polygon fill="black" stroke="black" points="263.63,-156.73 259.63,-146.92 256.64,-157.08 263.63,-156.73"/>
<text text-anchor="middle" x="251" y="-170.8" font-family="Times,serif" font-size="14.00">S(b)</text>
</g>
<!-- 6&#45;&gt;5 -->
<g id="edge10" class="edge">
<title>6&#45;&gt;5</title>
<path fill="none" stroke="black" d="M267.16,-123.03C282.44,-114.99 306.29,-102.45 324.31,-92.98"/>
<polygon fill="black" stroke="black" points="326.41,-95.83 333.63,-88.08 323.15,-89.64 326.41,-95.83"/>
<text text-anchor="middle" x="302.5" y="-113.8" font-family="Times,serif" font-size="14.00">S(a)</text>
</g>
<!-- 5&#45;&gt;5 -->
<g id="edge8" class="edge">
<title>5&#45;&gt;5</title>
<path fill="none" stroke="black" d="M341.98,-96.29C340.05,-106.39 342.72,-116 350,-116 354.66,-116 357.43,-112.06 358.32,-106.57"/>
<polygon fill="black" stroke="black" points="361.81,-106.18 358.02,-96.29 354.81,-106.39 361.81,-106.18"/>
<text text-anchor="middle" x="350" y="-119.8" font-family="Times,serif" font-size="14.00">S(a)</text>
</g>
<!-- 7 -->
<g id="node9" class="node">
<title>7</title>
<ellipse fill="none" stroke="black" cx="446" cy="-59" rx="18" ry="18"/>
<text text-anchor="middle" x="446" y="-55.3" font-family="Times,serif" font-size="14.00">7</text>
</g>
<!-- 5&#45;&gt;7 -->
<g id="edge7" class="edge">
<title>5&#45;&gt;7</title>
<path fill="none" stroke="black" d="M367.81,-76.25C381.84,-73.11 402.11,-68.58 418.35,-64.95"/>
<polygon fill="black" stroke="black" points="419.34,-68.32 428.34,-62.72 417.82,-61.49 419.34,-68.32"/>
<text text-anchor="middle" x="398" y="-74.8" font-family="Times,serif" font-size="14.00">S(b)</text>
</g>
<!-- 7&#45;&gt;8 -->
<g id="edge11" class="edge">
<title>7&#45;&gt;8</title>
<path fill="none" stroke="black" d="M463.27,-64.69C475.4,-69.22 492.2,-76.09 506,-84 510.85,-86.78 515.8,-90.06 520.48,-93.4"/>
<polygon fill="black" stroke="black" points="518.4,-96.22 528.52,-99.38 522.58,-90.6 518.4,-96.22"/>
<text text-anchor="middle" x="494" y="-87.8" font-family="Times,serif" font-size="14.00">S(b)</text>
</g>
<!-- 7&#45;&gt;5 -->
<g id="edge12" class="edge">
<title>7&#45;&gt;5</title>
<path fill="none" stroke="black" d="M429.03,-51.89C416.91,-47.52 399.99,-43.7 386,-49 380.07,-51.25 374.5,-55.01 369.62,-59.16"/>
<polygon fill="black" stroke="black" points="366.95,-56.87 362.12,-66.3 371.78,-61.94 366.95,-56.87"/>
<text text-anchor="middle" x="398" y="-52.8" font-family="Times,serif" font-size="14.00">S(a)</text>
</g>
</g>
</svg>
