<?xml version="1.0" encoding="UTF-8" standalone="no"?>
<!DOCTYPE svg PUBLIC "-//W3C//DTD SVG 1.1//EN"
 "http://www.w3.org/Graphics/SVG/1.1/DTD/svg11.dtd">
<!-- Generated by graphviz version 2.27.20110106.0545 (20110106.0545)
 -->
<!-- Title: G Pages: 1 -->
<svg width="1442pt" height="1138pt"
 viewBox="0.00 0.00 1442.00 1138.00" xmlns="http://www.w3.org/2000/svg" xmlns:xlink="http://www.w3.org/1999/xlink">
<g id="graph1" class="graph" transform="scale(1 1) rotate(0) translate(4 1134)">
<title>G</title>
<polygon fill="white" stroke="white" points="-4,5 -4,-1134 1439,-1134 1439,5 -4,5"/>
<!-- I5 -->
<g id="node1" class="node"><title>I5</title>
<image xlink:href="images/165px-Caroline_Kennedy.jpg" width="100px" height="197px" preserveAspectRatio="xMinYMin meet" x="238" y="-204.5"/>
<ellipse fill="none" stroke="red" stroke-width="2" cx="288" cy="-106" rx="137.886" ry="105.359"/>
<text text-anchor="middle" x="288" y="-54.9" font-family="Times Roman,serif" font-size="14.00">Caroline Bouvier Kennedy</text>
<text text-anchor="middle" x="288" y="-36.9" font-family="Times Roman,serif" font-size="14.00">b. 27.11.1957 New York</text>
</g>
<!-- I1 -->
<g id="node2" class="node"><title>I1</title>
<image xlink:href="images/kennedyface.jpg" width="100px" height="137px" preserveAspectRatio="xMinYMin meet" x="856" y="-686.5"/>
<polygon fill="none" stroke="blue" stroke-width="2" points="998,-686.5 814,-686.5 814,-549.5 998,-549.5 998,-686.5"/>
<text text-anchor="middle" x="906" y="-590.9" font-family="Times Roman,serif" font-size="14.00">John Fitzgerald Kennedy</text>
<text text-anchor="middle" x="906" y="-572.9" font-family="Times Roman,serif" font-size="14.00">b. 29.5.1917 Brookline</text>
<text text-anchor="middle" x="906" y="-554.9" font-family="Times Roman,serif" font-size="14.00">d. 22.11.1963 Dallas</text>
</g>
<!-- I1&#45;&#45;I5 -->
<g id="edge2" class="edge"><title>I1&#45;&#45;I5</title>
<path fill="none" stroke="blue" stroke-width="2" d="M852.327,-549.207C837.983,-533.243 821.772,-517.107 805,-504 777.745,-482.701 764.928,-486.963 736,-468 604.076,-381.519 464.625,-264.162 377.017,-186.819"/>
</g>
<!-- I6 -->
<g id="node3" class="node"><title>I6</title>
<image xlink:href="images/180px-JFKJr2.jpg" width="77px" height="170px" preserveAspectRatio="xMinYMin meet" x="632.5" y="-191"/>
<polygon fill="none" stroke="blue" stroke-width="2" points="898,-191 444,-191 444,-21 898,-21 898,-191"/>
<text text-anchor="middle" x="671" y="-62.4" font-family="Times Roman,serif" font-size="14.00">John Fitzgerald Kennedy</text>
<text text-anchor="middle" x="671" y="-44.4" font-family="Times Roman,serif" font-size="14.00">b. 25.11.1960 Washington</text>
<text text-anchor="middle" x="671" y="-26.4" font-family="Times Roman,serif" font-size="14.00">d. 16.7.1999 over the Atlantic Ocean, near Aquinnah, MA, USA</text>
</g>
<!-- I1&#45;&#45;I6 -->
<g id="edge4" class="edge"><title>I1&#45;&#45;I6</title>
<path fill="none" stroke="orange" stroke-width="2" d="M874.551,-549.481C832.027,-456.834 756.219,-291.668 710.084,-191.153"/>
</g>
<!-- I7 -->
<g id="node4" class="node"><title>I7</title>
<polygon fill="none" stroke="blue" stroke-width="2" points="1100,-137 916,-137 916,-75 1100,-75 1100,-137"/>
<text text-anchor="middle" x="1008" y="-120.4" font-family="Times Roman,serif" font-size="14.00">Patrick Bouvier Kennedy</text>
<text text-anchor="middle" x="1008" y="-102.4" font-family="Times Roman,serif" font-size="14.00">b. 7.8.1963</text>
<text text-anchor="middle" x="1008" y="-84.4" font-family="Times Roman,serif" font-size="14.00">d. 9.8.1963</text>
</g>
<!-- I1&#45;&#45;I7 -->
<g id="edge8" class="edge"><title>I1&#45;&#45;I7</title>
<path fill="none" stroke="orange" stroke-width="2" d="M919.65,-549.481C942.043,-437.078 985.701,-217.932 1001.82,-137.001"/>
</g>
<!-- I2 -->
<g id="node5" class="node"><title>I2</title>
<image xlink:href="images/jacqueline-kennedy-onassis.jpg" width="100px" height="205px" preserveAspectRatio="xMinYMin meet" x="238" y="-460.5"/>
<ellipse fill="none" stroke="red" stroke-width="2" cx="288" cy="-358" rx="147.785" ry="109.602"/>
<text text-anchor="middle" x="288" y="-321.9" font-family="Times Roman,serif" font-size="14.00">Jaqueline Lee Bouvier</text>
<text text-anchor="middle" x="288" y="-303.9" font-family="Times Roman,serif" font-size="14.00">b. 28.7.1929 Southampton</text>
<text text-anchor="middle" x="288" y="-285.9" font-family="Times Roman,serif" font-size="14.00">d. 19.5.1994 New York City</text>
</g>
<!-- I1&#45;&#45;I2 -->
<g id="edge12" class="edge"><title>I1&#45;&#45;I2</title>
<path fill="none" stroke="violet" stroke-width="2" d="M858.287,-549.284C843.144,-532.045 825.055,-515.269 805,-504 726.262,-459.756 692.373,-490.874 605,-468 543.01,-451.771 475.764,-429.18 419.225,-408.69"/>
</g>
<!-- I2&#45;&#45;I5 -->
<g id="edge36" class="edge"><title>I2&#45;&#45;I5</title>
<path fill="none" stroke="red" stroke-width="2" d="M288,-248.202C288,-236.132 288,-223.861 288,-211.841"/>
</g>
<!-- I2&#45;&#45;I6 -->
<g id="edge6" class="edge"><title>I2&#45;&#45;I6</title>
<path fill="none" stroke="orange" stroke-width="2" d="M398.779,-285.111C443.407,-255.748 495.193,-221.675 541.542,-191.178"/>
</g>
<!-- I2&#45;&#45;I7 -->
<g id="edge10" class="edge"><title>I2&#45;&#45;I7</title>
<path fill="none" stroke="orange" stroke-width="2" d="M435.522,-347.069C566.709,-331.998 759.967,-296.301 907,-212 939.416,-193.414 967.907,-161.222 986.292,-137.178"/>
</g>
<!-- I15 -->
<g id="node12" class="node"><title>I15</title>
<polygon fill="none" stroke="blue" stroke-width="2" points="132,-124 0,-124 0,-88 132,-88 132,-124"/>
<text text-anchor="middle" x="66" y="-102.4" font-family="Times Roman,serif" font-size="14.00">Aristotle Onassis</text>
</g>
<!-- I2&#45;&#45;I15 -->
<g id="edge38" class="edge"><title>I2&#45;&#45;I15</title>
<path fill="none" stroke="violet" stroke-width="2" d="M196.432,-271.964C177.467,-252.809 158.078,-232.181 141,-212 116.39,-182.917 91.5872,-146.037 77.5716,-124.329"/>
</g>
<!-- I8 -->
<g id="node6" class="node"><title>I8</title>
<image xlink:href="images/1025901671.jpg" width="100px" height="110px" preserveAspectRatio="xMinYMin meet" x="923" y="-1130"/>
<polygon fill="none" stroke="blue" stroke-width="2" points="1077,-1130 869,-1130 869,-1020 1077,-1020 1077,-1130"/>
<text text-anchor="middle" x="973" y="-1061.4" font-family="Times Roman,serif" font-size="14.00">Joseph Patrick Kennedy</text>
<text text-anchor="middle" x="973" y="-1043.4" font-family="Times Roman,serif" font-size="14.00">b. 6.9.1888 East Boston</text>
<text text-anchor="middle" x="973" y="-1025.4" font-family="Times Roman,serif" font-size="14.00">d. 16.11.1969 Hyannis Port</text>
</g>
<!-- I8&#45;&#45;I1 -->
<g id="edge14" class="edge"><title>I8&#45;&#45;I1</title>
<path fill="none" stroke="blue" stroke-width="2" d="M1020.32,-1019.94C1027.59,-1008.71 1034,-996.48 1038,-984 1067.3,-892.58 1071.89,-857.818 1038,-768 1037.49,-766.641 1001.34,-725.607 967.013,-686.804"/>
</g>
<!-- I10 -->
<g id="node7" class="node"><title>I10</title>
<polygon fill="none" stroke="blue" stroke-width="2" points="1208,-649 1016,-649 1016,-587 1208,-587 1208,-649"/>
<text text-anchor="middle" x="1112" y="-632.4" font-family="Times Roman,serif" font-size="14.00">Joseph Patrick Kennedy Jr</text>
<text text-anchor="middle" x="1112" y="-614.4" font-family="Times Roman,serif" font-size="14.00">b. 1915</text>
<text text-anchor="middle" x="1112" y="-596.4" font-family="Times Roman,serif" font-size="14.00">d. 1944</text>
</g>
<!-- I8&#45;&#45;I10 -->
<g id="edge16" class="edge"><title>I8&#45;&#45;I10</title>
<path fill="none" stroke="orange" stroke-width="2" d="M1038.36,-1019.76C1047.97,-1008.83 1056.73,-996.765 1063,-984 1118.67,-870.637 1117.68,-715.01 1114.26,-649.296"/>
</g>
<!-- I11 -->
<g id="node8" class="node"><title>I11</title>
<image xlink:href="images/rosemary.jpg" width="100px" height="213px" preserveAspectRatio="xMinYMin meet" x="1280" y="-724.5"/>
<ellipse fill="none" stroke="red" stroke-width="2" cx="1330" cy="-618" rx="104.151" ry="113.844"/>
<text text-anchor="middle" x="1330" y="-578.9" font-family="Times Roman,serif" font-size="14.00">Rosemary Kennedy</text>
<text text-anchor="middle" x="1330" y="-560.9" font-family="Times Roman,serif" font-size="14.00">b. 13.9.1918</text>
<text text-anchor="middle" x="1330" y="-542.9" font-family="Times Roman,serif" font-size="14.00">d. 7.1.2005</text>
</g>
<!-- I8&#45;&#45;I11 -->
<g id="edge20" class="edge"><title>I8&#45;&#45;I11</title>
<path fill="none" stroke="orange" stroke-width="2" d="M1061.18,-1020C1075.65,-1009.01 1089.86,-996.853 1102,-984 1176.91,-904.67 1240.43,-797.034 1281.24,-719.038"/>
</g>
<!-- I12 -->
<g id="node9" class="node"><title>I12</title>
<ellipse fill="none" stroke="red" stroke-width="2" cx="430" cy="-618" rx="99.9096" ry="43.8406"/>
<text text-anchor="middle" x="430" y="-632.4" font-family="Times Roman,serif" font-size="14.00">Kathleen Kennedy</text>
<text text-anchor="middle" x="430" y="-614.4" font-family="Times Roman,serif" font-size="14.00">b. 1920</text>
<text text-anchor="middle" x="430" y="-596.4" font-family="Times Roman,serif" font-size="14.00">d. 1948</text>
</g>
<!-- I8&#45;&#45;I12 -->
<g id="edge24" class="edge"><title>I8&#45;&#45;I12</title>
<path fill="none" stroke="orange" stroke-width="2" d="M868.734,-1063.28C804.276,-1051.73 722.738,-1028.92 663,-984 548.76,-898.104 475.863,-738.464 445.784,-661.591"/>
</g>
<!-- I13 -->
<g id="node10" class="node"><title>I13</title>
<ellipse fill="none" stroke="red" stroke-width="2" cx="672" cy="-618" rx="123.951" ry="31.1127"/>
<text text-anchor="middle" x="672" y="-623.4" font-family="Times Roman,serif" font-size="14.00">Eunice Mary Kennedy</text>
<text text-anchor="middle" x="672" y="-605.4" font-family="Times Roman,serif" font-size="14.00">b. 10.7.1921 Brookline</text>
</g>
<!-- I8&#45;&#45;I13 -->
<g id="edge28" class="edge"><title>I8&#45;&#45;I13</title>
<path fill="none" stroke="orange" stroke-width="2" d="M868.973,-1057.95C822.958,-1045.14 772.108,-1022.82 740,-984 657.821,-884.648 662.429,-717.872 668.466,-649.096"/>
</g>
<!-- I9 -->
<g id="node11" class="node"><title>I9</title>
<image xlink:href="images/Rose_kennedy.JPG" width="100px" height="200px" preserveAspectRatio="xMinYMin meet" x="839" y="-976"/>
<ellipse fill="none" stroke="red" stroke-width="2" cx="889" cy="-876" rx="140.213" ry="107.48"/>
<text text-anchor="middle" x="889" y="-841.4" font-family="Times Roman,serif" font-size="14.00">Rose Elizabeth Fitzgerald</text>
<text text-anchor="middle" x="889" y="-823.4" font-family="Times Roman,serif" font-size="14.00">b. 22.7.1890 Boston</text>
<text text-anchor="middle" x="889" y="-805.4" font-family="Times Roman,serif" font-size="14.00">d. 22.1.1995 Hyannis Port</text>
</g>
<!-- I8&#45;&#45;I9 -->
<g id="edge32" class="edge"><title>I8&#45;&#45;I9</title>
<path fill="none" stroke="violet" stroke-width="2" d="M949.713,-1019.83C944.275,-1006.95 938.311,-992.82 932.311,-978.606"/>
</g>
<!-- I9&#45;&#45;I1 -->
<g id="edge34" class="edge"><title>I9&#45;&#45;I1</title>
<path fill="none" stroke="red" stroke-width="2" d="M896.086,-768.453C897.909,-740.8 899.82,-711.793 901.473,-686.71"/>
</g>
<!-- I9&#45;&#45;I10 -->
<g id="edge18" class="edge"><title>I9&#45;&#45;I10</title>
<path fill="none" stroke="orange" stroke-width="2" d="M966.682,-786.126C1007.91,-738.426 1055.95,-682.843 1085.16,-649.053"/>
</g>
<!-- I9&#45;&#45;I11 -->
<g id="edge22" class="edge"><title>I9&#45;&#45;I11</title>
<path fill="none" stroke="orange" stroke-width="2" d="M1017.46,-832.567C1080.51,-808.098 1155.86,-773.982 1217,-732 1230.78,-722.535 1244.31,-711.244 1256.95,-699.504"/>
</g>
<!-- I9&#45;&#45;I12 -->
<g id="edge26" class="edge"><title>I9&#45;&#45;I12</title>
<path fill="none" stroke="orange" stroke-width="2" d="M758.215,-836.831C689.488,-812.736 605.88,-777.664 539,-732 509.941,-712.159 482.591,-683.514 462.556,-659.901"/>
</g>
<!-- I9&#45;&#45;I13 -->
<g id="edge30" class="edge"><title>I9&#45;&#45;I13</title>
<path fill="none" stroke="orange" stroke-width="2" d="M812.799,-785.402C772.621,-737.632 725.941,-682.133 697.705,-648.562"/>
</g>
<!-- I3 -->
<g id="node13" class="node"><title>I3</title>
<image xlink:href="images/BE037819.jpg" width="100px" height="157px" preserveAspectRatio="xMinYMin meet" x="105" y="-954.5"/>
<polygon fill="none" stroke="blue" stroke-width="2" points="243,-954.5 67,-954.5 67,-797.5 243,-797.5 243,-954.5"/>
<text text-anchor="middle" x="155" y="-838.9" font-family="Times Roman,serif" font-size="14.00">John Vernou Bouvier III</text>
<text text-anchor="middle" x="155" y="-820.9" font-family="Times Roman,serif" font-size="14.00">b. 1891</text>
<text text-anchor="middle" x="155" y="-802.9" font-family="Times Roman,serif" font-size="14.00">d. 1957</text>
</g>
<!-- I3&#45;&#45;I2 -->
<g id="edge40" class="edge"><title>I3&#45;&#45;I2</title>
<path fill="none" stroke="blue" stroke-width="2" d="M122.863,-797.298C96.1745,-719.19 69.0564,-597.89 113,-504 126.67,-474.794 149.372,-449.386 173.971,-428.318"/>
</g>
<!-- I4 -->
<g id="node14" class="node"><title>I4</title>
<image xlink:href="images/n48862003257_1275276_1366.jpg" width="100px" height="203px" preserveAspectRatio="xMinYMin meet" x="167" y="-719.5"/>
<ellipse fill="none" stroke="red" stroke-width="2" cx="217" cy="-618" rx="94.7523" ry="108.894"/>
<text text-anchor="middle" x="217" y="-582.4" font-family="Times Roman,serif" font-size="14.00">Janet Norton Lee</text>
<text text-anchor="middle" x="217" y="-564.4" font-family="Times Roman,serif" font-size="14.00">b. 2.10.1877</text>
<text text-anchor="middle" x="217" y="-546.4" font-family="Times Roman,serif" font-size="14.00">d. 3.1.1968</text>
</g>
<!-- I3&#45;&#45;I4 -->
<g id="edge42" class="edge"><title>I3&#45;&#45;I4</title>
<path fill="none" stroke="violet" stroke-width="2" d="M173.939,-797.19C179.53,-773.924 185.741,-748.078 191.666,-723.421"/>
</g>
<!-- I4&#45;&#45;I2 -->
<g id="edge44" class="edge"><title>I4&#45;&#45;I2</title>
<path fill="none" stroke="red" stroke-width="2" d="M245.469,-513.746C249.79,-497.923 254.256,-481.57 258.596,-465.676"/>
</g>
</g>
</svg>
