<?xml version="1.0" encoding="UTF-8" standalone="no"?>
<!DOCTYPE svg PUBLIC "-//W3C//DTD SVG 1.0//EN"
 "http://www.w3.org/TR/2001/REC-SVG-20010904/DTD/svg10.dtd" [
 <!ATTLIST svg xmlns:xlink CDATA #FIXED "http://www.w3.org/1999/xlink">
]>
<!-- Generated by Graphviz version 2.21.0 (Wed Aug &#160;6 18:38:10 UTC 2008)
     For user: (yifanhu) Yifan Hu -->
<!-- Title: Ped_Lion_Share Pages: 1 -->
<svg width="730pt" height="744pt"
 viewBox="0.00 0.00 730.00 744.00" xmlns="http://www.w3.org/2000/svg" xmlns:xlink="http://www.w3.org/1999/xlink">
<g id="graph0" class="graph" transform="scale(1 1) rotate(0) translate(4 740)">
<title>Ped_Lion_Share</title>
<polygon style="fill:white;stroke:white;" points="-4,4 -4,-740 726,-740 726,4 -4,4"/>
<text text-anchor="middle" x="361" y="-7.4" style="font-family:Times New Roman;font-size:14.00;">Pedigree Lion_Share</text>
<!-- 001 -->
<g id="node1" class="node"><title>001</title>
<polygon style="fill:white;stroke:black;" points="262,-721 226,-721 226,-685 262,-685 262,-721"/>
<text text-anchor="middle" x="244" y="-698.4" style="font-family:Times New Roman;font-size:14.00;">001</text>
</g>
<!-- marr0001 -->
<g id="node31" class="node"><title>marr0001</title>
<polygon style="fill:lightgrey;stroke:black;" points="335,-633.95 332,-629 335,-624.05 338,-629 335,-633.95"/>
</g>
<!-- 001&#45;&gt;marr0001 -->
<g id="edge2" class="edge"><title>001&#45;&gt;marr0001</title>
<path style="fill:none;stroke:black;" d="M262,-688C286,-669 324,-638 333,-631"/>
</g>
<!-- marr0002 -->
<g id="node35" class="node"><title>marr0002</title>
<polygon style="fill:lightgrey;stroke:black;" points="148,-633.95 145,-629 148,-624.05 151,-629 148,-633.95"/>
</g>
<!-- 001&#45;&gt;marr0002 -->
<g id="edge8" class="edge"><title>001&#45;&gt;marr0002</title>
<path style="fill:none;stroke:black;" d="M226,-689C202,-671 160,-638 150,-631"/>
</g>
<!-- 002 -->
<g id="node2" class="node"><title>002</title>
<polygon style="fill:white;stroke:black;" points="531,-721 493,-721 493,-685 531,-685 531,-721"/>
<text text-anchor="middle" x="512" y="-698.4" style="font-family:Times New Roman;font-size:14.00;">002</text>
</g>
<!-- marr0003 -->
<g id="node39" class="node"><title>marr0003</title>
<polygon style="fill:lightgrey;stroke:black;" points="399,-633.95 396,-629 399,-624.05 402,-629 399,-633.95"/>
</g>
<!-- 002&#45;&gt;marr0003 -->
<g id="edge14" class="edge"><title>002&#45;&gt;marr0003</title>
<path style="fill:none;stroke:black;" d="M493,-690C465,-671 413,-638 401,-631"/>
</g>
<!-- marr0004 -->
<g id="node43" class="node"><title>marr0004</title>
<polygon style="fill:lightgrey;stroke:black;" points="459,-501.95 456,-497 459,-492.05 462,-497 459,-501.95"/>
</g>
<!-- 002&#45;&gt;marr0004 -->
<g id="edge20" class="edge"><title>002&#45;&gt;marr0004</title>
<path style="fill:none;stroke:black;" d="M513,-685C514,-653 514,-587 493,-538 485,-520 468,-504 461,-499"/>
</g>
<!-- marr0005 -->
<g id="node47" class="node"><title>marr0005</title>
<polygon style="fill:lightgrey;stroke:black;" points="690,-633.95 687,-629 690,-624.05 693,-629 690,-633.95"/>
</g>
<!-- 002&#45;&gt;marr0005 -->
<g id="edge26" class="edge"><title>002&#45;&gt;marr0005</title>
<path style="fill:none;stroke:black;" d="M531,-695C573,-678 669,-638 687,-630"/>
</g>
<!-- 003 -->
<g id="node3" class="node"><title>003</title>
<ellipse style="fill:white;stroke:black;" cx="400" cy="-703" rx="24.9913" ry="24.9913"/>
<text text-anchor="middle" x="400" y="-698.4" style="font-family:Times New Roman;font-size:14.00;">003</text>
</g>
<!-- 003&#45;&gt;marr0003 -->
<g id="edge16" class="edge"><title>003&#45;&gt;marr0003</title>
<path style="fill:none;stroke:black;" d="M400,-678C399,-662 399,-643 399,-634"/>
</g>
<!-- 004 -->
<g id="node4" class="node"><title>004</title>
<polygon style="fill:white;stroke:black;" points="38,-581 1.77636e-14,-581 0,-545 38,-545 38,-581"/>
<text text-anchor="middle" x="19" y="-558.4" style="font-family:Times New Roman;font-size:14.00;">004</text>
</g>
<!-- marr0006 -->
<g id="node51" class="node"><title>marr0006</title>
<polygon style="fill:lightgrey;stroke:black;" points="81,-501.95 78,-497 81,-492.05 84,-497 81,-501.95"/>
</g>
<!-- 004&#45;&gt;marr0006 -->
<g id="edge32" class="edge"><title>004&#45;&gt;marr0006</title>
<path style="fill:none;stroke:black;" d="M36,-545C51,-528 72,-506 79,-499"/>
</g>
<!-- 005 -->
<g id="node5" class="node"><title>005</title>
<polygon style="fill:white;stroke:black;" points="294,-581 256,-581 256,-545 294,-545 294,-581"/>
<text text-anchor="middle" x="275" y="-558.4" style="font-family:Times New Roman;font-size:14.00;">005</text>
</g>
<!-- marr0007 -->
<g id="node55" class="node"><title>marr0007</title>
<polygon style="fill:lightgrey;stroke:black;" points="275,-501.95 272,-497 275,-492.05 278,-497 275,-501.95"/>
</g>
<!-- 005&#45;&gt;marr0007 -->
<g id="edge38" class="edge"><title>005&#45;&gt;marr0007</title>
<path style="fill:none;stroke:black;" d="M275,-545C275,-530 275,-511 275,-502"/>
</g>
<!-- marr0008 -->
<g id="node59" class="node"><title>marr0008</title>
<polygon style="fill:lightgrey;stroke:black;" points="542,-501.95 539,-497 542,-492.05 545,-497 542,-501.95"/>
</g>
<!-- 005&#45;&gt;marr0008 -->
<g id="edge44" class="edge"><title>005&#45;&gt;marr0008</title>
<path style="fill:none;stroke:black;" d="M292,-545C295,-542 299,-540 303,-538 347,-516 514,-500 539,-497"/>
</g>
<!-- marr0009 -->
<g id="node63" class="node"><title>marr0009</title>
<polygon style="fill:lightgrey;stroke:black;" points="178,-501.95 175,-497 178,-492.05 181,-497 178,-501.95"/>
</g>
<!-- 005&#45;&gt;marr0009 -->
<g id="edge50" class="edge"><title>005&#45;&gt;marr0009</title>
<path style="fill:none;stroke:black;" d="M256,-545C253,-542 250,-540 247,-538 222,-519 190,-503 180,-498"/>
</g>
<!-- 006 -->
<g id="node6" class="node"><title>006</title>
<ellipse style="fill:white;stroke:black;" cx="459" cy="-563" rx="24.9913" ry="24.9913"/>
<text text-anchor="middle" x="459" y="-558.4" style="font-family:Times New Roman;font-size:14.00;">006</text>
</g>
<!-- 006&#45;&gt;marr0004 -->
<g id="edge22" class="edge"><title>006&#45;&gt;marr0004</title>
<path style="fill:none;stroke:black;" d="M459,-538C459,-525 459,-510 459,-502"/>
</g>
<!-- 007 -->
<g id="node7" class="node"><title>007</title>
<ellipse style="fill:white;stroke:black;" cx="332" cy="-703" rx="24.9913" ry="24.9913"/>
<text text-anchor="middle" x="332" y="-698.4" style="font-family:Times New Roman;font-size:14.00;">007</text>
</g>
<!-- 007&#45;&gt;marr0001 -->
<g id="edge4" class="edge"><title>007&#45;&gt;marr0001</title>
<path style="fill:none;stroke:black;" d="M333,-678C334,-662 334,-643 335,-634"/>
</g>
<!-- 009 -->
<g id="node8" class="node"><title>009</title>
<ellipse style="fill:white;stroke:black;" cx="81" cy="-563" rx="24.9913" ry="24.9913"/>
<text text-anchor="middle" x="81" y="-558.4" style="font-family:Times New Roman;font-size:14.00;">009</text>
</g>
<!-- 009&#45;&gt;marr0006 -->
<g id="edge34" class="edge"><title>009&#45;&gt;marr0006</title>
<path style="fill:none;stroke:black;" d="M81,-538C81,-525 81,-510 81,-502"/>
</g>
<!-- 014 -->
<g id="node9" class="node"><title>014</title>
<ellipse style="fill:white;stroke:black;" cx="630" cy="-563" rx="24.1495" ry="24.1495"/>
<text text-anchor="middle" x="630" y="-558.4" style="font-family:Times New Roman;font-size:14.00;">014</text>
</g>
<!-- marr0012 -->
<g id="node75" class="node"><title>marr0012</title>
<polygon style="fill:lightgrey;stroke:black;" points="630,-501.95 627,-497 630,-492.05 633,-497 630,-501.95"/>
</g>
<!-- 014&#45;&gt;marr0012 -->
<g id="edge70" class="edge"><title>014&#45;&gt;marr0012</title>
<path style="fill:none;stroke:black;" d="M630,-539C630,-525 630,-510 630,-502"/>
</g>
<!-- 015 -->
<g id="node10" class="node"><title>015</title>
<ellipse style="fill:white;stroke:black;" cx="214" cy="-563" rx="24.1495" ry="24.1495"/>
<text text-anchor="middle" x="214" y="-558.4" style="font-family:Times New Roman;font-size:14.00;">015</text>
</g>
<!-- 015&#45;&gt;marr0007 -->
<g id="edge40" class="edge"><title>015&#45;&gt;marr0007</title>
<path style="fill:none;stroke:black;" d="M230,-545C245,-529 267,-506 273,-499"/>
</g>
<!-- 016 -->
<g id="node11" class="node"><title>016</title>
<ellipse style="fill:white;stroke:black;" cx="564" cy="-563" rx="24.1495" ry="24.1495"/>
<text text-anchor="middle" x="564" y="-558.4" style="font-family:Times New Roman;font-size:14.00;">016</text>
</g>
<!-- 016&#45;&gt;marr0008 -->
<g id="edge46" class="edge"><title>016&#45;&gt;marr0008</title>
<path style="fill:none;stroke:black;" d="M556,-540C551,-525 546,-508 543,-501"/>
</g>
<!-- ZZ01 -->
<g id="node12" class="node"><title>ZZ01</title>
<ellipse style="fill:white;stroke:black;" cx="690" cy="-703" rx="32.1994" ry="32.1994"/>
<text text-anchor="middle" x="690" y="-698.4" style="font-family:Times New Roman;font-size:14.00;">ZZ01</text>
</g>
<!-- ZZ01&#45;&gt;marr0005 -->
<g id="edge28" class="edge"><title>ZZ01&#45;&gt;marr0005</title>
<path style="fill:none;stroke:black;" d="M690,-671C690,-657 690,-642 690,-634"/>
</g>
<!-- ZZ02 -->
<g id="node13" class="node"><title>ZZ02</title>
<ellipse style="fill:white;stroke:black;" cx="148" cy="-703" rx="32.8702" ry="32.8702"/>
<text text-anchor="middle" x="148" y="-698.4" style="font-family:Times New Roman;font-size:14.00;">ZZ02</text>
</g>
<!-- ZZ02&#45;&gt;marr0002 -->
<g id="edge10" class="edge"><title>ZZ02&#45;&gt;marr0002</title>
<path style="fill:none;stroke:black;" d="M148,-670C148,-656 148,-641 148,-634"/>
</g>
<!-- 017 -->
<g id="node14" class="node"><title>017</title>
<ellipse style="fill:white;stroke:black;" cx="336" cy="-563" rx="24.1495" ry="24.1495"/>
<text text-anchor="middle" x="336" y="-558.4" style="font-family:Times New Roman;font-size:14.00;">017</text>
</g>
<!-- marr0010 -->
<g id="node67" class="node"><title>marr0010</title>
<polygon style="fill:lightgrey;stroke:black;" points="370,-501.95 367,-497 370,-492.05 373,-497 370,-501.95"/>
</g>
<!-- 017&#45;&gt;marr0010 -->
<g id="edge58" class="edge"><title>017&#45;&gt;marr0010</title>
<path style="fill:none;stroke:black;" d="M347,-541C355,-526 365,-507 369,-500"/>
</g>
<!-- 012 -->
<g id="node15" class="node"><title>012</title>
<ellipse style="fill:white;stroke:black;" cx="148" cy="-563" rx="24.1495" ry="24.1495"/>
<text text-anchor="middle" x="148" y="-558.4" style="font-family:Times New Roman;font-size:14.00;">012</text>
</g>
<!-- 012&#45;&gt;marr0009 -->
<g id="edge52" class="edge"><title>012&#45;&gt;marr0009</title>
<path style="fill:none;stroke:black;" d="M158,-541C165,-526 173,-508 177,-500"/>
</g>
<!-- 008 -->
<g id="node16" class="node"><title>008</title>
<polygon style="fill:white;stroke:black;" points="416,-581 378,-581 378,-545 416,-545 416,-581"/>
<text text-anchor="middle" x="397" y="-558.4" style="font-family:Times New Roman;font-size:14.00;">008</text>
</g>
<!-- 008&#45;&gt;marr0010 -->
<g id="edge56" class="edge"><title>008&#45;&gt;marr0010</title>
<path style="fill:none;stroke:black;" d="M390,-545C384,-529 375,-508 371,-500"/>
</g>
<!-- 011 -->
<g id="node17" class="node"><title>011</title>
<polygon style="fill:white;stroke:black;" points="477,-449 441,-449 441,-413 477,-413 477,-449"/>
<text text-anchor="middle" x="459" y="-426.4" style="font-family:Times New Roman;font-size:14.00;">011</text>
</g>
<!-- marr0011 -->
<g id="node71" class="node"><title>marr0011</title>
<polygon style="fill:lightgrey;stroke:black;" points="291,-369.95 288,-365 291,-360.05 294,-365 291,-369.95"/>
</g>
<!-- 011&#45;&gt;marr0011 -->
<g id="edge62" class="edge"><title>011&#45;&gt;marr0011</title>
<path style="fill:none;stroke:black;" d="M441,-422C430,-417 416,-411 403,-406 359,-389 306,-370 294,-366"/>
</g>
<!-- 013 -->
<g id="node18" class="node"><title>013</title>
<polygon style="fill:white;stroke:black;" points="708,-581 672,-581 672,-545 708,-545 708,-581"/>
<text text-anchor="middle" x="690" y="-558.4" style="font-family:Times New Roman;font-size:14.00;">013</text>
</g>
<!-- 013&#45;&gt;marr0012 -->
<g id="edge68" class="edge"><title>013&#45;&gt;marr0012</title>
<path style="fill:none;stroke:black;" d="M674,-545C659,-528 639,-506 632,-499"/>
</g>
<!-- 010 -->
<g id="node19" class="node"><title>010</title>
<polygon style="fill:white;stroke:black;" points="99,-449 63,-449 63,-413 99,-413 99,-449"/>
<text text-anchor="middle" x="81" y="-426.4" style="font-family:Times New Roman;font-size:14.00;">010</text>
</g>
<!-- marr0013 -->
<g id="node79" class="node"><title>marr0013</title>
<polygon style="fill:lightgrey;stroke:black;" points="178,-369.95 175,-365 178,-360.05 181,-365 178,-369.95"/>
</g>
<!-- 010&#45;&gt;marr0013 -->
<g id="edge74" class="edge"><title>010&#45;&gt;marr0013</title>
<path style="fill:none;stroke:black;" d="M99,-419C123,-402 166,-373 176,-367"/>
</g>
<!-- 023 -->
<g id="node20" class="node"><title>023</title>
<ellipse style="fill:white;stroke:black;" cx="275" cy="-431" rx="24.9913" ry="24.9913"/>
<text text-anchor="middle" x="275" y="-426.4" style="font-family:Times New Roman;font-size:14.00;">023</text>
</g>
<!-- 023&#45;&gt;marr0011 -->
<g id="edge64" class="edge"><title>023&#45;&gt;marr0011</title>
<path style="fill:none;stroke:black;" d="M281,-406C285,-393 289,-376 290,-369"/>
</g>
<!-- 020 -->
<g id="node21" class="node"><title>020</title>
<ellipse style="fill:white;stroke:black;" cx="542" cy="-431" rx="24.9913" ry="24.9913"/>
<text text-anchor="middle" x="542" y="-426.4" style="font-family:Times New Roman;font-size:14.00;">020</text>
</g>
<!-- marr0014 -->
<g id="node83" class="node"><title>marr0014</title>
<polygon style="fill:lightgrey;stroke:black;" points="542,-369.95 539,-365 542,-360.05 545,-365 542,-369.95"/>
</g>
<!-- 020&#45;&gt;marr0014 -->
<g id="edge82" class="edge"><title>020&#45;&gt;marr0014</title>
<path style="fill:none;stroke:black;" d="M542,-406C542,-393 542,-378 542,-370"/>
</g>
<!-- 021 -->
<g id="node22" class="node"><title>021</title>
<ellipse style="fill:white;stroke:black;" cx="178" cy="-431" rx="24.8204" ry="24.8204"/>
<text text-anchor="middle" x="178" y="-426.4" style="font-family:Times New Roman;font-size:14.00;">021</text>
</g>
<!-- 021&#45;&gt;marr0013 -->
<g id="edge76" class="edge"><title>021&#45;&gt;marr0013</title>
<path style="fill:none;stroke:black;" d="M178,-406C178,-393 178,-378 178,-370"/>
</g>
<!-- 018 -->
<g id="node23" class="node"><title>018</title>
<ellipse style="fill:white;stroke:black;" cx="370" cy="-431" rx="24.1495" ry="24.1495"/>
<text text-anchor="middle" x="370" y="-426.4" style="font-family:Times New Roman;font-size:14.00;">018</text>
</g>
<!-- marr0016 -->
<g id="node91" class="node"><title>marr0016</title>
<polygon style="fill:lightgrey;stroke:black;" points="370,-237.95 367,-233 370,-228.05 373,-233 370,-237.95"/>
</g>
<!-- 018&#45;&gt;marr0016 -->
<g id="edge94" class="edge"><title>018&#45;&gt;marr0016</title>
<path style="fill:none;stroke:black;" d="M370,-407C370,-360 370,-261 370,-238"/>
</g>
<!-- 025 -->
<g id="node24" class="node"><title>025</title>
<ellipse style="fill:white;stroke:black;" cx="291" cy="-299" rx="24.9913" ry="24.9913"/>
<text text-anchor="middle" x="291" y="-294.4" style="font-family:Times New Roman;font-size:14.00;">025</text>
</g>
<!-- marr0015 -->
<g id="node87" class="node"><title>marr0015</title>
<polygon style="fill:lightgrey;stroke:black;" points="291,-237.95 288,-233 291,-228.05 294,-233 291,-237.95"/>
</g>
<!-- 025&#45;&gt;marr0015 -->
<g id="edge88" class="edge"><title>025&#45;&gt;marr0015</title>
<path style="fill:none;stroke:black;" d="M291,-274C291,-261 291,-246 291,-238"/>
</g>
<!-- 019 -->
<g id="node25" class="node"><title>019</title>
<polygon style="fill:white;stroke:black;" points="648,-449 612,-449 612,-413 648,-413 648,-449"/>
<text text-anchor="middle" x="630" y="-426.4" style="font-family:Times New Roman;font-size:14.00;">019</text>
</g>
<!-- 019&#45;&gt;marr0014 -->
<g id="edge80" class="edge"><title>019&#45;&gt;marr0014</title>
<path style="fill:none;stroke:black;" d="M612,-417C589,-401 553,-374 544,-367"/>
</g>
<!-- 022 -->
<g id="node26" class="node"><title>022</title>
<polygon style="fill:white;stroke:black;" points="197,-317 159,-317 159,-281 197,-281 197,-317"/>
<text text-anchor="middle" x="178" y="-294.4" style="font-family:Times New Roman;font-size:14.00;">022</text>
</g>
<!-- 022&#45;&gt;marr0015 -->
<g id="edge86" class="edge"><title>022&#45;&gt;marr0015</title>
<path style="fill:none;stroke:black;" d="M197,-288C225,-271 277,-241 289,-234"/>
</g>
<!-- 024 -->
<g id="node27" class="node"><title>024</title>
<polygon style="fill:white;stroke:black;" points="561,-317 523,-317 523,-281 561,-281 561,-317"/>
<text text-anchor="middle" x="542" y="-294.4" style="font-family:Times New Roman;font-size:14.00;">024</text>
</g>
<!-- 024&#45;&gt;marr0016 -->
<g id="edge92" class="edge"><title>024&#45;&gt;marr0016</title>
<path style="fill:none;stroke:black;" d="M523,-292C482,-277 390,-241 373,-234"/>
</g>
<!-- 027 -->
<g id="node28" class="node"><title>027</title>
<ellipse style="fill:white;stroke:black;" cx="291" cy="-167" rx="24.8204" ry="24.8204"/>
<text text-anchor="middle" x="291" y="-162.4" style="font-family:Times New Roman;font-size:14.00;">027</text>
</g>
<!-- marr0017 -->
<g id="node95" class="node"><title>marr0017</title>
<polygon style="fill:lightgrey;stroke:black;" points="330,-105.95 327,-101 330,-96.0503 333,-101 330,-105.95"/>
</g>
<!-- 027&#45;&gt;marr0017 -->
<g id="edge100" class="edge"><title>027&#45;&gt;marr0017</title>
<path style="fill:none;stroke:black;" d="M304,-145C313,-130 324,-111 328,-104"/>
</g>
<!-- 026 -->
<g id="node29" class="node"><title>026</title>
<polygon style="fill:white;stroke:black;" points="389,-185 351,-185 351,-149 389,-149 389,-185"/>
<text text-anchor="middle" x="370" y="-162.4" style="font-family:Times New Roman;font-size:14.00;">026</text>
</g>
<!-- 026&#45;&gt;marr0017 -->
<g id="edge98" class="edge"><title>026&#45;&gt;marr0017</title>
<path style="fill:none;stroke:black;" d="M359,-149C349,-133 336,-111 332,-104"/>
</g>
<!-- 028 -->
<g id="node30" class="node"><title>028</title>
<polygon style="fill:grey;stroke:black;" points="349,-60 311,-60 311,-24 349,-24 349,-60"/>
<text text-anchor="middle" x="330" y="-37.4" style="font-family:Times New Roman;font-size:14.00;">028</text>
</g>
<!-- marr0001&#45;&gt;017 -->
<g id="edge6" class="edge"><title>marr0001&#45;&gt;017</title>
<path style="fill:none;stroke:black;" d="M335,-624C335,-616 335,-601 336,-587"/>
</g>
<!-- marr0002&#45;&gt;012 -->
<g id="edge12" class="edge"><title>marr0002&#45;&gt;012</title>
<path style="fill:none;stroke:black;" d="M148,-624C148,-616 148,-601 148,-587"/>
</g>
<!-- marr0003&#45;&gt;008 -->
<g id="edge18" class="edge"><title>marr0003&#45;&gt;008</title>
<path style="fill:none;stroke:black;" d="M399,-624C398,-615 398,-596 397,-581"/>
</g>
<!-- marr0004&#45;&gt;011 -->
<g id="edge24" class="edge"><title>marr0004&#45;&gt;011</title>
<path style="fill:none;stroke:black;" d="M459,-492C459,-483 459,-464 459,-449"/>
</g>
<!-- marr0005&#45;&gt;013 -->
<g id="edge30" class="edge"><title>marr0005&#45;&gt;013</title>
<path style="fill:none;stroke:black;" d="M690,-624C690,-615 690,-596 690,-581"/>
</g>
<!-- marr0006&#45;&gt;010 -->
<g id="edge36" class="edge"><title>marr0006&#45;&gt;010</title>
<path style="fill:none;stroke:black;" d="M81,-492C81,-483 81,-464 81,-449"/>
</g>
<!-- marr0007&#45;&gt;023 -->
<g id="edge42" class="edge"><title>marr0007&#45;&gt;023</title>
<path style="fill:none;stroke:black;" d="M275,-492C275,-484 275,-469 275,-456"/>
</g>
<!-- marr0008&#45;&gt;020 -->
<g id="edge48" class="edge"><title>marr0008&#45;&gt;020</title>
<path style="fill:none;stroke:black;" d="M542,-492C542,-484 542,-469 542,-456"/>
</g>
<!-- marr0009&#45;&gt;021 -->
<g id="edge54" class="edge"><title>marr0009&#45;&gt;021</title>
<path style="fill:none;stroke:black;" d="M178,-492C178,-484 178,-469 178,-456"/>
</g>
<!-- marr0010&#45;&gt;018 -->
<g id="edge60" class="edge"><title>marr0010&#45;&gt;018</title>
<path style="fill:none;stroke:black;" d="M370,-492C370,-484 370,-469 370,-455"/>
</g>
<!-- marr0011&#45;&gt;025 -->
<g id="edge66" class="edge"><title>marr0011&#45;&gt;025</title>
<path style="fill:none;stroke:black;" d="M291,-360C291,-352 291,-337 291,-324"/>
</g>
<!-- marr0012&#45;&gt;019 -->
<g id="edge72" class="edge"><title>marr0012&#45;&gt;019</title>
<path style="fill:none;stroke:black;" d="M630,-492C630,-483 630,-464 630,-449"/>
</g>
<!-- marr0013&#45;&gt;022 -->
<g id="edge78" class="edge"><title>marr0013&#45;&gt;022</title>
<path style="fill:none;stroke:black;" d="M178,-360C178,-351 178,-332 178,-317"/>
</g>
<!-- marr0014&#45;&gt;024 -->
<g id="edge84" class="edge"><title>marr0014&#45;&gt;024</title>
<path style="fill:none;stroke:black;" d="M542,-360C542,-351 542,-332 542,-317"/>
</g>
<!-- marr0015&#45;&gt;027 -->
<g id="edge90" class="edge"><title>marr0015&#45;&gt;027</title>
<path style="fill:none;stroke:black;" d="M291,-228C291,-220 291,-205 291,-192"/>
</g>
<!-- marr0016&#45;&gt;026 -->
<g id="edge96" class="edge"><title>marr0016&#45;&gt;026</title>
<path style="fill:none;stroke:black;" d="M370,-228C370,-219 370,-200 370,-185"/>
</g>
<!-- marr0017&#45;&gt;028 -->
<g id="edge102" class="edge"><title>marr0017&#45;&gt;028</title>
<path style="fill:none;stroke:black;" d="M330,-96C330,-88 330,-73 330,-60"/>
</g>
</g>
</svg>
