<?xml version="1.0" encoding="UTF-8" standalone="no"?>
<!DOCTYPE svg PUBLIC "-//W3C//DTD SVG 1.0//EN"
 "http://www.w3.org/TR/2001/REC-SVG-20010904/DTD/svg10.dtd" [
 <!ATTLIST svg xmlns:xlink CDATA #FIXED "http://www.w3.org/1999/xlink">
]>
<!-- Generated by Graphviz version 2.21.0 (Wed Aug &#160;6 18:38:10 UTC 2008)
     For user: (yifanhu) Yifan Hu -->
<!-- Pages: 1 -->
<svg width="1299pt" height="556pt"
 viewBox="0.00 0.00 1299.00 556.00" xmlns="http://www.w3.org/2000/svg" xmlns:xlink="http://www.w3.org/1999/xlink">
<g id="graph0" class="graph" transform="scale(1 1) rotate(0) translate(4 552)">
<polygon style="fill:white;stroke:white;" points="-4,4 -4,-552 1295,-552 1295,4 -4,4"/>
<text text-anchor="middle" x="645" y="-7.4" style="font-family:Times New Roman;font-size:14.00;">((+ (* (X) (&#45; (&#45; (X) (X)) (X))) (% (+ (X) (X)) (COS (&#45; (X) (X))))) (EXP (* (X) (X))) (+ (% (EXP (SIN (+ (X) (X)))) (SIN (* (X) (EXP (* (X) (X)))))) (* (X) (X))) (% (EXP (% (X) (% (X) (X)))) (EXP (SIN (X)))))</text>
<g id="cluster2" class="cluster"><title>cluster01</title>
<polygon style="fill:none;stroke:black;" points="8,-176 8,-540 380,-540 380,-176 8,-176"/>
<text text-anchor="middle" x="194" y="-523.4" style="font-family:Times New Roman;font-size:14.00;">(+ (* (X) (&#45; (&#45; (X) (X)) (X))) (% (+ (X) (X)) (COS (&#45; (X) (X)))))</text>
</g>
<g id="cluster3" class="cluster"><title>cluster17</title>
<polygon style="fill:none;stroke:black;" points="388,-320 388,-540 530,-540 530,-320 388,-320"/>
<text text-anchor="middle" x="459" y="-523.4" style="font-family:Times New Roman;font-size:14.00;">(EXP (* (X) (X)))</text>
</g>
<g id="cluster4" class="cluster"><title>cluster21</title>
<polygon style="fill:none;stroke:black;" points="538,-32 538,-540 984,-540 984,-32 538,-32"/>
<text text-anchor="middle" x="761" y="-523.4" style="font-family:Times New Roman;font-size:14.00;">(+ (% (EXP (SIN (+ (X) (X)))) (SIN (* (X) (EXP (* (X) (X)))))) (* (X) (X)))</text>
</g>
<g id="cluster5" class="cluster"><title>cluster38</title>
<polygon style="fill:none;stroke:black;" points="992,-176 992,-540 1283,-540 1283,-176 992,-176"/>
<text text-anchor="middle" x="1137" y="-523.4" style="font-family:Times New Roman;font-size:14.00;">(% (EXP (% (X) (% (X) (X)))) (EXP (SIN (X))))</text>
</g>
<!-- n002 -->
<g id="node2" class="node"><title>n002</title>
<ellipse style="fill:none;stroke:black;" cx="158" cy="-490" rx="27" ry="18"/>
<text text-anchor="middle" x="158" y="-485.4" style="font-family:Times New Roman;font-size:14.00;">+</text>
</g>
<!-- n003 -->
<g id="node4" class="node"><title>n003</title>
<ellipse style="fill:none;stroke:black;" cx="122" cy="-418" rx="27" ry="18"/>
<text text-anchor="middle" x="122" y="-413.4" style="font-family:Times New Roman;font-size:14.00;">*</text>
</g>
<!-- n002&#45;&#45;n003 -->
<g id="edge3" class="edge"><title>n002&#45;&#45;n003</title>
<path style="fill:none;stroke:black;" d="M149,-473C144,-461 136,-447 131,-435"/>
</g>
<!-- n010 -->
<g id="node18" class="node"><title>n010</title>
<ellipse style="fill:none;stroke:black;" cx="229" cy="-418" rx="27" ry="18"/>
<text text-anchor="middle" x="229" y="-413.4" style="font-family:Times New Roman;font-size:14.00;">%</text>
</g>
<!-- n002&#45;&#45;n010 -->
<g id="edge17" class="edge"><title>n002&#45;&#45;n010</title>
<path style="fill:none;stroke:black;" d="M173,-475C185,-463 202,-446 214,-433"/>
</g>
<!-- n004 -->
<g id="node6" class="node"><title>n004</title>
<ellipse style="fill:none;stroke:black;" cx="50" cy="-346" rx="27" ry="18"/>
<text text-anchor="middle" x="50" y="-341.4" style="font-family:Times New Roman;font-size:14.00;">X</text>
</g>
<!-- n003&#45;&#45;n004 -->
<g id="edge5" class="edge"><title>n003&#45;&#45;n004</title>
<path style="fill:none;stroke:black;" d="M107,-403C95,-391 78,-374 65,-361"/>
</g>
<!-- n005 -->
<g id="node8" class="node"><title>n005</title>
<ellipse style="fill:none;stroke:black;" cx="122" cy="-346" rx="27" ry="18"/>
<text text-anchor="middle" x="122" y="-341.4" style="font-family:Times New Roman;font-size:14.00;">&#45;</text>
</g>
<!-- n003&#45;&#45;n005 -->
<g id="edge7" class="edge"><title>n003&#45;&#45;n005</title>
<path style="fill:none;stroke:black;" d="M122,-400C122,-389 122,-375 122,-364"/>
</g>
<!-- n006 -->
<g id="node10" class="node"><title>n006</title>
<ellipse style="fill:none;stroke:black;" cx="50" cy="-274" rx="27" ry="18"/>
<text text-anchor="middle" x="50" y="-269.4" style="font-family:Times New Roman;font-size:14.00;">&#45;</text>
</g>
<!-- n005&#45;&#45;n006 -->
<g id="edge9" class="edge"><title>n005&#45;&#45;n006</title>
<path style="fill:none;stroke:black;" d="M107,-331C95,-319 78,-302 65,-289"/>
</g>
<!-- n009 -->
<g id="node16" class="node"><title>n009</title>
<ellipse style="fill:none;stroke:black;" cx="122" cy="-274" rx="27" ry="18"/>
<text text-anchor="middle" x="122" y="-269.4" style="font-family:Times New Roman;font-size:14.00;">X</text>
</g>
<!-- n005&#45;&#45;n009 -->
<g id="edge15" class="edge"><title>n005&#45;&#45;n009</title>
<path style="fill:none;stroke:black;" d="M122,-328C122,-317 122,-303 122,-292"/>
</g>
<!-- n007 -->
<g id="node12" class="node"><title>n007</title>
<ellipse style="fill:none;stroke:black;" cx="47" cy="-202" rx="27" ry="18"/>
<text text-anchor="middle" x="47" y="-197.4" style="font-family:Times New Roman;font-size:14.00;">X</text>
</g>
<!-- n006&#45;&#45;n007 -->
<g id="edge11" class="edge"><title>n006&#45;&#45;n007</title>
<path style="fill:none;stroke:black;" d="M49,-256C48,-245 48,-231 48,-220"/>
</g>
<!-- n008 -->
<g id="node14" class="node"><title>n008</title>
<ellipse style="fill:none;stroke:black;" cx="119" cy="-202" rx="27" ry="18"/>
<text text-anchor="middle" x="119" y="-197.4" style="font-family:Times New Roman;font-size:14.00;">X</text>
</g>
<!-- n006&#45;&#45;n008 -->
<g id="edge13" class="edge"><title>n006&#45;&#45;n008</title>
<path style="fill:none;stroke:black;" d="M65,-259C77,-247 93,-230 104,-217"/>
</g>
<!-- n011 -->
<g id="node20" class="node"><title>n011</title>
<ellipse style="fill:none;stroke:black;" cx="229" cy="-346" rx="27" ry="18"/>
<text text-anchor="middle" x="229" y="-341.4" style="font-family:Times New Roman;font-size:14.00;">+</text>
</g>
<!-- n010&#45;&#45;n011 -->
<g id="edge19" class="edge"><title>n010&#45;&#45;n011</title>
<path style="fill:none;stroke:black;" d="M229,-400C229,-389 229,-375 229,-364"/>
</g>
<!-- n014 -->
<g id="node26" class="node"><title>n014</title>
<ellipse style="fill:none;stroke:black;" cx="320" cy="-346" rx="29.0158" ry="18"/>
<text text-anchor="middle" x="320" y="-341.4" style="font-family:Times New Roman;font-size:14.00;">COS</text>
</g>
<!-- n010&#45;&#45;n014 -->
<g id="edge25" class="edge"><title>n010&#45;&#45;n014</title>
<path style="fill:none;stroke:black;" d="M247,-404C263,-391 286,-373 302,-360"/>
</g>
<!-- n012 -->
<g id="node22" class="node"><title>n012</title>
<ellipse style="fill:none;stroke:black;" cx="194" cy="-274" rx="27" ry="18"/>
<text text-anchor="middle" x="194" y="-269.4" style="font-family:Times New Roman;font-size:14.00;">X</text>
</g>
<!-- n011&#45;&#45;n012 -->
<g id="edge21" class="edge"><title>n011&#45;&#45;n012</title>
<path style="fill:none;stroke:black;" d="M221,-329C215,-317 208,-303 202,-291"/>
</g>
<!-- n013 -->
<g id="node24" class="node"><title>n013</title>
<ellipse style="fill:none;stroke:black;" cx="266" cy="-274" rx="27" ry="18"/>
<text text-anchor="middle" x="266" y="-269.4" style="font-family:Times New Roman;font-size:14.00;">X</text>
</g>
<!-- n011&#45;&#45;n013 -->
<g id="edge23" class="edge"><title>n011&#45;&#45;n013</title>
<path style="fill:none;stroke:black;" d="M238,-329C244,-318 252,-303 257,-291"/>
</g>
<!-- n015 -->
<g id="node28" class="node"><title>n015</title>
<ellipse style="fill:none;stroke:black;" cx="338" cy="-274" rx="27" ry="18"/>
<text text-anchor="middle" x="338" y="-269.4" style="font-family:Times New Roman;font-size:14.00;">&#45;</text>
</g>
<!-- n014&#45;&#45;n015 -->
<g id="edge27" class="edge"><title>n014&#45;&#45;n015</title>
<path style="fill:none;stroke:black;" d="M324,-328C327,-317 331,-303 334,-292"/>
</g>
<!-- n016 -->
<g id="node30" class="node"><title>n016</title>
<ellipse style="fill:none;stroke:black;" cx="269" cy="-202" rx="27" ry="18"/>
<text text-anchor="middle" x="269" y="-197.4" style="font-family:Times New Roman;font-size:14.00;">X</text>
</g>
<!-- n015&#45;&#45;n016 -->
<g id="edge29" class="edge"><title>n015&#45;&#45;n016</title>
<path style="fill:none;stroke:black;" d="M323,-259C311,-247 295,-230 284,-217"/>
</g>
<!-- n017 -->
<g id="node32" class="node"><title>n017</title>
<ellipse style="fill:none;stroke:black;" cx="341" cy="-202" rx="27" ry="18"/>
<text text-anchor="middle" x="341" y="-197.4" style="font-family:Times New Roman;font-size:14.00;">X</text>
</g>
<!-- n015&#45;&#45;n017 -->
<g id="edge31" class="edge"><title>n015&#45;&#45;n017</title>
<path style="fill:none;stroke:black;" d="M339,-256C340,-245 340,-231 340,-220"/>
</g>
<!-- n018 -->
<g id="node34" class="node"><title>n018</title>
<ellipse style="fill:none;stroke:black;" cx="459" cy="-490" rx="28.8453" ry="18"/>
<text text-anchor="middle" x="459" y="-485.4" style="font-family:Times New Roman;font-size:14.00;">EXP</text>
</g>
<!-- n019 -->
<g id="node36" class="node"><title>n019</title>
<ellipse style="fill:none;stroke:black;" cx="459" cy="-418" rx="27" ry="18"/>
<text text-anchor="middle" x="459" y="-413.4" style="font-family:Times New Roman;font-size:14.00;">*</text>
</g>
<!-- n018&#45;&#45;n019 -->
<g id="edge34" class="edge"><title>n018&#45;&#45;n019</title>
<path style="fill:none;stroke:black;" d="M459,-472C459,-461 459,-447 459,-436"/>
</g>
<!-- n020 -->
<g id="node38" class="node"><title>n020</title>
<ellipse style="fill:none;stroke:black;" cx="423" cy="-346" rx="27" ry="18"/>
<text text-anchor="middle" x="423" y="-341.4" style="font-family:Times New Roman;font-size:14.00;">X</text>
</g>
<!-- n019&#45;&#45;n020 -->
<g id="edge36" class="edge"><title>n019&#45;&#45;n020</title>
<path style="fill:none;stroke:black;" d="M450,-401C445,-389 437,-375 432,-363"/>
</g>
<!-- n021 -->
<g id="node40" class="node"><title>n021</title>
<ellipse style="fill:none;stroke:black;" cx="495" cy="-346" rx="27" ry="18"/>
<text text-anchor="middle" x="495" y="-341.4" style="font-family:Times New Roman;font-size:14.00;">X</text>
</g>
<!-- n019&#45;&#45;n021 -->
<g id="edge38" class="edge"><title>n019&#45;&#45;n021</title>
<path style="fill:none;stroke:black;" d="M468,-401C473,-389 481,-375 486,-363"/>
</g>
<!-- n022 -->
<g id="node42" class="node"><title>n022</title>
<ellipse style="fill:none;stroke:black;" cx="763" cy="-490" rx="27" ry="18"/>
<text text-anchor="middle" x="763" y="-485.4" style="font-family:Times New Roman;font-size:14.00;">+</text>
</g>
<!-- n023 -->
<g id="node44" class="node"><title>n023</title>
<ellipse style="fill:none;stroke:black;" cx="727" cy="-418" rx="27" ry="18"/>
<text text-anchor="middle" x="727" y="-413.4" style="font-family:Times New Roman;font-size:14.00;">%</text>
</g>
<!-- n022&#45;&#45;n023 -->
<g id="edge41" class="edge"><title>n022&#45;&#45;n023</title>
<path style="fill:none;stroke:black;" d="M754,-473C749,-461 741,-447 736,-435"/>
</g>
<!-- n036 -->
<g id="node70" class="node"><title>n036</title>
<ellipse style="fill:none;stroke:black;" cx="799" cy="-418" rx="27" ry="18"/>
<text text-anchor="middle" x="799" y="-413.4" style="font-family:Times New Roman;font-size:14.00;">*</text>
</g>
<!-- n022&#45;&#45;n036 -->
<g id="edge67" class="edge"><title>n022&#45;&#45;n036</title>
<path style="fill:none;stroke:black;" d="M772,-473C777,-461 785,-447 790,-435"/>
</g>
<!-- n024 -->
<g id="node46" class="node"><title>n024</title>
<ellipse style="fill:none;stroke:black;" cx="653" cy="-346" rx="28.8453" ry="18"/>
<text text-anchor="middle" x="653" y="-341.4" style="font-family:Times New Roman;font-size:14.00;">EXP</text>
</g>
<!-- n023&#45;&#45;n024 -->
<g id="edge43" class="edge"><title>n023&#45;&#45;n024</title>
<path style="fill:none;stroke:black;" d="M712,-403C699,-391 682,-374 669,-361"/>
</g>
<!-- n029 -->
<g id="node56" class="node"><title>n029</title>
<ellipse style="fill:none;stroke:black;" cx="727" cy="-346" rx="27" ry="18"/>
<text text-anchor="middle" x="727" y="-341.4" style="font-family:Times New Roman;font-size:14.00;">SIN</text>
</g>
<!-- n023&#45;&#45;n029 -->
<g id="edge53" class="edge"><title>n023&#45;&#45;n029</title>
<path style="fill:none;stroke:black;" d="M727,-400C727,-389 727,-375 727,-364"/>
</g>
<!-- n025 -->
<g id="node48" class="node"><title>n025</title>
<ellipse style="fill:none;stroke:black;" cx="653" cy="-274" rx="27" ry="18"/>
<text text-anchor="middle" x="653" y="-269.4" style="font-family:Times New Roman;font-size:14.00;">SIN</text>
</g>
<!-- n024&#45;&#45;n025 -->
<g id="edge45" class="edge"><title>n024&#45;&#45;n025</title>
<path style="fill:none;stroke:black;" d="M653,-328C653,-317 653,-303 653,-292"/>
</g>
<!-- n026 -->
<g id="node50" class="node"><title>n026</title>
<ellipse style="fill:none;stroke:black;" cx="653" cy="-202" rx="27" ry="18"/>
<text text-anchor="middle" x="653" y="-197.4" style="font-family:Times New Roman;font-size:14.00;">+</text>
</g>
<!-- n025&#45;&#45;n026 -->
<g id="edge47" class="edge"><title>n025&#45;&#45;n026</title>
<path style="fill:none;stroke:black;" d="M653,-256C653,-245 653,-231 653,-220"/>
</g>
<!-- n027 -->
<g id="node52" class="node"><title>n027</title>
<ellipse style="fill:none;stroke:black;" cx="617" cy="-130" rx="27" ry="18"/>
<text text-anchor="middle" x="617" y="-125.4" style="font-family:Times New Roman;font-size:14.00;">X</text>
</g>
<!-- n026&#45;&#45;n027 -->
<g id="edge49" class="edge"><title>n026&#45;&#45;n027</title>
<path style="fill:none;stroke:black;" d="M644,-185C639,-173 631,-159 626,-147"/>
</g>
<!-- n028 -->
<g id="node54" class="node"><title>n028</title>
<ellipse style="fill:none;stroke:black;" cx="689" cy="-130" rx="27" ry="18"/>
<text text-anchor="middle" x="689" y="-125.4" style="font-family:Times New Roman;font-size:14.00;">X</text>
</g>
<!-- n026&#45;&#45;n028 -->
<g id="edge51" class="edge"><title>n026&#45;&#45;n028</title>
<path style="fill:none;stroke:black;" d="M662,-185C667,-173 675,-159 680,-147"/>
</g>
<!-- n030 -->
<g id="node58" class="node"><title>n030</title>
<ellipse style="fill:none;stroke:black;" cx="727" cy="-274" rx="27" ry="18"/>
<text text-anchor="middle" x="727" y="-269.4" style="font-family:Times New Roman;font-size:14.00;">*</text>
</g>
<!-- n029&#45;&#45;n030 -->
<g id="edge55" class="edge"><title>n029&#45;&#45;n030</title>
<path style="fill:none;stroke:black;" d="M727,-328C727,-317 727,-303 727,-292"/>
</g>
<!-- n031 -->
<g id="node60" class="node"><title>n031</title>
<ellipse style="fill:none;stroke:black;" cx="726" cy="-202" rx="27" ry="18"/>
<text text-anchor="middle" x="726" y="-197.4" style="font-family:Times New Roman;font-size:14.00;">X</text>
</g>
<!-- n030&#45;&#45;n031 -->
<g id="edge57" class="edge"><title>n030&#45;&#45;n031</title>
<path style="fill:none;stroke:black;" d="M727,-256C726,-245 726,-231 726,-220"/>
</g>
<!-- n032 -->
<g id="node62" class="node"><title>n032</title>
<ellipse style="fill:none;stroke:black;" cx="800" cy="-202" rx="28.8453" ry="18"/>
<text text-anchor="middle" x="800" y="-197.4" style="font-family:Times New Roman;font-size:14.00;">EXP</text>
</g>
<!-- n030&#45;&#45;n032 -->
<g id="edge59" class="edge"><title>n030&#45;&#45;n032</title>
<path style="fill:none;stroke:black;" d="M742,-259C755,-247 772,-230 785,-217"/>
</g>
<!-- n033 -->
<g id="node64" class="node"><title>n033</title>
<ellipse style="fill:none;stroke:black;" cx="800" cy="-130" rx="27" ry="18"/>
<text text-anchor="middle" x="800" y="-125.4" style="font-family:Times New Roman;font-size:14.00;">*</text>
</g>
<!-- n032&#45;&#45;n033 -->
<g id="edge61" class="edge"><title>n032&#45;&#45;n033</title>
<path style="fill:none;stroke:black;" d="M800,-184C800,-173 800,-159 800,-148"/>
</g>
<!-- n034 -->
<g id="node66" class="node"><title>n034</title>
<ellipse style="fill:none;stroke:black;" cx="764" cy="-58" rx="27" ry="18"/>
<text text-anchor="middle" x="764" y="-53.4" style="font-family:Times New Roman;font-size:14.00;">X</text>
</g>
<!-- n033&#45;&#45;n034 -->
<g id="edge63" class="edge"><title>n033&#45;&#45;n034</title>
<path style="fill:none;stroke:black;" d="M791,-113C786,-101 778,-87 773,-75"/>
</g>
<!-- n035 -->
<g id="node68" class="node"><title>n035</title>
<ellipse style="fill:none;stroke:black;" cx="836" cy="-58" rx="27" ry="18"/>
<text text-anchor="middle" x="836" y="-53.4" style="font-family:Times New Roman;font-size:14.00;">X</text>
</g>
<!-- n033&#45;&#45;n035 -->
<g id="edge65" class="edge"><title>n033&#45;&#45;n035</title>
<path style="fill:none;stroke:black;" d="M809,-113C814,-101 822,-87 827,-75"/>
</g>
<!-- n037 -->
<g id="node72" class="node"><title>n037</title>
<ellipse style="fill:none;stroke:black;" cx="799" cy="-346" rx="27" ry="18"/>
<text text-anchor="middle" x="799" y="-341.4" style="font-family:Times New Roman;font-size:14.00;">X</text>
</g>
<!-- n036&#45;&#45;n037 -->
<g id="edge69" class="edge"><title>n036&#45;&#45;n037</title>
<path style="fill:none;stroke:black;" d="M799,-400C799,-389 799,-375 799,-364"/>
</g>
<!-- n038 -->
<g id="node74" class="node"><title>n038</title>
<ellipse style="fill:none;stroke:black;" cx="871" cy="-346" rx="27" ry="18"/>
<text text-anchor="middle" x="871" y="-341.4" style="font-family:Times New Roman;font-size:14.00;">X</text>
</g>
<!-- n036&#45;&#45;n038 -->
<g id="edge71" class="edge"><title>n036&#45;&#45;n038</title>
<path style="fill:none;stroke:black;" d="M814,-403C826,-391 843,-374 856,-361"/>
</g>
<!-- n039 -->
<g id="node76" class="node"><title>n039</title>
<ellipse style="fill:none;stroke:black;" cx="1172" cy="-490" rx="27" ry="18"/>
<text text-anchor="middle" x="1172" y="-485.4" style="font-family:Times New Roman;font-size:14.00;">%</text>
</g>
<!-- n040 -->
<g id="node78" class="node"><title>n040</title>
<ellipse style="fill:none;stroke:black;" cx="1134" cy="-418" rx="28.8453" ry="18"/>
<text text-anchor="middle" x="1134" y="-413.4" style="font-family:Times New Roman;font-size:14.00;">EXP</text>
</g>
<!-- n039&#45;&#45;n040 -->
<g id="edge74" class="edge"><title>n039&#45;&#45;n040</title>
<path style="fill:none;stroke:black;" d="M1163,-473C1157,-462 1149,-447 1143,-436"/>
</g>
<!-- n046 -->
<g id="node90" class="node"><title>n046</title>
<ellipse style="fill:none;stroke:black;" cx="1210" cy="-418" rx="28.8453" ry="18"/>
<text text-anchor="middle" x="1210" y="-413.4" style="font-family:Times New Roman;font-size:14.00;">EXP</text>
</g>
<!-- n039&#45;&#45;n046 -->
<g id="edge86" class="edge"><title>n039&#45;&#45;n046</title>
<path style="fill:none;stroke:black;" d="M1181,-473C1187,-462 1195,-447 1201,-436"/>
</g>
<!-- n041 -->
<g id="node80" class="node"><title>n041</title>
<ellipse style="fill:none;stroke:black;" cx="1134" cy="-346" rx="27" ry="18"/>
<text text-anchor="middle" x="1134" y="-341.4" style="font-family:Times New Roman;font-size:14.00;">%</text>
</g>
<!-- n040&#45;&#45;n041 -->
<g id="edge76" class="edge"><title>n040&#45;&#45;n041</title>
<path style="fill:none;stroke:black;" d="M1134,-400C1134,-389 1134,-375 1134,-364"/>
</g>
<!-- n042 -->
<g id="node82" class="node"><title>n042</title>
<ellipse style="fill:none;stroke:black;" cx="1064" cy="-274" rx="27" ry="18"/>
<text text-anchor="middle" x="1064" y="-269.4" style="font-family:Times New Roman;font-size:14.00;">X</text>
</g>
<!-- n041&#45;&#45;n042 -->
<g id="edge78" class="edge"><title>n041&#45;&#45;n042</title>
<path style="fill:none;stroke:black;" d="M1119,-331C1107,-319 1091,-302 1079,-289"/>
</g>
<!-- n043 -->
<g id="node84" class="node"><title>n043</title>
<ellipse style="fill:none;stroke:black;" cx="1136" cy="-274" rx="27" ry="18"/>
<text text-anchor="middle" x="1136" y="-269.4" style="font-family:Times New Roman;font-size:14.00;">%</text>
</g>
<!-- n041&#45;&#45;n043 -->
<g id="edge80" class="edge"><title>n041&#45;&#45;n043</title>
<path style="fill:none;stroke:black;" d="M1135,-328C1135,-317 1135,-303 1136,-292"/>
</g>
<!-- n044 -->
<g id="node86" class="node"><title>n044</title>
<ellipse style="fill:none;stroke:black;" cx="1100" cy="-202" rx="27" ry="18"/>
<text text-anchor="middle" x="1100" y="-197.4" style="font-family:Times New Roman;font-size:14.00;">X</text>
</g>
<!-- n043&#45;&#45;n044 -->
<g id="edge82" class="edge"><title>n043&#45;&#45;n044</title>
<path style="fill:none;stroke:black;" d="M1127,-257C1122,-245 1114,-231 1109,-219"/>
</g>
<!-- n045 -->
<g id="node88" class="node"><title>n045</title>
<ellipse style="fill:none;stroke:black;" cx="1172" cy="-202" rx="27" ry="18"/>
<text text-anchor="middle" x="1172" y="-197.4" style="font-family:Times New Roman;font-size:14.00;">X</text>
</g>
<!-- n043&#45;&#45;n045 -->
<g id="edge84" class="edge"><title>n043&#45;&#45;n045</title>
<path style="fill:none;stroke:black;" d="M1145,-257C1150,-245 1158,-231 1163,-219"/>
</g>
<!-- n047 -->
<g id="node92" class="node"><title>n047</title>
<ellipse style="fill:none;stroke:black;" cx="1210" cy="-346" rx="27" ry="18"/>
<text text-anchor="middle" x="1210" y="-341.4" style="font-family:Times New Roman;font-size:14.00;">SIN</text>
</g>
<!-- n046&#45;&#45;n047 -->
<g id="edge88" class="edge"><title>n046&#45;&#45;n047</title>
<path style="fill:none;stroke:black;" d="M1210,-400C1210,-389 1210,-375 1210,-364"/>
</g>
<!-- n048 -->
<g id="node94" class="node"><title>n048</title>
<ellipse style="fill:none;stroke:black;" cx="1210" cy="-274" rx="27" ry="18"/>
<text text-anchor="middle" x="1210" y="-269.4" style="font-family:Times New Roman;font-size:14.00;">X</text>
</g>
<!-- n047&#45;&#45;n048 -->
<g id="edge90" class="edge"><title>n047&#45;&#45;n048</title>
<path style="fill:none;stroke:black;" d="M1210,-328C1210,-317 1210,-303 1210,-292"/>
</g>
</g>
</svg>
