<?xml version="1.0" encoding="UTF-8" standalone="no"?>
<!DOCTYPE svg PUBLIC "-//W3C//DTD SVG 1.0//EN"
 "http://www.w3.org/TR/2001/REC-SVG-20010904/DTD/svg10.dtd" [
 <!ATTLIST svg xmlns:xlink CDATA #FIXED "http://www.w3.org/1999/xlink">
]>
<!-- Generated by Graphviz version 2.21.0 (Wed Jul 23 15:20:11 UTC 2008)
     For user: (ellson) John Ellson -->
<!-- Title: G Pages: 1 -->
<svg width="612pt" height="792pt"
 viewBox="36.09 144.00 575.91 648.00" xmlns="http://www.w3.org/2000/svg" xmlns:xlink="http://www.w3.org/1999/xlink">
<g id="graph0" class="graph" transform="scale(0.344498 0.344498) rotate(0) translate(108.75 1877)">
<title>G</title>
<polygon style="fill:black;stroke:black;" points="-4,4 -4,-1459 1563,-1459 1563,4 -4,4"/>
<!-- ds3CTP_1_1 -->
<g id="node2" class="node"><title>ds3CTP_1_1</title>
<polygon style="fill:green;stroke:green;" points="54,-1451 2.4869e-14,-1451 0,-1415 54,-1415 54,-1451"/>
</g>
<!-- ds3CTP_1_2 -->
<g id="node3" class="node"><title>ds3CTP_1_2</title>
<polygon style="fill:green;stroke:green;" points="261,-1451 207,-1451 207,-1415 261,-1415 261,-1451"/>
</g>
<!-- ds3CTP_1_1&#45;&gt;ds3CTP_1_2 -->
<g id="edge234" class="edge"><title>ds3CTP_1_1&#45;&gt;ds3CTP_1_2</title>
<path style="fill:none;stroke:white;stroke-width:2;" d="M54,-1433C105,-1433 156,-1433 207,-1433"/>
</g>
<!-- t3TTP_1_1 -->
<g id="node7" class="node"><title>t3TTP_1_1</title>
<polygon style="fill:red;stroke:red;" points="27,-1288 54,-1342 3.55271e-14,-1342 27,-1288"/>
</g>
<!-- ds3CTP_1_1&#45;&gt;t3TTP_1_1 -->
<g id="edge20" class="edge"><title>ds3CTP_1_1&#45;&gt;t3TTP_1_1</title>
<path style="fill:none;stroke:white;stroke-dasharray:1,5;" d="M27,-1415C27,-1394 27,-1362 27,-1342"/>
</g>
<!-- vc3TTP_1_2 -->
<g id="node10" class="node"><title>vc3TTP_1_2</title>
<polygon style="fill:red;stroke:red;" points="234,-1288 261,-1342 207,-1342 234,-1288"/>
</g>
<!-- ds3CTP_1_2&#45;&gt;vc3TTP_1_2 -->
<g id="edge22" class="edge"><title>ds3CTP_1_2&#45;&gt;vc3TTP_1_2</title>
<path style="fill:none;stroke:white;stroke-dasharray:1,5;" d="M234,-1415C234,-1394 234,-1362 234,-1342"/>
</g>
<!-- ds3CTP_5_1 -->
<g id="node4" class="node"><title>ds3CTP_5_1</title>
<polygon style="fill:green;stroke:green;" points="1373,-1451 1319,-1451 1319,-1415 1373,-1415 1373,-1451"/>
</g>
<!-- ds3CTP_5_2 -->
<g id="node5" class="node"><title>ds3CTP_5_2</title>
<polygon style="fill:green;stroke:green;" points="1559,-1451 1505,-1451 1505,-1415 1559,-1415 1559,-1451"/>
</g>
<!-- ds3CTP_5_1&#45;&gt;ds3CTP_5_2 -->
<g id="edge272" class="edge"><title>ds3CTP_5_1&#45;&gt;ds3CTP_5_2</title>
<path style="fill:none;stroke:white;stroke-width:2;" d="M1373,-1433C1417,-1433 1461,-1433 1505,-1433"/>
</g>
<!-- vc3TTP_5_1 -->
<g id="node11" class="node"><title>vc3TTP_5_1</title>
<polygon style="fill:red;stroke:red;" points="1346,-1288 1373,-1342 1319,-1342 1346,-1288"/>
</g>
<!-- ds3CTP_5_1&#45;&gt;vc3TTP_5_1 -->
<g id="edge63" class="edge"><title>ds3CTP_5_1&#45;&gt;vc3TTP_5_1</title>
<path style="fill:none;stroke:white;stroke-dasharray:1,5;" d="M1346,-1415C1346,-1394 1346,-1362 1346,-1342"/>
</g>
<!-- t3TTP_5_2 -->
<g id="node8" class="node"><title>t3TTP_5_2</title>
<polygon style="fill:red;stroke:red;" points="1532,-1288 1559,-1342 1505,-1342 1532,-1288"/>
</g>
<!-- ds3CTP_5_2&#45;&gt;t3TTP_5_2 -->
<g id="edge74" class="edge"><title>ds3CTP_5_2&#45;&gt;t3TTP_5_2</title>
<path style="fill:none;stroke:white;stroke-dasharray:1,5;" d="M1532,-1415C1532,-1394 1532,-1362 1532,-1342"/>
</g>
<!-- me_1 -->
<g id="node88" class="node"><title>me_1</title>
<polygon style="fill:lightgrey;stroke:black;" points="187,-44 133,-44 133,-8 187,-8 187,-44"/>
<polygon style="fill:none;stroke:black;" points="191,-48 129,-48 129,-4 191,-4 191,-48"/>
</g>
<!-- t3TTP_1_1&#45;&gt;me_1 -->
<g id="edge130" class="edge"><title>t3TTP_1_1&#45;&gt;me_1</title>
<path style="fill:none;stroke:white;" d="M27,-1288C27,-1245 27,-1172 27,-1110 27,-1110 27,-1110 27,-248 27,-180 38,-159 74,-103 86,-84 105,-67 121,-53"/>
<polygon style="fill:white;stroke:white;" points="123.1,-55.8 129,-47 118.9,-50.2 123.1,-55.8"/>
</g>
<!-- me_5 -->
<g id="node92" class="node"><title>me_5</title>
<polygon style="fill:lightgrey;stroke:black;" points="1400,-44 1346,-44 1346,-8 1400,-8 1400,-44"/>
<polygon style="fill:none;stroke:black;" points="1404,-48 1342,-48 1342,-4 1404,-4 1404,-48"/>
</g>
<!-- t3TTP_5_2&#45;&gt;me_5 -->
<g id="edge132" class="edge"><title>t3TTP_5_2&#45;&gt;me_5</title>
<path style="fill:none;stroke:white;" d="M1532,-1288C1532,-1245 1532,-1172 1532,-1110 1532,-1110 1532,-1110 1532,-248 1532,-178 1515,-158 1473,-103 1456,-81 1433,-62 1413,-49"/>
<polygon style="fill:white;stroke:white;" points="1414.44,-45.7969 1404,-44 1411.04,-51.916 1414.44,-45.7969"/>
</g>
<!-- vc3TTP_1_2&#45;&gt;vc3TTP_5_1 -->
<g id="edge77" class="edge"><title>vc3TTP_1_2&#45;&gt;vc3TTP_5_1</title>
<path style="fill:none;stroke:white;stroke-dasharray:5,2;" d="M252,-1324C610,-1324 969,-1324 1328,-1324"/>
</g>
<!-- fabric_1_2 -->
<g id="node13" class="node"><title>fabric_1_2</title>
<polygon style="fill:blue;stroke:blue;" points="170,-1014 156.5,-1034.78 129.5,-1034.78 116,-1014 129.5,-993.215 156.5,-993.215 170,-1014"/>
</g>
<!-- vc3TTP_1_2&#45;&gt;fabric_1_2 -->
<g id="edge183" class="edge"><title>vc3TTP_1_2&#45;&gt;fabric_1_2</title>
<path style="fill:none;stroke:white;" d="M220,-1315C199,-1301 158,-1270 143,-1232 118,-1169 128,-1088 136,-1045"/>
<polygon style="fill:white;stroke:white;" points="139.471,-1045.49 138,-1035 132.607,-1044.12 139.471,-1045.49"/>
</g>
<!-- xp_1_2 -->
<g id="node17" class="node"><title>xp_1_2</title>
<polygon style="fill:blue;stroke:blue;" points="179,-1231.46 152,-1206 179,-1180.54 206,-1206 179,-1231.46"/>
</g>
<!-- vc3TTP_1_2&#45;&gt;xp_1_2 -->
<g id="edge212" class="edge"><title>vc3TTP_1_2&#45;&gt;xp_1_2</title>
<path style="fill:none;stroke:white;stroke-dasharray:1,5;" d="M225,-1305C215,-1283 198,-1246 187,-1224"/>
</g>
<!-- au3CTP_1_2 -->
<g id="node21" class="node"><title>au3CTP_1_2</title>
<polygon style="fill:green;stroke:green;" points="261,-1128 207,-1128 207,-1092 261,-1092 261,-1128"/>
</g>
<!-- vc3TTP_1_2&#45;&gt;au3CTP_1_2 -->
<g id="edge236" class="edge"><title>vc3TTP_1_2&#45;&gt;au3CTP_1_2</title>
<path style="fill:none;stroke:white;stroke-width:2;" d="M234,-1288C234,-1242 234,-1163 234,-1128"/>
</g>
<!-- vc3TTP_1_2&#45;&gt;me_1 -->
<g id="edge134" class="edge"><title>vc3TTP_1_2&#45;&gt;me_1</title>
<path style="fill:none;stroke:white;" d="M220,-1316C180,-1290 66,-1209 65,-1110 65,-1110 65,-1110 65,-248 65,-174 109,-98 137,-56"/>
<polygon style="fill:white;stroke:white;" points="139.8,-58.1 143,-48 134.2,-53.9 139.8,-58.1"/>
</g>
<!-- fabric_5_1 -->
<g id="node15" class="node"><title>fabric_5_1</title>
<polygon style="fill:blue;stroke:blue;" points="1456,-1014 1442.5,-1034.78 1415.5,-1034.78 1402,-1014 1415.5,-993.215 1442.5,-993.215 1456,-1014"/>
</g>
<!-- vc3TTP_5_1&#45;&gt;fabric_5_1 -->
<g id="edge191" class="edge"><title>vc3TTP_5_1&#45;&gt;fabric_5_1</title>
<path style="fill:none;stroke:white;" d="M1360,-1315C1381,-1301 1421,-1270 1437,-1232 1462,-1169 1448,-1088 1438,-1045"/>
<polygon style="fill:white;stroke:white;" points="1441.23,-1043.57 1435,-1035 1434.52,-1045.58 1441.23,-1043.57"/>
</g>
<!-- xp_5_1 -->
<g id="node19" class="node"><title>xp_5_1</title>
<polygon style="fill:blue;stroke:blue;" points="1401,-1231.46 1374,-1206 1401,-1180.54 1428,-1206 1401,-1231.46"/>
</g>
<!-- vc3TTP_5_1&#45;&gt;xp_5_1 -->
<g id="edge230" class="edge"><title>vc3TTP_5_1&#45;&gt;xp_5_1</title>
<path style="fill:none;stroke:white;stroke-dasharray:1,5;" d="M1355,-1305C1365,-1283 1382,-1246 1393,-1224"/>
</g>
<!-- au3CTP_5_1 -->
<g id="node24" class="node"><title>au3CTP_5_1</title>
<polygon style="fill:green;stroke:green;" points="1373,-1128 1319,-1128 1319,-1092 1373,-1092 1373,-1128"/>
</g>
<!-- vc3TTP_5_1&#45;&gt;au3CTP_5_1 -->
<g id="edge274" class="edge"><title>vc3TTP_5_1&#45;&gt;au3CTP_5_1</title>
<path style="fill:none;stroke:white;stroke-width:2;" d="M1346,-1288C1346,-1242 1346,-1163 1346,-1128"/>
</g>
<!-- vc3TTP_5_1&#45;&gt;me_5 -->
<g id="edge136" class="edge"><title>vc3TTP_5_1&#45;&gt;me_5</title>
<path style="fill:none;stroke:white;" d="M1360,-1316C1383,-1301 1429,-1270 1455,-1232 1486,-1184 1494,-1166 1494,-1110 1494,-1110 1494,-1110 1494,-248 1494,-171 1438,-95 1402,-55"/>
<polygon style="fill:white;stroke:white;" points="1404.55,-52.5962 1395,-48 1399.6,-57.546 1404.55,-52.5962"/>
</g>
<!-- fabric_1_2&#45;&gt;me_1 -->
<g id="edge116" class="edge"><title>fabric_1_2&#45;&gt;me_1</title>
<path style="fill:none;stroke:white;" d="M137,-993C126,-952 104,-858 103,-778 103,-778 103,-778 103,-248 104,-178 130,-100 146,-57"/>
<polygon style="fill:white;stroke:white;" points="149.137,-58.5596 150,-48 142.74,-55.7166 149.137,-58.5596"/>
</g>
<!-- fabric_4_1 -->
<g id="node14" class="node"><title>fabric_4_1</title>
<polygon style="fill:blue;stroke:blue;" points="980,-1014 966.5,-1034.78 939.5,-1034.78 926,-1014 939.5,-993.215 966.5,-993.215 980,-1014"/>
</g>
<!-- me_4 -->
<g id="node91" class="node"><title>me_4</title>
<polygon style="fill:lightgrey;stroke:black;" points="980,-44 926,-44 926,-8 980,-8 980,-44"/>
<polygon style="fill:none;stroke:black;" points="984,-48 922,-48 922,-4 984,-4 984,-48"/>
</g>
<!-- fabric_4_1&#45;&gt;me_4 -->
<g id="edge118" class="edge"><title>fabric_4_1&#45;&gt;me_4</title>
<path style="fill:none;stroke:white;" d="M953,-993C953,-952 953,-857 953,-778 953,-778 953,-778 953,-248 953,-181 953,-102 953,-58"/>
<polygon style="fill:white;stroke:white;" points="956.5,-58 953,-48 949.5,-58 956.5,-58"/>
</g>
<!-- fabric_5_1&#45;&gt;me_5 -->
<g id="edge120" class="edge"><title>fabric_5_1&#45;&gt;me_5</title>
<path style="fill:none;stroke:white;" d="M1430,-993C1433,-952 1439,-857 1439,-778 1439,-778 1439,-778 1439,-248 1439,-177 1408,-99 1388,-57"/>
<polygon style="fill:white;stroke:white;" points="1391.26,-55.7166 1384,-48 1384.86,-58.5596 1391.26,-55.7166"/>
</g>
<!-- xp_1_2&#45;&gt;fabric_1_2 -->
<g id="edge110" class="edge"><title>xp_1_2&#45;&gt;fabric_1_2</title>
<path style="fill:none;stroke:white;" d="M175,-1184C169,-1150 156,-1084 149,-1045"/>
<polygon style="fill:white;stroke:white;" points="152.393,-1044.12 147,-1035 145.529,-1045.49 152.393,-1044.12"/>
</g>
<!-- xp_1_2&#45;&gt;au3CTP_1_2 -->
<g id="edge213" class="edge"><title>xp_1_2&#45;&gt;au3CTP_1_2</title>
<path style="fill:none;stroke:white;stroke-dasharray:1,5;" d="M189,-1189C198,-1172 213,-1146 224,-1128"/>
</g>
<!-- xp_4_1 -->
<g id="node18" class="node"><title>xp_4_1</title>
<polygon style="fill:blue;stroke:blue;" points="953,-1231.46 926,-1206 953,-1180.54 980,-1206 953,-1231.46"/>
</g>
<!-- xp_4_1&#45;&gt;fabric_4_1 -->
<g id="edge112" class="edge"><title>xp_4_1&#45;&gt;fabric_4_1</title>
<path style="fill:none;stroke:white;" d="M953,-1181C953,-1146 953,-1083 953,-1045"/>
<polygon style="fill:white;stroke:white;" points="956.5,-1045 953,-1035 949.5,-1045 956.5,-1045"/>
</g>
<!-- au3CTP_4_2 -->
<g id="node23" class="node"><title>au3CTP_4_2</title>
<polygon style="fill:green;stroke:green;" points="1035,-1128 981,-1128 981,-1092 1035,-1092 1035,-1128"/>
</g>
<!-- xp_4_1&#45;&gt;au3CTP_4_2 -->
<g id="edge222" class="edge"><title>xp_4_1&#45;&gt;au3CTP_4_2</title>
<path style="fill:none;stroke:white;stroke-dasharray:1,5;" d="M963,-1189C972,-1172 987,-1146 998,-1128"/>
</g>
<!-- xp_5_1&#45;&gt;fabric_5_1 -->
<g id="edge114" class="edge"><title>xp_5_1&#45;&gt;fabric_5_1</title>
<path style="fill:none;stroke:white;" d="M1404,-1184C1409,-1149 1419,-1084 1425,-1045"/>
<polygon style="fill:white;stroke:white;" points="1428.49,-1045.3 1426,-1035 1421.52,-1044.6 1428.49,-1045.3"/>
</g>
<!-- xp_5_1&#45;&gt;au3CTP_5_1 -->
<g id="edge231" class="edge"><title>xp_5_1&#45;&gt;au3CTP_5_1</title>
<path style="fill:none;stroke:white;stroke-dasharray:1,5;" d="M1391,-1189C1382,-1172 1367,-1146 1356,-1128"/>
</g>
<!-- au3CTP_1_2&#45;&gt;fabric_1_2 -->
<g id="edge185" class="edge"><title>au3CTP_1_2&#45;&gt;fabric_1_2</title>
<path style="fill:none;stroke:white;" d="M217,-1092C203,-1076 182,-1055 166,-1038"/>
<polygon style="fill:white;stroke:white;" points="168.546,-1035.6 159,-1031 163.596,-1040.55 168.546,-1035.6"/>
</g>
<!-- aug_1_2 -->
<g id="node26" class="node"><title>aug_1_2</title>
<polygon style="fill:pink;stroke:pink;" points="218.232,-988.544 249.768,-988.544 261,-1039.46 207,-1039.46 218.232,-988.544"/>
</g>
<!-- au3CTP_1_2&#45;&gt;aug_1_2 -->
<g id="edge24" class="edge"><title>au3CTP_1_2&#45;&gt;aug_1_2</title>
<path style="fill:none;stroke:white;stroke-dasharray:1,5;" d="M234,-1092C234,-1077 234,-1056 234,-1040"/>
</g>
<!-- au3CTP_4_1 -->
<g id="node22" class="node"><title>au3CTP_4_1</title>
<polygon style="fill:green;stroke:green;" points="925,-1128 871,-1128 871,-1092 925,-1092 925,-1128"/>
</g>
<!-- au3CTP_4_1&#45;&gt;fabric_4_1 -->
<g id="edge187" class="edge"><title>au3CTP_4_1&#45;&gt;fabric_4_1</title>
<path style="fill:none;stroke:white;" d="M908,-1092C916,-1079 927,-1060 936,-1044"/>
<polygon style="fill:white;stroke:white;" points="939.203,-1045.44 941,-1035 933.084,-1042.04 939.203,-1045.44"/>
</g>
<!-- au3CTP_4_1&#45;&gt;xp_4_1 -->
<g id="edge221" class="edge"><title>au3CTP_4_1&#45;&gt;xp_4_1</title>
<path style="fill:none;stroke:white;stroke-dasharray:1,5;" d="M908,-1128C919,-1146 934,-1172 943,-1189"/>
</g>
<!-- au3CTP_4_1&#45;&gt;au3CTP_4_2 -->
<g id="edge258" class="edge"><title>au3CTP_4_1&#45;&gt;au3CTP_4_2</title>
<path style="fill:none;stroke:white;stroke-width:2;" d="M925,-1110C944,-1110 962,-1110 981,-1110"/>
</g>
<!-- aug_4_1 -->
<g id="node27" class="node"><title>aug_4_1</title>
<polygon style="fill:pink;stroke:pink;" points="863.232,-988.544 894.768,-988.544 906,-1039.46 852,-1039.46 863.232,-988.544"/>
</g>
<!-- au3CTP_4_1&#45;&gt;aug_4_1 -->
<g id="edge45" class="edge"><title>au3CTP_4_1&#45;&gt;aug_4_1</title>
<path style="fill:none;stroke:white;stroke-dasharray:1,5;" d="M894,-1092C891,-1077 887,-1056 884,-1040"/>
</g>
<!-- au3CTP_4_2&#45;&gt;fabric_4_1 -->
<g id="edge189" class="edge"><title>au3CTP_4_2&#45;&gt;fabric_4_1</title>
<path style="fill:none;stroke:white;" d="M998,-1092C990,-1079 979,-1060 970,-1044"/>
<polygon style="fill:white;stroke:white;" points="972.916,-1042.04 965,-1035 966.797,-1045.44 972.916,-1042.04"/>
</g>
<!-- aug_4_2 -->
<g id="node28" class="node"><title>aug_4_2</title>
<polygon style="fill:pink;stroke:pink;" points="1014.23,-988.544 1045.77,-988.544 1057,-1039.46 1003,-1039.46 1014.23,-988.544"/>
</g>
<!-- au3CTP_4_2&#45;&gt;aug_4_2 -->
<g id="edge54" class="edge"><title>au3CTP_4_2&#45;&gt;aug_4_2</title>
<path style="fill:none;stroke:white;stroke-dasharray:1,5;" d="M1012,-1092C1016,-1077 1021,-1056 1024,-1040"/>
</g>
<!-- au3CTP_5_1&#45;&gt;fabric_5_1 -->
<g id="edge193" class="edge"><title>au3CTP_5_1&#45;&gt;fabric_5_1</title>
<path style="fill:none;stroke:white;" d="M1362,-1092C1375,-1077 1393,-1056 1407,-1040"/>
<polygon style="fill:white;stroke:white;" points="1410.05,-1041.83 1414,-1032 1404.78,-1037.22 1410.05,-1041.83"/>
</g>
<!-- aug_5_1 -->
<g id="node29" class="node"><title>aug_5_1</title>
<polygon style="fill:pink;stroke:pink;" points="1330.23,-988.544 1361.77,-988.544 1373,-1039.46 1319,-1039.46 1330.23,-988.544"/>
</g>
<!-- au3CTP_5_1&#45;&gt;aug_5_1 -->
<g id="edge65" class="edge"><title>au3CTP_5_1&#45;&gt;aug_5_1</title>
<path style="fill:none;stroke:white;stroke-dasharray:1,5;" d="M1346,-1092C1346,-1077 1346,-1056 1346,-1040"/>
</g>
<!-- prTTP_1_2 -->
<g id="node31" class="node"><title>prTTP_1_2</title>
<polygon style="fill:red;stroke:red;" points="234,-860 261,-914 207,-914 234,-860"/>
</g>
<!-- aug_1_2&#45;&gt;prTTP_1_2 -->
<g id="edge25" class="edge"><title>aug_1_2&#45;&gt;prTTP_1_2</title>
<path style="fill:none;stroke:white;stroke-dasharray:1,5;" d="M234,-988C234,-966 234,-934 234,-914"/>
</g>
<!-- prTTP_4_1 -->
<g id="node32" class="node"><title>prTTP_4_1</title>
<polygon style="fill:red;stroke:red;" points="877,-860 904,-914 850,-914 877,-860"/>
</g>
<!-- aug_4_1&#45;&gt;prTTP_4_1 -->
<g id="edge46" class="edge"><title>aug_4_1&#45;&gt;prTTP_4_1</title>
<path style="fill:none;stroke:white;stroke-dasharray:1,5;" d="M879,-988C878,-966 878,-934 877,-914"/>
</g>
<!-- prTTP_4_2 -->
<g id="node33" class="node"><title>prTTP_4_2</title>
<polygon style="fill:red;stroke:red;" points="1042,-860 1069,-914 1015,-914 1042,-860"/>
</g>
<!-- aug_4_2&#45;&gt;prTTP_4_2 -->
<g id="edge55" class="edge"><title>aug_4_2&#45;&gt;prTTP_4_2</title>
<path style="fill:none;stroke:white;stroke-dasharray:1,5;" d="M1033,-988C1035,-966 1038,-934 1040,-914"/>
</g>
<!-- prTTP_5_1 -->
<g id="node34" class="node"><title>prTTP_5_1</title>
<polygon style="fill:red;stroke:red;" points="1346,-860 1373,-914 1319,-914 1346,-860"/>
</g>
<!-- aug_5_1&#45;&gt;prTTP_5_1 -->
<g id="edge66" class="edge"><title>aug_5_1&#45;&gt;prTTP_5_1</title>
<path style="fill:none;stroke:white;stroke-dasharray:1,5;" d="M1346,-988C1346,-966 1346,-934 1346,-914"/>
</g>
<!-- prTTP_1_2&#45;&gt;prTTP_4_1 -->
<g id="edge79" class="edge"><title>prTTP_1_2&#45;&gt;prTTP_4_1</title>
<path style="fill:none;stroke:white;stroke-dasharray:5,2;" d="M252,-896C454,-896 656,-896 859,-896"/>
</g>
<!-- pg_1_2 -->
<g id="node36" class="node"><title>pg_1_2</title>
<polygon style="fill:blue;stroke:blue;" points="344,-573 330.5,-593.785 303.5,-593.785 290,-573 303.5,-552.215 330.5,-552.215 344,-573"/>
</g>
<!-- prTTP_1_2&#45;&gt;pg_1_2 -->
<g id="edge195" class="edge"><title>prTTP_1_2&#45;&gt;pg_1_2</title>
<path style="fill:none;stroke:white;" d="M248,-887C269,-873 309,-842 325,-804 353,-736 338,-650 326,-604"/>
<polygon style="fill:white;stroke:white;" points="329.226,-602.573 323,-594 322.521,-604.584 329.226,-602.573"/>
</g>
<!-- pu_1_2 -->
<g id="node41" class="node"><title>pu_1_2</title>
<polygon style="fill:blue;stroke:blue;" points="289,-803.456 262,-778 289,-752.544 316,-778 289,-803.456"/>
</g>
<!-- prTTP_1_2&#45;&gt;pu_1_2 -->
<g id="edge215" class="edge"><title>prTTP_1_2&#45;&gt;pu_1_2</title>
<path style="fill:none;stroke:white;stroke-dasharray:1,5;" d="M243,-877C253,-855 270,-818 281,-796"/>
</g>
<!-- prCTP_1_2 -->
<g id="node46" class="node"><title>prCTP_1_2</title>
<polygon style="fill:green;stroke:green;" points="261,-699 207,-699 207,-663 261,-663 261,-699"/>
</g>
<!-- prTTP_1_2&#45;&gt;prCTP_1_2 -->
<g id="edge238" class="edge"><title>prTTP_1_2&#45;&gt;prCTP_1_2</title>
<path style="fill:none;stroke:white;stroke-width:2;" d="M234,-860C234,-813 234,-734 234,-699"/>
</g>
<!-- prTTP_1_2&#45;&gt;me_1 -->
<g id="edge138" class="edge"><title>prTTP_1_2&#45;&gt;me_1</title>
<path style="fill:none;stroke:white;" d="M223,-882C199,-849 142,-763 141,-681 141,-681 141,-681 141,-248 142,-180 150,-101 156,-58"/>
<polygon style="fill:white;stroke:white;" points="159.488,-58.2987 157,-48 152.522,-57.6021 159.488,-58.2987"/>
</g>
<!-- pg_4_1 -->
<g id="node37" class="node"><title>pg_4_1</title>
<polygon style="fill:blue;stroke:blue;" points="813,-573 799.5,-593.785 772.5,-593.785 759,-573 772.5,-552.215 799.5,-552.215 813,-573"/>
</g>
<!-- prTTP_4_1&#45;&gt;pg_4_1 -->
<g id="edge197" class="edge"><title>prTTP_4_1&#45;&gt;pg_4_1</title>
<path style="fill:none;stroke:white;" d="M863,-887C842,-873 801,-842 786,-804 758,-737 769,-650 779,-604"/>
<polygon style="fill:white;stroke:white;" points="782.471,-604.492 781,-594 775.607,-603.119 782.471,-604.492"/>
</g>
<!-- pu_4_1 -->
<g id="node42" class="node"><title>pu_4_1</title>
<polygon style="fill:blue;stroke:blue;" points="822,-803.456 795,-778 822,-752.544 849,-778 822,-803.456"/>
</g>
<!-- prTTP_4_1&#45;&gt;pu_4_1 -->
<g id="edge218" class="edge"><title>prTTP_4_1&#45;&gt;pu_4_1</title>
<path style="fill:none;stroke:white;stroke-dasharray:1,5;" d="M868,-877C858,-855 841,-818 830,-796"/>
</g>
<!-- prCTP_4_1 -->
<g id="node47" class="node"><title>prCTP_4_1</title>
<polygon style="fill:green;stroke:green;" points="887,-699 833,-699 833,-663 887,-663 887,-699"/>
</g>
<!-- prTTP_4_1&#45;&gt;prCTP_4_1 -->
<g id="edge252" class="edge"><title>prTTP_4_1&#45;&gt;prCTP_4_1</title>
<path style="fill:none;stroke:white;stroke-width:2;" d="M875,-865C871,-819 864,-736 861,-699"/>
</g>
<!-- prTTP_4_1&#45;&gt;me_4 -->
<g id="edge140" class="edge"><title>prTTP_4_1&#45;&gt;me_4</title>
<path style="fill:none;stroke:white;" d="M863,-888C839,-874 793,-843 767,-804 735,-756 729,-738 729,-681 729,-681 729,-681 729,-248 729,-182 715,-153 757,-103 795,-57 867,-38 912,-30"/>
<polygon style="fill:white;stroke:white;" points="912.398,-33.4778 922,-29 911.701,-26.5125 912.398,-33.4778"/>
</g>
<!-- prTTP_4_2&#45;&gt;prTTP_5_1 -->
<g id="edge81" class="edge"><title>prTTP_4_2&#45;&gt;prTTP_5_1</title>
<path style="fill:none;stroke:white;stroke-dasharray:5,2;" d="M1060,-896C1149,-896 1238,-896 1328,-896"/>
</g>
<!-- pg_4_2 -->
<g id="node38" class="node"><title>pg_4_2</title>
<polygon style="fill:blue;stroke:blue;" points="1184,-573 1170.5,-593.785 1143.5,-593.785 1130,-573 1143.5,-552.215 1170.5,-552.215 1184,-573"/>
</g>
<!-- prTTP_4_2&#45;&gt;pg_4_2 -->
<g id="edge199" class="edge"><title>prTTP_4_2&#45;&gt;pg_4_2</title>
<path style="fill:none;stroke:white;" d="M1056,-887C1076,-872 1115,-840 1133,-804 1164,-737 1163,-650 1160,-604"/>
<polygon style="fill:white;stroke:white;" points="1163.48,-603.602 1159,-594 1156.51,-604.299 1163.48,-603.602"/>
</g>
<!-- pu_4_2 -->
<g id="node43" class="node"><title>pu_4_2</title>
<polygon style="fill:blue;stroke:blue;" points="1097,-803.456 1070,-778 1097,-752.544 1124,-778 1097,-803.456"/>
</g>
<!-- prTTP_4_2&#45;&gt;pu_4_2 -->
<g id="edge224" class="edge"><title>prTTP_4_2&#45;&gt;pu_4_2</title>
<path style="fill:none;stroke:white;stroke-dasharray:1,5;" d="M1051,-877C1061,-855 1078,-818 1089,-796"/>
</g>
<!-- prCTP_4_2 -->
<g id="node48" class="node"><title>prCTP_4_2</title>
<polygon style="fill:green;stroke:green;" points="1092,-699 1038,-699 1038,-663 1092,-663 1092,-699"/>
</g>
<!-- prTTP_4_2&#45;&gt;prCTP_4_2 -->
<g id="edge260" class="edge"><title>prTTP_4_2&#45;&gt;prCTP_4_2</title>
<path style="fill:none;stroke:white;stroke-width:2;" d="M1045,-866C1050,-821 1059,-736 1063,-699"/>
</g>
<!-- prTTP_4_2&#45;&gt;me_4 -->
<g id="edge142" class="edge"><title>prTTP_4_2&#45;&gt;me_4</title>
<path style="fill:none;stroke:white;" d="M1034,-876C1020,-838 991,-754 991,-681 991,-681 991,-681 991,-248 991,-179 973,-101 962,-58"/>
<polygon style="fill:white;stroke:white;" points="965.226,-56.5725 959,-48 958.521,-58.584 965.226,-56.5725"/>
</g>
<!-- pg_5_1 -->
<g id="node39" class="node"><title>pg_5_1</title>
<polygon style="fill:blue;stroke:blue;" points="1298,-573 1284.5,-593.785 1257.5,-593.785 1244,-573 1257.5,-552.215 1284.5,-552.215 1298,-573"/>
</g>
<!-- prTTP_5_1&#45;&gt;pg_5_1 -->
<g id="edge201" class="edge"><title>prTTP_5_1&#45;&gt;pg_5_1</title>
<path style="fill:none;stroke:white;" d="M1332,-887C1311,-873 1270,-842 1255,-804 1227,-736 1247,-649 1260,-604"/>
<polygon style="fill:white;stroke:white;" points="1263.48,-604.584 1263,-594 1256.77,-602.573 1263.48,-604.584"/>
</g>
<!-- pu_5_1 -->
<g id="node44" class="node"><title>pu_5_1</title>
<polygon style="fill:blue;stroke:blue;" points="1291,-803.456 1264,-778 1291,-752.544 1318,-778 1291,-803.456"/>
</g>
<!-- prTTP_5_1&#45;&gt;pu_5_1 -->
<g id="edge227" class="edge"><title>prTTP_5_1&#45;&gt;pu_5_1</title>
<path style="fill:none;stroke:white;stroke-dasharray:1,5;" d="M1337,-877C1327,-855 1310,-818 1299,-796"/>
</g>
<!-- prCTP_5_1 -->
<g id="node49" class="node"><title>prCTP_5_1</title>
<polygon style="fill:green;stroke:green;" points="1373,-699 1319,-699 1319,-663 1373,-663 1373,-699"/>
</g>
<!-- prTTP_5_1&#45;&gt;prCTP_5_1 -->
<g id="edge266" class="edge"><title>prTTP_5_1&#45;&gt;prCTP_5_1</title>
<path style="fill:none;stroke:white;stroke-width:2;" d="M1346,-860C1346,-813 1346,-734 1346,-699"/>
</g>
<!-- prTTP_5_1&#45;&gt;me_5 -->
<g id="edge144" class="edge"><title>prTTP_5_1&#45;&gt;me_5</title>
<path style="fill:none;stroke:white;" d="M1331,-889C1307,-875 1258,-845 1237,-804 1192,-714 1215,-455 1215,-356 1215,-356 1215,-356 1215,-248 1215,-181 1212,-156 1252,-103 1272,-75 1306,-55 1333,-42"/>
<polygon style="fill:white;stroke:white;" points="1334.28,-45.2598 1342,-38 1331.44,-38.8631 1334.28,-45.2598"/>
</g>
<!-- pg_1_2&#45;&gt;me_1 -->
<g id="edge122" class="edge"><title>pg_1_2&#45;&gt;me_1</title>
<path style="fill:none;stroke:white;" d="M319,-552C321,-513 327,-428 327,-356 327,-356 327,-356 327,-248 327,-181 333,-156 294,-103 271,-71 231,-50 200,-39"/>
<polygon style="fill:white;stroke:white;" points="201.56,-35.8631 191,-35 198.717,-42.2598 201.56,-35.8631"/>
</g>
<!-- pg_4_1&#45;&gt;me_4 -->
<g id="edge124" class="edge"><title>pg_4_1&#45;&gt;me_4</title>
<path style="fill:none;stroke:white;" d="M783,-552C778,-513 767,-428 767,-356 767,-356 767,-356 767,-248 767,-183 747,-155 786,-103 815,-62 873,-42 912,-33"/>
<polygon style="fill:white;stroke:white;" points="912.881,-36.3933 922,-31 911.508,-29.5292 912.881,-36.3933"/>
</g>
<!-- pg_4_2&#45;&gt;me_4 -->
<g id="edge126" class="edge"><title>pg_4_2&#45;&gt;me_4</title>
<path style="fill:none;stroke:white;" d="M1160,-552C1166,-513 1177,-428 1177,-356 1177,-356 1177,-356 1177,-248 1177,-182 1187,-153 1145,-103 1106,-58 1038,-39 994,-31"/>
<polygon style="fill:white;stroke:white;" points="994.492,-27.5292 984,-29 993.119,-34.3933 994.492,-27.5292"/>
</g>
<!-- pg_5_1&#45;&gt;me_5 -->
<g id="edge128" class="edge"><title>pg_5_1&#45;&gt;me_5</title>
<path style="fill:none;stroke:white;" d="M1268,-552C1263,-513 1253,-428 1253,-356 1253,-356 1253,-356 1253,-248 1253,-181 1255,-160 1289,-103 1300,-83 1317,-66 1334,-53"/>
<polygon style="fill:white;stroke:white;" points="1336.1,-55.8 1342,-47 1331.9,-50.2 1336.1,-55.8"/>
</g>
<!-- pu_1_2&#45;&gt;pg_1_2 -->
<g id="edge102" class="edge"><title>pu_1_2&#45;&gt;pg_1_2</title>
<path style="fill:none;stroke:white;" d="M292,-755C297,-718 307,-646 313,-604"/>
<polygon style="fill:white;stroke:white;" points="316.488,-604.299 314,-594 309.522,-603.602 316.488,-604.299"/>
</g>
<!-- pu_1_2&#45;&gt;prCTP_1_2 -->
<g id="edge216" class="edge"><title>pu_1_2&#45;&gt;prCTP_1_2</title>
<path style="fill:none;stroke:white;stroke-dasharray:1,5;" d="M279,-761C270,-744 255,-717 244,-699"/>
</g>
<!-- pu_4_1&#45;&gt;pg_4_1 -->
<g id="edge104" class="edge"><title>pu_4_1&#45;&gt;pg_4_1</title>
<path style="fill:none;stroke:white;" d="M818,-756C812,-719 799,-646 792,-604"/>
<polygon style="fill:white;stroke:white;" points="795.393,-603.119 790,-594 788.529,-604.492 795.393,-603.119"/>
</g>
<!-- pu_4_1&#45;&gt;prCTP_4_1 -->
<g id="edge219" class="edge"><title>pu_4_1&#45;&gt;prCTP_4_1</title>
<path style="fill:none;stroke:white;stroke-dasharray:1,5;" d="M829,-759C836,-742 846,-716 853,-699"/>
</g>
<!-- pu_4_2&#45;&gt;pg_4_2 -->
<g id="edge106" class="edge"><title>pu_4_2&#45;&gt;pg_4_2</title>
<path style="fill:none;stroke:white;" d="M1103,-758C1113,-722 1135,-646 1148,-604"/>
<polygon style="fill:white;stroke:white;" points="1151.48,-604.584 1151,-594 1144.77,-602.573 1151.48,-604.584"/>
</g>
<!-- pu_4_2&#45;&gt;prCTP_4_2 -->
<g id="edge225" class="edge"><title>pu_4_2&#45;&gt;prCTP_4_2</title>
<path style="fill:none;stroke:white;stroke-dasharray:1,5;" d="M1091,-758C1085,-741 1077,-716 1071,-699"/>
</g>
<!-- pu_5_1&#45;&gt;pg_5_1 -->
<g id="edge108" class="edge"><title>pu_5_1&#45;&gt;pg_5_1</title>
<path style="fill:none;stroke:white;" d="M1289,-754C1285,-717 1278,-645 1274,-604"/>
<polygon style="fill:white;stroke:white;" points="1277.48,-603.602 1273,-594 1270.51,-604.299 1277.48,-603.602"/>
</g>
<!-- pu_5_1&#45;&gt;prCTP_5_1 -->
<g id="edge228" class="edge"><title>pu_5_1&#45;&gt;prCTP_5_1</title>
<path style="fill:none;stroke:white;stroke-dasharray:1,5;" d="M1301,-761C1310,-744 1325,-717 1336,-699"/>
</g>
<!-- prCTP_1_2&#45;&gt;pg_1_2 -->
<g id="edge203" class="edge"><title>prCTP_1_2&#45;&gt;pg_1_2</title>
<path style="fill:none;stroke:white;" d="M248,-663C261,-646 281,-620 296,-600"/>
<polygon style="fill:white;stroke:white;" points="298.8,-602.1 302,-592 293.2,-597.9 298.8,-602.1"/>
</g>
<!-- msTTP_1_2 -->
<g id="node51" class="node"><title>msTTP_1_2</title>
<polygon style="fill:red;stroke:red;" points="234,-537 261,-591 207,-591 234,-537"/>
</g>
<!-- prCTP_1_2&#45;&gt;msTTP_1_2 -->
<g id="edge27" class="edge"><title>prCTP_1_2&#45;&gt;msTTP_1_2</title>
<path style="fill:none;stroke:white;stroke-dasharray:1,5;" d="M234,-663C234,-643 234,-611 234,-591"/>
</g>
<!-- prCTP_4_1&#45;&gt;pg_4_1 -->
<g id="edge205" class="edge"><title>prCTP_4_1&#45;&gt;pg_4_1</title>
<path style="fill:none;stroke:white;" d="M847,-663C836,-647 819,-622 806,-602"/>
<polygon style="fill:white;stroke:white;" points="808.8,-599.9 800,-594 803.2,-604.1 808.8,-599.9"/>
</g>
<!-- msTTP_4_1 -->
<g id="node52" class="node"><title>msTTP_4_1</title>
<polygon style="fill:red;stroke:red;" points="859,-537 886,-591 832,-591 859,-537"/>
</g>
<!-- prCTP_4_1&#45;&gt;msTTP_4_1 -->
<g id="edge48" class="edge"><title>prCTP_4_1&#45;&gt;msTTP_4_1</title>
<path style="fill:none;stroke:white;stroke-dasharray:1,5;" d="M860,-663C860,-643 860,-611 859,-591"/>
</g>
<!-- prCTP_4_2&#45;&gt;pg_4_2 -->
<g id="edge207" class="edge"><title>prCTP_4_2&#45;&gt;pg_4_2</title>
<path style="fill:none;stroke:white;" d="M1081,-663C1096,-645 1119,-619 1135,-599"/>
<polygon style="fill:white;stroke:white;" points="1138.05,-600.831 1142,-591 1132.78,-596.221 1138.05,-600.831"/>
</g>
<!-- msTTP_4_2 -->
<g id="node53" class="node"><title>msTTP_4_2</title>
<polygon style="fill:red;stroke:red;" points="1084,-537 1111,-591 1057,-591 1084,-537"/>
</g>
<!-- prCTP_4_2&#45;&gt;msTTP_4_2 -->
<g id="edge57" class="edge"><title>prCTP_4_2&#45;&gt;msTTP_4_2</title>
<path style="fill:none;stroke:white;stroke-dasharray:1,5;" d="M1068,-663C1072,-643 1077,-611 1081,-591"/>
</g>
<!-- prCTP_5_1&#45;&gt;pg_5_1 -->
<g id="edge209" class="edge"><title>prCTP_5_1&#45;&gt;pg_5_1</title>
<path style="fill:none;stroke:white;" d="M1333,-663C1322,-646 1304,-621 1291,-601"/>
<polygon style="fill:white;stroke:white;" points="1293.8,-598.9 1285,-593 1288.2,-603.1 1293.8,-598.9"/>
</g>
<!-- msTTP_5_1 -->
<g id="node54" class="node"><title>msTTP_5_1</title>
<polygon style="fill:red;stroke:red;" points="1346,-537 1373,-591 1319,-591 1346,-537"/>
</g>
<!-- prCTP_5_1&#45;&gt;msTTP_5_1 -->
<g id="edge68" class="edge"><title>prCTP_5_1&#45;&gt;msTTP_5_1</title>
<path style="fill:none;stroke:white;stroke-dasharray:1,5;" d="M1346,-663C1346,-643 1346,-611 1346,-591"/>
</g>
<!-- msTTP_1_2&#45;&gt;msTTP_4_1 -->
<g id="edge83" class="edge"><title>msTTP_1_2&#45;&gt;msTTP_4_1</title>
<path style="fill:none;stroke:white;stroke-dasharray:5,2;" d="M244,-591C253,-606 269,-627 290,-636 343,-659 761,-662 813,-636 831,-627 844,-606 851,-591"/>
</g>
<!-- msCTP_1_2 -->
<g id="node56" class="node"><title>msCTP_1_2</title>
<polygon style="fill:green;stroke:green;" points="261,-482 207,-482 207,-446 261,-446 261,-482"/>
</g>
<!-- msTTP_1_2&#45;&gt;msCTP_1_2 -->
<g id="edge240" class="edge"><title>msTTP_1_2&#45;&gt;msCTP_1_2</title>
<path style="fill:none;stroke:white;stroke-width:2;" d="M234,-537C234,-519 234,-497 234,-482"/>
</g>
<!-- msTTP_1_2&#45;&gt;me_1 -->
<g id="edge146" class="edge"><title>msTTP_1_2&#45;&gt;me_1</title>
<path style="fill:none;stroke:white;" d="M243,-554C251,-536 263,-507 270,-482 284,-427 289,-412 289,-356 289,-356 289,-356 289,-248 289,-183 303,-158 270,-103 254,-76 225,-56 200,-43"/>
<polygon style="fill:white;stroke:white;" points="201.56,-39.8631 191,-39 198.717,-46.2598 201.56,-39.8631"/>
</g>
<!-- msCTP_4_1 -->
<g id="node59" class="node"><title>msCTP_4_1</title>
<polygon style="fill:green;stroke:green;" points="867,-482 813,-482 813,-446 867,-446 867,-482"/>
</g>
<!-- msTTP_4_1&#45;&gt;msCTP_4_1 -->
<g id="edge254" class="edge"><title>msTTP_4_1&#45;&gt;msCTP_4_1</title>
<path style="fill:none;stroke:white;stroke-width:2;" d="M854,-546C851,-526 846,-500 843,-482"/>
</g>
<!-- msTTP_4_1&#45;&gt;me_4 -->
<g id="edge148" class="edge"><title>msTTP_4_1&#45;&gt;me_4</title>
<path style="fill:none;stroke:white;" d="M868,-554C883,-516 915,-431 915,-356 915,-356 915,-356 915,-248 915,-179 933,-101 944,-58"/>
<polygon style="fill:white;stroke:white;" points="947.479,-58.584 947,-48 940.774,-56.5725 947.479,-58.584"/>
</g>
<!-- msTTP_4_2&#45;&gt;msTTP_5_1 -->
<g id="edge85" class="edge"><title>msTTP_4_2&#45;&gt;msTTP_5_1</title>
<path style="fill:none;stroke:white;stroke-dasharray:5,2;" d="M1091,-591C1099,-606 1112,-627 1130,-636 1196,-669 1231,-669 1298,-636 1316,-627 1330,-606 1338,-591"/>
</g>
<!-- msCTP_4_2 -->
<g id="node60" class="node"><title>msCTP_4_2</title>
<polygon style="fill:green;stroke:green;" points="1111,-482 1057,-482 1057,-446 1111,-446 1111,-482"/>
</g>
<!-- msTTP_4_2&#45;&gt;msCTP_4_2 -->
<g id="edge262" class="edge"><title>msTTP_4_2&#45;&gt;msCTP_4_2</title>
<path style="fill:none;stroke:white;stroke-width:2;" d="M1084,-537C1084,-519 1084,-497 1084,-482"/>
</g>
<!-- msTTP_4_2&#45;&gt;me_4 -->
<g id="edge150" class="edge"><title>msTTP_4_2&#45;&gt;me_4</title>
<path style="fill:none;stroke:white;" d="M1093,-554C1101,-536 1113,-507 1120,-482 1134,-427 1139,-412 1139,-356 1139,-356 1139,-356 1139,-248 1139,-183 1158,-155 1120,-103 1090,-63 1033,-42 994,-33"/>
<polygon style="fill:white;stroke:white;" points="994.492,-29.5292 984,-31 993.119,-36.3933 994.492,-29.5292"/>
</g>
<!-- msCTP_5_1 -->
<g id="node61" class="node"><title>msCTP_5_1</title>
<polygon style="fill:green;stroke:green;" points="1373,-482 1319,-482 1319,-446 1373,-446 1373,-482"/>
</g>
<!-- msTTP_5_1&#45;&gt;msCTP_5_1 -->
<g id="edge268" class="edge"><title>msTTP_5_1&#45;&gt;msCTP_5_1</title>
<path style="fill:none;stroke:white;stroke-width:2;" d="M1346,-537C1346,-519 1346,-497 1346,-482"/>
</g>
<!-- msTTP_5_1&#45;&gt;me_5 -->
<g id="edge152" class="edge"><title>msTTP_5_1&#45;&gt;me_5</title>
<path style="fill:none;stroke:white;" d="M1355,-554C1363,-536 1375,-507 1382,-482 1396,-427 1401,-412 1401,-356 1401,-356 1401,-356 1401,-248 1401,-180 1388,-101 1380,-58"/>
<polygon style="fill:white;stroke:white;" points="1383.39,-57.1194 1378,-48 1376.53,-58.4922 1383.39,-57.1194"/>
</g>
<!-- rsTTP_1_2 -->
<g id="node63" class="node"><title>rsTTP_1_2</title>
<polygon style="fill:red;stroke:red;" points="234,-320 261,-374 207,-374 234,-320"/>
</g>
<!-- msCTP_1_2&#45;&gt;rsTTP_1_2 -->
<g id="edge29" class="edge"><title>msCTP_1_2&#45;&gt;rsTTP_1_2</title>
<path style="fill:none;stroke:white;stroke-dasharray:1,5;" d="M234,-446C234,-426 234,-394 234,-374"/>
</g>
<!-- msCTP_3_1 -->
<g id="node57" class="node"><title>msCTP_3_1</title>
<polygon style="fill:green;stroke:green;" points="553,-482 499,-482 499,-446 553,-446 553,-482"/>
</g>
<!-- msCTP_3_2 -->
<g id="node58" class="node"><title>msCTP_3_2</title>
<polygon style="fill:green;stroke:green;" points="701,-482 647,-482 647,-446 701,-446 701,-482"/>
</g>
<!-- msCTP_3_1&#45;&gt;msCTP_3_2 -->
<g id="edge248" class="edge"><title>msCTP_3_1&#45;&gt;msCTP_3_2</title>
<path style="fill:none;stroke:white;stroke-width:2;" d="M553,-464C584,-464 615,-464 647,-464"/>
</g>
<!-- rsTTP_3_1 -->
<g id="node64" class="node"><title>rsTTP_3_1</title>
<polygon style="fill:red;stroke:red;" points="526,-320 553,-374 499,-374 526,-320"/>
</g>
<!-- msCTP_3_1&#45;&gt;rsTTP_3_1 -->
<g id="edge37" class="edge"><title>msCTP_3_1&#45;&gt;rsTTP_3_1</title>
<path style="fill:none;stroke:white;stroke-dasharray:1,5;" d="M526,-446C526,-426 526,-394 526,-374"/>
</g>
<!-- rsTTP_3_2 -->
<g id="node65" class="node"><title>rsTTP_3_2</title>
<polygon style="fill:red;stroke:red;" points="674,-320 701,-374 647,-374 674,-320"/>
</g>
<!-- msCTP_3_2&#45;&gt;rsTTP_3_2 -->
<g id="edge41" class="edge"><title>msCTP_3_2&#45;&gt;rsTTP_3_2</title>
<path style="fill:none;stroke:white;stroke-dasharray:1,5;" d="M674,-446C674,-426 674,-394 674,-374"/>
</g>
<!-- rsTTP_4_1 -->
<g id="node66" class="node"><title>rsTTP_4_1</title>
<polygon style="fill:red;stroke:red;" points="831,-320 858,-374 804,-374 831,-320"/>
</g>
<!-- msCTP_4_1&#45;&gt;rsTTP_4_1 -->
<g id="edge50" class="edge"><title>msCTP_4_1&#45;&gt;rsTTP_4_1</title>
<path style="fill:none;stroke:white;stroke-dasharray:1,5;" d="M838,-446C837,-426 834,-394 833,-374"/>
</g>
<!-- rsTTP_4_2 -->
<g id="node67" class="node"><title>rsTTP_4_2</title>
<polygon style="fill:red;stroke:red;" points="1084,-320 1111,-374 1057,-374 1084,-320"/>
</g>
<!-- msCTP_4_2&#45;&gt;rsTTP_4_2 -->
<g id="edge59" class="edge"><title>msCTP_4_2&#45;&gt;rsTTP_4_2</title>
<path style="fill:none;stroke:white;stroke-dasharray:1,5;" d="M1084,-446C1084,-426 1084,-394 1084,-374"/>
</g>
<!-- rsTTP_5_1 -->
<g id="node68" class="node"><title>rsTTP_5_1</title>
<polygon style="fill:red;stroke:red;" points="1346,-320 1373,-374 1319,-374 1346,-320"/>
</g>
<!-- msCTP_5_1&#45;&gt;rsTTP_5_1 -->
<g id="edge70" class="edge"><title>msCTP_5_1&#45;&gt;rsTTP_5_1</title>
<path style="fill:none;stroke:white;stroke-dasharray:1,5;" d="M1346,-446C1346,-426 1346,-394 1346,-374"/>
</g>
<!-- rsTTP_1_2&#45;&gt;rsTTP_3_1 -->
<g id="edge87" class="edge"><title>rsTTP_1_2&#45;&gt;rsTTP_3_1</title>
<path style="fill:none;stroke:white;stroke-dasharray:5,2;" d="M252,-356C337,-356 422,-356 508,-356"/>
</g>
<!-- rsCTP_1_2 -->
<g id="node70" class="node"><title>rsCTP_1_2</title>
<polygon style="fill:green;stroke:green;" points="261,-266 207,-266 207,-230 261,-230 261,-266"/>
</g>
<!-- rsTTP_1_2&#45;&gt;rsCTP_1_2 -->
<g id="edge242" class="edge"><title>rsTTP_1_2&#45;&gt;rsCTP_1_2</title>
<path style="fill:none;stroke:white;stroke-width:2;" d="M234,-320C234,-302 234,-281 234,-266"/>
</g>
<!-- rsTTP_1_2&#45;&gt;me_1 -->
<g id="edge154" class="edge"><title>rsTTP_1_2&#45;&gt;me_1</title>
<path style="fill:none;stroke:white;" d="M225,-337C217,-319 205,-291 198,-266 178,-193 168,-105 163,-58"/>
<polygon style="fill:white;stroke:white;" points="166.478,-57.6021 162,-48 159.512,-58.2987 166.478,-57.6021"/>
</g>
<!-- rsCTP_3_1 -->
<g id="node73" class="node"><title>rsCTP_3_1</title>
<polygon style="fill:green;stroke:green;" points="553,-266 499,-266 499,-230 553,-230 553,-266"/>
</g>
<!-- rsTTP_3_1&#45;&gt;rsCTP_3_1 -->
<g id="edge246" class="edge"><title>rsTTP_3_1&#45;&gt;rsCTP_3_1</title>
<path style="fill:none;stroke:white;stroke-width:2;" d="M526,-320C526,-302 526,-281 526,-266"/>
</g>
<!-- me_3 -->
<g id="node90" class="node"><title>me_3</title>
<polygon style="fill:lightgrey;stroke:black;" points="627,-44 573,-44 573,-8 627,-8 627,-44"/>
<polygon style="fill:none;stroke:black;" points="631,-48 569,-48 569,-4 631,-4 631,-48"/>
</g>
<!-- rsTTP_3_1&#45;&gt;me_3 -->
<g id="edge156" class="edge"><title>rsTTP_3_1&#45;&gt;me_3</title>
<path style="fill:none;stroke:white;" d="M535,-337C543,-319 555,-291 562,-266 581,-193 592,-105 597,-58"/>
<polygon style="fill:white;stroke:white;" points="600.488,-58.2987 598,-48 593.522,-57.6021 600.488,-58.2987"/>
</g>
<!-- rsTTP_3_2&#45;&gt;rsTTP_4_1 -->
<g id="edge89" class="edge"><title>rsTTP_3_2&#45;&gt;rsTTP_4_1</title>
<path style="fill:none;stroke:white;stroke-dasharray:5,2;" d="M692,-356C732,-356 772,-356 813,-356"/>
</g>
<!-- rsCTP_3_2 -->
<g id="node74" class="node"><title>rsCTP_3_2</title>
<polygon style="fill:green;stroke:green;" points="701,-266 647,-266 647,-230 701,-230 701,-266"/>
</g>
<!-- rsTTP_3_2&#45;&gt;rsCTP_3_2 -->
<g id="edge250" class="edge"><title>rsTTP_3_2&#45;&gt;rsCTP_3_2</title>
<path style="fill:none;stroke:white;stroke-width:2;" d="M674,-320C674,-302 674,-281 674,-266"/>
</g>
<!-- rsTTP_3_2&#45;&gt;me_3 -->
<g id="edge158" class="edge"><title>rsTTP_3_2&#45;&gt;me_3</title>
<path style="fill:none;stroke:white;" d="M665,-337C657,-319 645,-291 638,-266 618,-193 608,-105 603,-58"/>
<polygon style="fill:white;stroke:white;" points="606.478,-57.6021 602,-48 599.512,-58.2987 606.478,-57.6021"/>
</g>
<!-- rsCTP_4_1 -->
<g id="node75" class="node"><title>rsCTP_4_1</title>
<polygon style="fill:green;stroke:green;" points="849,-266 795,-266 795,-230 849,-230 849,-266"/>
</g>
<!-- rsTTP_4_1&#45;&gt;rsCTP_4_1 -->
<g id="edge256" class="edge"><title>rsTTP_4_1&#45;&gt;rsCTP_4_1</title>
<path style="fill:none;stroke:white;stroke-width:2;" d="M828,-325C827,-306 825,-282 824,-266"/>
</g>
<!-- rsTTP_4_1&#45;&gt;me_4 -->
<g id="edge160" class="edge"><title>rsTTP_4_1&#45;&gt;me_4</title>
<path style="fill:none;stroke:white;" d="M838,-333C843,-315 851,-289 858,-266 878,-193 870,-171 901,-103 908,-86 919,-70 929,-56"/>
<polygon style="fill:white;stroke:white;" points="931.8,-58.1 935,-48 926.2,-53.9 931.8,-58.1"/>
</g>
<!-- rsTTP_4_2&#45;&gt;rsTTP_5_1 -->
<g id="edge91" class="edge"><title>rsTTP_4_2&#45;&gt;rsTTP_5_1</title>
<path style="fill:none;stroke:white;stroke-dasharray:5,2;" d="M1102,-356C1177,-356 1252,-356 1328,-356"/>
</g>
<!-- rsCTP_4_2 -->
<g id="node76" class="node"><title>rsCTP_4_2</title>
<polygon style="fill:green;stroke:green;" points="1111,-266 1057,-266 1057,-230 1111,-230 1111,-266"/>
</g>
<!-- rsTTP_4_2&#45;&gt;rsCTP_4_2 -->
<g id="edge264" class="edge"><title>rsTTP_4_2&#45;&gt;rsCTP_4_2</title>
<path style="fill:none;stroke:white;stroke-width:2;" d="M1084,-320C1084,-302 1084,-281 1084,-266"/>
</g>
<!-- rsTTP_4_2&#45;&gt;me_4 -->
<g id="edge162" class="edge"><title>rsTTP_4_2&#45;&gt;me_4</title>
<path style="fill:none;stroke:white;" d="M1075,-337C1068,-318 1056,-290 1048,-266 1024,-194 1035,-171 1005,-103 998,-86 987,-70 977,-56"/>
<polygon style="fill:white;stroke:white;" points="979.8,-53.9 971,-48 974.2,-58.1 979.8,-53.9"/>
</g>
<!-- rsCTP_5_1 -->
<g id="node77" class="node"><title>rsCTP_5_1</title>
<polygon style="fill:green;stroke:green;" points="1373,-266 1319,-266 1319,-230 1373,-230 1373,-266"/>
</g>
<!-- rsTTP_5_1&#45;&gt;rsCTP_5_1 -->
<g id="edge270" class="edge"><title>rsTTP_5_1&#45;&gt;rsCTP_5_1</title>
<path style="fill:none;stroke:white;stroke-width:2;" d="M1346,-320C1346,-302 1346,-281 1346,-266"/>
</g>
<!-- rsTTP_5_1&#45;&gt;me_5 -->
<g id="edge164" class="edge"><title>rsTTP_5_1&#45;&gt;me_5</title>
<path style="fill:none;stroke:white;" d="M1337,-338C1328,-320 1315,-292 1310,-266 1296,-194 1285,-171 1310,-103 1316,-85 1328,-69 1340,-55"/>
<polygon style="fill:white;stroke:white;" points="1342.4,-57.546 1347,-48 1337.45,-52.5962 1342.4,-57.546"/>
</g>
<!-- spiTTP_1_2 -->
<g id="node79" class="node"><title>spiTTP_1_2</title>
<polygon style="fill:red;stroke:red;" points="234,-103 261,-157 207,-157 234,-103"/>
</g>
<!-- rsCTP_1_2&#45;&gt;spiTTP_1_2 -->
<g id="edge31" class="edge"><title>rsCTP_1_2&#45;&gt;spiTTP_1_2</title>
<path style="fill:none;stroke:white;stroke-dasharray:1,5;" d="M234,-230C234,-209 234,-177 234,-157"/>
</g>
<!-- rsCTP_2_1 -->
<g id="node71" class="node"><title>rsCTP_2_1</title>
<polygon style="fill:green;stroke:green;" points="409,-266 355,-266 355,-230 409,-230 409,-266"/>
</g>
<!-- rsCTP_2_2 -->
<g id="node72" class="node"><title>rsCTP_2_2</title>
<polygon style="fill:green;stroke:green;" points="481,-266 427,-266 427,-230 481,-230 481,-266"/>
</g>
<!-- rsCTP_2_1&#45;&gt;rsCTP_2_2 -->
<g id="edge244" class="edge"><title>rsCTP_2_1&#45;&gt;rsCTP_2_2</title>
<path style="fill:none;stroke:white;stroke-width:2;" d="M409,-248C415,-248 421,-248 427,-248"/>
</g>
<!-- spiTTP_2_1 -->
<g id="node80" class="node"><title>spiTTP_2_1</title>
<polygon style="fill:red;stroke:red;" points="382,-103 409,-157 355,-157 382,-103"/>
</g>
<!-- rsCTP_2_1&#45;&gt;spiTTP_2_1 -->
<g id="edge33" class="edge"><title>rsCTP_2_1&#45;&gt;spiTTP_2_1</title>
<path style="fill:none;stroke:white;stroke-dasharray:1,5;" d="M382,-230C382,-209 382,-177 382,-157"/>
</g>
<!-- spiTTP_2_2 -->
<g id="node81" class="node"><title>spiTTP_2_2</title>
<polygon style="fill:red;stroke:red;" points="454,-103 481,-157 427,-157 454,-103"/>
</g>
<!-- rsCTP_2_2&#45;&gt;spiTTP_2_2 -->
<g id="edge35" class="edge"><title>rsCTP_2_2&#45;&gt;spiTTP_2_2</title>
<path style="fill:none;stroke:white;stroke-dasharray:1,5;" d="M454,-230C454,-209 454,-177 454,-157"/>
</g>
<!-- spiTTP_3_1 -->
<g id="node82" class="node"><title>spiTTP_3_1</title>
<polygon style="fill:red;stroke:red;" points="526,-103 553,-157 499,-157 526,-103"/>
</g>
<!-- rsCTP_3_1&#45;&gt;spiTTP_3_1 -->
<g id="edge39" class="edge"><title>rsCTP_3_1&#45;&gt;spiTTP_3_1</title>
<path style="fill:none;stroke:white;stroke-dasharray:1,5;" d="M526,-230C526,-209 526,-177 526,-157"/>
</g>
<!-- spiTTP_3_2 -->
<g id="node83" class="node"><title>spiTTP_3_2</title>
<polygon style="fill:red;stroke:red;" points="674,-103 701,-157 647,-157 674,-103"/>
</g>
<!-- rsCTP_3_2&#45;&gt;spiTTP_3_2 -->
<g id="edge43" class="edge"><title>rsCTP_3_2&#45;&gt;spiTTP_3_2</title>
<path style="fill:none;stroke:white;stroke-dasharray:1,5;" d="M674,-230C674,-209 674,-177 674,-157"/>
</g>
<!-- spiTTP_4_1 -->
<g id="node84" class="node"><title>spiTTP_4_1</title>
<polygon style="fill:red;stroke:red;" points="822,-103 849,-157 795,-157 822,-103"/>
</g>
<!-- rsCTP_4_1&#45;&gt;spiTTP_4_1 -->
<g id="edge52" class="edge"><title>rsCTP_4_1&#45;&gt;spiTTP_4_1</title>
<path style="fill:none;stroke:white;stroke-dasharray:1,5;" d="M822,-230C822,-209 822,-177 822,-157"/>
</g>
<!-- spiTTP_4_2 -->
<g id="node85" class="node"><title>spiTTP_4_2</title>
<polygon style="fill:red;stroke:red;" points="1084,-103 1111,-157 1057,-157 1084,-103"/>
</g>
<!-- rsCTP_4_2&#45;&gt;spiTTP_4_2 -->
<g id="edge61" class="edge"><title>rsCTP_4_2&#45;&gt;spiTTP_4_2</title>
<path style="fill:none;stroke:white;stroke-dasharray:1,5;" d="M1084,-230C1084,-209 1084,-177 1084,-157"/>
</g>
<!-- spiTTP_5_1 -->
<g id="node86" class="node"><title>spiTTP_5_1</title>
<polygon style="fill:red;stroke:red;" points="1346,-103 1373,-157 1319,-157 1346,-103"/>
</g>
<!-- rsCTP_5_1&#45;&gt;spiTTP_5_1 -->
<g id="edge72" class="edge"><title>rsCTP_5_1&#45;&gt;spiTTP_5_1</title>
<path style="fill:none;stroke:white;stroke-dasharray:1,5;" d="M1346,-230C1346,-209 1346,-177 1346,-157"/>
</g>
<!-- spiTTP_1_2&#45;&gt;spiTTP_2_1 -->
<g id="edge93" class="edge"><title>spiTTP_1_2&#45;&gt;spiTTP_2_1</title>
<path style="fill:none;stroke:white;stroke-dasharray:5,2;" d="M252,-139C289,-139 326,-139 364,-139"/>
</g>
<!-- spiTTP_1_2&#45;&gt;me_1 -->
<g id="edge166" class="edge"><title>spiTTP_1_2&#45;&gt;me_1</title>
<path style="fill:none;stroke:white;" d="M224,-123C213,-106 194,-78 180,-56"/>
<polygon style="fill:white;stroke:white;" points="182.8,-53.9 174,-48 177.2,-58.1 182.8,-53.9"/>
</g>
<!-- me_2 -->
<g id="node89" class="node"><title>me_2</title>
<polygon style="fill:lightgrey;stroke:black;" points="445,-44 391,-44 391,-8 445,-8 445,-44"/>
<polygon style="fill:none;stroke:black;" points="449,-48 387,-48 387,-4 449,-4 449,-48"/>
</g>
<!-- spiTTP_2_1&#45;&gt;me_2 -->
<g id="edge168" class="edge"><title>spiTTP_2_1&#45;&gt;me_2</title>
<path style="fill:none;stroke:white;" d="M389,-117C395,-100 402,-77 408,-58"/>
<polygon style="fill:white;stroke:white;" points="411.479,-58.584 411,-48 404.774,-56.5725 411.479,-58.584"/>
</g>
<!-- spiTTP_2_2&#45;&gt;spiTTP_3_1 -->
<g id="edge95" class="edge"><title>spiTTP_2_2&#45;&gt;spiTTP_3_1</title>
<path style="fill:none;stroke:white;stroke-dasharray:5,2;" d="M472,-139C484,-139 496,-139 508,-139"/>
</g>
<!-- spiTTP_2_2&#45;&gt;me_2 -->
<g id="edge170" class="edge"><title>spiTTP_2_2&#45;&gt;me_2</title>
<path style="fill:none;stroke:white;" d="M447,-117C441,-100 434,-77 428,-58"/>
<polygon style="fill:white;stroke:white;" points="431.226,-56.5725 425,-48 424.521,-58.584 431.226,-56.5725"/>
</g>
<!-- spiTTP_3_1&#45;&gt;me_3 -->
<g id="edge172" class="edge"><title>spiTTP_3_1&#45;&gt;me_3</title>
<path style="fill:none;stroke:white;" d="M536,-123C547,-106 566,-78 580,-56"/>
<polygon style="fill:white;stroke:white;" points="582.8,-58.1 586,-48 577.2,-53.9 582.8,-58.1"/>
</g>
<!-- spiTTP_3_2&#45;&gt;spiTTP_4_1 -->
<g id="edge97" class="edge"><title>spiTTP_3_2&#45;&gt;spiTTP_4_1</title>
<path style="fill:none;stroke:white;stroke-dasharray:5,2;" d="M692,-139C729,-139 766,-139 804,-139"/>
</g>
<!-- spiTTP_3_2&#45;&gt;me_3 -->
<g id="edge174" class="edge"><title>spiTTP_3_2&#45;&gt;me_3</title>
<path style="fill:none;stroke:white;" d="M664,-123C653,-106 634,-78 620,-56"/>
<polygon style="fill:white;stroke:white;" points="622.8,-53.9 614,-48 617.2,-58.1 622.8,-53.9"/>
</g>
<!-- spiTTP_4_1&#45;&gt;me_4 -->
<g id="edge176" class="edge"><title>spiTTP_4_1&#45;&gt;me_4</title>
<path style="fill:none;stroke:white;" d="M835,-127C843,-120 853,-111 863,-103 881,-87 901,-70 918,-55"/>
<polygon style="fill:white;stroke:white;" points="920.779,-57.2191 926,-48 916.169,-51.9511 920.779,-57.2191"/>
</g>
<!-- spiTTP_4_2&#45;&gt;spiTTP_5_1 -->
<g id="edge99" class="edge"><title>spiTTP_4_2&#45;&gt;spiTTP_5_1</title>
<path style="fill:none;stroke:white;stroke-dasharray:5,2;" d="M1102,-139C1177,-139 1252,-139 1328,-139"/>
</g>
<!-- spiTTP_4_2&#45;&gt;me_4 -->
<g id="edge178" class="edge"><title>spiTTP_4_2&#45;&gt;me_4</title>
<path style="fill:none;stroke:white;" d="M1071,-128C1063,-120 1052,-111 1043,-103 1025,-87 1004,-70 987,-55"/>
<polygon style="fill:white;stroke:white;" points="988.831,-51.9511 979,-48 984.221,-57.2191 988.831,-51.9511"/>
</g>
<!-- spiTTP_5_1&#45;&gt;me_5 -->
<g id="edge180" class="edge"><title>spiTTP_5_1&#45;&gt;me_5</title>
<path style="fill:none;stroke:white;" d="M1352,-114C1356,-97 1361,-76 1365,-58"/>
<polygon style="fill:white;stroke:white;" points="1368.48,-58.584 1368,-48 1361.77,-56.5725 1368.48,-58.584"/>
</g>
</g>
</svg>
