<?xml version="1.0" encoding="UTF-8" standalone="no"?>
<!DOCTYPE svg PUBLIC "-//W3C//DTD SVG 1.0//EN"
 "http://www.w3.org/TR/2001/REC-SVG-20010904/DTD/svg10.dtd" [
 <!ATTLIST svg xmlns:xlink CDATA #FIXED "http://www.w3.org/1999/xlink">
]>
<!-- Generated by Graphviz version 2.21.0 (Wed Jul 23 15:20:11 UTC 2008)
     For user: (ellson) John Ellson -->
<!-- Title: G Pages: 1 -->
<svg width="436pt" height="374pt"
 viewBox="0.00 0.00 436.00 374.00" xmlns="http://www.w3.org/2000/svg" xmlns:xlink="http://www.w3.org/1999/xlink">
<g id="graph0" class="graph" transform="scale(1 1) rotate(0) translate(4 370)">
<title>G</title>
<polygon style="fill:#808080;stroke:#808080;" points="-4,4 -4,-370 432,-370 432,4 -4,4"/>
<!-- 1 -->
<g id="node2" class="node"><title>1</title>
</g>
<!-- a -->
<g id="node19" class="node"><title>a</title>
<ellipse style="fill:none;stroke:black;" cx="69" cy="-349" rx="11" ry="11"/>
</g>
<!-- 1&#45;&gt;a -->
<g id="edge6" class="edge"><title>1&#45;&gt;a</title>
<path style="fill:none;stroke:#0000ff;" d="M22,-349C32,-349 48,-349 58,-349"/>
</g>
<!-- 2 -->
<g id="node3" class="node"><title>2</title>
</g>
<!-- b -->
<g id="node20" class="node"><title>b</title>
<ellipse style="fill:none;stroke:black;" cx="69" cy="-305" rx="11" ry="11"/>
</g>
<!-- 2&#45;&gt;b -->
<g id="edge11" class="edge"><title>2&#45;&gt;b</title>
<path style="fill:none;stroke:#ff0000;" d="M22,-305C32,-305 48,-305 58,-305"/>
</g>
<!-- 3 -->
<g id="node4" class="node"><title>3</title>
</g>
<!-- c -->
<g id="node21" class="node"><title>c</title>
<ellipse style="fill:none;stroke:black;" cx="69" cy="-253" rx="11" ry="11"/>
</g>
<!-- 3&#45;&gt;c -->
<g id="edge16" class="edge"><title>3&#45;&gt;c</title>
<path style="fill:none;stroke:#ffff00;" d="M22,-253C32,-253 48,-253 58,-253"/>
</g>
<!-- 4 -->
<g id="node5" class="node"><title>4</title>
</g>
<!-- d -->
<g id="node22" class="node"><title>d</title>
<ellipse style="fill:none;stroke:black;" cx="69" cy="-209" rx="11" ry="11"/>
</g>
<!-- 4&#45;&gt;d -->
<g id="edge21" class="edge"><title>4&#45;&gt;d</title>
<path style="fill:none;stroke:#00ff00;" d="M22,-209C32,-209 48,-209 58,-209"/>
</g>
<!-- 5 -->
<g id="node6" class="node"><title>5</title>
</g>
<!-- e -->
<g id="node23" class="node"><title>e</title>
<ellipse style="fill:none;stroke:black;" cx="69" cy="-157" rx="11" ry="11"/>
</g>
<!-- 5&#45;&gt;e -->
<g id="edge26" class="edge"><title>5&#45;&gt;e</title>
<path style="fill:none;stroke:#000000;" d="M22,-157C32,-157 48,-157 58,-157"/>
</g>
<!-- 6 -->
<g id="node7" class="node"><title>6</title>
</g>
<!-- f -->
<g id="node24" class="node"><title>f</title>
<ellipse style="fill:none;stroke:black;" cx="69" cy="-113" rx="11" ry="11"/>
</g>
<!-- 6&#45;&gt;f -->
<g id="edge31" class="edge"><title>6&#45;&gt;f</title>
<path style="fill:none;stroke:#00ffff;" d="M22,-113C32,-113 48,-113 58,-113"/>
</g>
<!-- 7 -->
<g id="node8" class="node"><title>7</title>
</g>
<!-- g -->
<g id="node25" class="node"><title>g</title>
<ellipse style="fill:none;stroke:black;" cx="69" cy="-61" rx="11" ry="11"/>
</g>
<!-- 7&#45;&gt;g -->
<g id="edge36" class="edge"><title>7&#45;&gt;g</title>
<path style="fill:none;stroke:#ffffff;" d="M22,-61C32,-61 48,-61 58,-61"/>
</g>
<!-- 8 -->
<g id="node9" class="node"><title>8</title>
</g>
<!-- h -->
<g id="node26" class="node"><title>h</title>
<ellipse style="fill:none;stroke:black;" cx="69" cy="-17" rx="11" ry="11"/>
</g>
<!-- 8&#45;&gt;h -->
<g id="edge41" class="edge"><title>8&#45;&gt;h</title>
<path style="fill:none;stroke:#ff00ff;" d="M22,-17C32,-17 48,-17 58,-17"/>
</g>
<!-- 10 -->
<g id="node10" class="node"><title>10</title>
</g>
<!-- 20 -->
<g id="node11" class="node"><title>20</title>
</g>
<!-- 30 -->
<g id="node12" class="node"><title>30</title>
</g>
<!-- 40 -->
<g id="node13" class="node"><title>40</title>
</g>
<!-- 50 -->
<g id="node14" class="node"><title>50</title>
</g>
<!-- 60 -->
<g id="node15" class="node"><title>60</title>
</g>
<!-- 70 -->
<g id="node16" class="node"><title>70</title>
</g>
<!-- 80 -->
<g id="node17" class="node"><title>80</title>
</g>
<!-- A -->
<g id="node44" class="node"><title>A</title>
<polygon style="fill:none;stroke:black;" points="127,-366.556 116,-351 127,-335.444 138,-351 127,-366.556"/>
</g>
<!-- a&#45;&gt;A -->
<g id="edge7" class="edge"><title>a&#45;&gt;A</title>
<path style="fill:none;stroke:#0000ff;" d="M80,-349C90,-350 106,-350 116,-351"/>
</g>
<!-- B -->
<g id="node45" class="node"><title>B</title>
<polygon style="fill:none;stroke:black;" points="127,-318.556 116,-303 127,-287.444 138,-303 127,-318.556"/>
</g>
<!-- a&#45;&gt;B -->
<g id="edge8" class="edge"><title>a&#45;&gt;B</title>
<path style="fill:none;stroke:#0000ff;" d="M78,-342C89,-333 109,-317 120,-309"/>
</g>
<!-- b&#45;&gt;A -->
<g id="edge12" class="edge"><title>b&#45;&gt;A</title>
<path style="fill:none;stroke:#ff0000;" d="M78,-312C89,-321 109,-337 120,-345"/>
</g>
<!-- b&#45;&gt;B -->
<g id="edge13" class="edge"><title>b&#45;&gt;B</title>
<path style="fill:none;stroke:#ff0000;" d="M80,-305C90,-304 106,-304 116,-303"/>
</g>
<!-- C -->
<g id="node46" class="node"><title>C</title>
<polygon style="fill:none;stroke:black;" points="127,-270.556 116,-255 127,-239.444 138,-255 127,-270.556"/>
</g>
<!-- c&#45;&gt;C -->
<g id="edge17" class="edge"><title>c&#45;&gt;C</title>
<path style="fill:none;stroke:#ffff00;" d="M80,-253C90,-254 106,-254 116,-255"/>
</g>
<!-- D -->
<g id="node47" class="node"><title>D</title>
<polygon style="fill:none;stroke:black;" points="127,-222.556 116,-207 127,-191.444 138,-207 127,-222.556"/>
</g>
<!-- c&#45;&gt;D -->
<g id="edge18" class="edge"><title>c&#45;&gt;D</title>
<path style="fill:none;stroke:#ffff00;" d="M78,-246C89,-237 109,-221 120,-213"/>
</g>
<!-- d&#45;&gt;C -->
<g id="edge22" class="edge"><title>d&#45;&gt;C</title>
<path style="fill:none;stroke:#00ff00;" d="M78,-216C89,-225 109,-241 120,-249"/>
</g>
<!-- d&#45;&gt;D -->
<g id="edge23" class="edge"><title>d&#45;&gt;D</title>
<path style="fill:none;stroke:#00ff00;" d="M80,-209C90,-208 106,-208 116,-207"/>
</g>
<!-- E -->
<g id="node48" class="node"><title>E</title>
<polygon style="fill:none;stroke:black;" points="127,-174.556 116,-159 127,-143.444 138,-159 127,-174.556"/>
</g>
<!-- e&#45;&gt;E -->
<g id="edge27" class="edge"><title>e&#45;&gt;E</title>
<path style="fill:none;stroke:#000000;" d="M80,-157C90,-158 106,-158 116,-159"/>
</g>
<!-- F -->
<g id="node49" class="node"><title>F</title>
<polygon style="fill:none;stroke:black;" points="127,-126.556 116,-111 127,-95.4437 138,-111 127,-126.556"/>
</g>
<!-- e&#45;&gt;F -->
<g id="edge28" class="edge"><title>e&#45;&gt;F</title>
<path style="fill:none;stroke:#000000;" d="M78,-150C89,-141 109,-125 120,-117"/>
</g>
<!-- f&#45;&gt;E -->
<g id="edge32" class="edge"><title>f&#45;&gt;E</title>
<path style="fill:none;stroke:#00ffff;" d="M78,-120C89,-129 109,-145 120,-153"/>
</g>
<!-- f&#45;&gt;F -->
<g id="edge33" class="edge"><title>f&#45;&gt;F</title>
<path style="fill:none;stroke:#00ffff;" d="M80,-113C90,-112 106,-112 116,-111"/>
</g>
<!-- G -->
<g id="node50" class="node"><title>G</title>
<polygon style="fill:none;stroke:black;" points="127,-78.5563 116,-63 127,-47.4437 138,-63 127,-78.5563"/>
</g>
<!-- g&#45;&gt;G -->
<g id="edge37" class="edge"><title>g&#45;&gt;G</title>
<path style="fill:none;stroke:#ffffff;" d="M80,-61C90,-62 106,-62 116,-63"/>
</g>
<!-- H -->
<g id="node51" class="node"><title>H</title>
<polygon style="fill:none;stroke:black;" points="127,-30.5563 116,-15 127,0.556349 138,-15 127,-30.5563"/>
</g>
<!-- g&#45;&gt;H -->
<g id="edge38" class="edge"><title>g&#45;&gt;H</title>
<path style="fill:none;stroke:#ffffff;" d="M78,-54C89,-45 109,-29 120,-21"/>
</g>
<!-- h&#45;&gt;G -->
<g id="edge42" class="edge"><title>h&#45;&gt;G</title>
<path style="fill:none;stroke:#ff00ff;" d="M78,-24C89,-33 109,-49 120,-57"/>
</g>
<!-- h&#45;&gt;H -->
<g id="edge43" class="edge"><title>h&#45;&gt;H</title>
<path style="fill:none;stroke:#ff00ff;" d="M80,-17C90,-16 106,-16 116,-15"/>
</g>
<!-- i -->
<g id="node27" class="node"><title>i</title>
<ellipse style="fill:none;stroke:black;" cx="185" cy="-351" rx="11" ry="11"/>
</g>
<!-- I -->
<g id="node52" class="node"><title>I</title>
<polygon style="fill:none;stroke:black;" points="243,-366.556 232,-351 243,-335.444 254,-351 243,-366.556"/>
</g>
<!-- i&#45;&gt;I -->
<g id="edge48" class="edge"><title>i&#45;&gt;I</title>
<path style="fill:none;stroke:#ff0000;" d="M196,-350C206,-350 222,-350 232,-350"/>
<path style="fill:none;stroke:#0000ff;" d="M196,-352C206,-352 222,-352 232,-352"/>
</g>
<!-- K -->
<g id="node54" class="node"><title>K</title>
<polygon style="fill:none;stroke:black;" points="243,-318.556 232,-303 243,-287.444 254,-303 243,-318.556"/>
</g>
<!-- i&#45;&gt;K -->
<g id="edge49" class="edge"><title>i&#45;&gt;K</title>
<path style="fill:none;stroke:#ff0000;" d="M193.367,-343.226C204.352,-334.238 224.352,-317.238 235.367,-308.226"/>
<path style="fill:none;stroke:#0000ff;" d="M194.633,-344.774C205.648,-335.762 225.648,-318.762 236.633,-309.774"/>
</g>
<!-- j -->
<g id="node28" class="node"><title>j</title>
<ellipse style="fill:none;stroke:black;" cx="185" cy="-161" rx="11" ry="11"/>
</g>
<!-- J -->
<g id="node53" class="node"><title>J</title>
<polygon style="fill:none;stroke:black;" points="243,-174.556 232,-159 243,-143.444 254,-159 243,-174.556"/>
</g>
<!-- j&#45;&gt;J -->
<g id="edge53" class="edge"><title>j&#45;&gt;J</title>
<path style="fill:none;stroke:#ff0000;" d="M195.9,-160.005C206,-159 222,-159 231.9,-158.005"/>
<path style="fill:none;stroke:#0000ff;" d="M196.1,-161.995C206,-161 222,-161 232.1,-159.995"/>
</g>
<!-- L -->
<g id="node55" class="node"><title>L</title>
<polygon style="fill:none;stroke:black;" points="243,-126.556 232,-111 243,-95.4437 254,-111 243,-126.556"/>
</g>
<!-- j&#45;&gt;L -->
<g id="edge54" class="edge"><title>j&#45;&gt;L</title>
<path style="fill:none;stroke:#ff0000;" d="M193.327,-153.26C204.349,-143.241 225.349,-125.241 235.331,-116.257"/>
<path style="fill:none;stroke:#0000ff;" d="M194.673,-154.74C205.651,-144.759 226.651,-126.759 236.669,-117.743"/>
</g>
<!-- k -->
<g id="node29" class="node"><title>k</title>
<ellipse style="fill:none;stroke:black;" cx="185" cy="-303" rx="11" ry="11"/>
</g>
<!-- k&#45;&gt;I -->
<g id="edge59" class="edge"><title>k&#45;&gt;I</title>
<path style="fill:none;stroke:#00ff00;" d="M194.633,-309.226C205.648,-318.238 225.648,-335.238 236.633,-344.226"/>
<path style="fill:none;stroke:#ffff00;" d="M193.367,-310.774C204.352,-319.762 224.352,-336.762 235.367,-345.774"/>
</g>
<!-- k&#45;&gt;K -->
<g id="edge60" class="edge"><title>k&#45;&gt;K</title>
<path style="fill:none;stroke:#00ff00;" d="M196,-302C206,-302 222,-302 232,-302"/>
<path style="fill:none;stroke:#ffff00;" d="M196,-304C206,-304 222,-304 232,-304"/>
</g>
<!-- l -->
<g id="node30" class="node"><title>l</title>
<ellipse style="fill:none;stroke:black;" cx="185" cy="-121" rx="11" ry="11"/>
</g>
<!-- l&#45;&gt;J -->
<g id="edge64" class="edge"><title>l&#45;&gt;J</title>
<path style="fill:none;stroke:#00ff00;" d="M194.555,-126.168C206.534,-134.155 225.534,-146.155 235.573,-153.181"/>
<path style="fill:none;stroke:#ffff00;" d="M193.445,-127.832C205.466,-135.845 224.466,-147.845 234.427,-154.819"/>
</g>
<!-- l&#45;&gt;L -->
<g id="edge65" class="edge"><title>l&#45;&gt;L</title>
<path style="fill:none;stroke:#00ff00;" d="M195.821,-118.016C206.816,-116.017 222.816,-113.017 232.9,-112.005"/>
<path style="fill:none;stroke:#ffff00;" d="M196.179,-119.984C207.184,-117.983 223.184,-114.983 233.1,-113.995"/>
</g>
<!-- m -->
<g id="node31" class="node"><title>m</title>
<ellipse style="fill:none;stroke:black;" cx="185" cy="-245" rx="11" ry="11"/>
</g>
<!-- M -->
<g id="node56" class="node"><title>M</title>
<polygon style="fill:none;stroke:black;" points="243,-270.556 232,-255 243,-239.444 254,-255 243,-270.556"/>
</g>
<!-- m&#45;&gt;M -->
<g id="edge70" class="edge"><title>m&#45;&gt;M</title>
<path style="fill:none;stroke:#00ffff;" d="M196.179,-246.016C207.184,-248.017 223.184,-251.017 233.1,-252.005"/>
<path style="fill:none;stroke:#000000;" d="M195.821,-247.984C206.816,-249.983 222.816,-252.983 232.9,-253.995"/>
</g>
<!-- O -->
<g id="node58" class="node"><title>O</title>
<polygon style="fill:none;stroke:black;" points="243,-222.556 232,-207 243,-191.444 254,-207 243,-222.556"/>
</g>
<!-- m&#45;&gt;O -->
<g id="edge71" class="edge"><title>m&#45;&gt;O</title>
<path style="fill:none;stroke:#00ffff;" d="M193.445,-238.168C205.466,-230.155 224.466,-218.155 234.427,-211.181"/>
<path style="fill:none;stroke:#000000;" d="M194.555,-239.832C206.534,-231.845 225.534,-219.845 235.573,-212.819"/>
</g>
<!-- n -->
<g id="node32" class="node"><title>n</title>
<ellipse style="fill:none;stroke:black;" cx="185" cy="-63" rx="11" ry="11"/>
</g>
<!-- N -->
<g id="node57" class="node"><title>N</title>
<polygon style="fill:none;stroke:black;" points="243,-78.5563 232,-63 243,-47.4437 254,-63 243,-78.5563"/>
</g>
<!-- n&#45;&gt;N -->
<g id="edge75" class="edge"><title>n&#45;&gt;N</title>
<path style="fill:none;stroke:#00ffff;" d="M196,-62C206,-62 222,-62 232,-62"/>
<path style="fill:none;stroke:#000000;" d="M196,-64C206,-64 222,-64 232,-64"/>
</g>
<!-- P -->
<g id="node59" class="node"><title>P</title>
<polygon style="fill:none;stroke:black;" points="243,-30.5563 232,-15 243,0.556349 254,-15 243,-30.5563"/>
</g>
<!-- n&#45;&gt;P -->
<g id="edge76" class="edge"><title>n&#45;&gt;P</title>
<path style="fill:none;stroke:#00ffff;" d="M193.367,-55.226C204.352,-46.2381 224.352,-29.2381 235.367,-20.226"/>
<path style="fill:none;stroke:#000000;" d="M194.633,-56.774C205.648,-47.7619 225.648,-30.7619 236.633,-21.774"/>
</g>
<!-- o -->
<g id="node33" class="node"><title>o</title>
<ellipse style="fill:none;stroke:black;" cx="185" cy="-205" rx="11" ry="11"/>
</g>
<!-- o&#45;&gt;M -->
<g id="edge81" class="edge"><title>o&#45;&gt;M</title>
<path style="fill:none;stroke:#ff00ff;" d="M194.673,-211.26C205.651,-221.241 226.651,-239.241 236.669,-248.257"/>
<path style="fill:none;stroke:#ffffff;" d="M193.327,-212.74C204.349,-222.759 225.349,-240.759 235.331,-249.743"/>
</g>
<!-- o&#45;&gt;O -->
<g id="edge82" class="edge"><title>o&#45;&gt;O</title>
<path style="fill:none;stroke:#ff00ff;" d="M196.1,-204.005C206,-205 222,-205 232.1,-206.005"/>
<path style="fill:none;stroke:#ffffff;" d="M195.9,-205.995C206,-207 222,-207 231.9,-207.995"/>
</g>
<!-- p -->
<g id="node34" class="node"><title>p</title>
<ellipse style="fill:none;stroke:black;" cx="185" cy="-15" rx="11" ry="11"/>
</g>
<!-- p&#45;&gt;N -->
<g id="edge86" class="edge"><title>p&#45;&gt;N</title>
<path style="fill:none;stroke:#ff00ff;" d="M194.633,-21.226C205.648,-30.2381 225.648,-47.2381 236.633,-56.226"/>
<path style="fill:none;stroke:#ffffff;" d="M193.367,-22.774C204.352,-31.7619 224.352,-48.7619 235.367,-57.774"/>
</g>
<!-- p&#45;&gt;P -->
<g id="edge87" class="edge"><title>p&#45;&gt;P</title>
<path style="fill:none;stroke:#ff00ff;" d="M196,-14C206,-14 222,-14 232,-14"/>
<path style="fill:none;stroke:#ffffff;" d="M196,-16C206,-16 222,-16 232,-16"/>
</g>
<!-- q -->
<g id="node35" class="node"><title>q</title>
<ellipse style="fill:none;stroke:black;" cx="301" cy="-351" rx="11" ry="11"/>
</g>
<!-- Q -->
<g id="node60" class="node"><title>Q</title>
<polygon style="fill:none;stroke:black;" points="359,-366.556 348,-351 359,-335.444 370,-351 359,-366.556"/>
</g>
<!-- q&#45;&gt;Q -->
<g id="edge92" class="edge"><title>q&#45;&gt;Q</title>
<path style="fill:none;stroke:#00ff00;" d="M312,-348C322,-348 338,-348 348,-348"/>
<path style="fill:none;stroke:#ffff00;" d="M312,-350C322,-350 338,-350 348,-350"/>
<path style="fill:none;stroke:#ff0000;" d="M312,-352C322,-352 338,-352 348,-352"/>
<path style="fill:none;stroke:#0000ff;" d="M312,-354C322,-354 338,-354 348,-354"/>
</g>
<!-- U -->
<g id="node64" class="node"><title>U</title>
<polygon style="fill:none;stroke:black;" points="359,-318.556 348,-303 359,-287.444 370,-303 359,-318.556"/>
</g>
<!-- q&#45;&gt;U -->
<g id="edge93" class="edge"><title>q&#45;&gt;U</title>
<path style="fill:none;stroke:#00ff00;" d="M308.1,-341.678C319.057,-332.714 339.057,-315.714 350.1,-306.678"/>
<path style="fill:none;stroke:#ffff00;" d="M309.367,-343.226C320.352,-334.238 340.352,-317.238 351.367,-308.226"/>
<path style="fill:none;stroke:#ff0000;" d="M310.633,-344.774C321.648,-335.762 341.648,-318.762 352.633,-309.774"/>
<path style="fill:none;stroke:#0000ff;" d="M311.9,-346.322C322.943,-337.286 342.943,-320.286 353.9,-311.322"/>
</g>
<!-- r -->
<g id="node36" class="node"><title>r</title>
<ellipse style="fill:none;stroke:black;" cx="301" cy="-159" rx="11" ry="11"/>
</g>
<!-- R -->
<g id="node61" class="node"><title>R</title>
<polygon style="fill:none;stroke:black;" points="359,-174.556 348,-159 359,-143.444 370,-159 359,-174.556"/>
</g>
<!-- r&#45;&gt;R -->
<g id="edge97" class="edge"><title>r&#45;&gt;R</title>
<path style="fill:none;stroke:#00ff00;" d="M312,-156C322,-156 338,-156 348,-156"/>
<path style="fill:none;stroke:#ffff00;" d="M312,-158C322,-158 338,-158 348,-158"/>
<path style="fill:none;stroke:#ff0000;" d="M312,-160C322,-160 338,-160 348,-160"/>
<path style="fill:none;stroke:#0000ff;" d="M312,-162C322,-162 338,-162 348,-162"/>
</g>
<!-- V -->
<g id="node65" class="node"><title>V</title>
<polygon style="fill:none;stroke:black;" points="359,-126.556 348,-111 359,-95.4437 370,-111 359,-126.556"/>
</g>
<!-- r&#45;&gt;V -->
<g id="edge98" class="edge"><title>r&#45;&gt;V</title>
<path style="fill:none;stroke:#00ff00;" d="M308.1,-149.678C319.057,-140.714 339.057,-123.714 350.1,-114.678"/>
<path style="fill:none;stroke:#ffff00;" d="M309.367,-151.226C320.352,-142.238 340.352,-125.238 351.367,-116.226"/>
<path style="fill:none;stroke:#ff0000;" d="M310.633,-152.774C321.648,-143.762 341.648,-126.762 352.633,-117.774"/>
<path style="fill:none;stroke:#0000ff;" d="M311.9,-154.322C322.943,-145.286 342.943,-128.286 353.9,-119.322"/>
</g>
<!-- s -->
<g id="node37" class="node"><title>s</title>
<ellipse style="fill:none;stroke:black;" cx="301" cy="-255" rx="11" ry="11"/>
</g>
<!-- S -->
<g id="node62" class="node"><title>S</title>
<polygon style="fill:none;stroke:black;" points="359,-270.556 348,-255 359,-239.444 370,-255 359,-270.556"/>
</g>
<!-- s&#45;&gt;S -->
<g id="edge102" class="edge"><title>s&#45;&gt;S</title>
<path style="fill:none;stroke:#00ff00;" d="M312,-252C322,-252 338,-252 348,-252"/>
<path style="fill:none;stroke:#ffff00;" d="M312,-254C322,-254 338,-254 348,-254"/>
<path style="fill:none;stroke:#ff0000;" d="M312,-256C322,-256 338,-256 348,-256"/>
<path style="fill:none;stroke:#0000ff;" d="M312,-258C322,-258 338,-258 348,-258"/>
</g>
<!-- W -->
<g id="node66" class="node"><title>W</title>
<polygon style="fill:none;stroke:black;" points="359,-222.556 348,-207 359,-191.444 370,-207 359,-222.556"/>
</g>
<!-- s&#45;&gt;W -->
<g id="edge103" class="edge"><title>s&#45;&gt;W</title>
<path style="fill:none;stroke:#00ff00;" d="M308.1,-245.678C319.057,-236.714 339.057,-219.714 350.1,-210.678"/>
<path style="fill:none;stroke:#ffff00;" d="M309.367,-247.226C320.352,-238.238 340.352,-221.238 351.367,-212.226"/>
<path style="fill:none;stroke:#ff0000;" d="M310.633,-248.774C321.648,-239.762 341.648,-222.762 352.633,-213.774"/>
<path style="fill:none;stroke:#0000ff;" d="M311.9,-250.322C322.943,-241.286 342.943,-224.286 353.9,-215.322"/>
</g>
<!-- t -->
<g id="node38" class="node"><title>t</title>
<ellipse style="fill:none;stroke:black;" cx="301" cy="-63" rx="11" ry="11"/>
</g>
<!-- T -->
<g id="node63" class="node"><title>T</title>
<polygon style="fill:none;stroke:black;" points="359,-78.5563 348,-63 359,-47.4437 370,-63 359,-78.5563"/>
</g>
<!-- t&#45;&gt;T -->
<g id="edge107" class="edge"><title>t&#45;&gt;T</title>
<path style="fill:none;stroke:#00ff00;" d="M312,-60C322,-60 338,-60 348,-60"/>
<path style="fill:none;stroke:#ffff00;" d="M312,-62C322,-62 338,-62 348,-62"/>
<path style="fill:none;stroke:#ff0000;" d="M312,-64C322,-64 338,-64 348,-64"/>
<path style="fill:none;stroke:#0000ff;" d="M312,-66C322,-66 338,-66 348,-66"/>
</g>
<!-- X -->
<g id="node67" class="node"><title>X</title>
<polygon style="fill:none;stroke:black;" points="359,-30.5563 348,-15 359,0.556349 370,-15 359,-30.5563"/>
</g>
<!-- t&#45;&gt;X -->
<g id="edge108" class="edge"><title>t&#45;&gt;X</title>
<path style="fill:none;stroke:#00ff00;" d="M308.1,-53.6781C319.057,-44.7142 339.057,-27.7142 350.1,-18.6781"/>
<path style="fill:none;stroke:#ffff00;" d="M309.367,-55.226C320.352,-46.2381 340.352,-29.2381 351.367,-20.226"/>
<path style="fill:none;stroke:#ff0000;" d="M310.633,-56.774C321.648,-47.7619 341.648,-30.7619 352.633,-21.774"/>
<path style="fill:none;stroke:#0000ff;" d="M311.9,-58.3219C322.943,-49.2858 342.943,-32.2858 353.9,-23.3219"/>
</g>
<!-- u -->
<g id="node39" class="node"><title>u</title>
<ellipse style="fill:none;stroke:black;" cx="301" cy="-303" rx="11" ry="11"/>
</g>
<!-- u&#45;&gt;Q -->
<g id="edge113" class="edge"><title>u&#45;&gt;Q</title>
<path style="fill:none;stroke:#ff00ff;" d="M311.9,-307.678C322.943,-316.714 342.943,-333.714 353.9,-342.678"/>
<path style="fill:none;stroke:#ffffff;" d="M310.633,-309.226C321.648,-318.238 341.648,-335.238 352.633,-344.226"/>
<path style="fill:none;stroke:#00ffff;" d="M309.367,-310.774C320.352,-319.762 340.352,-336.762 351.367,-345.774"/>
<path style="fill:none;stroke:#000000;" d="M308.1,-312.322C319.057,-321.286 339.057,-338.286 350.1,-347.322"/>
</g>
<!-- u&#45;&gt;U -->
<g id="edge114" class="edge"><title>u&#45;&gt;U</title>
<path style="fill:none;stroke:#ff00ff;" d="M312,-300C322,-300 338,-300 348,-300"/>
<path style="fill:none;stroke:#ffffff;" d="M312,-302C322,-302 338,-302 348,-302"/>
<path style="fill:none;stroke:#00ffff;" d="M312,-304C322,-304 338,-304 348,-304"/>
<path style="fill:none;stroke:#000000;" d="M312,-306C322,-306 338,-306 348,-306"/>
</g>
<!-- v -->
<g id="node40" class="node"><title>v</title>
<ellipse style="fill:none;stroke:black;" cx="301" cy="-111" rx="11" ry="11"/>
</g>
<!-- v&#45;&gt;R -->
<g id="edge118" class="edge"><title>v&#45;&gt;R</title>
<path style="fill:none;stroke:#ff00ff;" d="M311.9,-115.678C322.943,-124.714 342.943,-141.714 353.9,-150.678"/>
<path style="fill:none;stroke:#ffffff;" d="M310.633,-117.226C321.648,-126.238 341.648,-143.238 352.633,-152.226"/>
<path style="fill:none;stroke:#00ffff;" d="M309.367,-118.774C320.352,-127.762 340.352,-144.762 351.367,-153.774"/>
<path style="fill:none;stroke:#000000;" d="M308.1,-120.322C319.057,-129.286 339.057,-146.286 350.1,-155.322"/>
</g>
<!-- v&#45;&gt;V -->
<g id="edge119" class="edge"><title>v&#45;&gt;V</title>
<path style="fill:none;stroke:#ff00ff;" d="M312,-108C322,-108 338,-108 348,-108"/>
<path style="fill:none;stroke:#ffffff;" d="M312,-110C322,-110 338,-110 348,-110"/>
<path style="fill:none;stroke:#00ffff;" d="M312,-112C322,-112 338,-112 348,-112"/>
<path style="fill:none;stroke:#000000;" d="M312,-114C322,-114 338,-114 348,-114"/>
</g>
<!-- w -->
<g id="node41" class="node"><title>w</title>
<ellipse style="fill:none;stroke:black;" cx="301" cy="-207" rx="11" ry="11"/>
</g>
<!-- w&#45;&gt;S -->
<g id="edge123" class="edge"><title>w&#45;&gt;S</title>
<path style="fill:none;stroke:#ff00ff;" d="M311.9,-211.678C322.943,-220.714 342.943,-237.714 353.9,-246.678"/>
<path style="fill:none;stroke:#ffffff;" d="M310.633,-213.226C321.648,-222.238 341.648,-239.238 352.633,-248.226"/>
<path style="fill:none;stroke:#00ffff;" d="M309.367,-214.774C320.352,-223.762 340.352,-240.762 351.367,-249.774"/>
<path style="fill:none;stroke:#000000;" d="M308.1,-216.322C319.057,-225.286 339.057,-242.286 350.1,-251.322"/>
</g>
<!-- w&#45;&gt;W -->
<g id="edge124" class="edge"><title>w&#45;&gt;W</title>
<path style="fill:none;stroke:#ff00ff;" d="M312,-204C322,-204 338,-204 348,-204"/>
<path style="fill:none;stroke:#ffffff;" d="M312,-206C322,-206 338,-206 348,-206"/>
<path style="fill:none;stroke:#00ffff;" d="M312,-208C322,-208 338,-208 348,-208"/>
<path style="fill:none;stroke:#000000;" d="M312,-210C322,-210 338,-210 348,-210"/>
</g>
<!-- x -->
<g id="node42" class="node"><title>x</title>
<ellipse style="fill:none;stroke:black;" cx="301" cy="-15" rx="11" ry="11"/>
</g>
<!-- x&#45;&gt;T -->
<g id="edge128" class="edge"><title>x&#45;&gt;T</title>
<path style="fill:none;stroke:#ff00ff;" d="M311.9,-19.6781C322.943,-28.7142 342.943,-45.7142 353.9,-54.6781"/>
<path style="fill:none;stroke:#ffffff;" d="M310.633,-21.226C321.648,-30.2381 341.648,-47.2381 352.633,-56.226"/>
<path style="fill:none;stroke:#00ffff;" d="M309.367,-22.774C320.352,-31.7619 340.352,-48.7619 351.367,-57.774"/>
<path style="fill:none;stroke:#000000;" d="M308.1,-24.3219C319.057,-33.2858 339.057,-50.2858 350.1,-59.3219"/>
</g>
<!-- x&#45;&gt;X -->
<g id="edge129" class="edge"><title>x&#45;&gt;X</title>
<path style="fill:none;stroke:#ff00ff;" d="M312,-12C322,-12 338,-12 348,-12"/>
<path style="fill:none;stroke:#ffffff;" d="M312,-14C322,-14 338,-14 348,-14"/>
<path style="fill:none;stroke:#00ffff;" d="M312,-16C322,-16 338,-16 348,-16"/>
<path style="fill:none;stroke:#000000;" d="M312,-18C322,-18 338,-18 348,-18"/>
</g>
<!-- A&#45;&gt;i -->
<g id="edge47" class="edge"><title>A&#45;&gt;i</title>
<path style="fill:none;stroke:#ff0000;" d="M138,-350C148,-350 164,-350 174,-350"/>
<path style="fill:none;stroke:#0000ff;" d="M138,-352C148,-352 164,-352 174,-352"/>
</g>
<!-- B&#45;&gt;j -->
<g id="edge52" class="edge"><title>B&#45;&gt;j</title>
<path style="fill:none;stroke:#ff0000;" d="M130.143,-293.486C133.072,-288.629 135.072,-283.629 137.08,-278.608 155.004,-236.909 156.004,-225.909 173.076,-184.618 175.072,-179.629 177.072,-174.629 179.106,-170.553"/>
<path style="fill:none;stroke:#0000ff;" d="M131.857,-294.514C134.928,-289.371 136.928,-284.371 138.92,-279.392 156.996,-237.091 157.996,-226.091 174.924,-185.382 176.928,-180.371 178.928,-175.371 180.894,-171.447"/>
</g>
<!-- C&#45;&gt;k -->
<g id="edge58" class="edge"><title>C&#45;&gt;k</title>
<path style="fill:none;stroke:#00ff00;" d="M134.633,-260.226C145.625,-269.219 165.625,-285.219 176.673,-295.26"/>
<path style="fill:none;stroke:#ffff00;" d="M133.367,-261.774C144.375,-270.781 164.375,-286.781 175.327,-296.74"/>
</g>
<!-- D&#45;&gt;l -->
<g id="edge63" class="edge"><title>D&#45;&gt;l</title>
<path style="fill:none;stroke:#00ff00;" d="M131.176,-198.433C142.168,-182.445 166.168,-146.445 178.183,-129.423"/>
<path style="fill:none;stroke:#ffff00;" d="M132.824,-199.567C143.832,-183.555 167.832,-147.555 179.817,-130.577"/>
</g>
<!-- E&#45;&gt;m -->
<g id="edge69" class="edge"><title>E&#45;&gt;m</title>
<path style="fill:none;stroke:#00ffff;" d="M132.824,-166.433C143.832,-182.445 167.832,-218.445 179.817,-235.423"/>
<path style="fill:none;stroke:#000000;" d="M131.176,-167.567C142.168,-183.555 166.168,-219.555 178.183,-236.577"/>
</g>
<!-- F&#45;&gt;n -->
<g id="edge74" class="edge"><title>F&#45;&gt;n</title>
<path style="fill:none;stroke:#00ffff;" d="M133.367,-104.226C144.375,-95.2191 164.375,-79.2191 175.327,-69.2601"/>
<path style="fill:none;stroke:#000000;" d="M134.633,-105.774C145.625,-96.7809 165.625,-80.7809 176.673,-70.7399"/>
</g>
<!-- G&#45;&gt;o -->
<g id="edge80" class="edge"><title>G&#45;&gt;o</title>
<path style="fill:none;stroke:#ff00ff;" d="M132.928,-71.6286C134.928,-76.6286 136.928,-81.6286 138.917,-86.6013 156.996,-127.909 157.996,-138.909 174.924,-180.618 176.894,-184.553 179.894,-190.553 181.894,-194.553"/>
<path style="fill:none;stroke:#ffffff;" d="M131.072,-72.3714C133.072,-77.3714 135.072,-82.3714 137.083,-87.3987 155.004,-128.091 156.004,-139.091 173.076,-181.382 175.106,-185.447 178.106,-191.447 180.106,-195.447"/>
</g>
<!-- H&#45;&gt;p -->
<g id="edge85" class="edge"><title>H&#45;&gt;p</title>
<path style="fill:none;stroke:#ff00ff;" d="M138,-14C148,-14 164,-14 174,-14"/>
<path style="fill:none;stroke:#ffffff;" d="M138,-16C148,-16 164,-16 174,-16"/>
</g>
<!-- I&#45;&gt;q -->
<g id="edge91" class="edge"><title>I&#45;&gt;q</title>
<path style="fill:none;stroke:#00ff00;" d="M254,-348C264,-348 280,-348 290,-348"/>
<path style="fill:none;stroke:#ffff00;" d="M254,-350C264,-350 280,-350 290,-350"/>
<path style="fill:none;stroke:#ff0000;" d="M254,-352C264,-352 280,-352 290,-352"/>
<path style="fill:none;stroke:#0000ff;" d="M254,-354C264,-354 280,-354 290,-354"/>
</g>
<!-- J&#45;&gt;r -->
<g id="edge96" class="edge"><title>J&#45;&gt;r</title>
<path style="fill:none;stroke:#00ff00;" d="M254,-156C264,-156 280,-156 290,-156"/>
<path style="fill:none;stroke:#ffff00;" d="M254,-158C264,-158 280,-158 290,-158"/>
<path style="fill:none;stroke:#ff0000;" d="M254,-160C264,-160 280,-160 290,-160"/>
<path style="fill:none;stroke:#0000ff;" d="M254,-162C264,-162 280,-162 290,-162"/>
</g>
<!-- K&#45;&gt;s -->
<g id="edge101" class="edge"><title>K&#45;&gt;s</title>
<path style="fill:none;stroke:#00ff00;" d="M248.1,-294.678C259.126,-285.657 279.126,-269.657 289.982,-259.78"/>
<path style="fill:none;stroke:#ffff00;" d="M249.367,-296.226C260.375,-287.219 280.375,-271.219 291.327,-261.26"/>
<path style="fill:none;stroke:#ff0000;" d="M250.633,-297.774C261.625,-288.781 281.625,-272.781 292.673,-262.74"/>
<path style="fill:none;stroke:#0000ff;" d="M251.9,-299.322C262.874,-290.343 282.874,-274.343 294.018,-264.22"/>
</g>
<!-- L&#45;&gt;t -->
<g id="edge106" class="edge"><title>L&#45;&gt;t</title>
<path style="fill:none;stroke:#00ff00;" d="M248.1,-102.678C259.126,-93.6574 279.126,-77.6574 289.982,-67.7802"/>
<path style="fill:none;stroke:#ffff00;" d="M249.367,-104.226C260.375,-95.2191 280.375,-79.2191 291.327,-69.2601"/>
<path style="fill:none;stroke:#ff0000;" d="M250.633,-105.774C261.625,-96.7809 281.625,-80.7809 292.673,-70.7399"/>
<path style="fill:none;stroke:#0000ff;" d="M251.9,-107.322C262.874,-98.3426 282.874,-82.3426 294.018,-72.2198"/>
</g>
<!-- M&#45;&gt;u -->
<g id="edge112" class="edge"><title>M&#45;&gt;u</title>
<path style="fill:none;stroke:#ff00ff;" d="M251.9,-258.678C262.874,-267.657 282.874,-283.657 294.018,-293.78"/>
<path style="fill:none;stroke:#ffffff;" d="M250.633,-260.226C261.625,-269.219 281.625,-285.219 292.673,-295.26"/>
<path style="fill:none;stroke:#00ffff;" d="M249.367,-261.774C260.375,-270.781 280.375,-286.781 291.327,-296.74"/>
<path style="fill:none;stroke:#000000;" d="M248.1,-263.322C259.126,-272.343 279.126,-288.343 289.982,-298.22"/>
</g>
<!-- N&#45;&gt;v -->
<g id="edge117" class="edge"><title>N&#45;&gt;v</title>
<path style="fill:none;stroke:#ff00ff;" d="M251.9,-66.6781C262.874,-75.6574 282.874,-91.6574 294.018,-101.78"/>
<path style="fill:none;stroke:#ffffff;" d="M250.633,-68.226C261.625,-77.2191 281.625,-93.2191 292.673,-103.26"/>
<path style="fill:none;stroke:#00ffff;" d="M249.367,-69.774C260.375,-78.7809 280.375,-94.7809 291.327,-104.74"/>
<path style="fill:none;stroke:#000000;" d="M248.1,-71.3219C259.126,-80.3426 279.126,-96.3426 289.982,-106.22"/>
</g>
<!-- O&#45;&gt;w -->
<g id="edge122" class="edge"><title>O&#45;&gt;w</title>
<path style="fill:none;stroke:#ff00ff;" d="M254,-204C264,-204 280,-204 290,-204"/>
<path style="fill:none;stroke:#ffffff;" d="M254,-206C264,-206 280,-206 290,-206"/>
<path style="fill:none;stroke:#00ffff;" d="M254,-208C264,-208 280,-208 290,-208"/>
<path style="fill:none;stroke:#000000;" d="M254,-210C264,-210 280,-210 290,-210"/>
</g>
<!-- P&#45;&gt;x -->
<g id="edge127" class="edge"><title>P&#45;&gt;x</title>
<path style="fill:none;stroke:#ff00ff;" d="M254,-12C264,-12 280,-12 290,-12"/>
<path style="fill:none;stroke:#ffffff;" d="M254,-14C264,-14 280,-14 290,-14"/>
<path style="fill:none;stroke:#00ffff;" d="M254,-16C264,-16 280,-16 290,-16"/>
<path style="fill:none;stroke:#000000;" d="M254,-18C264,-18 280,-18 290,-18"/>
</g>
<!-- Q&#45;&gt;10 -->
<g id="edge132" class="edge"><title>Q&#45;&gt;10</title>
<path style="fill:none;stroke:#ff00ff;" d="M370,-344C380,-344 396,-344 406,-344"/>
<path style="fill:none;stroke:#ffffff;" d="M370,-346C380,-346 396,-346 406,-346"/>
<path style="fill:none;stroke:#00ffff;" d="M370,-348C380,-348 396,-348 406,-348"/>
<path style="fill:none;stroke:#000000;" d="M370,-350C380,-350 396,-350 406,-350"/>
<path style="fill:none;stroke:#00ff00;" d="M370,-352C380,-352 396,-352 406,-352"/>
<path style="fill:none;stroke:#ffff00;" d="M370,-354C380,-354 396,-354 406,-354"/>
<path style="fill:none;stroke:#ff0000;" d="M370,-356C380,-356 396,-356 406,-356"/>
<path style="fill:none;stroke:#0000ff;" d="M370,-358C380,-358 396,-358 406,-358"/>
</g>
<!-- R&#45;&gt;20 -->
<g id="edge134" class="edge"><title>R&#45;&gt;20</title>
<path style="fill:none;stroke:#ff00ff;" d="M370,-152C380,-152 396,-152 406,-152"/>
<path style="fill:none;stroke:#ffffff;" d="M370,-154C380,-154 396,-154 406,-154"/>
<path style="fill:none;stroke:#00ffff;" d="M370,-156C380,-156 396,-156 406,-156"/>
<path style="fill:none;stroke:#000000;" d="M370,-158C380,-158 396,-158 406,-158"/>
<path style="fill:none;stroke:#00ff00;" d="M370,-160C380,-160 396,-160 406,-160"/>
<path style="fill:none;stroke:#ffff00;" d="M370,-162C380,-162 396,-162 406,-162"/>
<path style="fill:none;stroke:#ff0000;" d="M370,-164C380,-164 396,-164 406,-164"/>
<path style="fill:none;stroke:#0000ff;" d="M370,-166C380,-166 396,-166 406,-166"/>
</g>
<!-- S&#45;&gt;30 -->
<g id="edge136" class="edge"><title>S&#45;&gt;30</title>
<path style="fill:none;stroke:#ff00ff;" d="M370,-248C380,-248 396,-248 406,-248"/>
<path style="fill:none;stroke:#ffffff;" d="M370,-250C380,-250 396,-250 406,-250"/>
<path style="fill:none;stroke:#00ffff;" d="M370,-252C380,-252 396,-252 406,-252"/>
<path style="fill:none;stroke:#000000;" d="M370,-254C380,-254 396,-254 406,-254"/>
<path style="fill:none;stroke:#00ff00;" d="M370,-256C380,-256 396,-256 406,-256"/>
<path style="fill:none;stroke:#ffff00;" d="M370,-258C380,-258 396,-258 406,-258"/>
<path style="fill:none;stroke:#ff0000;" d="M370,-260C380,-260 396,-260 406,-260"/>
<path style="fill:none;stroke:#0000ff;" d="M370,-262C380,-262 396,-262 406,-262"/>
</g>
<!-- T&#45;&gt;40 -->
<g id="edge138" class="edge"><title>T&#45;&gt;40</title>
<path style="fill:none;stroke:#ff00ff;" d="M370,-56C380,-56 396,-56 406,-56"/>
<path style="fill:none;stroke:#ffffff;" d="M370,-58C380,-58 396,-58 406,-58"/>
<path style="fill:none;stroke:#00ffff;" d="M370,-60C380,-60 396,-60 406,-60"/>
<path style="fill:none;stroke:#000000;" d="M370,-62C380,-62 396,-62 406,-62"/>
<path style="fill:none;stroke:#00ff00;" d="M370,-64C380,-64 396,-64 406,-64"/>
<path style="fill:none;stroke:#ffff00;" d="M370,-66C380,-66 396,-66 406,-66"/>
<path style="fill:none;stroke:#ff0000;" d="M370,-68C380,-68 396,-68 406,-68"/>
<path style="fill:none;stroke:#0000ff;" d="M370,-70C380,-70 396,-70 406,-70"/>
</g>
<!-- U&#45;&gt;50 -->
<g id="edge140" class="edge"><title>U&#45;&gt;50</title>
<path style="fill:none;stroke:#ff00ff;" d="M370,-296C380,-296 396,-296 406,-296"/>
<path style="fill:none;stroke:#ffffff;" d="M370,-298C380,-298 396,-298 406,-298"/>
<path style="fill:none;stroke:#00ffff;" d="M370,-300C380,-300 396,-300 406,-300"/>
<path style="fill:none;stroke:#000000;" d="M370,-302C380,-302 396,-302 406,-302"/>
<path style="fill:none;stroke:#00ff00;" d="M370,-304C380,-304 396,-304 406,-304"/>
<path style="fill:none;stroke:#ffff00;" d="M370,-306C380,-306 396,-306 406,-306"/>
<path style="fill:none;stroke:#ff0000;" d="M370,-308C380,-308 396,-308 406,-308"/>
<path style="fill:none;stroke:#0000ff;" d="M370,-310C380,-310 396,-310 406,-310"/>
</g>
<!-- V&#45;&gt;60 -->
<g id="edge142" class="edge"><title>V&#45;&gt;60</title>
<path style="fill:none;stroke:#ff00ff;" d="M370,-104C380,-104 396,-104 406,-104"/>
<path style="fill:none;stroke:#ffffff;" d="M370,-106C380,-106 396,-106 406,-106"/>
<path style="fill:none;stroke:#00ffff;" d="M370,-108C380,-108 396,-108 406,-108"/>
<path style="fill:none;stroke:#000000;" d="M370,-110C380,-110 396,-110 406,-110"/>
<path style="fill:none;stroke:#00ff00;" d="M370,-112C380,-112 396,-112 406,-112"/>
<path style="fill:none;stroke:#ffff00;" d="M370,-114C380,-114 396,-114 406,-114"/>
<path style="fill:none;stroke:#ff0000;" d="M370,-116C380,-116 396,-116 406,-116"/>
<path style="fill:none;stroke:#0000ff;" d="M370,-118C380,-118 396,-118 406,-118"/>
</g>
<!-- W&#45;&gt;70 -->
<g id="edge144" class="edge"><title>W&#45;&gt;70</title>
<path style="fill:none;stroke:#ff00ff;" d="M370,-200C380,-200 396,-200 406,-200"/>
<path style="fill:none;stroke:#ffffff;" d="M370,-202C380,-202 396,-202 406,-202"/>
<path style="fill:none;stroke:#00ffff;" d="M370,-204C380,-204 396,-204 406,-204"/>
<path style="fill:none;stroke:#000000;" d="M370,-206C380,-206 396,-206 406,-206"/>
<path style="fill:none;stroke:#00ff00;" d="M370,-208C380,-208 396,-208 406,-208"/>
<path style="fill:none;stroke:#ffff00;" d="M370,-210C380,-210 396,-210 406,-210"/>
<path style="fill:none;stroke:#ff0000;" d="M370,-212C380,-212 396,-212 406,-212"/>
<path style="fill:none;stroke:#0000ff;" d="M370,-214C380,-214 396,-214 406,-214"/>
</g>
<!-- X&#45;&gt;80 -->
<g id="edge146" class="edge"><title>X&#45;&gt;80</title>
<path style="fill:none;stroke:#ff00ff;" d="M370,-8C380,-8 396,-8 406,-8"/>
<path style="fill:none;stroke:#ffffff;" d="M370,-10C380,-10 396,-10 406,-10"/>
<path style="fill:none;stroke:#00ffff;" d="M370,-12C380,-12 396,-12 406,-12"/>
<path style="fill:none;stroke:#000000;" d="M370,-14C380,-14 396,-14 406,-14"/>
<path style="fill:none;stroke:#00ff00;" d="M370,-16C380,-16 396,-16 406,-16"/>
<path style="fill:none;stroke:#ffff00;" d="M370,-18C380,-18 396,-18 406,-18"/>
<path style="fill:none;stroke:#ff0000;" d="M370,-20C380,-20 396,-20 406,-20"/>
<path style="fill:none;stroke:#0000ff;" d="M370,-22C380,-22 396,-22 406,-22"/>
</g>
</g>
</svg>
