<?xml version="1.0" encoding="UTF-8" standalone="no"?>
<!DOCTYPE svg PUBLIC "-//W3C//DTD SVG 1.1//EN"
 "http://www.w3.org/Graphics/SVG/1.1/DTD/svg11.dtd">
<!-- Generated by graphviz version 2.27.20100512.0445 (20100512.0445)
 -->
<!-- Title: TrafficLights Pages: 1 -->
<svg width="351pt" height="472pt"
 viewBox="0.00 0.00 351.25 472.43" xmlns="http://www.w3.org/2000/svg" xmlns:xlink="http://www.w3.org/1999/xlink">
<g id="graph1" class="graph" transform="scale(1 1) rotate(0) translate(4 468.429)">
<title>TrafficLights</title>
<polygon fill="white" stroke="white" points="-4,5 -4,-468.429 348.249,-468.429 348.249,5 -4,5"/>
<text text-anchor="middle" x="171.625" y="-23.2" font-family="Times Roman,serif" font-size="12.00">PetriNet Model TrafficLights</text>
<text text-anchor="middle" x="171.625" y="-8.2" font-family="Times Roman,serif" font-size="12.00">Extracted from ConceptBase and layed out by Graphviz</text>
<!-- gy2 -->
<g id="node1" class="node"><title>gy2</title>
<polygon fill="none" stroke="black" points="115.735,-88.9939 61.7354,-88.9939 61.7354,-52.9939 115.735,-52.9939 115.735,-88.9939"/>
<text text-anchor="middle" x="88.7354" y="-67.3939" font-family="Times Roman,serif" font-size="14.00">gy2</text>
</g>
<!-- yellow2 -->
<g id="node8" class="node"><title>yellow2</title>
<ellipse fill="none" stroke="black" cx="33.5" cy="-136.92" rx="32" ry="32.5"/>
<text text-anchor="middle" x="33.5" y="-133.32" font-family="Times Roman,serif" font-size="14.00">yellow2</text>
</g>
<!-- gy2&#45;&gt;yellow2 -->
<g id="edge2" class="edge"><title>gy2&#45;&gt;yellow2</title>
<path fill="none" stroke="black" d="M73.6421,-89.0084C69.7851,-93.6118 65.5147,-98.7088 61.2403,-103.81"/>
<polygon fill="black" stroke="black" points="58.3186,-101.848 54.5791,-111.761 63.6842,-106.343 58.3186,-101.848"/>
</g>
<!-- yr2 -->
<g id="node2" class="node"><title>yr2</title>
<polygon fill="none" stroke="black" points="92.7713,-230.977 38.7713,-230.977 38.7713,-194.977 92.7713,-194.977 92.7713,-230.977"/>
<text text-anchor="middle" x="65.7713" y="-209.377" font-family="Times Roman,serif" font-size="14.00">yr2</text>
</g>
<!-- red2 -->
<g id="node9" class="node"><title>red2</title>
<ellipse fill="none" stroke="black" cx="138.534" cy="-176.094" rx="32" ry="32.5"/>
<text text-anchor="middle" x="138.534" y="-172.494" font-family="Times Roman,serif" font-size="14.00">red2</text>
</g>
<!-- yr2&#45;&gt;red2 -->
<g id="edge8" class="edge"><title>yr2&#45;&gt;red2</title>
<path fill="none" stroke="black" d="M92.8656,-199.243C95.4414,-197.937 98.0839,-196.598 100.736,-195.253"/>
<polygon fill="black" stroke="black" points="102.374,-198.347 109.711,-190.704 99.2092,-192.103 102.374,-198.347"/>
</g>
<!-- safe1 -->
<g id="node11" class="node"><title>safe1</title>
<ellipse fill="none" stroke="black" cx="71.5036" cy="-297.142" rx="32" ry="32.5"/>
<text text-anchor="middle" x="71.5036" y="-293.542" font-family="Times Roman,serif" font-size="14.00">safe1</text>
</g>
<!-- yr2&#45;&gt;safe1 -->
<g id="edge6" class="edge"><title>yr2&#45;&gt;safe1</title>
<path fill="none" stroke="black" d="M67.0152,-231.239C67.488,-238.182 68.0488,-246.415 68.6108,-254.668"/>
<polygon fill="black" stroke="black" points="65.1198,-254.921 69.2913,-264.66 72.1036,-254.445 65.1198,-254.921"/>
</g>
<!-- rg2 -->
<g id="node3" class="node"><title>rg2</title>
<polygon fill="none" stroke="black" points="240.681,-162.791 186.681,-162.791 186.681,-126.791 240.681,-126.791 240.681,-162.791"/>
<text text-anchor="middle" x="213.681" y="-141.191" font-family="Times Roman,serif" font-size="14.00">rg2</text>
</g>
<!-- green2 -->
<g id="node7" class="node"><title>green2</title>
<ellipse fill="none" stroke="black" cx="174.866" cy="-71.5" rx="32" ry="32.5"/>
<text text-anchor="middle" x="174.866" y="-67.9" font-family="Times Roman,serif" font-size="14.00">green2</text>
</g>
<!-- rg2&#45;&gt;green2 -->
<g id="edge4" class="edge"><title>rg2&#45;&gt;green2</title>
<path fill="none" stroke="black" d="M204.086,-126.674C201.25,-121.32 198.036,-115.249 194.801,-109.142"/>
<polygon fill="black" stroke="black" points="197.863,-107.445 190.09,-100.246 191.677,-110.722 197.863,-107.445"/>
</g>
<!-- gy1 -->
<g id="node4" class="node"><title>gy1</title>
<polygon fill="none" stroke="black" points="280.858,-450.126 226.858,-450.126 226.858,-414.126 280.858,-414.126 280.858,-450.126"/>
<text text-anchor="middle" x="253.858" y="-428.526" font-family="Times Roman,serif" font-size="14.00">gy1</text>
</g>
<!-- yellow1 -->
<g id="node13" class="node"><title>yellow1</title>
<ellipse fill="none" stroke="black" cx="309.749" cy="-366.598" rx="32" ry="32.5"/>
<text text-anchor="middle" x="309.749" y="-362.998" font-family="Times Roman,serif" font-size="14.00">yellow1</text>
</g>
<!-- gy1&#45;&gt;yellow1 -->
<g id="edge18" class="edge"><title>gy1&#45;&gt;yellow1</title>
<path fill="none" stroke="black" d="M269.427,-413.873C273.327,-409.3 277.63,-404.255 281.93,-399.214"/>
<polygon fill="black" stroke="black" points="284.797,-401.245 288.624,-391.366 279.472,-396.703 284.797,-401.245"/>
</g>
<!-- yr1 -->
<g id="node5" class="node"><title>yr1</title>
<polygon fill="none" stroke="black" points="306.361,-307.467 252.361,-307.467 252.361,-271.467 306.361,-271.467 306.361,-307.467"/>
<text text-anchor="middle" x="279.361" y="-285.867" font-family="Times Roman,serif" font-size="14.00">yr1</text>
</g>
<!-- safe2 -->
<g id="node10" class="node"><title>safe2</title>
<ellipse fill="none" stroke="black" cx="272.944" cy="-205.146" rx="32" ry="32.5"/>
<text text-anchor="middle" x="272.944" y="-201.546" font-family="Times Roman,serif" font-size="14.00">safe2</text>
</g>
<!-- yr1&#45;&gt;safe2 -->
<g id="edge22" class="edge"><title>yr1&#45;&gt;safe2</title>
<path fill="none" stroke="black" d="M277.969,-271.17C277.439,-264.214 276.812,-255.966 276.182,-247.698"/>
<polygon fill="black" stroke="black" points="279.669,-247.394 275.42,-237.688 272.69,-247.925 279.669,-247.394"/>
</g>
<!-- red1 -->
<g id="node14" class="node"><title>red1</title>
<ellipse fill="none" stroke="black" cx="206.563" cy="-325.964" rx="32" ry="32.5"/>
<text text-anchor="middle" x="206.563" y="-322.364" font-family="Times Roman,serif" font-size="14.00">red1</text>
</g>
<!-- yr1&#45;&gt;red1 -->
<g id="edge24" class="edge"><title>yr1&#45;&gt;red1</title>
<path fill="none" stroke="black" d="M252.254,-303.057C249.677,-304.349 247.033,-305.674 244.379,-307.005"/>
<polygon fill="black" stroke="black" points="242.771,-303.896 235.4,-311.507 245.908,-310.154 242.771,-303.896"/>
</g>
<!-- rg1 -->
<g id="node6" class="node"><title>rg1</title>
<polygon fill="none" stroke="black" points="158.097,-374.866 104.097,-374.866 104.097,-338.866 158.097,-338.866 158.097,-374.866"/>
<text text-anchor="middle" x="131.097" y="-353.266" font-family="Times Roman,serif" font-size="14.00">rg1</text>
</g>
<!-- green1 -->
<g id="node12" class="node"><title>green1</title>
<ellipse fill="none" stroke="black" cx="167.832" cy="-430.929" rx="32" ry="32.5"/>
<text text-anchor="middle" x="167.832" y="-427.329" font-family="Times Roman,serif" font-size="14.00">green1</text>
</g>
<!-- rg1&#45;&gt;green1 -->
<g id="edge20" class="edge"><title>rg1&#45;&gt;green1</title>
<path fill="none" stroke="black" d="M140.178,-375.174C142.861,-380.585 145.904,-386.719 148.965,-392.891"/>
<polygon fill="black" stroke="black" points="145.845,-394.477 153.424,-401.88 152.116,-391.366 145.845,-394.477"/>
</g>
<!-- green2&#45;&gt;gy2 -->
<g id="edge12" class="edge"><title>green2&#45;&gt;gy2</title>
<path fill="none" stroke="black" d="M142.794,-71.3116C137.373,-71.2797 131.703,-71.2464 126.16,-71.2138"/>
<polygon fill="black" stroke="black" points="125.776,-67.7116 115.755,-71.1527 125.734,-74.7115 125.776,-67.7116"/>
</g>
<!-- yellow2&#45;&gt;yr2 -->
<g id="edge14" class="edge"><title>yellow2&#45;&gt;yr2</title>
<path fill="none" stroke="black" d="M46.2545,-166.979C48.8278,-173.044 51.5213,-179.392 54.0569,-185.368"/>
<polygon fill="black" stroke="black" points="50.998,-187.12 58.126,-194.958 57.442,-184.386 50.998,-187.12"/>
</g>
<!-- red2&#45;&gt;rg2 -->
<g id="edge16" class="edge"><title>red2&#45;&gt;rg2</title>
<path fill="none" stroke="black" d="M168.234,-163.722C171.175,-162.497 174.183,-161.244 177.183,-159.994"/>
<polygon fill="black" stroke="black" points="178.752,-163.132 186.637,-156.056 176.06,-156.67 178.752,-163.132"/>
</g>
<!-- safe2&#45;&gt;rg2 -->
<g id="edge10" class="edge"><title>safe2&#45;&gt;rg2</title>
<path fill="none" stroke="black" d="M250.2,-181.984C246.461,-178.175 242.567,-174.209 238.774,-170.346"/>
<polygon fill="black" stroke="black" points="241.176,-167.798 231.673,-163.114 236.181,-172.702 241.176,-167.798"/>
</g>
<!-- safe1&#45;&gt;rg1 -->
<g id="edge26" class="edge"><title>safe1&#45;&gt;rg1</title>
<path fill="none" stroke="black" d="M94.3736,-320.062C98.134,-323.831 102.05,-327.755 105.864,-331.578"/>
<polygon fill="black" stroke="black" points="103.464,-334.128 113.005,-338.734 108.419,-329.183 103.464,-334.128"/>
</g>
<!-- green1&#45;&gt;gy1 -->
<g id="edge28" class="edge"><title>green1&#45;&gt;gy1</title>
<path fill="none" stroke="black" d="M199.865,-431.375C205.221,-431.449 210.821,-431.527 216.3,-431.604"/>
<polygon fill="black" stroke="black" points="216.546,-435.107 226.594,-431.747 216.644,-428.108 216.546,-435.107"/>
</g>
<!-- yellow1&#45;&gt;yr1 -->
<g id="edge30" class="edge"><title>yellow1&#45;&gt;yr1</title>
<path fill="none" stroke="black" d="M297.739,-336.114C295.316,-329.963 292.78,-323.526 290.392,-317.465"/>
<polygon fill="black" stroke="black" points="293.482,-315.761 286.56,-307.74 286.97,-318.327 293.482,-315.761"/>
</g>
<!-- red1&#45;&gt;rg1 -->
<g id="edge32" class="edge"><title>red1&#45;&gt;rg1</title>
<path fill="none" stroke="black" d="M176.737,-338.178C173.784,-339.387 170.762,-340.624 167.75,-341.857"/>
<polygon fill="black" stroke="black" points="166.183,-338.717 158.256,-345.745 168.836,-345.195 166.183,-338.717"/>
</g>
</g>
</svg>
