<?xml version="1.0" encoding="UTF-8" standalone="no"?>
<!DOCTYPE svg PUBLIC "-//W3C//DTD SVG 1.0//EN"
 "http://www.w3.org/TR/2001/REC-SVG-20010904/DTD/svg10.dtd" [
 <!ATTLIST svg xmlns:xlink CDATA #FIXED "http://www.w3.org/1999/xlink">
]>
<!-- Generated by Graphviz version 2.21.0 (Wed Jul 23 15:20:11 UTC 2008)
     For user: (ellson) John Ellson -->
<!-- Title: unix Pages: 1 -->
<svg width="432pt" height="323pt"
 viewBox="0.00 0.00 432.00 322.63" xmlns="http://www.w3.org/2000/svg" xmlns:xlink="http://www.w3.org/1999/xlink">
<g id="graph0" class="graph" transform="scale(0.422287 0.422287) rotate(0) translate(4 760)">
<title>unix</title>
<polygon style="fill:white;stroke:white;" points="-4,4 -4,-760 1019,-760 1019,4 -4,4"/>
<!-- 5th Edition -->
<g id="node1" class="node"><title>5th Edition</title>
<ellipse style="fill:#b2dfee;stroke:#b2dfee;" cx="584" cy="-738" rx="55.0898" ry="18"/>
<text text-anchor="middle" x="584" y="-733.9" style="font-family:Times New Roman;font-size:14.00;">5th Edition</text>
</g>
<!-- 6th Edition -->
<g id="node3" class="node"><title>6th Edition</title>
<ellipse style="fill:#b2dfee;stroke:#b2dfee;" cx="419" cy="-666" rx="55.0898" ry="18"/>
<text text-anchor="middle" x="419" y="-661.9" style="font-family:Times New Roman;font-size:14.00;">6th Edition</text>
</g>
<!-- 5th Edition&#45;&gt;6th Edition -->
<g id="edge2" class="edge"><title>5th Edition&#45;&gt;6th Edition</title>
<path style="fill:none;stroke:black;" d="M551,-723C525,-712 489,-697 461,-684"/>
<polygon style="fill:black;stroke:black;" points="462.56,-680.863 452,-680 459.717,-687.26 462.56,-680.863"/>
</g>
<!-- PWB 1.0 -->
<g id="node5" class="node"><title>PWB 1.0</title>
<ellipse style="fill:#b2dfee;stroke:#b2dfee;" cx="684" cy="-666" rx="46.7546" ry="18"/>
<text text-anchor="middle" x="684" y="-661.9" style="font-family:Times New Roman;font-size:14.00;">PWB 1.0</text>
</g>
<!-- 5th Edition&#45;&gt;PWB 1.0 -->
<g id="edge4" class="edge"><title>5th Edition&#45;&gt;PWB 1.0</title>
<path style="fill:none;stroke:black;" d="M607,-721C621,-711 639,-699 654,-688"/>
<polygon style="fill:black;stroke:black;" points="656.1,-690.8 662,-682 651.9,-685.2 656.1,-690.8"/>
</g>
<!-- LSX -->
<g id="node7" class="node"><title>LSX</title>
<ellipse style="fill:#b2dfee;stroke:#b2dfee;" cx="591" cy="-594" rx="29.1851" ry="18"/>
<text text-anchor="middle" x="591" y="-589.9" style="font-family:Times New Roman;font-size:14.00;">LSX</text>
</g>
<!-- 6th Edition&#45;&gt;LSX -->
<g id="edge6" class="edge"><title>6th Edition&#45;&gt;LSX</title>
<path style="fill:none;stroke:black;" d="M454,-652C482,-641 520,-626 553,-612 555,-611 557,-610 559,-609"/>
<polygon style="fill:black;stroke:black;" points="560.283,-612.26 568,-605 557.44,-605.863 560.283,-612.26"/>
</g>
<!-- 1 BSD -->
<g id="node9" class="node"><title>1 BSD</title>
<ellipse style="fill:#b2dfee;stroke:#b2dfee;" cx="116" cy="-594" rx="36.8288" ry="18"/>
<text text-anchor="middle" x="116" y="-589.9" style="font-family:Times New Roman;font-size:14.00;">1 BSD</text>
</g>
<!-- 6th Edition&#45;&gt;1 BSD -->
<g id="edge8" class="edge"><title>6th Edition&#45;&gt;1 BSD</title>
<path style="fill:none;stroke:black;" d="M373,-656C326,-645 249,-628 183,-612 175,-610 167,-608 159,-606"/>
<polygon style="fill:black;stroke:black;" points="159.584,-602.521 149,-603 157.573,-609.226 159.584,-602.521"/>
</g>
<!-- Mini Unix -->
<g id="node11" class="node"><title>Mini Unix</title>
<ellipse style="fill:#b2dfee;stroke:#b2dfee;" cx="354" cy="-594" rx="52.1162" ry="18"/>
<text text-anchor="middle" x="354" y="-589.9" style="font-family:Times New Roman;font-size:14.00;">Mini Unix</text>
</g>
<!-- 6th Edition&#45;&gt;Mini Unix -->
<g id="edge10" class="edge"><title>6th Edition&#45;&gt;Mini Unix</title>
<path style="fill:none;stroke:black;" d="M403,-649C395,-640 385,-629 377,-619"/>
<polygon style="fill:black;stroke:black;" points="379.219,-616.221 370,-611 373.951,-620.831 379.219,-616.221"/>
</g>
<!-- Wollongong -->
<g id="node13" class="node"><title>Wollongong</title>
<ellipse style="fill:#b2dfee;stroke:#b2dfee;" cx="484" cy="-594" rx="59.9551" ry="18"/>
<text text-anchor="middle" x="484" y="-589.9" style="font-family:Times New Roman;font-size:14.00;">Wollongong</text>
</g>
<!-- 6th Edition&#45;&gt;Wollongong -->
<g id="edge12" class="edge"><title>6th Edition&#45;&gt;Wollongong</title>
<path style="fill:none;stroke:black;" d="M435,-649C443,-640 453,-629 461,-619"/>
<polygon style="fill:black;stroke:black;" points="464.049,-620.831 468,-611 458.781,-616.221 464.049,-620.831"/>
</g>
<!-- Interdata -->
<g id="node15" class="node"><title>Interdata</title>
<ellipse style="fill:#b2dfee;stroke:#b2dfee;" cx="238" cy="-594" rx="46.0565" ry="18"/>
<text text-anchor="middle" x="238" y="-589.9" style="font-family:Times New Roman;font-size:14.00;">Interdata</text>
</g>
<!-- 6th Edition&#45;&gt;Interdata -->
<g id="edge14" class="edge"><title>6th Edition&#45;&gt;Interdata</title>
<path style="fill:none;stroke:black;" d="M384,-652C354,-640 311,-624 281,-611"/>
<polygon style="fill:black;stroke:black;" points="281.585,-607.464 271,-607 278.985,-613.964 281.585,-607.464"/>
</g>
<!-- PWB 1.2 -->
<g id="node59" class="node"><title>PWB 1.2</title>
<ellipse style="fill:#b2dfee;stroke:#b2dfee;" cx="684" cy="-594" rx="46.0565" ry="18"/>
<text text-anchor="middle" x="684" y="-589.9" style="font-family:Times New Roman;font-size:14.00;">PWB 1.2</text>
</g>
<!-- PWB 1.0&#45;&gt;PWB 1.2 -->
<g id="edge62" class="edge"><title>PWB 1.0&#45;&gt;PWB 1.2</title>
<path style="fill:none;stroke:black;" d="M684,-648C684,-640 684,-631 684,-622"/>
<polygon style="fill:black;stroke:black;" points="687.5,-622 684,-612 680.5,-622 687.5,-622"/>
</g>
<!-- USG 1.0 -->
<g id="node61" class="node"><title>USG 1.0</title>
<ellipse style="fill:#b2dfee;stroke:#b2dfee;" cx="794" cy="-594" rx="45.8622" ry="18"/>
<text text-anchor="middle" x="794" y="-589.9" style="font-family:Times New Roman;font-size:14.00;">USG 1.0</text>
</g>
<!-- PWB 1.0&#45;&gt;USG 1.0 -->
<g id="edge64" class="edge"><title>PWB 1.0&#45;&gt;USG 1.0</title>
<path style="fill:none;stroke:black;" d="M708,-650C723,-640 744,-626 762,-615"/>
<polygon style="fill:black;stroke:black;" points="764.1,-617.8 770,-609 759.9,-612.2 764.1,-617.8"/>
</g>
<!-- 2 BSD -->
<g id="node38" class="node"><title>2 BSD</title>
<ellipse style="fill:#b2dfee;stroke:#b2dfee;" cx="95" cy="-234" rx="36.8288" ry="18"/>
<text text-anchor="middle" x="95" y="-229.9" style="font-family:Times New Roman;font-size:14.00;">2 BSD</text>
</g>
<!-- 1 BSD&#45;&gt;2 BSD -->
<g id="edge38" class="edge"><title>1 BSD&#45;&gt;2 BSD</title>
<path style="fill:none;stroke:black;" d="M114,-576C110,-548 105,-495 105,-450 105,-450 105,-450 105,-378 105,-337 101,-291 98,-262"/>
<polygon style="fill:black;stroke:black;" points="101.478,-261.602 97,-252 94.5125,-262.299 101.478,-261.602"/>
</g>
<!-- Unix/TS 3.0 -->
<g id="node17" class="node"><title>Unix/TS 3.0</title>
<ellipse style="fill:#b2dfee;stroke:#b2dfee;" cx="644" cy="-378" rx="59.7599" ry="18"/>
<text text-anchor="middle" x="644" y="-373.9" style="font-family:Times New Roman;font-size:14.00;">Unix/TS 3.0</text>
</g>
<!-- Interdata&#45;&gt;Unix/TS 3.0 -->
<g id="edge16" class="edge"><title>Interdata&#45;&gt;Unix/TS 3.0</title>
<path style="fill:none;stroke:black;" d="M267,-580C313,-557 406,-510 484,-468 527,-445 575,-418 607,-399"/>
<polygon style="fill:black;stroke:black;" points="608.958,-401.916 616,-394 605.559,-395.797 608.958,-401.916"/>
</g>
<!-- PWB 2.0 -->
<g id="node19" class="node"><title>PWB 2.0</title>
<ellipse style="fill:#b2dfee;stroke:#b2dfee;" cx="583" cy="-522" rx="46.7546" ry="18"/>
<text text-anchor="middle" x="583" y="-517.9" style="font-family:Times New Roman;font-size:14.00;">PWB 2.0</text>
</g>
<!-- Interdata&#45;&gt;PWB 2.0 -->
<g id="edge18" class="edge"><title>Interdata&#45;&gt;PWB 2.0</title>
<path style="fill:none;stroke:black;" d="M272,-582C279,-580 286,-578 293,-576 394,-551 422,-562 522,-540 527,-539 531,-538 536,-536"/>
<polygon style="fill:black;stroke:black;" points="537.427,-539.226 546,-533 535.416,-532.521 537.427,-539.226"/>
</g>
<!-- 7th Edition -->
<g id="node21" class="node"><title>7th Edition</title>
<ellipse style="fill:#b2dfee;stroke:#b2dfee;" cx="238" cy="-522" rx="55.0898" ry="18"/>
<text text-anchor="middle" x="238" y="-517.9" style="font-family:Times New Roman;font-size:14.00;">7th Edition</text>
</g>
<!-- Interdata&#45;&gt;7th Edition -->
<g id="edge20" class="edge"><title>Interdata&#45;&gt;7th Edition</title>
<path style="fill:none;stroke:black;" d="M238,-576C238,-568 238,-559 238,-550"/>
<polygon style="fill:black;stroke:black;" points="241.5,-550 238,-540 234.5,-550 241.5,-550"/>
</g>
<!-- TS 4.0 -->
<g id="node82" class="node"><title>TS 4.0</title>
<ellipse style="fill:#b2dfee;stroke:#b2dfee;" cx="725" cy="-234" rx="38.9134" ry="18"/>
<text text-anchor="middle" x="725" y="-229.9" style="font-family:Times New Roman;font-size:14.00;">TS 4.0</text>
</g>
<!-- Unix/TS 3.0&#45;&gt;TS 4.0 -->
<g id="edge88" class="edge"><title>Unix/TS 3.0&#45;&gt;TS 4.0</title>
<path style="fill:none;stroke:black;" d="M654,-360C668,-335 694,-290 710,-261"/>
<polygon style="fill:black;stroke:black;" points="713.203,-262.441 715,-252 707.084,-259.042 713.203,-262.441"/>
</g>
<!-- PWB 2.0&#45;&gt;Unix/TS 3.0 -->
<g id="edge84" class="edge"><title>PWB 2.0&#45;&gt;Unix/TS 3.0</title>
<path style="fill:none;stroke:black;" d="M581,-504C579,-485 579,-455 589,-432 594,-420 603,-410 612,-402"/>
<polygon style="fill:black;stroke:black;" points="614.779,-404.219 620,-395 610.169,-398.951 614.779,-404.219"/>
</g>
<!-- 8th Edition -->
<g id="node23" class="node"><title>8th Edition</title>
<ellipse style="fill:#b2dfee;stroke:#b2dfee;" cx="482" cy="-162" rx="55.0898" ry="18"/>
<text text-anchor="middle" x="482" y="-157.9" style="font-family:Times New Roman;font-size:14.00;">8th Edition</text>
</g>
<!-- 7th Edition&#45;&gt;8th Edition -->
<g id="edge22" class="edge"><title>7th Edition&#45;&gt;8th Edition</title>
<path style="fill:none;stroke:black;" d="M285,-513C345,-501 440,-480 451,-468 480,-438 470,-418 470,-378 470,-378 470,-378 470,-306 470,-265 475,-219 479,-190"/>
<polygon style="fill:black;stroke:black;" points="482.488,-190.299 480,-180 475.522,-189.602 482.488,-190.299"/>
</g>
<!-- 32V -->
<g id="node25" class="node"><title>32V</title>
<ellipse style="fill:#b2dfee;stroke:#b2dfee;" cx="415" cy="-450" rx="27.1004" ry="18"/>
<text text-anchor="middle" x="415" y="-445.9" style="font-family:Times New Roman;font-size:14.00;">32V</text>
</g>
<!-- 7th Edition&#45;&gt;32V -->
<g id="edge24" class="edge"><title>7th Edition&#45;&gt;32V</title>
<path style="fill:none;stroke:black;" d="M276,-509C304,-498 345,-483 379,-468 381,-467 382,-467 384,-466"/>
<polygon style="fill:black;stroke:black;" points="385.958,-468.916 393,-461 382.559,-462.797 385.958,-468.916"/>
</g>
<!-- V7M -->
<g id="node27" class="node"><title>V7M</title>
<ellipse style="fill:#b2dfee;stroke:#b2dfee;" cx="32" cy="-378" rx="31.9646" ry="18"/>
<text text-anchor="middle" x="32" y="-373.9" style="font-family:Times New Roman;font-size:14.00;">V7M</text>
</g>
<!-- 7th Edition&#45;&gt;V7M -->
<g id="edge26" class="edge"><title>7th Edition&#45;&gt;V7M</title>
<path style="fill:none;stroke:black;" d="M210,-506C192,-496 167,-482 146,-468 115,-446 80,-419 58,-400"/>
<polygon style="fill:black;stroke:black;" points="59.8306,-396.951 50,-393 55.221,-402.219 59.8306,-396.951"/>
</g>
<!-- Ultrix&#45;11 -->
<g id="node29" class="node"><title>Ultrix&#45;11</title>
<ellipse style="fill:#b2dfee;stroke:#b2dfee;" cx="124" cy="-90" rx="46.0565" ry="18"/>
<text text-anchor="middle" x="124" y="-85.9" style="font-family:Times New Roman;font-size:14.00;">Ultrix&#45;11</text>
</g>
<!-- 7th Edition&#45;&gt;Ultrix&#45;11 -->
<g id="edge28" class="edge"><title>7th Edition&#45;&gt;Ultrix&#45;11</title>
<path style="fill:none;stroke:black;" d="M214,-506C202,-496 188,-483 179,-468 159,-432 160,-418 160,-378 160,-378 160,-378 160,-234 160,-192 146,-146 135,-117"/>
<polygon style="fill:black;stroke:black;" points="138.26,-115.717 131,-108 131.863,-118.56 138.26,-115.717"/>
</g>
<!-- Xenix -->
<g id="node31" class="node"><title>Xenix</title>
<ellipse style="fill:#b2dfee;stroke:#b2dfee;" cx="222" cy="-450" rx="34.2406" ry="18"/>
<text text-anchor="middle" x="222" y="-445.9" style="font-family:Times New Roman;font-size:14.00;">Xenix</text>
</g>
<!-- 7th Edition&#45;&gt;Xenix -->
<g id="edge30" class="edge"><title>7th Edition&#45;&gt;Xenix</title>
<path style="fill:none;stroke:black;" d="M234,-504C232,-496 230,-487 228,-478"/>
<polygon style="fill:black;stroke:black;" points="231.393,-477.119 226,-468 224.529,-478.492 231.393,-477.119"/>
</g>
<!-- UniPlus+ -->
<g id="node33" class="node"><title>UniPlus+</title>
<ellipse style="fill:#b2dfee;stroke:#b2dfee;" cx="322" cy="-450" rx="47.9469" ry="18"/>
<text text-anchor="middle" x="322" y="-445.9" style="font-family:Times New Roman;font-size:14.00;">UniPlus+</text>
</g>
<!-- 7th Edition&#45;&gt;UniPlus+ -->
<g id="edge32" class="edge"><title>7th Edition&#45;&gt;UniPlus+</title>
<path style="fill:none;stroke:black;" d="M258,-505C269,-496 283,-484 295,-474"/>
<polygon style="fill:black;stroke:black;" points="297.779,-476.219 303,-467 293.169,-470.951 297.779,-476.219"/>
</g>
<!-- 9th Edition -->
<g id="node36" class="node"><title>9th Edition</title>
<ellipse style="fill:#b2dfee;stroke:#b2dfee;" cx="569" cy="-90" rx="55.0898" ry="18"/>
<text text-anchor="middle" x="569" y="-85.9" style="font-family:Times New Roman;font-size:14.00;">9th Edition</text>
</g>
<!-- 8th Edition&#45;&gt;9th Edition -->
<g id="edge36" class="edge"><title>8th Edition&#45;&gt;9th Edition</title>
<path style="fill:none;stroke:black;" d="M503,-145C514,-136 529,-124 541,-113"/>
<polygon style="fill:black;stroke:black;" points="543.1,-115.8 549,-107 538.9,-110.2 543.1,-115.8"/>
</g>
<!-- 3 BSD -->
<g id="node45" class="node"><title>3 BSD</title>
<ellipse style="fill:#b2dfee;stroke:#b2dfee;" cx="392" cy="-378" rx="36.8288" ry="18"/>
<text text-anchor="middle" x="392" y="-373.9" style="font-family:Times New Roman;font-size:14.00;">3 BSD</text>
</g>
<!-- 32V&#45;&gt;3 BSD -->
<g id="edge46" class="edge"><title>32V&#45;&gt;3 BSD</title>
<path style="fill:none;stroke:black;" d="M409,-432C407,-424 404,-415 401,-406"/>
<polygon style="fill:black;stroke:black;" points="404.226,-404.573 398,-396 397.521,-406.584 404.226,-404.573"/>
</g>
<!-- V7M&#45;&gt;Ultrix&#45;11 -->
<g id="edge34" class="edge"><title>V7M&#45;&gt;Ultrix&#45;11</title>
<path style="fill:none;stroke:black;" d="M32,-360C31,-329 33,-266 49,-216 61,-179 87,-140 104,-116"/>
<polygon style="fill:black;stroke:black;" points="106.8,-118.1 110,-108 101.2,-113.9 106.8,-118.1"/>
</g>
<!-- 2.8 BSD -->
<g id="node40" class="node"><title>2.8 BSD</title>
<ellipse style="fill:#b2dfee;stroke:#b2dfee;" cx="232" cy="-162" rx="43.9728" ry="18"/>
<text text-anchor="middle" x="232" y="-157.9" style="font-family:Times New Roman;font-size:14.00;">2.8 BSD</text>
</g>
<!-- 2 BSD&#45;&gt;2.8 BSD -->
<g id="edge40" class="edge"><title>2 BSD&#45;&gt;2.8 BSD</title>
<path style="fill:none;stroke:black;" d="M120,-221C141,-209 172,-193 196,-181"/>
<polygon style="fill:black;stroke:black;" points="197.958,-183.916 205,-176 194.559,-177.797 197.958,-183.916"/>
</g>
<!-- 2.8 BSD&#45;&gt;Ultrix&#45;11 -->
<g id="edge42" class="edge"><title>2.8 BSD&#45;&gt;Ultrix&#45;11</title>
<path style="fill:none;stroke:black;" d="M209,-147C194,-136 173,-123 156,-112"/>
<polygon style="fill:black;stroke:black;" points="157.262,-108.635 147,-106 153.379,-114.459 157.262,-108.635"/>
</g>
<!-- 2.9 BSD -->
<g id="node43" class="node"><title>2.9 BSD</title>
<ellipse style="fill:#b2dfee;stroke:#b2dfee;" cx="232" cy="-90" rx="43.9728" ry="18"/>
<text text-anchor="middle" x="232" y="-85.9" style="font-family:Times New Roman;font-size:14.00;">2.9 BSD</text>
</g>
<!-- 2.8 BSD&#45;&gt;2.9 BSD -->
<g id="edge44" class="edge"><title>2.8 BSD&#45;&gt;2.9 BSD</title>
<path style="fill:none;stroke:black;" d="M232,-144C232,-136 232,-127 232,-118"/>
<polygon style="fill:black;stroke:black;" points="235.5,-118 232,-108 228.5,-118 235.5,-118"/>
</g>
<!-- 4 BSD -->
<g id="node47" class="node"><title>4 BSD</title>
<ellipse style="fill:#b2dfee;stroke:#b2dfee;" cx="388" cy="-306" rx="37.0233" ry="18"/>
<text text-anchor="middle" x="388" y="-301.9" style="font-family:Times New Roman;font-size:14.00;">4 BSD</text>
</g>
<!-- 3 BSD&#45;&gt;4 BSD -->
<g id="edge48" class="edge"><title>3 BSD&#45;&gt;4 BSD</title>
<path style="fill:none;stroke:black;" d="M391,-360C390,-352 390,-343 390,-334"/>
<polygon style="fill:black;stroke:black;" points="393.478,-333.602 389,-324 386.512,-334.299 393.478,-333.602"/>
</g>
<!-- 4.1 BSD -->
<g id="node49" class="node"><title>4.1 BSD</title>
<ellipse style="fill:#b2dfee;stroke:#b2dfee;" cx="386" cy="-234" rx="45.1673" ry="18"/>
<text text-anchor="middle" x="386" y="-229.9" style="font-family:Times New Roman;font-size:14.00;">4.1 BSD</text>
</g>
<!-- 4 BSD&#45;&gt;4.1 BSD -->
<g id="edge50" class="edge"><title>4 BSD&#45;&gt;4.1 BSD</title>
<path style="fill:none;stroke:black;" d="M387,-288C387,-280 387,-271 387,-262"/>
<polygon style="fill:black;stroke:black;" points="390.478,-261.602 386,-252 383.512,-262.299 390.478,-261.602"/>
</g>
<!-- 4.1 BSD&#45;&gt;8th Edition -->
<g id="edge56" class="edge"><title>4.1 BSD&#45;&gt;8th Edition</title>
<path style="fill:none;stroke:black;" d="M407,-218C420,-208 437,-196 452,-185"/>
<polygon style="fill:black;stroke:black;" points="454.1,-187.8 460,-179 449.9,-182.2 454.1,-187.8"/>
</g>
<!-- 4.1 BSD&#45;&gt;2.8 BSD -->
<g id="edge54" class="edge"><title>4.1 BSD&#45;&gt;2.8 BSD</title>
<path style="fill:none;stroke:black;" d="M357,-220C332,-208 297,-192 270,-180"/>
<polygon style="fill:black;stroke:black;" points="271.56,-176.863 261,-176 268.717,-183.26 271.56,-176.863"/>
</g>
<!-- 4.2 BSD -->
<g id="node51" class="node"><title>4.2 BSD</title>
<ellipse style="fill:#b2dfee;stroke:#b2dfee;" cx="364" cy="-162" rx="45.1673" ry="18"/>
<text text-anchor="middle" x="364" y="-157.9" style="font-family:Times New Roman;font-size:14.00;">4.2 BSD</text>
</g>
<!-- 4.1 BSD&#45;&gt;4.2 BSD -->
<g id="edge52" class="edge"><title>4.1 BSD&#45;&gt;4.2 BSD</title>
<path style="fill:none;stroke:black;" d="M380,-216C378,-208 375,-198 372,-190"/>
<polygon style="fill:black;stroke:black;" points="375.226,-188.573 369,-180 368.521,-190.584 375.226,-188.573"/>
</g>
<!-- 4.3 BSD -->
<g id="node55" class="node"><title>4.3 BSD</title>
<ellipse style="fill:#b2dfee;stroke:#b2dfee;" cx="451" cy="-90" rx="45.1673" ry="18"/>
<text text-anchor="middle" x="451" y="-85.9" style="font-family:Times New Roman;font-size:14.00;">4.3 BSD</text>
</g>
<!-- 4.2 BSD&#45;&gt;4.3 BSD -->
<g id="edge58" class="edge"><title>4.2 BSD&#45;&gt;4.3 BSD</title>
<path style="fill:none;stroke:black;" d="M384,-146C396,-136 411,-123 423,-113"/>
<polygon style="fill:black;stroke:black;" points="425.779,-115.219 431,-106 421.169,-109.951 425.779,-115.219"/>
</g>
<!-- Ultrix&#45;32 -->
<g id="node57" class="node"><title>Ultrix&#45;32</title>
<ellipse style="fill:#b2dfee;stroke:#b2dfee;" cx="341" cy="-90" rx="46.7546" ry="18"/>
<text text-anchor="middle" x="341" y="-85.9" style="font-family:Times New Roman;font-size:14.00;">Ultrix&#45;32</text>
</g>
<!-- 4.2 BSD&#45;&gt;Ultrix&#45;32 -->
<g id="edge60" class="edge"><title>4.2 BSD&#45;&gt;Ultrix&#45;32</title>
<path style="fill:none;stroke:black;" d="M358,-144C355,-136 352,-127 350,-118"/>
<polygon style="fill:black;stroke:black;" points="353.226,-116.573 347,-108 346.521,-118.584 353.226,-116.573"/>
</g>
<!-- PWB 1.2&#45;&gt;PWB 2.0 -->
<g id="edge66" class="edge"><title>PWB 1.2&#45;&gt;PWB 2.0</title>
<path style="fill:none;stroke:black;" d="M662,-578C648,-568 629,-555 613,-544"/>
<polygon style="fill:black;stroke:black;" points="615.1,-541.2 605,-538 610.9,-546.8 615.1,-541.2"/>
</g>
<!-- CB Unix 1 -->
<g id="node64" class="node"><title>CB Unix 1</title>
<ellipse style="fill:#b2dfee;stroke:#b2dfee;" cx="886" cy="-522" rx="53.0059" ry="18"/>
<text text-anchor="middle" x="886" y="-517.9" style="font-family:Times New Roman;font-size:14.00;">CB Unix 1</text>
</g>
<!-- USG 1.0&#45;&gt;CB Unix 1 -->
<g id="edge68" class="edge"><title>USG 1.0&#45;&gt;CB Unix 1</title>
<path style="fill:none;stroke:black;" d="M815,-578C827,-568 843,-555 857,-545"/>
<polygon style="fill:black;stroke:black;" points="859.1,-547.8 865,-539 854.9,-542.2 859.1,-547.8"/>
</g>
<!-- USG 2.0 -->
<g id="node66" class="node"><title>USG 2.0</title>
<ellipse style="fill:#b2dfee;stroke:#b2dfee;" cx="744" cy="-522" rx="45.8622" ry="18"/>
<text text-anchor="middle" x="744" y="-517.9" style="font-family:Times New Roman;font-size:14.00;">USG 2.0</text>
</g>
<!-- USG 1.0&#45;&gt;USG 2.0 -->
<g id="edge70" class="edge"><title>USG 1.0&#45;&gt;USG 2.0</title>
<path style="fill:none;stroke:black;" d="M782,-577C776,-568 768,-557 762,-547"/>
<polygon style="fill:black;stroke:black;" points="764.8,-544.9 756,-539 759.2,-549.1 764.8,-544.9"/>
</g>
<!-- CB Unix 2 -->
<g id="node68" class="node"><title>CB Unix 2</title>
<ellipse style="fill:#b2dfee;stroke:#b2dfee;" cx="899" cy="-450" rx="53.0059" ry="18"/>
<text text-anchor="middle" x="899" y="-445.9" style="font-family:Times New Roman;font-size:14.00;">CB Unix 2</text>
</g>
<!-- CB Unix 1&#45;&gt;CB Unix 2 -->
<g id="edge72" class="edge"><title>CB Unix 1&#45;&gt;CB Unix 2</title>
<path style="fill:none;stroke:black;" d="M889,-504C890,-496 892,-487 894,-478"/>
<polygon style="fill:black;stroke:black;" points="897.471,-478.492 896,-468 890.607,-477.119 897.471,-478.492"/>
</g>
<!-- USG 3.0 -->
<g id="node76" class="node"><title>USG 3.0</title>
<ellipse style="fill:#b2dfee;stroke:#b2dfee;" cx="644" cy="-450" rx="45.8622" ry="18"/>
<text text-anchor="middle" x="644" y="-445.9" style="font-family:Times New Roman;font-size:14.00;">USG 3.0</text>
</g>
<!-- USG 2.0&#45;&gt;USG 3.0 -->
<g id="edge80" class="edge"><title>USG 2.0&#45;&gt;USG 3.0</title>
<path style="fill:none;stroke:black;" d="M722,-506C708,-496 690,-483 674,-472"/>
<polygon style="fill:black;stroke:black;" points="676.1,-469.2 666,-466 671.9,-474.8 676.1,-469.2"/>
</g>
<!-- CB Unix 3 -->
<g id="node70" class="node"><title>CB Unix 3</title>
<ellipse style="fill:#b2dfee;stroke:#b2dfee;" cx="837" cy="-378" rx="53.0059" ry="18"/>
<text text-anchor="middle" x="837" y="-373.9" style="font-family:Times New Roman;font-size:14.00;">CB Unix 3</text>
</g>
<!-- CB Unix 2&#45;&gt;CB Unix 3 -->
<g id="edge74" class="edge"><title>CB Unix 2&#45;&gt;CB Unix 3</title>
<path style="fill:none;stroke:black;" d="M884,-433C877,-424 867,-413 859,-403"/>
<polygon style="fill:black;stroke:black;" points="861.219,-400.221 852,-395 855.951,-404.831 861.219,-400.221"/>
</g>
<!-- Unix/TS++ -->
<g id="node72" class="node"><title>Unix/TS++</title>
<ellipse style="fill:#b2dfee;stroke:#b2dfee;" cx="809" cy="-306" rx="55.7874" ry="18"/>
<text text-anchor="middle" x="809" y="-301.9" style="font-family:Times New Roman;font-size:14.00;">Unix/TS++</text>
</g>
<!-- CB Unix 3&#45;&gt;Unix/TS++ -->
<g id="edge76" class="edge"><title>CB Unix 3&#45;&gt;Unix/TS++</title>
<path style="fill:none;stroke:black;" d="M830,-360C827,-352 823,-342 820,-334"/>
<polygon style="fill:black;stroke:black;" points="822.964,-331.985 816,-324 816.464,-334.585 822.964,-331.985"/>
</g>
<!-- PDP&#45;11 Sys V -->
<g id="node74" class="node"><title>PDP&#45;11 Sys V</title>
<ellipse style="fill:#b2dfee;stroke:#b2dfee;" cx="949" cy="-306" rx="66.2071" ry="18"/>
<text text-anchor="middle" x="949" y="-301.9" style="font-family:Times New Roman;font-size:14.00;">PDP&#45;11 Sys V</text>
</g>
<!-- CB Unix 3&#45;&gt;PDP&#45;11 Sys V -->
<g id="edge78" class="edge"><title>CB Unix 3&#45;&gt;PDP&#45;11 Sys V</title>
<path style="fill:none;stroke:black;" d="M862,-362C877,-352 898,-339 915,-329"/>
<polygon style="fill:black;stroke:black;" points="917.1,-331.8 923,-323 912.9,-326.2 917.1,-331.8"/>
</g>
<!-- CB Unix 3&#45;&gt;TS 4.0 -->
<g id="edge92" class="edge"><title>CB Unix 3&#45;&gt;TS 4.0</title>
<path style="fill:none;stroke:black;" d="M800,-365C781,-356 758,-343 744,-324 731,-306 727,-281 726,-262"/>
<polygon style="fill:black;stroke:black;" points="729.478,-261.602 725,-252 722.512,-262.299 729.478,-261.602"/>
</g>
<!-- Unix/TS++&#45;&gt;TS 4.0 -->
<g id="edge90" class="edge"><title>Unix/TS++&#45;&gt;TS 4.0</title>
<path style="fill:none;stroke:black;" d="M789,-289C778,-279 763,-267 751,-257"/>
<polygon style="fill:black;stroke:black;" points="753.546,-254.596 744,-250 748.596,-259.546 753.546,-254.596"/>
</g>
<!-- USG 3.0&#45;&gt;Unix/TS 3.0 -->
<g id="edge82" class="edge"><title>USG 3.0&#45;&gt;Unix/TS 3.0</title>
<path style="fill:none;stroke:black;" d="M644,-432C644,-424 644,-415 644,-406"/>
<polygon style="fill:black;stroke:black;" points="647.5,-406 644,-396 640.5,-406 647.5,-406"/>
</g>
<!-- Unix/TS 1.0 -->
<g id="node79" class="node"><title>Unix/TS 1.0</title>
<ellipse style="fill:#b2dfee;stroke:#b2dfee;" cx="768" cy="-450" rx="59.7599" ry="18"/>
<text text-anchor="middle" x="768" y="-445.9" style="font-family:Times New Roman;font-size:14.00;">Unix/TS 1.0</text>
</g>
<!-- Unix/TS 1.0&#45;&gt;Unix/TS 3.0 -->
<g id="edge86" class="edge"><title>Unix/TS 1.0&#45;&gt;Unix/TS 3.0</title>
<path style="fill:none;stroke:black;" d="M740,-434C723,-424 700,-410 681,-399"/>
<polygon style="fill:black;stroke:black;" points="682.441,-395.797 672,-394 679.042,-401.916 682.441,-395.797"/>
</g>
<!-- System V.0 -->
<g id="node86" class="node"><title>System V.0</title>
<ellipse style="fill:#b2dfee;stroke:#b2dfee;" cx="725" cy="-162" rx="55.7874" ry="18"/>
<text text-anchor="middle" x="725" y="-157.9" style="font-family:Times New Roman;font-size:14.00;">System V.0</text>
</g>
<!-- TS 4.0&#45;&gt;System V.0 -->
<g id="edge94" class="edge"><title>TS 4.0&#45;&gt;System V.0</title>
<path style="fill:none;stroke:black;" d="M725,-216C725,-208 725,-199 725,-190"/>
<polygon style="fill:black;stroke:black;" points="728.5,-190 725,-180 721.5,-190 728.5,-190"/>
</g>
<!-- System V.2 -->
<g id="node88" class="node"><title>System V.2</title>
<ellipse style="fill:#b2dfee;stroke:#b2dfee;" cx="725" cy="-90" rx="55.0898" ry="18"/>
<text text-anchor="middle" x="725" y="-85.9" style="font-family:Times New Roman;font-size:14.00;">System V.2</text>
</g>
<!-- System V.0&#45;&gt;System V.2 -->
<g id="edge96" class="edge"><title>System V.0&#45;&gt;System V.2</title>
<path style="fill:none;stroke:black;" d="M725,-144C725,-136 725,-127 725,-118"/>
<polygon style="fill:black;stroke:black;" points="728.5,-118 725,-108 721.5,-118 728.5,-118"/>
</g>
<!-- System V.3 -->
<g id="node90" class="node"><title>System V.3</title>
<ellipse style="fill:#b2dfee;stroke:#b2dfee;" cx="725" cy="-18" rx="55.0898" ry="18"/>
<text text-anchor="middle" x="725" y="-13.9" style="font-family:Times New Roman;font-size:14.00;">System V.3</text>
</g>
<!-- System V.2&#45;&gt;System V.3 -->
<g id="edge98" class="edge"><title>System V.2&#45;&gt;System V.3</title>
<path style="fill:none;stroke:black;" d="M725,-72C725,-64 725,-55 725,-46"/>
<polygon style="fill:black;stroke:black;" points="728.5,-46 725,-36 721.5,-46 728.5,-46"/>
</g>
</g>
</svg>
