<?xml version="1.0" encoding="UTF-8" standalone="no"?>
<!DOCTYPE svg PUBLIC "-//W3C//DTD SVG 1.1//EN"
 "http://www.w3.org/Graphics/SVG/1.1/DTD/svg11.dtd">
<!-- Generated by graphviz version 2.41.20180603.0423 (20180603.0423)
 -->
<!-- Title: grid Pages: 1 -->
<svg width="566pt" height="571pt"
 viewBox="0.00 0.00 566.00 571.00" xmlns="http://www.w3.org/2000/svg" xmlns:xlink="http://www.w3.org/1999/xlink">
<g id="graph0" class="graph" transform="scale(1 1) rotate(0) translate(4 567)">
<title>grid</title>
<polygon fill="white" stroke="transparent" points="-4,4 -4,-567 562,-567 562,4 -4,4"/>
<text text-anchor="middle" x="279" y="-547.8" font-family="Times,serif" font-size="14.00">grid</text>
<!-- A0 -->
<g id="node1" class="node">
<title>A0</title>
<text text-anchor="middle" x="27" y="-518.3" font-family="Times,serif" font-size="14.00">A0</text>
</g>
<!-- B1 -->
<g id="node2" class="node">
<title>B1</title>
<text text-anchor="middle" x="99" y="-446.3" font-family="Times,serif" font-size="14.00">B1</text>
</g>
<!-- A0&#45;&#45;B1 -->
<g id="edge1" class="edge">
<title>A0&#45;&#45;B1</title>
<path fill="none" stroke="black" d="M44.8,-503.7C55.96,-492.85 70.29,-478.92 81.41,-468.1"/>
</g>
<!-- A1 -->
<g id="node17" class="node">
<title>A1</title>
<text text-anchor="middle" x="27" y="-446.3" font-family="Times,serif" font-size="14.00">A1</text>
</g>
<!-- A0&#45;&#45;A1 -->
<g id="edge15" class="edge">
<title>A0&#45;&#45;A1</title>
<path fill="none" stroke="dimgrey" stroke-dasharray="5,2" d="M27,-503.7C27,-492.85 27,-478.92 27,-468.1"/>
</g>
<!-- B0 -->
<g id="node23" class="node">
<title>B0</title>
<text text-anchor="middle" x="99" y="-518.3" font-family="Times,serif" font-size="14.00">B0</text>
</g>
<!-- A0&#45;&#45;B0 -->
<g id="edge71" class="edge">
<title>A0&#45;&#45;B0</title>
<path fill="none" stroke="dimgrey" stroke-dasharray="5,2" d="M54.28,-522C60.1,-522 65.93,-522 71.75,-522"/>
</g>
<!-- C2 -->
<g id="node3" class="node">
<title>C2</title>
<text text-anchor="middle" x="171" y="-374.3" font-family="Times,serif" font-size="14.00">C2</text>
</g>
<!-- B1&#45;&#45;C2 -->
<g id="edge2" class="edge">
<title>B1&#45;&#45;C2</title>
<path fill="none" stroke="black" d="M116.8,-431.7C127.96,-420.85 142.29,-406.92 153.41,-396.1"/>
</g>
<!-- B2 -->
<g id="node24" class="node">
<title>B2</title>
<text text-anchor="middle" x="99" y="-374.3" font-family="Times,serif" font-size="14.00">B2</text>
</g>
<!-- B1&#45;&#45;B2 -->
<g id="edge23" class="edge">
<title>B1&#45;&#45;B2</title>
<path fill="none" stroke="dimgrey" stroke-dasharray="5,2" d="M99,-431.7C99,-420.85 99,-406.92 99,-396.1"/>
</g>
<!-- C1 -->
<g id="node30" class="node">
<title>C1</title>
<text text-anchor="middle" x="171" y="-446.3" font-family="Times,serif" font-size="14.00">C1</text>
</g>
<!-- B1&#45;&#45;C1 -->
<g id="edge79" class="edge">
<title>B1&#45;&#45;C1</title>
<path fill="none" stroke="dimgrey" stroke-dasharray="5,2" d="M126.28,-450C132.1,-450 137.93,-450 143.75,-450"/>
</g>
<!-- D3 -->
<g id="node4" class="node">
<title>D3</title>
<text text-anchor="middle" x="243" y="-302.3" font-family="Times,serif" font-size="14.00">D3</text>
</g>
<!-- C2&#45;&#45;D3 -->
<g id="edge3" class="edge">
<title>C2&#45;&#45;D3</title>
<path fill="none" stroke="black" d="M188.8,-359.7C199.96,-348.85 214.29,-334.92 225.41,-324.1"/>
</g>
<!-- C3 -->
<g id="node31" class="node">
<title>C3</title>
<text text-anchor="middle" x="171" y="-302.3" font-family="Times,serif" font-size="14.00">C3</text>
</g>
<!-- C2&#45;&#45;C3 -->
<g id="edge31" class="edge">
<title>C2&#45;&#45;C3</title>
<path fill="none" stroke="dimgrey" stroke-dasharray="5,2" d="M171,-359.7C171,-348.85 171,-334.92 171,-324.1"/>
</g>
<!-- D2 -->
<g id="node37" class="node">
<title>D2</title>
<text text-anchor="middle" x="243" y="-374.3" font-family="Times,serif" font-size="14.00">D2</text>
</g>
<!-- C2&#45;&#45;D2 -->
<g id="edge87" class="edge">
<title>C2&#45;&#45;D2</title>
<path fill="none" stroke="dimgrey" stroke-dasharray="5,2" d="M198.28,-378C204.1,-378 209.93,-378 215.75,-378"/>
</g>
<!-- E4 -->
<g id="node5" class="node">
<title>E4</title>
<text text-anchor="middle" x="315" y="-230.3" font-family="Times,serif" font-size="14.00">E4</text>
</g>
<!-- D3&#45;&#45;E4 -->
<g id="edge4" class="edge">
<title>D3&#45;&#45;E4</title>
<path fill="none" stroke="black" d="M260.8,-287.7C271.96,-276.85 286.29,-262.92 297.41,-252.1"/>
</g>
<!-- E3 -->
<g id="node12" class="node">
<title>E3</title>
<text text-anchor="middle" x="315" y="-302.3" font-family="Times,serif" font-size="14.00">E3</text>
</g>
<!-- D3&#45;&#45;E3 -->
<g id="edge95" class="edge">
<title>D3&#45;&#45;E3</title>
<path fill="none" stroke="dimgrey" stroke-dasharray="5,2" d="M270.28,-306C276.1,-306 281.93,-306 287.75,-306"/>
</g>
<!-- D4 -->
<g id="node13" class="node">
<title>D4</title>
<text text-anchor="middle" x="243" y="-230.3" font-family="Times,serif" font-size="14.00">D4</text>
</g>
<!-- D3&#45;&#45;D4 -->
<g id="edge39" class="edge">
<title>D3&#45;&#45;D4</title>
<path fill="none" stroke="dimgrey" stroke-dasharray="5,2" d="M243,-287.7C243,-276.85 243,-262.92 243,-252.1"/>
</g>
<!-- F5 -->
<g id="node6" class="node">
<title>F5</title>
<text text-anchor="middle" x="387" y="-158.3" font-family="Times,serif" font-size="14.00">F5</text>
</g>
<!-- E4&#45;&#45;F5 -->
<g id="edge5" class="edge">
<title>E4&#45;&#45;F5</title>
<path fill="none" stroke="black" d="M332.8,-215.7C343.96,-204.85 358.29,-190.92 369.41,-180.1"/>
</g>
<!-- E5 -->
<g id="node44" class="node">
<title>E5</title>
<text text-anchor="middle" x="315" y="-158.3" font-family="Times,serif" font-size="14.00">E5</text>
</g>
<!-- E4&#45;&#45;E5 -->
<g id="edge47" class="edge">
<title>E4&#45;&#45;E5</title>
<path fill="none" stroke="dimgrey" stroke-dasharray="5,2" d="M315,-215.7C315,-204.85 315,-190.92 315,-180.1"/>
</g>
<!-- F4 -->
<g id="node50" class="node">
<title>F4</title>
<text text-anchor="middle" x="387" y="-230.3" font-family="Times,serif" font-size="14.00">F4</text>
</g>
<!-- E4&#45;&#45;F4 -->
<g id="edge103" class="edge">
<title>E4&#45;&#45;F4</title>
<path fill="none" stroke="dimgrey" stroke-dasharray="5,2" d="M342.28,-234C348.1,-234 353.93,-234 359.75,-234"/>
</g>
<!-- G6 -->
<g id="node7" class="node">
<title>G6</title>
<text text-anchor="middle" x="459" y="-86.3" font-family="Times,serif" font-size="14.00">G6</text>
</g>
<!-- F5&#45;&#45;G6 -->
<g id="edge6" class="edge">
<title>F5&#45;&#45;G6</title>
<path fill="none" stroke="black" d="M404.8,-143.7C415.96,-132.85 430.29,-118.92 441.41,-108.1"/>
</g>
<!-- F6 -->
<g id="node51" class="node">
<title>F6</title>
<text text-anchor="middle" x="387" y="-86.3" font-family="Times,serif" font-size="14.00">F6</text>
</g>
<!-- F5&#45;&#45;F6 -->
<g id="edge55" class="edge">
<title>F5&#45;&#45;F6</title>
<path fill="none" stroke="dimgrey" stroke-dasharray="5,2" d="M387,-143.7C387,-132.85 387,-118.92 387,-108.1"/>
</g>
<!-- G5 -->
<g id="node57" class="node">
<title>G5</title>
<text text-anchor="middle" x="459" y="-158.3" font-family="Times,serif" font-size="14.00">G5</text>
</g>
<!-- F5&#45;&#45;G5 -->
<g id="edge111" class="edge">
<title>F5&#45;&#45;G5</title>
<path fill="none" stroke="dimgrey" stroke-dasharray="5,2" d="M414.28,-162C420.1,-162 425.93,-162 431.75,-162"/>
</g>
<!-- H7 -->
<g id="node8" class="node">
<title>H7</title>
<text text-anchor="middle" x="531" y="-14.3" font-family="Times,serif" font-size="14.00">H7</text>
</g>
<!-- G6&#45;&#45;H7 -->
<g id="edge7" class="edge">
<title>G6&#45;&#45;H7</title>
<path fill="none" stroke="black" d="M476.8,-71.7C487.96,-60.85 502.29,-46.92 513.41,-36.1"/>
</g>
<!-- G7 -->
<g id="node58" class="node">
<title>G7</title>
<text text-anchor="middle" x="459" y="-14.3" font-family="Times,serif" font-size="14.00">G7</text>
</g>
<!-- G6&#45;&#45;G7 -->
<g id="edge63" class="edge">
<title>G6&#45;&#45;G7</title>
<path fill="none" stroke="dimgrey" stroke-dasharray="5,2" d="M459,-71.7C459,-60.85 459,-46.92 459,-36.1"/>
</g>
<!-- H6 -->
<g id="node64" class="node">
<title>H6</title>
<text text-anchor="middle" x="531" y="-86.3" font-family="Times,serif" font-size="14.00">H6</text>
</g>
<!-- G6&#45;&#45;H6 -->
<g id="edge119" class="edge">
<title>G6&#45;&#45;H6</title>
<path fill="none" stroke="dimgrey" stroke-dasharray="5,2" d="M486.28,-90C492.1,-90 497.93,-90 503.75,-90"/>
</g>
<!-- H0 -->
<g id="node9" class="node">
<title>H0</title>
<text text-anchor="middle" x="531" y="-518.3" font-family="Times,serif" font-size="14.00">H0</text>
</g>
<!-- G1 -->
<g id="node10" class="node">
<title>G1</title>
<text text-anchor="middle" x="459" y="-446.3" font-family="Times,serif" font-size="14.00">G1</text>
</g>
<!-- H0&#45;&#45;G1 -->
<g id="edge8" class="edge">
<title>H0&#45;&#45;G1</title>
<path fill="none" stroke="black" d="M513.2,-503.7C502.04,-492.85 487.71,-478.92 476.59,-468.1"/>
</g>
<!-- H1 -->
<g id="node59" class="node">
<title>H1</title>
<text text-anchor="middle" x="531" y="-446.3" font-family="Times,serif" font-size="14.00">H1</text>
</g>
<!-- H0&#45;&#45;H1 -->
<g id="edge64" class="edge">
<title>H0&#45;&#45;H1</title>
<path fill="none" stroke="dimgrey" stroke-dasharray="5,2" d="M531,-503.7C531,-492.85 531,-478.92 531,-468.1"/>
</g>
<!-- F2 -->
<g id="node11" class="node">
<title>F2</title>
<text text-anchor="middle" x="387" y="-374.3" font-family="Times,serif" font-size="14.00">F2</text>
</g>
<!-- G1&#45;&#45;F2 -->
<g id="edge9" class="edge">
<title>G1&#45;&#45;F2</title>
<path fill="none" stroke="black" d="M441.2,-431.7C430.04,-420.85 415.71,-406.92 404.59,-396.1"/>
</g>
<!-- G2 -->
<g id="node54" class="node">
<title>G2</title>
<text text-anchor="middle" x="459" y="-374.3" font-family="Times,serif" font-size="14.00">G2</text>
</g>
<!-- G1&#45;&#45;G2 -->
<g id="edge58" class="edge">
<title>G1&#45;&#45;G2</title>
<path fill="none" stroke="dimgrey" stroke-dasharray="5,2" d="M459,-431.7C459,-420.85 459,-406.92 459,-396.1"/>
</g>
<!-- G1&#45;&#45;H1 -->
<g id="edge84" class="edge">
<title>G1&#45;&#45;H1</title>
<path fill="none" stroke="dimgrey" stroke-dasharray="5,2" d="M486.28,-450C492.1,-450 497.93,-450 503.75,-450"/>
</g>
<!-- F2&#45;&#45;E3 -->
<g id="edge10" class="edge">
<title>F2&#45;&#45;E3</title>
<path fill="none" stroke="black" d="M369.2,-359.7C358.04,-348.85 343.71,-334.92 332.59,-324.1"/>
</g>
<!-- F3 -->
<g id="node49" class="node">
<title>F3</title>
<text text-anchor="middle" x="387" y="-302.3" font-family="Times,serif" font-size="14.00">F3</text>
</g>
<!-- F2&#45;&#45;F3 -->
<g id="edge52" class="edge">
<title>F2&#45;&#45;F3</title>
<path fill="none" stroke="dimgrey" stroke-dasharray="5,2" d="M387,-359.7C387,-348.85 387,-334.92 387,-324.1"/>
</g>
<!-- F2&#45;&#45;G2 -->
<g id="edge90" class="edge">
<title>F2&#45;&#45;G2</title>
<path fill="none" stroke="dimgrey" stroke-dasharray="5,2" d="M414.28,-378C420.1,-378 425.93,-378 431.75,-378"/>
</g>
<!-- E3&#45;&#45;E4 -->
<g id="edge46" class="edge">
<title>E3&#45;&#45;E4</title>
<path fill="none" stroke="dimgrey" stroke-dasharray="5,2" d="M315,-287.7C315,-276.85 315,-262.92 315,-252.1"/>
</g>
<!-- E3&#45;&#45;D4 -->
<g id="edge11" class="edge">
<title>E3&#45;&#45;D4</title>
<path fill="none" stroke="black" d="M297.2,-287.7C286.04,-276.85 271.71,-262.92 260.59,-252.1"/>
</g>
<!-- E3&#45;&#45;F3 -->
<g id="edge96" class="edge">
<title>E3&#45;&#45;F3</title>
<path fill="none" stroke="dimgrey" stroke-dasharray="5,2" d="M342.28,-306C348.1,-306 353.93,-306 359.75,-306"/>
</g>
<!-- D4&#45;&#45;E4 -->
<g id="edge102" class="edge">
<title>D4&#45;&#45;E4</title>
<path fill="none" stroke="dimgrey" stroke-dasharray="5,2" d="M270.28,-234C276.1,-234 281.93,-234 287.75,-234"/>
</g>
<!-- C5 -->
<g id="node14" class="node">
<title>C5</title>
<text text-anchor="middle" x="171" y="-158.3" font-family="Times,serif" font-size="14.00">C5</text>
</g>
<!-- D4&#45;&#45;C5 -->
<g id="edge12" class="edge">
<title>D4&#45;&#45;C5</title>
<path fill="none" stroke="black" d="M225.2,-215.7C214.04,-204.85 199.71,-190.92 188.59,-180.1"/>
</g>
<!-- D5 -->
<g id="node38" class="node">
<title>D5</title>
<text text-anchor="middle" x="243" y="-158.3" font-family="Times,serif" font-size="14.00">D5</text>
</g>
<!-- D4&#45;&#45;D5 -->
<g id="edge40" class="edge">
<title>D4&#45;&#45;D5</title>
<path fill="none" stroke="dimgrey" stroke-dasharray="5,2" d="M243,-215.7C243,-204.85 243,-190.92 243,-180.1"/>
</g>
<!-- B6 -->
<g id="node15" class="node">
<title>B6</title>
<text text-anchor="middle" x="99" y="-86.3" font-family="Times,serif" font-size="14.00">B6</text>
</g>
<!-- C5&#45;&#45;B6 -->
<g id="edge13" class="edge">
<title>C5&#45;&#45;B6</title>
<path fill="none" stroke="black" d="M153.2,-143.7C142.04,-132.85 127.71,-118.92 116.59,-108.1"/>
</g>
<!-- C6 -->
<g id="node33" class="node">
<title>C6</title>
<text text-anchor="middle" x="171" y="-86.3" font-family="Times,serif" font-size="14.00">C6</text>
</g>
<!-- C5&#45;&#45;C6 -->
<g id="edge34" class="edge">
<title>C5&#45;&#45;C6</title>
<path fill="none" stroke="dimgrey" stroke-dasharray="5,2" d="M171,-143.7C171,-132.85 171,-118.92 171,-108.1"/>
</g>
<!-- C5&#45;&#45;D5 -->
<g id="edge108" class="edge">
<title>C5&#45;&#45;D5</title>
<path fill="none" stroke="dimgrey" stroke-dasharray="5,2" d="M198.28,-162C204.1,-162 209.93,-162 215.75,-162"/>
</g>
<!-- A7 -->
<g id="node16" class="node">
<title>A7</title>
<text text-anchor="middle" x="27" y="-14.3" font-family="Times,serif" font-size="14.00">A7</text>
</g>
<!-- B6&#45;&#45;A7 -->
<g id="edge14" class="edge">
<title>B6&#45;&#45;A7</title>
<path fill="none" stroke="black" d="M81.2,-71.7C70.04,-60.85 55.71,-46.92 44.59,-36.1"/>
</g>
<!-- B7 -->
<g id="node28" class="node">
<title>B7</title>
<text text-anchor="middle" x="99" y="-14.3" font-family="Times,serif" font-size="14.00">B7</text>
</g>
<!-- B6&#45;&#45;B7 -->
<g id="edge28" class="edge">
<title>B6&#45;&#45;B7</title>
<path fill="none" stroke="dimgrey" stroke-dasharray="5,2" d="M99,-71.7C99,-60.85 99,-46.92 99,-36.1"/>
</g>
<!-- B6&#45;&#45;C6 -->
<g id="edge114" class="edge">
<title>B6&#45;&#45;C6</title>
<path fill="none" stroke="dimgrey" stroke-dasharray="5,2" d="M126.28,-90C132.1,-90 137.93,-90 143.75,-90"/>
</g>
<!-- A7&#45;&#45;B7 -->
<g id="edge120" class="edge">
<title>A7&#45;&#45;B7</title>
<path fill="none" stroke="dimgrey" stroke-dasharray="5,2" d="M54.28,-18C60.1,-18 65.93,-18 71.75,-18"/>
</g>
<!-- A1&#45;&#45;B1 -->
<g id="edge78" class="edge">
<title>A1&#45;&#45;B1</title>
<path fill="none" stroke="dimgrey" stroke-dasharray="5,2" d="M54.28,-450C60.1,-450 65.93,-450 71.75,-450"/>
</g>
<!-- A2 -->
<g id="node18" class="node">
<title>A2</title>
<text text-anchor="middle" x="27" y="-374.3" font-family="Times,serif" font-size="14.00">A2</text>
</g>
<!-- A1&#45;&#45;A2 -->
<g id="edge16" class="edge">
<title>A1&#45;&#45;A2</title>
<path fill="none" stroke="dimgrey" stroke-dasharray="5,2" d="M27,-431.7C27,-420.85 27,-406.92 27,-396.1"/>
</g>
<!-- A3 -->
<g id="node19" class="node">
<title>A3</title>
<text text-anchor="middle" x="27" y="-302.3" font-family="Times,serif" font-size="14.00">A3</text>
</g>
<!-- A2&#45;&#45;A3 -->
<g id="edge17" class="edge">
<title>A2&#45;&#45;A3</title>
<path fill="none" stroke="dimgrey" stroke-dasharray="5,2" d="M27,-359.7C27,-348.85 27,-334.92 27,-324.1"/>
</g>
<!-- A2&#45;&#45;B2 -->
<g id="edge85" class="edge">
<title>A2&#45;&#45;B2</title>
<path fill="none" stroke="dimgrey" stroke-dasharray="5,2" d="M54.28,-378C60.1,-378 65.93,-378 71.75,-378"/>
</g>
<!-- A4 -->
<g id="node20" class="node">
<title>A4</title>
<text text-anchor="middle" x="27" y="-230.3" font-family="Times,serif" font-size="14.00">A4</text>
</g>
<!-- A3&#45;&#45;A4 -->
<g id="edge18" class="edge">
<title>A3&#45;&#45;A4</title>
<path fill="none" stroke="dimgrey" stroke-dasharray="5,2" d="M27,-287.7C27,-276.85 27,-262.92 27,-252.1"/>
</g>
<!-- B3 -->
<g id="node25" class="node">
<title>B3</title>
<text text-anchor="middle" x="99" y="-302.3" font-family="Times,serif" font-size="14.00">B3</text>
</g>
<!-- A3&#45;&#45;B3 -->
<g id="edge92" class="edge">
<title>A3&#45;&#45;B3</title>
<path fill="none" stroke="dimgrey" stroke-dasharray="5,2" d="M54.28,-306C60.1,-306 65.93,-306 71.75,-306"/>
</g>
<!-- A5 -->
<g id="node21" class="node">
<title>A5</title>
<text text-anchor="middle" x="27" y="-158.3" font-family="Times,serif" font-size="14.00">A5</text>
</g>
<!-- A4&#45;&#45;A5 -->
<g id="edge19" class="edge">
<title>A4&#45;&#45;A5</title>
<path fill="none" stroke="dimgrey" stroke-dasharray="5,2" d="M27,-215.7C27,-204.85 27,-190.92 27,-180.1"/>
</g>
<!-- B4 -->
<g id="node26" class="node">
<title>B4</title>
<text text-anchor="middle" x="99" y="-230.3" font-family="Times,serif" font-size="14.00">B4</text>
</g>
<!-- A4&#45;&#45;B4 -->
<g id="edge99" class="edge">
<title>A4&#45;&#45;B4</title>
<path fill="none" stroke="dimgrey" stroke-dasharray="5,2" d="M54.28,-234C60.1,-234 65.93,-234 71.75,-234"/>
</g>
<!-- A6 -->
<g id="node22" class="node">
<title>A6</title>
<text text-anchor="middle" x="27" y="-86.3" font-family="Times,serif" font-size="14.00">A6</text>
</g>
<!-- A5&#45;&#45;A6 -->
<g id="edge20" class="edge">
<title>A5&#45;&#45;A6</title>
<path fill="none" stroke="dimgrey" stroke-dasharray="5,2" d="M27,-143.7C27,-132.85 27,-118.92 27,-108.1"/>
</g>
<!-- B5 -->
<g id="node27" class="node">
<title>B5</title>
<text text-anchor="middle" x="99" y="-158.3" font-family="Times,serif" font-size="14.00">B5</text>
</g>
<!-- A5&#45;&#45;B5 -->
<g id="edge106" class="edge">
<title>A5&#45;&#45;B5</title>
<path fill="none" stroke="dimgrey" stroke-dasharray="5,2" d="M54.28,-162C60.1,-162 65.93,-162 71.75,-162"/>
</g>
<!-- A6&#45;&#45;B6 -->
<g id="edge113" class="edge">
<title>A6&#45;&#45;B6</title>
<path fill="none" stroke="dimgrey" stroke-dasharray="5,2" d="M54.28,-90C60.1,-90 65.93,-90 71.75,-90"/>
</g>
<!-- A6&#45;&#45;A7 -->
<g id="edge21" class="edge">
<title>A6&#45;&#45;A7</title>
<path fill="none" stroke="dimgrey" stroke-dasharray="5,2" d="M27,-71.7C27,-60.85 27,-46.92 27,-36.1"/>
</g>
<!-- B0&#45;&#45;B1 -->
<g id="edge22" class="edge">
<title>B0&#45;&#45;B1</title>
<path fill="none" stroke="dimgrey" stroke-dasharray="5,2" d="M99,-503.7C99,-492.85 99,-478.92 99,-468.1"/>
</g>
<!-- C0 -->
<g id="node29" class="node">
<title>C0</title>
<text text-anchor="middle" x="171" y="-518.3" font-family="Times,serif" font-size="14.00">C0</text>
</g>
<!-- B0&#45;&#45;C0 -->
<g id="edge72" class="edge">
<title>B0&#45;&#45;C0</title>
<path fill="none" stroke="dimgrey" stroke-dasharray="5,2" d="M126.28,-522C132.1,-522 137.93,-522 143.75,-522"/>
</g>
<!-- B2&#45;&#45;C2 -->
<g id="edge86" class="edge">
<title>B2&#45;&#45;C2</title>
<path fill="none" stroke="dimgrey" stroke-dasharray="5,2" d="M126.28,-378C132.1,-378 137.93,-378 143.75,-378"/>
</g>
<!-- B2&#45;&#45;B3 -->
<g id="edge24" class="edge">
<title>B2&#45;&#45;B3</title>
<path fill="none" stroke="dimgrey" stroke-dasharray="5,2" d="M99,-359.7C99,-348.85 99,-334.92 99,-324.1"/>
</g>
<!-- B3&#45;&#45;B4 -->
<g id="edge25" class="edge">
<title>B3&#45;&#45;B4</title>
<path fill="none" stroke="dimgrey" stroke-dasharray="5,2" d="M99,-287.7C99,-276.85 99,-262.92 99,-252.1"/>
</g>
<!-- B3&#45;&#45;C3 -->
<g id="edge93" class="edge">
<title>B3&#45;&#45;C3</title>
<path fill="none" stroke="dimgrey" stroke-dasharray="5,2" d="M126.28,-306C132.1,-306 137.93,-306 143.75,-306"/>
</g>
<!-- B4&#45;&#45;B5 -->
<g id="edge26" class="edge">
<title>B4&#45;&#45;B5</title>
<path fill="none" stroke="dimgrey" stroke-dasharray="5,2" d="M99,-215.7C99,-204.85 99,-190.92 99,-180.1"/>
</g>
<!-- C4 -->
<g id="node32" class="node">
<title>C4</title>
<text text-anchor="middle" x="171" y="-230.3" font-family="Times,serif" font-size="14.00">C4</text>
</g>
<!-- B4&#45;&#45;C4 -->
<g id="edge100" class="edge">
<title>B4&#45;&#45;C4</title>
<path fill="none" stroke="dimgrey" stroke-dasharray="5,2" d="M126.28,-234C132.1,-234 137.93,-234 143.75,-234"/>
</g>
<!-- B5&#45;&#45;C5 -->
<g id="edge107" class="edge">
<title>B5&#45;&#45;C5</title>
<path fill="none" stroke="dimgrey" stroke-dasharray="5,2" d="M126.28,-162C132.1,-162 137.93,-162 143.75,-162"/>
</g>
<!-- B5&#45;&#45;B6 -->
<g id="edge27" class="edge">
<title>B5&#45;&#45;B6</title>
<path fill="none" stroke="dimgrey" stroke-dasharray="5,2" d="M99,-143.7C99,-132.85 99,-118.92 99,-108.1"/>
</g>
<!-- C7 -->
<g id="node34" class="node">
<title>C7</title>
<text text-anchor="middle" x="171" y="-14.3" font-family="Times,serif" font-size="14.00">C7</text>
</g>
<!-- B7&#45;&#45;C7 -->
<g id="edge121" class="edge">
<title>B7&#45;&#45;C7</title>
<path fill="none" stroke="dimgrey" stroke-dasharray="5,2" d="M126.28,-18C132.1,-18 137.93,-18 143.75,-18"/>
</g>
<!-- C0&#45;&#45;C1 -->
<g id="edge29" class="edge">
<title>C0&#45;&#45;C1</title>
<path fill="none" stroke="dimgrey" stroke-dasharray="5,2" d="M171,-503.7C171,-492.85 171,-478.92 171,-468.1"/>
</g>
<!-- D0 -->
<g id="node35" class="node">
<title>D0</title>
<text text-anchor="middle" x="243" y="-518.3" font-family="Times,serif" font-size="14.00">D0</text>
</g>
<!-- C0&#45;&#45;D0 -->
<g id="edge73" class="edge">
<title>C0&#45;&#45;D0</title>
<path fill="none" stroke="dimgrey" stroke-dasharray="5,2" d="M198.28,-522C204.1,-522 209.93,-522 215.75,-522"/>
</g>
<!-- C1&#45;&#45;C2 -->
<g id="edge30" class="edge">
<title>C1&#45;&#45;C2</title>
<path fill="none" stroke="dimgrey" stroke-dasharray="5,2" d="M171,-431.7C171,-420.85 171,-406.92 171,-396.1"/>
</g>
<!-- D1 -->
<g id="node36" class="node">
<title>D1</title>
<text text-anchor="middle" x="243" y="-446.3" font-family="Times,serif" font-size="14.00">D1</text>
</g>
<!-- C1&#45;&#45;D1 -->
<g id="edge80" class="edge">
<title>C1&#45;&#45;D1</title>
<path fill="none" stroke="dimgrey" stroke-dasharray="5,2" d="M198.28,-450C204.1,-450 209.93,-450 215.75,-450"/>
</g>
<!-- C3&#45;&#45;D3 -->
<g id="edge94" class="edge">
<title>C3&#45;&#45;D3</title>
<path fill="none" stroke="dimgrey" stroke-dasharray="5,2" d="M198.28,-306C204.1,-306 209.93,-306 215.75,-306"/>
</g>
<!-- C3&#45;&#45;C4 -->
<g id="edge32" class="edge">
<title>C3&#45;&#45;C4</title>
<path fill="none" stroke="dimgrey" stroke-dasharray="5,2" d="M171,-287.7C171,-276.85 171,-262.92 171,-252.1"/>
</g>
<!-- C4&#45;&#45;D4 -->
<g id="edge101" class="edge">
<title>C4&#45;&#45;D4</title>
<path fill="none" stroke="dimgrey" stroke-dasharray="5,2" d="M198.28,-234C204.1,-234 209.93,-234 215.75,-234"/>
</g>
<!-- C4&#45;&#45;C5 -->
<g id="edge33" class="edge">
<title>C4&#45;&#45;C5</title>
<path fill="none" stroke="dimgrey" stroke-dasharray="5,2" d="M171,-215.7C171,-204.85 171,-190.92 171,-180.1"/>
</g>
<!-- C6&#45;&#45;C7 -->
<g id="edge35" class="edge">
<title>C6&#45;&#45;C7</title>
<path fill="none" stroke="dimgrey" stroke-dasharray="5,2" d="M171,-71.7C171,-60.85 171,-46.92 171,-36.1"/>
</g>
<!-- D6 -->
<g id="node39" class="node">
<title>D6</title>
<text text-anchor="middle" x="243" y="-86.3" font-family="Times,serif" font-size="14.00">D6</text>
</g>
<!-- C6&#45;&#45;D6 -->
<g id="edge115" class="edge">
<title>C6&#45;&#45;D6</title>
<path fill="none" stroke="dimgrey" stroke-dasharray="5,2" d="M198.28,-90C204.1,-90 209.93,-90 215.75,-90"/>
</g>
<!-- D7 -->
<g id="node40" class="node">
<title>D7</title>
<text text-anchor="middle" x="243" y="-14.3" font-family="Times,serif" font-size="14.00">D7</text>
</g>
<!-- C7&#45;&#45;D7 -->
<g id="edge122" class="edge">
<title>C7&#45;&#45;D7</title>
<path fill="none" stroke="dimgrey" stroke-dasharray="5,2" d="M198.28,-18C204.1,-18 209.93,-18 215.75,-18"/>
</g>
<!-- D0&#45;&#45;D1 -->
<g id="edge36" class="edge">
<title>D0&#45;&#45;D1</title>
<path fill="none" stroke="dimgrey" stroke-dasharray="5,2" d="M243,-503.7C243,-492.85 243,-478.92 243,-468.1"/>
</g>
<!-- E0 -->
<g id="node41" class="node">
<title>E0</title>
<text text-anchor="middle" x="315" y="-518.3" font-family="Times,serif" font-size="14.00">E0</text>
</g>
<!-- D0&#45;&#45;E0 -->
<g id="edge74" class="edge">
<title>D0&#45;&#45;E0</title>
<path fill="none" stroke="dimgrey" stroke-dasharray="5,2" d="M270.28,-522C276.1,-522 281.93,-522 287.75,-522"/>
</g>
<!-- D1&#45;&#45;D2 -->
<g id="edge37" class="edge">
<title>D1&#45;&#45;D2</title>
<path fill="none" stroke="dimgrey" stroke-dasharray="5,2" d="M243,-431.7C243,-420.85 243,-406.92 243,-396.1"/>
</g>
<!-- E1 -->
<g id="node42" class="node">
<title>E1</title>
<text text-anchor="middle" x="315" y="-446.3" font-family="Times,serif" font-size="14.00">E1</text>
</g>
<!-- D1&#45;&#45;E1 -->
<g id="edge81" class="edge">
<title>D1&#45;&#45;E1</title>
<path fill="none" stroke="dimgrey" stroke-dasharray="5,2" d="M270.28,-450C276.1,-450 281.93,-450 287.75,-450"/>
</g>
<!-- D2&#45;&#45;D3 -->
<g id="edge38" class="edge">
<title>D2&#45;&#45;D3</title>
<path fill="none" stroke="dimgrey" stroke-dasharray="5,2" d="M243,-359.7C243,-348.85 243,-334.92 243,-324.1"/>
</g>
<!-- E2 -->
<g id="node43" class="node">
<title>E2</title>
<text text-anchor="middle" x="315" y="-374.3" font-family="Times,serif" font-size="14.00">E2</text>
</g>
<!-- D2&#45;&#45;E2 -->
<g id="edge88" class="edge">
<title>D2&#45;&#45;E2</title>
<path fill="none" stroke="dimgrey" stroke-dasharray="5,2" d="M270.28,-378C276.1,-378 281.93,-378 287.75,-378"/>
</g>
<!-- D5&#45;&#45;D6 -->
<g id="edge41" class="edge">
<title>D5&#45;&#45;D6</title>
<path fill="none" stroke="dimgrey" stroke-dasharray="5,2" d="M243,-143.7C243,-132.85 243,-118.92 243,-108.1"/>
</g>
<!-- D5&#45;&#45;E5 -->
<g id="edge109" class="edge">
<title>D5&#45;&#45;E5</title>
<path fill="none" stroke="dimgrey" stroke-dasharray="5,2" d="M270.28,-162C276.1,-162 281.93,-162 287.75,-162"/>
</g>
<!-- D6&#45;&#45;D7 -->
<g id="edge42" class="edge">
<title>D6&#45;&#45;D7</title>
<path fill="none" stroke="dimgrey" stroke-dasharray="5,2" d="M243,-71.7C243,-60.85 243,-46.92 243,-36.1"/>
</g>
<!-- E6 -->
<g id="node45" class="node">
<title>E6</title>
<text text-anchor="middle" x="315" y="-86.3" font-family="Times,serif" font-size="14.00">E6</text>
</g>
<!-- D6&#45;&#45;E6 -->
<g id="edge116" class="edge">
<title>D6&#45;&#45;E6</title>
<path fill="none" stroke="dimgrey" stroke-dasharray="5,2" d="M270.28,-90C276.1,-90 281.93,-90 287.75,-90"/>
</g>
<!-- E7 -->
<g id="node46" class="node">
<title>E7</title>
<text text-anchor="middle" x="315" y="-14.3" font-family="Times,serif" font-size="14.00">E7</text>
</g>
<!-- D7&#45;&#45;E7 -->
<g id="edge123" class="edge">
<title>D7&#45;&#45;E7</title>
<path fill="none" stroke="dimgrey" stroke-dasharray="5,2" d="M270.28,-18C276.1,-18 281.93,-18 287.75,-18"/>
</g>
<!-- E0&#45;&#45;E1 -->
<g id="edge43" class="edge">
<title>E0&#45;&#45;E1</title>
<path fill="none" stroke="dimgrey" stroke-dasharray="5,2" d="M315,-503.7C315,-492.85 315,-478.92 315,-468.1"/>
</g>
<!-- F0 -->
<g id="node47" class="node">
<title>F0</title>
<text text-anchor="middle" x="387" y="-518.3" font-family="Times,serif" font-size="14.00">F0</text>
</g>
<!-- E0&#45;&#45;F0 -->
<g id="edge75" class="edge">
<title>E0&#45;&#45;F0</title>
<path fill="none" stroke="dimgrey" stroke-dasharray="5,2" d="M342.28,-522C348.1,-522 353.93,-522 359.75,-522"/>
</g>
<!-- E1&#45;&#45;E2 -->
<g id="edge44" class="edge">
<title>E1&#45;&#45;E2</title>
<path fill="none" stroke="dimgrey" stroke-dasharray="5,2" d="M315,-431.7C315,-420.85 315,-406.92 315,-396.1"/>
</g>
<!-- F1 -->
<g id="node48" class="node">
<title>F1</title>
<text text-anchor="middle" x="387" y="-446.3" font-family="Times,serif" font-size="14.00">F1</text>
</g>
<!-- E1&#45;&#45;F1 -->
<g id="edge82" class="edge">
<title>E1&#45;&#45;F1</title>
<path fill="none" stroke="dimgrey" stroke-dasharray="5,2" d="M342.28,-450C348.1,-450 353.93,-450 359.75,-450"/>
</g>
<!-- E2&#45;&#45;F2 -->
<g id="edge89" class="edge">
<title>E2&#45;&#45;F2</title>
<path fill="none" stroke="dimgrey" stroke-dasharray="5,2" d="M342.28,-378C348.1,-378 353.93,-378 359.75,-378"/>
</g>
<!-- E2&#45;&#45;E3 -->
<g id="edge45" class="edge">
<title>E2&#45;&#45;E3</title>
<path fill="none" stroke="dimgrey" stroke-dasharray="5,2" d="M315,-359.7C315,-348.85 315,-334.92 315,-324.1"/>
</g>
<!-- E5&#45;&#45;F5 -->
<g id="edge110" class="edge">
<title>E5&#45;&#45;F5</title>
<path fill="none" stroke="dimgrey" stroke-dasharray="5,2" d="M342.28,-162C348.1,-162 353.93,-162 359.75,-162"/>
</g>
<!-- E5&#45;&#45;E6 -->
<g id="edge48" class="edge">
<title>E5&#45;&#45;E6</title>
<path fill="none" stroke="dimgrey" stroke-dasharray="5,2" d="M315,-143.7C315,-132.85 315,-118.92 315,-108.1"/>
</g>
<!-- E6&#45;&#45;E7 -->
<g id="edge49" class="edge">
<title>E6&#45;&#45;E7</title>
<path fill="none" stroke="dimgrey" stroke-dasharray="5,2" d="M315,-71.7C315,-60.85 315,-46.92 315,-36.1"/>
</g>
<!-- E6&#45;&#45;F6 -->
<g id="edge117" class="edge">
<title>E6&#45;&#45;F6</title>
<path fill="none" stroke="dimgrey" stroke-dasharray="5,2" d="M342.28,-90C348.1,-90 353.93,-90 359.75,-90"/>
</g>
<!-- F7 -->
<g id="node52" class="node">
<title>F7</title>
<text text-anchor="middle" x="387" y="-14.3" font-family="Times,serif" font-size="14.00">F7</text>
</g>
<!-- E7&#45;&#45;F7 -->
<g id="edge124" class="edge">
<title>E7&#45;&#45;F7</title>
<path fill="none" stroke="dimgrey" stroke-dasharray="5,2" d="M342.28,-18C348.1,-18 353.93,-18 359.75,-18"/>
</g>
<!-- F0&#45;&#45;F1 -->
<g id="edge50" class="edge">
<title>F0&#45;&#45;F1</title>
<path fill="none" stroke="dimgrey" stroke-dasharray="5,2" d="M387,-503.7C387,-492.85 387,-478.92 387,-468.1"/>
</g>
<!-- G0 -->
<g id="node53" class="node">
<title>G0</title>
<text text-anchor="middle" x="459" y="-518.3" font-family="Times,serif" font-size="14.00">G0</text>
</g>
<!-- F0&#45;&#45;G0 -->
<g id="edge76" class="edge">
<title>F0&#45;&#45;G0</title>
<path fill="none" stroke="dimgrey" stroke-dasharray="5,2" d="M414.28,-522C420.1,-522 425.93,-522 431.75,-522"/>
</g>
<!-- F1&#45;&#45;G1 -->
<g id="edge83" class="edge">
<title>F1&#45;&#45;G1</title>
<path fill="none" stroke="dimgrey" stroke-dasharray="5,2" d="M414.28,-450C420.1,-450 425.93,-450 431.75,-450"/>
</g>
<!-- F1&#45;&#45;F2 -->
<g id="edge51" class="edge">
<title>F1&#45;&#45;F2</title>
<path fill="none" stroke="dimgrey" stroke-dasharray="5,2" d="M387,-431.7C387,-420.85 387,-406.92 387,-396.1"/>
</g>
<!-- F3&#45;&#45;F4 -->
<g id="edge53" class="edge">
<title>F3&#45;&#45;F4</title>
<path fill="none" stroke="dimgrey" stroke-dasharray="5,2" d="M387,-287.7C387,-276.85 387,-262.92 387,-252.1"/>
</g>
<!-- G3 -->
<g id="node55" class="node">
<title>G3</title>
<text text-anchor="middle" x="459" y="-302.3" font-family="Times,serif" font-size="14.00">G3</text>
</g>
<!-- F3&#45;&#45;G3 -->
<g id="edge97" class="edge">
<title>F3&#45;&#45;G3</title>
<path fill="none" stroke="dimgrey" stroke-dasharray="5,2" d="M414.28,-306C420.1,-306 425.93,-306 431.75,-306"/>
</g>
<!-- F4&#45;&#45;F5 -->
<g id="edge54" class="edge">
<title>F4&#45;&#45;F5</title>
<path fill="none" stroke="dimgrey" stroke-dasharray="5,2" d="M387,-215.7C387,-204.85 387,-190.92 387,-180.1"/>
</g>
<!-- G4 -->
<g id="node56" class="node">
<title>G4</title>
<text text-anchor="middle" x="459" y="-230.3" font-family="Times,serif" font-size="14.00">G4</text>
</g>
<!-- F4&#45;&#45;G4 -->
<g id="edge104" class="edge">
<title>F4&#45;&#45;G4</title>
<path fill="none" stroke="dimgrey" stroke-dasharray="5,2" d="M414.28,-234C420.1,-234 425.93,-234 431.75,-234"/>
</g>
<!-- F6&#45;&#45;G6 -->
<g id="edge118" class="edge">
<title>F6&#45;&#45;G6</title>
<path fill="none" stroke="dimgrey" stroke-dasharray="5,2" d="M414.28,-90C420.1,-90 425.93,-90 431.75,-90"/>
</g>
<!-- F6&#45;&#45;F7 -->
<g id="edge56" class="edge">
<title>F6&#45;&#45;F7</title>
<path fill="none" stroke="dimgrey" stroke-dasharray="5,2" d="M387,-71.7C387,-60.85 387,-46.92 387,-36.1"/>
</g>
<!-- F7&#45;&#45;G7 -->
<g id="edge125" class="edge">
<title>F7&#45;&#45;G7</title>
<path fill="none" stroke="dimgrey" stroke-dasharray="5,2" d="M414.28,-18C420.1,-18 425.93,-18 431.75,-18"/>
</g>
<!-- G0&#45;&#45;H0 -->
<g id="edge77" class="edge">
<title>G0&#45;&#45;H0</title>
<path fill="none" stroke="dimgrey" stroke-dasharray="5,2" d="M486.28,-522C492.1,-522 497.93,-522 503.75,-522"/>
</g>
<!-- G0&#45;&#45;G1 -->
<g id="edge57" class="edge">
<title>G0&#45;&#45;G1</title>
<path fill="none" stroke="dimgrey" stroke-dasharray="5,2" d="M459,-503.7C459,-492.85 459,-478.92 459,-468.1"/>
</g>
<!-- G2&#45;&#45;G3 -->
<g id="edge59" class="edge">
<title>G2&#45;&#45;G3</title>
<path fill="none" stroke="dimgrey" stroke-dasharray="5,2" d="M459,-359.7C459,-348.85 459,-334.92 459,-324.1"/>
</g>
<!-- H2 -->
<g id="node60" class="node">
<title>H2</title>
<text text-anchor="middle" x="531" y="-374.3" font-family="Times,serif" font-size="14.00">H2</text>
</g>
<!-- G2&#45;&#45;H2 -->
<g id="edge91" class="edge">
<title>G2&#45;&#45;H2</title>
<path fill="none" stroke="dimgrey" stroke-dasharray="5,2" d="M486.28,-378C492.1,-378 497.93,-378 503.75,-378"/>
</g>
<!-- G3&#45;&#45;G4 -->
<g id="edge60" class="edge">
<title>G3&#45;&#45;G4</title>
<path fill="none" stroke="dimgrey" stroke-dasharray="5,2" d="M459,-287.7C459,-276.85 459,-262.92 459,-252.1"/>
</g>
<!-- H3 -->
<g id="node61" class="node">
<title>H3</title>
<text text-anchor="middle" x="531" y="-302.3" font-family="Times,serif" font-size="14.00">H3</text>
</g>
<!-- G3&#45;&#45;H3 -->
<g id="edge98" class="edge">
<title>G3&#45;&#45;H3</title>
<path fill="none" stroke="dimgrey" stroke-dasharray="5,2" d="M486.28,-306C492.1,-306 497.93,-306 503.75,-306"/>
</g>
<!-- G4&#45;&#45;G5 -->
<g id="edge61" class="edge">
<title>G4&#45;&#45;G5</title>
<path fill="none" stroke="dimgrey" stroke-dasharray="5,2" d="M459,-215.7C459,-204.85 459,-190.92 459,-180.1"/>
</g>
<!-- H4 -->
<g id="node62" class="node">
<title>H4</title>
<text text-anchor="middle" x="531" y="-230.3" font-family="Times,serif" font-size="14.00">H4</text>
</g>
<!-- G4&#45;&#45;H4 -->
<g id="edge105" class="edge">
<title>G4&#45;&#45;H4</title>
<path fill="none" stroke="dimgrey" stroke-dasharray="5,2" d="M486.28,-234C492.1,-234 497.93,-234 503.75,-234"/>
</g>
<!-- G5&#45;&#45;G6 -->
<g id="edge62" class="edge">
<title>G5&#45;&#45;G6</title>
<path fill="none" stroke="dimgrey" stroke-dasharray="5,2" d="M459,-143.7C459,-132.85 459,-118.92 459,-108.1"/>
</g>
<!-- H5 -->
<g id="node63" class="node">
<title>H5</title>
<text text-anchor="middle" x="531" y="-158.3" font-family="Times,serif" font-size="14.00">H5</text>
</g>
<!-- G5&#45;&#45;H5 -->
<g id="edge112" class="edge">
<title>G5&#45;&#45;H5</title>
<path fill="none" stroke="dimgrey" stroke-dasharray="5,2" d="M486.28,-162C492.1,-162 497.93,-162 503.75,-162"/>
</g>
<!-- G7&#45;&#45;H7 -->
<g id="edge126" class="edge">
<title>G7&#45;&#45;H7</title>
<path fill="none" stroke="dimgrey" stroke-dasharray="5,2" d="M486.28,-18C492.1,-18 497.93,-18 503.75,-18"/>
</g>
<!-- H1&#45;&#45;H2 -->
<g id="edge65" class="edge">
<title>H1&#45;&#45;H2</title>
<path fill="none" stroke="dimgrey" stroke-dasharray="5,2" d="M531,-431.7C531,-420.85 531,-406.92 531,-396.1"/>
</g>
<!-- H2&#45;&#45;H3 -->
<g id="edge66" class="edge">
<title>H2&#45;&#45;H3</title>
<path fill="none" stroke="dimgrey" stroke-dasharray="5,2" d="M531,-359.7C531,-348.85 531,-334.92 531,-324.1"/>
</g>
<!-- H3&#45;&#45;H4 -->
<g id="edge67" class="edge">
<title>H3&#45;&#45;H4</title>
<path fill="none" stroke="dimgrey" stroke-dasharray="5,2" d="M531,-287.7C531,-276.85 531,-262.92 531,-252.1"/>
</g>
<!-- H4&#45;&#45;H5 -->
<g id="edge68" class="edge">
<title>H4&#45;&#45;H5</title>
<path fill="none" stroke="dimgrey" stroke-dasharray="5,2" d="M531,-215.7C531,-204.85 531,-190.92 531,-180.1"/>
</g>
<!-- H5&#45;&#45;H6 -->
<g id="edge69" class="edge">
<title>H5&#45;&#45;H6</title>
<path fill="none" stroke="dimgrey" stroke-dasharray="5,2" d="M531,-143.7C531,-132.85 531,-118.92 531,-108.1"/>
</g>
<!-- H6&#45;&#45;H7 -->
<g id="edge70" class="edge">
<title>H6&#45;&#45;H7</title>
<path fill="none" stroke="dimgrey" stroke-dasharray="5,2" d="M531,-71.7C531,-60.85 531,-46.92 531,-36.1"/>
</g>
</g>
</svg>
