<?xml version="1.0" encoding="UTF-8" standalone="no"?>
<!DOCTYPE svg PUBLIC "-//W3C//DTD SVG 1.0//EN"
 "http://www.w3.org/TR/2001/REC-SVG-20010904/DTD/svg10.dtd" [
 <!ATTLIST svg xmlns:xlink CDATA #FIXED "http://www.w3.org/1999/xlink">
]>
<!-- Generated by Graphviz version 2.21.0 (Fri Jul 25 17:10:02 UTC 2008)
     For user: (ellson) John Ellson -->
<!-- Title: G Pages: 1 -->
<svg width="373pt" height="248pt"
 viewBox="0.00 0.00 373.00 248.00" xmlns="http://www.w3.org/2000/svg" xmlns:xlink="http://www.w3.org/1999/xlink">
<g id="graph0" class="graph" transform="scale(1 1) rotate(0) translate(4 244)">
<title>G</title>
<polygon style="fill:white;stroke:white;" points="-4,4 -4,-244 369,-244 369,4 -4,4"/>
<!-- run -->
<g id="node1" class="node"><title>run</title>
<ellipse style="fill:none;stroke:black;" cx="106" cy="-111" rx="27" ry="18"/>
<text text-anchor="middle" x="106" y="-106.9" style="font-family:Times New Roman;font-size:14.00;">run</text>
</g>
<!-- intr -->
<g id="node3" class="node"><title>intr</title>
<ellipse style="fill:none;stroke:black;" cx="49" cy="-60" rx="27" ry="18"/>
<text text-anchor="middle" x="49" y="-55.9" style="font-family:Times New Roman;font-size:14.00;">intr</text>
</g>
<!-- run&#45;&#45;intr -->
<g id="edge2" class="edge"><title>run&#45;&#45;intr</title>
<path style="fill:none;stroke:black;" d="M90,-97C82,-90 73,-81 65,-75"/>
</g>
<!-- kernel -->
<g id="node8" class="node"><title>kernel</title>
<ellipse style="fill:none;stroke:black;" cx="181" cy="-138" rx="36.1339" ry="18"/>
<text text-anchor="middle" x="181" y="-133.9" style="font-family:Times New Roman;font-size:14.00;">kernel</text>
</g>
<!-- run&#45;&#45;kernel -->
<g id="edge8" class="edge"><title>run&#45;&#45;kernel</title>
<path style="fill:none;stroke:black;" d="M130,-120C137,-122 144,-125 151,-128"/>
</g>
<!-- runbl -->
<g id="node5" class="node"><title>runbl</title>
<ellipse style="fill:none;stroke:black;" cx="32" cy="-127" rx="30.7734" ry="18"/>
<text text-anchor="middle" x="32" y="-122.9" style="font-family:Times New Roman;font-size:14.00;">runbl</text>
</g>
<!-- intr&#45;&#45;runbl -->
<g id="edge4" class="edge"><title>intr&#45;&#45;runbl</title>
<path style="fill:none;stroke:black;" d="M44,-78C42,-88 39,-99 36,-109"/>
</g>
<!-- runbl&#45;&#45;run -->
<g id="edge6" class="edge"><title>runbl&#45;&#45;run</title>
<path style="fill:none;stroke:black;" d="M61,-121C67,-119 74,-118 80,-117"/>
</g>
<!-- zombie -->
<g id="node10" class="node"><title>zombie</title>
<ellipse style="fill:none;stroke:black;" cx="169" cy="-221" rx="39.1069" ry="18"/>
<text text-anchor="middle" x="169" y="-216.9" style="font-family:Times New Roman;font-size:14.00;">zombie</text>
</g>
<!-- kernel&#45;&#45;zombie -->
<g id="edge10" class="edge"><title>kernel&#45;&#45;zombie</title>
<path style="fill:none;stroke:black;" d="M178,-156C176,-170 174,-189 172,-203"/>
</g>
<!-- sleep -->
<g id="node12" class="node"><title>sleep</title>
<ellipse style="fill:none;stroke:black;" cx="254" cy="-156" rx="31.9646" ry="18"/>
<text text-anchor="middle" x="254" y="-151.9" style="font-family:Times New Roman;font-size:14.00;">sleep</text>
</g>
<!-- kernel&#45;&#45;sleep -->
<g id="edge12" class="edge"><title>kernel&#45;&#45;sleep</title>
<path style="fill:none;stroke:black;" d="M214,-146C217,-147 221,-148 224,-149"/>
</g>
<!-- runmem -->
<g id="node14" class="node"><title>runmem</title>
<ellipse style="fill:none;stroke:black;" cx="241" cy="-84" rx="43.0827" ry="18"/>
<text text-anchor="middle" x="241" y="-79.9" style="font-family:Times New Roman;font-size:14.00;">runmem</text>
</g>
<!-- kernel&#45;&#45;runmem -->
<g id="edge14" class="edge"><title>kernel&#45;&#45;runmem</title>
<path style="fill:none;stroke:black;" d="M199,-122C206,-115 215,-107 222,-101"/>
</g>
<!-- sleep&#45;&#45;runmem -->
<g id="edge26" class="edge"><title>sleep&#45;&#45;runmem</title>
<path style="fill:none;stroke:black;" d="M251,-138C249,-127 246,-113 244,-102"/>
</g>
<!-- swap -->
<g id="node16" class="node"><title>swap</title>
<ellipse style="fill:none;stroke:black;" cx="331" cy="-149" rx="30.7734" ry="18"/>
<text text-anchor="middle" x="331" y="-144.9" style="font-family:Times New Roman;font-size:14.00;">swap</text>
</g>
<!-- sleep&#45;&#45;swap -->
<g id="edge16" class="edge"><title>sleep&#45;&#45;swap</title>
<path style="fill:none;stroke:black;" d="M286,-153C291,-153 295,-152 300,-152"/>
</g>
<!-- runswap -->
<g id="node18" class="node"><title>runswap</title>
<ellipse style="fill:none;stroke:black;" cx="320" cy="-74" rx="43.7776" ry="18"/>
<text text-anchor="middle" x="320" y="-69.9" style="font-family:Times New Roman;font-size:14.00;">runswap</text>
</g>
<!-- swap&#45;&#45;runswap -->
<g id="edge18" class="edge"><title>swap&#45;&#45;runswap</title>
<path style="fill:none;stroke:black;" d="M328,-131C326,-119 324,-104 323,-92"/>
</g>
<!-- runswap&#45;&#45;runmem -->
<g id="edge22" class="edge"><title>runswap&#45;&#45;runmem</title>
<path style="fill:none;stroke:black;" d="M278,-79C278,-79 278,-79 278,-79"/>
</g>
<!-- new -->
<g id="node20" class="node"><title>new</title>
<ellipse style="fill:none;stroke:black;" cx="279" cy="-19" rx="27.1004" ry="18"/>
<text text-anchor="middle" x="279" y="-14.9" style="font-family:Times New Roman;font-size:14.00;">new</text>
</g>
<!-- runswap&#45;&#45;new -->
<g id="edge20" class="edge"><title>runswap&#45;&#45;new</title>
<path style="fill:none;stroke:black;" d="M307,-57C302,-50 296,-42 291,-35"/>
</g>
<!-- new&#45;&#45;runmem -->
<g id="edge24" class="edge"><title>new&#45;&#45;runmem</title>
<path style="fill:none;stroke:black;" d="M269,-36C264,-45 257,-57 251,-66"/>
</g>
</g>
</svg>
