<?xml version="1.0" encoding="UTF-8" standalone="no"?>
<!DOCTYPE svg PUBLIC "-//W3C//DTD SVG 1.1//EN"
 "http://www.w3.org/Graphics/SVG/1.1/DTD/svg11.dtd">
<!-- Generated by graphviz version 2.43.0 (0)
 -->
<!-- Title: G Pages: 1 -->
<svg width="371pt" height="247pt"
 viewBox="0.00 0.00 370.56 246.71" xmlns="http://www.w3.org/2000/svg" xmlns:xlink="http://www.w3.org/1999/xlink">
<g id="graph0" class="graph" transform="scale(1 1) rotate(0) translate(4 242.71)">
<title>G</title>
<polygon fill="white" stroke="transparent" points="-4,4 -4,-242.71 366.56,-242.71 366.56,4 -4,4"/>
<!-- run -->
<g id="node1" class="node">
<title>run</title>
<ellipse fill="none" stroke="black" cx="104.35" cy="-110.03" rx="27" ry="18"/>
<text text-anchor="middle" x="104.35" y="-106.33" font-family="Helvetica,Arial,sans-serif" font-size="14.00">run</text>
</g>
<!-- intr -->
<g id="node2" class="node">
<title>intr</title>
<ellipse fill="none" stroke="black" cx="47.24" cy="-59.71" rx="27" ry="18"/>
<text text-anchor="middle" x="47.24" y="-56.01" font-family="Helvetica,Arial,sans-serif" font-size="14.00">intr</text>
</g>
<!-- run&#45;&#45;intr -->
<g id="edge1" class="edge">
<title>run&#45;&#45;intr</title>
<path fill="none" stroke="black" d="M87.83,-95.48C80.32,-88.86 71.45,-81.04 63.92,-74.4"/>
</g>
<!-- kernel -->
<g id="node4" class="node">
<title>kernel</title>
<ellipse fill="none" stroke="black" cx="180.08" cy="-137.54" rx="34.39" ry="18"/>
<text text-anchor="middle" x="180.08" y="-133.84" font-family="Helvetica,Arial,sans-serif" font-size="14.00">kernel</text>
</g>
<!-- run&#45;&#45;kernel -->
<g id="edge4" class="edge">
<title>run&#45;&#45;kernel</title>
<path fill="none" stroke="black" d="M128.31,-118.73C135.76,-121.44 144.05,-124.45 151.77,-127.26"/>
</g>
<!-- runbl -->
<g id="node3" class="node">
<title>runbl</title>
<ellipse fill="none" stroke="black" cx="30.55" cy="-126.16" rx="30.59" ry="18"/>
<text text-anchor="middle" x="30.55" y="-122.46" font-family="Helvetica,Arial,sans-serif" font-size="14.00">runbl</text>
</g>
<!-- intr&#45;&#45;runbl -->
<g id="edge2" class="edge">
<title>intr&#45;&#45;runbl</title>
<path fill="none" stroke="black" d="M42.77,-77.51C40.37,-87.05 37.43,-98.76 35.03,-108.3"/>
</g>
<!-- runbl&#45;&#45;run -->
<g id="edge3" class="edge">
<title>runbl&#45;&#45;run</title>
<path fill="none" stroke="black" d="M59.29,-119.88C65.6,-118.5 72.25,-117.05 78.45,-115.69"/>
</g>
<!-- zombie -->
<g id="node5" class="node">
<title>zombie</title>
<ellipse fill="none" stroke="black" cx="167.44" cy="-220.71" rx="39.79" ry="18"/>
<text text-anchor="middle" x="167.44" y="-217.01" font-family="Helvetica,Arial,sans-serif" font-size="14.00">zombie</text>
</g>
<!-- kernel&#45;&#45;zombie -->
<g id="edge5" class="edge">
<title>kernel&#45;&#45;zombie</title>
<path fill="none" stroke="black" d="M177.33,-155.58C175.21,-169.54 172.29,-188.76 170.17,-202.7"/>
</g>
<!-- sleep -->
<g id="node6" class="node">
<title>sleep</title>
<ellipse fill="none" stroke="black" cx="252.37" cy="-154.97" rx="31.7" ry="18"/>
<text text-anchor="middle" x="252.37" y="-151.27" font-family="Helvetica,Arial,sans-serif" font-size="14.00">sleep</text>
</g>
<!-- kernel&#45;&#45;sleep -->
<g id="edge6" class="edge">
<title>kernel&#45;&#45;sleep</title>
<path fill="none" stroke="black" d="M211.58,-145.13C215.38,-146.05 219.26,-146.98 223.03,-147.89"/>
</g>
<!-- runmem -->
<g id="node7" class="node">
<title>runmem</title>
<ellipse fill="none" stroke="black" cx="239.29" cy="-83.36" rx="44.39" ry="18"/>
<text text-anchor="middle" x="239.29" y="-79.66" font-family="Helvetica,Arial,sans-serif" font-size="14.00">runmem</text>
</g>
<!-- kernel&#45;&#45;runmem -->
<g id="edge7" class="edge">
<title>kernel&#45;&#45;runmem</title>
<path fill="none" stroke="black" d="M197.2,-121.87C204.72,-114.99 213.55,-106.91 221.17,-99.94"/>
</g>
<!-- sleep&#45;&#45;runmem -->
<g id="edge13" class="edge">
<title>sleep&#45;&#45;runmem</title>
<path fill="none" stroke="black" d="M249.07,-136.9C247.11,-126.13 244.61,-112.49 242.64,-101.67"/>
</g>
<!-- swap -->
<g id="node8" class="node">
<title>swap</title>
<ellipse fill="none" stroke="black" cx="330.07" cy="-148.25" rx="31.4" ry="18"/>
<text text-anchor="middle" x="330.07" y="-144.55" font-family="Helvetica,Arial,sans-serif" font-size="14.00">swap</text>
</g>
<!-- sleep&#45;&#45;swap -->
<g id="edge8" class="edge">
<title>sleep&#45;&#45;swap</title>
<path fill="none" stroke="black" d="M283.98,-152.24C288.94,-151.81 294.06,-151.37 299,-150.94"/>
</g>
<!-- runswap -->
<g id="node9" class="node">
<title>runswap</title>
<ellipse fill="none" stroke="black" cx="318.36" cy="-73.46" rx="44.39" ry="18"/>
<text text-anchor="middle" x="318.36" y="-69.76" font-family="Helvetica,Arial,sans-serif" font-size="14.00">runswap</text>
</g>
<!-- swap&#45;&#45;runswap -->
<g id="edge9" class="edge">
<title>swap&#45;&#45;runswap</title>
<path fill="none" stroke="black" d="M327.24,-130.15C325.41,-118.47 323.04,-103.35 321.21,-91.66"/>
</g>
<!-- runswap&#45;&#45;runmem -->
<g id="edge11" class="edge">
<title>runswap&#45;&#45;runmem</title>
<path fill="none" stroke="black" d="M276.05,-78.76C275.9,-78.77 275.76,-78.79 275.61,-78.81"/>
</g>
<!-- new -->
<g id="node10" class="node">
<title>new</title>
<ellipse fill="none" stroke="black" cx="277.44" cy="-18" rx="27" ry="18"/>
<text text-anchor="middle" x="277.44" y="-14.3" font-family="Helvetica,Arial,sans-serif" font-size="14.00">new</text>
</g>
<!-- runswap&#45;&#45;new -->
<g id="edge10" class="edge">
<title>runswap&#45;&#45;new</title>
<path fill="none" stroke="black" d="M305.64,-56.21C300.47,-49.22 294.54,-41.18 289.45,-34.29"/>
</g>
<!-- new&#45;&#45;runmem -->
<g id="edge12" class="edge">
<title>new&#45;&#45;runmem</title>
<path fill="none" stroke="black" d="M267.61,-34.83C262.14,-44.21 255.32,-55.89 249.75,-65.44"/>
</g>
</g>
</svg>
