<?xml version="1.0" encoding="UTF-8" standalone="no"?>
<!DOCTYPE svg PUBLIC "-//W3C//DTD SVG 1.1//EN"
 "http://www.w3.org/Graphics/SVG/1.1/DTD/svg11.dtd">
<!-- Generated by graphviz version 2.43.0 (0)
 -->
<!-- Title: TrafficLights Pages: 1 -->
<svg width="344pt" height="459pt"
 viewBox="0.00 0.00 343.61 459.09" xmlns="http://www.w3.org/2000/svg" xmlns:xlink="http://www.w3.org/1999/xlink">
<g id="graph0" class="graph" transform="scale(1 1) rotate(0) translate(4 455.09)">
<title>TrafficLights</title>
<polygon fill="white" stroke="transparent" points="-4,4 -4,-455.09 339.61,-455.09 339.61,4 -4,4"/>
<text text-anchor="middle" x="167.81" y="-20.4" font-family="Helvetica,Arial,sans-serif" font-size="12.00">PetriNet Model TrafficLights</text>
<text text-anchor="middle" x="167.81" y="-7.4" font-family="Helvetica,Arial,sans-serif" font-size="12.00">Extracted from ConceptBase and layed out by Graphviz</text>
<!-- gy2 -->
<g id="node1" class="node">
<title>gy2</title>
<polygon fill="none" stroke="black" points="113.61,-84 59.61,-84 59.61,-48 113.61,-48 113.61,-84"/>
<text text-anchor="middle" x="86.61" y="-62.3" font-family="Helvetica,Arial,sans-serif" font-size="14.00">gy2</text>
</g>
<!-- yellow2 -->
<g id="node8" class="node">
<title>yellow2</title>
<ellipse fill="none" stroke="black" cx="32.5" cy="-130.58" rx="32.5" ry="32.5"/>
<text text-anchor="middle" x="32.5" y="-126.88" font-family="Helvetica,Arial,sans-serif" font-size="14.00">yellow2</text>
</g>
<!-- gy2&#45;&gt;yellow2 -->
<g id="edge1" class="edge">
<title>gy2&#45;&gt;yellow2</title>
<path fill="none" stroke="black" d="M71.25,-84.34C67.72,-88.54 63.87,-93.14 60.01,-97.75"/>
<polygon fill="black" stroke="black" points="57.29,-95.54 53.56,-105.45 62.66,-100.04 57.29,-95.54"/>
</g>
<!-- yr2 -->
<g id="node2" class="node">
<title>yr2</title>
<polygon fill="none" stroke="black" points="91.11,-223.09 37.11,-223.09 37.11,-187.09 91.11,-187.09 91.11,-223.09"/>
<text text-anchor="middle" x="64.11" y="-201.39" font-family="Helvetica,Arial,sans-serif" font-size="14.00">yr2</text>
</g>
<!-- red2 -->
<g id="node9" class="node">
<title>red2</title>
<ellipse fill="none" stroke="black" cx="135.39" cy="-168.96" rx="32.5" ry="32.5"/>
<text text-anchor="middle" x="135.39" y="-165.26" font-family="Helvetica,Arial,sans-serif" font-size="14.00">red2</text>
</g>
<!-- yr2&#45;&gt;red2 -->
<g id="edge4" class="edge">
<title>yr2&#45;&gt;red2</title>
<path fill="none" stroke="black" d="M91.47,-191.22C93.29,-190.3 95.15,-189.36 97.01,-188.41"/>
<polygon fill="black" stroke="black" points="99,-191.33 106.33,-183.69 95.83,-185.09 99,-191.33"/>
</g>
<!-- safe1 -->
<g id="node11" class="node">
<title>safe1</title>
<ellipse fill="none" stroke="black" cx="69.73" cy="-287.54" rx="32.5" ry="32.5"/>
<text text-anchor="middle" x="69.73" y="-283.84" font-family="Helvetica,Arial,sans-serif" font-size="14.00">safe1</text>
</g>
<!-- yr2&#45;&gt;safe1 -->
<g id="edge3" class="edge">
<title>yr2&#45;&gt;safe1</title>
<path fill="none" stroke="black" d="M65.36,-223.39C65.79,-229.78 66.3,-237.25 66.82,-244.79"/>
<polygon fill="black" stroke="black" points="63.34,-245.28 67.51,-255.02 70.33,-244.8 63.34,-245.28"/>
</g>
<!-- rg2 -->
<g id="node3" class="node">
<title>rg2</title>
<polygon fill="none" stroke="black" points="236,-156.3 182,-156.3 182,-120.3 236,-120.3 236,-156.3"/>
<text text-anchor="middle" x="209" y="-134.6" font-family="Helvetica,Arial,sans-serif" font-size="14.00">rg2</text>
</g>
<!-- green2 -->
<g id="node7" class="node">
<title>green2</title>
<ellipse fill="none" stroke="black" cx="170.98" cy="-66.5" rx="32.5" ry="32.5"/>
<text text-anchor="middle" x="170.98" y="-62.8" font-family="Helvetica,Arial,sans-serif" font-size="14.00">green2</text>
</g>
<!-- rg2&#45;&gt;green2 -->
<g id="edge2" class="edge">
<title>rg2&#45;&gt;green2</title>
<path fill="none" stroke="black" d="M199.41,-120.18C196.84,-115.33 193.97,-109.91 191.07,-104.43"/>
<polygon fill="black" stroke="black" points="193.97,-102.43 186.2,-95.23 187.78,-105.71 193.97,-102.43"/>
</g>
<!-- gy1 -->
<g id="node4" class="node">
<title>gy1</title>
<polygon fill="none" stroke="black" points="275.36,-437.77 221.36,-437.77 221.36,-401.77 275.36,-401.77 275.36,-437.77"/>
<text text-anchor="middle" x="248.36" y="-416.07" font-family="Helvetica,Arial,sans-serif" font-size="14.00">gy1</text>
</g>
<!-- yellow1 -->
<g id="node13" class="node">
<title>yellow1</title>
<ellipse fill="none" stroke="black" cx="303.11" cy="-355.58" rx="32.5" ry="32.5"/>
<text text-anchor="middle" x="303.11" y="-351.88" font-family="Helvetica,Arial,sans-serif" font-size="14.00">yellow1</text>
</g>
<!-- gy1&#45;&gt;yellow1 -->
<g id="edge9" class="edge">
<title>gy1&#45;&gt;yellow1</title>
<path fill="none" stroke="black" d="M263.9,-401.54C267.47,-397.36 271.36,-392.8 275.27,-388.21"/>
<polygon fill="black" stroke="black" points="277.98,-390.43 281.81,-380.55 272.65,-385.89 277.98,-390.43"/>
</g>
<!-- yr1 -->
<g id="node5" class="node">
<title>yr1</title>
<polygon fill="none" stroke="black" points="300.34,-298.02 246.34,-298.02 246.34,-262.02 300.34,-262.02 300.34,-298.02"/>
<text text-anchor="middle" x="273.34" y="-276.32" font-family="Helvetica,Arial,sans-serif" font-size="14.00">yr1</text>
</g>
<!-- safe2 -->
<g id="node10" class="node">
<title>safe2</title>
<ellipse fill="none" stroke="black" cx="267.06" cy="-197.42" rx="32.5" ry="32.5"/>
<text text-anchor="middle" x="267.06" y="-193.72" font-family="Helvetica,Arial,sans-serif" font-size="14.00">safe2</text>
</g>
<!-- yr1&#45;&gt;safe2 -->
<g id="edge11" class="edge">
<title>yr1&#45;&gt;safe2</title>
<path fill="none" stroke="black" d="M271.95,-261.69C271.46,-255.21 270.88,-247.63 270.3,-239.99"/>
<polygon fill="black" stroke="black" points="273.79,-239.7 269.54,-230 266.81,-240.23 273.79,-239.7"/>
</g>
<!-- red1 -->
<g id="node14" class="node">
<title>red1</title>
<ellipse fill="none" stroke="black" cx="202.03" cy="-315.77" rx="32.5" ry="32.5"/>
<text text-anchor="middle" x="202.03" y="-312.07" font-family="Helvetica,Arial,sans-serif" font-size="14.00">red1</text>
</g>
<!-- yr1&#45;&gt;red1 -->
<g id="edge12" class="edge">
<title>yr1&#45;&gt;red1</title>
<path fill="none" stroke="black" d="M245.98,-293.74C244.15,-294.65 242.29,-295.59 240.43,-296.52"/>
<polygon fill="black" stroke="black" points="238.47,-293.59 231.1,-301.2 241.61,-299.84 238.47,-293.59"/>
</g>
<!-- rg1 -->
<g id="node6" class="node">
<title>rg1</title>
<polygon fill="none" stroke="black" points="155.11,-364.04 101.11,-364.04 101.11,-328.04 155.11,-328.04 155.11,-364.04"/>
<text text-anchor="middle" x="128.11" y="-342.34" font-family="Helvetica,Arial,sans-serif" font-size="14.00">rg1</text>
</g>
<!-- green1 -->
<g id="node12" class="node">
<title>green1</title>
<ellipse fill="none" stroke="black" cx="164.09" cy="-418.59" rx="32.5" ry="32.5"/>
<text text-anchor="middle" x="164.09" y="-414.89" font-family="Helvetica,Arial,sans-serif" font-size="14.00">green1</text>
</g>
<!-- rg1&#45;&gt;green1 -->
<g id="edge10" class="edge">
<title>rg1&#45;&gt;green1</title>
<path fill="none" stroke="black" d="M137.19,-364.35C139.59,-369.19 142.27,-374.6 144.99,-380.08"/>
<polygon fill="black" stroke="black" points="141.97,-381.88 149.55,-389.28 148.24,-378.77 141.97,-381.88"/>
</g>
<!-- green2&#45;&gt;gy2 -->
<g id="edge6" class="edge">
<title>green2&#45;&gt;gy2</title>
<path fill="none" stroke="black" d="M138.12,-66.31C133.46,-66.28 128.65,-66.25 123.92,-66.22"/>
<polygon fill="black" stroke="black" points="123.81,-62.72 113.79,-66.16 123.77,-69.72 123.81,-62.72"/>
</g>
<!-- yellow2&#45;&gt;yr2 -->
<g id="edge7" class="edge">
<title>yellow2&#45;&gt;yr2</title>
<path fill="none" stroke="black" d="M45.36,-160.89C47.71,-166.43 50.15,-172.18 52.46,-177.63"/>
<polygon fill="black" stroke="black" points="49.31,-179.17 56.44,-187.01 55.76,-176.43 49.31,-179.17"/>
</g>
<!-- red2&#45;&gt;rg2 -->
<g id="edge8" class="edge">
<title>red2&#45;&gt;rg2</title>
<path fill="none" stroke="black" d="M165.76,-156.31C167.88,-155.43 170.03,-154.53 172.19,-153.63"/>
<polygon fill="black" stroke="black" points="173.65,-156.81 181.54,-149.74 170.96,-150.35 173.65,-156.81"/>
</g>
<!-- safe2&#45;&gt;rg2 -->
<g id="edge5" class="edge">
<title>safe2&#45;&gt;rg2</title>
<path fill="none" stroke="black" d="M244.11,-174.05C240.81,-170.69 237.41,-167.22 234.07,-163.82"/>
<polygon fill="black" stroke="black" points="236.45,-161.26 226.95,-156.57 231.46,-166.16 236.45,-161.26"/>
</g>
<!-- safe1&#45;&gt;rg1 -->
<g id="edge13" class="edge">
<title>safe1&#45;&gt;rg1</title>
<path fill="none" stroke="black" d="M92.8,-310.66C96.12,-313.98 99.54,-317.42 102.9,-320.78"/>
<polygon fill="black" stroke="black" points="100.52,-323.35 110.06,-327.96 105.47,-318.41 100.52,-323.35"/>
</g>
<!-- green1&#45;&gt;gy1 -->
<g id="edge14" class="edge">
<title>green1&#45;&gt;gy1</title>
<path fill="none" stroke="black" d="M196.91,-419.05C201.56,-419.11 206.37,-419.18 211.09,-419.25"/>
<polygon fill="black" stroke="black" points="211.17,-422.75 221.21,-419.39 211.26,-415.75 211.17,-422.75"/>
</g>
<!-- yellow1&#45;&gt;yr1 -->
<g id="edge15" class="edge">
<title>yellow1&#45;&gt;yr1</title>
<path fill="none" stroke="black" d="M291.18,-325.28C288.85,-319.39 286.43,-313.24 284.15,-307.45"/>
<polygon fill="black" stroke="black" points="287.41,-306.16 280.48,-298.14 280.89,-308.73 287.41,-306.16"/>
</g>
<!-- red1&#45;&gt;rg1 -->
<g id="edge16" class="edge">
<title>red1&#45;&gt;rg1</title>
<path fill="none" stroke="black" d="M171.54,-328.26C169.25,-329.19 166.94,-330.14 164.62,-331.09"/>
<polygon fill="black" stroke="black" points="163.15,-327.91 155.22,-334.94 165.8,-334.39 163.15,-327.91"/>
</g>
</g>
</svg>
