<?xml version="1.0" encoding="UTF-8" standalone="no"?>
<!DOCTYPE svg PUBLIC "-//W3C//DTD SVG 1.0//EN"
 "http://www.w3.org/TR/2001/REC-SVG-20010904/DTD/svg10.dtd" [
 <!ATTLIST svg xmlns:xlink CDATA #FIXED "http://www.w3.org/1999/xlink">
]>
<!-- Generated by Graphviz version 2.21.0 (Fri Jul 25 17:10:02 UTC 2008)
     For user: (ellson) John Ellson -->
<!-- Title: ER Pages: 1 -->
<svg width="364pt" height="448pt"
 viewBox="0.00 0.00 364.00 448.00" xmlns="http://www.w3.org/2000/svg" xmlns:xlink="http://www.w3.org/1999/xlink">
<g id="graph0" class="graph" transform="scale(1 1) rotate(0) translate(4 444)">
<title>ER</title>
<polygon style="fill:white;stroke:white;" points="-4,4 -4,-444 360,-444 360,4 -4,4"/>
<text text-anchor="middle" x="178" y="-32" style="font-family:Times New Roman;font-size:20.00;">Entity Relation Diagram</text>
<text text-anchor="middle" x="178" y="-9" style="font-family:Times New Roman;font-size:20.00;">drawn by NEATO</text>
<!-- course -->
<g id="node1" class="node"><title>course</title>
<polygon style="fill:none;stroke:black;" points="129,-300 75,-300 75,-264 129,-264 129,-300"/>
<text text-anchor="middle" x="102" y="-277.9" style="font-family:Times New Roman;font-size:14.00;">course</text>
</g>
<!-- C&#45;I -->
<g id="node11" class="node"><title>C&#45;I</title>
<polygon style="fill:lightgrey;stroke:lightgrey;" points="147,-378.456 112.121,-353 147,-327.544 181.879,-353 147,-378.456"/>
<text text-anchor="middle" x="147" y="-348.9" style="font-family:Times New Roman;font-size:14.00;">C&#45;I</text>
</g>
<!-- course&#45;&#45;C&#45;I -->
<g id="edge7" class="edge"><title>course&#45;&#45;C&#45;I</title>
<path style="fill:none;stroke:black;" d="M114,-300C121,-311 129,-325 136,-335"/>
<text text-anchor="middle" x="118" y="-317.9" style="font-family:Times New Roman;font-size:14.00;">n</text>
</g>
<!-- institute -->
<g id="node2" class="node"><title>institute</title>
<polygon style="fill:none;stroke:black;" points="260,-370 200,-370 200,-334 260,-334 260,-370"/>
<text text-anchor="middle" x="230" y="-347.9" style="font-family:Times New Roman;font-size:14.00;">institute</text>
</g>
<!-- name1 -->
<g id="node6" class="node"><title>name1</title>
<ellipse style="fill:none;stroke:black;" cx="269" cy="-421" rx="32.157" ry="18"/>
<text text-anchor="middle" x="269" y="-416.9" style="font-family:Times New Roman;font-size:14.00;">name</text>
</g>
<!-- institute&#45;&#45;name1 -->
<g id="edge11" class="edge"><title>institute&#45;&#45;name1</title>
<path style="fill:none;stroke:black;" d="M240,-370C246,-381 253,-394 259,-404"/>
</g>
<!-- S&#45;I -->
<g id="node13" class="node"><title>S&#45;I</title>
<polygon style="fill:lightgrey;stroke:lightgrey;" points="266,-304.456 234.069,-279 266,-253.544 297.931,-279 266,-304.456"/>
<text text-anchor="middle" x="266" y="-274.9" style="font-family:Times New Roman;font-size:14.00;">S&#45;I</text>
</g>
<!-- institute&#45;&#45;S&#45;I -->
<g id="edge13" class="edge"><title>institute&#45;&#45;S&#45;I</title>
<path style="fill:none;stroke:black;" d="M239,-334C245,-323 252,-309 257,-297"/>
<text text-anchor="middle" x="255" y="-314.9" style="font-family:Times New Roman;font-size:14.00;">1</text>
</g>
<!-- student -->
<g id="node3" class="node"><title>student</title>
<polygon style="fill:none;stroke:black;" points="267,-216 211,-216 211,-180 267,-180 267,-216"/>
<text text-anchor="middle" x="239" y="-193.9" style="font-family:Times New Roman;font-size:14.00;">student</text>
</g>
<!-- name2 -->
<g id="node7" class="node"><title>name2</title>
<ellipse style="fill:none;stroke:black;" cx="323" cy="-196" rx="32.157" ry="18"/>
<text text-anchor="middle" x="323" y="-191.9" style="font-family:Times New Roman;font-size:14.00;">name</text>
</g>
<!-- student&#45;&#45;name2 -->
<g id="edge19" class="edge"><title>student&#45;&#45;name2</title>
<path style="fill:none;stroke:black;" d="M267,-197C275,-197 283,-197 291,-197"/>
</g>
<!-- grade -->
<g id="node9" class="node"><title>grade</title>
<ellipse style="fill:none;stroke:black;" cx="283" cy="-131" rx="34.0492" ry="18"/>
<text text-anchor="middle" x="283" y="-126.9" style="font-family:Times New Roman;font-size:14.00;">grade</text>
</g>
<!-- student&#45;&#45;grade -->
<g id="edge17" class="edge"><title>student&#45;&#45;grade</title>
<path style="fill:none;stroke:black;" d="M251,-180C257,-170 265,-158 272,-148"/>
</g>
<!-- number -->
<g id="node10" class="node"><title>number</title>
<ellipse style="fill:none;stroke:black;" cx="207" cy="-121" rx="39.8056" ry="18"/>
<text text-anchor="middle" x="207" y="-116.9" style="font-family:Times New Roman;font-size:14.00;">number</text>
</g>
<!-- student&#45;&#45;number -->
<g id="edge21" class="edge"><title>student&#45;&#45;number</title>
<path style="fill:none;stroke:black;" d="M231,-180C226,-168 219,-151 214,-139"/>
</g>
<!-- S&#45;C -->
<g id="node12" class="node"><title>S&#45;C</title>
<polygon style="fill:lightgrey;stroke:lightgrey;" points="157,-243.456 119.172,-218 157,-192.544 194.828,-218 157,-243.456"/>
<text text-anchor="middle" x="157" y="-213.9" style="font-family:Times New Roman;font-size:14.00;">S&#45;C</text>
</g>
<!-- student&#45;&#45;S&#45;C -->
<g id="edge23" class="edge"><title>student&#45;&#45;S&#45;C</title>
<path style="fill:none;stroke:black;" d="M211,-205C203,-207 193,-209 185,-211"/>
<text text-anchor="middle" x="200" y="-213.9" style="font-family:Times New Roman;font-size:14.00;">m</text>
</g>
<!-- name0 -->
<g id="node5" class="node"><title>name0</title>
<ellipse style="fill:none;stroke:black;" cx="38" cy="-331" rx="32.157" ry="18"/>
<text text-anchor="middle" x="38" y="-326.9" style="font-family:Times New Roman;font-size:14.00;">name</text>
</g>
<!-- name0&#45;&#45;course -->
<g id="edge3" class="edge"><title>name0&#45;&#45;course</title>
<path style="fill:none;stroke:black;" d="M57,-316C64,-311 71,-305 78,-300"/>
</g>
<!-- code -->
<g id="node8" class="node"><title>code</title>
<ellipse style="fill:none;stroke:black;" cx="32" cy="-239" rx="30.7734" ry="18"/>
<text text-anchor="middle" x="32" y="-234.9" style="font-family:Times New Roman;font-size:14.00;">code</text>
</g>
<!-- code&#45;&#45;course -->
<g id="edge5" class="edge"><title>code&#45;&#45;course</title>
<path style="fill:none;stroke:black;" d="M53,-252C60,-256 68,-261 75,-266"/>
</g>
<!-- C&#45;I&#45;&#45;institute -->
<g id="edge9" class="edge"><title>C&#45;I&#45;&#45;institute</title>
<path style="fill:none;stroke:black;" d="M182,-353C188,-353 194,-353 200,-352"/>
<text text-anchor="middle" x="191" y="-357.9" style="font-family:Times New Roman;font-size:14.00;">1</text>
</g>
<!-- S&#45;C&#45;&#45;course -->
<g id="edge25" class="edge"><title>S&#45;C&#45;&#45;course</title>
<path style="fill:none;stroke:black;" d="M143,-234C135,-243 126,-254 118,-264"/>
<text text-anchor="middle" x="138" y="-250.9" style="font-family:Times New Roman;font-size:14.00;">n</text>
</g>
<!-- S&#45;I&#45;&#45;student -->
<g id="edge15" class="edge"><title>S&#45;I&#45;&#45;student</title>
<path style="fill:none;stroke:black;" d="M259,-259C255,-246 249,-229 245,-216"/>
<text text-anchor="middle" x="246" y="-235.9" style="font-family:Times New Roman;font-size:14.00;">n</text>
</g>
</g>
</svg>
