<?xml version="1.0" encoding="UTF-8" standalone="no"?>
<!DOCTYPE svg PUBLIC "-//W3C//DTD SVG 1.1//EN"
 "http://www.w3.org/Graphics/SVG/1.1/DTD/svg11.dtd">
<!-- Generated by graphviz version 2.43.0 (0)
 -->
<!-- Title: G Pages: 1 -->
<svg width="374pt" height="293pt"
 viewBox="0.00 0.00 374.00 293.00" xmlns="http://www.w3.org/2000/svg" xmlns:xlink="http://www.w3.org/1999/xlink">
<g id="graph0" class="graph" transform="scale(1 1) rotate(0) translate(4 289)">
<title>G</title>
<polygon fill="white" stroke="transparent" points="-4,4 -4,-289 370,-289 370,4 -4,4"/>
<g id="clust1" class="cluster">
<title>clusterA</title>
<polygon fill="none" stroke="black" points="-0.48,-113.51 -0.48,-284.51 256.52,-284.51 256.52,-113.51 -0.48,-113.51"/>
</g>
<g id="clust2" class="cluster">
<title>clusterC</title>
<polygon fill="none" stroke="black" points="7.16,-121.01 7.16,-219.01 128.16,-219.01 128.16,-121.01 7.16,-121.01"/>
</g>
<g id="clust3" class="cluster">
<title>clusterB</title>
<polygon fill="none" stroke="black" points="266.65,-45.95 266.65,-142.95 365.65,-142.95 365.65,-45.95 266.65,-45.95"/>
</g>
<!-- e -->
<g id="node1" class="node">
<title>e</title>
<ellipse fill="none" stroke="black" cx="289.09" cy="-17.52" rx="27" ry="18"/>
<text text-anchor="middle" x="289.09" y="-13.82" font-family="Helvetica,Arial,sans-serif" font-size="14.00">e</text>
</g>
<!-- __0:clusterB -->
<!-- e&#45;&#45;__0:clusterB -->
<g id="edge7" class="edge">
<title>e&#45;&#45;__0:clusterB</title>
<path fill="none" stroke="black" d="M295.36,-35.36C296.52,-38.64 297.77,-42.21 299.08,-45.92"/>
</g>
<!-- a -->
<g id="node2" class="node">
<title>a</title>
<ellipse fill="none" stroke="black" cx="155.94" cy="-258.85" rx="27" ry="18"/>
<text text-anchor="middle" x="155.94" y="-255.15" font-family="Helvetica,Arial,sans-serif" font-size="14.00">a</text>
</g>
<!-- b -->
<g id="node3" class="node">
<title>b</title>
<ellipse fill="none" stroke="black" cx="221.38" cy="-249.07" rx="27" ry="18"/>
<text text-anchor="middle" x="221.38" y="-245.37" font-family="Helvetica,Arial,sans-serif" font-size="14.00">b</text>
</g>
<!-- a&#45;&#45;b -->
<g id="edge1" class="edge">
<title>a&#45;&#45;b</title>
<path fill="none" stroke="black" d="M182.56,-254.87C186.66,-254.26 190.9,-253.62 195,-253.01"/>
</g>
<!-- C -->
<g id="node4" class="node">
<title>C</title>
<ellipse fill="none" stroke="black" cx="93.16" cy="-146.79" rx="27" ry="18"/>
<text text-anchor="middle" x="93.16" y="-143.09" font-family="Helvetica,Arial,sans-serif" font-size="14.00">C</text>
</g>
<!-- D -->
<g id="node5" class="node">
<title>D</title>
<ellipse fill="none" stroke="black" cx="41.86" cy="-192.79" rx="27" ry="18"/>
<text text-anchor="middle" x="41.86" y="-189.09" font-family="Helvetica,Arial,sans-serif" font-size="14.00">D</text>
</g>
<!-- C&#45;&#45;D -->
<g id="edge2" class="edge">
<title>C&#45;&#45;D</title>
<path fill="none" stroke="black" d="M76.93,-161.35C70.94,-166.71 64.16,-172.8 58.16,-178.17"/>
</g>
<!-- d -->
<g id="node6" class="node">
<title>d</title>
<ellipse fill="none" stroke="black" cx="301.39" cy="-117.45" rx="27" ry="18"/>
<text text-anchor="middle" x="301.39" y="-113.75" font-family="Helvetica,Arial,sans-serif" font-size="14.00">d</text>
</g>
<!-- d&#45;&#45;D -->
<g id="edge4" class="edge">
<title>d&#45;&#45;D</title>
<path fill="none" stroke="black" d="M276.51,-124.67C226.9,-139.07 116.22,-171.2 66.67,-185.59"/>
</g>
<!-- f -->
<g id="node7" class="node">
<title>f</title>
<ellipse fill="none" stroke="black" cx="330.92" cy="-72.23" rx="27" ry="18"/>
<text text-anchor="middle" x="330.92" y="-68.53" font-family="Helvetica,Arial,sans-serif" font-size="14.00">f</text>
</g>
<!-- d&#45;&#45;f -->
<g id="edge3" class="edge">
<title>d&#45;&#45;f</title>
<path fill="none" stroke="black" d="M312.22,-100.87C314.78,-96.93 317.52,-92.74 320.09,-88.81"/>
</g>
<!-- __1:clusterC -->
<!-- __2:clusterB -->
<!-- __1:clusterC&#45;&#45;__2:clusterB -->
<g id="edge8" class="edge">
<title>__1:clusterC&#45;&#45;__2:clusterB</title>
<path fill="none" stroke="black" d="M128.45,-151.53C170.83,-138.64 226.69,-121.66 266.42,-109.57"/>
</g>
</g>
</svg>
