<?xml version="1.0" encoding="UTF-8" standalone="no"?>
<!DOCTYPE svg PUBLIC "-//W3C//DTD SVG 1.1//EN"
 "http://www.w3.org/Graphics/SVG/1.1/DTD/svg11.dtd">
<!-- Generated by graphviz version 2.45.20200621.0824 (20200621.0824)
 -->
<!-- Title: happiness Pages: 1 -->
<svg width="1051pt" height="931pt"
 viewBox="0.00 0.00 1050.91 930.62" xmlns="http://www.w3.org/2000/svg" xmlns:xlink="http://www.w3.org/1999/xlink">
<g id="graph0" class="graph" transform="scale(1 1) rotate(0) translate(4 926.62)">
<title>happiness</title>
<polygon fill="white" stroke="transparent" points="-4,4 -4,-926.62 1046.91,-926.62 1046.91,4 -4,4"/>
<text text-anchor="middle" x="521.46" y="-907.42" font-family="Times,serif" font-size="14.00">Mind map of Happiness, twopi graph</text>
<!-- Happiness -->
<g id="node1" class="node">
<title>Happiness</title>
<g id="a_node1"><a xlink:href="https://en.wikipedia.org/wiki/Category:Happiness" xlink:title="Happiness">
<ellipse fill="#f0f0ff" fill-opacity="0.627451" stroke="black" stroke-width="0" cx="502.41" cy="-449.81" rx="177.47" ry="44.6"/>
<text text-anchor="middle" x="502.41" y="-437.31" font-family="Chilanka" font-size="50.00" fill="red">Happiness</text>
</a>
</g>
</g>
<!-- Peace -->
<g id="node2" class="node">
<title>Peace</title>
<g id="a_node2"><a xlink:href="https://en.wikipedia.org/wiki/Category:Peace" xlink:title="Peace">
<ellipse fill="#f0f0ff" fill-opacity="0.627451" stroke="black" stroke-width="0" cx="621.85" cy="-530.26" rx="86.03" ry="36.54"/>
<text text-anchor="middle" x="621.85" y="-520.26" font-family="Chilanka" font-size="40.00" fill="indigo">Peace</text>
</a>
</g>
</g>
<!-- Happiness&#45;&#45;Peace -->
<g id="edge1" class="edge">
<title>Happiness&#45;&#45;Peace</title>
<path fill="none" stroke="#f0f0ff" stroke-width="5" d="M564.58,-491.68C568.32,-494.2 572.05,-496.71 575.7,-499.18"/>
</g>
<!-- Love -->
<g id="node3" class="node">
<title>Love</title>
<g id="a_node3"><a xlink:href="https://en.wikipedia.org/wiki/Category:Love" xlink:title="Love">
<ellipse fill="#f0f0ff" fill-opacity="0.627451" stroke="black" stroke-width="0" cx="498.14" cy="-593.75" rx="74.91" ry="36.54"/>
<text text-anchor="middle" x="498.14" y="-583.75" font-family="Chilanka" font-size="40.00" fill="orchid">Love</text>
</a>
</g>
</g>
<!-- Happiness&#45;&#45;Love -->
<g id="edge2" class="edge">
<title>Happiness&#45;&#45;Love</title>
<path fill="none" stroke="#f0f0ff" stroke-width="5" d="M501.08,-494.56C500.49,-514.53 499.8,-537.78 499.24,-556.75"/>
</g>
<!-- Soul -->
<g id="node4" class="node">
<title>Soul</title>
<g id="a_node4"><a xlink:href="https://en.wikipedia.org/wiki/Soul" xlink:title="Soul">
<ellipse fill="#f0f0ff" fill-opacity="0.627451" stroke="black" stroke-width="0" cx="393.33" cy="-543.82" rx="67.35" ry="36.54"/>
<text text-anchor="middle" x="393.33" y="-533.82" font-family="Chilanka" font-size="40.00" fill="indigo">Soul</text>
</a>
</g>
</g>
<!-- Happiness&#45;&#45;Soul -->
<g id="edge3" class="edge">
<title>Happiness&#45;&#45;Soul</title>
<path fill="none" stroke="#f0f0ff" stroke-width="5" d="M452.66,-492.69C444.9,-499.37 437.02,-506.16 429.64,-512.53"/>
</g>
<!-- Mind -->
<g id="node5" class="node">
<title>Mind</title>
<g id="a_node5"><a xlink:href="https://en.wikipedia.org/wiki/Category:Mind" xlink:title="Mind">
<ellipse fill="#f0f0ff" fill-opacity="0.627451" stroke="black" stroke-width="0" cx="362.44" cy="-415.99" rx="73.58" ry="36.54"/>
<text text-anchor="middle" x="362.44" y="-405.99" font-family="Chilanka" font-size="40.00" fill="indigo">Mind</text>
</a>
</g>
</g>
<!-- Happiness&#45;&#45;Mind -->
<g id="edge4" class="edge">
<title>Happiness&#45;&#45;Mind</title>
<path fill="none" stroke="#f0f0ff" stroke-width="5" d="M374.37,-418.87C374.26,-418.84 374.14,-418.81 374.03,-418.79"/>
</g>
<!-- Life -->
<g id="node6" class="node">
<title>Life</title>
<ellipse fill="#f0f0ff" fill-opacity="0.627451" stroke="black" stroke-width="0" cx="498.14" cy="-305.87" rx="60.62" ry="36.54"/>
<text text-anchor="middle" x="498.14" y="-295.87" font-family="Chilanka" font-size="40.00" fill="seagreen">Life</text>
</g>
<!-- Happiness&#45;&#45;Life -->
<g id="edge5" class="edge">
<title>Happiness&#45;&#45;Life</title>
<path fill="none" stroke="#f0f0ff" stroke-width="5" d="M501.08,-405.06C500.49,-385.09 499.8,-361.84 499.24,-342.87"/>
</g>
<!-- Health -->
<g id="node7" class="node">
<title>Health</title>
<ellipse fill="#f0f0ff" fill-opacity="0.627451" stroke="black" stroke-width="0" cx="634.19" cy="-391.76" rx="88.28" ry="36.54"/>
<text text-anchor="middle" x="634.19" y="-381.76" font-family="Chilanka" font-size="40.00" fill="mediumvioletred">Health</text>
</g>
<!-- Happiness&#45;&#45;Health -->
<g id="edge6" class="edge">
<title>Happiness&#45;&#45;Health</title>
<path fill="none" stroke="#f0f0ff" stroke-width="5" d="M590.31,-411.09C590.41,-411.05 590.5,-411.01 590.59,-410.97"/>
</g>
<!-- Connection -->
<g id="node14" class="node">
<title>Connection</title>
<ellipse fill="#f0f0ff" fill-opacity="0.627451" stroke="black" stroke-width="0" cx="782.35" cy="-517.46" rx="107.46" ry="25.41"/>
<text text-anchor="middle" x="782.35" y="-511.46" font-family="Chilanka" font-size="25.00" fill="indigo">Connection</text>
</g>
<!-- Peace&#45;&#45;Connection -->
<g id="edge13" class="edge">
<title>Peace&#45;&#45;Connection</title>
<path fill="none" stroke="#f0f0ff" stroke-width="5" d="M706.8,-523.48C706.95,-523.47 707.1,-523.46 707.25,-523.45"/>
</g>
<!-- Relationship -->
<g id="node15" class="node">
<title>Relationship</title>
<ellipse fill="#f0f0ff" fill-opacity="0.627451" stroke="black" stroke-width="0" cx="731.33" cy="-624.57" rx="109.7" ry="25.41"/>
<text text-anchor="middle" x="731.33" y="-618.57" font-family="Chilanka" font-size="25.00" fill="indigo">Relationship</text>
</g>
<!-- Peace&#45;&#45;Relationship -->
<g id="edge14" class="edge">
<title>Peace&#45;&#45;Relationship</title>
<path fill="none" stroke="#f0f0ff" stroke-width="5" d="M660.14,-563.24C674.07,-575.25 689.58,-588.6 702.55,-599.78"/>
</g>
<!-- Caring -->
<g id="node16" class="node">
<title>Caring</title>
<ellipse fill="#f0f0ff" fill-opacity="0.627451" stroke="black" stroke-width="0" cx="656.15" cy="-693.34" rx="64.19" ry="25.41"/>
<text text-anchor="middle" x="656.15" y="-687.34" font-family="Chilanka" font-size="25.00" fill="indigo">Caring</text>
</g>
<!-- Peace&#45;&#45;Caring -->
<g id="edge15" class="edge">
<title>Peace&#45;&#45;Caring</title>
<path fill="none" stroke="#f0f0ff" stroke-width="5" d="M629.63,-567.26C636.08,-597.9 645.07,-640.64 650.75,-667.64"/>
</g>
<!-- Giving -->
<g id="node8" class="node">
<title>Giving</title>
<ellipse fill="#f0f0ff" fill-opacity="0.627451" stroke="black" stroke-width="0" cx="578.32" cy="-727.63" rx="64.19" ry="25.41"/>
<text text-anchor="middle" x="578.32" y="-721.63" font-family="Chilanka" font-size="25.00" fill="indigo">Giving</text>
</g>
<!-- Love&#45;&#45;Giving -->
<g id="edge7" class="edge">
<title>Love&#45;&#45;Giving</title>
<path fill="none" stroke="#f0f0ff" stroke-width="5" d="M519.42,-629.27C533.25,-652.36 550.93,-681.89 563.3,-702.54"/>
</g>
<!-- People -->
<g id="node9" class="node">
<title>People</title>
<ellipse fill="#f0f0ff" fill-opacity="0.627451" stroke="black" stroke-width="0" cx="493.88" cy="-737.68" rx="65.11" ry="25.41"/>
<text text-anchor="middle" x="493.88" y="-731.68" font-family="Chilanka" font-size="25.00" fill="indigo">People</text>
</g>
<!-- Love&#45;&#45;People -->
<g id="edge8" class="edge">
<title>Love&#45;&#45;People</title>
<path fill="none" stroke="#f0f0ff" stroke-width="5" d="M497.05,-630.81C496.29,-656.3 495.31,-689.5 494.64,-712.08"/>
</g>
<!-- Beauty -->
<g id="node10" class="node">
<title>Beauty</title>
<ellipse fill="#f0f0ff" fill-opacity="0.627451" stroke="black" stroke-width="0" cx="410.17" cy="-722.64" rx="65.11" ry="25.41"/>
<text text-anchor="middle" x="410.17" y="-716.64" font-family="Chilanka" font-size="25.00" fill="indigo">Beauty</text>
</g>
<!-- Love&#45;&#45;Beauty -->
<g id="edge9" class="edge">
<title>Love&#45;&#45;Beauty</title>
<path fill="none" stroke="#f0f0ff" stroke-width="5" d="M474.34,-628.63C459.38,-650.55 440.44,-678.29 427.03,-697.94"/>
</g>
<!-- Emotions -->
<g id="node22" class="node">
<title>Emotions</title>
<g id="a_node22"><a xlink:href="https://en.wikipedia.org/wiki/Soul" xlink:title="Emotions">
<ellipse fill="#f0f0ff" fill-opacity="0.627451" stroke="black" stroke-width="0" cx="348.67" cy="-693.34" rx="88.28" ry="25.41"/>
<text text-anchor="middle" x="348.67" y="-687.34" font-family="Chilanka" font-size="25.00" fill="indigo">Emotions</text>
</a>
</g>
</g>
<!-- Soul&#45;&#45;Emotions -->
<g id="edge21" class="edge">
<title>Soul&#45;&#45;Emotions</title>
<path fill="none" stroke="#f0f0ff" stroke-width="5" d="M382.4,-580.39C374.3,-607.54 363.45,-643.87 356.27,-667.91"/>
</g>
<!-- Self -->
<g id="node23" class="node">
<title>Self</title>
<ellipse fill="#f0f0ff" fill-opacity="0.627451" stroke="black" stroke-width="0" cx="284.25" cy="-637.82" rx="45.92" ry="25.41"/>
<text text-anchor="middle" x="284.25" y="-631.82" font-family="Chilanka" font-size="25.00" fill="indigo">Self</text>
</g>
<!-- Soul&#45;&#45;Self -->
<g id="edge22" class="edge">
<title>Soul&#45;&#45;Self</title>
<path fill="none" stroke="#f0f0ff" stroke-width="5" d="M357.31,-574.86C341.55,-588.44 323.44,-604.04 309.2,-616.32"/>
</g>
<!-- Meditation -->
<g id="node24" class="node">
<title>Meditation</title>
<ellipse fill="#f0f0ff" fill-opacity="0.627451" stroke="black" stroke-width="0" cx="238.85" cy="-565.91" rx="93.18" ry="25.41"/>
<text text-anchor="middle" x="238.85" y="-559.91" font-family="Chilanka" font-size="25.00" fill="indigo">Meditation</text>
</g>
<!-- Soul&#45;&#45;Meditation -->
<g id="edge23" class="edge">
<title>Soul&#45;&#45;Meditation</title>
<path fill="none" stroke="#f0f0ff" stroke-width="5" d="M328.26,-553.12C326.12,-553.43 323.96,-553.74 321.8,-554.05"/>
</g>
<!-- Cognition -->
<g id="node19" class="node">
<title>Cognition</title>
<ellipse fill="#f0f0ff" fill-opacity="0.627451" stroke="black" stroke-width="0" cx="214.41" cy="-449.81" rx="89.61" ry="25.41"/>
<text text-anchor="middle" x="214.41" y="-443.81" font-family="Chilanka" font-size="25.00" fill="indigo">Cognition</text>
</g>
<!-- Mind&#45;&#45;Cognition -->
<g id="edge18" class="edge">
<title>Mind&#45;&#45;Cognition</title>
<path fill="none" stroke="#f0f0ff" stroke-width="5" d="M295.36,-431.32C291.84,-432.12 288.3,-432.93 284.77,-433.73"/>
</g>
<!-- Consciousness -->
<g id="node20" class="node">
<title>Consciousness</title>
<ellipse fill="#f0f0ff" fill-opacity="0.627451" stroke="black" stroke-width="0" cx="232.43" cy="-349.53" rx="135.11" ry="25.41"/>
<text text-anchor="middle" x="232.43" y="-343.53" font-family="Chilanka" font-size="25.00" fill="indigo">Consciousness</text>
</g>
<!-- Mind&#45;&#45;Consciousness -->
<g id="edge19" class="edge">
<title>Mind&#45;&#45;Consciousness</title>
<path fill="none" stroke="#f0f0ff" stroke-width="5" d="M310.68,-389.53C300.35,-384.24 289.54,-378.72 279.38,-373.52"/>
</g>
<!-- Intelligence -->
<g id="node21" class="node">
<title>Intelligence</title>
<ellipse fill="#f0f0ff" fill-opacity="0.627451" stroke="black" stroke-width="0" cx="263.54" cy="-288.92" rx="103.48" ry="25.41"/>
<text text-anchor="middle" x="263.54" y="-282.92" font-family="Chilanka" font-size="25.00" fill="indigo">Intelligence</text>
</g>
<!-- Mind&#45;&#45;Intelligence -->
<g id="edge20" class="edge">
<title>Mind&#45;&#45;Intelligence</title>
<path fill="none" stroke="#f0f0ff" stroke-width="5" d="M335.68,-381.6C319.09,-360.29 298.15,-333.38 283.11,-314.06"/>
</g>
<!-- Success -->
<g id="node11" class="node">
<title>Success</title>
<ellipse fill="#f0f0ff" fill-opacity="0.627451" stroke="black" stroke-width="0" cx="348.67" cy="-206.28" rx="77.56" ry="25.41"/>
<text text-anchor="middle" x="348.67" y="-200.28" font-family="Chilanka" font-size="25.00" fill="goldenrod">Success</text>
</g>
<!-- Life&#45;&#45;Success -->
<g id="edge10" class="edge">
<title>Life&#45;&#45;Success</title>
<path fill="none" stroke="#f0f0ff" stroke-width="5" d="M456.9,-278.4C433.75,-262.96 405.18,-243.93 383.21,-229.29"/>
</g>
<!-- Nature -->
<g id="node12" class="node">
<title>Nature</title>
<ellipse fill="#f0f0ff" fill-opacity="0.627451" stroke="black" stroke-width="0" cx="476.84" cy="-162.95" rx="62.45" ry="25.41"/>
<text text-anchor="middle" x="476.84" y="-156.95" font-family="Chilanka" font-size="25.00" fill="indigo">Nature</text>
</g>
<!-- Life&#45;&#45;Nature -->
<g id="edge11" class="edge">
<title>Life&#45;&#45;Nature</title>
<path fill="none" stroke="#f0f0ff" stroke-width="5" d="M492.66,-269.07C488.88,-243.76 483.97,-210.8 480.63,-188.37"/>
</g>
<!-- Wellbeing -->
<g id="node13" class="node">
<title>Wellbeing</title>
<ellipse fill="#f0f0ff" fill-opacity="0.627451" stroke="black" stroke-width="0" cx="626.27" cy="-189.8" rx="90.52" ry="25.41"/>
<text text-anchor="middle" x="626.27" y="-183.8" font-family="Chilanka" font-size="25.00" fill="indigo">Wellbeing</text>
</g>
<!-- Life&#45;&#45;Wellbeing -->
<g id="edge12" class="edge">
<title>Life&#45;&#45;Wellbeing</title>
<path fill="none" stroke="#f0f0ff" stroke-width="5" d="M532.14,-275.07C553.2,-256 579.86,-231.85 599.42,-214.13"/>
</g>
<!-- Body -->
<g id="node17" class="node">
<title>Body</title>
<ellipse fill="#f0f0ff" fill-opacity="0.627451" stroke="black" stroke-width="0" cx="750.39" cy="-303.35" rx="50.82" ry="25.41"/>
<text text-anchor="middle" x="750.39" y="-297.35" font-family="Chilanka" font-size="25.00" fill="indigo">Body</text>
</g>
<!-- Health&#45;&#45;Body -->
<g id="edge16" class="edge">
<title>Health&#45;&#45;Body</title>
<path fill="none" stroke="#f0f0ff" stroke-width="5" d="M676.8,-359.34C691.96,-347.81 708.63,-335.13 722.27,-324.75"/>
</g>
<!-- Recreation -->
<g id="node18" class="node">
<title>Recreation</title>
<ellipse fill="#f0f0ff" fill-opacity="0.627451" stroke="black" stroke-width="0" cx="788.39" cy="-415.75" rx="96.75" ry="25.41"/>
<text text-anchor="middle" x="788.39" y="-409.75" font-family="Chilanka" font-size="25.00" fill="indigo">Recreation</text>
</g>
<!-- Health&#45;&#45;Recreation -->
<g id="edge17" class="edge">
<title>Health&#45;&#45;Recreation</title>
<path fill="none" stroke="#f0f0ff" stroke-width="5" d="M717.16,-404.67C717.3,-404.69 717.44,-404.71 717.59,-404.73"/>
</g>
<!-- Feelings -->
<g id="node30" class="node">
<title>Feelings</title>
<ellipse fill="#f0f0ff" fill-opacity="0.627451" stroke="black" stroke-width="0" cx="640.77" cy="-859.06" rx="45.49" ry="18"/>
<text text-anchor="middle" x="640.77" y="-855.36" font-family="Chilanka" font-size="14.00" fill="indigo">Feelings</text>
</g>
<!-- Giving&#45;&#45;Feelings -->
<g id="edge29" class="edge">
<title>Giving&#45;&#45;Feelings</title>
<path fill="none" stroke="#f0f0ff" stroke-width="5" d="M590.22,-752.66C602.53,-778.57 621.46,-818.41 632.32,-841.28"/>
</g>
<!-- Support -->
<g id="node31" class="node">
<title>Support</title>
<ellipse fill="#f0f0ff" fill-opacity="0.627451" stroke="black" stroke-width="0" cx="591.39" cy="-872.55" rx="45.49" ry="18"/>
<text text-anchor="middle" x="591.39" y="-868.85" font-family="Chilanka" font-size="14.00" fill="indigo">Support</text>
</g>
<!-- Giving&#45;&#45;Support -->
<g id="edge30" class="edge">
<title>Giving&#45;&#45;Support</title>
<path fill="none" stroke="#f0f0ff" stroke-width="5" d="M580.63,-753.2C583.25,-782.29 587.47,-829.05 589.77,-854.55"/>
</g>
<!-- Family -->
<g id="node27" class="node">
<title>Family</title>
<ellipse fill="#f0f0ff" fill-opacity="0.627451" stroke="black" stroke-width="0" cx="540.77" cy="-880.1" rx="36.29" ry="18"/>
<text text-anchor="middle" x="540.77" y="-876.4" font-family="Chilanka" font-size="14.00" fill="indigo">Family</text>
</g>
<!-- People&#45;&#45;Family -->
<g id="edge26" class="edge">
<title>People&#45;&#45;Family</title>
<path fill="none" stroke="#f0f0ff" stroke-width="5" d="M502.26,-763.15C511.64,-791.63 526.59,-837.05 534.84,-862.08"/>
</g>
<!-- Partner -->
<g id="node28" class="node">
<title>Partner</title>
<ellipse fill="#f0f0ff" fill-opacity="0.627451" stroke="black" stroke-width="0" cx="489.61" cy="-881.62" rx="42.49" ry="18"/>
<text text-anchor="middle" x="489.61" y="-877.92" font-family="Chilanka" font-size="14.00" fill="indigo">Partner</text>
</g>
<!-- People&#45;&#45;Partner -->
<g id="edge27" class="edge">
<title>People&#45;&#45;Partner</title>
<path fill="none" stroke="#f0f0ff" stroke-width="5" d="M493.11,-763.42C492.26,-792.2 490.9,-838.11 490.15,-863.4"/>
</g>
<!-- Hug -->
<g id="node29" class="node">
<title>Hug</title>
<ellipse fill="#f0f0ff" fill-opacity="0.627451" stroke="black" stroke-width="0" cx="438.63" cy="-877.08" rx="27" ry="18"/>
<text text-anchor="middle" x="438.63" y="-873.38" font-family="Chilanka" font-size="14.00" fill="indigo">Hug</text>
</g>
<!-- People&#45;&#45;Hug -->
<g id="edge28" class="edge">
<title>People&#45;&#45;Hug</title>
<path fill="none" stroke="#f0f0ff" stroke-width="5" d="M483.87,-762.93C472.8,-790.86 455.25,-835.13 445.59,-859.52"/>
</g>
<!-- Esthetics -->
<g id="node25" class="node">
<title>Esthetics</title>
<ellipse fill="#f0f0ff" fill-opacity="0.627451" stroke="black" stroke-width="0" cx="388.54" cy="-866.53" rx="50.09" ry="18"/>
<text text-anchor="middle" x="388.54" y="-862.83" font-family="Chilanka" font-size="14.00" fill="indigo">Esthetics</text>
</g>
<!-- Beauty&#45;&#45;Esthetics -->
<g id="edge24" class="edge">
<title>Beauty&#45;&#45;Esthetics</title>
<path fill="none" stroke="#f0f0ff" stroke-width="5" d="M406.31,-748.37C401.98,-777.14 395.08,-823.03 391.28,-848.32"/>
</g>
<!-- Art -->
<g id="node26" class="node">
<title>Art</title>
<ellipse fill="#f0f0ff" fill-opacity="0.627451" stroke="black" stroke-width="0" cx="340.05" cy="-850.14" rx="27" ry="18"/>
<text text-anchor="middle" x="340.05" y="-846.44" font-family="Chilanka" font-size="14.00" fill="indigo">Art</text>
</g>
<!-- Beauty&#45;&#45;Art -->
<g id="edge25" class="edge">
<title>Beauty&#45;&#45;Art</title>
<path fill="none" stroke="#f0f0ff" stroke-width="5" d="M396.32,-747.83C382.43,-773.09 361.43,-811.27 349.4,-833.15"/>
</g>
<!-- Creation -->
<g id="node35" class="node">
<title>Creation</title>
<ellipse fill="#f0f0ff" fill-opacity="0.627451" stroke="black" stroke-width="0" cx="210.82" cy="-131.07" rx="44.69" ry="18"/>
<text text-anchor="middle" x="210.82" y="-127.37" font-family="Chilanka" font-size="14.00" fill="indigo">Creation</text>
</g>
<!-- Success&#45;&#45;Creation -->
<g id="edge34" class="edge">
<title>Success&#45;&#45;Creation</title>
<path fill="none" stroke="#f0f0ff" stroke-width="5" d="M308.43,-184.32C285.7,-171.92 257.91,-156.76 237.8,-145.79"/>
</g>
<!-- Profit -->
<g id="node36" class="node">
<title>Profit</title>
<ellipse fill="#f0f0ff" fill-opacity="0.627451" stroke="black" stroke-width="0" cx="250.56" cy="-98.82" rx="31.7" ry="18"/>
<text text-anchor="middle" x="250.56" y="-95.12" font-family="Chilanka" font-size="14.00" fill="indigo">Profit</text>
</g>
<!-- Success&#45;&#45;Profit -->
<g id="edge35" class="edge">
<title>Success&#45;&#45;Profit</title>
<path fill="none" stroke="#f0f0ff" stroke-width="5" d="M326.16,-181.62C307.49,-161.18 281.49,-132.69 265.35,-115.02"/>
</g>
<!-- Win -->
<g id="node37" class="node">
<title>Win</title>
<ellipse fill="#f0f0ff" fill-opacity="0.627451" stroke="black" stroke-width="0" cx="293.85" cy="-71.49" rx="27" ry="18"/>
<text text-anchor="middle" x="293.85" y="-67.79" font-family="Chilanka" font-size="14.00" fill="indigo">Win</text>
</g>
<!-- Success&#45;&#45;Win -->
<g id="edge36" class="edge">
<title>Success&#45;&#45;Win</title>
<path fill="none" stroke="#f0f0ff" stroke-width="5" d="M338.36,-180.93C327.44,-154.08 310.49,-112.43 300.97,-89.01"/>
</g>
<!-- Career -->
<g id="node38" class="node">
<title>Career</title>
<ellipse fill="#f0f0ff" fill-opacity="0.627451" stroke="black" stroke-width="0" cx="340.05" cy="-49.48" rx="37.89" ry="18"/>
<text text-anchor="middle" x="340.05" y="-45.78" font-family="Chilanka" font-size="14.00" fill="indigo">Career</text>
</g>
<!-- Success&#45;&#45;Career -->
<g id="edge37" class="edge">
<title>Success&#45;&#45;Career</title>
<path fill="none" stroke="#f0f0ff" stroke-width="5" d="M347.27,-180.74C345.52,-148.98 342.59,-95.55 341.05,-67.66"/>
</g>
<!-- Ocean -->
<g id="node74" class="node">
<title>Ocean</title>
<ellipse fill="#f0f0ff" fill-opacity="0.627451" stroke="black" stroke-width="0" cx="388.54" cy="-33.09" rx="38.99" ry="18"/>
<text text-anchor="middle" x="388.54" y="-29.39" font-family="Chilanka" font-size="14.00" fill="indigo">Ocean</text>
</g>
<!-- Nature&#45;&#45;Ocean -->
<g id="edge74" class="edge">
<title>Nature&#45;&#45;Ocean</title>
<path fill="none" stroke="#f0f0ff" stroke-width="5" d="M460.02,-138.22C442.51,-112.46 415.54,-72.79 400.22,-50.27"/>
</g>
<!-- Forest -->
<g id="node75" class="node">
<title>Forest</title>
<ellipse fill="#f0f0ff" fill-opacity="0.627451" stroke="black" stroke-width="0" cx="438.63" cy="-22.54" rx="38.19" ry="18"/>
<text text-anchor="middle" x="438.63" y="-18.84" font-family="Chilanka" font-size="14.00" fill="indigo">Forest</text>
</g>
<!-- Nature&#45;&#45;Forest -->
<g id="edge75" class="edge">
<title>Nature&#45;&#45;Forest</title>
<path fill="none" stroke="#f0f0ff" stroke-width="5" d="M469.92,-137.52C462.31,-109.55 450.26,-65.29 443.55,-40.64"/>
</g>
<!-- Pets -->
<g id="node76" class="node">
<title>Pets</title>
<ellipse fill="#f0f0ff" fill-opacity="0.627451" stroke="black" stroke-width="0" cx="489.61" cy="-18" rx="28.7" ry="18"/>
<text text-anchor="middle" x="489.61" y="-14.3" font-family="Chilanka" font-size="14.00" fill="indigo">Pets</text>
</g>
<!-- Nature&#45;&#45;Pets -->
<g id="edge76" class="edge">
<title>Nature&#45;&#45;Pets</title>
<path fill="none" stroke="#f0f0ff" stroke-width="5" d="M479.09,-137.37C481.66,-108.27 485.78,-61.51 488.02,-36"/>
</g>
<!-- Wildlife -->
<g id="node77" class="node">
<title>Wildlife</title>
<ellipse fill="#f0f0ff" fill-opacity="0.627451" stroke="black" stroke-width="0" cx="540.77" cy="-19.52" rx="39.79" ry="18"/>
<text text-anchor="middle" x="540.77" y="-15.82" font-family="Chilanka" font-size="14.00" fill="indigo">Wildlife</text>
</g>
<!-- Nature&#45;&#45;Wildlife -->
<g id="edge77" class="edge">
<title>Nature&#45;&#45;Wildlife</title>
<path fill="none" stroke="#f0f0ff" stroke-width="5" d="M488.12,-137.64C500.95,-108.84 521.58,-62.57 532.83,-37.33"/>
</g>
<!-- Home -->
<g id="node48" class="node">
<title>Home</title>
<ellipse fill="#f0f0ff" fill-opacity="0.627451" stroke="black" stroke-width="0" cx="591.39" cy="-27.07" rx="33.6" ry="18"/>
<text text-anchor="middle" x="591.39" y="-23.37" font-family="Chilanka" font-size="14.00" fill="indigo">Home</text>
</g>
<!-- Wellbeing&#45;&#45;Home -->
<g id="edge48" class="edge">
<title>Wellbeing&#45;&#45;Home</title>
<path fill="none" stroke="#f0f0ff" stroke-width="5" d="M620.82,-164.38C613.73,-131.3 601.52,-74.33 595.29,-45.27"/>
</g>
<!-- Work -->
<g id="node49" class="node">
<title>Work</title>
<ellipse fill="#f0f0ff" fill-opacity="0.627451" stroke="black" stroke-width="0" cx="640.77" cy="-40.57" rx="33.29" ry="18"/>
<text text-anchor="middle" x="640.77" y="-36.87" font-family="Chilanka" font-size="14.00" fill="indigo">Work</text>
</g>
<!-- Wellbeing&#45;&#45;Work -->
<g id="edge49" class="edge">
<title>Wellbeing&#45;&#45;Work</title>
<path fill="none" stroke="#f0f0ff" stroke-width="5" d="M628.76,-164.15C631.68,-134.15 636.43,-85.24 638.99,-58.84"/>
</g>
<!-- Finance -->
<g id="node50" class="node">
<title>Finance</title>
<ellipse fill="#f0f0ff" fill-opacity="0.627451" stroke="black" stroke-width="0" cx="688.2" cy="-59.8" rx="44.69" ry="18"/>
<text text-anchor="middle" x="688.2" y="-56.1" font-family="Chilanka" font-size="14.00" fill="indigo">Finance</text>
</g>
<!-- Wellbeing&#45;&#45;Finance -->
<g id="edge50" class="edge">
<title>Wellbeing&#45;&#45;Finance</title>
<path fill="none" stroke="#f0f0ff" stroke-width="5" d="M638.36,-164.43C650.54,-138.86 669.02,-100.07 679.72,-77.6"/>
</g>
<!-- Clothes -->
<g id="node51" class="node">
<title>Clothes</title>
<ellipse fill="#f0f0ff" fill-opacity="0.627451" stroke="black" stroke-width="0" cx="733.02" cy="-84.51" rx="42.49" ry="18"/>
<text text-anchor="middle" x="733.02" y="-80.81" font-family="Chilanka" font-size="14.00" fill="indigo">Clothes</text>
</g>
<!-- Wellbeing&#45;&#45;Clothes -->
<g id="edge51" class="edge">
<title>Wellbeing&#45;&#45;Clothes</title>
<path fill="none" stroke="#f0f0ff" stroke-width="5" d="M651.3,-165.12C671.27,-145.42 698.69,-118.38 716.14,-101.17"/>
</g>
<!-- Transport -->
<g id="node52" class="node">
<title>Transport</title>
<ellipse fill="#f0f0ff" fill-opacity="0.627451" stroke="black" stroke-width="0" cx="774.61" cy="-114.35" rx="53.09" ry="18"/>
<text text-anchor="middle" x="774.61" y="-110.65" font-family="Chilanka" font-size="14.00" fill="indigo">Transport</text>
</g>
<!-- Wellbeing&#45;&#45;Transport -->
<g id="edge52" class="edge">
<title>Wellbeing&#45;&#45;Transport</title>
<path fill="none" stroke="#f0f0ff" stroke-width="5" d="M670.38,-167.37C694.46,-155.12 723.63,-140.28 744.98,-129.42"/>
</g>
<!-- Acceptance -->
<g id="node56" class="node">
<title>Acceptance</title>
<ellipse fill="#f0f0ff" fill-opacity="0.627451" stroke="black" stroke-width="0" cx="933.65" cy="-475.4" rx="59.59" ry="18"/>
<text text-anchor="middle" x="933.65" y="-471.7" font-family="Chilanka" font-size="14.00" fill="indigo">Acceptance</text>
</g>
<!-- Connection&#45;&#45;Acceptance -->
<g id="edge56" class="edge">
<title>Connection&#45;&#45;Acceptance</title>
<path fill="none" stroke="#f0f0ff" stroke-width="5" d="M852.25,-498.03C864.94,-494.5 877.86,-490.91 889.55,-487.66"/>
</g>
<!-- Forgiveness -->
<g id="node57" class="node">
<title>Forgiveness</title>
<ellipse fill="#f0f0ff" fill-opacity="0.627451" stroke="black" stroke-width="0" cx="927.6" cy="-526.23" rx="61.99" ry="18"/>
<text text-anchor="middle" x="927.6" y="-522.53" font-family="Chilanka" font-size="14.00" fill="indigo">Forgiveness</text>
</g>
<!-- Connection&#45;&#45;Forgiveness -->
<g id="edge57" class="edge">
<title>Connection&#45;&#45;Forgiveness</title>
<path fill="none" stroke="#f0f0ff" stroke-width="5" d="M886.75,-523.76C886.84,-523.77 886.93,-523.77 887.02,-523.78"/>
</g>
<!-- Gratitude -->
<g id="node58" class="node">
<title>Gratitude</title>
<ellipse fill="#f0f0ff" fill-opacity="0.627451" stroke="black" stroke-width="0" cx="915.58" cy="-575.98" rx="49.29" ry="18"/>
<text text-anchor="middle" x="915.58" y="-572.28" font-family="Chilanka" font-size="14.00" fill="indigo">Gratitude</text>
</g>
<!-- Connection&#45;&#45;Gratitude -->
<g id="edge58" class="edge">
<title>Connection&#45;&#45;Gratitude</title>
<path fill="none" stroke="#f0f0ff" stroke-width="5" d="M833.48,-539.92C850.36,-547.33 868.64,-555.36 883.66,-561.96"/>
</g>
<!-- Agreement -->
<g id="node59" class="node">
<title>Agreement</title>
<ellipse fill="#f0f0ff" fill-opacity="0.627451" stroke="black" stroke-width="0" cx="897.75" cy="-623.96" rx="55.79" ry="18"/>
<text text-anchor="middle" x="897.75" y="-620.26" font-family="Chilanka" font-size="14.00" fill="indigo">Agreement</text>
</g>
<!-- Connection&#45;&#45;Agreement -->
<g id="edge59" class="edge">
<title>Connection&#45;&#45;Agreement</title>
<path fill="none" stroke="#f0f0ff" stroke-width="5" d="M809.12,-542.16C830.56,-561.95 860.09,-589.2 879.05,-606.7"/>
</g>
<!-- Friends -->
<g id="node53" class="node">
<title>Friends</title>
<ellipse fill="#f0f0ff" fill-opacity="0.627451" stroke="black" stroke-width="0" cx="874.38" cy="-669.5" rx="44.39" ry="18"/>
<text text-anchor="middle" x="874.38" y="-665.8" font-family="Chilanka" font-size="14.00" fill="indigo">Friends</text>
</g>
<!-- Relationship&#45;&#45;Friends -->
<g id="edge53" class="edge">
<title>Relationship&#45;&#45;Friends</title>
<path fill="none" stroke="#f0f0ff" stroke-width="5" d="M796.58,-645.06C811.31,-649.69 826.41,-654.43 839.34,-658.49"/>
</g>
<!-- Community -->
<g id="node54" class="node">
<title>Community</title>
<ellipse fill="#f0f0ff" fill-opacity="0.627451" stroke="black" stroke-width="0" cx="845.79" cy="-711.95" rx="55.79" ry="18"/>
<text text-anchor="middle" x="845.79" y="-708.25" font-family="Chilanka" font-size="14.00" fill="indigo">Community</text>
</g>
<!-- Relationship&#45;&#45;Community -->
<g id="edge54" class="edge">
<title>Relationship&#45;&#45;Community</title>
<path fill="none" stroke="#f0f0ff" stroke-width="5" d="M763.52,-649.14C782.82,-663.88 806.87,-682.24 823.97,-695.29"/>
</g>
<!-- Society -->
<g id="node55" class="node">
<title>Society</title>
<ellipse fill="#f0f0ff" fill-opacity="0.627451" stroke="black" stroke-width="0" cx="812.37" cy="-750.72" rx="41.69" ry="18"/>
<text text-anchor="middle" x="812.37" y="-747.02" font-family="Chilanka" font-size="14.00" fill="indigo">Society</text>
</g>
<!-- Relationship&#45;&#45;Society -->
<g id="edge55" class="edge">
<title>Relationship&#45;&#45;Society</title>
<path fill="none" stroke="#f0f0ff" stroke-width="5" d="M747.54,-649.79C763.43,-674.53 787.23,-711.59 801.15,-733.24"/>
</g>
<!-- Respect -->
<g id="node60" class="node">
<title>Respect</title>
<ellipse fill="#f0f0ff" fill-opacity="0.627451" stroke="black" stroke-width="0" cx="774.61" cy="-785.27" rx="46.29" ry="18"/>
<text text-anchor="middle" x="774.61" y="-781.57" font-family="Chilanka" font-size="14.00" fill="indigo">Respect</text>
</g>
<!-- Caring&#45;&#45;Respect -->
<g id="edge60" class="edge">
<title>Caring&#45;&#45;Respect</title>
<path fill="none" stroke="#f0f0ff" stroke-width="5" d="M685.43,-716.07C706.67,-732.55 734.88,-754.44 753.84,-769.15"/>
</g>
<!-- Empathy -->
<g id="node61" class="node">
<title>Empathy</title>
<ellipse fill="#f0f0ff" fill-opacity="0.627451" stroke="black" stroke-width="0" cx="733.02" cy="-815.11" rx="46.29" ry="18"/>
<text text-anchor="middle" x="733.02" y="-811.41" font-family="Chilanka" font-size="14.00" fill="indigo">Empathy</text>
</g>
<!-- Caring&#45;&#45;Empathy -->
<g id="edge61" class="edge">
<title>Caring&#45;&#45;Empathy</title>
<path fill="none" stroke="#f0f0ff" stroke-width="5" d="M671.89,-718.28C686.74,-741.79 708.63,-776.46 721.79,-797.31"/>
</g>
<!-- Help -->
<g id="node62" class="node">
<title>Help</title>
<ellipse fill="#f0f0ff" fill-opacity="0.627451" stroke="black" stroke-width="0" cx="688.2" cy="-839.82" rx="27.9" ry="18"/>
<text text-anchor="middle" x="688.2" y="-836.12" font-family="Chilanka" font-size="14.00" fill="indigo">Help</text>
</g>
<!-- Caring&#45;&#45;Help -->
<g id="edge62" class="edge">
<title>Caring&#45;&#45;Help</title>
<path fill="none" stroke="#f0f0ff" stroke-width="5" d="M661.73,-718.86C668.19,-748.36 678.65,-796.18 684.29,-821.97"/>
</g>
<!-- Medicine -->
<g id="node43" class="node">
<title>Medicine</title>
<ellipse fill="#f0f0ff" fill-opacity="0.627451" stroke="black" stroke-width="0" cx="812.37" cy="-148.9" rx="48.19" ry="18"/>
<text text-anchor="middle" x="812.37" y="-145.2" font-family="Chilanka" font-size="14.00" fill="indigo">Medicine</text>
</g>
<!-- Body&#45;&#45;Medicine -->
<g id="edge43" class="edge">
<title>Body&#45;&#45;Medicine</title>
<path fill="none" stroke="#f0f0ff" stroke-width="5" d="M760.49,-278.19C773.04,-246.91 794.16,-194.28 805.19,-166.81"/>
</g>
<!-- Exercises -->
<g id="node44" class="node">
<title>Exercises</title>
<ellipse fill="#f0f0ff" fill-opacity="0.627451" stroke="black" stroke-width="0" cx="845.79" cy="-187.67" rx="50.89" ry="18"/>
<text text-anchor="middle" x="845.79" y="-183.97" font-family="Chilanka" font-size="14.00" fill="indigo">Exercises</text>
</g>
<!-- Body&#45;&#45;Exercises -->
<g id="edge44" class="edge">
<title>Body&#45;&#45;Exercises</title>
<path fill="none" stroke="#f0f0ff" stroke-width="5" d="M769.93,-279.66C788.13,-257.59 814.87,-225.17 831.26,-205.29"/>
</g>
<!-- Nutrition -->
<g id="node45" class="node">
<title>Nutrition</title>
<ellipse fill="#f0f0ff" fill-opacity="0.627451" stroke="black" stroke-width="0" cx="874.38" cy="-230.12" rx="46.59" ry="18"/>
<text text-anchor="middle" x="874.38" y="-226.42" font-family="Chilanka" font-size="14.00" fill="indigo">Nutrition</text>
</g>
<!-- Body&#45;&#45;Nutrition -->
<g id="edge45" class="edge">
<title>Body&#45;&#45;Nutrition</title>
<path fill="none" stroke="#f0f0ff" stroke-width="5" d="M783.29,-283.92C803.81,-271.8 829.83,-256.44 848.8,-245.23"/>
</g>
<!-- Water -->
<g id="node46" class="node">
<title>Water</title>
<ellipse fill="#f0f0ff" fill-opacity="0.627451" stroke="black" stroke-width="0" cx="897.75" cy="-275.66" rx="36" ry="18"/>
<text text-anchor="middle" x="897.75" y="-271.96" font-family="Chilanka" font-size="14.00" fill="indigo">Water</text>
</g>
<!-- Body&#45;&#45;Water -->
<g id="edge46" class="edge">
<title>Body&#45;&#45;Water</title>
<path fill="none" stroke="#f0f0ff" stroke-width="5" d="M798.24,-294.36C819.75,-290.32 844.63,-285.64 864.13,-281.98"/>
</g>
<!-- Heart -->
<g id="node47" class="node">
<title>Heart</title>
<ellipse fill="#f0f0ff" fill-opacity="0.627451" stroke="black" stroke-width="0" cx="915.58" cy="-323.64" rx="33.29" ry="18"/>
<text text-anchor="middle" x="915.58" y="-319.94" font-family="Chilanka" font-size="14.00" fill="indigo">Heart</text>
</g>
<!-- Body&#45;&#45;Heart -->
<g id="edge47" class="edge">
<title>Body&#45;&#45;Heart</title>
<path fill="none" stroke="#f0f0ff" stroke-width="5" d="M799.95,-309.44C826.85,-312.74 859.34,-316.73 883.02,-319.64"/>
</g>
<!-- Leisure -->
<g id="node39" class="node">
<title>Leisure</title>
<ellipse fill="#f0f0ff" fill-opacity="0.627451" stroke="black" stroke-width="0" cx="927.6" cy="-373.39" rx="41.69" ry="18"/>
<text text-anchor="middle" x="927.6" y="-369.69" font-family="Chilanka" font-size="14.00" fill="indigo">Leisure</text>
</g>
<!-- Recreation&#45;&#45;Leisure -->
<g id="edge38" class="edge">
<title>Recreation&#45;&#45;Leisure</title>
<path fill="none" stroke="#f0f0ff" stroke-width="5" d="M851.88,-396.43C866.23,-392.07 880.92,-387.6 893.49,-383.77"/>
</g>
<!-- Sleep -->
<g id="node40" class="node">
<title>Sleep</title>
<ellipse fill="#f0f0ff" fill-opacity="0.627451" stroke="black" stroke-width="0" cx="933.65" cy="-424.22" rx="33.6" ry="18"/>
<text text-anchor="middle" x="933.65" y="-420.52" font-family="Chilanka" font-size="14.00" fill="indigo">Sleep</text>
</g>
<!-- Recreation&#45;&#45;Sleep -->
<g id="edge39" class="edge">
<title>Recreation&#45;&#45;Sleep</title>
<path fill="none" stroke="#f0f0ff" stroke-width="5" d="M883.25,-421.28C889.07,-421.62 894.67,-421.95 899.9,-422.25"/>
</g>
<!-- Imagination -->
<g id="node66" class="node">
<title>Imagination</title>
<ellipse fill="#f0f0ff" fill-opacity="0.627451" stroke="black" stroke-width="0" cx="82.5" cy="-551.28" rx="57.69" ry="18"/>
<text text-anchor="middle" x="82.5" y="-547.58" font-family="Chilanka" font-size="14.00" fill="indigo">Imagination</text>
</g>
<!-- Cognition&#45;&#45;Imagination -->
<g id="edge66" class="edge">
<title>Cognition&#45;&#45;Imagination</title>
<path fill="none" stroke="#f0f0ff" stroke-width="5" d="M183.15,-473.86C158.92,-492.49 125.96,-517.85 104.46,-534.38"/>
</g>
<!-- Perception -->
<g id="node67" class="node">
<title>Perception</title>
<ellipse fill="#f0f0ff" fill-opacity="0.627451" stroke="black" stroke-width="0" cx="73.44" cy="-500.9" rx="54.69" ry="18"/>
<text text-anchor="middle" x="73.44" y="-497.2" font-family="Chilanka" font-size="14.00" fill="indigo">Perception</text>
</g>
<!-- Cognition&#45;&#45;Perception -->
<g id="edge67" class="edge">
<title>Cognition&#45;&#45;Perception</title>
<path fill="none" stroke="#f0f0ff" stroke-width="5" d="M158.7,-470C142.54,-475.86 125.29,-482.11 110.57,-487.45"/>
</g>
<!-- Thinking -->
<g id="node68" class="node">
<title>Thinking</title>
<ellipse fill="#f0f0ff" fill-opacity="0.627451" stroke="black" stroke-width="0" cx="70.41" cy="-449.81" rx="46.29" ry="18"/>
<text text-anchor="middle" x="70.41" y="-446.11" font-family="Chilanka" font-size="14.00" fill="indigo">Thinking</text>
</g>
<!-- Cognition&#45;&#45;Thinking -->
<g id="edge68" class="edge">
<title>Cognition&#45;&#45;Thinking</title>
<path fill="none" stroke="#f0f0ff" stroke-width="5" d="M124.44,-449.81C121.83,-449.81 119.24,-449.81 116.71,-449.81"/>
</g>
<!-- Understanding -->
<g id="node69" class="node">
<title>Understanding</title>
<ellipse fill="#f0f0ff" fill-opacity="0.627451" stroke="black" stroke-width="0" cx="73.44" cy="-398.72" rx="73.39" ry="18"/>
<text text-anchor="middle" x="73.44" y="-395.02" font-family="Chilanka" font-size="14.00" fill="indigo">Understanding</text>
</g>
<!-- Cognition&#45;&#45;Understanding -->
<g id="edge69" class="edge">
<title>Cognition&#45;&#45;Understanding</title>
<path fill="none" stroke="#f0f0ff" stroke-width="5" d="M158.7,-429.62C144.07,-424.32 128.56,-418.7 114.84,-413.72"/>
</g>
<!-- Memory -->
<g id="node70" class="node">
<title>Memory</title>
<ellipse fill="#f0f0ff" fill-opacity="0.627451" stroke="black" stroke-width="0" cx="82.5" cy="-348.34" rx="44.39" ry="18"/>
<text text-anchor="middle" x="82.5" y="-344.64" font-family="Chilanka" font-size="14.00" fill="indigo">Memory</text>
</g>
<!-- Cognition&#45;&#45;Memory -->
<g id="edge70" class="edge">
<title>Cognition&#45;&#45;Memory</title>
<path fill="none" stroke="#f0f0ff" stroke-width="5" d="M183.15,-425.76C158.46,-406.77 124.72,-380.81 103.26,-364.31"/>
</g>
<!-- Awareness -->
<g id="node63" class="node">
<title>Awareness</title>
<ellipse fill="#f0f0ff" fill-opacity="0.627451" stroke="black" stroke-width="0" cx="97.45" cy="-299.39" rx="57.39" ry="18"/>
<text text-anchor="middle" x="97.45" y="-295.69" font-family="Chilanka" font-size="14.00" fill="indigo">Awareness</text>
</g>
<!-- Consciousness&#45;&#45;Awareness -->
<g id="edge63" class="edge">
<title>Consciousness&#45;&#45;Awareness</title>
<path fill="none" stroke="#f0f0ff" stroke-width="5" d="M171.26,-326.8C158.7,-322.14 145.85,-317.37 134.47,-313.14"/>
</g>
<!-- Learning -->
<g id="node71" class="node">
<title>Learning</title>
<ellipse fill="#f0f0ff" fill-opacity="0.627451" stroke="black" stroke-width="0" cx="118.08" cy="-252.55" rx="49.29" ry="18"/>
<text text-anchor="middle" x="118.08" y="-248.85" font-family="Chilanka" font-size="14.00" fill="indigo">Learning</text>
</g>
<!-- Intelligence&#45;&#45;Learning -->
<g id="edge71" class="edge">
<title>Intelligence&#45;&#45;Learning</title>
<path fill="none" stroke="#f0f0ff" stroke-width="5" d="M190.81,-270.73C179.87,-268 168.93,-265.26 158.99,-262.78"/>
</g>
<!-- Experiment -->
<g id="node72" class="node">
<title>Experiment</title>
<ellipse fill="#f0f0ff" fill-opacity="0.627451" stroke="black" stroke-width="0" cx="144.11" cy="-208.47" rx="59.59" ry="18"/>
<text text-anchor="middle" x="144.11" y="-204.77" font-family="Chilanka" font-size="14.00" fill="indigo">Experiment</text>
</g>
<!-- Intelligence&#45;&#45;Experiment -->
<g id="edge72" class="edge">
<title>Intelligence&#45;&#45;Experiment</title>
<path fill="none" stroke="#f0f0ff" stroke-width="5" d="M228.03,-265C208.92,-252.13 185.82,-236.57 168.7,-225.04"/>
</g>
<!-- Education -->
<g id="node73" class="node">
<title>Education</title>
<ellipse fill="#f0f0ff" fill-opacity="0.627451" stroke="black" stroke-width="0" cx="175.17" cy="-167.79" rx="51.99" ry="18"/>
<text text-anchor="middle" x="175.17" y="-164.09" font-family="Chilanka" font-size="14.00" fill="indigo">Education</text>
</g>
<!-- Intelligence&#45;&#45;Education -->
<g id="edge73" class="edge">
<title>Intelligence&#45;&#45;Education</title>
<path fill="none" stroke="#f0f0ff" stroke-width="5" d="M245.23,-263.82C228.14,-240.4 203.08,-206.05 188.02,-185.41"/>
</g>
<!-- Positiveness -->
<g id="node41" class="node">
<title>Positiveness</title>
<ellipse fill="#f0f0ff" fill-opacity="0.627451" stroke="black" stroke-width="0" cx="293.85" cy="-828.13" rx="63.09" ry="18"/>
<text text-anchor="middle" x="293.85" y="-824.43" font-family="Chilanka" font-size="14.00" fill="indigo">Positiveness</text>
</g>
<!-- Emotions&#45;&#45;Positiveness -->
<g id="edge40" class="edge">
<title>Emotions&#45;&#45;Positiveness</title>
<path fill="none" stroke="#f0f0ff" stroke-width="5" d="M338.36,-718.69C327.5,-745.38 310.69,-786.72 301.13,-810.21"/>
</g>
<!-- Tranquility -->
<g id="node42" class="node">
<title>Tranquility</title>
<ellipse fill="#f0f0ff" fill-opacity="0.627451" stroke="black" stroke-width="0" cx="250.56" cy="-800.8" rx="52.79" ry="18"/>
<text text-anchor="middle" x="250.56" y="-797.1" font-family="Chilanka" font-size="14.00" fill="indigo">Tranquility</text>
</g>
<!-- Emotions&#45;&#45;Tranquility -->
<g id="edge41" class="edge">
<title>Emotions&#45;&#45;Tranquility</title>
<path fill="none" stroke="#f0f0ff" stroke-width="5" d="M326.16,-718C307.95,-737.95 282.74,-765.56 266.54,-783.3"/>
</g>
<!-- Self&#45;&#45;Emotions -->
<g id="edge42" class="edge">
<title>Self&#45;&#45;Emotions</title>
<path fill="none" stroke="#f0f0ff" stroke-dasharray="1,5" d="M309.34,-659.45C313.01,-662.61 316.82,-665.89 320.55,-669.11"/>
</g>
<!-- Delight -->
<g id="node32" class="node">
<title>Delight</title>
<ellipse fill="#f0f0ff" fill-opacity="0.627451" stroke="black" stroke-width="0" cx="210.82" cy="-768.55" rx="37.09" ry="18"/>
<text text-anchor="middle" x="210.82" y="-764.85" font-family="Chilanka" font-size="14.00" fill="indigo">Delight</text>
</g>
<!-- Self&#45;&#45;Delight -->
<g id="edge31" class="edge">
<title>Self&#45;&#45;Delight</title>
<path fill="none" stroke="#f0f0ff" stroke-width="5" d="M270.44,-662.41C255.9,-688.3 233.38,-728.39 220.58,-751.18"/>
</g>
<!-- Joy -->
<g id="node33" class="node">
<title>Joy</title>
<ellipse fill="#f0f0ff" fill-opacity="0.627451" stroke="black" stroke-width="0" cx="175.17" cy="-731.83" rx="27" ry="18"/>
<text text-anchor="middle" x="175.17" y="-728.13" font-family="Chilanka" font-size="14.00" fill="indigo">Joy</text>
</g>
<!-- Self&#45;&#45;Joy -->
<g id="edge32" class="edge">
<title>Self&#45;&#45;Joy</title>
<path fill="none" stroke="#f0f0ff" stroke-width="5" d="M259.22,-659.39C238.59,-677.17 209.9,-701.9 191.94,-717.38"/>
</g>
<!-- Expression -->
<g id="node34" class="node">
<title>Expression</title>
<ellipse fill="#f0f0ff" fill-opacity="0.627451" stroke="black" stroke-width="0" cx="144.11" cy="-691.15" rx="57.69" ry="18"/>
<text text-anchor="middle" x="144.11" y="-687.45" font-family="Chilanka" font-size="14.00" fill="indigo">Expression</text>
</g>
<!-- Self&#45;&#45;Expression -->
<g id="edge33" class="edge">
<title>Self&#45;&#45;Expression</title>
<path fill="none" stroke="#f0f0ff" stroke-width="5" d="M246.32,-652.25C226.06,-659.96 201.21,-669.42 181.09,-677.07"/>
</g>
<!-- Contemplation -->
<g id="node64" class="node">
<title>Contemplation</title>
<ellipse fill="#f0f0ff" fill-opacity="0.627451" stroke="black" stroke-width="0" cx="118.08" cy="-647.07" rx="71.49" ry="18"/>
<text text-anchor="middle" x="118.08" y="-643.37" font-family="Chilanka" font-size="14.00" fill="indigo">Contemplation</text>
</g>
<!-- Meditation&#45;&#45;Contemplation -->
<g id="edge64" class="edge">
<title>Meditation&#45;&#45;Contemplation</title>
<path fill="none" stroke="#f0f0ff" stroke-width="5" d="M203.59,-589.6C184.24,-602.61 160.69,-618.44 143.21,-630.19"/>
</g>
<!-- Breath -->
<g id="node65" class="node">
<title>Breath</title>
<ellipse fill="#f0f0ff" fill-opacity="0.627451" stroke="black" stroke-width="0" cx="97.45" cy="-600.23" rx="36.29" ry="18"/>
<text text-anchor="middle" x="97.45" y="-596.53" font-family="Chilanka" font-size="14.00" fill="indigo">Breath</text>
</g>
<!-- Meditation&#45;&#45;Breath -->
<g id="edge65" class="edge">
<title>Meditation&#45;&#45;Breath</title>
<path fill="none" stroke="#f0f0ff" stroke-width="5" d="M168.98,-582.87C155.48,-586.15 141.94,-589.43 130.33,-592.25"/>
</g>
<!-- c -->
<g id="node78" class="node">
<title>c</title>
<text text-anchor="middle" x="959.41" y="-3.71" font-family="Chilanka" font-size="12.00" fill="gray">© 2020&#45;2022 Costa Shulyupin</text>
</g>
</g>
</svg>
