<?xml version="1.0" encoding="UTF-8" standalone="no"?>
<!DOCTYPE svg PUBLIC "-//W3C//DTD SVG 1.1//EN"
 "http://www.w3.org/Graphics/SVG/1.1/DTD/svg11.dtd">
<!-- Generated by graphviz version 2.43.0 (0)
 -->
<!-- Title: PhiloDilemma Pages: 1 -->
<svg width="569pt" height="606pt"
 viewBox="0.00 0.00 569.14 605.73" xmlns="http://www.w3.org/2000/svg" xmlns:xlink="http://www.w3.org/1999/xlink">
<g id="graph0" class="graph" transform="scale(1 1) rotate(0) translate(4 601.73)">
<title>PhiloDilemma</title>
<polygon fill="white" stroke="transparent" points="-4,4 -4,-601.73 565.14,-601.73 565.14,4 -4,4"/>
<text text-anchor="middle" x="280.57" y="-20.4" font-family="Helvetica,Arial,sans-serif" font-size="12.00">PetriNet Model PhiloDilemma</text>
<text text-anchor="middle" x="280.57" y="-7.4" font-family="Helvetica,Arial,sans-serif" font-size="12.00">Extracted from ConceptBase and layed out by Graphviz </text>
<!-- bec3 -->
<g id="node1" class="node">
<title>bec3</title>
<polygon fill="none" stroke="black" points="365.79,-70 311.79,-70 311.79,-34 365.79,-34 365.79,-70"/>
<text text-anchor="middle" x="338.79" y="-48.3" font-family="Helvetica,Arial,sans-serif" font-size="14.00">bec3</text>
</g>
<!-- hu3 -->
<g id="node10" class="node">
<title>hu3</title>
<ellipse fill="none" stroke="black" cx="271.45" cy="-127.07" rx="32.5" ry="32.5"/>
<text text-anchor="middle" x="271.45" y="-123.37" font-family="Helvetica,Arial,sans-serif" font-size="14.00">hu3</text>
</g>
<!-- bec3&#45;&gt;hu3 -->
<g id="edge4" class="edge">
<title>bec3&#45;&gt;hu3</title>
<path fill="none" stroke="black" d="M322.49,-70.17C315.76,-77.68 307.75,-86.61 300.09,-95.15"/>
<polygon fill="black" stroke="black" points="297.28,-93.04 293.2,-102.83 302.49,-97.72 297.28,-93.04"/>
</g>
<!-- rel3 -->
<g id="node2" class="node">
<title>rel3</title>
<polygon fill="none" stroke="black" points="466.36,-201.9 412.36,-201.9 412.36,-165.9 466.36,-165.9 466.36,-201.9"/>
<text text-anchor="middle" x="439.36" y="-180.2" font-family="Helvetica,Arial,sans-serif" font-size="14.00">rel3</text>
</g>
<!-- th3 -->
<g id="node11" class="node">
<title>th3</title>
<ellipse fill="none" stroke="black" cx="435.34" cy="-85.57" rx="32.5" ry="32.5"/>
<text text-anchor="middle" x="435.34" y="-81.87" font-family="Helvetica,Arial,sans-serif" font-size="14.00">th3</text>
</g>
<!-- rel3&#45;&gt;th3 -->
<g id="edge6" class="edge">
<title>rel3&#45;&gt;th3</title>
<path fill="none" stroke="black" d="M438.62,-165.87C438.19,-155.37 437.63,-141.65 437.1,-128.53"/>
<polygon fill="black" stroke="black" points="440.58,-128.06 436.67,-118.21 433.59,-128.34 440.58,-128.06"/>
</g>
<!-- ri3 -->
<g id="node12" class="node">
<title>ri3</title>
<ellipse fill="none" stroke="black" cx="390.02" cy="-270.14" rx="32.5" ry="32.5"/>
<text text-anchor="middle" x="390.02" y="-266.44" font-family="Helvetica,Arial,sans-serif" font-size="14.00">ri3</text>
</g>
<!-- rel3&#45;&gt;ri3 -->
<g id="edge7" class="edge">
<title>rel3&#45;&gt;ri3</title>
<path fill="none" stroke="black" d="M428.89,-202.19C423.77,-211.15 417.4,-222.29 411.31,-232.93"/>
<polygon fill="black" stroke="black" points="408.22,-231.28 406.29,-241.7 414.3,-234.75 408.22,-231.28"/>
</g>
<!-- bec2 -->
<g id="node3" class="node">
<title>bec2</title>
<polygon fill="none" stroke="black" points="561.14,-517.14 507.14,-517.14 507.14,-481.14 561.14,-481.14 561.14,-517.14"/>
<text text-anchor="middle" x="534.14" y="-495.44" font-family="Helvetica,Arial,sans-serif" font-size="14.00">bec2</text>
</g>
<!-- hu2 -->
<g id="node14" class="node">
<title>hu2</title>
<ellipse fill="none" stroke="black" cx="504.52" cy="-402.34" rx="32.5" ry="32.5"/>
<text text-anchor="middle" x="504.52" y="-398.64" font-family="Helvetica,Arial,sans-serif" font-size="14.00">hu2</text>
</g>
<!-- bec2&#45;&gt;hu2 -->
<g id="edge13" class="edge">
<title>bec2&#45;&gt;hu2</title>
<path fill="none" stroke="black" d="M528.57,-480.93C525.34,-470.37 521.13,-456.62 517.14,-443.57"/>
<polygon fill="black" stroke="black" points="520.42,-442.34 514.15,-433.8 513.73,-444.39 520.42,-442.34"/>
</g>
<!-- rel2 -->
<g id="node4" class="node">
<title>rel2</title>
<polygon fill="none" stroke="black" points="397.52,-535.63 343.52,-535.63 343.52,-499.63 397.52,-499.63 397.52,-535.63"/>
<text text-anchor="middle" x="370.52" y="-513.93" font-family="Helvetica,Arial,sans-serif" font-size="14.00">rel2</text>
</g>
<!-- th2 -->
<g id="node15" class="node">
<title>th2</title>
<ellipse fill="none" stroke="black" cx="456.15" cy="-565.23" rx="32.5" ry="32.5"/>
<text text-anchor="middle" x="456.15" y="-561.53" font-family="Helvetica,Arial,sans-serif" font-size="14.00">th2</text>
</g>
<!-- rel2&#45;&gt;th2 -->
<g id="edge15" class="edge">
<title>rel2&#45;&gt;th2</title>
<path fill="none" stroke="black" d="M397.61,-532.69C404.3,-536.41 411.57,-540.45 418.65,-544.39"/>
<polygon fill="black" stroke="black" points="417.02,-547.48 427.46,-549.28 420.42,-541.37 417.02,-547.48"/>
</g>
<!-- ri2 -->
<g id="node16" class="node">
<title>ri2</title>
<ellipse fill="none" stroke="black" cx="321.25" cy="-431.75" rx="32.5" ry="32.5"/>
<text text-anchor="middle" x="321.25" y="-428.05" font-family="Helvetica,Arial,sans-serif" font-size="14.00">ri2</text>
</g>
<!-- rel2&#45;&gt;ri2 -->
<g id="edge16" class="edge">
<title>rel2&#45;&gt;ri2</title>
<path fill="none" stroke="black" d="M360.07,-499.42C354.95,-490.49 348.59,-479.41 342.51,-468.81"/>
<polygon fill="black" stroke="black" points="345.51,-467.01 337.5,-460.08 339.44,-470.5 345.51,-467.01"/>
</g>
<!-- acq2 -->
<g id="node5" class="node">
<title>acq2</title>
<polygon fill="none" stroke="black" points="433.84,-384.78 379.84,-384.78 379.84,-348.78 433.84,-348.78 433.84,-384.78"/>
<text text-anchor="middle" x="406.84" y="-363.08" font-family="Helvetica,Arial,sans-serif" font-size="14.00">acq2</text>
</g>
<!-- ea2 -->
<g id="node17" class="node">
<title>ea2</title>
<ellipse fill="none" stroke="black" cx="427.1" cy="-448.41" rx="32.5" ry="32.5"/>
<text text-anchor="middle" x="427.1" y="-444.71" font-family="Helvetica,Arial,sans-serif" font-size="14.00">ea2</text>
</g>
<!-- acq2&#45;&gt;ea2 -->
<g id="edge18" class="edge">
<title>acq2&#45;&gt;ea2</title>
<path fill="none" stroke="black" d="M411.34,-384.9C412.98,-391.5 414.9,-399.27 416.84,-407.07"/>
<polygon fill="black" stroke="black" points="413.46,-408 419.27,-416.87 420.26,-406.32 413.46,-408"/>
</g>
<!-- acq3 -->
<g id="node6" class="node">
<title>acq3</title>
<polygon fill="none" stroke="black" points="317.89,-247.05 263.89,-247.05 263.89,-211.05 317.89,-211.05 317.89,-247.05"/>
<text text-anchor="middle" x="290.89" y="-225.35" font-family="Helvetica,Arial,sans-serif" font-size="14.00">acq3</text>
</g>
<!-- ea3 -->
<g id="node13" class="node">
<title>ea3</title>
<ellipse fill="none" stroke="black" cx="351.45" cy="-170.55" rx="32.5" ry="32.5"/>
<text text-anchor="middle" x="351.45" y="-166.85" font-family="Helvetica,Arial,sans-serif" font-size="14.00">ea3</text>
</g>
<!-- acq3&#45;&gt;ea3 -->
<g id="edge9" class="edge">
<title>acq3&#45;&gt;ea3</title>
<path fill="none" stroke="black" d="M309.72,-210.86C313.1,-207.59 316.7,-204.11 320.32,-200.61"/>
<polygon fill="black" stroke="black" points="322.95,-202.94 327.71,-193.48 318.09,-197.91 322.95,-202.94"/>
</g>
<!-- bec1 -->
<g id="node7" class="node">
<title>bec1</title>
<polygon fill="none" stroke="black" points="77.09,-459.27 23.09,-459.27 23.09,-423.27 77.09,-423.27 77.09,-459.27"/>
<text text-anchor="middle" x="50.09" y="-437.57" font-family="Helvetica,Arial,sans-serif" font-size="14.00">bec1</text>
</g>
<!-- hu1 -->
<g id="node18" class="node">
<title>hu1</title>
<ellipse fill="none" stroke="black" cx="148.66" cy="-465.07" rx="32.5" ry="32.5"/>
<text text-anchor="middle" x="148.66" y="-461.37" font-family="Helvetica,Arial,sans-serif" font-size="14.00">hu1</text>
</g>
<!-- bec1&#45;&gt;hu1 -->
<g id="edge22" class="edge">
<title>bec1&#45;&gt;hu1</title>
<path fill="none" stroke="black" d="M77.28,-447.84C86.51,-450.06 97.05,-452.61 107.14,-455.05"/>
<polygon fill="black" stroke="black" points="106.47,-458.49 117.02,-457.43 108.12,-451.68 106.47,-458.49"/>
</g>
<!-- rel1 -->
<g id="node8" class="node">
<title>rel1</title>
<polygon fill="none" stroke="black" points="144.09,-309.57 90.09,-309.57 90.09,-273.57 144.09,-273.57 144.09,-309.57"/>
<text text-anchor="middle" x="117.09" y="-287.87" font-family="Helvetica,Arial,sans-serif" font-size="14.00">rel1</text>
</g>
<!-- th1 -->
<g id="node19" class="node">
<title>th1</title>
<ellipse fill="none" stroke="black" cx="32.5" cy="-340.61" rx="32.5" ry="32.5"/>
<text text-anchor="middle" x="32.5" y="-336.91" font-family="Helvetica,Arial,sans-serif" font-size="14.00">th1</text>
</g>
<!-- rel1&#45;&gt;th1 -->
<g id="edge24" class="edge">
<title>rel1&#45;&gt;th1</title>
<path fill="none" stroke="black" d="M89.86,-307.36C83.48,-311.05 76.58,-315.05 69.85,-318.96"/>
<polygon fill="black" stroke="black" points="67.74,-316.14 60.84,-324.18 71.25,-322.19 67.74,-316.14"/>
</g>
<!-- ri1 -->
<g id="node20" class="node">
<title>ri1</title>
<ellipse fill="none" stroke="black" cx="216.05" cy="-292.4" rx="32.5" ry="32.5"/>
<text text-anchor="middle" x="216.05" y="-288.7" font-family="Helvetica,Arial,sans-serif" font-size="14.00">ri1</text>
</g>
<!-- rel1&#45;&gt;ri1 -->
<g id="edge25" class="edge">
<title>rel1&#45;&gt;ri1</title>
<path fill="none" stroke="black" d="M144.13,-291.8C153.14,-291.87 163.4,-291.96 173.3,-292.04"/>
<polygon fill="black" stroke="black" points="173.38,-295.54 183.41,-292.13 173.44,-288.54 173.38,-295.54"/>
</g>
<!-- acq1 -->
<g id="node9" class="node">
<title>acq1</title>
<polygon fill="none" stroke="black" points="255.92,-416.93 201.92,-416.93 201.92,-380.93 255.92,-380.93 255.92,-416.93"/>
<text text-anchor="middle" x="228.92" y="-395.23" font-family="Helvetica,Arial,sans-serif" font-size="14.00">acq1</text>
</g>
<!-- ea1 -->
<g id="node21" class="node">
<title>ea1</title>
<ellipse fill="none" stroke="black" cx="148.21" cy="-375.5" rx="32.5" ry="32.5"/>
<text text-anchor="middle" x="148.21" y="-371.8" font-family="Helvetica,Arial,sans-serif" font-size="14.00">ea1</text>
</g>
<!-- acq1&#45;&gt;ea1 -->
<g id="edge27" class="edge">
<title>acq1&#45;&gt;ea1</title>
<path fill="none" stroke="black" d="M201.6,-391C197.64,-389.85 193.49,-388.64 189.33,-387.44"/>
<polygon fill="black" stroke="black" points="190.27,-384.06 179.69,-384.64 188.31,-390.79 190.27,-384.06"/>
</g>
<!-- hu3&#45;&gt;acq3 -->
<g id="edge3" class="edge">
<title>hu3&#45;&gt;acq3</title>
<path fill="none" stroke="black" d="M277.55,-159.06C280.09,-172.39 283.01,-187.73 285.47,-200.65"/>
<polygon fill="black" stroke="black" points="282.11,-201.67 287.42,-210.84 288.98,-200.36 282.11,-201.67"/>
</g>
<!-- th3&#45;&gt;bec3 -->
<g id="edge5" class="edge">
<title>th3&#45;&gt;bec3</title>
<path fill="none" stroke="black" d="M404.53,-74.85C395.35,-71.66 385.21,-68.14 375.69,-64.83"/>
<polygon fill="black" stroke="black" points="376.65,-61.46 366.06,-61.48 374.35,-68.07 376.65,-61.46"/>
</g>
<!-- ri3&#45;&gt;acq2 -->
<g id="edge1" class="edge">
<title>ri3&#45;&gt;acq2</title>
<path fill="none" stroke="black" d="M395.62,-302.32C397.65,-313.97 399.92,-327.04 401.89,-338.34"/>
<polygon fill="black" stroke="black" points="398.5,-339.29 403.67,-348.54 405.4,-338.09 398.5,-339.29"/>
</g>
<!-- ri3&#45;&gt;acq3 -->
<g id="edge2" class="edge">
<title>ri3&#45;&gt;acq3</title>
<path fill="none" stroke="black" d="M359.74,-257.59C349.54,-253.36 338.04,-248.6 327.41,-244.19"/>
<polygon fill="black" stroke="black" points="328.53,-240.87 317.95,-240.27 325.85,-247.33 328.53,-240.87"/>
</g>
<!-- ea3&#45;&gt;rel3 -->
<g id="edge8" class="edge">
<title>ea3&#45;&gt;rel3</title>
<path fill="none" stroke="black" d="M383.69,-175.44C389.71,-176.36 396.06,-177.32 402.22,-178.26"/>
<polygon fill="black" stroke="black" points="401.91,-181.75 412.33,-179.8 402.96,-174.83 401.91,-181.75"/>
</g>
<!-- hu2&#45;&gt;acq2 -->
<g id="edge12" class="edge">
<title>hu2&#45;&gt;acq2</title>
<path fill="none" stroke="black" d="M473.88,-391.19C464.32,-387.71 453.66,-383.83 443.71,-380.2"/>
<polygon fill="black" stroke="black" points="444.66,-376.82 434.06,-376.69 442.26,-383.4 444.66,-376.82"/>
</g>
<!-- th2&#45;&gt;bec2 -->
<g id="edge14" class="edge">
<title>th2&#45;&gt;bec2</title>
<path fill="none" stroke="black" d="M481.25,-543.96C488.71,-537.64 496.95,-530.66 504.65,-524.13"/>
<polygon fill="black" stroke="black" points="507.38,-526.4 512.75,-517.27 502.86,-521.06 507.38,-526.4"/>
</g>
<!-- ri2&#45;&gt;acq2 -->
<g id="edge11" class="edge">
<title>ri2&#45;&gt;acq2</title>
<path fill="none" stroke="black" d="M347.39,-411.91C356.05,-405.33 365.79,-397.95 374.83,-391.08"/>
<polygon fill="black" stroke="black" points="377.05,-393.79 382.9,-384.96 372.81,-388.22 377.05,-393.79"/>
</g>
<!-- ri2&#45;&gt;acq1 -->
<g id="edge10" class="edge">
<title>ri2&#45;&gt;acq1</title>
<path fill="none" stroke="black" d="M290.51,-420.82C282.51,-417.98 273.82,-414.89 265.56,-411.95"/>
<polygon fill="black" stroke="black" points="266.72,-408.65 256.12,-408.6 264.37,-415.25 266.72,-408.65"/>
</g>
<!-- ea2&#45;&gt;rel2 -->
<g id="edge17" class="edge">
<title>ea2&#45;&gt;rel2</title>
<path fill="none" stroke="black" d="M406.35,-473.79C401.69,-479.5 396.73,-485.56 392.04,-491.3"/>
<polygon fill="black" stroke="black" points="389.04,-489.44 385.42,-499.4 394.46,-493.87 389.04,-489.44"/>
</g>
<!-- hu1&#45;&gt;acq1 -->
<g id="edge21" class="edge">
<title>hu1&#45;&gt;acq1</title>
<path fill="none" stroke="black" d="M174.05,-444.14C181.98,-437.62 190.79,-430.35 198.99,-423.59"/>
<polygon fill="black" stroke="black" points="201.45,-426.11 206.94,-417.05 197,-420.71 201.45,-426.11"/>
</g>
<!-- th1&#45;&gt;bec1 -->
<g id="edge23" class="edge">
<title>th1&#45;&gt;bec1</title>
<path fill="none" stroke="black" d="M38.11,-372.74C40.39,-385.77 43,-400.69 45.2,-413.27"/>
<polygon fill="black" stroke="black" points="41.76,-413.95 46.93,-423.2 48.66,-412.75 41.76,-413.95"/>
</g>
<!-- ri1&#45;&gt;acq3 -->
<g id="edge19" class="edge">
<title>ri1&#45;&gt;acq3</title>
<path fill="none" stroke="black" d="M240.97,-271.31C247.57,-265.72 254.76,-259.63 261.57,-253.87"/>
<polygon fill="black" stroke="black" points="263.96,-256.43 269.34,-247.3 259.44,-251.09 263.96,-256.43"/>
</g>
<!-- ri1&#45;&gt;acq1 -->
<g id="edge20" class="edge">
<title>ri1&#45;&gt;acq1</title>
<path fill="none" stroke="black" d="M219.98,-324.94C221.75,-339.57 223.82,-356.67 225.52,-370.74"/>
<polygon fill="black" stroke="black" points="222.06,-371.31 226.74,-380.82 229.01,-370.47 222.06,-371.31"/>
</g>
<!-- ea1&#45;&gt;rel1 -->
<g id="edge26" class="edge">
<title>ea1&#45;&gt;rel1</title>
<path fill="none" stroke="black" d="M136.8,-344.73C133.69,-336.34 130.35,-327.32 127.31,-319.13"/>
<polygon fill="black" stroke="black" points="130.55,-317.81 123.79,-309.65 123.99,-320.24 130.55,-317.81"/>
</g>
</g>
</svg>
