<?xml version="1.0" encoding="UTF-8" standalone="no"?>
<!DOCTYPE svg PUBLIC "-//W3C//DTD SVG 1.1//EN"
 "http://www.w3.org/Graphics/SVG/1.1/DTD/svg11.dtd">
<!-- Generated by graphviz version 2.45.20200621.0824 (20200621.0824)
 -->
<!-- Title: Transparency Pages: 1 -->
<svg width="307pt" height="329pt"
 viewBox="0.00 0.00 307.12 328.75" xmlns="http://www.w3.org/2000/svg" xmlns:xlink="http://www.w3.org/1999/xlink">
<g id="graph0" class="graph" transform="scale(1 1) rotate(0) translate(4 324.75)">
<title>Transparency</title>
<polygon fill="#0000ff" fill-opacity="0.066667" stroke="transparent" points="-4,4 -4,-324.75 303.12,-324.75 303.12,4 -4,4"/>
<!-- 5 -->
<g id="node1" class="node">
<title>5</title>
<ellipse fill="#0000ff" fill-opacity="0.501961" stroke="#0000ff" stroke-opacity="0.501961" cx="219.12" cy="-200.71" rx="80" ry="80"/>
</g>
<!-- 6 -->
<g id="node2" class="node">
<title>6</title>
<ellipse fill="#ee00ee" fill-opacity="0.501961" stroke="#ee00ee" stroke-opacity="0.501961" cx="218.93" cy="-120.42" rx="80" ry="80"/>
</g>
<!-- 5&#45;&#45;6 -->
<g id="edge5" class="edge">
<title>5&#45;&#45;6</title>
<path fill="none" stroke="black" d="M218.93,-120.65C218.93,-120.57 218.93,-120.51 218.93,-120.47"/>
</g>
<!-- 1 -->
<g id="node3" class="node">
<title>1</title>
<ellipse fill="#ff0000" fill-opacity="0.501961" stroke="#ff0000" stroke-opacity="0.501961" cx="149.56" cy="-80" rx="80" ry="80"/>
</g>
<!-- 6&#45;&#45;1 -->
<g id="edge6" class="edge">
<title>6&#45;&#45;1</title>
<path fill="none" stroke="black" d="M149.76,-80.12C149.7,-80.08 149.65,-80.05 149.61,-80.03"/>
</g>
<!-- 2 -->
<g id="node4" class="node">
<title>2</title>
<ellipse fill="#eeee00" fill-opacity="0.501961" stroke="#eeee00" stroke-opacity="0.501961" cx="80" cy="-120.08" rx="80" ry="80"/>
</g>
<!-- 1&#45;&#45;2 -->
<g id="edge1" class="edge">
<title>1&#45;&#45;2</title>
<path fill="none" stroke="black" d="M80.2,-119.96C80.13,-120 80.08,-120.03 80.05,-120.05"/>
</g>
<!-- 3 -->
<g id="node5" class="node">
<title>3</title>
<ellipse fill="#00ff00" fill-opacity="0.501961" stroke="#00ff00" stroke-opacity="0.501961" cx="80.13" cy="-200.37" rx="80" ry="80"/>
</g>
<!-- 2&#45;&#45;3 -->
<g id="edge2" class="edge">
<title>2&#45;&#45;3</title>
<path fill="none" stroke="black" d="M80.13,-200.14C80.13,-200.22 80.13,-200.28 80.13,-200.31"/>
</g>
<!-- 4 -->
<g id="node6" class="node">
<title>4</title>
<ellipse fill="#00eeee" fill-opacity="0.501961" stroke="#00eeee" stroke-opacity="0.501961" cx="149.53" cy="-240.75" rx="80" ry="80"/>
</g>
<!-- 3&#45;&#45;4 -->
<g id="edge3" class="edge">
<title>3&#45;&#45;4</title>
<path fill="none" stroke="black" d="M149.33,-240.63C149.4,-240.67 149.45,-240.7 149.48,-240.72"/>
</g>
<!-- 4&#45;&#45;5 -->
<g id="edge4" class="edge">
<title>4&#45;&#45;5</title>
<path fill="none" stroke="black" d="M218.92,-200.83C218.99,-200.79 219.04,-200.76 219.07,-200.74"/>
</g>
</g>
</svg>
