<?xml version="1.0" encoding="UTF-8" standalone="no"?>
<!DOCTYPE svg PUBLIC "-//W3C//DTD SVG 1.1//EN"
 "http://www.w3.org/Graphics/SVG/1.1/DTD/svg11.dtd">
<!-- Generated by graphviz version 2.44.1 (20200629.0846)
 -->
<!-- Title: G Pages: 1 -->
<svg width="480pt" height="488pt"
 viewBox="0.00 0.00 480.06 488.08" xmlns="http://www.w3.org/2000/svg" xmlns:xlink="http://www.w3.org/1999/xlink">
<g id="graph0" class="graph" transform="scale(1 1) rotate(0) translate(4 484.08)">
<title>G</title>
<polygon fill="#ff0000" fill-opacity="0.372549" stroke="transparent" points="-4,4 -4,-484.08 476.06,-484.08 476.06,4 -4,4"/>
<!-- 1 -->
<g id="node1" class="node">
<title>1</title>
<ellipse fill="#00ff00" fill-opacity="0.372549" stroke="black" cx="265.57" cy="-18" rx="27" ry="18"/>
<text text-anchor="middle" x="265.57" y="-14.3" font-family="Times,serif" font-size="14.00">1</text>
</g>
<!-- 30 -->
<g id="node2" class="node">
<title>30</title>
<ellipse fill="#00ff00" fill-opacity="0.372549" stroke="black" cx="303.34" cy="-77.17" rx="27" ry="18"/>
<text text-anchor="middle" x="303.34" y="-73.47" font-family="Times,serif" font-size="14.00">30</text>
</g>
<!-- 1&#45;&#45;30 -->
<g id="edge1" class="edge">
<title>1&#45;&#45;30</title>
<path fill="none" stroke="black" d="M276.29,-34.8C281.44,-42.86 287.58,-52.5 292.72,-60.54"/>
</g>
<!-- 40 -->
<g id="node3" class="node">
<title>40</title>
<ellipse fill="#00ff00" fill-opacity="0.372549" stroke="black" cx="229.95" cy="-94.91" rx="27" ry="18"/>
<text text-anchor="middle" x="229.95" y="-91.21" font-family="Times,serif" font-size="14.00">40</text>
</g>
<!-- 1&#45;&#45;40 -->
<g id="edge2" class="edge">
<title>1&#45;&#45;40</title>
<path fill="none" stroke="black" d="M257.48,-35.45C251.65,-48.04 243.82,-64.96 238,-77.53"/>
</g>
<!-- 24 -->
<g id="node16" class="node">
<title>24</title>
<ellipse fill="#00ff00" fill-opacity="0.372549" stroke="black" cx="368.56" cy="-155.86" rx="27" ry="18"/>
<text text-anchor="middle" x="368.56" y="-152.16" font-family="Times,serif" font-size="14.00">24</text>
</g>
<!-- 30&#45;&#45;24 -->
<g id="edge23" class="edge">
<title>30&#45;&#45;24</title>
<path fill="none" stroke="black" d="M316.53,-93.1C327.85,-106.75 344.07,-126.32 355.38,-139.96"/>
</g>
<!-- 44 -->
<g id="node22" class="node">
<title>44</title>
<ellipse fill="#00ff00" fill-opacity="0.372549" stroke="black" cx="184.34" cy="-123.42" rx="27" ry="18"/>
<text text-anchor="middle" x="184.34" y="-119.72" font-family="Times,serif" font-size="14.00">44</text>
</g>
<!-- 30&#45;&#45;44 -->
<g id="edge24" class="edge">
<title>30&#45;&#45;44</title>
<path fill="none" stroke="black" d="M279.83,-86.31C258.96,-94.42 228.65,-106.2 207.8,-114.3"/>
</g>
<!-- 47 -->
<g id="node18" class="node">
<title>47</title>
<ellipse fill="#00ff00" fill-opacity="0.372549" stroke="black" cx="312.75" cy="-139.83" rx="27" ry="18"/>
<text text-anchor="middle" x="312.75" y="-136.13" font-family="Times,serif" font-size="14.00">47</text>
</g>
<!-- 40&#45;&#45;47 -->
<g id="edge98" class="edge">
<title>40&#45;&#45;47</title>
<path fill="none" stroke="black" d="M251.27,-106.48C263.73,-113.24 279.39,-121.73 291.78,-128.46"/>
</g>
<!-- 22 -->
<g id="node50" class="node">
<title>22</title>
<ellipse fill="#00ff00" fill-opacity="0.372549" stroke="black" cx="135.83" cy="-100.31" rx="27" ry="18"/>
<text text-anchor="middle" x="135.83" y="-96.61" font-family="Times,serif" font-size="14.00">22</text>
</g>
<!-- 40&#45;&#45;22 -->
<g id="edge97" class="edge">
<title>40&#45;&#45;22</title>
<path fill="none" stroke="black" d="M202.98,-96.46C190.38,-97.18 175.41,-98.04 162.8,-98.77"/>
</g>
<!-- 8 -->
<g id="node4" class="node">
<title>8</title>
<ellipse fill="#00ff00" fill-opacity="0.372549" stroke="black" cx="191.46" cy="-250.92" rx="27" ry="18"/>
<text text-anchor="middle" x="191.46" y="-247.22" font-family="Times,serif" font-size="14.00">8</text>
</g>
<!-- 46 -->
<g id="node5" class="node">
<title>46</title>
<ellipse fill="#00ff00" fill-opacity="0.372549" stroke="black" cx="141.35" cy="-198.19" rx="27" ry="18"/>
<text text-anchor="middle" x="141.35" y="-194.49" font-family="Times,serif" font-size="14.00">46</text>
</g>
<!-- 8&#45;&#45;46 -->
<g id="edge3" class="edge">
<title>8&#45;&#45;46</title>
<path fill="none" stroke="black" d="M176.97,-235.67C170.38,-228.74 162.6,-220.55 155.99,-213.59"/>
</g>
<!-- 16 -->
<g id="node6" class="node">
<title>16</title>
<ellipse fill="#00ff00" fill-opacity="0.372549" stroke="black" cx="221.77" cy="-288.65" rx="27" ry="18"/>
<text text-anchor="middle" x="221.77" y="-284.95" font-family="Times,serif" font-size="14.00">16</text>
</g>
<!-- 8&#45;&#45;16 -->
<g id="edge4" class="edge">
<title>8&#45;&#45;16</title>
<path fill="none" stroke="black" d="M204.49,-267.14C205.9,-268.9 207.34,-270.69 208.75,-272.44"/>
</g>
<!-- 39 -->
<g id="node31" class="node">
<title>39</title>
<ellipse fill="#00ff00" fill-opacity="0.372549" stroke="black" cx="284.27" cy="-223.71" rx="27" ry="18"/>
<text text-anchor="middle" x="284.27" y="-220.01" font-family="Times,serif" font-size="14.00">39</text>
</g>
<!-- 16&#45;&#45;39 -->
<g id="edge62" class="edge">
<title>16&#45;&#45;39</title>
<path fill="none" stroke="black" d="M236.58,-273.26C246.54,-262.91 259.62,-249.32 269.56,-238.99"/>
</g>
<!-- 50 -->
<g id="node33" class="node">
<title>50</title>
<ellipse fill="#00ff00" fill-opacity="0.372549" stroke="black" cx="289.99" cy="-301.92" rx="27" ry="18"/>
<text text-anchor="middle" x="289.99" y="-298.22" font-family="Times,serif" font-size="14.00">50</text>
</g>
<!-- 16&#45;&#45;50 -->
<g id="edge60" class="edge">
<title>16&#45;&#45;50</title>
<path fill="none" stroke="black" d="M247.95,-293.74C253.21,-294.77 258.74,-295.84 263.99,-296.86"/>
</g>
<!-- 32 -->
<g id="node34" class="node">
<title>32</title>
<ellipse fill="#00ff00" fill-opacity="0.372549" stroke="black" cx="198.67" cy="-217.24" rx="27" ry="18"/>
<text text-anchor="middle" x="198.67" y="-213.54" font-family="Times,serif" font-size="14.00">32</text>
</g>
<!-- 16&#45;&#45;32 -->
<g id="edge61" class="edge">
<title>16&#45;&#45;32</title>
<path fill="none" stroke="black" d="M216.06,-271C212.53,-260.09 208.02,-246.14 204.47,-235.18"/>
</g>
<!-- 10 -->
<g id="node7" class="node">
<title>10</title>
<ellipse fill="#00ff00" fill-opacity="0.372549" stroke="black" cx="210.23" cy="-338.15" rx="27" ry="18"/>
<text text-anchor="middle" x="210.23" y="-334.45" font-family="Times,serif" font-size="14.00">10</text>
</g>
<!-- 25 -->
<g id="node8" class="node">
<title>25</title>
<ellipse fill="#00ff00" fill-opacity="0.372549" stroke="black" cx="287.14" cy="-278.4" rx="27" ry="18"/>
<text text-anchor="middle" x="287.14" y="-274.7" font-family="Times,serif" font-size="14.00">25</text>
</g>
<!-- 10&#45;&#45;25 -->
<g id="edge5" class="edge">
<title>10&#45;&#45;25</title>
<path fill="none" stroke="black" d="M228.07,-324.29C240.49,-314.64 257,-301.82 269.4,-292.19"/>
</g>
<!-- 19 -->
<g id="node9" class="node">
<title>19</title>
<ellipse fill="#00ff00" fill-opacity="0.372549" stroke="black" cx="285.7" cy="-368.22" rx="27" ry="18"/>
<text text-anchor="middle" x="285.7" y="-364.52" font-family="Times,serif" font-size="14.00">19</text>
</g>
<!-- 10&#45;&#45;19 -->
<g id="edge6" class="edge">
<title>10&#45;&#45;19</title>
<path fill="none" stroke="black" d="M233.69,-347.5C242.87,-351.15 253.36,-355.33 262.51,-358.98"/>
</g>
<!-- 33 -->
<g id="node10" class="node">
<title>33</title>
<ellipse fill="#00ff00" fill-opacity="0.372549" stroke="black" cx="112.81" cy="-301.01" rx="27" ry="18"/>
<text text-anchor="middle" x="112.81" y="-297.31" font-family="Times,serif" font-size="14.00">33</text>
</g>
<!-- 10&#45;&#45;33 -->
<g id="edge7" class="edge">
<title>10&#45;&#45;33</title>
<path fill="none" stroke="black" d="M186.64,-329.16C171.44,-323.37 151.74,-315.85 136.51,-310.05"/>
</g>
<!-- 12 -->
<g id="node11" class="node">
<title>12</title>
<ellipse fill="#00ff00" fill-opacity="0.372549" stroke="black" cx="314.27" cy="-244.39" rx="27" ry="18"/>
<text text-anchor="middle" x="314.27" y="-240.69" font-family="Times,serif" font-size="14.00">12</text>
</g>
<!-- 25&#45;&#45;12 -->
<g id="edge18" class="edge">
<title>25&#45;&#45;12</title>
<path fill="none" stroke="black" d="M300.07,-262.2C300.51,-261.65 300.94,-261.1 301.38,-260.55"/>
</g>
<!-- 27 -->
<g id="node19" class="node">
<title>27</title>
<ellipse fill="#00ff00" fill-opacity="0.372549" stroke="black" cx="391.6" cy="-271.76" rx="27" ry="18"/>
<text text-anchor="middle" x="391.6" y="-268.06" font-family="Times,serif" font-size="14.00">27</text>
</g>
<!-- 25&#45;&#45;27 -->
<g id="edge17" class="edge">
<title>25&#45;&#45;27</title>
<path fill="none" stroke="black" d="M314.04,-276.69C329.52,-275.71 348.91,-274.47 364.43,-273.49"/>
</g>
<!-- 35 -->
<g id="node23" class="node">
<title>35</title>
<ellipse fill="#00ff00" fill-opacity="0.372549" stroke="black" cx="327.97" cy="-269.17" rx="27" ry="18"/>
<text text-anchor="middle" x="327.97" y="-265.47" font-family="Times,serif" font-size="14.00">35</text>
</g>
<!-- 19&#45;&#45;35 -->
<g id="edge72" class="edge">
<title>19&#45;&#45;35</title>
<path fill="none" stroke="black" d="M293.26,-350.51C300.95,-332.48 312.81,-304.7 320.48,-286.73"/>
</g>
<!-- 15 -->
<g id="node41" class="node">
<title>15</title>
<ellipse fill="#00ff00" fill-opacity="0.372549" stroke="black" cx="230.1" cy="-387.17" rx="27" ry="18"/>
<text text-anchor="middle" x="230.1" y="-383.47" font-family="Times,serif" font-size="14.00">15</text>
</g>
<!-- 19&#45;&#45;15 -->
<g id="edge73" class="edge">
<title>19&#45;&#45;15</title>
<path fill="none" stroke="black" d="M261.48,-376.47C259.14,-377.27 256.76,-378.08 254.42,-378.88"/>
</g>
<!-- 43 -->
<g id="node45" class="node">
<title>43</title>
<ellipse fill="#00ff00" fill-opacity="0.372549" stroke="black" cx="245.89" cy="-324.57" rx="27" ry="18"/>
<text text-anchor="middle" x="245.89" y="-320.87" font-family="Times,serif" font-size="14.00">43</text>
</g>
<!-- 19&#45;&#45;43 -->
<g id="edge74" class="edge">
<title>19&#45;&#45;43</title>
<path fill="none" stroke="black" d="M271.33,-352.46C267.67,-348.46 263.75,-344.15 260.11,-340.16"/>
</g>
<!-- 33&#45;&#45;46 -->
<g id="edge65" class="edge">
<title>33&#45;&#45;46</title>
<path fill="none" stroke="black" d="M117.78,-283.1C123.02,-264.23 131.22,-234.69 136.44,-215.9"/>
</g>
<!-- 9 -->
<g id="node40" class="node">
<title>9</title>
<ellipse fill="#00ff00" fill-opacity="0.372549" stroke="black" cx="149.64" cy="-344.72" rx="27" ry="18"/>
<text text-anchor="middle" x="149.64" y="-341.02" font-family="Times,serif" font-size="14.00">9</text>
</g>
<!-- 33&#45;&#45;9 -->
<g id="edge64" class="edge">
<title>33&#45;&#45;9</title>
<path fill="none" stroke="black" d="M126.1,-316.79C129.4,-320.71 132.94,-324.9 136.24,-328.82"/>
</g>
<!-- 48 -->
<g id="node42" class="node">
<title>48</title>
<ellipse fill="#00ff00" fill-opacity="0.372549" stroke="black" cx="131.14" cy="-394.79" rx="27" ry="18"/>
<text text-anchor="middle" x="131.14" y="-391.09" font-family="Times,serif" font-size="14.00">48</text>
</g>
<!-- 33&#45;&#45;48 -->
<g id="edge66" class="edge">
<title>33&#45;&#45;48</title>
<path fill="none" stroke="black" d="M116.34,-319.09C119.59,-335.7 124.38,-360.17 127.62,-376.76"/>
</g>
<!-- 12&#45;&#45;8 -->
<g id="edge8" class="edge">
<title>12&#45;&#45;8</title>
<path fill="none" stroke="black" d="M287.32,-245.83C266.98,-246.91 239.2,-248.38 218.78,-249.47"/>
</g>
<!-- 36 -->
<g id="node12" class="node">
<title>36</title>
<ellipse fill="#00ff00" fill-opacity="0.372549" stroke="black" cx="258.85" cy="-144.83" rx="27" ry="18"/>
<text text-anchor="middle" x="258.85" y="-141.13" font-family="Times,serif" font-size="14.00">36</text>
</g>
<!-- 12&#45;&#45;36 -->
<g id="edge9" class="edge">
<title>12&#45;&#45;36</title>
<path fill="none" stroke="black" d="M304.87,-227.5C294.68,-209.2 278.51,-180.14 268.3,-161.8"/>
</g>
<!-- 17 -->
<g id="node13" class="node">
<title>17</title>
<ellipse fill="#00ff00" fill-opacity="0.372549" stroke="black" cx="351.55" cy="-331.67" rx="27" ry="18"/>
<text text-anchor="middle" x="351.55" y="-327.97" font-family="Times,serif" font-size="14.00">17</text>
</g>
<!-- 12&#45;&#45;17 -->
<g id="edge10" class="edge">
<title>12&#45;&#45;17</title>
<path fill="none" stroke="black" d="M321.81,-262.06C328.32,-277.3 337.67,-299.18 344.14,-314.33"/>
</g>
<!-- 36&#45;&#45;46 -->
<g id="edge83" class="edge">
<title>36&#45;&#45;46</title>
<path fill="none" stroke="black" d="M236.48,-154.99C215.7,-164.43 184.92,-178.41 164.05,-187.89"/>
</g>
<!-- 21 -->
<g id="node44" class="node">
<title>21</title>
<ellipse fill="#00ff00" fill-opacity="0.372549" stroke="black" cx="345.97" cy="-386.43" rx="27" ry="18"/>
<text text-anchor="middle" x="345.97" y="-382.73" font-family="Times,serif" font-size="14.00">21</text>
</g>
<!-- 17&#45;&#45;21 -->
<g id="edge71" class="edge">
<title>17&#45;&#45;21</title>
<path fill="none" stroke="black" d="M349.69,-349.9C349.08,-355.88 348.41,-362.51 347.8,-368.46"/>
</g>
<!-- 13 -->
<g id="node14" class="node">
<title>13</title>
<ellipse fill="#00ff00" fill-opacity="0.372549" stroke="black" cx="445.06" cy="-221.69" rx="27" ry="18"/>
<text text-anchor="middle" x="445.06" y="-217.99" font-family="Times,serif" font-size="14.00">13</text>
</g>
<!-- 38 -->
<g id="node15" class="node">
<title>38</title>
<ellipse fill="#00ff00" fill-opacity="0.372549" stroke="black" cx="368.35" cy="-281.53" rx="27" ry="18"/>
<text text-anchor="middle" x="368.35" y="-277.83" font-family="Times,serif" font-size="14.00">38</text>
</g>
<!-- 13&#45;&#45;38 -->
<g id="edge11" class="edge">
<title>13&#45;&#45;38</title>
<path fill="none" stroke="black" d="M427.27,-235.57C414.88,-245.24 398.42,-258.07 386.05,-267.72"/>
</g>
<!-- 13&#45;&#45;24 -->
<g id="edge12" class="edge">
<title>13&#45;&#45;24</title>
<path fill="none" stroke="black" d="M434.2,-205.21C422.72,-193.16 404.55,-177.35 390.17,-166.8"/>
</g>
<!-- 29 -->
<g id="node21" class="node">
<title>29</title>
<ellipse fill="#00ff00" fill-opacity="0.372549" stroke="black" cx="237.85" cy="-267.53" rx="27" ry="18"/>
<text text-anchor="middle" x="237.85" y="-263.83" font-family="Times,serif" font-size="14.00">29</text>
</g>
<!-- 38&#45;&#45;29 -->
<g id="edge25" class="edge">
<title>38&#45;&#45;29</title>
<path fill="none" stroke="black" d="M341.63,-278.66C319.11,-276.25 287.05,-272.81 264.54,-270.4"/>
</g>
<!-- 38&#45;&#45;35 -->
<g id="edge26" class="edge">
<title>38&#45;&#45;35</title>
<path fill="none" stroke="black" d="M343.47,-273.91C343.34,-273.87 343.21,-273.83 343.08,-273.79"/>
</g>
<!-- 24&#45;&#45;12 -->
<g id="edge16" class="edge">
<title>24&#45;&#45;12</title>
<path fill="none" stroke="black" d="M358.09,-172.93C348.41,-188.71 334.12,-212.01 324.52,-227.68"/>
</g>
<!-- 24&#45;&#45;13 -->
<g id="edge14" class="edge">
<title>24&#45;&#45;13</title>
<path fill="none" stroke="black" d="M379.42,-172.34C390.9,-184.39 409.07,-200.2 423.45,-210.76"/>
</g>
<!-- 49 -->
<g id="node17" class="node">
<title>49</title>
<ellipse fill="#00ff00" fill-opacity="0.372549" stroke="black" cx="442" cy="-142.15" rx="27" ry="18"/>
<text text-anchor="middle" x="442" y="-138.45" font-family="Times,serif" font-size="14.00">49</text>
</g>
<!-- 24&#45;&#45;49 -->
<g id="edge13" class="edge">
<title>24&#45;&#45;49</title>
<path fill="none" stroke="black" d="M394.66,-150.99C401.58,-149.69 409.06,-148.3 415.98,-147"/>
</g>
<!-- 24&#45;&#45;47 -->
<g id="edge15" class="edge">
<title>24&#45;&#45;47</title>
<path fill="none" stroke="black" d="M343.59,-148.69C341.62,-148.12 339.62,-147.55 337.65,-146.98"/>
</g>
<!-- 27&#45;&#45;12 -->
<g id="edge19" class="edge">
<title>27&#45;&#45;12</title>
<path fill="none" stroke="black" d="M367.56,-263.25C358.25,-259.95 347.61,-256.19 338.3,-252.9"/>
</g>
<!-- 14 -->
<g id="node20" class="node">
<title>14</title>
<ellipse fill="#00ff00" fill-opacity="0.372549" stroke="black" cx="353.67" cy="-202.11" rx="27" ry="18"/>
<text text-anchor="middle" x="353.67" y="-198.41" font-family="Times,serif" font-size="14.00">14</text>
</g>
<!-- 27&#45;&#45;14 -->
<g id="edge20" class="edge">
<title>27&#45;&#45;14</title>
<path fill="none" stroke="black" d="M382.23,-254.54C376.35,-243.74 368.8,-229.88 362.94,-219.13"/>
</g>
<!-- 14&#45;&#45;38 -->
<g id="edge32" class="edge">
<title>14&#45;&#45;38</title>
<path fill="none" stroke="black" d="M357,-220.13C359.41,-233.13 362.63,-250.6 365.03,-263.58"/>
</g>
<!-- 14&#45;&#45;24 -->
<g id="edge31" class="edge">
<title>14&#45;&#45;24</title>
<path fill="none" stroke="black" d="M359.38,-184.36C360.53,-180.79 361.74,-177.05 362.88,-173.49"/>
</g>
<!-- 18 -->
<g id="node27" class="node">
<title>18</title>
<ellipse fill="#00ff00" fill-opacity="0.372549" stroke="black" cx="380.54" cy="-204.54" rx="27" ry="18"/>
<text text-anchor="middle" x="380.54" y="-200.84" font-family="Times,serif" font-size="14.00">18</text>
</g>
<!-- 14&#45;&#45;18 -->
<g id="edge30" class="edge">
<title>14&#45;&#45;18</title>
<path fill="none" stroke="black" d="M380.46,-204.54C380.48,-204.54 380.5,-204.54 380.52,-204.54"/>
</g>
<!-- 29&#45;&#45;8 -->
<g id="edge22" class="edge">
<title>29&#45;&#45;8</title>
<path fill="none" stroke="black" d="M213.84,-258.94C213.75,-258.9 213.66,-258.87 213.58,-258.84"/>
</g>
<!-- 29&#45;&#45;10 -->
<g id="edge21" class="edge">
<title>29&#45;&#45;10</title>
<path fill="none" stroke="black" d="M231.02,-284.99C226.8,-295.77 221.41,-309.57 217.17,-320.41"/>
</g>
<!-- 37 -->
<g id="node32" class="node">
<title>37</title>
<ellipse fill="#00ff00" fill-opacity="0.372549" stroke="black" cx="128.31" cy="-223.49" rx="27" ry="18"/>
<text text-anchor="middle" x="128.31" y="-219.79" font-family="Times,serif" font-size="14.00">37</text>
</g>
<!-- 44&#45;&#45;37 -->
<g id="edge50" class="edge">
<title>44&#45;&#45;37</title>
<path fill="none" stroke="black" d="M174.84,-140.4C164.53,-158.8 148.19,-188 137.86,-206.43"/>
</g>
<!-- 44&#45;&#45;32 -->
<g id="edge51" class="edge">
<title>44&#45;&#45;32</title>
<path fill="none" stroke="black" d="M187.1,-141.51C189.64,-158.12 193.38,-182.61 195.91,-199.21"/>
</g>
<!-- 35&#45;&#45;16 -->
<g id="edge81" class="edge">
<title>35&#45;&#45;16</title>
<path fill="none" stroke="black" d="M301.72,-273.99C285.38,-276.98 264.44,-280.82 248.09,-283.82"/>
</g>
<!-- 35&#45;&#45;18 -->
<g id="edge82" class="edge">
<title>35&#45;&#45;18</title>
<path fill="none" stroke="black" d="M340.96,-253.2C348.99,-243.33 359.26,-230.7 367.33,-220.79"/>
</g>
<!-- 34 -->
<g id="node47" class="node">
<title>34</title>
<ellipse fill="#00ff00" fill-opacity="0.372549" stroke="black" cx="407.04" cy="-187.47" rx="27" ry="18"/>
<text text-anchor="middle" x="407.04" y="-183.77" font-family="Times,serif" font-size="14.00">34</text>
</g>
<!-- 35&#45;&#45;34 -->
<g id="edge80" class="edge">
<title>35&#45;&#45;34</title>
<path fill="none" stroke="black" d="M342.84,-253.81C356.98,-239.2 378.12,-217.35 392.23,-202.77"/>
</g>
<!-- 2 -->
<g id="node24" class="node">
<title>2</title>
<ellipse fill="#00ff00" fill-opacity="0.372549" stroke="black" cx="283.36" cy="-186.13" rx="27" ry="18"/>
<text text-anchor="middle" x="283.36" y="-182.43" font-family="Times,serif" font-size="14.00">2</text>
</g>
<!-- 2&#45;&#45;35 -->
<g id="edge28" class="edge">
<title>2&#45;&#45;35</title>
<path fill="none" stroke="black" d="M292.6,-203.33C300.26,-217.59 311.09,-237.74 318.74,-251.99"/>
</g>
<!-- 42 -->
<g id="node25" class="node">
<title>42</title>
<ellipse fill="#00ff00" fill-opacity="0.372549" stroke="black" cx="178.02" cy="-174.84" rx="27" ry="18"/>
<text text-anchor="middle" x="178.02" y="-171.14" font-family="Times,serif" font-size="14.00">42</text>
</g>
<!-- 2&#45;&#45;42 -->
<g id="edge27" class="edge">
<title>2&#45;&#45;42</title>
<path fill="none" stroke="black" d="M256.5,-183.25C240.66,-181.55 220.67,-179.41 204.83,-177.71"/>
</g>
<!-- 11 -->
<g id="node26" class="node">
<title>11</title>
<ellipse fill="#00ff00" fill-opacity="0.372549" stroke="black" cx="243.29" cy="-213.08" rx="27" ry="18"/>
<text text-anchor="middle" x="243.29" y="-209.38" font-family="Times,serif" font-size="14.00">11</text>
</g>
<!-- 2&#45;&#45;11 -->
<g id="edge29" class="edge">
<title>2&#45;&#45;11</title>
<path fill="none" stroke="black" d="M264.26,-198.97C263.62,-199.41 262.97,-199.84 262.33,-200.28"/>
</g>
<!-- 42&#45;&#45;29 -->
<g id="edge49" class="edge">
<title>42&#45;&#45;29</title>
<path fill="none" stroke="black" d="M188.72,-191.41C199.54,-208.18 216.18,-233.96 227.04,-250.79"/>
</g>
<!-- 42&#45;&#45;44 -->
<g id="edge48" class="edge">
<title>42&#45;&#45;44</title>
<path fill="none" stroke="black" d="M180.23,-156.85C180.84,-151.87 181.51,-146.47 182.12,-141.48"/>
</g>
<!-- 11&#45;&#45;40 -->
<g id="edge89" class="edge">
<title>11&#45;&#45;40</title>
<path fill="none" stroke="black" d="M241.24,-194.88C238.72,-172.61 234.49,-135.14 231.98,-112.94"/>
</g>
<!-- 11&#45;&#45;50 -->
<g id="edge90" class="edge">
<title>11&#45;&#45;50</title>
<path fill="none" stroke="black" d="M252.29,-230.21C260.56,-245.94 272.75,-269.13 281.01,-284.84"/>
</g>
<!-- 18&#45;&#45;49 -->
<g id="edge33" class="edge">
<title>18&#45;&#45;49</title>
<path fill="none" stroke="black" d="M395.42,-189.44C404.94,-179.77 417.25,-167.27 426.83,-157.55"/>
</g>
<!-- 18&#45;&#45;47 -->
<g id="edge34" class="edge">
<title>18&#45;&#45;47</title>
<path fill="none" stroke="black" d="M364.81,-189.54C353.86,-179.08 339.32,-165.2 328.39,-154.76"/>
</g>
<!-- 26 -->
<g id="node28" class="node">
<title>26</title>
<ellipse fill="#00ff00" fill-opacity="0.372549" stroke="black" cx="84.57" cy="-169.8" rx="27" ry="18"/>
<text text-anchor="middle" x="84.57" y="-166.1" font-family="Times,serif" font-size="14.00">26</text>
</g>
<!-- 26&#45;&#45;42 -->
<g id="edge36" class="edge">
<title>26&#45;&#45;42</title>
<path fill="none" stroke="black" d="M111.6,-171.26C124,-171.93 138.66,-172.72 151.05,-173.38"/>
</g>
<!-- 41 -->
<g id="node29" class="node">
<title>41</title>
<ellipse fill="#00ff00" fill-opacity="0.372549" stroke="black" cx="140.96" cy="-165.87" rx="27" ry="18"/>
<text text-anchor="middle" x="140.96" y="-162.17" font-family="Times,serif" font-size="14.00">41</text>
</g>
<!-- 26&#45;&#45;41 -->
<g id="edge35" class="edge">
<title>26&#45;&#45;41</title>
<path fill="none" stroke="black" d="M111.44,-167.93C112.24,-167.87 113.03,-167.82 113.83,-167.76"/>
</g>
<!-- 41&#45;&#45;8 -->
<g id="edge47" class="edge">
<title>41&#45;&#45;8</title>
<path fill="none" stroke="black" d="M150.94,-182.67C159.79,-197.58 172.66,-219.25 181.51,-234.15"/>
</g>
<!-- 31 -->
<g id="node30" class="node">
<title>31</title>
<ellipse fill="#00ff00" fill-opacity="0.372549" stroke="black" cx="238.81" cy="-172.9" rx="27" ry="18"/>
<text text-anchor="middle" x="238.81" y="-169.2" font-family="Times,serif" font-size="14.00">31</text>
</g>
<!-- 41&#45;&#45;31 -->
<g id="edge46" class="edge">
<title>41&#45;&#45;31</title>
<path fill="none" stroke="black" d="M167.96,-167.81C181.65,-168.79 198.22,-169.98 211.9,-170.96"/>
</g>
<!-- 31&#45;&#45;25 -->
<g id="edge39" class="edge">
<title>31&#45;&#45;25</title>
<path fill="none" stroke="black" d="M246.79,-190.32C255.74,-209.87 270.19,-241.4 279.15,-260.96"/>
</g>
<!-- 31&#45;&#45;47 -->
<g id="edge38" class="edge">
<title>31&#45;&#45;47</title>
<path fill="none" stroke="black" d="M261.39,-162.8C270.57,-158.69 281.14,-153.97 290.3,-149.87"/>
</g>
<!-- 31&#45;&#45;39 -->
<g id="edge37" class="edge">
<title>31&#45;&#45;39</title>
<path fill="none" stroke="black" d="M252.69,-188.42C258.23,-194.61 264.6,-201.72 270.15,-207.93"/>
</g>
<!-- 39&#45;&#45;47 -->
<g id="edge45" class="edge">
<title>39&#45;&#45;47</title>
<path fill="none" stroke="black" d="M290.31,-205.92C295.14,-191.69 301.89,-171.82 306.72,-157.59"/>
</g>
<!-- 39&#45;&#45;14 -->
<g id="edge43" class="edge">
<title>39&#45;&#45;14</title>
<path fill="none" stroke="black" d="M308.93,-216.03C315.48,-214 322.55,-211.8 329.09,-209.76"/>
</g>
<!-- 39&#45;&#45;18 -->
<g id="edge44" class="edge">
<title>39&#45;&#45;18</title>
<path fill="none" stroke="black" d="M310.32,-218.52C324.02,-215.8 340.76,-212.46 354.46,-209.74"/>
</g>
<!-- 39&#45;&#45;50 -->
<g id="edge42" class="edge">
<title>39&#45;&#45;50</title>
<path fill="none" stroke="black" d="M285.6,-241.85C286.52,-254.48 287.75,-271.27 288.67,-283.88"/>
</g>
<!-- 37&#45;&#45;16 -->
<g id="edge41" class="edge">
<title>37&#45;&#45;16</title>
<path fill="none" stroke="black" d="M147.23,-236.67C163.44,-247.98 186.68,-264.18 202.89,-275.48"/>
</g>
<!-- 37&#45;&#45;26 -->
<g id="edge40" class="edge">
<title>37&#45;&#45;26</title>
<path fill="none" stroke="black" d="M115.19,-207.38C109.65,-200.59 103.22,-192.69 97.69,-185.9"/>
</g>
<!-- 32&#45;&#45;42 -->
<g id="edge96" class="edge">
<title>32&#45;&#45;42</title>
<path fill="none" stroke="black" d="M190.27,-199.99C189.02,-197.43 187.73,-194.78 186.48,-192.21"/>
</g>
<!-- 32&#45;&#45;39 -->
<g id="edge95" class="edge">
<title>32&#45;&#45;39</title>
<path fill="none" stroke="black" d="M225.75,-219.29C235.84,-220.05 247.29,-220.91 257.36,-221.68"/>
</g>
<!-- 28 -->
<g id="node37" class="node">
<title>28</title>
<ellipse fill="#00ff00" fill-opacity="0.372549" stroke="black" cx="156.25" cy="-304.4" rx="27" ry="18"/>
<text text-anchor="middle" x="156.25" y="-300.7" font-family="Times,serif" font-size="14.00">28</text>
</g>
<!-- 32&#45;&#45;28 -->
<g id="edge94" class="edge">
<title>32&#45;&#45;28</title>
<path fill="none" stroke="black" d="M190.29,-234.46C182.85,-249.74 172.05,-271.95 164.62,-287.22"/>
</g>
<!-- 3 -->
<g id="node35" class="node">
<title>3</title>
<ellipse fill="#00ff00" fill-opacity="0.372549" stroke="black" cx="66.51" cy="-338.58" rx="27" ry="18"/>
<text text-anchor="middle" x="66.51" y="-334.88" font-family="Times,serif" font-size="14.00">3</text>
</g>
<!-- 20 -->
<g id="node36" class="node">
<title>20</title>
<ellipse fill="#00ff00" fill-opacity="0.372549" stroke="black" cx="27" cy="-303.69" rx="27" ry="18"/>
<text text-anchor="middle" x="27" y="-299.99" font-family="Times,serif" font-size="14.00">20</text>
</g>
<!-- 3&#45;&#45;20 -->
<g id="edge52" class="edge">
<title>3&#45;&#45;20</title>
<path fill="none" stroke="black" d="M49.98,-323.99C47.78,-322.04 45.53,-320.05 43.33,-318.11"/>
</g>
<!-- 3&#45;&#45;28 -->
<g id="edge53" class="edge">
<title>3&#45;&#45;28</title>
<path fill="none" stroke="black" d="M90.09,-329.6C103.17,-324.62 119.41,-318.44 132.52,-313.44"/>
</g>
<!-- 20&#45;&#45;33 -->
<g id="edge63" class="edge">
<title>20&#45;&#45;33</title>
<path fill="none" stroke="black" d="M54.15,-302.84C64.26,-302.53 75.74,-302.17 85.83,-301.85"/>
</g>
<!-- 28&#45;&#45;8 -->
<g id="edge93" class="edge">
<title>28&#45;&#45;8</title>
<path fill="none" stroke="black" d="M167.2,-287.77C171.4,-281.4 176.19,-274.12 180.4,-267.72"/>
</g>
<!-- 28&#45;&#45;43 -->
<g id="edge92" class="edge">
<title>28&#45;&#45;43</title>
<path fill="none" stroke="black" d="M182.18,-310.24C194.07,-312.91 208.14,-316.08 220.02,-318.75"/>
</g>
<!-- 6 -->
<g id="node38" class="node">
<title>6</title>
<ellipse fill="#00ff00" fill-opacity="0.372549" stroke="black" cx="151.05" cy="-406.96" rx="27" ry="18"/>
<text text-anchor="middle" x="151.05" y="-403.26" font-family="Times,serif" font-size="14.00">6</text>
</g>
<!-- 6&#45;&#45;28 -->
<g id="edge55" class="edge">
<title>6&#45;&#45;28</title>
<path fill="none" stroke="black" d="M151.98,-388.62C152.93,-369.96 154.39,-341.19 155.33,-322.58"/>
</g>
<!-- 45 -->
<g id="node39" class="node">
<title>45</title>
<ellipse fill="#00ff00" fill-opacity="0.372549" stroke="black" cx="207.5" cy="-462.08" rx="27" ry="18"/>
<text text-anchor="middle" x="207.5" y="-458.38" font-family="Times,serif" font-size="14.00">45</text>
</g>
<!-- 6&#45;&#45;45 -->
<g id="edge54" class="edge">
<title>6&#45;&#45;45</title>
<path fill="none" stroke="black" d="M166.47,-422.02C174.44,-429.8 184.13,-439.26 192.09,-447.03"/>
</g>
<!-- 45&#45;&#45;15 -->
<g id="edge67" class="edge">
<title>45&#45;&#45;15</title>
<path fill="none" stroke="black" d="M212.86,-444.32C216.43,-432.47 221.12,-416.93 224.71,-405.05"/>
</g>
<!-- 9&#45;&#45;16 -->
<g id="edge57" class="edge">
<title>9&#45;&#45;16</title>
<path fill="none" stroke="black" d="M167.47,-330.86C178.65,-322.17 193,-311.01 204.14,-302.35"/>
</g>
<!-- 9&#45;&#45;6 -->
<g id="edge56" class="edge">
<title>9&#45;&#45;6</title>
<path fill="none" stroke="black" d="M150.05,-362.72C150.23,-370.91 150.45,-380.57 150.64,-388.78"/>
</g>
<!-- 15&#45;&#45;16 -->
<g id="edge58" class="edge">
<title>15&#45;&#45;16</title>
<path fill="none" stroke="black" d="M228.57,-369.1C227.08,-351.43 224.82,-324.68 223.32,-306.94"/>
</g>
<!-- 15&#45;&#45;48 -->
<g id="edge59" class="edge">
<title>15&#45;&#45;48</title>
<path fill="none" stroke="black" d="M203.06,-389.25C189.1,-390.32 172.11,-391.63 158.15,-392.71"/>
</g>
<!-- 4 -->
<g id="node43" class="node">
<title>4</title>
<ellipse fill="#00ff00" fill-opacity="0.372549" stroke="black" cx="317.21" cy="-363.41" rx="27" ry="18"/>
<text text-anchor="middle" x="317.21" y="-359.71" font-family="Times,serif" font-size="14.00">4</text>
</g>
<!-- 4&#45;&#45;12 -->
<g id="edge70" class="edge">
<title>4&#45;&#45;12</title>
<path fill="none" stroke="black" d="M316.77,-345.34C316.21,-322.97 315.28,-285.09 314.72,-262.64"/>
</g>
<!-- 4&#45;&#45;17 -->
<g id="edge68" class="edge">
<title>4&#45;&#45;17</title>
<path fill="none" stroke="black" d="M333.18,-348.65C334.02,-347.88 334.86,-347.1 335.7,-346.32"/>
</g>
<!-- 4&#45;&#45;15 -->
<g id="edge69" class="edge">
<title>4&#45;&#45;15</title>
<path fill="none" stroke="black" d="M292.02,-370.28C280.46,-373.43 266.79,-377.16 255.24,-380.31"/>
</g>
<!-- 21&#45;&#45;19 -->
<g id="edge75" class="edge">
<title>21&#45;&#45;19</title>
<path fill="none" stroke="black" d="M321.11,-378.92C317.6,-377.86 314,-376.77 310.5,-375.71"/>
</g>
<!-- 21&#45;&#45;50 -->
<g id="edge76" class="edge">
<title>21&#45;&#45;50</title>
<path fill="none" stroke="black" d="M334.91,-369.73C325.09,-354.92 310.83,-333.39 301.02,-318.58"/>
</g>
<!-- 43&#45;&#45;17 -->
<g id="edge100" class="edge">
<title>43&#45;&#45;17</title>
<path fill="none" stroke="black" d="M272.83,-326.38C288.72,-327.45 308.77,-328.79 324.66,-329.86"/>
</g>
<!-- 43&#45;&#45;11 -->
<g id="edge99" class="edge">
<title>43&#45;&#45;11</title>
<path fill="none" stroke="black" d="M245.46,-306.16C244.98,-285.38 244.19,-251.79 243.71,-231.15"/>
</g>
<!-- 23 -->
<g id="node46" class="node">
<title>23</title>
<ellipse fill="#00ff00" fill-opacity="0.372549" stroke="black" cx="371.04" cy="-95.74" rx="27" ry="18"/>
<text text-anchor="middle" x="371.04" y="-92.04" font-family="Times,serif" font-size="14.00">23</text>
</g>
<!-- 23&#45;&#45;36 -->
<g id="edge77" class="edge">
<title>23&#45;&#45;36</title>
<path fill="none" stroke="black" d="M348.33,-105.68C328.87,-114.19 300.97,-126.4 281.52,-134.91"/>
</g>
<!-- 34&#45;&#45;24 -->
<g id="edge79" class="edge">
<title>34&#45;&#45;24</title>
<path fill="none" stroke="black" d="M389.6,-173.15C388.33,-172.1 387.04,-171.05 385.77,-170"/>
</g>
<!-- 34&#45;&#45;23 -->
<g id="edge78" class="edge">
<title>34&#45;&#45;23</title>
<path fill="none" stroke="black" d="M400.1,-169.79C393.72,-153.54 384.33,-129.6 377.96,-113.38"/>
</g>
<!-- 5 -->
<g id="node48" class="node">
<title>5</title>
<ellipse fill="#00ff00" fill-opacity="0.372549" stroke="black" cx="260.7" cy="-68.28" rx="27" ry="18"/>
<text text-anchor="middle" x="260.7" y="-64.58" font-family="Times,serif" font-size="14.00">5</text>
</g>
<!-- 5&#45;&#45;36 -->
<g id="edge85" class="edge">
<title>5&#45;&#45;36</title>
<path fill="none" stroke="black" d="M260.26,-86.42C259.97,-98.63 259.58,-114.64 259.29,-126.82"/>
</g>
<!-- 7 -->
<g id="node49" class="node">
<title>7</title>
<ellipse fill="#00ff00" fill-opacity="0.372549" stroke="black" cx="281.8" cy="-150.72" rx="27" ry="18"/>
<text text-anchor="middle" x="281.8" y="-147.02" font-family="Times,serif" font-size="14.00">7</text>
</g>
<!-- 5&#45;&#45;7 -->
<g id="edge84" class="edge">
<title>5&#45;&#45;7</title>
<path fill="none" stroke="black" d="M265.28,-86.17C268.82,-100 273.69,-119.05 277.23,-132.87"/>
</g>
<!-- 7&#45;&#45;14 -->
<g id="edge88" class="edge">
<title>7&#45;&#45;14</title>
<path fill="none" stroke="black" d="M300.31,-163.96C310.95,-171.57 324.3,-181.11 334.97,-188.74"/>
</g>
<!-- 7&#45;&#45;11 -->
<g id="edge87" class="edge">
<title>7&#45;&#45;11</title>
<path fill="none" stroke="black" d="M271.48,-167.44C265.95,-176.38 259.17,-187.37 253.64,-196.33"/>
</g>
<!-- 7&#45;&#45;32 -->
<g id="edge86" class="edge">
<title>7&#45;&#45;32</title>
<path fill="none" stroke="black" d="M264.17,-164.83C249.96,-176.19 230.11,-192.08 215.99,-203.38"/>
</g>
<!-- 22&#45;&#45;46 -->
<g id="edge91" class="edge">
<title>22&#45;&#45;46</title>
<path fill="none" stroke="black" d="M136.87,-118.72C137.86,-136.33 139.35,-162.73 140.34,-180.2"/>
</g>
</g>
</svg>
