<?xml version="1.0" encoding="UTF-8" standalone="no"?>
<!DOCTYPE svg PUBLIC "-//W3C//DTD SVG 1.1//EN"
 "http://www.w3.org/Graphics/SVG/1.1/DTD/svg11.dtd">
<!-- Generated by graphviz version 2.43.0 (0)
 -->
<!-- Title: G Pages: 1 -->
<svg width="224pt" height="410pt"
 viewBox="0.00 0.00 224.00 410.00" xmlns="http://www.w3.org/2000/svg" xmlns:xlink="http://www.w3.org/1999/xlink">
<g id="graph0" class="graph" transform="scale(1 1) rotate(0) translate(4 406)">
<title>G</title>
<polygon fill="white" stroke="transparent" points="-4,4 -4,-406 220,-406 220,4 -4,4"/>
<g id="clust1" class="cluster">
<title>cluster_0</title>
<polygon fill="lightgrey" stroke="lightgrey" points="8,-67 8,-358 98,-358 98,-67 8,-67"/>
<text text-anchor="middle" x="53" y="-342.8" font-family="Helvetica,Arial,sans-serif" font-size="14.00">process #1</text>
</g>
<g id="clust2" class="cluster">
<title>cluster_1</title>
<polygon fill="none" stroke="blue" points="125,-67 125,-358 208,-358 208,-67 125,-67"/>
<text text-anchor="middle" x="166.5" y="-342.8" font-family="Helvetica,Arial,sans-serif" font-size="14.00">process #2</text>
</g>
<!-- a0 -->
<g id="node1" class="node">
<title>a0</title>
<ellipse fill="white" stroke="white" cx="63" cy="-309" rx="27" ry="18"/>
<text text-anchor="middle" x="63" y="-305.3" font-family="Helvetica,Arial,sans-serif" font-size="14.00">a0</text>
</g>
<!-- a1 -->
<g id="node2" class="node">
<title>a1</title>
<ellipse fill="white" stroke="white" cx="63" cy="-237" rx="27" ry="18"/>
<text text-anchor="middle" x="63" y="-233.3" font-family="Helvetica,Arial,sans-serif" font-size="14.00">a1</text>
</g>
<!-- a0&#45;&gt;a1 -->
<g id="edge1" class="edge">
<title>a0&#45;&gt;a1</title>
<path fill="none" stroke="black" d="M63,-290.7C63,-282.98 63,-273.71 63,-265.11"/>
<polygon fill="black" stroke="black" points="66.5,-265.1 63,-255.1 59.5,-265.1 66.5,-265.1"/>
</g>
<!-- a2 -->
<g id="node3" class="node">
<title>a2</title>
<ellipse fill="white" stroke="white" cx="63" cy="-165" rx="27" ry="18"/>
<text text-anchor="middle" x="63" y="-161.3" font-family="Helvetica,Arial,sans-serif" font-size="14.00">a2</text>
</g>
<!-- a1&#45;&gt;a2 -->
<g id="edge2" class="edge">
<title>a1&#45;&gt;a2</title>
<path fill="none" stroke="black" d="M63,-218.7C63,-210.98 63,-201.71 63,-193.11"/>
<polygon fill="black" stroke="black" points="66.5,-193.1 63,-183.1 59.5,-193.1 66.5,-193.1"/>
</g>
<!-- b3 -->
<g id="node8" class="node">
<title>b3</title>
<ellipse fill="lightgrey" stroke="black" cx="160" cy="-93" rx="27" ry="18"/>
<text text-anchor="middle" x="160" y="-89.3" font-family="Helvetica,Arial,sans-serif" font-size="14.00">b3</text>
</g>
<!-- a1&#45;&gt;b3 -->
<g id="edge9" class="edge">
<title>a1&#45;&gt;b3</title>
<path fill="none" stroke="black" d="M73.75,-220.26C90.65,-195.52 123.54,-147.37 143.47,-118.2"/>
<polygon fill="black" stroke="black" points="146.45,-120.04 149.2,-109.81 140.67,-116.09 146.45,-120.04"/>
</g>
<!-- a3 -->
<g id="node4" class="node">
<title>a3</title>
<ellipse fill="white" stroke="white" cx="63" cy="-93" rx="27" ry="18"/>
<text text-anchor="middle" x="63" y="-89.3" font-family="Helvetica,Arial,sans-serif" font-size="14.00">a3</text>
</g>
<!-- a2&#45;&gt;a3 -->
<g id="edge3" class="edge">
<title>a2&#45;&gt;a3</title>
<path fill="none" stroke="black" d="M63,-146.7C63,-138.98 63,-129.71 63,-121.11"/>
<polygon fill="black" stroke="black" points="66.5,-121.1 63,-111.1 59.5,-121.1 66.5,-121.1"/>
</g>
<!-- a3&#45;&gt;a0 -->
<g id="edge11" class="edge">
<title>a3&#45;&gt;a0</title>
<path fill="none" stroke="black" d="M49.25,-108.93C41.04,-118.9 31.38,-132.75 27,-147 12.89,-192.88 12.89,-209.12 27,-255 30.29,-265.69 36.54,-276.15 42.93,-284.92"/>
<polygon fill="black" stroke="black" points="40.35,-287.31 49.25,-293.07 45.88,-283.02 40.35,-287.31"/>
</g>
<!-- end -->
<g id="node10" class="node">
<title>end</title>
<polygon fill="none" stroke="black" points="130.5,-39 91.5,-39 91.5,0 130.5,0 130.5,-39"/>
<polyline fill="none" stroke="black" points="103.5,-39 91.5,-27 "/>
<polyline fill="none" stroke="black" points="91.5,-12 103.5,0 "/>
<polyline fill="none" stroke="black" points="118.5,0 130.5,-12 "/>
<polyline fill="none" stroke="black" points="130.5,-27 118.5,-39 "/>
<text text-anchor="middle" x="111" y="-15.8" font-family="Helvetica,Arial,sans-serif" font-size="14.00">end</text>
</g>
<!-- a3&#45;&gt;end -->
<g id="edge12" class="edge">
<title>a3&#45;&gt;end</title>
<path fill="none" stroke="black" d="M73.65,-76.13C79.28,-67.75 86.34,-57.24 92.8,-47.61"/>
<polygon fill="black" stroke="black" points="95.84,-49.36 98.51,-39.11 90.03,-45.46 95.84,-49.36"/>
</g>
<!-- b0 -->
<g id="node5" class="node">
<title>b0</title>
<ellipse fill="lightgrey" stroke="black" cx="160" cy="-309" rx="27" ry="18"/>
<text text-anchor="middle" x="160" y="-305.3" font-family="Helvetica,Arial,sans-serif" font-size="14.00">b0</text>
</g>
<!-- b1 -->
<g id="node6" class="node">
<title>b1</title>
<ellipse fill="lightgrey" stroke="black" cx="166" cy="-237" rx="27" ry="18"/>
<text text-anchor="middle" x="166" y="-233.3" font-family="Helvetica,Arial,sans-serif" font-size="14.00">b1</text>
</g>
<!-- b0&#45;&gt;b1 -->
<g id="edge4" class="edge">
<title>b0&#45;&gt;b1</title>
<path fill="none" stroke="black" d="M161.48,-290.7C162.14,-282.98 162.94,-273.71 163.68,-265.11"/>
<polygon fill="black" stroke="black" points="167.17,-265.37 164.53,-255.1 160.19,-264.77 167.17,-265.37"/>
</g>
<!-- b2 -->
<g id="node7" class="node">
<title>b2</title>
<ellipse fill="lightgrey" stroke="black" cx="173" cy="-165" rx="27" ry="18"/>
<text text-anchor="middle" x="173" y="-161.3" font-family="Helvetica,Arial,sans-serif" font-size="14.00">b2</text>
</g>
<!-- b1&#45;&gt;b2 -->
<g id="edge5" class="edge">
<title>b1&#45;&gt;b2</title>
<path fill="none" stroke="black" d="M167.73,-218.7C168.5,-210.98 169.43,-201.71 170.29,-193.11"/>
<polygon fill="black" stroke="black" points="173.78,-193.4 171.29,-183.1 166.81,-192.71 173.78,-193.4"/>
</g>
<!-- b2&#45;&gt;a3 -->
<g id="edge10" class="edge">
<title>b2&#45;&gt;a3</title>
<path fill="none" stroke="black" d="M153.84,-151.81C136.33,-140.67 110.24,-124.06 90.51,-111.5"/>
<polygon fill="black" stroke="black" points="92.26,-108.47 81.94,-106.05 88.5,-114.37 92.26,-108.47"/>
</g>
<!-- b2&#45;&gt;b3 -->
<g id="edge6" class="edge">
<title>b2&#45;&gt;b3</title>
<path fill="none" stroke="black" d="M169.85,-147.05C168.42,-139.35 166.69,-130.03 165.08,-121.36"/>
<polygon fill="black" stroke="black" points="168.48,-120.47 163.21,-111.28 161.59,-121.75 168.48,-120.47"/>
</g>
<!-- b3&#45;&gt;end -->
<g id="edge13" class="edge">
<title>b3&#45;&gt;end</title>
<path fill="none" stroke="black" d="M149.13,-76.13C143.38,-67.75 136.18,-57.24 129.58,-47.61"/>
<polygon fill="black" stroke="black" points="132.29,-45.38 123.75,-39.11 126.52,-49.34 132.29,-45.38"/>
</g>
<!-- start -->
<g id="node9" class="node">
<title>start</title>
<polygon fill="none" stroke="black" points="111,-402 70.61,-384 111,-366 151.39,-384 111,-402"/>
<polyline fill="none" stroke="black" points="81.57,-388.89 81.57,-379.11 "/>
<polyline fill="none" stroke="black" points="100.04,-370.89 121.96,-370.89 "/>
<polyline fill="none" stroke="black" points="140.43,-379.11 140.43,-388.89 "/>
<polyline fill="none" stroke="black" points="121.96,-397.11 100.04,-397.11 "/>
<text text-anchor="middle" x="111" y="-380.3" font-family="Helvetica,Arial,sans-serif" font-size="14.00">start</text>
</g>
<!-- start&#45;&gt;a0 -->
<g id="edge7" class="edge">
<title>start&#45;&gt;a0</title>
<path fill="none" stroke="black" d="M102.2,-369.61C95.73,-359.77 86.75,-346.12 79.02,-334.37"/>
<polygon fill="black" stroke="black" points="81.84,-332.28 73.42,-325.85 75.99,-336.12 81.84,-332.28"/>
</g>
<!-- start&#45;&gt;b0 -->
<g id="edge8" class="edge">
<title>start&#45;&gt;b0</title>
<path fill="none" stroke="black" d="M119.99,-369.61C126.59,-359.77 135.75,-346.12 143.64,-334.37"/>
<polygon fill="black" stroke="black" points="146.7,-336.1 149.36,-325.85 140.88,-332.2 146.7,-336.1"/>
</g>
</g>
</svg>
