<?xml version="1.0" encoding="UTF-8" standalone="no"?>
<!DOCTYPE svg PUBLIC "-//W3C//DTD SVG 1.1//EN"
 "http://www.w3.org/Graphics/SVG/1.1/DTD/svg11.dtd">
<!-- Generated by graphviz version 2.43.0 (0)
 -->
<!-- Title: Twelve_colors Pages: 1 -->
<svg width="591pt" height="664pt"
 viewBox="0.00 0.00 590.69 664.36" xmlns="http://www.w3.org/2000/svg" xmlns:xlink="http://www.w3.org/1999/xlink">
<g id="graph0" class="graph" transform="scale(1 1) rotate(0) translate(4 660.36)">
<title>Twelve_colors</title>
<polygon fill="white" stroke="transparent" points="-4,4 -4,-660.36 586.69,-660.36 586.69,4 -4,4"/>
<text text-anchor="middle" x="291.34" y="-7.8" font-family="Arial" font-size="14.00">Twelve colors. Neato layout</text>
<!-- white -->
<g id="node1" class="node">
<title>white</title>
<ellipse fill="white" stroke="black" cx="289.18" cy="-339.81" rx="54" ry="54"/>
<text text-anchor="middle" x="289.18" y="-336.11" font-family="Arial" font-size="14.00">white</text>
</g>
<!-- red -->
<g id="node2" class="node">
<title>red</title>
<ellipse fill="red" stroke="black" cx="202.8" cy="-212.54" rx="54" ry="54"/>
<text text-anchor="middle" x="202.8" y="-208.84" font-family="Arial" font-size="14.00" fill="white">red</text>
</g>
<!-- white&#45;&gt;red -->
<g id="edge1" class="edge">
<title>white&#45;&gt;red</title>
<path fill="none" stroke="black" d="M253.02,-286.54C246.45,-276.85 239.66,-266.84 233.27,-257.43"/>
<polygon fill="black" stroke="black" points="250.21,-288.63 258.73,-294.94 256.01,-284.7 250.21,-288.63"/>
</g>
<!-- green -->
<g id="node3" class="node">
<title>green</title>
<ellipse fill="green" stroke="black" cx="442.58" cy="-327.55" rx="54" ry="54"/>
<text text-anchor="middle" x="442.58" y="-323.85" font-family="Arial" font-size="14.00" fill="white">green</text>
</g>
<!-- white&#45;&gt;green -->
<g id="edge2" class="edge">
<title>white&#45;&gt;green</title>
<path fill="none" stroke="black" d="M353.45,-334.67C365.19,-333.73 377.33,-332.76 388.73,-331.85"/>
<polygon fill="black" stroke="black" points="352.95,-331.2 343.26,-335.48 353.51,-338.18 352.95,-331.2"/>
</g>
<!-- blue -->
<g id="node4" class="node">
<title>blue</title>
<ellipse fill="blue" stroke="black" cx="222.59" cy="-478.3" rx="54" ry="54"/>
<text text-anchor="middle" x="222.59" y="-474.6" font-family="Arial" font-size="14.00" fill="white">blue</text>
</g>
<!-- white&#45;&gt;blue -->
<g id="edge3" class="edge">
<title>white&#45;&gt;blue</title>
<path fill="none" stroke="black" d="M261.31,-397.77C256.24,-408.31 251,-419.2 246.08,-429.45"/>
<polygon fill="black" stroke="black" points="264.52,-399.16 265.7,-388.63 258.21,-396.13 264.52,-399.16"/>
</g>
<!-- yellow -->
<g id="node5" class="node">
<title>yellow</title>
<ellipse fill="yellow" stroke="black" cx="365.58" cy="-180.67" rx="54" ry="54"/>
<text text-anchor="middle" x="365.58" y="-176.97" font-family="Arial" font-size="14.00">yellow</text>
</g>
<!-- red&#45;&gt;yellow -->
<g id="edge4" class="edge">
<title>red&#45;&gt;yellow</title>
<path fill="none" stroke="black" d="M256.1,-202.1C270.93,-199.2 287.18,-196.02 302.52,-193.02"/>
<polygon fill="black" stroke="black" points="303.3,-196.43 312.44,-191.07 301.95,-189.56 303.3,-196.43"/>
</g>
<!-- magenta -->
<g id="node7" class="node">
<title>magenta</title>
<ellipse fill="magenta" stroke="black" cx="113.79" cy="-352.6" rx="54" ry="54"/>
<text text-anchor="middle" x="113.79" y="-348.9" font-family="Arial" font-size="14.00" fill="white">magenta</text>
</g>
<!-- red&#45;&gt;magenta -->
<g id="edge8" class="edge">
<title>red&#45;&gt;magenta</title>
<path fill="none" stroke="black" d="M173.65,-258.4C165.58,-271.1 156.75,-285 148.4,-298.14"/>
<polygon fill="black" stroke="black" points="145.41,-296.32 143,-306.64 151.32,-300.08 145.41,-296.32"/>
</g>
<!-- orange -->
<g id="node9" class="node">
<title>orange</title>
<ellipse fill="orange" stroke="black" cx="265.37" cy="-77" rx="54" ry="54"/>
<text text-anchor="middle" x="265.37" y="-73.3" font-family="Arial" font-size="14.00">orange</text>
</g>
<!-- red&#45;&gt;orange -->
<g id="edge12" class="edge">
<title>red&#45;&gt;orange</title>
<path fill="none" stroke="black" d="M225.56,-163.22C229.76,-154.14 234.17,-144.58 238.47,-135.26"/>
<polygon fill="black" stroke="black" points="241.71,-136.6 242.72,-126.05 235.35,-133.67 241.71,-136.6"/>
</g>
<!-- deeppink -->
<g id="node11" class="node">
<title>deeppink</title>
<ellipse fill="deeppink" stroke="black" cx="54" cy="-221.04" rx="54" ry="54"/>
<text text-anchor="middle" x="54" y="-217.34" font-family="Arial" font-size="14.00" fill="white">deeppink</text>
</g>
<!-- red&#45;&gt;deeppink -->
<g id="edge16" class="edge">
<title>red&#45;&gt;deeppink</title>
<path fill="none" stroke="black" d="M148.66,-215.63C138.81,-216.2 128.45,-216.79 118.34,-217.37"/>
<polygon fill="black" stroke="black" points="118.13,-213.87 108.35,-217.94 118.53,-220.86 118.13,-213.87"/>
</g>
<!-- green&#45;&gt;yellow -->
<g id="edge5" class="edge">
<title>green&#45;&gt;yellow</title>
<path fill="none" stroke="black" d="M417.37,-279.45C410.35,-266.07 402.66,-251.41 395.41,-237.57"/>
<polygon fill="black" stroke="black" points="398.46,-235.85 390.72,-228.62 392.26,-239.1 398.46,-235.85"/>
</g>
<!-- cyan -->
<g id="node6" class="node">
<title>cyan</title>
<ellipse fill="cyan" stroke="black" cx="388.64" cy="-484.42" rx="54" ry="54"/>
<text text-anchor="middle" x="388.64" y="-480.72" font-family="Arial" font-size="14.00">cyan</text>
</g>
<!-- green&#45;&gt;cyan -->
<g id="edge6" class="edge">
<title>green&#45;&gt;cyan</title>
<path fill="none" stroke="black" d="M424.92,-378.91C420,-393.21 414.62,-408.87 409.54,-423.64"/>
<polygon fill="black" stroke="black" points="406.19,-422.61 406.25,-433.21 412.81,-424.89 406.19,-422.61"/>
</g>
<!-- yellowgreen -->
<g id="node10" class="node">
<title>yellowgreen</title>
<ellipse fill="yellowgreen" stroke="black" cx="509.17" cy="-193.94" rx="54" ry="54"/>
<text text-anchor="middle" x="509.17" y="-190.24" font-family="Arial" font-size="14.00">yellowgreen</text>
</g>
<!-- green&#45;&gt;yellowgreen -->
<g id="edge14" class="edge">
<title>green&#45;&gt;yellowgreen</title>
<path fill="none" stroke="black" d="M466.81,-278.93C471.27,-269.98 475.97,-260.55 480.54,-251.37"/>
<polygon fill="black" stroke="black" points="483.74,-252.8 485.07,-242.29 477.48,-249.68 483.74,-252.8"/>
</g>
<!-- springgreen -->
<g id="node13" class="node">
<title>springgreen</title>
<ellipse fill="springgreen" stroke="black" cx="528.69" cy="-449.33" rx="54" ry="54"/>
<text text-anchor="middle" x="528.69" y="-445.63" font-family="Arial" font-size="14.00">springgreen</text>
</g>
<!-- green&#45;&gt;springgreen -->
<g id="edge20" class="edge">
<title>green&#45;&gt;springgreen</title>
<path fill="none" stroke="black" d="M473.91,-371.86C479.61,-379.92 485.6,-388.39 491.45,-396.67"/>
<polygon fill="black" stroke="black" points="488.6,-398.7 497.23,-404.85 494.32,-394.66 488.6,-398.7"/>
</g>
<!-- blue&#45;&gt;cyan -->
<g id="edge7" class="edge">
<title>blue&#45;&gt;cyan</title>
<path fill="none" stroke="black" d="M276.96,-480.3C292.09,-480.86 308.67,-481.47 324.31,-482.05"/>
<polygon fill="black" stroke="black" points="324.31,-485.55 334.43,-482.42 324.57,-478.55 324.31,-485.55"/>
</g>
<!-- blue&#45;&gt;magenta -->
<g id="edge9" class="edge">
<title>blue&#45;&gt;magenta</title>
<path fill="none" stroke="black" d="M186.96,-437.14C177.1,-425.75 166.3,-413.27 156.09,-401.48"/>
<polygon fill="black" stroke="black" points="158.68,-399.12 149.49,-393.85 153.39,-403.7 158.68,-399.12"/>
</g>
<!-- deepskyblue -->
<g id="node8" class="node">
<title>deepskyblue</title>
<ellipse fill="deepskyblue" stroke="black" cx="305.78" cy="-602.36" rx="54" ry="54"/>
<text text-anchor="middle" x="305.78" y="-598.66" font-family="Arial" font-size="14.00">deepskyblue</text>
</g>
<!-- blue&#45;&gt;deepskyblue -->
<g id="edge10" class="edge">
<title>blue&#45;&gt;deepskyblue</title>
<path fill="none" stroke="black" d="M252.86,-523.44C258.43,-531.75 264.3,-540.5 270.02,-549.03"/>
<polygon fill="black" stroke="black" points="267.2,-551.11 275.67,-557.46 273.01,-547.21 267.2,-551.11"/>
</g>
<!-- purple -->
<g id="node12" class="node">
<title>purple</title>
<ellipse fill="purple" stroke="black" cx="73.88" cy="-491.2" rx="54" ry="54"/>
<text text-anchor="middle" x="73.88" y="-487.5" font-family="Arial" font-size="14.00" fill="white">purple</text>
</g>
<!-- blue&#45;&gt;purple -->
<g id="edge18" class="edge">
<title>blue&#45;&gt;purple</title>
<path fill="none" stroke="black" d="M168.48,-482.99C158.51,-483.86 148.02,-484.77 137.8,-485.66"/>
<polygon fill="black" stroke="black" points="137.36,-482.18 127.7,-486.53 137.96,-489.16 137.36,-482.18"/>
</g>
<!-- yellow&#45;&gt;orange -->
<g id="edge13" class="edge">
<title>yellow&#45;&gt;orange</title>
<path fill="none" stroke="black" d="M327.98,-141.77C322.28,-135.87 316.34,-129.74 310.5,-123.69"/>
<polygon fill="black" stroke="black" points="312.64,-120.87 303.18,-116.12 307.61,-125.74 312.64,-120.87"/>
</g>
<!-- yellow&#45;&gt;yellowgreen -->
<g id="edge15" class="edge">
<title>yellow&#45;&gt;yellowgreen</title>
<path fill="none" stroke="black" d="M419.45,-185.65C427.72,-186.41 436.31,-187.21 444.77,-187.99"/>
<polygon fill="black" stroke="black" points="444.71,-191.5 454.99,-188.93 445.36,-184.53 444.71,-191.5"/>
</g>
<!-- cyan&#45;&gt;deepskyblue -->
<g id="edge11" class="edge">
<title>cyan&#45;&gt;deepskyblue</title>
<path fill="none" stroke="black" d="M357.55,-528.67C352.84,-535.38 347.93,-542.36 343.1,-549.24"/>
<polygon fill="black" stroke="black" points="339.93,-547.67 337.05,-557.86 345.66,-551.69 339.93,-547.67"/>
</g>
<!-- cyan&#45;&gt;springgreen -->
<g id="edge21" class="edge">
<title>cyan&#45;&gt;springgreen</title>
<path fill="none" stroke="black" d="M441.19,-471.25C449.24,-469.23 457.63,-467.13 465.88,-465.07"/>
<polygon fill="black" stroke="black" points="467,-468.39 475.85,-462.57 465.3,-461.6 467,-468.39"/>
</g>
<!-- magenta&#45;&gt;deeppink -->
<g id="edge17" class="edge">
<title>magenta&#45;&gt;deeppink</title>
<path fill="none" stroke="black" d="M91.35,-303.24C87.83,-295.48 84.16,-287.4 80.55,-279.47"/>
<polygon fill="black" stroke="black" points="83.68,-277.9 76.36,-270.24 77.31,-280.79 83.68,-277.9"/>
</g>
<!-- magenta&#45;&gt;purple -->
<g id="edge19" class="edge">
<title>magenta&#45;&gt;purple</title>
<path fill="none" stroke="black" d="M98.81,-404.61C96.52,-412.58 94.13,-420.88 91.77,-429.04"/>
<polygon fill="black" stroke="black" points="88.34,-428.33 88.94,-438.91 95.07,-430.27 88.34,-428.33"/>
</g>
</g>
</svg>
