<?xml version="1.0" encoding="UTF-8" standalone="no"?>
<!DOCTYPE svg PUBLIC "-//W3C//DTD SVG 1.1//EN"
 "http://www.w3.org/Graphics/SVG/1.1/DTD/svg11.dtd">
<!-- Generated by graphviz version 2.43.0 (0)
 -->
<!-- Title: Twelve_colors Pages: 1 -->
<svg width="573pt" height="666pt"
 viewBox="0.00 0.00 572.60 666.15" xmlns="http://www.w3.org/2000/svg" xmlns:xlink="http://www.w3.org/1999/xlink">
<g id="graph0" class="graph" transform="scale(1 1) rotate(0) translate(4 662.15)">
<title>Twelve_colors</title>
<polygon fill="white" stroke="transparent" points="-4,4 -4,-662.15 568.6,-662.15 568.6,4 -4,4"/>
<text text-anchor="middle" x="282.3" y="-7.8" font-family="Arial" font-size="14.00">Twelve colors. Neato layout</text>
<!-- green -->
<g id="node1" class="node">
<title>green</title>
<ellipse fill="green" stroke="#000000" stroke-opacity="0.533333" cx="131.33" cy="-340.62" rx="54" ry="54"/>
<text text-anchor="middle" x="131.33" y="-336.92" font-family="Helvetica,Arial,sans-serif" font-size="14.00" fill="white">green</text>
</g>
<!-- white -->
<g id="node2" class="node">
<title>white</title>
<ellipse fill="white" stroke="#000000" stroke-opacity="0.533333" cx="285.12" cy="-340.62" rx="54" ry="54"/>
<text text-anchor="middle" x="285.12" y="-336.92" font-family="Helvetica,Arial,sans-serif" font-size="14.00">white</text>
</g>
<!-- green&#45;&gt;white -->
<g id="edge1" class="edge">
<title>green&#45;&gt;white</title>
<path fill="none" stroke="green" stroke-width="1.5" d="M185.55,-340.62C196.92,-340.62 209.02,-340.62 220.72,-340.62"/>
<polygon fill="green" stroke="green" stroke-width="1.5" points="230.87,-340.62 220.87,-345.12 225.87,-340.87 220.87,-340.87 220.87,-340.62 220.87,-340.37 225.87,-340.37 220.87,-336.12 230.87,-340.62 230.87,-340.62"/>
</g>
<!-- yellow -->
<g id="node3" class="node">
<title>yellow</title>
<ellipse fill="yellow" stroke="#000000" stroke-opacity="0.533333" cx="196.51" cy="-188.18" rx="54" ry="54"/>
<text text-anchor="middle" x="196.51" y="-184.48" font-family="Helvetica,Arial,sans-serif" font-size="14.00">yellow</text>
</g>
<!-- green&#45;&gt;yellow -->
<g id="edge2" class="edge">
<title>green&#45;&gt;yellow</title>
<path fill="none" stroke="green" stroke-width="1.5" d="M152.67,-290.7C158.61,-276.81 165.12,-261.6 171.26,-247.24"/>
<polygon fill="green" stroke="green" stroke-width="1.5" points="175.23,-237.95 175.44,-248.91 173.49,-242.64 171.53,-247.24 171.3,-247.14 171.07,-247.04 173.03,-242.44 167.16,-245.37 175.23,-237.95 175.23,-237.95"/>
</g>
<!-- cyan -->
<g id="node4" class="node">
<title>cyan</title>
<ellipse fill="cyan" stroke="#000000" stroke-opacity="0.533333" cx="196.31" cy="-493.21" rx="54" ry="54"/>
<text text-anchor="middle" x="196.31" y="-489.51" font-family="Helvetica,Arial,sans-serif" font-size="14.00">cyan</text>
</g>
<!-- green&#45;&gt;cyan -->
<g id="edge3" class="edge">
<title>green&#45;&gt;cyan</title>
<path fill="none" stroke="green" stroke-width="1.5" d="M152.6,-390.58C158.53,-404.49 165.01,-419.72 171.14,-434.09"/>
<polygon fill="green" stroke="green" stroke-width="1.5" points="175.1,-443.39 167.04,-435.96 172.91,-438.89 170.95,-434.29 171.18,-434.19 171.41,-434.09 173.37,-438.69 175.32,-432.43 175.1,-443.39 175.1,-443.39"/>
</g>
<!-- yellowgreen -->
<g id="node5" class="node">
<title>yellowgreen</title>
<ellipse fill="yellowgreen" stroke="#000000" stroke-opacity="0.533333" cx="54.3" cy="-212.87" rx="54" ry="54"/>
<text text-anchor="middle" x="54.3" y="-209.17" font-family="Helvetica,Arial,sans-serif" font-size="14.00">yellowgreen</text>
</g>
<!-- green&#45;&gt;yellowgreen -->
<g id="edge4" class="edge">
<title>green&#45;&gt;yellowgreen</title>
<path fill="none" stroke="green" stroke-width="1.5" d="M103.3,-294.14C98.21,-285.68 92.84,-276.79 87.61,-268.11"/>
<polygon fill="green" stroke="green" stroke-width="1.5" points="82.44,-259.53 91.45,-265.77 85.23,-263.69 87.81,-267.97 87.6,-268.1 87.39,-268.23 84.81,-263.94 83.75,-270.42 82.44,-259.53 82.44,-259.53"/>
</g>
<!-- springgreen -->
<g id="node6" class="node">
<title>springgreen</title>
<ellipse fill="springgreen" stroke="#000000" stroke-opacity="0.533333" cx="54" cy="-468" rx="54" ry="54"/>
<text text-anchor="middle" x="54" y="-464.3" font-family="Helvetica,Arial,sans-serif" font-size="14.00">springgreen</text>
</g>
<!-- green&#45;&gt;springgreen -->
<g id="edge5" class="edge">
<title>green&#45;&gt;springgreen</title>
<path fill="none" stroke="green" stroke-width="1.5" d="M103.19,-386.97C98.07,-395.4 92.69,-404.26 87.44,-412.92"/>
<polygon fill="green" stroke="green" stroke-width="1.5" points="82.24,-421.47 83.59,-410.59 84.63,-417.07 87.22,-412.8 87.43,-412.92 87.65,-413.05 85.05,-417.33 91.28,-415.26 82.24,-421.47 82.24,-421.47"/>
</g>
<!-- yellow&#45;&gt;yellowgreen -->
<g id="edge11" class="edge">
<title>yellow&#45;&gt;yellowgreen</title>
<path fill="none" stroke="yellow" stroke-width="1.5" d="M143.15,-197.44C134.97,-198.87 126.46,-200.34 118.08,-201.8"/>
<polygon fill="yellow" stroke="yellow" stroke-width="1.5" points="107.96,-203.56 117.04,-197.41 112.84,-202.45 117.77,-201.6 117.81,-201.85 117.86,-202.09 112.93,-202.95 118.58,-206.28 107.96,-203.56 107.96,-203.56"/>
</g>
<!-- orange -->
<g id="node10" class="node">
<title>orange</title>
<ellipse fill="orange" stroke="#000000" stroke-opacity="0.533333" cx="288.2" cy="-77" rx="54" ry="54"/>
<text text-anchor="middle" x="288.2" y="-73.3" font-family="Helvetica,Arial,sans-serif" font-size="14.00">orange</text>
</g>
<!-- yellow&#45;&gt;orange -->
<g id="edge12" class="edge">
<title>yellow&#45;&gt;orange</title>
<path fill="none" stroke="yellow" stroke-width="1.5" d="M230.91,-146.46C236.13,-140.14 241.56,-133.56 246.9,-127.08"/>
<polygon fill="yellow" stroke="yellow" stroke-width="1.5" points="253.61,-118.95 250.71,-129.53 250.62,-122.97 247.44,-126.82 247.24,-126.66 247.05,-126.5 250.23,-122.65 243.77,-123.8 253.61,-118.95 253.61,-118.95"/>
</g>
<!-- cyan&#45;&gt;springgreen -->
<g id="edge18" class="edge">
<title>cyan&#45;&gt;springgreen</title>
<path fill="none" stroke="cyan" stroke-width="1.5" d="M142.91,-483.75C134.52,-482.26 125.78,-480.72 117.2,-479.19"/>
<polygon fill="cyan" stroke="cyan" stroke-width="1.5" points="107.22,-477.43 117.85,-474.74 112.19,-478.05 117.11,-478.93 117.07,-479.17 117.03,-479.42 112.1,-478.55 116.28,-483.6 107.22,-477.43 107.22,-477.43"/>
</g>
<!-- deepskyblue -->
<g id="node12" class="node">
<title>deepskyblue</title>
<ellipse fill="deepskyblue" stroke="#000000" stroke-opacity="0.533333" cx="288.5" cy="-604.15" rx="54" ry="54"/>
<text text-anchor="middle" x="288.5" y="-600.45" font-family="Helvetica,Arial,sans-serif" font-size="14.00">deepskyblue</text>
</g>
<!-- cyan&#45;&gt;deepskyblue -->
<g id="edge19" class="edge">
<title>cyan&#45;&gt;deepskyblue</title>
<path fill="none" stroke="cyan" stroke-width="1.5" d="M230.9,-534.84C236.14,-541.15 241.6,-547.71 246.97,-554.18"/>
<polygon fill="cyan" stroke="cyan" stroke-width="1.5" points="253.71,-562.29 243.86,-557.48 250.33,-558.61 247.13,-554.76 247.32,-554.6 247.51,-554.44 250.71,-558.29 250.78,-551.72 253.71,-562.29 253.71,-562.29"/>
</g>
<!-- blue -->
<g id="node7" class="node">
<title>blue</title>
<ellipse fill="blue" stroke="#000000" stroke-opacity="0.533333" cx="361.39" cy="-473.94" rx="54" ry="54"/>
<text text-anchor="middle" x="361.39" y="-470.24" font-family="Helvetica,Arial,sans-serif" font-size="14.00" fill="white">blue</text>
</g>
<!-- blue&#45;&gt;white -->
<g id="edge13" class="edge">
<title>blue&#45;&gt;white</title>
<path fill="none" stroke="blue" stroke-width="1.5" d="M334.5,-426.93C328.86,-417.08 322.86,-406.59 317.06,-396.45"/>
<polygon fill="blue" stroke="blue" stroke-width="1.5" points="312.02,-387.65 320.9,-394.09 314.72,-391.86 317.21,-396.2 316.99,-396.33 316.77,-396.45 314.29,-392.11 313.08,-398.56 312.02,-387.65 312.02,-387.65"/>
</g>
<!-- blue&#45;&gt;cyan -->
<g id="edge14" class="edge">
<title>blue&#45;&gt;cyan</title>
<path fill="none" stroke="blue" stroke-width="1.5" d="M307.34,-480.25C292.3,-482 275.82,-483.93 260.26,-485.74"/>
<polygon fill="blue" stroke="blue" stroke-width="1.5" points="250.2,-486.92 259.61,-481.29 255.14,-486.09 260.11,-485.51 260.14,-485.76 260.16,-486 255.2,-486.58 260.66,-490.23 250.2,-486.92 250.2,-486.92"/>
</g>
<!-- magenta -->
<g id="node9" class="node">
<title>magenta</title>
<ellipse fill="magenta" stroke="#000000" stroke-opacity="0.533333" cx="460.46" cy="-340.52" rx="54" ry="54"/>
<text text-anchor="middle" x="460.46" y="-336.82" font-family="Helvetica,Arial,sans-serif" font-size="14.00" fill="white">magenta</text>
</g>
<!-- blue&#45;&gt;magenta -->
<g id="edge15" class="edge">
<title>blue&#45;&gt;magenta</title>
<path fill="none" stroke="blue" stroke-width="1.5" d="M393.83,-430.25C402.81,-418.16 412.65,-404.91 421.94,-392.4"/>
<polygon fill="blue" stroke="blue" stroke-width="1.5" points="427.95,-384.3 425.6,-395.01 425.17,-388.47 422.19,-392.48 421.99,-392.33 421.79,-392.18 424.77,-388.17 418.37,-389.65 427.95,-384.3 427.95,-384.3"/>
</g>
<!-- blue&#45;&gt;deepskyblue -->
<g id="edge16" class="edge">
<title>blue&#45;&gt;deepskyblue</title>
<path fill="none" stroke="blue" stroke-width="1.5" d="M334.87,-521.32C329.98,-530.04 324.84,-539.23 319.83,-548.18"/>
<polygon fill="blue" stroke="blue" stroke-width="1.5" points="314.88,-557.03 315.84,-546.1 317.1,-552.54 319.54,-548.18 319.76,-548.3 319.98,-548.42 317.54,-552.79 323.69,-550.5 314.88,-557.03 314.88,-557.03"/>
</g>
<!-- purple -->
<g id="node13" class="node">
<title>purple</title>
<ellipse fill="purple" stroke="#000000" stroke-opacity="0.533333" cx="510.6" cy="-475.84" rx="54" ry="54"/>
<text text-anchor="middle" x="510.6" y="-472.14" font-family="Helvetica,Arial,sans-serif" font-size="14.00" fill="white">purple</text>
</g>
<!-- blue&#45;&gt;purple -->
<g id="edge17" class="edge">
<title>blue&#45;&gt;purple</title>
<path fill="none" stroke="blue" stroke-width="1.5" d="M415.68,-474.63C425.68,-474.76 436.21,-474.89 446.46,-475.02"/>
<polygon fill="blue" stroke="blue" stroke-width="1.5" points="456.6,-475.15 446.55,-479.52 451.6,-475.34 446.6,-475.27 446.6,-475.02 446.61,-474.77 451.61,-474.84 446.66,-470.52 456.6,-475.15 456.6,-475.15"/>
</g>
<!-- red -->
<g id="node8" class="node">
<title>red</title>
<ellipse fill="red" stroke="#000000" stroke-opacity="0.533333" cx="361.44" cy="-207.17" rx="54" ry="54"/>
<text text-anchor="middle" x="361.44" y="-203.47" font-family="Helvetica,Arial,sans-serif" font-size="14.00" fill="white">red</text>
</g>
<!-- red&#45;&gt;white -->
<g id="edge6" class="edge">
<title>red&#45;&gt;white</title>
<path fill="none" stroke="red" stroke-width="1.5" d="M334.53,-254.22C328.89,-264.09 322.89,-274.58 317.08,-284.74"/>
<polygon fill="red" stroke="red" stroke-width="1.5" points="312.04,-293.55 313.1,-282.63 314.31,-289.08 316.79,-284.74 317.01,-284.87 317.22,-284.99 314.74,-289.33 320.91,-287.1 312.04,-293.55 312.04,-293.55"/>
</g>
<!-- red&#45;&gt;yellow -->
<g id="edge7" class="edge">
<title>red&#45;&gt;yellow</title>
<path fill="none" stroke="red" stroke-width="1.5" d="M307.44,-200.95C292.41,-199.22 275.94,-197.33 260.41,-195.54"/>
<polygon fill="red" stroke="red" stroke-width="1.5" points="250.35,-194.38 260.8,-191.05 255.35,-194.7 260.32,-195.28 260.29,-195.52 260.26,-195.77 255.29,-195.2 259.77,-200 250.35,-194.38 250.35,-194.38"/>
</g>
<!-- red&#45;&gt;magenta -->
<g id="edge8" class="edge">
<title>red&#45;&gt;magenta</title>
<path fill="none" stroke="red" stroke-width="1.5" d="M393.86,-250.84C402.84,-262.92 412.67,-276.16 421.96,-288.67"/>
<polygon fill="red" stroke="red" stroke-width="1.5" points="427.96,-296.76 418.39,-291.41 424.78,-292.89 421.8,-288.88 422,-288.73 422.2,-288.58 425.18,-292.6 425.62,-286.05 427.96,-296.76 427.96,-296.76"/>
</g>
<!-- red&#45;&gt;orange -->
<g id="edge9" class="edge">
<title>red&#45;&gt;orange</title>
<path fill="none" stroke="red" stroke-width="1.5" d="M334.79,-159.81C329.89,-151.09 324.72,-141.9 319.68,-132.96"/>
<polygon fill="red" stroke="red" stroke-width="1.5" points="314.71,-124.11 323.53,-130.62 317.38,-128.35 319.83,-132.7 319.61,-132.83 319.39,-132.95 316.94,-128.59 315.69,-135.03 314.71,-124.11 314.71,-124.11"/>
</g>
<!-- deeppink -->
<g id="node11" class="node">
<title>deeppink</title>
<ellipse fill="deeppink" stroke="#000000" stroke-opacity="0.533333" cx="510.59" cy="-205.13" rx="54" ry="54"/>
<text text-anchor="middle" x="510.59" y="-201.43" font-family="Helvetica,Arial,sans-serif" font-size="14.00" fill="white">deeppink</text>
</g>
<!-- red&#45;&gt;deeppink -->
<g id="edge10" class="edge">
<title>red&#45;&gt;deeppink</title>
<path fill="none" stroke="red" stroke-width="1.5" d="M415.71,-206.43C425.64,-206.29 436.1,-206.15 446.29,-206.01"/>
<polygon fill="red" stroke="red" stroke-width="1.5" points="456.36,-205.87 446.43,-210.51 451.37,-206.19 446.37,-206.26 446.36,-206.01 446.36,-205.76 451.36,-205.69 446.3,-201.51 456.36,-205.87 456.36,-205.87"/>
</g>
<!-- magenta&#45;&gt;deeppink -->
<g id="edge20" class="edge">
<title>magenta&#45;&gt;deeppink</title>
<path fill="none" stroke="magenta" stroke-width="1.5" d="M479.27,-289.72C482.15,-281.93 485.16,-273.82 488.11,-265.85"/>
<polygon fill="magenta" stroke="magenta" stroke-width="1.5" points="491.68,-256.21 492.42,-267.15 490.17,-260.99 488.44,-265.68 488.2,-265.59 487.97,-265.5 489.71,-260.82 483.98,-264.03 491.68,-256.21 491.68,-256.21"/>
</g>
<!-- magenta&#45;&gt;purple -->
<g id="edge21" class="edge">
<title>magenta&#45;&gt;purple</title>
<path fill="none" stroke="magenta" stroke-width="1.5" d="M479.27,-391.29C482.16,-399.08 485.16,-407.18 488.12,-415.15"/>
<polygon fill="magenta" stroke="magenta" stroke-width="1.5" points="491.68,-424.78 483.99,-416.97 489.71,-420.18 487.97,-415.49 488.21,-415.4 488.44,-415.32 490.18,-420.01 492.43,-413.84 491.68,-424.78 491.68,-424.78"/>
</g>
</g>
</svg>
