<?xml version="1.0" encoding="UTF-8" standalone="no"?>
<!DOCTYPE svg PUBLIC "-//W3C//DTD SVG 1.1//EN"
 "http://www.w3.org/Graphics/SVG/1.1/DTD/svg11.dtd">
<!-- Generated by graphviz version 2.45.20200621.0824 (20200621.0824)
 -->
<!-- Title: Colors Pages: 1 -->
<svg width="864pt" height="978pt"
 viewBox="0.00 0.00 864.06 978.04" xmlns="http://www.w3.org/2000/svg" xmlns:xlink="http://www.w3.org/1999/xlink">
<g id="graph0" class="graph" transform="scale(1 1) rotate(0) translate(4 974.04)">
<title>Colors</title>
<polygon fill="white" stroke="transparent" points="-4,4 -4,-974.04 860.06,-974.04 860.06,4 -4,4"/>
<text text-anchor="middle" x="428.03" y="-954.84" font-family="Ubuntu" font-size="14.00">Colors</text>
<text text-anchor="middle" x="428.03" y="-939.84" font-family="Ubuntu" font-size="14.00">Neato layout</text>
<!-- white -->
<g id="node1" class="node">
<title>white</title>
<ellipse fill="white" stroke="black" cx="424.77" cy="-466.21" rx="72" ry="72"/>
<text text-anchor="middle" x="424.77" y="-462.51" font-family="Ubuntu" font-size="14.00">white</text>
</g>
<!-- red -->
<g id="node2" class="node">
<title>red</title>
<ellipse fill="red" stroke="black" cx="295.2" cy="-275.31" rx="72" ry="72"/>
<text text-anchor="middle" x="295.2" y="-271.61" font-family="Ubuntu" font-size="14.00" fill="white">red</text>
</g>
<!-- white&#45;&gt;red -->
<g id="edge1" class="edge">
<title>white&#45;&gt;red</title>
<path fill="none" stroke="black" d="M378.61,-398.19C364.63,-377.6 349.39,-355.14 335.8,-335.13"/>
<polygon fill="black" stroke="black" points="375.8,-400.28 384.31,-406.59 381.59,-396.35 375.8,-400.28"/>
</g>
<!-- green -->
<g id="node3" class="node">
<title>green</title>
<ellipse fill="green" stroke="black" cx="654.87" cy="-447.81" rx="72" ry="72"/>
<text text-anchor="middle" x="654.87" y="-444.11" font-family="Ubuntu" font-size="14.00">green</text>
</g>
<!-- white&#45;&gt;green -->
<g id="edge2" class="edge">
<title>white&#45;&gt;green</title>
<path fill="none" stroke="black" d="M506.75,-459.65C531.57,-457.67 558.64,-455.5 582.76,-453.57"/>
<polygon fill="black" stroke="black" points="506.32,-456.17 496.63,-460.46 506.88,-463.15 506.32,-456.17"/>
</g>
<!-- blue -->
<g id="node4" class="node">
<title>blue</title>
<ellipse fill="blue" stroke="black" cx="324.91" cy="-673.95" rx="72" ry="72"/>
<text text-anchor="middle" x="324.91" y="-670.25" font-family="Ubuntu" font-size="14.00" fill="white">blue</text>
</g>
<!-- white&#45;&gt;blue -->
<g id="edge3" class="edge">
<title>white&#45;&gt;blue</title>
<path fill="none" stroke="black" d="M389.06,-540.5C378.3,-562.89 366.57,-587.28 356.12,-609.02"/>
<polygon fill="black" stroke="black" points="392.27,-541.9 393.45,-531.37 385.96,-538.86 392.27,-541.9"/>
</g>
<!-- yellow -->
<g id="node5" class="node">
<title>yellow</title>
<ellipse fill="yellow" stroke="black" cx="539.36" cy="-227.5" rx="72" ry="72"/>
<text text-anchor="middle" x="539.36" y="-223.8" font-family="Ubuntu" font-size="14.00">yellow</text>
</g>
<!-- red&#45;&gt;yellow -->
<g id="edge4" class="edge">
<title>red&#45;&gt;yellow</title>
<path fill="none" stroke="black" d="M366.15,-261.42C395.12,-255.75 428.77,-249.16 458.67,-243.3"/>
<polygon fill="black" stroke="black" points="459.52,-246.7 468.66,-241.35 458.17,-239.83 459.52,-246.7"/>
</g>
<!-- magenta -->
<g id="node7" class="node">
<title>magenta</title>
<ellipse fill="magenta" stroke="black" cx="161.69" cy="-485.41" rx="72" ry="72"/>
<text text-anchor="middle" x="161.69" y="-481.71" font-family="Ubuntu" font-size="14.00" fill="white">magenta</text>
</g>
<!-- red&#45;&gt;magenta -->
<g id="edge8" class="edge">
<title>red&#45;&gt;magenta</title>
<path fill="none" stroke="black" d="M256.58,-336.08C240.74,-361.01 222.3,-390.02 205.92,-415.8"/>
<polygon fill="black" stroke="black" points="202.86,-414.1 200.45,-424.41 208.77,-417.85 202.86,-414.1"/>
</g>
<!-- orange -->
<g id="node9" class="node">
<title>orange</title>
<ellipse fill="orange" stroke="black" cx="389.06" cy="-72" rx="72" ry="72"/>
<text text-anchor="middle" x="389.06" y="-68.3" font-family="Ubuntu" font-size="14.00">orange</text>
</g>
<!-- red&#45;&gt;orange -->
<g id="edge12" class="edge">
<title>red&#45;&gt;orange</title>
<path fill="none" stroke="black" d="M325.41,-209.86C334.66,-189.83 344.9,-167.64 354.42,-147.02"/>
<polygon fill="black" stroke="black" points="357.72,-148.22 358.74,-137.67 351.37,-145.29 357.72,-148.22"/>
</g>
<!-- deeppink -->
<g id="node11" class="node">
<title>deeppink</title>
<ellipse fill="deeppink" stroke="black" cx="72" cy="-288.07" rx="72" ry="72"/>
<text text-anchor="middle" x="72" y="-284.37" font-family="Ubuntu" font-size="14.00" fill="white">deeppink</text>
</g>
<!-- red&#45;&gt;deeppink -->
<g id="edge16" class="edge">
<title>red&#45;&gt;deeppink</title>
<path fill="none" stroke="black" d="M223.04,-279.43C201.06,-280.69 176.74,-282.08 154.15,-283.37"/>
<polygon fill="black" stroke="black" points="153.69,-279.89 143.91,-283.96 154.09,-286.88 153.69,-279.89"/>
</g>
<!-- green&#45;&gt;yellow -->
<g id="edge5" class="edge">
<title>green&#45;&gt;yellow</title>
<path fill="none" stroke="black" d="M621.3,-383.79C607.6,-357.65 591.68,-327.29 577.53,-300.31"/>
<polygon fill="black" stroke="black" points="580.55,-298.53 572.81,-291.3 574.35,-301.78 580.55,-298.53"/>
</g>
<!-- cyan -->
<g id="node6" class="node">
<title>cyan</title>
<ellipse fill="cyan" stroke="black" cx="574" cy="-683.14" rx="72" ry="72"/>
<text text-anchor="middle" x="574" y="-679.44" font-family="Ubuntu" font-size="14.00">cyan</text>
</g>
<!-- green&#45;&gt;cyan -->
<g id="edge6" class="edge">
<title>green&#45;&gt;cyan</title>
<path fill="none" stroke="black" d="M631.37,-516.19C621.77,-544.11 610.62,-576.55 600.72,-605.37"/>
<polygon fill="black" stroke="black" points="597.35,-604.4 597.41,-614.99 603.97,-606.67 597.35,-604.4"/>
</g>
<!-- yellowgreen -->
<g id="node10" class="node">
<title>yellowgreen</title>
<ellipse fill="yellowgreen" stroke="black" cx="754.75" cy="-247.39" rx="72" ry="72"/>
<text text-anchor="middle" x="754.75" y="-243.69" font-family="Ubuntu" font-size="14.00">yellowgreen</text>
</g>
<!-- green&#45;&gt;yellowgreen -->
<g id="edge14" class="edge">
<title>green&#45;&gt;yellowgreen</title>
<path fill="none" stroke="black" d="M687.02,-383.29C696.86,-363.55 707.76,-341.67 717.89,-321.35"/>
<polygon fill="black" stroke="black" points="721.15,-322.64 722.48,-312.13 714.89,-319.52 721.15,-322.64"/>
</g>
<!-- springgreen -->
<g id="node13" class="node">
<title>springgreen</title>
<ellipse fill="springgreen" stroke="black" cx="784.06" cy="-630.45" rx="72" ry="72"/>
<text text-anchor="middle" x="784.06" y="-626.75" font-family="Ubuntu" font-size="14.00">springgreen</text>
</g>
<!-- green&#45;&gt;springgreen -->
<g id="edge20" class="edge">
<title>green&#45;&gt;springgreen</title>
<path fill="none" stroke="black" d="M696.45,-506.6C709.18,-524.6 723.28,-544.53 736.39,-563.06"/>
<polygon fill="black" stroke="black" points="733.69,-565.31 742.33,-571.45 739.41,-561.27 733.69,-565.31"/>
</g>
<!-- blue&#45;&gt;cyan -->
<g id="edge7" class="edge">
<title>blue&#45;&gt;cyan</title>
<path fill="none" stroke="black" d="M396.95,-676.61C426.52,-677.7 460.91,-678.97 491.47,-680.09"/>
<polygon fill="black" stroke="black" points="491.56,-683.6 501.68,-680.47 491.82,-676.6 491.56,-683.6"/>
</g>
<!-- blue&#45;&gt;magenta -->
<g id="edge9" class="edge">
<title>blue&#45;&gt;magenta</title>
<path fill="none" stroke="black" d="M277.7,-619.41C258.33,-597.04 235.79,-571.01 215.77,-547.87"/>
<polygon fill="black" stroke="black" points="218.27,-545.42 209.08,-540.15 212.98,-550 218.27,-545.42"/>
</g>
<!-- deepskyblue -->
<g id="node8" class="node">
<title>deepskyblue</title>
<ellipse fill="deepskyblue" stroke="black" cx="449.69" cy="-860.04" rx="72" ry="72"/>
<text text-anchor="middle" x="449.69" y="-856.34" font-family="Ubuntu" font-size="14.00">deepskyblue</text>
</g>
<!-- blue&#45;&gt;deepskyblue -->
<g id="edge10" class="edge">
<title>blue&#45;&gt;deepskyblue</title>
<path fill="none" stroke="black" d="M365.07,-733.85C377.37,-752.19 390.99,-772.5 403.64,-791.37"/>
<polygon fill="black" stroke="black" points="400.9,-793.57 409.38,-799.93 406.72,-789.68 400.9,-793.57"/>
</g>
<!-- purple -->
<g id="node12" class="node">
<title>purple</title>
<ellipse fill="purple" stroke="black" cx="101.83" cy="-693.31" rx="72" ry="72"/>
<text text-anchor="middle" x="101.83" y="-689.61" font-family="Ubuntu" font-size="14.00" fill="white">purple</text>
</g>
<!-- blue&#45;&gt;purple -->
<g id="edge18" class="edge">
<title>blue&#45;&gt;purple</title>
<path fill="none" stroke="black" d="M253.1,-680.18C231.12,-682.09 206.77,-684.2 184.15,-686.16"/>
<polygon fill="black" stroke="black" points="183.55,-682.7 173.89,-687.05 184.16,-689.68 183.55,-682.7"/>
</g>
<!-- yellow&#45;&gt;orange -->
<g id="edge13" class="edge">
<title>yellow&#45;&gt;orange</title>
<path fill="none" stroke="black" d="M489.31,-175.72C475.57,-161.5 460.56,-145.97 446.44,-131.36"/>
<polygon fill="black" stroke="black" points="448.61,-128.58 439.14,-123.82 443.58,-133.44 448.61,-128.58"/>
</g>
<!-- yellow&#45;&gt;yellowgreen -->
<g id="edge15" class="edge">
<title>yellow&#45;&gt;yellowgreen</title>
<path fill="none" stroke="black" d="M611.08,-234.13C630.87,-235.95 652.48,-237.95 672.8,-239.83"/>
<polygon fill="black" stroke="black" points="672.69,-243.33 682.97,-240.77 673.34,-236.36 672.69,-243.33"/>
</g>
<!-- cyan&#45;&gt;deepskyblue -->
<g id="edge11" class="edge">
<title>cyan&#45;&gt;deepskyblue</title>
<path fill="none" stroke="black" d="M532.26,-742.54C520.97,-758.61 508.66,-776.12 497.08,-792.59"/>
<polygon fill="black" stroke="black" points="493.99,-790.91 491.1,-801.1 499.72,-794.93 493.99,-790.91"/>
</g>
<!-- cyan&#45;&gt;springgreen -->
<g id="edge21" class="edge">
<title>cyan&#45;&gt;springgreen</title>
<path fill="none" stroke="black" d="M643.94,-665.59C663.24,-660.75 684.32,-655.47 704.14,-650.5"/>
<polygon fill="black" stroke="black" points="705.21,-653.84 714.06,-648.01 703.51,-647.05 705.21,-653.84"/>
</g>
<!-- magenta&#45;&gt;deeppink -->
<g id="edge17" class="edge">
<title>magenta&#45;&gt;deeppink</title>
<path fill="none" stroke="black" d="M131.83,-419.7C123.59,-401.57 114.59,-381.76 106.12,-363.15"/>
<polygon fill="black" stroke="black" points="109.21,-361.48 101.89,-353.83 102.84,-364.38 109.21,-361.48"/>
</g>
<!-- magenta&#45;&gt;purple -->
<g id="edge19" class="edge">
<title>magenta&#45;&gt;purple</title>
<path fill="none" stroke="black" d="M141.76,-554.64C136.26,-573.73 130.25,-594.6 124.61,-614.21"/>
<polygon fill="black" stroke="black" points="121.18,-613.45 121.78,-624.03 127.91,-615.39 121.18,-613.45"/>
</g>
</g>
</svg>
