<?xml version="1.0" encoding="UTF-8" standalone="no"?>
<!DOCTYPE svg PUBLIC "-//W3C//DTD SVG 1.1//EN"
 "http://www.w3.org/Graphics/SVG/1.1/DTD/svg11.dtd">
<!-- Generated by graphviz version 2.43.0 (0)
 -->
<!-- Title: g Pages: 1 -->
<svg width="866pt" height="559pt"
 viewBox="0.00 0.00 866.00 558.76" xmlns="http://www.w3.org/2000/svg" xmlns:xlink="http://www.w3.org/1999/xlink">
<g id="graph0" class="graph" transform="scale(1 1) rotate(0) translate(4 554.76)">
<title>g</title>
<polygon fill="white" stroke="transparent" points="-4,4 -4,-554.76 862,-554.76 862,4 -4,4"/>
<!-- node0 -->
<g id="node1" class="node">
<title>node0</title>
<polygon fill="none" stroke="black" points="0,-437.5 0,-489.5 79,-489.5 79,-437.5 0,-437.5"/>
<text text-anchor="middle" x="39.5" y="-472.7" font-family="Helvetica,Arial,sans-serif" font-size="16.00">0x10ba8</text>
<polyline fill="none" stroke="black" points="0,-463.5 79,-463.5 "/>
<text text-anchor="middle" x="39.5" y="-446.7" font-family="Helvetica,Arial,sans-serif" font-size="16.00"> </text>
</g>
<!-- node1 -->
<g id="node2" class="node">
<title>node1</title>
<polygon fill="none" stroke="black" points="115,-434.5 115,-538.5 211,-538.5 211,-434.5 115,-434.5"/>
<text text-anchor="middle" x="163" y="-521.7" font-family="Helvetica,Arial,sans-serif" font-size="16.00">0xf7fc4380</text>
<polyline fill="none" stroke="black" points="115,-512.5 211,-512.5 "/>
<text text-anchor="middle" x="163" y="-495.7" font-family="Helvetica,Arial,sans-serif" font-size="16.00"> </text>
<polyline fill="none" stroke="black" points="115,-486.5 211,-486.5 "/>
<text text-anchor="middle" x="163" y="-469.7" font-family="Helvetica,Arial,sans-serif" font-size="16.00"> </text>
<polyline fill="none" stroke="black" points="115,-460.5 211,-460.5 "/>
<text text-anchor="middle" x="163" y="-443.7" font-family="Helvetica,Arial,sans-serif" font-size="16.00">&#45;1</text>
</g>
<!-- node0&#45;&gt;node1 -->
<g id="0" class="edge">
<title>node0:f0&#45;&gt;node1:f0</title>
<path fill="none" stroke="black" d="M79,-476.5C101.8,-476.5 92.52,-511.38 105.29,-522.28"/>
<polygon fill="black" stroke="black" points="104.41,-525.68 115,-525.5 106.61,-519.03 104.41,-525.68"/>
</g>
<!-- node2 -->
<g id="node3" class="node">
<title>node2</title>
<polygon fill="none" stroke="black" points="115,-311.5 115,-415.5 211,-415.5 211,-311.5 115,-311.5"/>
<text text-anchor="middle" x="163" y="-398.7" font-family="Helvetica,Arial,sans-serif" font-size="16.00">0xf7fc44b8</text>
<polyline fill="none" stroke="black" points="115,-389.5 211,-389.5 "/>
<text text-anchor="middle" x="163" y="-372.7" font-family="Helvetica,Arial,sans-serif" font-size="16.00"> </text>
<polyline fill="none" stroke="black" points="115,-363.5 211,-363.5 "/>
<text text-anchor="middle" x="163" y="-346.7" font-family="Helvetica,Arial,sans-serif" font-size="16.00"> </text>
<polyline fill="none" stroke="black" points="115,-337.5 211,-337.5 "/>
<text text-anchor="middle" x="163" y="-320.7" font-family="Helvetica,Arial,sans-serif" font-size="16.00">2</text>
</g>
<!-- node0&#45;&gt;node2 -->
<g id="1" class="edge">
<title>node0:f1&#45;&gt;node2:f0</title>
<path fill="none" stroke="black" d="M79,-450.5C101.5,-450.5 92.68,-416.33 105.39,-405.65"/>
<polygon fill="black" stroke="black" points="106.59,-408.94 115,-402.5 104.41,-402.29 106.59,-408.94"/>
</g>
<!-- node3 -->
<g id="node4" class="node">
<title>node3</title>
<polygon fill="none" stroke="black" points="643,-457.5 643,-535.5 858,-535.5 858,-457.5 643,-457.5"/>
<text text-anchor="middle" x="750.5" y="-518.7" font-family="Helvetica,Arial,sans-serif" font-size="16.00">3.43322790286038071e&#45;06</text>
<polyline fill="none" stroke="black" points="643,-509.5 858,-509.5 "/>
<text text-anchor="middle" x="750.5" y="-492.7" font-family="Helvetica,Arial,sans-serif" font-size="16.00">44.79998779296875</text>
<polyline fill="none" stroke="black" points="643,-483.5 858,-483.5 "/>
<text text-anchor="middle" x="750.5" y="-466.7" font-family="Helvetica,Arial,sans-serif" font-size="16.00">0</text>
</g>
<!-- node1&#45;&gt;node3 -->
<g id="2" class="edge">
<title>node1:f0&#45;&gt;node3:f0</title>
<path fill="none" stroke="black" d="M211,-525.5C229.3,-525.5 229.28,-540.91 247,-545.5 288.3,-556.2 300.35,-546.63 343,-545.5 460.46,-542.39 490.8,-548.94 607,-531.5 619.36,-529.64 624.19,-525.43 632.98,-523.5"/>
<polygon fill="black" stroke="black" points="633.4,-526.98 643,-522.5 632.7,-520.01 633.4,-526.98"/>
</g>
<!-- node4 -->
<g id="node5" class="node">
<title>node4</title>
<polygon fill="none" stroke="black" points="247,-408.5 247,-512.5 343,-512.5 343,-408.5 247,-408.5"/>
<text text-anchor="middle" x="295" y="-495.7" font-family="Helvetica,Arial,sans-serif" font-size="16.00">0xf7fc4380</text>
<polyline fill="none" stroke="black" points="247,-486.5 343,-486.5 "/>
<text text-anchor="middle" x="295" y="-469.7" font-family="Helvetica,Arial,sans-serif" font-size="16.00"> </text>
<polyline fill="none" stroke="black" points="247,-460.5 343,-460.5 "/>
<text text-anchor="middle" x="295" y="-443.7" font-family="Helvetica,Arial,sans-serif" font-size="16.00"> </text>
<polyline fill="none" stroke="black" points="247,-434.5 343,-434.5 "/>
<text text-anchor="middle" x="295" y="-417.7" font-family="Helvetica,Arial,sans-serif" font-size="16.00">2</text>
</g>
<!-- node1&#45;&gt;node4 -->
<g id="3" class="edge">
<title>node1:f1&#45;&gt;node4:f0</title>
<path fill="none" stroke="black" d="M211,-499.5C223,-499.5 228.25,-499.5 236.88,-499.5"/>
<polygon fill="black" stroke="black" points="237,-503 247,-499.5 237,-496 237,-503"/>
</g>
<!-- node5 -->
<g id="node6" class="node">
<title>node5</title>
<polygon fill="none" stroke="black" points="268,-70.5 268,-174.5 322,-174.5 322,-70.5 268,-70.5"/>
<text text-anchor="middle" x="295" y="-157.7" font-family="Helvetica,Arial,sans-serif" font-size="16.00">(nil)</text>
<polyline fill="none" stroke="black" points="268,-148.5 322,-148.5 "/>
<text text-anchor="middle" x="295" y="-131.7" font-family="Helvetica,Arial,sans-serif" font-size="16.00"> </text>
<polyline fill="none" stroke="black" points="268,-122.5 322,-122.5 "/>
<text text-anchor="middle" x="295" y="-105.7" font-family="Helvetica,Arial,sans-serif" font-size="16.00"> </text>
<polyline fill="none" stroke="black" points="268,-96.5 322,-96.5 "/>
<text text-anchor="middle" x="295" y="-79.7" font-family="Helvetica,Arial,sans-serif" font-size="16.00">&#45;1</text>
</g>
<!-- node1&#45;&gt;node5 -->
<g id="4" class="edge">
<title>node1:f2&#45;&gt;node5:f0</title>
<path fill="none" stroke="black" d="M211,-473.5C274.62,-473.5 205.7,-237.89 247,-189.5 258.05,-176.56 280.31,-188.25 290.15,-184.47"/>
<polygon fill="black" stroke="black" points="293.32,-185.96 295,-175.5 287.16,-182.63 293.32,-185.96"/>
</g>
<!-- node4&#45;&gt;node3 -->
<g id="5" class="edge">
<title>node4:f0&#45;&gt;node3:f0</title>
<path fill="none" stroke="black" d="M343,-499.5C473.2,-499.5 507.49,-521.3 632.63,-522.45"/>
<polygon fill="black" stroke="black" points="632.98,-525.95 643,-522.5 633.02,-518.95 632.98,-525.95"/>
</g>
<!-- node6 -->
<g id="node7" class="node">
<title>node6</title>
<polygon fill="none" stroke="black" points="379,-382.5 379,-486.5 475,-486.5 475,-382.5 379,-382.5"/>
<text text-anchor="middle" x="427" y="-469.7" font-family="Helvetica,Arial,sans-serif" font-size="16.00">0xf7fc4380</text>
<polyline fill="none" stroke="black" points="379,-460.5 475,-460.5 "/>
<text text-anchor="middle" x="427" y="-443.7" font-family="Helvetica,Arial,sans-serif" font-size="16.00"> </text>
<polyline fill="none" stroke="black" points="379,-434.5 475,-434.5 "/>
<text text-anchor="middle" x="427" y="-417.7" font-family="Helvetica,Arial,sans-serif" font-size="16.00"> </text>
<polyline fill="none" stroke="black" points="379,-408.5 475,-408.5 "/>
<text text-anchor="middle" x="427" y="-391.7" font-family="Helvetica,Arial,sans-serif" font-size="16.00">1</text>
</g>
<!-- node4&#45;&gt;node6 -->
<g id="6" class="edge">
<title>node4:f1&#45;&gt;node6:f0</title>
<path fill="none" stroke="black" d="M343,-473.5C355,-473.5 360.25,-473.5 368.88,-473.5"/>
<polygon fill="black" stroke="black" points="369,-477 379,-473.5 369,-470 369,-477"/>
</g>
<!-- node10 -->
<g id="node11" class="node">
<title>node10</title>
<polygon fill="none" stroke="black" points="400,-232.5 400,-336.5 454,-336.5 454,-232.5 400,-232.5"/>
<text text-anchor="middle" x="427" y="-319.7" font-family="Helvetica,Arial,sans-serif" font-size="16.00">(nil)</text>
<polyline fill="none" stroke="black" points="400,-310.5 454,-310.5 "/>
<text text-anchor="middle" x="427" y="-293.7" font-family="Helvetica,Arial,sans-serif" font-size="16.00"> </text>
<polyline fill="none" stroke="black" points="400,-284.5 454,-284.5 "/>
<text text-anchor="middle" x="427" y="-267.7" font-family="Helvetica,Arial,sans-serif" font-size="16.00"> </text>
<polyline fill="none" stroke="black" points="400,-258.5 454,-258.5 "/>
<text text-anchor="middle" x="427" y="-241.7" font-family="Helvetica,Arial,sans-serif" font-size="16.00">&#45;1</text>
</g>
<!-- node4&#45;&gt;node10 -->
<g id="7" class="edge">
<title>node4:f2&#45;&gt;node10:f0</title>
<path fill="none" stroke="black" d="M343,-447.5C399.69,-447.5 346.16,-338.52 389.07,-324.89"/>
<polygon fill="black" stroke="black" points="389.58,-328.35 399,-323.5 388.61,-321.42 389.58,-328.35"/>
</g>
<!-- node6&#45;&gt;node3 -->
<g id="8" class="edge">
<title>node6:f0&#45;&gt;node3:f0</title>
<path fill="none" stroke="black" d="M475,-473.5C479.2,-473.5 597.73,-510.02 633.19,-520"/>
<polygon fill="black" stroke="black" points="632.45,-523.43 643,-522.5 634.17,-516.64 632.45,-523.43"/>
</g>
<!-- node7 -->
<g id="node8" class="node">
<title>node7</title>
<polygon fill="none" stroke="black" points="511,-369.5 511,-473.5 607,-473.5 607,-369.5 511,-369.5"/>
<text text-anchor="middle" x="559" y="-456.7" font-family="Helvetica,Arial,sans-serif" font-size="16.00">0xf7fc4380</text>
<polyline fill="none" stroke="black" points="511,-447.5 607,-447.5 "/>
<text text-anchor="middle" x="559" y="-430.7" font-family="Helvetica,Arial,sans-serif" font-size="16.00"> </text>
<polyline fill="none" stroke="black" points="511,-421.5 607,-421.5 "/>
<text text-anchor="middle" x="559" y="-404.7" font-family="Helvetica,Arial,sans-serif" font-size="16.00"> </text>
<polyline fill="none" stroke="black" points="511,-395.5 607,-395.5 "/>
<text text-anchor="middle" x="559" y="-378.7" font-family="Helvetica,Arial,sans-serif" font-size="16.00">2</text>
</g>
<!-- node6&#45;&gt;node7 -->
<g id="9" class="edge">
<title>node6:f1&#45;&gt;node7:f0</title>
<path fill="none" stroke="black" d="M475,-447.5C488.02,-447.5 492.24,-455.12 501.13,-458.69"/>
<polygon fill="black" stroke="black" points="500.53,-462.14 511,-460.5 501.79,-455.26 500.53,-462.14"/>
</g>
<!-- node9 -->
<g id="node10" class="node">
<title>node9</title>
<polygon fill="none" stroke="black" points="532,-246.5 532,-350.5 586,-350.5 586,-246.5 532,-246.5"/>
<text text-anchor="middle" x="559" y="-333.7" font-family="Helvetica,Arial,sans-serif" font-size="16.00">(nil)</text>
<polyline fill="none" stroke="black" points="532,-324.5 586,-324.5 "/>
<text text-anchor="middle" x="559" y="-307.7" font-family="Helvetica,Arial,sans-serif" font-size="16.00"> </text>
<polyline fill="none" stroke="black" points="532,-298.5 586,-298.5 "/>
<text text-anchor="middle" x="559" y="-281.7" font-family="Helvetica,Arial,sans-serif" font-size="16.00"> </text>
<polyline fill="none" stroke="black" points="532,-272.5 586,-272.5 "/>
<text text-anchor="middle" x="559" y="-255.7" font-family="Helvetica,Arial,sans-serif" font-size="16.00">&#45;1</text>
</g>
<!-- node6&#45;&gt;node9 -->
<g id="10" class="edge">
<title>node6:f2&#45;&gt;node9:f0</title>
<path fill="none" stroke="black" d="M475,-421.5C516.01,-421.5 491.35,-351.32 521.07,-339.25"/>
<polygon fill="black" stroke="black" points="521.76,-342.69 531,-337.5 520.54,-335.79 521.76,-342.69"/>
</g>
<!-- node7&#45;&gt;node1 -->
<g id="12" class="edge">
<title>node7:f1&#45;&gt;node1:f0</title>
<path fill="none" stroke="black" d="M511,-434.5C479.14,-434.5 500.94,-478 475,-496.5 381.72,-563.04 332,-527.72 221.2,-525.6"/>
<polygon fill="black" stroke="black" points="221.03,-522.1 211,-525.5 220.97,-529.1 221.03,-522.1"/>
</g>
<!-- node7&#45;&gt;node3 -->
<g id="11" class="edge">
<title>node7:f0&#45;&gt;node3:f0</title>
<path fill="none" stroke="black" d="M607,-460.5C634.63,-460.5 617.45,-507.12 633.18,-519.51"/>
<polygon fill="black" stroke="black" points="632.41,-522.94 643,-522.5 634.45,-516.24 632.41,-522.94"/>
</g>
<!-- node8 -->
<g id="node9" class="node">
<title>node8</title>
<polygon fill="none" stroke="black" points="723.5,-317.5 723.5,-421.5 777.5,-421.5 777.5,-317.5 723.5,-317.5"/>
<text text-anchor="middle" x="750.5" y="-404.7" font-family="Helvetica,Arial,sans-serif" font-size="16.00">(nil)</text>
<polyline fill="none" stroke="black" points="723.5,-395.5 777.5,-395.5 "/>
<text text-anchor="middle" x="750.5" y="-378.7" font-family="Helvetica,Arial,sans-serif" font-size="16.00"> </text>
<polyline fill="none" stroke="black" points="723.5,-369.5 777.5,-369.5 "/>
<text text-anchor="middle" x="750.5" y="-352.7" font-family="Helvetica,Arial,sans-serif" font-size="16.00"> </text>
<polyline fill="none" stroke="black" points="723.5,-343.5 777.5,-343.5 "/>
<text text-anchor="middle" x="750.5" y="-326.7" font-family="Helvetica,Arial,sans-serif" font-size="16.00">&#45;1</text>
</g>
<!-- node7&#45;&gt;node8 -->
<g id="13" class="edge">
<title>node7:f2&#45;&gt;node8:f0</title>
<path fill="none" stroke="black" d="M607,-408.5C654.82,-408.5 669.23,-408.5 712.49,-408.5"/>
<polygon fill="black" stroke="black" points="712.5,-412 722.5,-408.5 712.5,-405 712.5,-412"/>
</g>
<!-- node11 -->
<g id="node12" class="node">
<title>node11</title>
<polygon fill="none" stroke="black" points="532,-123.5 532,-227.5 586,-227.5 586,-123.5 532,-123.5"/>
<text text-anchor="middle" x="559" y="-210.7" font-family="Helvetica,Arial,sans-serif" font-size="16.00">(nil)</text>
<polyline fill="none" stroke="black" points="532,-201.5 586,-201.5 "/>
<text text-anchor="middle" x="559" y="-184.7" font-family="Helvetica,Arial,sans-serif" font-size="16.00"> </text>
<polyline fill="none" stroke="black" points="532,-175.5 586,-175.5 "/>
<text text-anchor="middle" x="559" y="-158.7" font-family="Helvetica,Arial,sans-serif" font-size="16.00"> </text>
<polyline fill="none" stroke="black" points="532,-149.5 586,-149.5 "/>
<text text-anchor="middle" x="559" y="-132.7" font-family="Helvetica,Arial,sans-serif" font-size="16.00">&#45;1</text>
</g>
<!-- node10&#45;&gt;node11 -->
<g id="14" class="edge">
<title>node10:f1&#45;&gt;node11:f0</title>
<path fill="none" stroke="black" d="M455,-297.5C501.31,-297.5 484.14,-226.36 521.03,-215.8"/>
<polygon fill="black" stroke="black" points="521.54,-219.27 531,-214.5 520.63,-212.33 521.54,-219.27"/>
</g>
<!-- node12 -->
<g id="node13" class="node">
<title>node12</title>
<polygon fill="none" stroke="black" points="511,-0.5 511,-104.5 607,-104.5 607,-0.5 511,-0.5"/>
<text text-anchor="middle" x="559" y="-87.7" font-family="Helvetica,Arial,sans-serif" font-size="16.00">0xf7fc43e0</text>
<polyline fill="none" stroke="black" points="511,-78.5 607,-78.5 "/>
<text text-anchor="middle" x="559" y="-61.7" font-family="Helvetica,Arial,sans-serif" font-size="16.00"> </text>
<polyline fill="none" stroke="black" points="511,-52.5 607,-52.5 "/>
<text text-anchor="middle" x="559" y="-35.7" font-family="Helvetica,Arial,sans-serif" font-size="16.00"> </text>
<polyline fill="none" stroke="black" points="511,-26.5 607,-26.5 "/>
<text text-anchor="middle" x="559" y="-9.7" font-family="Helvetica,Arial,sans-serif" font-size="16.00">1</text>
</g>
<!-- node10&#45;&gt;node12 -->
<g id="15" class="edge">
<title>node10:f2&#45;&gt;node12:f0</title>
<path fill="none" stroke="black" d="M455,-271.5C535.02,-271.5 436.85,-107.31 500.86,-92.56"/>
<polygon fill="black" stroke="black" points="501.42,-96.02 511,-91.5 500.69,-89.06 501.42,-96.02"/>
</g>
<!-- node11&#45;&gt;node1 -->
<g id="16" class="edge">
<title>node11:f2&#45;&gt;node1:f0</title>
<path fill="none" stroke="black" d="M531,-162.5C366.6,-162.5 320.12,-252.26 247,-399.5 222.77,-448.3 263.34,-516.07 220.98,-524.61"/>
<polygon fill="black" stroke="black" points="220.65,-521.12 211,-525.5 221.27,-528.09 220.65,-521.12"/>
</g>
</g>
</svg>
