<?xml version="1.0" encoding="UTF-8" standalone="no"?>
<!DOCTYPE svg PUBLIC "-//W3C//DTD SVG 1.1//EN"
 "http://www.w3.org/Graphics/SVG/1.1/DTD/svg11.dtd">
<!-- Generated by graphviz version 2.43.0 (0)
 -->
<!-- Title: finite_state_machine Pages: 1 -->
<svg width="592pt" height="252pt"
 viewBox="0.00 0.00 592.00 252.00" xmlns="http://www.w3.org/2000/svg" xmlns:xlink="http://www.w3.org/1999/xlink">
<g id="graph0" class="graph" transform="scale(1 1) rotate(0) translate(4 248)">
<title>finite_state_machine</title>
<polygon fill="white" stroke="transparent" points="-4,4 -4,-248 588,-248 588,4 -4,4"/>
<!-- 0 -->
<g id="node1" class="node">
<title>0</title>
<ellipse fill="none" stroke="black" cx="22" cy="-76" rx="18" ry="18"/>
<ellipse fill="none" stroke="black" cx="22" cy="-76" rx="22" ry="22"/>
<text text-anchor="middle" x="22" y="-72.3" font-family="Helvetica,Arial,sans-serif" font-size="14.00">0</text>
</g>
<!-- 2 -->
<g id="node5" class="node">
<title>2</title>
<ellipse fill="none" stroke="black" cx="135" cy="-105" rx="18" ry="18"/>
<text text-anchor="middle" x="135" y="-101.3" font-family="Helvetica,Arial,sans-serif" font-size="14.00">2</text>
</g>
<!-- 0&#45;&gt;2 -->
<g id="edge1" class="edge">
<title>0&#45;&gt;2</title>
<path fill="none" stroke="black" d="M43.36,-81.32C61.4,-86.03 87.85,-92.94 107.52,-98.08"/>
<polygon fill="black" stroke="black" points="106.83,-101.52 117.39,-100.66 108.6,-94.75 106.83,-101.52"/>
<text text-anchor="middle" x="80.5" y="-98.8" font-family="Helvetica,Arial,sans-serif" font-size="14.00">SS(B)</text>
</g>
<!-- 1 -->
<g id="node6" class="node">
<title>1</title>
<ellipse fill="none" stroke="black" cx="135" cy="-49" rx="18" ry="18"/>
<text text-anchor="middle" x="135" y="-45.3" font-family="Helvetica,Arial,sans-serif" font-size="14.00">1</text>
</g>
<!-- 0&#45;&gt;1 -->
<g id="edge2" class="edge">
<title>0&#45;&gt;1</title>
<path fill="none" stroke="black" d="M42.64,-68.23C48.77,-66 55.61,-63.71 62,-62 76.62,-58.09 93.23,-55 106.81,-52.82"/>
<polygon fill="black" stroke="black" points="107.59,-56.24 116.95,-51.26 106.53,-49.32 107.59,-56.24"/>
<text text-anchor="middle" x="80.5" y="-65.8" font-family="Helvetica,Arial,sans-serif" font-size="14.00">SS(S)</text>
</g>
<!-- 3 -->
<g id="node2" class="node">
<title>3</title>
<ellipse fill="none" stroke="black" cx="260" cy="-22" rx="18" ry="18"/>
<ellipse fill="none" stroke="black" cx="260" cy="-22" rx="22" ry="22"/>
<text text-anchor="middle" x="260" y="-18.3" font-family="Helvetica,Arial,sans-serif" font-size="14.00">3</text>
</g>
<!-- 4 -->
<g id="node3" class="node">
<title>4</title>
<ellipse fill="none" stroke="black" cx="260" cy="-222" rx="18" ry="18"/>
<ellipse fill="none" stroke="black" cx="260" cy="-222" rx="22" ry="22"/>
<text text-anchor="middle" x="260" y="-218.3" font-family="Helvetica,Arial,sans-serif" font-size="14.00">4</text>
</g>
<!-- 8 -->
<g id="node4" class="node">
<title>8</title>
<ellipse fill="none" stroke="black" cx="562" cy="-113" rx="18" ry="18"/>
<ellipse fill="none" stroke="black" cx="562" cy="-113" rx="22" ry="22"/>
<text text-anchor="middle" x="562" y="-109.3" font-family="Helvetica,Arial,sans-serif" font-size="14.00">8</text>
</g>
<!-- 6 -->
<g id="node7" class="node">
<title>6</title>
<ellipse fill="none" stroke="black" cx="260" cy="-131" rx="18" ry="18"/>
<text text-anchor="middle" x="260" y="-127.3" font-family="Helvetica,Arial,sans-serif" font-size="14.00">6</text>
</g>
<!-- 8&#45;&gt;6 -->
<g id="edge13" class="edge">
<title>8&#45;&gt;6</title>
<path fill="none" stroke="black" d="M540.44,-118.03C502.01,-126.87 416.6,-143.92 344,-140 325.42,-139 304.6,-136.74 288.46,-134.73"/>
<polygon fill="black" stroke="black" points="288.49,-131.21 278.12,-133.4 287.6,-138.15 288.49,-131.21"/>
<text text-anchor="middle" x="411" y="-142.8" font-family="Helvetica,Arial,sans-serif" font-size="14.00">S(b)</text>
</g>
<!-- 5 -->
<g id="node8" class="node">
<title>5</title>
<ellipse fill="none" stroke="black" cx="362" cy="-80" rx="18" ry="18"/>
<text text-anchor="middle" x="362" y="-76.3" font-family="Helvetica,Arial,sans-serif" font-size="14.00">5</text>
</g>
<!-- 8&#45;&gt;5 -->
<g id="edge14" class="edge">
<title>8&#45;&gt;5</title>
<path fill="none" stroke="black" d="M540,-110.97C508.8,-107.75 448.46,-100.72 398,-90 395.1,-89.38 392.09,-88.66 389.11,-87.89"/>
<polygon fill="black" stroke="black" points="389.84,-84.45 379.26,-85.15 387.96,-91.2 389.84,-84.45"/>
<text text-anchor="middle" x="460" y="-106.8" font-family="Helvetica,Arial,sans-serif" font-size="14.00">S(a)</text>
</g>
<!-- 2&#45;&gt;4 -->
<g id="edge6" class="edge">
<title>2&#45;&gt;4</title>
<path fill="none" stroke="black" d="M148.14,-117.83C154.8,-124.78 163.25,-133.46 171,-141 192.29,-161.72 217.28,-184.58 235.17,-200.72"/>
<polygon fill="black" stroke="black" points="233.08,-203.55 242.85,-207.63 237.76,-198.34 233.08,-203.55"/>
<text text-anchor="middle" x="195.5" y="-188.8" font-family="Helvetica,Arial,sans-serif" font-size="14.00">S(A)</text>
</g>
<!-- 2&#45;&gt;6 -->
<g id="edge4" class="edge">
<title>2&#45;&gt;6</title>
<path fill="none" stroke="black" d="M152.84,-108.56C173.25,-112.87 207.88,-120.19 232.02,-125.3"/>
<polygon fill="black" stroke="black" points="231.46,-128.76 241.96,-127.4 232.9,-121.91 231.46,-128.76"/>
<text text-anchor="middle" x="195.5" y="-125.8" font-family="Helvetica,Arial,sans-serif" font-size="14.00">SS(b)</text>
</g>
<!-- 2&#45;&gt;5 -->
<g id="edge5" class="edge">
<title>2&#45;&gt;5</title>
<path fill="none" stroke="black" d="M152.91,-101.91C173.09,-98.32 207.9,-92.46 238,-89 270.8,-85.23 308.71,-82.74 333.67,-81.35"/>
<polygon fill="black" stroke="black" points="334.05,-84.84 343.85,-80.81 333.67,-77.85 334.05,-84.84"/>
<text text-anchor="middle" x="260" y="-92.8" font-family="Helvetica,Arial,sans-serif" font-size="14.00">SS(a)</text>
</g>
<!-- 1&#45;&gt;3 -->
<g id="edge3" class="edge">
<title>1&#45;&gt;3</title>
<path fill="none" stroke="black" d="M152.84,-45.3C172.22,-41.05 204.41,-33.98 228.28,-28.74"/>
<polygon fill="black" stroke="black" points="229.24,-32.12 238.26,-26.55 227.74,-25.28 229.24,-32.12"/>
<text text-anchor="middle" x="195.5" y="-45.8" font-family="Helvetica,Arial,sans-serif" font-size="14.00">S($end)</text>
</g>
<!-- 6&#45;&gt;6 -->
<g id="edge9" class="edge">
<title>6&#45;&gt;6</title>
<path fill="none" stroke="black" d="M251.02,-146.92C248.68,-157.15 251.67,-167 260,-167 265.47,-167 268.63,-162.76 269.5,-156.95"/>
<polygon fill="black" stroke="black" points="273,-156.72 268.98,-146.92 266.01,-157.09 273,-156.72"/>
<text text-anchor="middle" x="260" y="-170.8" font-family="Helvetica,Arial,sans-serif" font-size="14.00">S(b)</text>
</g>
<!-- 6&#45;&gt;5 -->
<g id="edge10" class="edge">
<title>6&#45;&gt;5</title>
<path fill="none" stroke="black" d="M276.62,-123.03C292.62,-114.87 317.72,-102.07 336.39,-92.55"/>
<polygon fill="black" stroke="black" points="338.17,-95.57 345.48,-87.91 334.99,-89.34 338.17,-95.57"/>
<text text-anchor="middle" x="313" y="-113.8" font-family="Helvetica,Arial,sans-serif" font-size="14.00">S(a)</text>
</g>
<!-- 5&#45;&gt;5 -->
<g id="edge8" class="edge">
<title>5&#45;&gt;5</title>
<path fill="none" stroke="black" d="M353.64,-96.29C351.62,-106.39 354.41,-116 362,-116 366.86,-116 369.76,-112.06 370.68,-106.57"/>
<polygon fill="black" stroke="black" points="374.17,-106.18 370.36,-96.29 367.17,-106.39 374.17,-106.18"/>
<text text-anchor="middle" x="362" y="-119.8" font-family="Helvetica,Arial,sans-serif" font-size="14.00">S(a)</text>
</g>
<!-- 7 -->
<g id="node9" class="node">
<title>7</title>
<ellipse fill="none" stroke="black" cx="460" cy="-59" rx="18" ry="18"/>
<text text-anchor="middle" x="460" y="-55.3" font-family="Helvetica,Arial,sans-serif" font-size="14.00">7</text>
</g>
<!-- 5&#45;&gt;7 -->
<g id="edge7" class="edge">
<title>5&#45;&gt;7</title>
<path fill="none" stroke="black" d="M379.72,-76.34C394.22,-73.17 415.47,-68.52 432.32,-64.84"/>
<polygon fill="black" stroke="black" points="433.13,-68.24 442.15,-62.69 431.63,-61.4 433.13,-68.24"/>
<text text-anchor="middle" x="411" y="-74.8" font-family="Helvetica,Arial,sans-serif" font-size="14.00">S(b)</text>
</g>
<!-- 7&#45;&gt;8 -->
<g id="edge11" class="edge">
<title>7&#45;&gt;8</title>
<path fill="none" stroke="black" d="M477.31,-64.42C489.9,-68.9 507.55,-75.84 522,-84 526.87,-86.75 531.83,-90.02 536.51,-93.35"/>
<polygon fill="black" stroke="black" points="534.43,-96.17 544.54,-99.33 538.61,-90.55 534.43,-96.17"/>
<text text-anchor="middle" x="509" y="-87.8" font-family="Helvetica,Arial,sans-serif" font-size="14.00">S(b)</text>
</g>
<!-- 7&#45;&gt;5 -->
<g id="edge12" class="edge">
<title>7&#45;&gt;5</title>
<path fill="none" stroke="black" d="M443.26,-52.06C430.67,-47.53 412.75,-43.41 398,-49 392.07,-51.25 386.5,-55.01 381.62,-59.16"/>
<polygon fill="black" stroke="black" points="378.95,-56.87 374.12,-66.3 383.78,-61.94 378.95,-56.87"/>
<text text-anchor="middle" x="411" y="-52.8" font-family="Helvetica,Arial,sans-serif" font-size="14.00">S(a)</text>
</g>
</g>
</svg>
