<?xml version="1.0" encoding="UTF-8" standalone="no"?>
<!DOCTYPE svg PUBLIC "-//W3C//DTD SVG 1.1//EN"
 "http://www.w3.org/Graphics/SVG/1.1/DTD/svg11.dtd">
<!-- Generated by graphviz version 2.43.0 (0)
 -->
<!-- Pages: 1 -->
<svg width="1284pt" height="554pt"
 viewBox="0.00 0.00 1284.00 554.00" xmlns="http://www.w3.org/2000/svg" xmlns:xlink="http://www.w3.org/1999/xlink">
<g id="graph0" class="graph" transform="scale(1 1) rotate(0) translate(4 550)">
<polygon fill="white" stroke="transparent" points="-4,4 -4,-550 1280,-550 1280,4 -4,4"/>
<text text-anchor="middle" x="638" y="-7.8" font-family="Helvetica,Arial,sans-serif" font-size="14.00">((+ (* (X) (&#45; (&#45; (X) (X)) (X))) (% (+ (X) (X)) (COS (&#45; (X) (X))))) (EXP (* (X) (X))) (+ (% (EXP (SIN (+ (X) (X)))) (SIN (* (X) (EXP (* (X) (X)))))) (* (X) (X))) (% (EXP (% (X) (% (X) (X)))) (EXP (SIN (X)))))</text>
<g id="clust1" class="cluster">
<title>cluster01</title>
<polygon fill="none" stroke="black" points="8,-175 8,-538 374,-538 374,-175 8,-175"/>
<text text-anchor="middle" x="191" y="-522.8" font-family="Helvetica,Arial,sans-serif" font-size="14.00">(+ (* (X) (&#45; (&#45; (X) (X)) (X))) (% (+ (X) (X)) (COS (&#45; (X) (X)))))</text>
</g>
<g id="clust2" class="cluster">
<title>cluster17</title>
<polygon fill="none" stroke="black" points="382,-319 382,-538 524,-538 524,-319 382,-319"/>
<text text-anchor="middle" x="453" y="-522.8" font-family="Helvetica,Arial,sans-serif" font-size="14.00">(EXP (* (X) (X)))</text>
</g>
<g id="clust3" class="cluster">
<title>cluster21</title>
<polygon fill="none" stroke="black" points="532,-31 532,-538 969,-538 969,-31 532,-31"/>
<text text-anchor="middle" x="750.5" y="-522.8" font-family="Helvetica,Arial,sans-serif" font-size="14.00">(+ (% (EXP (SIN (+ (X) (X)))) (SIN (* (X) (EXP (* (X) (X)))))) (* (X) (X)))</text>
</g>
<g id="clust4" class="cluster">
<title>cluster38</title>
<polygon fill="none" stroke="black" points="977,-175 977,-538 1268,-538 1268,-175 977,-175"/>
<text text-anchor="middle" x="1122.5" y="-522.8" font-family="Helvetica,Arial,sans-serif" font-size="14.00">(% (EXP (% (X) (% (X) (X)))) (EXP (SIN (X))))</text>
</g>
<!-- n002 -->
<g id="node1" class="node">
<title>n002</title>
<ellipse fill="none" stroke="black" cx="173" cy="-489" rx="27" ry="18"/>
<text text-anchor="middle" x="173" y="-485.3" font-family="Helvetica,Arial,sans-serif" font-size="14.00">+</text>
</g>
<!-- n003 -->
<g id="node2" class="node">
<title>n003</title>
<ellipse fill="none" stroke="black" cx="120" cy="-417" rx="27" ry="18"/>
<text text-anchor="middle" x="120" y="-413.3" font-family="Helvetica,Arial,sans-serif" font-size="14.00">*</text>
</g>
<!-- n002&#45;&#45;n003 -->
<g id="edge1" class="edge">
<title>n002&#45;&#45;n003</title>
<path fill="none" stroke="black" d="M161.24,-472.46C152.45,-460.86 140.5,-445.08 131.73,-433.49"/>
</g>
<!-- n010 -->
<g id="node9" class="node">
<title>n010</title>
<ellipse fill="none" stroke="black" cx="226" cy="-417" rx="27" ry="18"/>
<text text-anchor="middle" x="226" y="-413.3" font-family="Helvetica,Arial,sans-serif" font-size="14.00">%</text>
</g>
<!-- n002&#45;&#45;n010 -->
<g id="edge8" class="edge">
<title>n002&#45;&#45;n010</title>
<path fill="none" stroke="black" d="M184.76,-472.46C193.55,-460.86 205.5,-445.08 214.27,-433.49"/>
</g>
<!-- n004 -->
<g id="node3" class="node">
<title>n004</title>
<ellipse fill="none" stroke="black" cx="48" cy="-345" rx="27" ry="18"/>
<text text-anchor="middle" x="48" y="-341.3" font-family="Helvetica,Arial,sans-serif" font-size="14.00">X</text>
</g>
<!-- n003&#45;&#45;n004 -->
<g id="edge2" class="edge">
<title>n003&#45;&#45;n004</title>
<path fill="none" stroke="black" d="M105.43,-401.83C93.02,-389.77 75.27,-372.51 62.8,-360.38"/>
</g>
<!-- n005 -->
<g id="node4" class="node">
<title>n005</title>
<ellipse fill="none" stroke="black" cx="120" cy="-345" rx="27" ry="18"/>
<text text-anchor="middle" x="120" y="-341.3" font-family="Helvetica,Arial,sans-serif" font-size="14.00">&#45;</text>
</g>
<!-- n003&#45;&#45;n005 -->
<g id="edge3" class="edge">
<title>n003&#45;&#45;n005</title>
<path fill="none" stroke="black" d="M120,-398.7C120,-387.85 120,-373.92 120,-363.1"/>
</g>
<!-- n006 -->
<g id="node5" class="node">
<title>n006</title>
<ellipse fill="none" stroke="black" cx="48" cy="-273" rx="27" ry="18"/>
<text text-anchor="middle" x="48" y="-269.3" font-family="Helvetica,Arial,sans-serif" font-size="14.00">&#45;</text>
</g>
<!-- n005&#45;&#45;n006 -->
<g id="edge4" class="edge">
<title>n005&#45;&#45;n006</title>
<path fill="none" stroke="black" d="M105.43,-329.83C93.02,-317.77 75.27,-300.51 62.8,-288.38"/>
</g>
<!-- n009 -->
<g id="node8" class="node">
<title>n009</title>
<ellipse fill="none" stroke="black" cx="120" cy="-273" rx="27" ry="18"/>
<text text-anchor="middle" x="120" y="-269.3" font-family="Helvetica,Arial,sans-serif" font-size="14.00">X</text>
</g>
<!-- n005&#45;&#45;n009 -->
<g id="edge7" class="edge">
<title>n005&#45;&#45;n009</title>
<path fill="none" stroke="black" d="M120,-326.7C120,-315.85 120,-301.92 120,-291.1"/>
</g>
<!-- n007 -->
<g id="node6" class="node">
<title>n007</title>
<ellipse fill="none" stroke="black" cx="47" cy="-201" rx="27" ry="18"/>
<text text-anchor="middle" x="47" y="-197.3" font-family="Helvetica,Arial,sans-serif" font-size="14.00">X</text>
</g>
<!-- n006&#45;&#45;n007 -->
<g id="edge5" class="edge">
<title>n006&#45;&#45;n007</title>
<path fill="none" stroke="black" d="M47.75,-254.7C47.6,-243.85 47.4,-229.92 47.24,-219.1"/>
</g>
<!-- n008 -->
<g id="node7" class="node">
<title>n008</title>
<ellipse fill="none" stroke="black" cx="119" cy="-201" rx="27" ry="18"/>
<text text-anchor="middle" x="119" y="-197.3" font-family="Helvetica,Arial,sans-serif" font-size="14.00">X</text>
</g>
<!-- n006&#45;&#45;n008 -->
<g id="edge6" class="edge">
<title>n006&#45;&#45;n008</title>
<path fill="none" stroke="black" d="M62.71,-257.5C74.9,-245.48 92.13,-228.49 104.31,-216.49"/>
</g>
<!-- n011 -->
<g id="node10" class="node">
<title>n011</title>
<ellipse fill="none" stroke="black" cx="226" cy="-345" rx="27" ry="18"/>
<text text-anchor="middle" x="226" y="-341.3" font-family="Helvetica,Arial,sans-serif" font-size="14.00">+</text>
</g>
<!-- n010&#45;&#45;n011 -->
<g id="edge9" class="edge">
<title>n010&#45;&#45;n011</title>
<path fill="none" stroke="black" d="M226,-398.7C226,-387.85 226,-373.92 226,-363.1"/>
</g>
<!-- n014 -->
<g id="node13" class="node">
<title>n014</title>
<ellipse fill="none" stroke="black" cx="318" cy="-345" rx="29.8" ry="18"/>
<text text-anchor="middle" x="318" y="-341.3" font-family="Helvetica,Arial,sans-serif" font-size="14.00">COS</text>
</g>
<!-- n010&#45;&#45;n014 -->
<g id="edge12" class="edge">
<title>n010&#45;&#45;n014</title>
<path fill="none" stroke="black" d="M243.3,-402.83C259.54,-390.48 283.73,-372.08 300.15,-359.58"/>
</g>
<!-- n012 -->
<g id="node11" class="node">
<title>n012</title>
<ellipse fill="none" stroke="black" cx="192" cy="-273" rx="27" ry="18"/>
<text text-anchor="middle" x="192" y="-269.3" font-family="Helvetica,Arial,sans-serif" font-size="14.00">X</text>
</g>
<!-- n011&#45;&#45;n012 -->
<g id="edge10" class="edge">
<title>n011&#45;&#45;n012</title>
<path fill="none" stroke="black" d="M218.11,-327.76C212.7,-316.62 205.53,-301.87 200.08,-290.63"/>
</g>
<!-- n013 -->
<g id="node12" class="node">
<title>n013</title>
<ellipse fill="none" stroke="black" cx="264" cy="-273" rx="27" ry="18"/>
<text text-anchor="middle" x="264" y="-269.3" font-family="Helvetica,Arial,sans-serif" font-size="14.00">X</text>
</g>
<!-- n011&#45;&#45;n013 -->
<g id="edge11" class="edge">
<title>n011&#45;&#45;n013</title>
<path fill="none" stroke="black" d="M234.81,-327.76C240.95,-316.46 249.11,-301.44 255.23,-290.15"/>
</g>
<!-- n015 -->
<g id="node14" class="node">
<title>n015</title>
<ellipse fill="none" stroke="black" cx="336" cy="-273" rx="27" ry="18"/>
<text text-anchor="middle" x="336" y="-269.3" font-family="Helvetica,Arial,sans-serif" font-size="14.00">&#45;</text>
</g>
<!-- n014&#45;&#45;n015 -->
<g id="edge13" class="edge">
<title>n014&#45;&#45;n015</title>
<path fill="none" stroke="black" d="M322.36,-327.05C325.19,-316.05 328.86,-301.76 331.68,-290.79"/>
</g>
<!-- n016 -->
<g id="node15" class="node">
<title>n016</title>
<ellipse fill="none" stroke="black" cx="266" cy="-201" rx="27" ry="18"/>
<text text-anchor="middle" x="266" y="-197.3" font-family="Helvetica,Arial,sans-serif" font-size="14.00">X</text>
</g>
<!-- n015&#45;&#45;n016 -->
<g id="edge14" class="edge">
<title>n015&#45;&#45;n016</title>
<path fill="none" stroke="black" d="M321.5,-257.5C309.48,-245.48 292.49,-228.49 280.49,-216.49"/>
</g>
<!-- n017 -->
<g id="node16" class="node">
<title>n017</title>
<ellipse fill="none" stroke="black" cx="338" cy="-201" rx="27" ry="18"/>
<text text-anchor="middle" x="338" y="-197.3" font-family="Helvetica,Arial,sans-serif" font-size="14.00">X</text>
</g>
<!-- n015&#45;&#45;n017 -->
<g id="edge15" class="edge">
<title>n015&#45;&#45;n017</title>
<path fill="none" stroke="black" d="M336.49,-254.7C336.8,-243.85 337.2,-229.92 337.51,-219.1"/>
</g>
<!-- n018 -->
<g id="node17" class="node">
<title>n018</title>
<ellipse fill="none" stroke="black" cx="453" cy="-489" rx="28.7" ry="18"/>
<text text-anchor="middle" x="453" y="-485.3" font-family="Helvetica,Arial,sans-serif" font-size="14.00">EXP</text>
</g>
<!-- n019 -->
<g id="node18" class="node">
<title>n019</title>
<ellipse fill="none" stroke="black" cx="453" cy="-417" rx="27" ry="18"/>
<text text-anchor="middle" x="453" y="-413.3" font-family="Helvetica,Arial,sans-serif" font-size="14.00">*</text>
</g>
<!-- n018&#45;&#45;n019 -->
<g id="edge16" class="edge">
<title>n018&#45;&#45;n019</title>
<path fill="none" stroke="black" d="M453,-470.7C453,-459.85 453,-445.92 453,-435.1"/>
</g>
<!-- n020 -->
<g id="node19" class="node">
<title>n020</title>
<ellipse fill="none" stroke="black" cx="417" cy="-345" rx="27" ry="18"/>
<text text-anchor="middle" x="417" y="-341.3" font-family="Helvetica,Arial,sans-serif" font-size="14.00">X</text>
</g>
<!-- n019&#45;&#45;n020 -->
<g id="edge17" class="edge">
<title>n019&#45;&#45;n020</title>
<path fill="none" stroke="black" d="M444.65,-399.76C438.83,-388.46 431.11,-373.44 425.3,-362.15"/>
</g>
<!-- n021 -->
<g id="node20" class="node">
<title>n021</title>
<ellipse fill="none" stroke="black" cx="489" cy="-345" rx="27" ry="18"/>
<text text-anchor="middle" x="489" y="-341.3" font-family="Helvetica,Arial,sans-serif" font-size="14.00">X</text>
</g>
<!-- n019&#45;&#45;n021 -->
<g id="edge18" class="edge">
<title>n019&#45;&#45;n021</title>
<path fill="none" stroke="black" d="M461.35,-399.76C467.17,-388.46 474.89,-373.44 480.7,-362.15"/>
</g>
<!-- n022 -->
<g id="node21" class="node">
<title>n022</title>
<ellipse fill="none" stroke="black" cx="752" cy="-489" rx="27" ry="18"/>
<text text-anchor="middle" x="752" y="-485.3" font-family="Helvetica,Arial,sans-serif" font-size="14.00">+</text>
</g>
<!-- n023 -->
<g id="node22" class="node">
<title>n023</title>
<ellipse fill="none" stroke="black" cx="716" cy="-417" rx="27" ry="18"/>
<text text-anchor="middle" x="716" y="-413.3" font-family="Helvetica,Arial,sans-serif" font-size="14.00">%</text>
</g>
<!-- n022&#45;&#45;n023 -->
<g id="edge19" class="edge">
<title>n022&#45;&#45;n023</title>
<path fill="none" stroke="black" d="M743.65,-471.76C737.83,-460.46 730.11,-445.44 724.3,-434.15"/>
</g>
<!-- n036 -->
<g id="node35" class="node">
<title>n036</title>
<ellipse fill="none" stroke="black" cx="788" cy="-417" rx="27" ry="18"/>
<text text-anchor="middle" x="788" y="-413.3" font-family="Helvetica,Arial,sans-serif" font-size="14.00">*</text>
</g>
<!-- n022&#45;&#45;n036 -->
<g id="edge32" class="edge">
<title>n022&#45;&#45;n036</title>
<path fill="none" stroke="black" d="M760.35,-471.76C766.17,-460.46 773.89,-445.44 779.7,-434.15"/>
</g>
<!-- n024 -->
<g id="node23" class="node">
<title>n024</title>
<ellipse fill="none" stroke="black" cx="642" cy="-345" rx="28.7" ry="18"/>
<text text-anchor="middle" x="642" y="-341.3" font-family="Helvetica,Arial,sans-serif" font-size="14.00">EXP</text>
</g>
<!-- n023&#45;&#45;n024 -->
<g id="edge20" class="edge">
<title>n023&#45;&#45;n024</title>
<path fill="none" stroke="black" d="M701.02,-401.83C688.27,-389.77 670.03,-372.51 657.21,-360.38"/>
</g>
<!-- n029 -->
<g id="node28" class="node">
<title>n029</title>
<ellipse fill="none" stroke="black" cx="716" cy="-345" rx="27" ry="18"/>
<text text-anchor="middle" x="716" y="-341.3" font-family="Helvetica,Arial,sans-serif" font-size="14.00">SIN</text>
</g>
<!-- n023&#45;&#45;n029 -->
<g id="edge25" class="edge">
<title>n023&#45;&#45;n029</title>
<path fill="none" stroke="black" d="M716,-398.7C716,-387.85 716,-373.92 716,-363.1"/>
</g>
<!-- n025 -->
<g id="node24" class="node">
<title>n025</title>
<ellipse fill="none" stroke="black" cx="642" cy="-273" rx="27" ry="18"/>
<text text-anchor="middle" x="642" y="-269.3" font-family="Helvetica,Arial,sans-serif" font-size="14.00">SIN</text>
</g>
<!-- n024&#45;&#45;n025 -->
<g id="edge21" class="edge">
<title>n024&#45;&#45;n025</title>
<path fill="none" stroke="black" d="M642,-326.7C642,-315.85 642,-301.92 642,-291.1"/>
</g>
<!-- n026 -->
<g id="node25" class="node">
<title>n026</title>
<ellipse fill="none" stroke="black" cx="642" cy="-201" rx="27" ry="18"/>
<text text-anchor="middle" x="642" y="-197.3" font-family="Helvetica,Arial,sans-serif" font-size="14.00">+</text>
</g>
<!-- n025&#45;&#45;n026 -->
<g id="edge22" class="edge">
<title>n025&#45;&#45;n026</title>
<path fill="none" stroke="black" d="M642,-254.7C642,-243.85 642,-229.92 642,-219.1"/>
</g>
<!-- n027 -->
<g id="node26" class="node">
<title>n027</title>
<ellipse fill="none" stroke="black" cx="606" cy="-129" rx="27" ry="18"/>
<text text-anchor="middle" x="606" y="-125.3" font-family="Helvetica,Arial,sans-serif" font-size="14.00">X</text>
</g>
<!-- n026&#45;&#45;n027 -->
<g id="edge23" class="edge">
<title>n026&#45;&#45;n027</title>
<path fill="none" stroke="black" d="M633.65,-183.76C627.83,-172.46 620.11,-157.44 614.3,-146.15"/>
</g>
<!-- n028 -->
<g id="node27" class="node">
<title>n028</title>
<ellipse fill="none" stroke="black" cx="678" cy="-129" rx="27" ry="18"/>
<text text-anchor="middle" x="678" y="-125.3" font-family="Helvetica,Arial,sans-serif" font-size="14.00">X</text>
</g>
<!-- n026&#45;&#45;n028 -->
<g id="edge24" class="edge">
<title>n026&#45;&#45;n028</title>
<path fill="none" stroke="black" d="M650.35,-183.76C656.17,-172.46 663.89,-157.44 669.7,-146.15"/>
</g>
<!-- n030 -->
<g id="node29" class="node">
<title>n030</title>
<ellipse fill="none" stroke="black" cx="716" cy="-273" rx="27" ry="18"/>
<text text-anchor="middle" x="716" y="-269.3" font-family="Helvetica,Arial,sans-serif" font-size="14.00">*</text>
</g>
<!-- n029&#45;&#45;n030 -->
<g id="edge26" class="edge">
<title>n029&#45;&#45;n030</title>
<path fill="none" stroke="black" d="M716,-326.7C716,-315.85 716,-301.92 716,-291.1"/>
</g>
<!-- n031 -->
<g id="node30" class="node">
<title>n031</title>
<ellipse fill="none" stroke="black" cx="715" cy="-201" rx="27" ry="18"/>
<text text-anchor="middle" x="715" y="-197.3" font-family="Helvetica,Arial,sans-serif" font-size="14.00">X</text>
</g>
<!-- n030&#45;&#45;n031 -->
<g id="edge27" class="edge">
<title>n030&#45;&#45;n031</title>
<path fill="none" stroke="black" d="M715.75,-254.7C715.6,-243.85 715.4,-229.92 715.24,-219.1"/>
</g>
<!-- n032 -->
<g id="node31" class="node">
<title>n032</title>
<ellipse fill="none" stroke="black" cx="789" cy="-201" rx="28.7" ry="18"/>
<text text-anchor="middle" x="789" y="-197.3" font-family="Helvetica,Arial,sans-serif" font-size="14.00">EXP</text>
</g>
<!-- n030&#45;&#45;n032 -->
<g id="edge28" class="edge">
<title>n030&#45;&#45;n032</title>
<path fill="none" stroke="black" d="M730.77,-257.83C743.35,-245.77 761.35,-228.51 774,-216.38"/>
</g>
<!-- n033 -->
<g id="node32" class="node">
<title>n033</title>
<ellipse fill="none" stroke="black" cx="789" cy="-129" rx="27" ry="18"/>
<text text-anchor="middle" x="789" y="-125.3" font-family="Helvetica,Arial,sans-serif" font-size="14.00">*</text>
</g>
<!-- n032&#45;&#45;n033 -->
<g id="edge29" class="edge">
<title>n032&#45;&#45;n033</title>
<path fill="none" stroke="black" d="M789,-182.7C789,-171.85 789,-157.92 789,-147.1"/>
</g>
<!-- n034 -->
<g id="node33" class="node">
<title>n034</title>
<ellipse fill="none" stroke="black" cx="753" cy="-57" rx="27" ry="18"/>
<text text-anchor="middle" x="753" y="-53.3" font-family="Helvetica,Arial,sans-serif" font-size="14.00">X</text>
</g>
<!-- n033&#45;&#45;n034 -->
<g id="edge30" class="edge">
<title>n033&#45;&#45;n034</title>
<path fill="none" stroke="black" d="M780.65,-111.76C774.83,-100.46 767.11,-85.44 761.3,-74.15"/>
</g>
<!-- n035 -->
<g id="node34" class="node">
<title>n035</title>
<ellipse fill="none" stroke="black" cx="825" cy="-57" rx="27" ry="18"/>
<text text-anchor="middle" x="825" y="-53.3" font-family="Helvetica,Arial,sans-serif" font-size="14.00">X</text>
</g>
<!-- n033&#45;&#45;n035 -->
<g id="edge31" class="edge">
<title>n033&#45;&#45;n035</title>
<path fill="none" stroke="black" d="M797.35,-111.76C803.17,-100.46 810.89,-85.44 816.7,-74.15"/>
</g>
<!-- n037 -->
<g id="node36" class="node">
<title>n037</title>
<ellipse fill="none" stroke="black" cx="788" cy="-345" rx="27" ry="18"/>
<text text-anchor="middle" x="788" y="-341.3" font-family="Helvetica,Arial,sans-serif" font-size="14.00">X</text>
</g>
<!-- n036&#45;&#45;n037 -->
<g id="edge33" class="edge">
<title>n036&#45;&#45;n037</title>
<path fill="none" stroke="black" d="M788,-398.7C788,-387.85 788,-373.92 788,-363.1"/>
</g>
<!-- n038 -->
<g id="node37" class="node">
<title>n038</title>
<ellipse fill="none" stroke="black" cx="860" cy="-345" rx="27" ry="18"/>
<text text-anchor="middle" x="860" y="-341.3" font-family="Helvetica,Arial,sans-serif" font-size="14.00">X</text>
</g>
<!-- n036&#45;&#45;n038 -->
<g id="edge34" class="edge">
<title>n036&#45;&#45;n038</title>
<path fill="none" stroke="black" d="M802.57,-401.83C814.98,-389.77 832.73,-372.51 845.2,-360.38"/>
</g>
<!-- n039 -->
<g id="node38" class="node">
<title>n039</title>
<ellipse fill="none" stroke="black" cx="1119" cy="-489" rx="27" ry="18"/>
<text text-anchor="middle" x="1119" y="-485.3" font-family="Helvetica,Arial,sans-serif" font-size="14.00">%</text>
</g>
<!-- n040 -->
<g id="node39" class="node">
<title>n040</title>
<ellipse fill="none" stroke="black" cx="1082" cy="-417" rx="28.7" ry="18"/>
<text text-anchor="middle" x="1082" y="-413.3" font-family="Helvetica,Arial,sans-serif" font-size="14.00">EXP</text>
</g>
<!-- n039&#45;&#45;n040 -->
<g id="edge35" class="edge">
<title>n039&#45;&#45;n040</title>
<path fill="none" stroke="black" d="M1110.42,-471.76C1104.53,-460.62 1096.73,-445.87 1090.79,-434.63"/>
</g>
<!-- n046 -->
<g id="node45" class="node">
<title>n046</title>
<ellipse fill="none" stroke="black" cx="1157" cy="-417" rx="28.7" ry="18"/>
<text text-anchor="middle" x="1157" y="-413.3" font-family="Helvetica,Arial,sans-serif" font-size="14.00">EXP</text>
</g>
<!-- n039&#45;&#45;n046 -->
<g id="edge41" class="edge">
<title>n039&#45;&#45;n046</title>
<path fill="none" stroke="black" d="M1127.81,-471.76C1133.95,-460.46 1142.11,-445.44 1148.23,-434.15"/>
</g>
<!-- n041 -->
<g id="node40" class="node">
<title>n041</title>
<ellipse fill="none" stroke="black" cx="1082" cy="-345" rx="27" ry="18"/>
<text text-anchor="middle" x="1082" y="-341.3" font-family="Helvetica,Arial,sans-serif" font-size="14.00">%</text>
</g>
<!-- n040&#45;&#45;n041 -->
<g id="edge36" class="edge">
<title>n040&#45;&#45;n041</title>
<path fill="none" stroke="black" d="M1082,-398.7C1082,-387.85 1082,-373.92 1082,-363.1"/>
</g>
<!-- n042 -->
<g id="node41" class="node">
<title>n042</title>
<ellipse fill="none" stroke="black" cx="1012" cy="-273" rx="27" ry="18"/>
<text text-anchor="middle" x="1012" y="-269.3" font-family="Helvetica,Arial,sans-serif" font-size="14.00">X</text>
</g>
<!-- n041&#45;&#45;n042 -->
<g id="edge37" class="edge">
<title>n041&#45;&#45;n042</title>
<path fill="none" stroke="black" d="M1067.5,-329.5C1055.48,-317.48 1038.49,-300.49 1026.49,-288.49"/>
</g>
<!-- n043 -->
<g id="node42" class="node">
<title>n043</title>
<ellipse fill="none" stroke="black" cx="1084" cy="-273" rx="27" ry="18"/>
<text text-anchor="middle" x="1084" y="-269.3" font-family="Helvetica,Arial,sans-serif" font-size="14.00">%</text>
</g>
<!-- n041&#45;&#45;n043 -->
<g id="edge38" class="edge">
<title>n041&#45;&#45;n043</title>
<path fill="none" stroke="black" d="M1082.49,-326.7C1082.8,-315.85 1083.2,-301.92 1083.51,-291.1"/>
</g>
<!-- n044 -->
<g id="node43" class="node">
<title>n044</title>
<ellipse fill="none" stroke="black" cx="1048" cy="-201" rx="27" ry="18"/>
<text text-anchor="middle" x="1048" y="-197.3" font-family="Helvetica,Arial,sans-serif" font-size="14.00">X</text>
</g>
<!-- n043&#45;&#45;n044 -->
<g id="edge39" class="edge">
<title>n043&#45;&#45;n044</title>
<path fill="none" stroke="black" d="M1075.65,-255.76C1069.83,-244.46 1062.11,-229.44 1056.3,-218.15"/>
</g>
<!-- n045 -->
<g id="node44" class="node">
<title>n045</title>
<ellipse fill="none" stroke="black" cx="1120" cy="-201" rx="27" ry="18"/>
<text text-anchor="middle" x="1120" y="-197.3" font-family="Helvetica,Arial,sans-serif" font-size="14.00">X</text>
</g>
<!-- n043&#45;&#45;n045 -->
<g id="edge40" class="edge">
<title>n043&#45;&#45;n045</title>
<path fill="none" stroke="black" d="M1092.35,-255.76C1098.17,-244.46 1105.89,-229.44 1111.7,-218.15"/>
</g>
<!-- n047 -->
<g id="node46" class="node">
<title>n047</title>
<ellipse fill="none" stroke="black" cx="1157" cy="-345" rx="27" ry="18"/>
<text text-anchor="middle" x="1157" y="-341.3" font-family="Helvetica,Arial,sans-serif" font-size="14.00">SIN</text>
</g>
<!-- n046&#45;&#45;n047 -->
<g id="edge42" class="edge">
<title>n046&#45;&#45;n047</title>
<path fill="none" stroke="black" d="M1157,-398.7C1157,-387.85 1157,-373.92 1157,-363.1"/>
</g>
<!-- n048 -->
<g id="node47" class="node">
<title>n048</title>
<ellipse fill="none" stroke="black" cx="1157" cy="-273" rx="27" ry="18"/>
<text text-anchor="middle" x="1157" y="-269.3" font-family="Helvetica,Arial,sans-serif" font-size="14.00">X</text>
</g>
<!-- n047&#45;&#45;n048 -->
<g id="edge43" class="edge">
<title>n047&#45;&#45;n048</title>
<path fill="none" stroke="black" d="M1157,-326.7C1157,-315.85 1157,-301.92 1157,-291.1"/>
</g>
</g>
</svg>
