<?xml version="1.0" encoding="UTF-8" standalone="no"?>
<!DOCTYPE svg PUBLIC "-//W3C//DTD SVG 1.1//EN"
 "http://www.w3.org/Graphics/SVG/1.1/DTD/svg11.dtd">
<!-- Generated by graphviz version 2.43.0 (0)
 -->
<!-- Title: git_basics Pages: 1 -->
<svg width="859pt" height="244pt"
 viewBox="0.00 0.00 859.00 244.00" xmlns="http://www.w3.org/2000/svg" xmlns:xlink="http://www.w3.org/1999/xlink">
<g id="graph0" class="graph" transform="scale(1 1) rotate(0) translate(4 240)">
<title>git_basics</title>
<polygon fill="white" stroke="transparent" points="-4,4 -4,-240 855,-240 855,4 -4,4"/>
<text text-anchor="middle" x="425.5" y="-216" font-family="Helvetica,Arial,sans-serif" font-size="20.00">Basic git concepts and operations</text>
<!-- changes -->
<g id="node1" class="node">
<title>changes</title>
<polygon fill="#880000" fill-opacity="0.133333" stroke="transparent" points="125,-182 0,-182 0,-106 125,-106 125,-182"/>
<polygon fill="none" stroke="#000000" stroke-opacity="0.266667" points="0.5,-144 0.5,-182 125.5,-182 125.5,-144 0.5,-144"/>
<text text-anchor="start" x="33.5" y="-166.8" font-family="Helvetica,Arial,sans-serif" font-size="14.00"> </text>
<text text-anchor="start" x="37.5" y="-166.8" font-family="Helvetica,Arial,sans-serif" font-weight="bold" font-size="14.00">changes</text>
<text text-anchor="start" x="5.5" y="-152.8" font-family="Helvetica,Arial,sans-serif" font-size="14.00">in the working tree </text>
<polygon fill="none" stroke="#000000" stroke-opacity="0.266667" points="0.5,-106 0.5,-144 125.5,-144 125.5,-106 0.5,-106"/>
<text text-anchor="start" x="5.5" y="-128.8" font-family="Helvetica,Arial,sans-serif" font-style="italic" font-size="14.00">To view: </text>
<text text-anchor="start" x="5.5" y="-114.8" font-family="Helvetica,Arial,sans-serif" font-size="14.00">git diff</text>
</g>
<!-- staging -->
<g id="node2" class="node">
<title>staging</title>
<polygon fill="#ff8800" fill-opacity="0.133333" stroke="transparent" points="432,-173 332,-173 332,-97 432,-97 432,-173"/>
<polygon fill="none" stroke="#000000" stroke-opacity="0.266667" points="332,-135 332,-173 432,-173 432,-135 332,-135"/>
<text text-anchor="start" x="340" y="-157.8" font-family="Helvetica,Arial,sans-serif" font-size="14.00"> </text>
<text text-anchor="start" x="344" y="-157.8" font-family="Helvetica,Arial,sans-serif" font-weight="bold" font-size="14.00">staging area</text>
<text text-anchor="start" x="339.5" y="-143.8" font-family="Helvetica,Arial,sans-serif" font-size="14.00">(cache, index)</text>
<polygon fill="none" stroke="#000000" stroke-opacity="0.266667" points="332,-97 332,-135 432,-135 432,-97 332,-97"/>
<text text-anchor="start" x="337" y="-119.8" font-family="Helvetica,Arial,sans-serif" font-style="italic" font-size="14.00">To view: </text>
<text text-anchor="start" x="337" y="-105.8" font-family="Helvetica,Arial,sans-serif" font-size="14.00">git diff &#45;&#45;staged</text>
</g>
<!-- changes&#45;&gt;staging -->
<g id="edge8" class="edge">
<title>changes&#45;&gt;staging</title>
<path fill="none" stroke="#880000" stroke-width="2" stroke-dasharray="1,5" stroke-opacity="0.533333" d="M125.03,-143.45C175.75,-142.84 249.56,-141.57 314,-139 318.18,-138.83 322.51,-138.63 326.87,-138.42"/>
<polygon fill="#880000" fill-opacity="0.533333" stroke="#880000" stroke-width="2" stroke-opacity="0.533333" points="327.08,-140.16 331.98,-138.15 326.89,-136.66 327.08,-140.16"/>
<text text-anchor="middle" x="228.5" y="-160.8" font-family="Helvetica,Arial,sans-serif" font-size="14.00">git add ... &#160;&#160;&#160;</text>
<text text-anchor="middle" x="228.5" y="-145.8" font-family="Helvetica,Arial,sans-serif" font-size="14.00">git reset &#160;&#160;&#160;&#160;&#160;</text>
</g>
<!-- stash -->
<g id="node4" class="node">
<title>stash</title>
<polygon fill="#0044ff" fill-opacity="0.133333" stroke="transparent" points="269,-87.5 188,-87.5 188,-24.5 269,-24.5 269,-87.5"/>
<polygon fill="none" stroke="#000000" stroke-opacity="0.266667" points="188.5,-62 188.5,-87 269.5,-87 269.5,-62 188.5,-62"/>
<text text-anchor="start" x="209" y="-71.8" font-family="Helvetica,Arial,sans-serif" font-size="14.00"> </text>
<text text-anchor="start" x="213" y="-71.8" font-family="Helvetica,Arial,sans-serif" font-weight="bold" font-size="14.00">stash</text>
<polygon fill="none" stroke="#000000" stroke-opacity="0.266667" points="188.5,-24 188.5,-62 269.5,-62 269.5,-24 188.5,-24"/>
<text text-anchor="start" x="193.5" y="-46.8" font-family="Helvetica,Arial,sans-serif" font-style="italic" font-size="14.00">To view:</text>
<text text-anchor="start" x="193.5" y="-32.8" font-family="Helvetica,Arial,sans-serif" font-size="14.00">git stash list</text>
</g>
<!-- changes&#45;&gt;stash -->
<g id="edge4" class="edge">
<title>changes&#45;&gt;stash</title>
<path fill="none" stroke="#000000" stroke-width="2" stroke-dasharray="1,5" stroke-opacity="0.533333" d="M129.47,-108.6C149.13,-98.05 170.06,-86.82 187.51,-77.46"/>
<polygon fill="#000000" fill-opacity="0.533333" stroke="#000000" stroke-width="2" stroke-opacity="0.533333" points="128.61,-107.08 125.03,-110.98 130.27,-110.16 128.61,-107.08"/>
<text text-anchor="middle" x="194.57" y="-94.38" font-family="Helvetica,Arial,sans-serif" font-size="14.00">git stash pop</text>
</g>
<!-- stash_push -->
<g id="node5" class="node">
<title>stash_push</title>
<text text-anchor="middle" x="228.5" y="-109.3" font-family="Courier New" font-size="14.00">git stash [push]</text>
</g>
<!-- changes&#45;&gt;stash_push -->
<g id="edge2" class="edge">
<title>changes&#45;&gt;stash_push</title>
<path fill="none" stroke="#000088" stroke-width="2" stroke-dasharray="1,5" stroke-opacity="0.266667" d="M125.03,-132.37C145.94,-128.42 168.74,-124.11 187.51,-120.56"/>
</g>
<!-- discard -->
<g id="node8" class="node">
<title>discard</title>
<text text-anchor="middle" x="62.5" y="-48.3" font-family="Helvetica,Arial,sans-serif" font-size="14.00">discard</text>
</g>
<!-- changes&#45;&gt;discard -->
<g id="edge9" class="edge">
<title>changes&#45;&gt;discard</title>
<path fill="none" stroke="#880000" stroke-width="2" stroke-dasharray="1,5" stroke-opacity="0.533333" d="M62.5,-105.7C62.5,-95.41 62.5,-84.6 62.5,-75.39"/>
<polygon fill="#880000" fill-opacity="0.533333" stroke="#880000" stroke-width="2" stroke-opacity="0.533333" points="64.25,-75.18 62.5,-70.18 60.75,-75.18 64.25,-75.18"/>
<text text-anchor="middle" x="52" y="-84.3" font-family="Helvetica,Arial,sans-serif" font-size="14.00">git restore ...</text>
</g>
<!-- HEAD -->
<g id="node3" class="node">
<title>HEAD</title>
<polygon fill="#88ff00" fill-opacity="0.133333" stroke="transparent" points="654,-146 532,-146 532,0 654,0 654,-146"/>
<polyline fill="none" stroke="#000000" stroke-opacity="0.266667" points="654,-123 654,-146 532,-146 532,-123 "/>
<text text-anchor="start" x="563" y="-131.8" font-family="Helvetica,Arial,sans-serif" font-size="14.00"> </text>
<text text-anchor="start" x="567" y="-131.8" font-family="Helvetica,Arial,sans-serif" font-weight="bold" font-size="14.00">HEAD</text>
<text text-anchor="start" x="607" y="-131.8" font-family="Helvetica,Arial,sans-serif" font-size="14.00"> of</text>
<polyline fill="none" stroke="#000000" stroke-opacity="0.266667" points="532,-123 532,-100 654,-100 654,-123 "/>
<text text-anchor="start" x="536" y="-107.8" font-family="Helvetica,Arial,sans-serif" font-size="14.00"> the current branch</text>
<polygon fill="none" stroke="#000000" stroke-opacity="0.266667" points="532,-50 532,-100 654,-100 654,-50 532,-50"/>
<text text-anchor="start" x="536" y="-85.8" font-family="Helvetica,Arial,sans-serif" font-style="italic" font-size="14.00">To view:</text>
<text text-anchor="start" x="536" y="-71.8" font-family="Helvetica,Arial,sans-serif" font-size="14.00">git show</text>
<text text-anchor="start" x="536" y="-57.8" font-family="Helvetica,Arial,sans-serif" font-size="14.00">git log</text>
<polygon fill="none" stroke="#000000" stroke-opacity="0.266667" points="532,0 532,-50 654,-50 654,0 532,0"/>
<text text-anchor="start" x="536" y="-35.8" font-family="Helvetica,Arial,sans-serif" font-style="italic" font-size="14.00">To change branch:</text>
<text text-anchor="start" x="536" y="-21.8" font-family="Helvetica,Arial,sans-serif" font-size="14.00">git switch ...</text>
<text text-anchor="start" x="536" y="-7.8" font-family="Helvetica,Arial,sans-serif" font-size="14.00">git checkout ...</text>
</g>
<!-- staging&#45;&gt;HEAD -->
<g id="edge1" class="edge">
<title>staging&#45;&gt;HEAD:push</title>
<path fill="none" stroke="#880000" stroke-width="2" stroke-dasharray="1,5" stroke-opacity="0.533333" d="M432.33,-135C459.87,-135 494.98,-135 526.91,-135"/>
<polygon fill="#880000" fill-opacity="0.533333" stroke="#880000" stroke-width="2" stroke-opacity="0.533333" points="527,-136.75 532,-135 527,-133.25 527,-136.75"/>
<text text-anchor="middle" x="482" y="-138.8" font-family="Helvetica,Arial,sans-serif" font-size="14.00">git commit</text>
</g>
<!-- remote -->
<g id="node6" class="node">
<title>remote</title>
<polygon fill="#00ff00" fill-opacity="0.133333" stroke="#000000" stroke-opacity="0.133333" points="846.5,-164 742.5,-164 742.5,-128 846.5,-128 846.5,-164"/>
<text text-anchor="middle" x="794.5" y="-142.3" font-family="Helvetica,Arial,sans-serif" font-size="14.00">remote branch</text>
</g>
<!-- HEAD&#45;&gt;remote -->
<g id="edge6" class="edge">
<title>HEAD:push&#45;&gt;remote</title>
<path fill="none" stroke="#880000" stroke-width="2" stroke-dasharray="1,5" stroke-opacity="0.533333" d="M654,-135C681.44,-135 711.83,-137.14 737.22,-139.54"/>
<polygon fill="#880000" fill-opacity="0.533333" stroke="#880000" stroke-width="2" stroke-opacity="0.533333" points="737.09,-141.28 742.23,-140.02 737.42,-137.8 737.09,-141.28"/>
<text text-anchor="middle" x="696" y="-140.8" font-family="Helvetica,Arial,sans-serif" font-size="14.00">git push</text>
</g>
<!-- HEAD&#45;&gt;remote -->
<g id="edge7" class="edge">
<title>HEAD:pull&#45;&gt;remote</title>
<path fill="none" stroke="#004400" stroke-width="2" stroke-dasharray="1,5" stroke-opacity="0.533333" d="M659.27,-111.97C684.46,-111.72 693.14,-109.88 720,-116 732.09,-118.76 744.77,-123.28 756.12,-127.99"/>
<polygon fill="#004400" fill-opacity="0.533333" stroke="#004400" stroke-width="2" stroke-opacity="0.533333" points="658.99,-110.22 654,-112 659.01,-113.72 658.99,-110.22"/>
<text text-anchor="middle" x="696" y="-119.8" font-family="Helvetica,Arial,sans-serif" font-size="14.00">git pull</text>
</g>
<!-- branches -->
<g id="node7" class="node">
<title>branches</title>
<polygon fill="#008888" fill-opacity="0.133333" stroke="transparent" points="851,-106.5 738,-106.5 738,-43.5 851,-43.5 851,-106.5"/>
<polygon fill="none" stroke="#000000" stroke-opacity="0.266667" points="738.5,-81 738.5,-106 851.5,-106 851.5,-81 738.5,-81"/>
<text text-anchor="start" x="743.5" y="-90.8" font-family="Helvetica,Arial,sans-serif" font-size="14.00"> </text>
<text text-anchor="start" x="747.5" y="-90.8" font-family="Helvetica,Arial,sans-serif" font-weight="bold" font-size="14.00">local branches</text>
<text text-anchor="start" x="842.5" y="-90.8" font-family="Helvetica,Arial,sans-serif" font-size="14.00"> </text>
<polygon fill="none" stroke="#000000" stroke-opacity="0.266667" points="738.5,-43 738.5,-81 851.5,-81 851.5,-43 738.5,-43"/>
<text text-anchor="start" x="743.5" y="-65.8" font-family="Helvetica,Arial,sans-serif" font-style="italic" font-size="14.00">To view:</text>
<text text-anchor="start" x="743.5" y="-51.8" font-family="Helvetica,Arial,sans-serif" font-size="14.00">git branch [&#45;&#45;list]</text>
</g>
<!-- HEAD&#45;&gt;branches -->
<g id="edge10" class="edge">
<title>HEAD:switch&#45;&gt;branches</title>
<path fill="none" stroke="#000000" stroke-opacity="0.533333" d="M660.19,-75C686.14,-75 714.19,-75 737.84,-75"/>
<polygon fill="none" stroke="#000000" stroke-opacity="0.533333" points="660,-75 657,-77 654,-75 657,-73 660,-75"/>
</g>
<!-- stash_push&#45;&gt;staging -->
<g id="edge3" class="edge">
<title>stash_push&#45;&gt;staging</title>
<path fill="none" stroke="#000088" stroke-width="2" stroke-dasharray="1,5" stroke-opacity="0.266667" d="M281.21,-120.51C297.59,-122.89 315.63,-125.51 331.82,-127.86"/>
</g>
<!-- stash_push&#45;&gt;stash -->
<g id="edge5" class="edge">
<title>stash_push&#45;&gt;stash</title>
<path fill="none" stroke="#000088" stroke-width="2" stroke-dasharray="1,5" stroke-opacity="0.266667" d="M228.5,-105.46C228.5,-101.19 228.5,-96.91 228.5,-92.64"/>
<polygon fill="#000088" fill-opacity="0.266667" stroke="#000088" stroke-width="2" stroke-opacity="0.266667" points="230.25,-92.62 228.5,-87.62 226.75,-92.62 230.25,-92.62"/>
</g>
</g>
</svg>
