<?xml version="1.0" encoding="UTF-8" standalone="no"?>
<!DOCTYPE svg PUBLIC "-//W3C//DTD SVG 1.1//EN"
 "http://www.w3.org/Graphics/SVG/1.1/DTD/svg11.dtd">
<!-- Generated by graphviz version 2.43.0 (0)
 -->
<!-- Title: regexp Pages: 1 -->
<svg width="818pt" height="476pt"
 viewBox="0.00 0.00 818.45 476.00" xmlns="http://www.w3.org/2000/svg" xmlns:xlink="http://www.w3.org/1999/xlink">
<g id="graph0" class="graph" transform="scale(1 1) rotate(0) translate(4 472)">
<title>regexp</title>
<polygon fill="white" stroke="transparent" points="-4,4 -4,-472 814.45,-472 814.45,4 -4,4"/>
<!-- n0 -->
<g id="node1" class="node">
<title>n0</title>
<g id="a_node1"><a xlink:href="https://godoc.org/regexp" xlink:title="Package regexp implements regular expression search.">
<ellipse fill="none" stroke="black" cx="296" cy="-450" rx="37.89" ry="18"/>
<text text-anchor="middle" x="296" y="-446.3" font-family="Helvetica,Arial,sans-serif" font-size="14.00">regexp</text>
</a>
</g>
</g>
<!-- n1 -->
<g id="node2" class="node">
<title>n1</title>
<g id="a_node2"><a xlink:href="https://godoc.org/bytes" xlink:title="Package bytes implements functions for the manipulation of byte slices.">
<ellipse fill="none" stroke="black" cx="142" cy="-306" rx="31.7" ry="18"/>
<text text-anchor="middle" x="142" y="-302.3" font-family="Helvetica,Arial,sans-serif" font-size="14.00">bytes</text>
</a>
</g>
</g>
<!-- n0&#45;&gt;n1 -->
<g id="edge1" class="edge">
<title>n0&#45;&gt;n1</title>
<path fill="none" stroke="black" d="M264.9,-439.7C241.41,-431.38 209.64,-417.19 188,-396 170.22,-378.59 157.95,-352.84 150.58,-333.52"/>
<polygon fill="black" stroke="black" points="153.86,-332.29 147.17,-324.07 147.27,-334.67 153.86,-332.29"/>
</g>
<!-- n2 -->
<g id="node3" class="node">
<title>n2</title>
<g id="a_node3"><a xlink:href="https://godoc.org/io" xlink:title="Package io provides basic interfaces to I/O primitives.">
<ellipse fill="none" stroke="black" cx="71" cy="-234" rx="27" ry="18"/>
<text text-anchor="middle" x="71" y="-230.3" font-family="Helvetica,Arial,sans-serif" font-size="14.00">io</text>
</a>
</g>
</g>
<!-- n0&#45;&gt;n2 -->
<g id="edge2" class="edge">
<title>n0&#45;&gt;n2</title>
<path fill="none" stroke="black" d="M262.61,-441.54C233.03,-433.74 189.74,-419.33 158,-396 125.12,-371.83 120.47,-359.87 101,-324 90.28,-304.26 82.42,-280 77.43,-261.8"/>
<polygon fill="black" stroke="black" points="80.82,-260.9 74.9,-252.12 74.04,-262.68 80.82,-260.9"/>
</g>
<!-- n3 -->
<g id="node4" class="node">
<title>n3</title>
<g id="a_node4"><a xlink:href="https://godoc.org/regexp/syntax" xlink:title="Package syntax parses regular expressions into parse trees and compiles parse trees into programs.">
<ellipse fill="none" stroke="black" cx="296" cy="-378" rx="65.79" ry="18"/>
<text text-anchor="middle" x="296" y="-374.3" font-family="Helvetica,Arial,sans-serif" font-size="14.00">regexp/syntax</text>
</a>
</g>
</g>
<!-- n0&#45;&gt;n3 -->
<g id="edge3" class="edge">
<title>n0&#45;&gt;n3</title>
<path fill="none" stroke="black" d="M296,-431.7C296,-423.98 296,-414.71 296,-406.11"/>
<polygon fill="black" stroke="black" points="299.5,-406.1 296,-396.1 292.5,-406.1 299.5,-406.1"/>
</g>
<!-- n4 -->
<g id="node5" class="node">
<title>n4</title>
<g id="a_node5"><a xlink:href="https://godoc.org/sort" xlink:title="Package sort provides primitives for sorting slices and user&#45;defined collections.">
<ellipse fill="none" stroke="black" cx="27" cy="-306" rx="27" ry="18"/>
<text text-anchor="middle" x="27" y="-302.3" font-family="Helvetica,Arial,sans-serif" font-size="14.00">sort</text>
</a>
</g>
</g>
<!-- n0&#45;&gt;n4 -->
<g id="edge4" class="edge">
<title>n0&#45;&gt;n4</title>
<path fill="none" stroke="black" d="M258.1,-449.93C208.94,-449.15 122.97,-440.8 68,-396 48.91,-380.44 38.3,-354.02 32.68,-334"/>
<polygon fill="black" stroke="black" points="36.05,-333.02 30.18,-324.2 29.26,-334.75 36.05,-333.02"/>
</g>
<!-- n5 -->
<g id="node6" class="node">
<title>n5</title>
<g id="a_node6"><a xlink:href="https://godoc.org/strconv" xlink:title="Package strconv implements conversions to and from string representations of basic data types.">
<ellipse fill="none" stroke="black" cx="550" cy="-306" rx="38.99" ry="18"/>
<text text-anchor="middle" x="550" y="-302.3" font-family="Helvetica,Arial,sans-serif" font-size="14.00">strconv</text>
</a>
</g>
</g>
<!-- n0&#45;&gt;n5 -->
<g id="edge5" class="edge">
<title>n0&#45;&gt;n5</title>
<path fill="none" stroke="black" d="M332.21,-444.97C371.01,-439.24 433.06,-425.89 478,-396 502.54,-379.68 522.81,-352.4 535.52,-332.34"/>
<polygon fill="black" stroke="black" points="538.58,-334.05 540.82,-323.69 532.61,-330.39 538.58,-334.05"/>
</g>
<!-- n6 -->
<g id="node7" class="node">
<title>n6</title>
<g id="a_node7"><a xlink:href="https://godoc.org/strings" xlink:title="Package strings implements simple functions to manipulate UTF&#45;8 encoded strings.">
<ellipse fill="none" stroke="black" cx="304" cy="-306" rx="36.29" ry="18"/>
<text text-anchor="middle" x="304" y="-302.3" font-family="Helvetica,Arial,sans-serif" font-size="14.00">strings</text>
</a>
</g>
</g>
<!-- n0&#45;&gt;n6 -->
<g id="edge6" class="edge">
<title>n0&#45;&gt;n6</title>
<path fill="none" stroke="black" d="M323.79,-437.48C340.79,-428.81 361.1,-415.11 371,-396 378.36,-381.79 377.97,-374.4 371,-360 363.91,-345.36 350.6,-333.53 337.69,-324.8"/>
<polygon fill="black" stroke="black" points="339.23,-321.63 328.91,-319.25 335.49,-327.55 339.23,-321.63"/>
</g>
<!-- n7 -->
<g id="node8" class="node">
<title>n7</title>
<g id="a_node8"><a xlink:href="https://godoc.org/sync" xlink:title="Package sync provides basic synchronization primitives such as mutual exclusion locks.">
<ellipse fill="none" stroke="black" cx="399" cy="-162" rx="28.7" ry="18"/>
<text text-anchor="middle" x="399" y="-158.3" font-family="Helvetica,Arial,sans-serif" font-size="14.00">sync</text>
</a>
</g>
</g>
<!-- n0&#45;&gt;n7 -->
<g id="edge7" class="edge">
<title>n0&#45;&gt;n7</title>
<path fill="none" stroke="black" d="M332.53,-444.94C376.54,-438.95 451.82,-425.13 510,-396 585.52,-358.18 614.6,-334.2 634,-252 637.68,-236.43 643.99,-228.5 634,-216 627.78,-208.23 500.82,-182.7 436.16,-170.13"/>
<polygon fill="black" stroke="black" points="436.45,-166.62 425.97,-168.15 435.12,-173.49 436.45,-166.62"/>
</g>
<!-- n8 -->
<g id="node9" class="node">
<title>n8</title>
<g id="a_node9"><a xlink:href="https://godoc.org/unicode" xlink:title="Package unicode provides data and functions to test some properties of Unicode code points.">
<ellipse fill="none" stroke="black" cx="158" cy="-234" rx="41.69" ry="18"/>
<text text-anchor="middle" x="158" y="-230.3" font-family="Helvetica,Arial,sans-serif" font-size="14.00">unicode</text>
</a>
</g>
</g>
<!-- n0&#45;&gt;n8 -->
<g id="edge8" class="edge">
<title>n0&#45;&gt;n8</title>
<path fill="none" stroke="black" d="M270.63,-436.39C254.42,-427.18 234.07,-413.3 221,-396 190.33,-355.4 202.32,-335.07 183,-288 179.35,-279.11 174.99,-269.57 170.94,-261.06"/>
<polygon fill="black" stroke="black" points="174.06,-259.47 166.56,-251.99 167.76,-262.51 174.06,-259.47"/>
</g>
<!-- n9 -->
<g id="node10" class="node">
<title>n9</title>
<g id="a_node10"><a xlink:href="https://godoc.org/unicode/utf8" xlink:title="Package utf8 implements functions and constants to support text encoded in UTF&#45;8.">
<ellipse fill="none" stroke="black" cx="550" cy="-234" rx="58.49" ry="18"/>
<text text-anchor="middle" x="550" y="-230.3" font-family="Helvetica,Arial,sans-serif" font-size="14.00">unicode/utf8</text>
</a>
</g>
</g>
<!-- n0&#45;&gt;n9 -->
<g id="edge9" class="edge">
<title>n0&#45;&gt;n9</title>
<path fill="none" stroke="black" d="M321.4,-436.43C340.28,-426.57 366.24,-411.89 387,-396 416.54,-373.39 489.92,-297.88 527.31,-258.84"/>
<polygon fill="black" stroke="black" points="529.91,-261.19 534.29,-251.54 524.85,-256.35 529.91,-261.19"/>
</g>
<!-- n1&#45;&gt;n2 -->
<g id="edge11" class="edge">
<title>n1&#45;&gt;n2</title>
<path fill="none" stroke="black" d="M126.59,-289.81C116.79,-280.14 103.93,-267.46 93.04,-256.73"/>
<polygon fill="black" stroke="black" points="95.47,-254.21 85.89,-249.68 90.55,-259.19 95.47,-254.21"/>
</g>
<!-- n1&#45;&gt;n8 -->
<g id="edge12" class="edge">
<title>n1&#45;&gt;n8</title>
<path fill="none" stroke="black" d="M145.87,-288.05C147.65,-280.26 149.81,-270.82 151.81,-262.08"/>
<polygon fill="black" stroke="black" points="155.24,-262.8 154.05,-252.28 148.41,-261.24 155.24,-262.8"/>
</g>
<!-- n1&#45;&gt;n9 -->
<g id="edge13" class="edge">
<title>n1&#45;&gt;n9</title>
<path fill="none" stroke="black" d="M172.48,-300.43C250.39,-288.73 452.77,-258.17 483,-252 487.68,-251.05 492.52,-249.98 497.36,-248.85"/>
<polygon fill="black" stroke="black" points="498.34,-252.22 507.25,-246.49 496.71,-245.41 498.34,-252.22"/>
</g>
<!-- n10 -->
<g id="node11" class="node">
<title>n10</title>
<g id="a_node11"><a xlink:href="https://godoc.org/internal/bytealg" xlink:title="internal/bytealg">
<ellipse fill="none" stroke="black" cx="403" cy="-234" rx="70.69" ry="18"/>
<text text-anchor="middle" x="403" y="-230.3" font-family="Helvetica,Arial,sans-serif" font-size="14.00">internal/bytealg</text>
</a>
</g>
</g>
<!-- n1&#45;&gt;n10 -->
<g id="edge10" class="edge">
<title>n1&#45;&gt;n10</title>
<path fill="none" stroke="black" d="M170.18,-297.44C212.12,-286.19 291.85,-264.81 346.21,-250.23"/>
<polygon fill="black" stroke="black" points="347.29,-253.56 356.05,-247.59 345.48,-246.8 347.29,-253.56"/>
</g>
<!-- n11 -->
<g id="node12" class="node">
<title>n11</title>
<g id="a_node12"><a xlink:href="https://godoc.org/errors" xlink:title="Package errors implements functions to manipulate errors.">
<ellipse fill="none" stroke="black" cx="161" cy="-162" rx="33.6" ry="18"/>
<text text-anchor="middle" x="161" y="-158.3" font-family="Helvetica,Arial,sans-serif" font-size="14.00">errors</text>
</a>
</g>
</g>
<!-- n1&#45;&gt;n11 -->
<g id="edge14" class="edge">
<title>n1&#45;&gt;n11</title>
<path fill="none" stroke="black" d="M112.1,-299.25C86.68,-292.62 51.73,-278.95 35,-252 26.56,-238.41 26.15,-229.33 35,-216 53.44,-188.24 89.57,-174.99 118.43,-168.68"/>
<polygon fill="black" stroke="black" points="119.16,-172.1 128.29,-166.72 117.8,-165.23 119.16,-172.1"/>
</g>
<!-- n2&#45;&gt;n7 -->
<g id="edge16" class="edge">
<title>n2&#45;&gt;n7</title>
<path fill="none" stroke="black" d="M91.56,-222.16C96.52,-219.87 101.87,-217.65 107,-216 195.26,-187.69 303.68,-173 360.33,-166.76"/>
<polygon fill="black" stroke="black" points="361.05,-170.2 370.62,-165.66 360.31,-163.24 361.05,-170.2"/>
</g>
<!-- n2&#45;&gt;n11 -->
<g id="edge15" class="edge">
<title>n2&#45;&gt;n11</title>
<path fill="none" stroke="black" d="M87.93,-219.83C101.08,-209.61 119.54,-195.24 134.62,-183.51"/>
<polygon fill="black" stroke="black" points="136.85,-186.21 142.6,-177.31 132.56,-180.69 136.85,-186.21"/>
</g>
<!-- n3&#45;&gt;n4 -->
<g id="edge17" class="edge">
<title>n3&#45;&gt;n4</title>
<path fill="none" stroke="black" d="M250.06,-365.05C196.66,-351.15 109.72,-328.53 61.67,-316.02"/>
<polygon fill="black" stroke="black" points="62.31,-312.57 51.75,-313.44 60.55,-319.35 62.31,-312.57"/>
</g>
<!-- n3&#45;&gt;n5 -->
<g id="edge18" class="edge">
<title>n3&#45;&gt;n5</title>
<path fill="none" stroke="black" d="M340.53,-364.73C387.59,-351.76 461.26,-331.46 507.52,-318.71"/>
<polygon fill="black" stroke="black" points="508.53,-322.06 517.24,-316.03 506.67,-315.31 508.53,-322.06"/>
</g>
<!-- n3&#45;&gt;n6 -->
<g id="edge19" class="edge">
<title>n3&#45;&gt;n6</title>
<path fill="none" stroke="black" d="M297.98,-359.7C298.86,-351.98 299.92,-342.71 300.9,-334.11"/>
<polygon fill="black" stroke="black" points="304.39,-334.44 302.05,-324.1 297.43,-333.64 304.39,-334.44"/>
</g>
<!-- n3&#45;&gt;n8 -->
<g id="edge20" class="edge">
<title>n3&#45;&gt;n8</title>
<path fill="none" stroke="black" d="M281.73,-360.15C266.08,-341.91 239.99,-312.19 216,-288 205.59,-277.5 193.6,-266.4 183.23,-257.08"/>
<polygon fill="black" stroke="black" points="185.47,-254.38 175.67,-250.34 180.81,-259.6 185.47,-254.38"/>
</g>
<!-- n3&#45;&gt;n9 -->
<g id="edge21" class="edge">
<title>n3&#45;&gt;n9</title>
<path fill="none" stroke="black" d="M322.27,-361.43C352.79,-343.42 404.75,-313.06 450,-288 470.53,-276.63 493.68,-264.33 512.52,-254.45"/>
<polygon fill="black" stroke="black" points="514.16,-257.54 521.4,-249.8 510.92,-251.34 514.16,-257.54"/>
</g>
<!-- n12 -->
<g id="node13" class="node">
<title>n12</title>
<g id="a_node13"><a xlink:href="https://godoc.org/internal/reflectlite" xlink:title="Package reflectlite implements lightweight version of reflect, not using any package except for &quot;runtime&quot; and &quot;unsafe&quot;.">
<ellipse fill="none" stroke="black" cx="161" cy="-90" rx="77.19" ry="18"/>
<text text-anchor="middle" x="161" y="-86.3" font-family="Helvetica,Arial,sans-serif" font-size="14.00">internal/reflectlite</text>
</a>
</g>
</g>
<!-- n4&#45;&gt;n12 -->
<g id="edge22" class="edge">
<title>n4&#45;&gt;n12</title>
<path fill="none" stroke="black" d="M22.53,-288.11C18.54,-269.57 14.75,-239.35 25,-216 45.12,-170.18 91.25,-133.77 124.2,-112.33"/>
<polygon fill="black" stroke="black" points="126.12,-115.25 132.69,-106.94 122.37,-109.34 126.12,-115.25"/>
</g>
<!-- n5&#45;&gt;n9 -->
<g id="edge25" class="edge">
<title>n5&#45;&gt;n9</title>
<path fill="none" stroke="black" d="M550,-287.7C550,-279.98 550,-270.71 550,-262.11"/>
<polygon fill="black" stroke="black" points="553.5,-262.1 550,-252.1 546.5,-262.1 553.5,-262.1"/>
</g>
<!-- n5&#45;&gt;n10 -->
<g id="edge23" class="edge">
<title>n5&#45;&gt;n10</title>
<path fill="none" stroke="black" d="M523.72,-292.49C501.58,-281.94 469.53,-266.68 444.02,-254.53"/>
<polygon fill="black" stroke="black" points="445.48,-251.35 434.94,-250.21 442.47,-257.67 445.48,-251.35"/>
</g>
<!-- n5&#45;&gt;n11 -->
<g id="edge26" class="edge">
<title>n5&#45;&gt;n11</title>
<path fill="none" stroke="black" d="M575.59,-292.35C590.66,-283.37 608.41,-269.76 617,-252 623.97,-237.6 627.64,-227.95 617,-216 603.34,-200.67 316.12,-175.67 204.66,-166.51"/>
<polygon fill="black" stroke="black" points="204.69,-163 194.44,-165.67 204.12,-169.98 204.69,-163"/>
</g>
<!-- n13 -->
<g id="node14" class="node">
<title>n13</title>
<g id="a_node14"><a xlink:href="https://godoc.org/math" xlink:title="Package math provides basic constants and mathematical functions.">
<ellipse fill="none" stroke="black" cx="733" cy="-234" rx="30.59" ry="18"/>
<text text-anchor="middle" x="733" y="-230.3" font-family="Helvetica,Arial,sans-serif" font-size="14.00">math</text>
</a>
</g>
</g>
<!-- n5&#45;&gt;n13 -->
<g id="edge24" class="edge">
<title>n5&#45;&gt;n13</title>
<path fill="none" stroke="black" d="M579,-293.91C611.38,-281.52 663.76,-261.48 698.29,-248.28"/>
<polygon fill="black" stroke="black" points="699.87,-251.42 707.96,-244.58 697.37,-244.88 699.87,-251.42"/>
</g>
<!-- n14 -->
<g id="node15" class="node">
<title>n14</title>
<g id="a_node15"><a xlink:href="https://godoc.org/math/bits" xlink:title="Package bits implements bit counting and manipulation functions for the predeclared unsigned integer types.">
<ellipse fill="none" stroke="black" cx="763" cy="-162" rx="47.39" ry="18"/>
<text text-anchor="middle" x="763" y="-158.3" font-family="Helvetica,Arial,sans-serif" font-size="14.00">math/bits</text>
</a>
</g>
</g>
<!-- n5&#45;&gt;n14 -->
<g id="edge27" class="edge">
<title>n5&#45;&gt;n14</title>
<path fill="none" stroke="black" d="M588.08,-301.55C645.6,-295.46 750.36,-280.65 773,-252 786.79,-234.55 782.05,-208.81 775.17,-189.49"/>
<polygon fill="black" stroke="black" points="778.38,-188.09 771.47,-180.05 771.87,-190.64 778.38,-188.09"/>
</g>
<!-- n6&#45;&gt;n2 -->
<g id="edge28" class="edge">
<title>n6&#45;&gt;n2</title>
<path fill="none" stroke="black" d="M271.03,-298.03C231.44,-289.22 163.35,-272.7 107,-252 105.15,-251.32 103.27,-250.58 101.38,-249.81"/>
<polygon fill="black" stroke="black" points="102.62,-246.53 92.05,-245.71 99.8,-252.93 102.62,-246.53"/>
</g>
<!-- n6&#45;&gt;n7 -->
<g id="edge29" class="edge">
<title>n6&#45;&gt;n7</title>
<path fill="none" stroke="black" d="M304.02,-287.84C304.81,-268.79 308.49,-237.85 323,-216 333.86,-199.64 351.64,-186.84 367.27,-177.91"/>
<polygon fill="black" stroke="black" points="369.02,-180.94 376.16,-173.11 365.7,-174.78 369.02,-180.94"/>
</g>
<!-- n6&#45;&gt;n8 -->
<g id="edge33" class="edge">
<title>n6&#45;&gt;n8</title>
<path fill="none" stroke="black" d="M278.57,-292.81C255.28,-281.64 220.56,-265 194.35,-252.43"/>
<polygon fill="black" stroke="black" points="195.65,-249.17 185.12,-248 192.62,-255.48 195.65,-249.17"/>
</g>
<!-- n6&#45;&gt;n9 -->
<g id="edge34" class="edge">
<title>n6&#45;&gt;n9</title>
<path fill="none" stroke="black" d="M334.66,-296.28C375.75,-284.58 449.24,-263.67 498.8,-249.57"/>
<polygon fill="black" stroke="black" points="500.02,-252.86 508.68,-246.76 498.1,-246.13 500.02,-252.86"/>
</g>
<!-- n6&#45;&gt;n10 -->
<g id="edge32" class="edge">
<title>n6&#45;&gt;n10</title>
<path fill="none" stroke="black" d="M324.03,-290.83C337.76,-281.13 356.25,-268.06 371.88,-257"/>
<polygon fill="black" stroke="black" points="374.08,-259.73 380.23,-251.1 370.04,-254.02 374.08,-259.73"/>
</g>
<!-- n6&#45;&gt;n11 -->
<g id="edge31" class="edge">
<title>n6&#45;&gt;n11</title>
<path fill="none" stroke="black" d="M288.42,-289.53C263.17,-264.46 213.18,-214.82 183.88,-185.72"/>
<polygon fill="black" stroke="black" points="186.12,-183.01 176.56,-178.45 181.19,-187.98 186.12,-183.01"/>
</g>
<!-- n15 -->
<g id="node16" class="node">
<title>n15</title>
<g id="a_node16"><a xlink:href="https://godoc.org/unsafe" xlink:title="Package unsafe contains operations that step around the type safety of Go programs.">
<ellipse fill="none" stroke="black" cx="420" cy="-18" rx="37.09" ry="18"/>
<text text-anchor="middle" x="420" y="-14.3" font-family="Helvetica,Arial,sans-serif" font-size="14.00">unsafe</text>
</a>
</g>
</g>
<!-- n6&#45;&gt;n15 -->
<g id="edge30" class="edge">
<title>n6&#45;&gt;n15</title>
<path fill="none" stroke="black" d="M302.21,-287.72C300.79,-269.62 299.81,-240.49 305,-216 319.45,-147.83 327.89,-129.67 367,-72 374.72,-60.61 385.11,-49.59 394.64,-40.58"/>
<polygon fill="black" stroke="black" points="397.02,-43.14 402.03,-33.81 392.29,-37.98 397.02,-43.14"/>
</g>
<!-- n7&#45;&gt;n15 -->
<g id="edge38" class="edge">
<title>n7&#45;&gt;n15</title>
<path fill="none" stroke="black" d="M397.1,-143.76C395.55,-125.7 394.31,-96.59 399,-72 400.73,-62.92 404,-53.4 407.45,-44.98"/>
<polygon fill="black" stroke="black" points="410.71,-46.26 411.5,-35.69 404.29,-43.46 410.71,-46.26"/>
</g>
<!-- n16 -->
<g id="node17" class="node">
<title>n16</title>
<g id="a_node17"><a xlink:href="https://godoc.org/internal/race" xlink:title="Package race contains helper functions for manually instrumenting code for the race detector.">
<ellipse fill="none" stroke="black" cx="467" cy="-90" rx="59.29" ry="18"/>
<text text-anchor="middle" x="467" y="-86.3" font-family="Helvetica,Arial,sans-serif" font-size="14.00">internal/race</text>
</a>
</g>
</g>
<!-- n7&#45;&gt;n16 -->
<g id="edge35" class="edge">
<title>n7&#45;&gt;n16</title>
<path fill="none" stroke="black" d="M413.42,-146.15C422.21,-137.11 433.63,-125.35 443.68,-115.01"/>
<polygon fill="black" stroke="black" points="446.23,-117.4 450.69,-107.79 441.21,-112.52 446.23,-117.4"/>
</g>
<!-- n17 -->
<g id="node18" class="node">
<title>n17</title>
<g id="a_node18"><a xlink:href="https://godoc.org/runtime" xlink:title="runtime">
<ellipse fill="none" stroke="black" cx="263" cy="-18" rx="40.09" ry="18"/>
<text text-anchor="middle" x="263" y="-14.3" font-family="Helvetica,Arial,sans-serif" font-size="14.00">runtime</text>
</a>
</g>
</g>
<!-- n7&#45;&gt;n17 -->
<g id="edge36" class="edge">
<title>n7&#45;&gt;n17</title>
<path fill="none" stroke="black" d="M384.7,-146.07C361.04,-121.36 313.55,-71.78 285.4,-42.39"/>
<polygon fill="black" stroke="black" points="287.79,-39.83 278.35,-35.02 282.74,-44.67 287.79,-39.83"/>
</g>
<!-- n18 -->
<g id="node19" class="node">
<title>n18</title>
<g id="a_node19"><a xlink:href="https://godoc.org/sync/atomic" xlink:title="Package atomic provides low&#45;level atomic memory primitives useful for implementing synchronization algorithms.">
<ellipse fill="none" stroke="black" cx="602" cy="-90" rx="57.69" ry="18"/>
<text text-anchor="middle" x="602" y="-86.3" font-family="Helvetica,Arial,sans-serif" font-size="14.00">sync/atomic</text>
</a>
</g>
</g>
<!-- n7&#45;&gt;n18 -->
<g id="edge37" class="edge">
<title>n7&#45;&gt;n18</title>
<path fill="none" stroke="black" d="M423.49,-152.56C456,-141.35 514.08,-121.32 555.15,-107.16"/>
<polygon fill="black" stroke="black" points="556.36,-110.44 564.68,-103.87 554.08,-103.82 556.36,-110.44"/>
</g>
<!-- n10&#45;&gt;n15 -->
<g id="edge40" class="edge">
<title>n10&#45;&gt;n15</title>
<path fill="none" stroke="black" d="M384.83,-216.22C375.79,-206.61 365.79,-193.75 361,-180 355.74,-164.89 357.86,-159.69 361,-144 368.39,-107.07 388.89,-68.44 403.65,-44.07"/>
<polygon fill="black" stroke="black" points="406.7,-45.81 408.99,-35.47 400.75,-42.12 406.7,-45.81"/>
</g>
<!-- n19 -->
<g id="node20" class="node">
<title>n19</title>
<g id="a_node20"><a xlink:href="https://godoc.org/internal/cpu" xlink:title="Package cpu implements processor feature detection used by the Go standard library.">
<ellipse fill="none" stroke="black" cx="553" cy="-162" rx="55.79" ry="18"/>
<text text-anchor="middle" x="553" y="-158.3" font-family="Helvetica,Arial,sans-serif" font-size="14.00">internal/cpu</text>
</a>
</g>
</g>
<!-- n10&#45;&gt;n19 -->
<g id="edge39" class="edge">
<title>n10&#45;&gt;n19</title>
<path fill="none" stroke="black" d="M435.55,-217.81C458.37,-207.16 489.01,-192.86 513.27,-181.54"/>
<polygon fill="black" stroke="black" points="514.98,-184.61 522.56,-177.21 512.02,-178.26 514.98,-184.61"/>
</g>
<!-- n11&#45;&gt;n12 -->
<g id="edge41" class="edge">
<title>n11&#45;&gt;n12</title>
<path fill="none" stroke="black" d="M161,-143.7C161,-135.98 161,-126.71 161,-118.11"/>
<polygon fill="black" stroke="black" points="164.5,-118.1 161,-108.1 157.5,-118.1 164.5,-118.1"/>
</g>
<!-- n12&#45;&gt;n15 -->
<g id="edge43" class="edge">
<title>n12&#45;&gt;n15</title>
<path fill="none" stroke="black" d="M209.41,-75.92C258.25,-62.72 332.82,-42.56 378.88,-30.11"/>
<polygon fill="black" stroke="black" points="379.79,-33.49 388.53,-27.5 377.96,-26.74 379.79,-33.49"/>
</g>
<!-- n12&#45;&gt;n17 -->
<g id="edge42" class="edge">
<title>n12&#45;&gt;n17</title>
<path fill="none" stroke="black" d="M184.66,-72.76C199.26,-62.75 218.1,-49.81 233.65,-39.14"/>
<polygon fill="black" stroke="black" points="235.63,-42.03 241.9,-33.48 231.67,-36.26 235.63,-42.03"/>
</g>
<!-- n13&#45;&gt;n14 -->
<g id="edge46" class="edge">
<title>n13&#45;&gt;n14</title>
<path fill="none" stroke="black" d="M740.11,-216.41C743.57,-208.34 747.82,-198.43 751.71,-189.35"/>
<polygon fill="black" stroke="black" points="755.01,-190.53 755.73,-179.96 748.58,-187.77 755.01,-190.53"/>
</g>
<!-- n13&#45;&gt;n15 -->
<g id="edge44" class="edge">
<title>n13&#45;&gt;n15</title>
<path fill="none" stroke="black" d="M724.29,-216.52C718.98,-206.18 712.23,-192.48 707,-180 687.32,-133.08 707.22,-105.59 669,-72 639.36,-45.95 529.93,-30.45 466.43,-23.46"/>
<polygon fill="black" stroke="black" points="466.6,-19.96 456.28,-22.38 465.85,-26.92 466.6,-19.96"/>
</g>
<!-- n13&#45;&gt;n19 -->
<g id="edge45" class="edge">
<title>n13&#45;&gt;n19</title>
<path fill="none" stroke="black" d="M707.97,-223.27C679.27,-212.11 631.71,-193.61 596.83,-180.04"/>
<polygon fill="black" stroke="black" points="597.94,-176.72 587.35,-176.36 595.4,-183.25 597.94,-176.72"/>
</g>
<!-- n14&#45;&gt;n15 -->
<g id="edge47" class="edge">
<title>n14&#45;&gt;n15</title>
<path fill="none" stroke="black" d="M756.17,-143.87C747.03,-123.33 728.83,-89.5 702,-72 663.8,-47.09 535.98,-30.7 466.29,-23.39"/>
<polygon fill="black" stroke="black" points="466.34,-19.87 456.03,-22.33 465.62,-26.84 466.34,-19.87"/>
</g>
<!-- n16&#45;&gt;n15 -->
<g id="edge48" class="edge">
<title>n16&#45;&gt;n15</title>
<path fill="none" stroke="black" d="M455.62,-72.05C449.94,-63.59 442.96,-53.19 436.68,-43.84"/>
<polygon fill="black" stroke="black" points="439.43,-41.66 430.95,-35.31 433.62,-45.56 439.43,-41.66"/>
</g>
<!-- n18&#45;&gt;n15 -->
<g id="edge49" class="edge">
<title>n18&#45;&gt;n15</title>
<path fill="none" stroke="black" d="M566.91,-75.5C535.55,-63.44 489.73,-45.82 457.62,-33.47"/>
<polygon fill="black" stroke="black" points="458.72,-30.14 448.13,-29.82 456.2,-36.67 458.72,-30.14"/>
</g>
</g>
</svg>
