<?xml version="1.0" encoding="UTF-8" standalone="no"?>
<!DOCTYPE svg PUBLIC "-//W3C//DTD SVG 1.1//EN"
 "http://www.w3.org/Graphics/SVG/1.1/DTD/svg11.dtd">
<!-- Generated by graphviz version 2.44.1 (20200629.0846)
 -->
<!-- Title: regexp Pages: 1 -->
<svg width="788pt" height="476pt"
 viewBox="0.00 0.00 788.20 476.00" xmlns="http://www.w3.org/2000/svg" xmlns:xlink="http://www.w3.org/1999/xlink">
<g id="graph0" class="graph" transform="scale(1 1) rotate(0) translate(4 472)">
<title>regexp</title>
<polygon fill="white" stroke="transparent" points="-4,4 -4,-472 784.2,-472 784.2,4 -4,4"/>
<!-- n0 -->
<g id="node1" class="node">
<title>n0</title>
<g id="a_node1"><a xlink:href="https://godoc.org/regexp" xlink:title="Package regexp implements regular expression search.">
<ellipse fill="none" stroke="black" cx="284" cy="-450" rx="34.39" ry="18"/>
<text text-anchor="middle" x="284" y="-446.3" font-family="Times,serif" font-size="14.00">regexp</text>
</a>
</g>
</g>
<!-- n1 -->
<g id="node2" class="node">
<title>n1</title>
<g id="a_node2"><a xlink:href="https://godoc.org/bytes" xlink:title="Package bytes implements functions for the manipulation of byte slices.">
<ellipse fill="none" stroke="black" cx="139" cy="-306" rx="29.5" ry="18"/>
<text text-anchor="middle" x="139" y="-302.3" font-family="Times,serif" font-size="14.00">bytes</text>
</a>
</g>
</g>
<!-- n0&#45;&gt;n1 -->
<g id="edge1" class="edge">
<title>n0&#45;&gt;n1</title>
<path fill="none" stroke="black" d="M255.39,-439.8C233.04,-431.4 202.44,-417.04 182,-396 164.97,-378.47 153.58,-352.9 146.83,-333.66"/>
<polygon fill="black" stroke="black" points="150.09,-332.38 143.63,-323.99 143.45,-334.58 150.09,-332.38"/>
</g>
<!-- n2 -->
<g id="node3" class="node">
<title>n2</title>
<g id="a_node3"><a xlink:href="https://godoc.org/io" xlink:title="Package io provides basic interfaces to I/O primitives.">
<ellipse fill="none" stroke="black" cx="71" cy="-234" rx="27" ry="18"/>
<text text-anchor="middle" x="71" y="-230.3" font-family="Times,serif" font-size="14.00">io</text>
</a>
</g>
</g>
<!-- n0&#45;&gt;n2 -->
<g id="edge2" class="edge">
<title>n0&#45;&gt;n2</title>
<path fill="none" stroke="black" d="M253.45,-441.68C225.44,-433.84 183.9,-419.29 154,-396 110.08,-361.79 87.21,-297.91 77.28,-261.75"/>
<polygon fill="black" stroke="black" points="80.63,-260.7 74.71,-251.9 73.85,-262.46 80.63,-260.7"/>
</g>
<!-- n3 -->
<g id="node4" class="node">
<title>n3</title>
<g id="a_node4"><a xlink:href="https://godoc.org/regexp/syntax" xlink:title="Package syntax parses regular expressions into parse trees and compiles parse trees into programs.">
<ellipse fill="none" stroke="black" cx="284" cy="-378" rx="59.59" ry="18"/>
<text text-anchor="middle" x="284" y="-374.3" font-family="Times,serif" font-size="14.00">regexp/syntax</text>
</a>
</g>
</g>
<!-- n0&#45;&gt;n3 -->
<g id="edge3" class="edge">
<title>n0&#45;&gt;n3</title>
<path fill="none" stroke="black" d="M284,-431.7C284,-423.98 284,-414.71 284,-406.11"/>
<polygon fill="black" stroke="black" points="287.5,-406.1 284,-396.1 280.5,-406.1 287.5,-406.1"/>
</g>
<!-- n4 -->
<g id="node5" class="node">
<title>n4</title>
<g id="a_node5"><a xlink:href="https://godoc.org/sort" xlink:title="Package sort provides primitives for sorting slices and user&#45;defined collections.">
<ellipse fill="none" stroke="black" cx="27" cy="-306" rx="27" ry="18"/>
<text text-anchor="middle" x="27" y="-302.3" font-family="Times,serif" font-size="14.00">sort</text>
</a>
</g>
</g>
<!-- n0&#45;&gt;n4 -->
<g id="edge4" class="edge">
<title>n0&#45;&gt;n4</title>
<path fill="none" stroke="black" d="M249.26,-449.38C202.86,-448.08 120.42,-439.25 68,-396 49,-380.33 38.38,-353.92 32.74,-333.93"/>
<polygon fill="black" stroke="black" points="36.1,-332.96 30.22,-324.15 29.32,-334.71 36.1,-332.96"/>
</g>
<!-- n5 -->
<g id="node6" class="node">
<title>n5</title>
<g id="a_node6"><a xlink:href="https://godoc.org/strconv" xlink:title="Package strconv implements conversions to and from string representations of basic data types.">
<ellipse fill="none" stroke="black" cx="529" cy="-306" rx="36.29" ry="18"/>
<text text-anchor="middle" x="529" y="-302.3" font-family="Times,serif" font-size="14.00">strconv</text>
</a>
</g>
</g>
<!-- n0&#45;&gt;n5 -->
<g id="edge5" class="edge">
<title>n0&#45;&gt;n5</title>
<path fill="none" stroke="black" d="M317.55,-445.38C355.51,-439.92 417.79,-426.73 462,-396 485.44,-379.7 504.13,-352.61 515.75,-332.59"/>
<polygon fill="black" stroke="black" points="518.9,-334.11 520.73,-323.68 512.79,-330.7 518.9,-334.11"/>
</g>
<!-- n6 -->
<g id="node7" class="node">
<title>n6</title>
<g id="a_node7"><a xlink:href="https://godoc.org/strings" xlink:title="Package strings implements simple functions to manipulate UTF&#45;8 encoded strings.">
<ellipse fill="none" stroke="black" cx="296" cy="-306" rx="34.39" ry="18"/>
<text text-anchor="middle" x="296" y="-302.3" font-family="Times,serif" font-size="14.00">strings</text>
</a>
</g>
</g>
<!-- n0&#45;&gt;n6 -->
<g id="edge6" class="edge">
<title>n0&#45;&gt;n6</title>
<path fill="none" stroke="black" d="M308.94,-437.32C324.73,-428.44 343.85,-414.56 353,-396 360.07,-381.65 359.39,-374.67 353,-360 347.24,-346.77 336.36,-335.36 325.65,-326.55"/>
<polygon fill="black" stroke="black" points="327.63,-323.65 317.57,-320.33 323.36,-329.2 327.63,-323.65"/>
</g>
<!-- n7 -->
<g id="node8" class="node">
<title>n7</title>
<g id="a_node8"><a xlink:href="https://godoc.org/sync" xlink:title="Package sync provides basic synchronization primitives such as mutual exclusion locks.">
<ellipse fill="none" stroke="black" cx="389" cy="-162" rx="27" ry="18"/>
<text text-anchor="middle" x="389" y="-158.3" font-family="Times,serif" font-size="14.00">sync</text>
</a>
</g>
</g>
<!-- n0&#45;&gt;n7 -->
<g id="edge7" class="edge">
<title>n0&#45;&gt;n7</title>
<path fill="none" stroke="black" d="M317.62,-445.46C360.45,-439.87 435.78,-426.33 493,-396 565.86,-357.37 591.05,-332.26 610,-252 613.68,-236.43 619.91,-228.56 610,-216 604.2,-208.64 485.26,-183.01 424.33,-170.28"/>
<polygon fill="black" stroke="black" points="424.87,-166.82 414.37,-168.21 423.45,-173.67 424.87,-166.82"/>
</g>
<!-- n8 -->
<g id="node9" class="node">
<title>n8</title>
<g id="a_node9"><a xlink:href="https://godoc.org/unicode" xlink:title="Package unicode provides data and functions to test some properties of Unicode code points.">
<ellipse fill="none" stroke="black" cx="154" cy="-234" rx="38.19" ry="18"/>
<text text-anchor="middle" x="154" y="-230.3" font-family="Times,serif" font-size="14.00">unicode</text>
</a>
</g>
</g>
<!-- n0&#45;&gt;n8 -->
<g id="edge8" class="edge">
<title>n0&#45;&gt;n8</title>
<path fill="none" stroke="black" d="M261.33,-436.36C246.33,-426.96 227.23,-412.88 215,-396 185.14,-354.8 195.58,-335.37 177,-288 173.58,-279.28 169.59,-269.86 165.9,-261.42"/>
<polygon fill="black" stroke="black" points="169.01,-259.79 161.77,-252.06 162.61,-262.62 169.01,-259.79"/>
</g>
<!-- n9 -->
<g id="node10" class="node">
<title>n9</title>
<g id="a_node10"><a xlink:href="https://godoc.org/unicode/utf8" xlink:title="Package utf8 implements functions and constants to support text encoded in UTF&#45;8.">
<ellipse fill="none" stroke="black" cx="529" cy="-234" rx="55.49" ry="18"/>
<text text-anchor="middle" x="529" y="-230.3" font-family="Times,serif" font-size="14.00">unicode/utf8</text>
</a>
</g>
</g>
<!-- n0&#45;&gt;n9 -->
<g id="edge9" class="edge">
<title>n0&#45;&gt;n9</title>
<path fill="none" stroke="black" d="M307.33,-436.41C324.97,-426.43 349.42,-411.61 369,-396 423.26,-352.75 478.57,-292.83 507.82,-259.63"/>
<polygon fill="black" stroke="black" points="510.72,-261.62 514.68,-251.79 505.46,-257.01 510.72,-261.62"/>
</g>
<!-- n1&#45;&gt;n2 -->
<g id="edge11" class="edge">
<title>n1&#45;&gt;n2</title>
<path fill="none" stroke="black" d="M124.58,-290.15C115.29,-280.6 103.05,-267.99 92.61,-257.25"/>
<polygon fill="black" stroke="black" points="94.88,-254.56 85.4,-249.82 89.86,-259.44 94.88,-254.56"/>
</g>
<!-- n1&#45;&gt;n8 -->
<g id="edge12" class="edge">
<title>n1&#45;&gt;n8</title>
<path fill="none" stroke="black" d="M142.63,-288.05C144.3,-280.26 146.32,-270.82 148.2,-262.08"/>
<polygon fill="black" stroke="black" points="151.63,-262.79 150.3,-252.28 144.78,-261.32 151.63,-262.79"/>
</g>
<!-- n1&#45;&gt;n9 -->
<g id="edge13" class="edge">
<title>n1&#45;&gt;n9</title>
<path fill="none" stroke="black" d="M167.06,-300.8C235.17,-290.55 407.87,-264.2 465,-252 469.42,-251.06 473.99,-250 478.56,-248.89"/>
<polygon fill="black" stroke="black" points="479.67,-252.22 488.52,-246.4 477.97,-245.43 479.67,-252.22"/>
</g>
<!-- n10 -->
<g id="node11" class="node">
<title>n10</title>
<g id="a_node11"><a xlink:href="https://godoc.org/internal/bytealg" xlink:title="internal/bytealg">
<ellipse fill="none" stroke="black" cx="390" cy="-234" rx="65.79" ry="18"/>
<text text-anchor="middle" x="390" y="-230.3" font-family="Times,serif" font-size="14.00">internal/bytealg</text>
</a>
</g>
</g>
<!-- n1&#45;&gt;n10 -->
<g id="edge10" class="edge">
<title>n1&#45;&gt;n10</title>
<path fill="none" stroke="black" d="M165.39,-297.64C205.59,-286.43 283.05,-264.83 335.63,-250.16"/>
<polygon fill="black" stroke="black" points="336.78,-253.48 345.47,-247.42 334.9,-246.73 336.78,-253.48"/>
</g>
<!-- n11 -->
<g id="node12" class="node">
<title>n11</title>
<g id="a_node12"><a xlink:href="https://godoc.org/errors" xlink:title="Package errors implements functions to manipulate errors.">
<ellipse fill="none" stroke="black" cx="157" cy="-162" rx="31.4" ry="18"/>
<text text-anchor="middle" x="157" y="-158.3" font-family="Times,serif" font-size="14.00">errors</text>
</a>
</g>
</g>
<!-- n1&#45;&gt;n11 -->
<g id="edge14" class="edge">
<title>n1&#45;&gt;n11</title>
<path fill="none" stroke="black" d="M111.35,-299.4C86.52,-292.74 51.52,-278.96 35,-252 26.64,-238.36 26.23,-229.38 35,-216 52.99,-188.57 88.58,-175.26 116.7,-168.85"/>
<polygon fill="black" stroke="black" points="117.59,-172.24 126.67,-166.79 116.17,-165.38 117.59,-172.24"/>
</g>
<!-- n2&#45;&gt;n7 -->
<g id="edge16" class="edge">
<title>n2&#45;&gt;n7</title>
<path fill="none" stroke="black" d="M91.57,-222.18C96.53,-219.89 101.87,-217.66 107,-216 192.52,-188.28 297.61,-173.3 352.17,-166.88"/>
<polygon fill="black" stroke="black" points="352.86,-170.32 362.39,-165.71 352.06,-163.37 352.86,-170.32"/>
</g>
<!-- n2&#45;&gt;n11 -->
<g id="edge15" class="edge">
<title>n2&#45;&gt;n11</title>
<path fill="none" stroke="black" d="M87.58,-219.5C100.07,-209.34 117.4,-195.23 131.63,-183.65"/>
<polygon fill="black" stroke="black" points="134.04,-186.2 139.58,-177.18 129.62,-180.77 134.04,-186.2"/>
</g>
<!-- n3&#45;&gt;n4 -->
<g id="edge17" class="edge">
<title>n3&#45;&gt;n4</title>
<path fill="none" stroke="black" d="M241.27,-365.36C190.85,-351.63 107.99,-329.06 61.47,-316.39"/>
<polygon fill="black" stroke="black" points="62.14,-312.94 51.57,-313.69 60.3,-319.7 62.14,-312.94"/>
</g>
<!-- n3&#45;&gt;n5 -->
<g id="edge18" class="edge">
<title>n3&#45;&gt;n5</title>
<path fill="none" stroke="black" d="M325.84,-365.05C371.33,-352.05 443.53,-331.42 488.49,-318.58"/>
<polygon fill="black" stroke="black" points="489.54,-321.91 498.2,-315.8 487.62,-315.18 489.54,-321.91"/>
</g>
<!-- n3&#45;&gt;n6 -->
<g id="edge19" class="edge">
<title>n3&#45;&gt;n6</title>
<path fill="none" stroke="black" d="M286.97,-359.7C288.29,-351.98 289.88,-342.71 291.35,-334.11"/>
<polygon fill="black" stroke="black" points="294.83,-334.55 293.07,-324.1 287.93,-333.37 294.83,-334.55"/>
</g>
<!-- n3&#45;&gt;n8 -->
<g id="edge20" class="edge">
<title>n3&#45;&gt;n8</title>
<path fill="none" stroke="black" d="M270.93,-360.09C256.57,-341.8 232.54,-312.04 210,-288 200.17,-277.52 188.75,-266.51 178.78,-257.26"/>
<polygon fill="black" stroke="black" points="180.9,-254.46 171.17,-250.27 176.16,-259.61 180.9,-254.46"/>
</g>
<!-- n3&#45;&gt;n9 -->
<g id="edge21" class="edge">
<title>n3&#45;&gt;n9</title>
<path fill="none" stroke="black" d="M309.36,-361.68C339.09,-343.77 389.91,-313.37 434,-288 453.38,-276.85 475.14,-264.68 492.95,-254.82"/>
<polygon fill="black" stroke="black" points="494.81,-257.79 501.87,-249.89 491.42,-251.66 494.81,-257.79"/>
</g>
<!-- n12 -->
<g id="node13" class="node">
<title>n12</title>
<g id="a_node13"><a xlink:href="https://godoc.org/internal/reflectlite" xlink:title="Package reflectlite implements lightweight version of reflect, not using any package except for &quot;runtime&quot; and &quot;unsafe&quot;.">
<ellipse fill="none" stroke="black" cx="157" cy="-90" rx="73.39" ry="18"/>
<text text-anchor="middle" x="157" y="-86.3" font-family="Times,serif" font-size="14.00">internal/reflectlite</text>
</a>
</g>
</g>
<!-- n4&#45;&gt;n12 -->
<g id="edge22" class="edge">
<title>n4&#45;&gt;n12</title>
<path fill="none" stroke="black" d="M22.6,-288.14C18.67,-269.63 14.92,-239.43 25,-216 44.5,-170.68 89.39,-134.11 121.41,-112.49"/>
<polygon fill="black" stroke="black" points="123.63,-115.21 130.06,-106.79 119.78,-109.37 123.63,-115.21"/>
</g>
<!-- n5&#45;&gt;n9 -->
<g id="edge25" class="edge">
<title>n5&#45;&gt;n9</title>
<path fill="none" stroke="black" d="M529,-287.7C529,-279.98 529,-270.71 529,-262.11"/>
<polygon fill="black" stroke="black" points="532.5,-262.1 529,-252.1 525.5,-262.1 532.5,-262.1"/>
</g>
<!-- n5&#45;&gt;n10 -->
<g id="edge23" class="edge">
<title>n5&#45;&gt;n10</title>
<path fill="none" stroke="black" d="M504.47,-292.65C483.6,-282.14 453.25,-266.85 429.04,-254.66"/>
<polygon fill="black" stroke="black" points="430.6,-251.53 420.1,-250.16 427.45,-257.78 430.6,-251.53"/>
</g>
<!-- n5&#45;&gt;n11 -->
<g id="edge26" class="edge">
<title>n5&#45;&gt;n11</title>
<path fill="none" stroke="black" d="M550.8,-291.4C577.07,-273.37 615.08,-240.93 593,-216 579.93,-201.24 303.3,-175.73 197.58,-166.48"/>
<polygon fill="black" stroke="black" points="197.87,-162.99 187.6,-165.61 197.26,-169.96 197.87,-162.99"/>
</g>
<!-- n13 -->
<g id="node14" class="node">
<title>n13</title>
<g id="a_node14"><a xlink:href="https://godoc.org/math" xlink:title="Package math provides basic constants and mathematical functions.">
<ellipse fill="none" stroke="black" cx="707" cy="-234" rx="28.7" ry="18"/>
<text text-anchor="middle" x="707" y="-230.3" font-family="Times,serif" font-size="14.00">math</text>
</a>
</g>
</g>
<!-- n5&#45;&gt;n13 -->
<g id="edge24" class="edge">
<title>n5&#45;&gt;n13</title>
<path fill="none" stroke="black" d="M556.81,-294.06C588.49,-281.6 640.23,-261.26 673.94,-248"/>
<polygon fill="black" stroke="black" points="675.34,-251.21 683.36,-244.3 672.78,-244.7 675.34,-251.21"/>
</g>
<!-- n14 -->
<g id="node15" class="node">
<title>n14</title>
<g id="a_node15"><a xlink:href="https://godoc.org/math/bits" xlink:title="Package bits implements bit counting and manipulation functions for the predeclared unsigned integer types.">
<ellipse fill="none" stroke="black" cx="736" cy="-162" rx="44.39" ry="18"/>
<text text-anchor="middle" x="736" y="-158.3" font-family="Times,serif" font-size="14.00">math/bits</text>
</a>
</g>
</g>
<!-- n5&#45;&gt;n14 -->
<g id="edge27" class="edge">
<title>n5&#45;&gt;n14</title>
<path fill="none" stroke="black" d="M564.54,-301.52C619.97,-295.27 722.96,-280.1 745,-252 758.71,-234.52 754.29,-208.78 747.72,-189.47"/>
<polygon fill="black" stroke="black" points="750.96,-188.17 744.17,-180.04 744.41,-190.63 750.96,-188.17"/>
</g>
<!-- n6&#45;&gt;n2 -->
<g id="edge28" class="edge">
<title>n6&#45;&gt;n2</title>
<path fill="none" stroke="black" d="M265.05,-298.01C227.2,-289.08 161.43,-272.32 107,-252 105.15,-251.31 103.27,-250.56 101.39,-249.78"/>
<polygon fill="black" stroke="black" points="102.63,-246.5 92.07,-245.67 99.8,-252.91 102.63,-246.5"/>
</g>
<!-- n6&#45;&gt;n7 -->
<g id="edge29" class="edge">
<title>n6&#45;&gt;n7</title>
<path fill="none" stroke="black" d="M296.07,-287.87C296.91,-268.85 300.63,-237.94 315,-216 325.61,-199.8 343.02,-186.96 358.29,-177.98"/>
<polygon fill="black" stroke="black" points="360.4,-180.81 367.44,-172.89 357,-174.69 360.4,-180.81"/>
</g>
<!-- n6&#45;&gt;n8 -->
<g id="edge33" class="edge">
<title>n6&#45;&gt;n8</title>
<path fill="none" stroke="black" d="M271.91,-293.13C249.08,-281.87 214.53,-264.84 188.72,-252.12"/>
<polygon fill="black" stroke="black" points="190.17,-248.93 179.65,-247.64 187.07,-255.2 190.17,-248.93"/>
</g>
<!-- n6&#45;&gt;n9 -->
<g id="edge34" class="edge">
<title>n6&#45;&gt;n9</title>
<path fill="none" stroke="black" d="M325.04,-296.28C363.88,-284.61 433.27,-263.76 480.21,-249.66"/>
<polygon fill="black" stroke="black" points="481.29,-252.99 489.86,-246.76 479.28,-246.28 481.29,-252.99"/>
</g>
<!-- n6&#45;&gt;n10 -->
<g id="edge32" class="edge">
<title>n6&#45;&gt;n10</title>
<path fill="none" stroke="black" d="M315.02,-290.83C327.94,-281.22 345.28,-268.3 360.04,-257.31"/>
<polygon fill="black" stroke="black" points="362.45,-259.88 368.38,-251.1 358.26,-254.27 362.45,-259.88"/>
</g>
<!-- n6&#45;&gt;n11 -->
<g id="edge31" class="edge">
<title>n6&#45;&gt;n11</title>
<path fill="none" stroke="black" d="M280.97,-289.7C270.58,-279.12 256.45,-264.71 244,-252 221.78,-229.31 196.39,-203.33 178.8,-185.32"/>
<polygon fill="black" stroke="black" points="181.26,-182.83 171.77,-178.13 176.25,-187.73 181.26,-182.83"/>
</g>
<!-- n15 -->
<g id="node16" class="node">
<title>n15</title>
<g id="a_node16"><a xlink:href="https://godoc.org/unsafe" xlink:title="Package unsafe contains operations that step around the type safety of Go programs.">
<ellipse fill="none" stroke="black" cx="410" cy="-18" rx="33.6" ry="18"/>
<text text-anchor="middle" x="410" y="-14.3" font-family="Times,serif" font-size="14.00">unsafe</text>
</a>
</g>
</g>
<!-- n6&#45;&gt;n15 -->
<g id="edge30" class="edge">
<title>n6&#45;&gt;n15</title>
<path fill="none" stroke="black" d="M294.18,-287.71C292.73,-269.61 291.74,-240.47 297,-216 311.69,-147.7 321.46,-130.27 360,-72 367.31,-60.95 377,-50.08 385.9,-41.08"/>
<polygon fill="black" stroke="black" points="388.43,-43.5 393.13,-34.01 383.53,-38.5 388.43,-43.5"/>
</g>
<!-- n7&#45;&gt;n15 -->
<g id="edge38" class="edge">
<title>n7&#45;&gt;n15</title>
<path fill="none" stroke="black" d="M387.76,-143.77C386.85,-125.72 386.44,-96.62 391,-72 392.65,-63.12 395.58,-53.74 398.66,-45.38"/>
<polygon fill="black" stroke="black" points="402.02,-46.39 402.41,-35.8 395.51,-43.84 402.02,-46.39"/>
</g>
<!-- n16 -->
<g id="node17" class="node">
<title>n16</title>
<g id="a_node17"><a xlink:href="https://godoc.org/internal/race" xlink:title="Package race contains helper functions for manually instrumenting code for the race detector.">
<ellipse fill="none" stroke="black" cx="455" cy="-90" rx="54.69" ry="18"/>
<text text-anchor="middle" x="455" y="-86.3" font-family="Times,serif" font-size="14.00">internal/race</text>
</a>
</g>
</g>
<!-- n7&#45;&gt;n16 -->
<g id="edge35" class="edge">
<title>n7&#45;&gt;n16</title>
<path fill="none" stroke="black" d="M403,-146.15C411.56,-137.07 422.71,-125.24 432.49,-114.87"/>
<polygon fill="black" stroke="black" points="435.33,-116.97 439.64,-107.29 430.23,-112.17 435.33,-116.97"/>
</g>
<!-- n17 -->
<g id="node18" class="node">
<title>n17</title>
<g id="a_node18"><a xlink:href="https://godoc.org/runtime" xlink:title="runtime">
<ellipse fill="none" stroke="black" cx="258" cy="-18" rx="38.19" ry="18"/>
<text text-anchor="middle" x="258" y="-14.3" font-family="Times,serif" font-size="14.00">runtime</text>
</a>
</g>
</g>
<!-- n7&#45;&gt;n17 -->
<g id="edge36" class="edge">
<title>n7&#45;&gt;n17</title>
<path fill="none" stroke="black" d="M375.47,-146.34C352.79,-121.75 306.9,-72 279.67,-42.49"/>
<polygon fill="black" stroke="black" points="282.2,-40.07 272.85,-35.1 277.06,-44.82 282.2,-40.07"/>
</g>
<!-- n18 -->
<g id="node19" class="node">
<title>n18</title>
<g id="a_node19"><a xlink:href="https://godoc.org/sync/atomic" xlink:title="Package atomic provides low&#45;level atomic memory primitives useful for implementing synchronization algorithms.">
<ellipse fill="none" stroke="black" cx="582" cy="-90" rx="53.89" ry="18"/>
<text text-anchor="middle" x="582" y="-86.3" font-family="Times,serif" font-size="14.00">sync/atomic</text>
</a>
</g>
</g>
<!-- n7&#45;&gt;n18 -->
<g id="edge37" class="edge">
<title>n7&#45;&gt;n18</title>
<path fill="none" stroke="black" d="M412.28,-152.56C443.15,-141.36 498.27,-121.37 537.31,-107.21"/>
<polygon fill="black" stroke="black" points="538.66,-110.44 546.87,-103.74 536.27,-103.86 538.66,-110.44"/>
</g>
<!-- n10&#45;&gt;n15 -->
<g id="edge40" class="edge">
<title>n10&#45;&gt;n15</title>
<path fill="none" stroke="black" d="M374.35,-216.31C366.27,-206.54 357.24,-193.49 353,-180 348.2,-164.74 349.86,-159.69 353,-144 360.38,-107.09 380.33,-68.17 394.54,-43.76"/>
<polygon fill="black" stroke="black" points="397.56,-45.53 399.67,-35.15 391.55,-41.95 397.56,-45.53"/>
</g>
<!-- n19 -->
<g id="node20" class="node">
<title>n19</title>
<g id="a_node20"><a xlink:href="https://godoc.org/internal/cpu" xlink:title="Package cpu implements processor feature detection used by the Go standard library.">
<ellipse fill="none" stroke="black" cx="535" cy="-162" rx="52.79" ry="18"/>
<text text-anchor="middle" x="535" y="-158.3" font-family="Times,serif" font-size="14.00">internal/cpu</text>
</a>
</g>
</g>
<!-- n10&#45;&gt;n19 -->
<g id="edge39" class="edge">
<title>n10&#45;&gt;n19</title>
<path fill="none" stroke="black" d="M421.11,-217.98C443.29,-207.27 473.25,-192.81 496.88,-181.4"/>
<polygon fill="black" stroke="black" points="498.44,-184.54 505.92,-177.04 495.39,-178.23 498.44,-184.54"/>
</g>
<!-- n11&#45;&gt;n12 -->
<g id="edge41" class="edge">
<title>n11&#45;&gt;n12</title>
<path fill="none" stroke="black" d="M157,-143.7C157,-135.98 157,-126.71 157,-118.11"/>
<polygon fill="black" stroke="black" points="160.5,-118.1 157,-108.1 153.5,-118.1 160.5,-118.1"/>
</g>
<!-- n12&#45;&gt;n15 -->
<g id="edge43" class="edge">
<title>n12&#45;&gt;n15</title>
<path fill="none" stroke="black" d="M203.7,-76.08C251.75,-62.78 325.77,-42.31 370.85,-29.83"/>
<polygon fill="black" stroke="black" points="371.86,-33.18 380.56,-27.14 369.99,-26.44 371.86,-33.18"/>
</g>
<!-- n12&#45;&gt;n17 -->
<g id="edge42" class="edge">
<title>n12&#45;&gt;n17</title>
<path fill="none" stroke="black" d="M180.43,-72.76C194.84,-62.77 213.44,-49.88 228.82,-39.23"/>
<polygon fill="black" stroke="black" points="231.21,-41.82 237.44,-33.25 227.23,-36.07 231.21,-41.82"/>
</g>
<!-- n13&#45;&gt;n14 -->
<g id="edge46" class="edge">
<title>n13&#45;&gt;n14</title>
<path fill="none" stroke="black" d="M713.87,-216.41C717.22,-208.34 721.32,-198.43 725.08,-189.35"/>
<polygon fill="black" stroke="black" points="728.38,-190.53 728.98,-179.96 721.91,-187.86 728.38,-190.53"/>
</g>
<!-- n13&#45;&gt;n15 -->
<g id="edge44" class="edge">
<title>n13&#45;&gt;n15</title>
<path fill="none" stroke="black" d="M699.06,-216.45C694.19,-206.08 687.97,-192.37 683,-180 664.04,-132.78 683.01,-105.83 645,-72 617,-47.08 513.01,-31.08 453.16,-23.72"/>
<polygon fill="black" stroke="black" points="453.23,-20.2 442.89,-22.49 452.4,-27.15 453.23,-20.2"/>
</g>
<!-- n13&#45;&gt;n19 -->
<g id="edge45" class="edge">
<title>n13&#45;&gt;n19</title>
<path fill="none" stroke="black" d="M683.44,-223.41C656.15,-212.3 610.63,-193.78 577.19,-180.17"/>
<polygon fill="black" stroke="black" points="578.24,-176.82 567.66,-176.29 575.61,-183.3 578.24,-176.82"/>
</g>
<!-- n14&#45;&gt;n15 -->
<g id="edge47" class="edge">
<title>n14&#45;&gt;n15</title>
<path fill="none" stroke="black" d="M729.71,-143.92C721.23,-123.44 704.13,-89.66 678,-72 641.82,-47.55 519.02,-30.85 452.93,-23.4"/>
<polygon fill="black" stroke="black" points="453.16,-19.91 442.84,-22.29 452.39,-26.87 453.16,-19.91"/>
</g>
<!-- n16&#45;&gt;n15 -->
<g id="edge48" class="edge">
<title>n16&#45;&gt;n15</title>
<path fill="none" stroke="black" d="M444.11,-72.05C438.67,-63.59 431.98,-53.19 425.97,-43.84"/>
<polygon fill="black" stroke="black" points="428.83,-41.83 420.48,-35.31 422.95,-45.61 428.83,-41.83"/>
</g>
<!-- n18&#45;&gt;n15 -->
<g id="edge49" class="edge">
<title>n18&#45;&gt;n15</title>
<path fill="none" stroke="black" d="M549.24,-75.67C519.6,-63.61 476.05,-45.88 445.57,-33.48"/>
<polygon fill="black" stroke="black" points="446.75,-30.18 436.17,-29.65 444.11,-36.66 446.75,-30.18"/>
</g>
</g>
</svg>
