<?xml version="1.0" encoding="UTF-8" standalone="no"?>
<!DOCTYPE svg PUBLIC "-//W3C//DTD SVG 1.1//EN"
 "http://www.w3.org/Graphics/SVG/1.1/DTD/svg11.dtd">
<!-- Generated by graphviz version 2.43.0 (0)
 -->
<!-- Title: G Pages: 1 -->
<svg width="1250pt" height="1135pt"
 viewBox="0.00 0.00 1250.37 1134.57" xmlns="http://www.w3.org/2000/svg" xmlns:xlink="http://www.w3.org/1999/xlink">
<g id="graph0" class="graph" transform="scale(1 1) rotate(0) translate(4 1130.57)">
<title>G</title>
<polygon fill="white" stroke="transparent" points="-4,4 -4,-1130.57 1246.37,-1130.57 1246.37,4 -4,4"/>
<!-- I5 -->
<g id="node1" class="node">
<title>I5</title>
<ellipse fill="none" stroke="red" stroke-width="2" cx="265.5" cy="-105.36" rx="122.16" ry="105.22"/>
<image xlink:href="images/165px-Caroline_Kennedy.jpg" width="100px" height="197px" preserveAspectRatio="xMinYMin meet" x="215.5" y="-203.859"/>
<text text-anchor="middle" x="265.5" y="-49.66" font-family="Helvetica,Arial,sans-serif" font-size="14.00">Caroline Bouvier Kennedy</text>
<text text-anchor="middle" x="265.5" y="-34.66" font-family="Helvetica,Arial,sans-serif" font-size="14.00">b. 27.11.1957 New York</text>
</g>
<!-- I1 -->
<g id="node2" class="node">
<title>I1</title>
<polygon fill="none" stroke="blue" stroke-width="2" points="835.5,-684.27 669.5,-684.27 669.5,-547.27 835.5,-547.27 835.5,-684.27"/>
<image xlink:href="images/kennedyface.jpg" width="100px" height="137px" preserveAspectRatio="xMinYMin meet" x="702.5" y="-684.265"/>
<text text-anchor="middle" x="752.5" y="-581.07" font-family="Helvetica,Arial,sans-serif" font-size="14.00">John Fitzgerald Kennedy</text>
<text text-anchor="middle" x="752.5" y="-566.07" font-family="Helvetica,Arial,sans-serif" font-size="14.00">b. 29.5.1917 Brookline</text>
<text text-anchor="middle" x="752.5" y="-551.07" font-family="Helvetica,Arial,sans-serif" font-size="14.00">d. 22.11.1963 Dallas</text>
</g>
<!-- I1&#45;&#45;I5 -->
<g id="edge1" class="edge">
<title>I1&#45;&#45;I5</title>
<path fill="none" stroke="blue" stroke-width="2" d="M699.1,-547C686.71,-531.92 673.37,-516.18 660.5,-501.92 556.93,-387.2 429.37,-262.14 347.73,-183.99"/>
</g>
<!-- I6 -->
<g id="node3" class="node">
<title>I6</title>
<polygon fill="none" stroke="blue" stroke-width="2" points="801,-190.36 406,-190.36 406,-20.36 801,-20.36 801,-190.36"/>
<image xlink:href="images/180px-JFKJr2.jpg" width="77px" height="170px" preserveAspectRatio="xMinYMin meet" x="565" y="-190.359"/>
<text text-anchor="middle" x="603.5" y="-54.16" font-family="Helvetica,Arial,sans-serif" font-size="14.00">John Fitzgerald Kennedy</text>
<text text-anchor="middle" x="603.5" y="-39.16" font-family="Helvetica,Arial,sans-serif" font-size="14.00">b. 25.11.1960 Washington</text>
<text text-anchor="middle" x="603.5" y="-24.16" font-family="Helvetica,Arial,sans-serif" font-size="14.00">d. 16.7.1999 over the Atlantic Ocean, near Aquinnah, MA, USA</text>
</g>
<!-- I1&#45;&#45;I6 -->
<g id="edge2" class="edge">
<title>I1&#45;&#45;I6</title>
<path fill="none" stroke="orange" stroke-width="2" d="M732.71,-547.25C705.76,-455.28 657.51,-290.64 628.21,-190.67"/>
</g>
<!-- I7 -->
<g id="node4" class="node">
<title>I7</title>
<polygon fill="none" stroke="blue" stroke-width="2" points="983.5,-131.86 819.5,-131.86 819.5,-78.86 983.5,-78.86 983.5,-131.86"/>
<text text-anchor="middle" x="901.5" y="-116.66" font-family="Helvetica,Arial,sans-serif" font-size="14.00">Patrick Bouvier Kennedy</text>
<text text-anchor="middle" x="901.5" y="-101.66" font-family="Helvetica,Arial,sans-serif" font-size="14.00">b. 7.8.1963</text>
<text text-anchor="middle" x="901.5" y="-86.66" font-family="Helvetica,Arial,sans-serif" font-size="14.00">d. 9.8.1963</text>
</g>
<!-- I1&#45;&#45;I7 -->
<g id="edge4" class="edge">
<title>I1&#45;&#45;I7</title>
<path fill="none" stroke="orange" stroke-width="2" d="M772.29,-547.25C805.69,-433.27 871.81,-207.66 894.02,-131.87"/>
</g>
<!-- I2 -->
<g id="node5" class="node">
<title>I2</title>
<ellipse fill="none" stroke="red" stroke-width="2" cx="265.5" cy="-356.32" rx="127.06" ry="109.7"/>
<image xlink:href="images/jacqueline-kennedy-onassis.jpg" width="100px" height="205px" preserveAspectRatio="xMinYMin meet" x="215.5" y="-458.819"/>
<text text-anchor="middle" x="265.5" y="-312.62" font-family="Helvetica,Arial,sans-serif" font-size="14.00">Jaqueline Lee Bouvier</text>
<text text-anchor="middle" x="265.5" y="-297.62" font-family="Helvetica,Arial,sans-serif" font-size="14.00">b. 28.7.1929 Southampton</text>
<text text-anchor="middle" x="265.5" y="-282.62" font-family="Helvetica,Arial,sans-serif" font-size="14.00">d. 19.5.1994 New York City</text>
</g>
<!-- I1&#45;&#45;I2 -->
<g id="edge6" class="edge">
<title>I1&#45;&#45;I2</title>
<path fill="none" stroke="violet" stroke-width="2" d="M710.04,-547.26C696.2,-530.1 679.46,-513.31 660.5,-501.92 589.82,-459.45 556.42,-492.9 478.5,-465.92 442.22,-453.36 404.35,-435.69 370.77,-418.26"/>
</g>
<!-- I2&#45;&#45;I5 -->
<g id="edge18" class="edge">
<title>I2&#45;&#45;I5</title>
<path fill="none" stroke="red" stroke-width="2" d="M265.5,-246.48C265.5,-234.71 265.5,-222.74 265.5,-211.02"/>
</g>
<!-- I2&#45;&#45;I6 -->
<g id="edge3" class="edge">
<title>I2&#45;&#45;I6</title>
<path fill="none" stroke="orange" stroke-width="2" d="M361.9,-284.31C401.61,-255.06 447.92,-220.95 489.31,-190.47"/>
</g>
<!-- I2&#45;&#45;I7 -->
<g id="edge5" class="edge">
<title>I2&#45;&#45;I7</title>
<path fill="none" stroke="orange" stroke-width="2" d="M392.05,-343.1C508.21,-327.14 681.35,-291.06 810.5,-210.72 842.55,-190.78 869.51,-156.05 885.58,-132.16"/>
</g>
<!-- I15 -->
<g id="node12" class="node">
<title>I15</title>
<polygon fill="none" stroke="blue" stroke-width="2" points="125,-123.36 6,-123.36 6,-87.36 125,-87.36 125,-123.36"/>
<text text-anchor="middle" x="65.5" y="-101.66" font-family="Helvetica,Arial,sans-serif" font-size="14.00">Aristotle Onassis</text>
</g>
<!-- I2&#45;&#45;I15 -->
<g id="edge19" class="edge">
<title>I2&#45;&#45;I15</title>
<path fill="none" stroke="violet" stroke-width="2" d="M185.35,-271.16C168.01,-251.78 150.18,-230.92 134.5,-210.72 111.72,-181.38 88.59,-144.67 75.74,-123.53"/>
</g>
<!-- I8 -->
<g id="node6" class="node">
<title>I8</title>
<polygon fill="none" stroke="blue" stroke-width="2" points="897,-1126.57 716,-1126.57 716,-1016.57 897,-1016.57 897,-1126.57"/>
<image xlink:href="images/1025901671.jpg" width="100px" height="110px" preserveAspectRatio="xMinYMin meet" x="756.5" y="-1126.57"/>
<text text-anchor="middle" x="806.5" y="-1050.37" font-family="Helvetica,Arial,sans-serif" font-size="14.00">Joseph Patrick Kennedy</text>
<text text-anchor="middle" x="806.5" y="-1035.37" font-family="Helvetica,Arial,sans-serif" font-size="14.00">b. 6.9.1888 East Boston</text>
<text text-anchor="middle" x="806.5" y="-1020.37" font-family="Helvetica,Arial,sans-serif" font-size="14.00">d. 16.11.1969 Hyannis Port</text>
</g>
<!-- I8&#45;&#45;I1 -->
<g id="edge7" class="edge">
<title>I8&#45;&#45;I1</title>
<path fill="none" stroke="blue" stroke-width="2" d="M846.9,-1016.2C853.34,-1004.95 859.01,-992.78 862.5,-980.57 888.75,-888.71 892.39,-856.35 862.5,-765.61 856.59,-747.68 832.94,-714.85 809.07,-684.58"/>
</g>
<!-- I10 -->
<g id="node7" class="node">
<title>I10</title>
<polygon fill="none" stroke="blue" stroke-width="2" points="1031,-642.27 854,-642.27 854,-589.27 1031,-589.27 1031,-642.27"/>
<text text-anchor="middle" x="942.5" y="-627.07" font-family="Helvetica,Arial,sans-serif" font-size="14.00">Joseph Patrick Kennedy Jr</text>
<text text-anchor="middle" x="942.5" y="-612.07" font-family="Helvetica,Arial,sans-serif" font-size="14.00">b. 1915</text>
<text text-anchor="middle" x="942.5" y="-597.07" font-family="Helvetica,Arial,sans-serif" font-size="14.00">d. 1944</text>
</g>
<!-- I8&#45;&#45;I10 -->
<g id="edge8" class="edge">
<title>I8&#45;&#45;I10</title>
<path fill="none" stroke="orange" stroke-width="2" d="M863.18,-1016.56C872.22,-1005.45 880.54,-993.24 886.5,-980.57 941.58,-863.47 944.56,-703.99 943.4,-642.45"/>
</g>
<!-- I11 -->
<g id="node8" class="node">
<title>I11</title>
<ellipse fill="none" stroke="red" stroke-width="2" cx="1145.5" cy="-615.77" rx="96.75" ry="113.69"/>
<image xlink:href="images/rosemary.jpg" width="100px" height="213px" preserveAspectRatio="xMinYMin meet" x="1095.5" y="-722.265"/>
<text text-anchor="middle" x="1145.5" y="-569.07" font-family="Helvetica,Arial,sans-serif" font-size="14.00">Rosemary Kennedy</text>
<text text-anchor="middle" x="1145.5" y="-554.07" font-family="Helvetica,Arial,sans-serif" font-size="14.00">b. 13.9.1918</text>
<text text-anchor="middle" x="1145.5" y="-539.07" font-family="Helvetica,Arial,sans-serif" font-size="14.00">d. 7.1.2005</text>
</g>
<!-- I8&#45;&#45;I11 -->
<g id="edge10" class="edge">
<title>I8&#45;&#45;I11</title>
<path fill="none" stroke="orange" stroke-width="2" d="M886.93,-1016.42C900.6,-1005.4 914.05,-993.27 925.5,-980.57 997.78,-900.39 1059.27,-793.08 1098.72,-715.82"/>
</g>
<!-- I12 -->
<g id="node9" class="node">
<title>I12</title>
<ellipse fill="none" stroke="red" stroke-width="2" cx="329.5" cy="-615.77" rx="89.61" ry="37.45"/>
<text text-anchor="middle" x="329.5" y="-627.07" font-family="Helvetica,Arial,sans-serif" font-size="14.00">Kathleen Kennedy</text>
<text text-anchor="middle" x="329.5" y="-612.07" font-family="Helvetica,Arial,sans-serif" font-size="14.00">b. 1920</text>
<text text-anchor="middle" x="329.5" y="-597.07" font-family="Helvetica,Arial,sans-serif" font-size="14.00">d. 1948</text>
</g>
<!-- I8&#45;&#45;I12 -->
<g id="edge12" class="edge">
<title>I8&#45;&#45;I12</title>
<path fill="none" stroke="orange" stroke-width="2" d="M715.96,-1058.32C657.96,-1046.58 583.99,-1023.9 531.5,-980.57 422.58,-890.66 362.21,-725.9 339.76,-653.05"/>
</g>
<!-- I13 -->
<g id="node10" class="node">
<title>I13</title>
<ellipse fill="none" stroke="red" stroke-width="2" cx="544.5" cy="-615.77" rx="107.46" ry="26.74"/>
<text text-anchor="middle" x="544.5" y="-619.57" font-family="Helvetica,Arial,sans-serif" font-size="14.00">Eunice Mary Kennedy</text>
<text text-anchor="middle" x="544.5" y="-604.57" font-family="Helvetica,Arial,sans-serif" font-size="14.00">b. 10.7.1921 Brookline</text>
</g>
<!-- I8&#45;&#45;I13 -->
<g id="edge14" class="edge">
<title>I8&#45;&#45;I13</title>
<path fill="none" stroke="orange" stroke-width="2" d="M715.94,-1052.13C674.54,-1039.04 628.58,-1017.07 600.5,-980.57 521,-877.25 532.64,-707.58 540.65,-642.91"/>
</g>
<!-- I9 -->
<g id="node11" class="node">
<title>I9</title>
<ellipse fill="none" stroke="red" stroke-width="2" cx="731.5" cy="-873.09" rx="122.16" ry="107.46"/>
<image xlink:href="images/Rose_kennedy.JPG" width="100px" height="200px" preserveAspectRatio="xMinYMin meet" x="681.5" y="-973.09"/>
<text text-anchor="middle" x="731.5" y="-830.89" font-family="Helvetica,Arial,sans-serif" font-size="14.00">Rose Elizabeth Fitzgerald</text>
<text text-anchor="middle" x="731.5" y="-815.89" font-family="Helvetica,Arial,sans-serif" font-size="14.00">b. 22.7.1890 Boston</text>
<text text-anchor="middle" x="731.5" y="-800.89" font-family="Helvetica,Arial,sans-serif" font-size="14.00">d. 22.1.1995 Hyannis Port</text>
</g>
<!-- I8&#45;&#45;I9 -->
<g id="edge16" class="edge">
<title>I8&#45;&#45;I9</title>
<path fill="none" stroke="violet" stroke-width="2" d="M785.81,-1016.36C780.91,-1003.53 775.53,-989.43 770.11,-975.24"/>
</g>
<!-- I9&#45;&#45;I1 -->
<g id="edge17" class="edge">
<title>I9&#45;&#45;I1</title>
<path fill="none" stroke="red" stroke-width="2" d="M740.25,-765.66C742.52,-738.15 744.89,-709.3 746.94,-684.39"/>
</g>
<!-- I9&#45;&#45;I10 -->
<g id="edge9" class="edge">
<title>I9&#45;&#45;I10</title>
<path fill="none" stroke="orange" stroke-width="2" d="M802.93,-785.65C844.42,-735.45 893.78,-675.72 921.28,-642.44"/>
</g>
<!-- I9&#45;&#45;I11 -->
<g id="edge11" class="edge">
<title>I9&#45;&#45;I11</title>
<path fill="none" stroke="orange" stroke-width="2" d="M844.81,-832.22C905.92,-807.76 980.81,-772.83 1040.5,-729.61 1053.4,-720.27 1065.97,-709.18 1077.67,-697.65"/>
</g>
<!-- I9&#45;&#45;I12 -->
<g id="edge13" class="edge">
<title>I9&#45;&#45;I12</title>
<path fill="none" stroke="orange" stroke-width="2" d="M618.48,-831.93C558.69,-807.59 485.98,-772.86 428.5,-729.61 399.45,-707.75 372.66,-676.21 354.3,-652.02"/>
</g>
<!-- I9&#45;&#45;I13 -->
<g id="edge15" class="edge">
<title>I9&#45;&#45;I13</title>
<path fill="none" stroke="orange" stroke-width="2" d="M665.57,-782.07C629.29,-732.54 586.93,-674.7 563.16,-642.24"/>
</g>
<!-- I3 -->
<g id="node13" class="node">
<title>I3</title>
<polygon fill="none" stroke="blue" stroke-width="2" points="157,-951.59 0,-951.59 0,-794.59 157,-794.59 157,-951.59"/>
<image xlink:href="images/BE037819.jpg" width="100px" height="157px" preserveAspectRatio="xMinYMin meet" x="28.5" y="-951.59"/>
<text text-anchor="middle" x="78.5" y="-828.39" font-family="Helvetica,Arial,sans-serif" font-size="14.00">John Vernou Bouvier III</text>
<text text-anchor="middle" x="78.5" y="-813.39" font-family="Helvetica,Arial,sans-serif" font-size="14.00">b. 1891</text>
<text text-anchor="middle" x="78.5" y="-798.39" font-family="Helvetica,Arial,sans-serif" font-size="14.00">d. 1957</text>
</g>
<!-- I3&#45;&#45;I2 -->
<g id="edge20" class="edge">
<title>I3&#45;&#45;I2</title>
<path fill="none" stroke="blue" stroke-width="2" d="M45.96,-794.34C18.45,-715.7 -9.27,-593.07 40.5,-501.92 64.37,-458.21 107.73,-425.75 150.06,-402.78"/>
</g>
<!-- I4 -->
<g id="node14" class="node">
<title>I4</title>
<ellipse fill="none" stroke="red" stroke-width="2" cx="135.5" cy="-615.77" rx="86.03" ry="108.79"/>
<image xlink:href="images/n48862003257_1275276_1366.jpg" width="100px" height="203px" preserveAspectRatio="xMinYMin meet" x="85.5" y="-717.265"/>
<text text-anchor="middle" x="135.5" y="-572.57" font-family="Helvetica,Arial,sans-serif" font-size="14.00">Janet Norton Lee</text>
<text text-anchor="middle" x="135.5" y="-557.57" font-family="Helvetica,Arial,sans-serif" font-size="14.00">b. 2.10.1877</text>
<text text-anchor="middle" x="135.5" y="-542.57" font-family="Helvetica,Arial,sans-serif" font-size="14.00">d. 3.1.1968</text>
</g>
<!-- I3&#45;&#45;I4 -->
<g id="edge21" class="edge">
<title>I3&#45;&#45;I4</title>
<path fill="none" stroke="violet" stroke-width="2" d="M95.83,-794.44C101.01,-771.26 106.77,-745.47 112.26,-720.88"/>
</g>
<!-- I4&#45;&#45;I2 -->
<g id="edge22" class="edge">
<title>I4&#45;&#45;I2</title>
<path fill="none" stroke="red" stroke-width="2" d="M181.52,-523.64C192.4,-502.08 204.06,-478.99 215.13,-457.08"/>
</g>
</g>
</svg>
