<?xml version="1.0" encoding="UTF-8" standalone="no"?>
<!DOCTYPE svg PUBLIC "-//W3C//DTD SVG 1.1//EN"
 "http://www.w3.org/Graphics/SVG/1.1/DTD/svg11.dtd">
<!-- Generated by graphviz version 2.44.0 (20200408.0750)
 -->
<!-- Title: matrix Pages: 1 -->
<svg width="1514pt" height="785pt"
 viewBox="0.00 0.00 1514.00 785.00" xmlns="http://www.w3.org/2000/svg" xmlns:xlink="http://www.w3.org/1999/xlink">
<g id="graph0" class="graph" transform="scale(1 1) rotate(0) translate(4 781)">
<title>matrix</title>
<polygon fill="white" stroke="transparent" points="-4,4 -4,-781 1510,-781 1510,4 -4,4"/>
<!-- system_ -->
<!-- SCI -->
<g id="node3" class="node">
<title>SCI</title>
<ellipse fill="#d9e7ee" stroke="#e27dd6" stroke-width="6" cx="339" cy="-578" rx="79" ry="36"/>
<text text-anchor="middle" x="339" y="-571.8" font-family="Ubuntu" font-size="24.00">System calls</text>
</g>
<!-- system_&#45;&gt;SCI -->
<!-- system -->
<g id="node2" class="node">
<title>system</title>
<polygon fill="white" stroke="#e27dd6" stroke-width="6" points="411,-719 267,-719 267,-676 411,-676 411,-719"/>
<text text-anchor="middle" x="339" y="-691.3" font-family="Ubuntu" font-size="24.00">system</text>
</g>
<!-- system&#45;&gt;system_ -->
<g id="edge1" class="edge">
<title>system&#45;&gt;system_</title>
<path fill="none" stroke="#e27dd6" stroke-width="6" d="M339,-675.96C339,-666.86 339,-656.91 339,-651.08"/>
<polygon fill="#e27dd6" stroke="#e27dd6" stroke-width="6" points="341.63,-651.05 339,-646.05 336.38,-651.05 341.63,-651.05"/>
</g>
<!-- networking -->
<g id="node10" class="node">
<title>networking</title>
<polygon fill="white" stroke="#61c2c5" stroke-width="6" points="596,-719 452,-719 452,-676 596,-676 596,-719"/>
<text text-anchor="middle" x="524" y="-691.3" font-family="Ubuntu" font-size="24.00">networking</text>
</g>
<!-- system&#45;&gt;networking -->
<!-- sysfs -->
<g id="node4" class="node">
<title>sysfs</title>
<polygon fill="#b2d3e4" stroke="#e27dd6" stroke-width="6" points="418,-528 260,-528 260,-456 418,-456 418,-528"/>
<text text-anchor="middle" x="339" y="-498.8" font-family="Ubuntu" font-size="24.00">proc, sysfs,</text>
<text text-anchor="middle" x="339" y="-472.8" font-family="Ubuntu" font-size="24.00">file systems</text>
</g>
<!-- SCI&#45;&gt;sysfs -->
<g id="edge2" class="edge">
<title>SCI&#45;&gt;sysfs</title>
<path fill="none" stroke="#e27dd6" stroke-width="6" d="M339,-541.86C339,-537.37 339,-532.76 339,-528.27"/>
</g>
<!-- DM -->
<g id="node5" class="node">
<title>DM</title>
<polygon fill="#91b5c9" stroke="#e27dd6" stroke-width="6" points="411,-393.99 411,-418.01 368.82,-435 309.18,-435 267,-418.01 267,-393.99 309.18,-377 368.82,-377 411,-393.99"/>
<text text-anchor="middle" x="339" y="-412" font-family="Ubuntu" font-size="20.00">Device</text>
<text text-anchor="middle" x="339" y="-390" font-family="Ubuntu" font-size="20.00">Model</text>
</g>
<!-- sysfs&#45;&gt;DM -->
<g id="edge3" class="edge">
<title>sysfs&#45;&gt;DM</title>
<path fill="none" stroke="#e27dd6" stroke-width="6" d="M339,-455.86C339,-448.94 339,-441.76 339,-435.11"/>
</g>
<!-- log_sys -->
<g id="node6" class="node">
<title>log_sys</title>
<polygon fill="#6a9ab1" stroke="#e27dd6" stroke-width="6" points="418,-356 260,-356 260,-260 418,-260 418,-356"/>
<text text-anchor="middle" x="339" y="-336" font-family="Ubuntu" font-size="20.00">system run,</text>
<text text-anchor="middle" x="339" y="-314" font-family="Ubuntu" font-size="20.00">modules,</text>
<text text-anchor="middle" x="339" y="-292" font-family="Ubuntu" font-size="20.00">generic</text>
<text text-anchor="middle" x="339" y="-270" font-family="Ubuntu" font-size="20.00">HW access </text>
</g>
<!-- DM&#45;&gt;log_sys -->
<g id="edge4" class="edge">
<title>DM&#45;&gt;log_sys</title>
<path fill="none" stroke="#e27dd6" stroke-width="6" d="M339,-376.97C339,-370.44 339,-363.31 339,-356.21"/>
</g>
<!-- bus_drv -->
<g id="node7" class="node">
<title>bus_drv</title>
<polygon fill="#71809b" stroke="#e27dd6" stroke-width="6" points="418,-245 260,-245 260,-173 418,-173 418,-245"/>
<text text-anchor="middle" x="339" y="-202.8" font-family="Ubuntu" font-size="24.00">bus drivers</text>
</g>
<!-- log_sys&#45;&gt;bus_drv -->
<g id="edge5" class="edge">
<title>log_sys&#45;&gt;bus_drv</title>
<path fill="none" stroke="#e27dd6" stroke-width="6" d="M339,-259.92C339,-254.9 339,-249.86 339,-245.01"/>
</g>
<!-- H2 -->
<g id="node8" class="node">
<title>H2</title>
<polygon fill="#777777" stroke="#e27dd6" stroke-width="6" points="418,-158 260,-158 260,-86 418,-86 418,-158"/>
<text text-anchor="middle" x="339" y="-128" font-family="Ubuntu" font-size="20.00" fill="white">busess:</text>
<text text-anchor="middle" x="339" y="-106" font-family="Ubuntu" font-size="20.00" fill="white">PCI, USB ...</text>
</g>
<!-- bus_drv&#45;&gt;H2 -->
<g id="edge6" class="edge">
<title>bus_drv&#45;&gt;H2</title>
<path fill="none" stroke="#e27dd6" stroke-width="6" d="M339,-172.94C339,-168.09 339,-163.11 339,-158.26"/>
</g>
<!-- networking_ -->
<!-- sock -->
<g id="node11" class="node">
<title>sock</title>
<ellipse fill="#d9e7ee" stroke="#61c2c5" stroke-width="6" cx="524" cy="-578" rx="79" ry="36"/>
<text text-anchor="middle" x="524" y="-571.8" font-family="Ubuntu" font-size="24.00">Sockets</text>
</g>
<!-- networking_&#45;&gt;sock -->
<!-- networking&#45;&gt;networking_ -->
<g id="edge7" class="edge">
<title>networking&#45;&gt;networking_</title>
<path fill="none" stroke="#61c2c5" stroke-width="6" d="M524,-675.96C524,-666.86 524,-656.91 524,-651.08"/>
<polygon fill="#61c2c5" stroke="#61c2c5" stroke-width="6" points="526.63,-651.05 524,-646.05 521.38,-651.05 526.63,-651.05"/>
</g>
<!-- storage -->
<g id="node18" class="node">
<title>storage</title>
<polygon fill="white" stroke="#8383cc" stroke-width="6" points="783,-719 639,-719 639,-676 783,-676 783,-719"/>
<text text-anchor="middle" x="711" y="-691.3" font-family="Ubuntu" font-size="24.00">storage</text>
</g>
<!-- networking&#45;&gt;storage -->
<!-- prot_fam -->
<g id="node12" class="node">
<title>prot_fam</title>
<polygon fill="#b2d3e4" stroke="#61c2c5" stroke-width="6" points="603,-528 445,-528 445,-456 603,-456 603,-528"/>
<text text-anchor="middle" x="524" y="-498.8" font-family="Ubuntu" font-size="24.00">protocol</text>
<text text-anchor="middle" x="524" y="-472.8" font-family="Ubuntu" font-size="24.00">families</text>
</g>
<!-- sock&#45;&gt;prot_fam -->
<g id="edge8" class="edge">
<title>sock&#45;&gt;prot_fam</title>
<path fill="none" stroke="#61c2c5" stroke-width="6" d="M524,-541.86C524,-537.37 524,-532.76 524,-528.27"/>
</g>
<!-- log_prot -->
<g id="node13" class="node">
<title>log_prot</title>
<polygon fill="#6a9ab1" stroke="#61c2c5" stroke-width="6" points="603,-344 445,-344 445,-272 603,-272 603,-344"/>
<text text-anchor="middle" x="524" y="-314.8" font-family="Ubuntu" font-size="24.00">protocols:</text>
<text text-anchor="middle" x="524" y="-288.8" font-family="Ubuntu" font-size="24.00">TCP, UDP, IP</text>
</g>
<!-- prot_fam&#45;&gt;log_prot -->
<g id="edge9" class="edge">
<title>prot_fam&#45;&gt;log_prot</title>
<path fill="none" stroke="#61c2c5" stroke-width="6" d="M524,-455.65C524,-423.39 524,-376.51 524,-344.28"/>
</g>
<!-- netif -->
<g id="node14" class="node">
<title>netif</title>
<polygon fill="#71809b" stroke="#61c2c5" stroke-width="6" points="603,-246 445,-246 445,-172 603,-172 603,-246"/>
<text text-anchor="middle" x="524" y="-226" font-family="Ubuntu" font-size="20.00">network</text>
<text text-anchor="middle" x="524" y="-204" font-family="Ubuntu" font-size="20.00">interfaces</text>
<text text-anchor="middle" x="524" y="-182" font-family="Ubuntu" font-size="20.00">and drivers</text>
</g>
<!-- log_prot&#45;&gt;netif -->
<g id="edge10" class="edge">
<title>log_prot&#45;&gt;netif</title>
<path fill="none" stroke="#61c2c5" stroke-width="6" d="M524,-271.98C524,-263.62 524,-254.69 524,-246.27"/>
</g>
<!-- net_hw -->
<g id="node15" class="node">
<title>net_hw</title>
<polygon fill="#777777" stroke="#61c2c5" stroke-width="6" points="607.5,-158 440.5,-158 440.5,-86 607.5,-86 607.5,-158"/>
<text text-anchor="middle" x="524" y="-128" font-family="Ubuntu" font-size="20.00" fill="white">network:</text>
<text text-anchor="middle" x="524" y="-106" font-family="Ubuntu" font-size="20.00" fill="white">Ethernet, WiFi ...</text>
</g>
<!-- netif&#45;&gt;net_hw -->
<g id="edge11" class="edge">
<title>netif&#45;&gt;net_hw</title>
<path fill="none" stroke="#61c2c5" stroke-width="6" d="M524,-171.95C524,-167.34 524,-162.62 524,-158.02"/>
</g>
<!-- NFS -->
<g id="node16" class="node">
<title>NFS</title>
<polygon fill="#91b5c9" stroke="#8383cc" stroke-width="6" points="661,-393.99 661,-418.01 635.81,-435 600.19,-435 575,-418.01 575,-393.99 600.19,-377 635.81,-377 661,-393.99"/>
<text text-anchor="middle" x="618" y="-399.8" font-family="Ubuntu" font-size="24.00">NFS</text>
</g>
<!-- NFS&#45;&gt;log_prot -->
<g id="edge12" class="edge">
<title>NFS&#45;&gt;log_prot</title>
<path fill="none" stroke="#61c2c5" stroke-width="6" d="M594.28,-380.78C583.4,-369.67 570.3,-356.28 558.37,-344.1"/>
</g>
<!-- storage_ -->
<!-- FS -->
<g id="node19" class="node">
<title>FS</title>
<ellipse fill="#d9e7ee" stroke="#8383cc" stroke-width="6" cx="711" cy="-578" rx="79" ry="36"/>
<text text-anchor="middle" x="711" y="-584.8" font-family="Ubuntu" font-size="24.00">files and</text>
<text text-anchor="middle" x="711" y="-558.8" font-family="Ubuntu" font-size="24.00">directories</text>
</g>
<!-- storage_&#45;&gt;FS -->
<!-- storage&#45;&gt;storage_ -->
<g id="edge13" class="edge">
<title>storage&#45;&gt;storage_</title>
<path fill="none" stroke="#8383cc" stroke-width="6" d="M711,-675.96C711,-666.86 711,-656.91 711,-651.08"/>
<polygon fill="#8383cc" stroke="#8383cc" stroke-width="6" points="713.63,-651.05 711,-646.05 708.38,-651.05 713.63,-651.05"/>
</g>
<!-- memory -->
<g id="node43" class="node">
<title>memory</title>
<polygon fill="white" stroke="#51bf5b" stroke-width="6" points="1117,-719 973,-719 973,-676 1117,-676 1117,-719"/>
<text text-anchor="middle" x="1045" y="-691.3" font-family="Ubuntu" font-size="24.00">memory</text>
</g>
<!-- storage&#45;&gt;memory -->
<!-- VFS -->
<g id="node20" class="node">
<title>VFS</title>
<polygon fill="#b2d3e4" stroke="#8383cc" stroke-width="6" points="790,-528 632,-528 632,-456 790,-456 790,-528"/>
<text text-anchor="middle" x="711" y="-498.8" font-family="Ubuntu" font-size="24.00">Virtual</text>
<text text-anchor="middle" x="711" y="-472.8" font-family="Ubuntu" font-size="24.00">File System</text>
</g>
<!-- FS&#45;&gt;VFS -->
<g id="edge14" class="edge">
<title>FS&#45;&gt;VFS</title>
<path fill="none" stroke="#8383cc" stroke-width="6" d="M711,-541.86C711,-537.37 711,-532.76 711,-528.27"/>
</g>
<!-- VFS&#45;&gt;NFS -->
<g id="edge15" class="edge">
<title>VFS&#45;&gt;NFS</title>
<path fill="none" stroke="#8383cc" stroke-width="6" d="M672.1,-455.86C662.44,-447.14 652.34,-438.01 643.51,-430.04"/>
</g>
<!-- logFS -->
<g id="node21" class="node">
<title>logFS</title>
<polygon fill="#6a9ab1" stroke="#8383cc" stroke-width="6" points="790,-345 632,-345 632,-271 790,-271 790,-345"/>
<text text-anchor="middle" x="711" y="-325" font-family="Ubuntu" font-size="20.00">logical</text>
<text text-anchor="middle" x="711" y="-303" font-family="Ubuntu" font-size="20.00">filesystems:</text>
<text text-anchor="middle" x="711" y="-281" font-family="Ubuntu" font-size="20.00">ext3, xfs ...</text>
</g>
<!-- VFS&#45;&gt;logFS -->
<g id="edge16" class="edge">
<title>VFS&#45;&gt;logFS</title>
<path fill="none" stroke="#8383cc" stroke-width="6" d="M711,-455.65C711,-423.7 711,-377.42 711,-345.22"/>
</g>
<!-- PC -->
<g id="node22" class="node">
<title>PC</title>
<polygon fill="#91b5c9" stroke="#51bf5b" stroke-width="6" points="900,-393.99 900,-418.01 874.81,-435 839.19,-435 814,-418.01 814,-393.99 839.19,-377 874.81,-377 900,-393.99"/>
<text text-anchor="middle" x="857" y="-412" font-family="Ubuntu" font-size="20.00">page</text>
<text text-anchor="middle" x="857" y="-390" font-family="Ubuntu" font-size="20.00">cache</text>
</g>
<!-- VFS&#45;&gt;PC -->
<g id="edge17" class="edge">
<title>VFS&#45;&gt;PC</title>
<path fill="none" stroke="#8383cc" stroke-width="6" d="M772.07,-455.86C790.2,-445.43 809.34,-434.42 824.85,-425.5"/>
</g>
<!-- mmap -->
<g id="node23" class="node">
<title>mmap</title>
<polygon fill="#91b5c9" stroke="#51bf5b" stroke-width="6" points="1117,-393.99 1117,-418.01 1074.82,-435 1015.18,-435 973,-418.01 973,-393.99 1015.18,-377 1074.82,-377 1117,-393.99"/>
<text text-anchor="middle" x="1045" y="-412" font-family="Ubuntu" font-size="20.00">memory</text>
<text text-anchor="middle" x="1045" y="-390" font-family="Ubuntu" font-size="20.00">mapping</text>
</g>
<!-- VFS&#45;&gt;mmap -->
<g id="edge18" class="edge">
<title>VFS&#45;&gt;mmap</title>
<path fill="none" stroke="#8383cc" stroke-width="6" d="M790.15,-471.09C849.38,-456.2 929.2,-436.12 983.63,-422.43"/>
</g>
<!-- block -->
<g id="node24" class="node">
<title>block</title>
<polygon fill="#71809b" stroke="#8383cc" stroke-width="6" points="790,-246 632,-246 632,-172 790,-172 790,-246"/>
<text text-anchor="middle" x="711" y="-226" font-family="Ubuntu" font-size="20.00">Block</text>
<text text-anchor="middle" x="711" y="-204" font-family="Ubuntu" font-size="20.00">devices</text>
<text text-anchor="middle" x="711" y="-182" font-family="Ubuntu" font-size="20.00">and drivers</text>
</g>
<!-- logFS&#45;&gt;block -->
<g id="edge19" class="edge">
<title>logFS&#45;&gt;block</title>
<path fill="none" stroke="#8383cc" stroke-width="6" d="M711,-270.88C711,-262.8 711,-254.23 711,-246.15"/>
</g>
<!-- PA -->
<g id="node25" class="node">
<title>PA</title>
<polygon fill="#71809b" stroke="#51bf5b" stroke-width="6" points="1124,-245 966,-245 966,-173 1124,-173 1124,-245"/>
<text text-anchor="middle" x="1045" y="-215.8" font-family="Ubuntu" font-size="24.00">Page</text>
<text text-anchor="middle" x="1045" y="-189.8" font-family="Ubuntu" font-size="24.00">Allocator</text>
</g>
<!-- PC&#45;&gt;PA -->
<g id="edge20" class="edge">
<title>PC&#45;&gt;PA</title>
<path fill="none" stroke="#51bf5b" stroke-width="6" d="M881.19,-380.65C914.02,-346.25 972.86,-284.59 1010.37,-245.29"/>
</g>
<!-- SW -->
<g id="node27" class="node">
<title>SW</title>
<polygon fill="#91b5c9" stroke="#8383cc" stroke-width="6" points="944,-295.99 944,-320.01 918.81,-337 883.19,-337 858,-320.01 858,-295.99 883.19,-279 918.81,-279 944,-295.99"/>
<text text-anchor="middle" x="901" y="-301.8" font-family="Ubuntu" font-size="24.00">Swap</text>
</g>
<!-- mmap&#45;&gt;SW -->
<g id="edge47" class="edge">
<title>mmap&#45;&gt;SW</title>
<path fill="none" stroke="#51bf5b" stroke-width="6" d="M1007.54,-380.03C983.71,-364.14 953.26,-343.84 931.02,-329.01"/>
</g>
<!-- log_mem -->
<g id="node57" class="node">
<title>log_mem</title>
<polygon fill="#6a9ab1" stroke="#51bf5b" stroke-width="6" points="1124,-344 966,-344 966,-272 1124,-272 1124,-344"/>
<text text-anchor="middle" x="1045" y="-314.8" font-family="Ubuntu" font-size="24.00">logical</text>
<text text-anchor="middle" x="1045" y="-288.8" font-family="Ubuntu" font-size="24.00">memory</text>
</g>
<!-- mmap&#45;&gt;log_mem -->
<g id="edge48" class="edge">
<title>mmap&#45;&gt;log_mem</title>
<path fill="none" stroke="#51bf5b" stroke-width="6" d="M1045,-376.97C1045,-366.68 1045,-354.9 1045,-344.06"/>
</g>
<!-- H4 -->
<g id="node26" class="node">
<title>H4</title>
<polygon fill="#777777" stroke="#8383cc" stroke-width="6" points="792.5,-158 629.5,-158 629.5,-86 792.5,-86 792.5,-158"/>
<text text-anchor="middle" x="711" y="-128" font-family="Ubuntu" font-size="20.00" fill="white">storage devices:</text>
<text text-anchor="middle" x="711" y="-106" font-family="Ubuntu" font-size="20.00" fill="white">SCSI, NVMe ...</text>
</g>
<!-- block&#45;&gt;H4 -->
<g id="edge21" class="edge">
<title>block&#45;&gt;H4</title>
<path fill="none" stroke="#8383cc" stroke-width="6" d="M711,-171.95C711,-167.34 711,-162.62 711,-158.02"/>
</g>
<!-- H5 -->
<g id="node62" class="node">
<title>H5</title>
<polygon fill="#777777" stroke="#51bf5b" stroke-width="6" points="1124,-158 966,-158 966,-86 1124,-86 1124,-158"/>
<text text-anchor="middle" x="1045" y="-117" font-family="Ubuntu" font-size="20.00" fill="white">MMU, RAM</text>
</g>
<!-- PA&#45;&gt;H5 -->
<g id="edge49" class="edge">
<title>PA&#45;&gt;H5</title>
<path fill="none" stroke="#51bf5b" stroke-width="6" d="M1045,-172.94C1045,-168.09 1045,-163.11 1045,-158.26"/>
</g>
<!-- bottom -->
<g id="node63" class="node">
<title>bottom</title>
<text text-anchor="middle" x="711" y="-29.8" font-family="Ubuntu" font-size="24.00">© 2007&#45;2019 Constantine Shulyupin http://www.MakeLinux.net/kernel/diagram</text>
</g>
<!-- H4&#45;&gt;bottom -->
<!-- SW&#45;&gt;block -->
<g id="edge22" class="edge">
<title>SW&#45;&gt;block</title>
<path fill="none" stroke="#8383cc" stroke-width="6" d="M867.03,-289.66C843.34,-277.56 810.85,-260.98 781.66,-246.07"/>
</g>
<!-- processing_ -->
<!-- proc -->
<g id="node30" class="node">
<title>proc</title>
<ellipse fill="#d9e7ee" stroke="#c46747" stroke-width="6" cx="1225" cy="-578" rx="79" ry="36"/>
<text text-anchor="middle" x="1225" y="-571.8" font-family="Ubuntu" font-size="24.00">Processes</text>
</g>
<!-- processing_&#45;&gt;proc -->
<!-- processing -->
<g id="node29" class="node">
<title>processing</title>
<polygon fill="white" stroke="#c46747" stroke-width="6" points="1297,-719 1153,-719 1153,-676 1297,-676 1297,-719"/>
<text text-anchor="middle" x="1225" y="-691.3" font-family="Ubuntu" font-size="24.00">processing</text>
</g>
<!-- processing&#45;&gt;processing_ -->
<g id="edge23" class="edge">
<title>processing&#45;&gt;processing_</title>
<path fill="none" stroke="#c46747" stroke-width="6" d="M1225,-675.96C1225,-666.86 1225,-656.91 1225,-651.08"/>
<polygon fill="#c46747" stroke="#c46747" stroke-width="6" points="1227.63,-651.05 1225,-646.05 1222.38,-651.05 1227.63,-651.05"/>
</g>
<!-- HI -->
<g id="node37" class="node">
<title>HI</title>
<polygon fill="white" stroke="#cfbf57" stroke-width="6" points="1488,-719 1344,-719 1344,-676 1488,-676 1488,-719"/>
<text text-anchor="middle" x="1416" y="-703.5" font-family="Ubuntu" font-size="20.00">human</text>
<text text-anchor="middle" x="1416" y="-681.5" font-family="Ubuntu" font-size="20.00">interface</text>
</g>
<!-- processing&#45;&gt;HI -->
<!-- Tasks -->
<g id="node31" class="node">
<title>Tasks</title>
<polygon fill="#b2d3e4" stroke="#c46747" stroke-width="6" points="1304,-528 1146,-528 1146,-456 1304,-456 1304,-528"/>
<text text-anchor="middle" x="1225" y="-485.8" font-family="Ubuntu" font-size="24.00">Tasks</text>
</g>
<!-- proc&#45;&gt;Tasks -->
<g id="edge24" class="edge">
<title>proc&#45;&gt;Tasks</title>
<path fill="none" stroke="#c46747" stroke-width="6" d="M1225,-541.86C1225,-537.37 1225,-532.76 1225,-528.27"/>
</g>
<!-- sync -->
<g id="node32" class="node">
<title>sync</title>
<polygon fill="#91b5c9" stroke="#c46747" stroke-width="6" points="1297,-395.64 1297,-416.36 1254.82,-431 1195.18,-431 1153,-416.36 1153,-395.64 1195.18,-381 1254.82,-381 1297,-395.64"/>
<text text-anchor="middle" x="1225" y="-401" font-family="Ubuntu Condensed" font-size="20.00">synchronization</text>
</g>
<!-- Tasks&#45;&gt;sync -->
<g id="edge25" class="edge">
<title>Tasks&#45;&gt;sync</title>
<path fill="none" stroke="#c46747" stroke-width="6" d="M1225,-455.86C1225,-447.59 1225,-438.95 1225,-431.28"/>
</g>
<!-- sched -->
<g id="node33" class="node">
<title>sched</title>
<polygon fill="#6a9ab1" stroke="#c46747" stroke-width="6" points="1304,-344 1146,-344 1146,-272 1304,-272 1304,-344"/>
<text text-anchor="middle" x="1225" y="-301.8" font-family="Ubuntu" font-size="24.00">Scheduler</text>
</g>
<!-- sync&#45;&gt;sched -->
<g id="edge26" class="edge">
<title>sync&#45;&gt;sched</title>
<path fill="none" stroke="#c46747" stroke-width="6" d="M1225,-380.78C1225,-369.67 1225,-356.28 1225,-344.1"/>
</g>
<!-- IRQ -->
<g id="node34" class="node">
<title>IRQ</title>
<polygon fill="#71809b" stroke="#c46747" stroke-width="6" points="1304,-246 1146,-246 1146,-172 1304,-172 1304,-246"/>
<text text-anchor="middle" x="1225" y="-226" font-family="Ubuntu" font-size="20.00">interrupts</text>
<text text-anchor="middle" x="1225" y="-204" font-family="Ubuntu" font-size="20.00">core,</text>
<text text-anchor="middle" x="1225" y="-182" font-family="Ubuntu" font-size="20.00">CPU arch</text>
</g>
<!-- sched&#45;&gt;IRQ -->
<g id="edge27" class="edge">
<title>sched&#45;&gt;IRQ</title>
<path fill="none" stroke="#c46747" stroke-width="6" d="M1225,-271.98C1225,-263.62 1225,-254.69 1225,-246.27"/>
</g>
<!-- CPU -->
<g id="node35" class="node">
<title>CPU</title>
<polygon fill="#777777" stroke="#c46747" stroke-width="6" points="1304,-158 1146,-158 1146,-86 1304,-86 1304,-158"/>
<text text-anchor="middle" x="1225" y="-117" font-family="Ubuntu" font-size="20.00" fill="white">CPU</text>
</g>
<!-- IRQ&#45;&gt;CPU -->
<g id="edge28" class="edge">
<title>IRQ&#45;&gt;CPU</title>
<path fill="none" stroke="#c46747" stroke-width="6" d="M1225,-171.95C1225,-167.34 1225,-162.62 1225,-158.02"/>
</g>
<!-- HI_ -->
<!-- char -->
<g id="node38" class="node">
<title>char</title>
<ellipse fill="#d9e7ee" stroke="#cfbf57" stroke-width="6" cx="1416" cy="-578" rx="79" ry="36"/>
<text text-anchor="middle" x="1416" y="-584.8" font-family="Ubuntu" font-size="24.00">char</text>
<text text-anchor="middle" x="1416" y="-558.8" font-family="Ubuntu" font-size="24.00">devices</text>
</g>
<!-- HI_&#45;&gt;char -->
<!-- HI&#45;&gt;HI_ -->
<g id="edge29" class="edge">
<title>HI&#45;&gt;HI_</title>
<path fill="none" stroke="#cfbf57" stroke-width="6" d="M1416,-675.96C1416,-666.86 1416,-656.91 1416,-651.08"/>
<polygon fill="#cfbf57" stroke="#cfbf57" stroke-width="6" points="1418.63,-651.05 1416,-646.05 1413.38,-651.05 1418.63,-651.05"/>
</g>
<!-- input -->
<g id="node39" class="node">
<title>input</title>
<polygon fill="#b2d3e4" stroke="#cfbf57" stroke-width="6" points="1495,-528 1337,-528 1337,-456 1495,-456 1495,-528"/>
<text text-anchor="middle" x="1416" y="-498.8" font-family="Ubuntu" font-size="24.00">input</text>
<text text-anchor="middle" x="1416" y="-472.8" font-family="Ubuntu" font-size="24.00">subsystem</text>
</g>
<!-- char&#45;&gt;input -->
<g id="edge30" class="edge">
<title>char&#45;&gt;input</title>
<path fill="none" stroke="#cfbf57" stroke-width="6" d="M1416,-541.86C1416,-537.37 1416,-532.76 1416,-528.27"/>
</g>
<!-- F7 -->
<g id="node40" class="node">
<title>F7</title>
<polygon fill="#6a9ab1" stroke="#cfbf57" stroke-width="6" points="1495,-344 1337,-344 1337,-272 1495,-272 1495,-344"/>
<text text-anchor="middle" x="1416" y="-314.8" font-family="Ubuntu" font-size="24.00">HI class</text>
<text text-anchor="middle" x="1416" y="-288.8" font-family="Ubuntu" font-size="24.00">drivers</text>
</g>
<!-- input&#45;&gt;F7 -->
<g id="edge31" class="edge">
<title>input&#45;&gt;F7</title>
<path fill="none" stroke="#cfbf57" stroke-width="6" d="M1416,-455.65C1416,-423.39 1416,-376.51 1416,-344.28"/>
</g>
<!-- HID -->
<g id="node41" class="node">
<title>HID</title>
<g id="a_node41"><a xlink:href="https://www.kernel.org/doc/html/latest/hid/" xlink:title="HI\nperipherals\ndrivers">
<polygon fill="#71809b" stroke="#cfbf57" stroke-width="6" points="1495,-246 1337,-246 1337,-172 1495,-172 1495,-246"/>
<text text-anchor="middle" x="1416" y="-226" font-family="Ubuntu" font-size="20.00">HI</text>
<text text-anchor="middle" x="1416" y="-204" font-family="Ubuntu" font-size="20.00">peripherals</text>
<text text-anchor="middle" x="1416" y="-182" font-family="Ubuntu" font-size="20.00">drivers</text>
</a>
</g>
</g>
<!-- F7&#45;&gt;HID -->
<g id="edge32" class="edge">
<title>F7&#45;&gt;HID</title>
<path fill="none" stroke="#cfbf57" stroke-width="6" d="M1416,-271.98C1416,-263.62 1416,-254.69 1416,-246.27"/>
</g>
<!-- H7 -->
<g id="node42" class="node">
<title>H7</title>
<polygon fill="#777777" stroke="#cfbf57" stroke-width="6" points="1506,-158 1326,-158 1326,-86 1506,-86 1506,-158"/>
<text text-anchor="middle" x="1416" y="-128" font-family="Ubuntu" font-size="20.00" fill="white">display, keyboard,</text>
<text text-anchor="middle" x="1416" y="-106" font-family="Ubuntu" font-size="20.00" fill="white">mouse, audio</text>
</g>
<!-- HID&#45;&gt;H7 -->
<g id="edge33" class="edge">
<title>HID&#45;&gt;H7</title>
<path fill="none" stroke="#cfbf57" stroke-width="6" d="M1416,-171.95C1416,-167.34 1416,-162.62 1416,-158.02"/>
</g>
<!-- memory&#45;&gt;processing -->
<!-- memory_ -->
<!-- memory&#45;&gt;memory_ -->
<g id="edge50" class="edge">
<title>memory&#45;&gt;memory_</title>
<path fill="none" stroke="#51bf5b" stroke-width="6" d="M1045,-675.96C1045,-666.86 1045,-656.91 1045,-651.08"/>
<polygon fill="#51bf5b" stroke="#51bf5b" stroke-width="6" points="1047.63,-651.05 1045,-646.05 1042.38,-651.05 1047.63,-651.05"/>
</g>
<!-- functions_ -->
<!-- functions_&#45;&gt;system -->
<!-- functions -->
<g id="node45" class="node">
<title>functions</title>
<g id="a_node45"><a xlink:href="http://www.makelinux.net/ldd3/chp-1-sect-2.shtml" xlink:title="Columns represent main functionalities of the kernel">
<polygon fill="none" stroke="gray" stroke-dasharray="5,2" points="136.5,-719 21.5,-719 21.5,-676 136.5,-676 136.5,-719"/>
<text text-anchor="middle" x="79" y="-691.3" font-family="Ubuntu" font-size="24.00">functions</text>
</a>
</g>
</g>
<!-- functions&#45;&gt;functions_ -->
<g id="edge40" class="edge">
<title>functions&#45;&gt;functions_</title>
<path fill="none" stroke="gray" d="M136.66,-697.5C156.58,-697.5 176.5,-697.5 196.42,-697.5"/>
<polygon fill="gray" stroke="gray" points="196.49,-699.25 201.49,-697.5 196.49,-695.75 196.49,-699.25"/>
</g>
<!-- layers -->
<g id="node64" class="node">
<title>layers</title>
<g id="a_node64"><a xlink:title="Functionalities are divided to common layers. It is approximate division.">
<polygon fill="lightgray" stroke="black" stroke-width="0" points="119,-662 39,-662 39,-628 119,-628 119,-662"/>
<text text-anchor="middle" x="79" y="-638.8" font-family="Ubuntu" font-size="24.00">layers</text>
</a>
</g>
</g>
<!-- functions&#45;&gt;layers -->
<!-- usr_ -->
<!-- usr -->
<g id="node47" class="node">
<title>usr</title>
<ellipse fill="#d9e7ee" stroke="black" stroke-width="0" cx="79" cy="-578" rx="79" ry="36"/>
<text text-anchor="middle" x="79" y="-584.8" font-family="Ubuntu" font-size="24.00">user space</text>
<text text-anchor="middle" x="79" y="-558.8" font-family="Ubuntu" font-size="24.00">interfaces</text>
</g>
<!-- usr&#45;&gt;usr_ -->
<g id="edge56" class="edge">
<title>usr&#45;&gt;usr_</title>
<path fill="none" stroke="#d9e7ee" stroke-width="6" d="M158.04,-578C170.86,-578 183.68,-578 196.5,-578"/>
<polygon fill="#d9e7ee" stroke="#d9e7ee" stroke-width="6" points="196.6,-580.63 201.6,-578 196.6,-575.38 196.6,-580.63"/>
</g>
<!-- virt -->
<g id="node51" class="node">
<title>virt</title>
<polygon fill="#b2d3e4" stroke="black" stroke-width="0" points="158,-528 0,-528 0,-456 158,-456 158,-528"/>
<text text-anchor="middle" x="79" y="-498.8" font-family="Ubuntu" font-size="24.00">virtual</text>
<text text-anchor="middle" x="79" y="-472.8" font-family="Ubuntu" font-size="24.00">subsystems</text>
</g>
<!-- usr&#45;&gt;virt -->
<g id="edge57" class="edge">
<title>usr&#45;&gt;virt</title>
<path fill="none" stroke="#d9e7ee" stroke-width="6" d="M79,-541.86C79,-537.37 79,-532.76 79,-528.27"/>
</g>
<!-- MA -->
<g id="node48" class="node">
<title>MA</title>
<ellipse fill="#d9e7ee" stroke="#51bf5b" stroke-width="6" cx="1045" cy="-578" rx="79" ry="36"/>
<text text-anchor="middle" x="1045" y="-584.8" font-family="Ubuntu" font-size="24.00">memory</text>
<text text-anchor="middle" x="1045" y="-558.8" font-family="Ubuntu" font-size="24.00">access</text>
</g>
<!-- VM -->
<g id="node52" class="node">
<title>VM</title>
<polygon fill="#b2d3e4" stroke="#51bf5b" stroke-width="6" points="1124,-528 966,-528 966,-456 1124,-456 1124,-528"/>
<text text-anchor="middle" x="1045" y="-498.8" font-family="Ubuntu" font-size="24.00">Virtual</text>
<text text-anchor="middle" x="1045" y="-472.8" font-family="Ubuntu" font-size="24.00">memory</text>
</g>
<!-- MA&#45;&gt;VM -->
<g id="edge51" class="edge">
<title>MA&#45;&gt;VM</title>
<path fill="none" stroke="#51bf5b" stroke-width="6" d="M1045,-541.86C1045,-537.37 1045,-532.76 1045,-528.27"/>
</g>
<!-- memory_&#45;&gt;MA -->
<!-- D0 -->
<!-- virt&#45;&gt;D0 -->
<g id="edge58" class="edge">
<title>virt&#45;&gt;D0</title>
<path fill="none" stroke="#b2d3e4" stroke-width="6" d="M158.28,-492C170.94,-492 183.61,-492 196.27,-492"/>
<polygon fill="#b2d3e4" stroke="#b2d3e4" stroke-width="6" points="196.32,-494.63 201.32,-492 196.32,-489.38 196.32,-494.63"/>
</g>
<!-- bridges -->
<g id="node54" class="node">
<title>bridges</title>
<polygon fill="#91b5c9" stroke="black" stroke-width="0" points="158,-391.09 158,-420.91 111.72,-442 46.28,-442 0,-420.91 0,-391.09 46.28,-370 111.72,-370 158,-391.09"/>
<text text-anchor="middle" x="79" y="-399.8" font-family="Ubuntu" font-size="24.00">bridges</text>
</g>
<!-- virt&#45;&gt;bridges -->
<g id="edge59" class="edge">
<title>virt&#45;&gt;bridges</title>
<path fill="none" stroke="#b2d3e4" stroke-width="6" d="M79,-455.86C79,-451.37 79,-446.76 79,-442.27"/>
</g>
<!-- VM&#45;&gt;mmap -->
<g id="edge52" class="edge">
<title>VM&#45;&gt;mmap</title>
<path fill="none" stroke="#51bf5b" stroke-width="6" d="M1045,-455.86C1045,-448.94 1045,-441.76 1045,-435.11"/>
</g>
<!-- E0 -->
<!-- bridges&#45;&gt;E0 -->
<g id="edge60" class="edge">
<title>bridges&#45;&gt;E0</title>
<path fill="none" stroke="#91b5c9" stroke-width="6" d="M158.28,-406C170.94,-406 183.61,-406 196.27,-406"/>
<polygon fill="#91b5c9" stroke="#91b5c9" stroke-width="6" points="196.32,-408.63 201.32,-406 196.32,-403.38 196.32,-408.63"/>
</g>
<!-- logical -->
<g id="node56" class="node">
<title>logical</title>
<polygon fill="#6a9ab1" stroke="black" stroke-width="0" points="158,-344 0,-344 0,-272 158,-272 158,-344"/>
<text text-anchor="middle" x="79" y="-301.8" font-family="Ubuntu" font-size="24.00">logical</text>
</g>
<!-- bridges&#45;&gt;logical -->
<g id="edge61" class="edge">
<title>bridges&#45;&gt;logical</title>
<path fill="none" stroke="#91b5c9" stroke-width="6" d="M79,-369.8C79,-361.45 79,-352.55 79,-344.2"/>
</g>
<!-- F0 -->
<!-- logical&#45;&gt;F0 -->
<g id="edge62" class="edge">
<title>logical&#45;&gt;F0</title>
<path fill="none" stroke="#6a9ab1" stroke-width="6" d="M158.28,-308C170.94,-308 183.61,-308 196.27,-308"/>
<polygon fill="#6a9ab1" stroke="#6a9ab1" stroke-width="6" points="196.32,-310.63 201.32,-308 196.32,-305.38 196.32,-310.63"/>
</g>
<!-- HWI -->
<g id="node59" class="node">
<title>HWI</title>
<polygon fill="#71809b" stroke="black" stroke-width="0" points="158,-245 0,-245 0,-173 158,-173 158,-245"/>
<text text-anchor="middle" x="79" y="-215.8" font-family="Ubuntu" font-size="24.00">hardware</text>
<text text-anchor="middle" x="79" y="-189.8" font-family="Ubuntu" font-size="24.00">interfaces</text>
</g>
<!-- logical&#45;&gt;HWI -->
<g id="edge63" class="edge">
<title>logical&#45;&gt;HWI</title>
<path fill="none" stroke="#6a9ab1" stroke-width="6" d="M79,-271.98C79,-263.3 79,-253.99 79,-245.29"/>
</g>
<!-- log_mem&#45;&gt;PA -->
<g id="edge53" class="edge">
<title>log_mem&#45;&gt;PA</title>
<path fill="none" stroke="#51bf5b" stroke-width="6" d="M1045,-271.98C1045,-263.3 1045,-253.99 1045,-245.29"/>
</g>
<!-- G0 -->
<!-- HWI&#45;&gt;G0 -->
<g id="edge64" class="edge">
<title>HWI&#45;&gt;G0</title>
<path fill="none" stroke="#71809b" stroke-width="6" d="M158.28,-209C170.94,-209 183.61,-209 196.27,-209"/>
<polygon fill="#71809b" stroke="#71809b" stroke-width="6" points="196.32,-211.63 201.32,-209 196.32,-206.38 196.32,-211.63"/>
</g>
<!-- HW -->
<g id="node61" class="node">
<title>HW</title>
<polygon fill="#777777" stroke="black" stroke-width="0" points="158,-158 0,-158 0,-86 158,-86 158,-158"/>
<text text-anchor="middle" x="79" y="-128.8" font-family="Ubuntu" font-size="24.00" fill="white">electronics,</text>
<text text-anchor="middle" x="79" y="-102.8" font-family="Ubuntu" font-size="24.00" fill="white">hardware</text>
</g>
<!-- HWI&#45;&gt;HW -->
<g id="edge65" class="edge">
<title>HWI&#45;&gt;HW</title>
<path fill="none" stroke="#71809b" stroke-width="6" d="M79,-172.94C79,-168.09 79,-163.11 79,-158.26"/>
</g>
<!-- H0 -->
<!-- HW&#45;&gt;H0 -->
<g id="edge66" class="edge">
<title>HW&#45;&gt;H0</title>
<path fill="none" stroke="#777777" stroke-width="6" d="M158.28,-122C170.94,-122 183.61,-122 196.27,-122"/>
<polygon fill="#777777" stroke="#777777" stroke-width="6" points="196.32,-124.63 201.32,-122 196.32,-119.38 196.32,-124.63"/>
</g>
<!-- layers&#45;&gt;usr -->
<g id="edge67" class="edge">
<title>layers&#45;&gt;usr</title>
<path fill="none" stroke="gray" d="M79,-627.93C79,-625.3 79,-622.47 79,-619.56"/>
<polygon fill="gray" stroke="gray" points="80.75,-619.22 79,-614.22 77.25,-619.22 80.75,-619.22"/>
</g>
<!-- LKD -->
<g id="node65" class="node">
<title>LKD</title>
<text text-anchor="middle" x="711" y="-745" font-family="Ubuntu" font-size="40.00">Linux kernel diagram</text>
</g>
<!-- LKD&#45;&gt;storage -->
</g>
</svg>
