<?xml version="1.0" encoding="UTF-8" standalone="no"?>
<!DOCTYPE svg PUBLIC "-//W3C//DTD SVG 1.1//EN"
 "http://www.w3.org/Graphics/SVG/1.1/DTD/svg11.dtd">
<!-- Generated by graphviz version 2.43.0 (0)
 -->
<!-- Title: Ped_Lion_Share Pages: 1 -->
<svg width="750pt" height="731pt"
 viewBox="0.00 0.00 750.35 731.48" xmlns="http://www.w3.org/2000/svg" xmlns:xlink="http://www.w3.org/1999/xlink">
<g id="graph0" class="graph" transform="scale(1 1) rotate(0) translate(4 727.48)">
<title>Ped_Lion_Share</title>
<polygon fill="white" stroke="transparent" points="-4,4 -4,-727.48 746.35,-727.48 746.35,4 -4,4"/>
<text text-anchor="middle" x="371.17" y="-7.8" font-family="Helvetica,Arial,sans-serif" font-size="14.00">Pedigree Lion_Share</text>
<!-- 001 -->
<g id="node1" class="node">
<title>001</title>
<polygon fill="white" stroke="black" points="271,-711.13 232,-711.13 232,-672.13 271,-672.13 271,-711.13"/>
<text text-anchor="middle" x="251.5" y="-687.93" font-family="Helvetica,Arial,sans-serif" font-size="14.00">001</text>
</g>
<!-- marr0001 -->
<g id="node31" class="node">
<title>marr0001</title>
<polygon fill="lightgrey" stroke="black" points="345.5,-623.78 342,-620.28 345.5,-616.78 349,-620.28 345.5,-623.78"/>
</g>
<!-- 001&#45;&gt;marr0001 -->
<g id="edge1" class="edge">
<title>001&#45;&gt;marr0001</title>
<path fill="none" stroke="black" d="M271.43,-675.92C296.01,-657.79 335.56,-628.62 343.92,-622.45"/>
</g>
<!-- marr0002 -->
<g id="node32" class="node">
<title>marr0002</title>
<polygon fill="lightgrey" stroke="black" points="151.5,-623.78 148,-620.28 151.5,-616.78 155,-620.28 151.5,-623.78"/>
</g>
<!-- 001&#45;&gt;marr0002 -->
<g id="edge4" class="edge">
<title>001&#45;&gt;marr0002</title>
<path fill="none" stroke="black" d="M231.74,-676.93C205.79,-658.93 162.42,-628.85 153.24,-622.49"/>
</g>
<!-- 002 -->
<g id="node2" class="node">
<title>002</title>
<polygon fill="white" stroke="black" points="545,-711.13 506,-711.13 506,-672.13 545,-672.13 545,-711.13"/>
<text text-anchor="middle" x="525.5" y="-687.93" font-family="Helvetica,Arial,sans-serif" font-size="14.00">002</text>
</g>
<!-- marr0003 -->
<g id="node33" class="node">
<title>marr0003</title>
<polygon fill="lightgrey" stroke="black" points="410.5,-623.78 407,-620.28 410.5,-616.78 414,-620.28 410.5,-623.78"/>
</g>
<!-- 002&#45;&gt;marr0003 -->
<g id="edge7" class="edge">
<title>002&#45;&gt;marr0003</title>
<path fill="none" stroke="black" d="M505.99,-678.87C476.26,-660.94 421.99,-628.21 412.08,-622.23"/>
</g>
<!-- marr0004 -->
<g id="node34" class="node">
<title>marr0004</title>
<polygon fill="lightgrey" stroke="black" points="472.5,-494.09 469,-490.59 472.5,-487.09 476,-490.59 472.5,-494.09"/>
</g>
<!-- 002&#45;&gt;marr0004 -->
<g id="edge10" class="edge">
<title>002&#45;&gt;marr0004</title>
<path fill="none" stroke="black" d="M526.8,-671.87C528.19,-640.9 527.82,-577.74 506.5,-530.09 498.64,-512.5 479.84,-497.18 474.15,-492.82"/>
</g>
<!-- marr0005 -->
<g id="node35" class="node">
<title>marr0005</title>
<polygon fill="lightgrey" stroke="black" points="710.5,-623.78 707,-620.28 710.5,-616.78 714,-620.28 710.5,-623.78"/>
</g>
<!-- 002&#45;&gt;marr0005 -->
<g id="edge13" class="edge">
<title>002&#45;&gt;marr0005</title>
<path fill="none" stroke="black" d="M545.3,-683.21C589.29,-666.72 692.57,-628 708.44,-622.05"/>
</g>
<!-- 003 -->
<g id="node3" class="node">
<title>003</title>
<ellipse fill="white" stroke="black" cx="411.5" cy="-691.63" rx="25.2" ry="25.2"/>
<text text-anchor="middle" x="411.5" y="-687.93" font-family="Helvetica,Arial,sans-serif" font-size="14.00">003</text>
</g>
<!-- 003&#45;&gt;marr0003 -->
<g id="edge8" class="edge">
<title>003&#45;&gt;marr0003</title>
<path fill="none" stroke="black" d="M411.14,-665.98C410.92,-650.1 410.64,-631.15 410.54,-624.1"/>
</g>
<!-- 004 -->
<g id="node4" class="node">
<title>004</title>
<polygon fill="white" stroke="black" points="39,-574.93 0,-574.93 0,-535.93 39,-535.93 39,-574.93"/>
<text text-anchor="middle" x="19.5" y="-551.73" font-family="Helvetica,Arial,sans-serif" font-size="14.00">004</text>
</g>
<!-- marr0006 -->
<g id="node36" class="node">
<title>marr0006</title>
<polygon fill="lightgrey" stroke="black" points="82.5,-494.09 79,-490.59 82.5,-487.09 86,-490.59 82.5,-494.09"/>
</g>
<!-- 004&#45;&gt;marr0006 -->
<g id="edge16" class="edge">
<title>004&#45;&gt;marr0006</title>
<path fill="none" stroke="black" d="M38.06,-535.92C54.03,-519.99 75.37,-498.7 81.06,-493.02"/>
</g>
<!-- 005 -->
<g id="node5" class="node">
<title>005</title>
<polygon fill="white" stroke="black" points="303,-574.93 264,-574.93 264,-535.93 303,-535.93 303,-574.93"/>
<text text-anchor="middle" x="283.5" y="-551.73" font-family="Helvetica,Arial,sans-serif" font-size="14.00">005</text>
</g>
<!-- marr0007 -->
<g id="node37" class="node">
<title>marr0007</title>
<polygon fill="lightgrey" stroke="black" points="283.5,-494.09 280,-490.59 283.5,-487.09 287,-490.59 283.5,-494.09"/>
</g>
<!-- 005&#45;&gt;marr0007 -->
<g id="edge19" class="edge">
<title>005&#45;&gt;marr0007</title>
<path fill="none" stroke="black" d="M283.5,-535.92C283.5,-520.86 283.5,-501 283.5,-494.09"/>
</g>
<!-- marr0008 -->
<g id="node38" class="node">
<title>marr0008</title>
<polygon fill="lightgrey" stroke="black" points="557.5,-494.09 554,-490.59 557.5,-487.09 561,-490.59 557.5,-494.09"/>
</g>
<!-- 005&#45;&gt;marr0008 -->
<g id="edge22" class="edge">
<title>005&#45;&gt;marr0008</title>
<path fill="none" stroke="black" d="M302.81,-535.86C305.88,-533.63 309.15,-531.61 312.5,-530.09 359.33,-508.77 532.26,-493.7 555.02,-491.79"/>
</g>
<!-- marr0009 -->
<g id="node39" class="node">
<title>marr0009</title>
<polygon fill="lightgrey" stroke="black" points="183.5,-494.09 180,-490.59 183.5,-487.09 187,-490.59 183.5,-494.09"/>
</g>
<!-- 005&#45;&gt;marr0009 -->
<g id="edge25" class="edge">
<title>005&#45;&gt;marr0009</title>
<path fill="none" stroke="black" d="M263.95,-537.12C260.86,-534.66 257.65,-532.23 254.5,-530.09 228.54,-512.41 193.65,-496.19 185.33,-492.41"/>
</g>
<!-- 006 -->
<g id="node6" class="node">
<title>006</title>
<ellipse fill="white" stroke="black" cx="472.5" cy="-555.43" rx="25.2" ry="25.2"/>
<text text-anchor="middle" x="472.5" y="-551.73" font-family="Helvetica,Arial,sans-serif" font-size="14.00">006</text>
</g>
<!-- 006&#45;&gt;marr0004 -->
<g id="edge11" class="edge">
<title>006&#45;&gt;marr0004</title>
<path fill="none" stroke="black" d="M472.5,-529.96C472.5,-516.17 472.5,-500.51 472.5,-494.31"/>
</g>
<!-- 007 -->
<g id="node7" class="node">
<title>007</title>
<ellipse fill="white" stroke="black" cx="342.5" cy="-691.63" rx="25.2" ry="25.2"/>
<text text-anchor="middle" x="342.5" y="-687.93" font-family="Helvetica,Arial,sans-serif" font-size="14.00">007</text>
</g>
<!-- 007&#45;&gt;marr0001 -->
<g id="edge2" class="edge">
<title>007&#45;&gt;marr0001</title>
<path fill="none" stroke="black" d="M343.57,-665.98C344.27,-649.79 345.11,-630.4 345.4,-623.7"/>
</g>
<!-- 009 -->
<g id="node8" class="node">
<title>009</title>
<ellipse fill="white" stroke="black" cx="82.5" cy="-555.43" rx="25.2" ry="25.2"/>
<text text-anchor="middle" x="82.5" y="-551.73" font-family="Helvetica,Arial,sans-serif" font-size="14.00">009</text>
</g>
<!-- 009&#45;&gt;marr0006 -->
<g id="edge17" class="edge">
<title>009&#45;&gt;marr0006</title>
<path fill="none" stroke="black" d="M82.5,-529.96C82.5,-516.17 82.5,-500.51 82.5,-494.31"/>
</g>
<!-- 014 -->
<g id="node9" class="node">
<title>014</title>
<ellipse fill="white" stroke="black" cx="647.5" cy="-555.43" rx="25.2" ry="25.2"/>
<text text-anchor="middle" x="647.5" y="-551.73" font-family="Helvetica,Arial,sans-serif" font-size="14.00">014</text>
</g>
<!-- marr0012 -->
<g id="node42" class="node">
<title>marr0012</title>
<polygon fill="lightgrey" stroke="black" points="647.5,-494.09 644,-490.59 647.5,-487.09 651,-490.59 647.5,-494.09"/>
</g>
<!-- 014&#45;&gt;marr0012 -->
<g id="edge35" class="edge">
<title>014&#45;&gt;marr0012</title>
<path fill="none" stroke="black" d="M647.5,-529.96C647.5,-516.17 647.5,-500.51 647.5,-494.31"/>
</g>
<!-- 015 -->
<g id="node10" class="node">
<title>015</title>
<ellipse fill="white" stroke="black" cx="220.5" cy="-555.43" rx="25.2" ry="25.2"/>
<text text-anchor="middle" x="220.5" y="-551.73" font-family="Helvetica,Arial,sans-serif" font-size="14.00">015</text>
</g>
<!-- 015&#45;&gt;marr0007 -->
<g id="edge20" class="edge">
<title>015&#45;&gt;marr0007</title>
<path fill="none" stroke="black" d="M238.05,-536.93C254.07,-520.95 276.12,-498.95 282.01,-493.08"/>
</g>
<!-- 016 -->
<g id="node11" class="node">
<title>016</title>
<ellipse fill="white" stroke="black" cx="578.5" cy="-555.43" rx="25.2" ry="25.2"/>
<text text-anchor="middle" x="578.5" y="-551.73" font-family="Helvetica,Arial,sans-serif" font-size="14.00">016</text>
</g>
<!-- 016&#45;&gt;marr0008 -->
<g id="edge23" class="edge">
<title>016&#45;&gt;marr0008</title>
<path fill="none" stroke="black" d="M570.68,-531.03C565.83,-516.51 560.16,-499.55 558.2,-493.7"/>
</g>
<!-- ZZ01 -->
<g id="node12" class="node">
<title>ZZ01</title>
<ellipse fill="white" stroke="black" cx="710.5" cy="-691.63" rx="31.7" ry="31.7"/>
<text text-anchor="middle" x="710.5" y="-687.93" font-family="Helvetica,Arial,sans-serif" font-size="14.00">ZZ01</text>
</g>
<!-- ZZ01&#45;&gt;marr0005 -->
<g id="edge14" class="edge">
<title>ZZ01&#45;&gt;marr0005</title>
<path fill="none" stroke="black" d="M710.5,-659.61C710.5,-645.18 710.5,-629.9 710.5,-623.91"/>
</g>
<!-- ZZ02 -->
<g id="node13" class="node">
<title>ZZ02</title>
<ellipse fill="white" stroke="black" cx="151.5" cy="-691.63" rx="31.7" ry="31.7"/>
<text text-anchor="middle" x="151.5" y="-687.93" font-family="Helvetica,Arial,sans-serif" font-size="14.00">ZZ02</text>
</g>
<!-- ZZ02&#45;&gt;marr0002 -->
<g id="edge5" class="edge">
<title>ZZ02&#45;&gt;marr0002</title>
<path fill="none" stroke="black" d="M151.5,-659.61C151.5,-645.18 151.5,-629.9 151.5,-623.91"/>
</g>
<!-- 017 -->
<g id="node14" class="node">
<title>017</title>
<ellipse fill="white" stroke="black" cx="346.5" cy="-555.43" rx="25.2" ry="25.2"/>
<text text-anchor="middle" x="346.5" y="-551.73" font-family="Helvetica,Arial,sans-serif" font-size="14.00">017</text>
</g>
<!-- marr0010 -->
<g id="node40" class="node">
<title>marr0010</title>
<polygon fill="lightgrey" stroke="black" points="381.5,-494.09 378,-490.59 381.5,-487.09 385,-490.59 381.5,-494.09"/>
</g>
<!-- 017&#45;&gt;marr0010 -->
<g id="edge29" class="edge">
<title>017&#45;&gt;marr0010</title>
<path fill="none" stroke="black" d="M358.55,-532.81C366.93,-517.75 377.17,-499.36 380.44,-493.49"/>
</g>
<!-- 012 -->
<g id="node15" class="node">
<title>012</title>
<ellipse fill="white" stroke="black" cx="151.5" cy="-555.43" rx="25.2" ry="25.2"/>
<text text-anchor="middle" x="151.5" y="-551.73" font-family="Helvetica,Arial,sans-serif" font-size="14.00">012</text>
</g>
<!-- 012&#45;&gt;marr0009 -->
<g id="edge26" class="edge">
<title>012&#45;&gt;marr0009</title>
<path fill="none" stroke="black" d="M162.69,-532.45C170.33,-517.44 179.59,-499.27 182.54,-493.46"/>
</g>
<!-- 008 -->
<g id="node16" class="node">
<title>008</title>
<polygon fill="white" stroke="black" points="429,-574.93 390,-574.93 390,-535.93 429,-535.93 429,-574.93"/>
<text text-anchor="middle" x="409.5" y="-551.73" font-family="Helvetica,Arial,sans-serif" font-size="14.00">008</text>
</g>
<!-- 008&#45;&gt;marr0010 -->
<g id="edge28" class="edge">
<title>008&#45;&gt;marr0010</title>
<path fill="none" stroke="black" d="M401.25,-535.92C394.28,-520.28 385.01,-499.47 382.29,-493.35"/>
</g>
<!-- 011 -->
<g id="node17" class="node">
<title>011</title>
<polygon fill="white" stroke="black" points="492,-445.24 453,-445.24 453,-406.24 492,-406.24 492,-445.24"/>
<text text-anchor="middle" x="472.5" y="-422.04" font-family="Helvetica,Arial,sans-serif" font-size="14.00">011</text>
</g>
<!-- marr0011 -->
<g id="node41" class="node">
<title>marr0011</title>
<polygon fill="lightgrey" stroke="black" points="300.5,-364.39 297,-360.89 300.5,-357.39 304,-360.89 300.5,-364.39"/>
</g>
<!-- 011&#45;&gt;marr0011 -->
<g id="edge31" class="edge">
<title>011&#45;&gt;marr0011</title>
<path fill="none" stroke="black" d="M452.87,-415.89C441.96,-411.09 428.07,-405.17 415.5,-400.39 370.63,-383.33 314.47,-366.12 302.72,-362.56"/>
</g>
<!-- 013 -->
<g id="node18" class="node">
<title>013</title>
<polygon fill="white" stroke="black" points="730,-574.93 691,-574.93 691,-535.93 730,-535.93 730,-574.93"/>
<text text-anchor="middle" x="710.5" y="-551.73" font-family="Helvetica,Arial,sans-serif" font-size="14.00">013</text>
</g>
<!-- 013&#45;&gt;marr0012 -->
<g id="edge34" class="edge">
<title>013&#45;&gt;marr0012</title>
<path fill="none" stroke="black" d="M691.94,-535.92C675.97,-519.99 654.63,-498.7 648.94,-493.02"/>
</g>
<!-- 010 -->
<g id="node19" class="node">
<title>010</title>
<polygon fill="white" stroke="black" points="102,-445.24 63,-445.24 63,-406.24 102,-406.24 102,-445.24"/>
<text text-anchor="middle" x="82.5" y="-422.04" font-family="Helvetica,Arial,sans-serif" font-size="14.00">010</text>
</g>
<!-- marr0013 -->
<g id="node43" class="node">
<title>marr0013</title>
<polygon fill="lightgrey" stroke="black" points="183.5,-364.39 180,-360.89 183.5,-357.39 187,-360.89 183.5,-364.39"/>
</g>
<!-- 010&#45;&gt;marr0013 -->
<g id="edge37" class="edge">
<title>010&#45;&gt;marr0013</title>
<path fill="none" stroke="black" d="M102.45,-412.32C128.67,-396.01 172.48,-368.75 181.74,-362.98"/>
</g>
<!-- 023 -->
<g id="node20" class="node">
<title>023</title>
<ellipse fill="white" stroke="black" cx="283.5" cy="-425.74" rx="25.2" ry="25.2"/>
<text text-anchor="middle" x="283.5" y="-422.04" font-family="Helvetica,Arial,sans-serif" font-size="14.00">023</text>
</g>
<!-- 023&#45;&gt;marr0011 -->
<g id="edge32" class="edge">
<title>023&#45;&gt;marr0011</title>
<path fill="none" stroke="black" d="M289.93,-400.98C293.84,-386.52 298.37,-369.75 299.94,-363.97"/>
</g>
<!-- 020 -->
<g id="node21" class="node">
<title>020</title>
<ellipse fill="white" stroke="black" cx="557.5" cy="-425.74" rx="25.2" ry="25.2"/>
<text text-anchor="middle" x="557.5" y="-422.04" font-family="Helvetica,Arial,sans-serif" font-size="14.00">020</text>
</g>
<!-- marr0014 -->
<g id="node44" class="node">
<title>marr0014</title>
<polygon fill="lightgrey" stroke="black" points="557.5,-364.39 554,-360.89 557.5,-357.39 561,-360.89 557.5,-364.39"/>
</g>
<!-- 020&#45;&gt;marr0014 -->
<g id="edge41" class="edge">
<title>020&#45;&gt;marr0014</title>
<path fill="none" stroke="black" d="M557.5,-400.26C557.5,-386.47 557.5,-370.81 557.5,-364.62"/>
</g>
<!-- 021 -->
<g id="node22" class="node">
<title>021</title>
<ellipse fill="white" stroke="black" cx="183.5" cy="-425.74" rx="25.2" ry="25.2"/>
<text text-anchor="middle" x="183.5" y="-422.04" font-family="Helvetica,Arial,sans-serif" font-size="14.00">021</text>
</g>
<!-- 021&#45;&gt;marr0013 -->
<g id="edge38" class="edge">
<title>021&#45;&gt;marr0013</title>
<path fill="none" stroke="black" d="M183.5,-400.26C183.5,-386.47 183.5,-370.81 183.5,-364.62"/>
</g>
<!-- 018 -->
<g id="node23" class="node">
<title>018</title>
<ellipse fill="white" stroke="black" cx="381.5" cy="-425.74" rx="25.2" ry="25.2"/>
<text text-anchor="middle" x="381.5" y="-422.04" font-family="Helvetica,Arial,sans-serif" font-size="14.00">018</text>
</g>
<!-- marr0016 -->
<g id="node46" class="node">
<title>marr0016</title>
<polygon fill="lightgrey" stroke="black" points="381.5,-234.7 378,-231.2 381.5,-227.7 385,-231.2 381.5,-234.7"/>
</g>
<!-- 018&#45;&gt;marr0016 -->
<g id="edge47" class="edge">
<title>018&#45;&gt;marr0016</title>
<path fill="none" stroke="black" d="M381.5,-400.35C381.5,-353.4 381.5,-253.44 381.5,-235.11"/>
</g>
<!-- 025 -->
<g id="node24" class="node">
<title>025</title>
<ellipse fill="white" stroke="black" cx="300.5" cy="-296.04" rx="25.2" ry="25.2"/>
<text text-anchor="middle" x="300.5" y="-292.34" font-family="Helvetica,Arial,sans-serif" font-size="14.00">025</text>
</g>
<!-- marr0015 -->
<g id="node45" class="node">
<title>marr0015</title>
<polygon fill="lightgrey" stroke="black" points="300.5,-234.7 297,-231.2 300.5,-227.7 304,-231.2 300.5,-234.7"/>
</g>
<!-- 025&#45;&gt;marr0015 -->
<g id="edge44" class="edge">
<title>025&#45;&gt;marr0015</title>
<path fill="none" stroke="black" d="M300.5,-270.56C300.5,-256.78 300.5,-241.11 300.5,-234.92"/>
</g>
<!-- 019 -->
<g id="node25" class="node">
<title>019</title>
<polygon fill="white" stroke="black" points="667,-445.24 628,-445.24 628,-406.24 667,-406.24 667,-445.24"/>
<text text-anchor="middle" x="647.5" y="-422.04" font-family="Helvetica,Arial,sans-serif" font-size="14.00">019</text>
</g>
<!-- 019&#45;&gt;marr0014 -->
<g id="edge40" class="edge">
<title>019&#45;&gt;marr0014</title>
<path fill="none" stroke="black" d="M627.97,-411.1C604.4,-394.64 566.92,-368.47 559,-362.94"/>
</g>
<!-- 022 -->
<g id="node26" class="node">
<title>022</title>
<polygon fill="white" stroke="black" points="203,-315.54 164,-315.54 164,-276.54 203,-276.54 203,-315.54"/>
<text text-anchor="middle" x="183.5" y="-292.34" font-family="Helvetica,Arial,sans-serif" font-size="14.00">022</text>
</g>
<!-- 022&#45;&gt;marr0015 -->
<g id="edge43" class="edge">
<title>022&#45;&gt;marr0015</title>
<path fill="none" stroke="black" d="M203.08,-284.52C233.01,-268.45 287.8,-239.02 298.62,-233.21"/>
</g>
<!-- 024 -->
<g id="node27" class="node">
<title>024</title>
<polygon fill="white" stroke="black" points="577,-315.54 538,-315.54 538,-276.54 577,-276.54 577,-315.54"/>
<text text-anchor="middle" x="557.5" y="-292.34" font-family="Helvetica,Arial,sans-serif" font-size="14.00">024</text>
</g>
<!-- 024&#45;&gt;marr0016 -->
<g id="edge46" class="edge">
<title>024&#45;&gt;marr0016</title>
<path fill="none" stroke="black" d="M537.99,-288.08C495.75,-272.99 398.4,-238.23 383.44,-232.89"/>
</g>
<!-- 027 -->
<g id="node28" class="node">
<title>027</title>
<ellipse fill="white" stroke="black" cx="300.5" cy="-166.35" rx="25.2" ry="25.2"/>
<text text-anchor="middle" x="300.5" y="-162.65" font-family="Helvetica,Arial,sans-serif" font-size="14.00">027</text>
</g>
<!-- marr0017 -->
<g id="node47" class="node">
<title>marr0017</title>
<polygon fill="lightgrey" stroke="black" points="363.5,-105 360,-101.5 363.5,-98 367,-101.5 363.5,-105"/>
</g>
<!-- 027&#45;&gt;marr0017 -->
<g id="edge50" class="edge">
<title>027&#45;&gt;marr0017</title>
<path fill="none" stroke="black" d="M318.05,-147.84C334.07,-131.86 356.12,-109.86 362.01,-103.99"/>
</g>
<!-- 026 -->
<g id="node29" class="node">
<title>026</title>
<polygon fill="white" stroke="black" points="401,-185.85 362,-185.85 362,-146.85 401,-146.85 401,-185.85"/>
<text text-anchor="middle" x="381.5" y="-162.65" font-family="Helvetica,Arial,sans-serif" font-size="14.00">026</text>
</g>
<!-- 026&#45;&gt;marr0017 -->
<g id="edge49" class="edge">
<title>026&#45;&gt;marr0017</title>
<path fill="none" stroke="black" d="M376.2,-146.83C371.8,-131.48 365.98,-111.15 364.11,-104.62"/>
</g>
<!-- 028 -->
<g id="node30" class="node">
<title>028</title>
<polygon fill="grey" stroke="black" points="383,-62 344,-62 344,-23 383,-23 383,-62"/>
<text text-anchor="middle" x="363.5" y="-38.8" font-family="Helvetica,Arial,sans-serif" font-size="14.00">028</text>
</g>
<!-- marr0001&#45;&gt;017 -->
<g id="edge3" class="edge">
<title>marr0001&#45;&gt;017</title>
<path fill="none" stroke="black" d="M345.54,-616.58C345.64,-610.43 345.89,-594.82 346.11,-581.05"/>
</g>
<!-- marr0002&#45;&gt;012 -->
<g id="edge6" class="edge">
<title>marr0002&#45;&gt;012</title>
<path fill="none" stroke="black" d="M151.5,-616.58C151.5,-610.43 151.5,-594.82 151.5,-581.05"/>
</g>
<!-- marr0003&#45;&gt;008 -->
<g id="edge9" class="edge">
<title>marr0003&#45;&gt;008</title>
<path fill="none" stroke="black" d="M410.46,-616.58C410.34,-609.53 410.04,-590.09 409.8,-575.21"/>
</g>
<!-- marr0004&#45;&gt;011 -->
<g id="edge12" class="edge">
<title>marr0004&#45;&gt;011</title>
<path fill="none" stroke="black" d="M472.5,-486.89C472.5,-479.84 472.5,-460.4 472.5,-445.51"/>
</g>
<!-- marr0005&#45;&gt;013 -->
<g id="edge15" class="edge">
<title>marr0005&#45;&gt;013</title>
<path fill="none" stroke="black" d="M710.5,-616.58C710.5,-609.53 710.5,-590.09 710.5,-575.21"/>
</g>
<!-- marr0006&#45;&gt;010 -->
<g id="edge18" class="edge">
<title>marr0006&#45;&gt;010</title>
<path fill="none" stroke="black" d="M82.5,-486.89C82.5,-479.84 82.5,-460.4 82.5,-445.51"/>
</g>
<!-- marr0007&#45;&gt;023 -->
<g id="edge21" class="edge">
<title>marr0007&#45;&gt;023</title>
<path fill="none" stroke="black" d="M283.5,-486.89C283.5,-480.73 283.5,-465.12 283.5,-451.35"/>
</g>
<!-- marr0008&#45;&gt;020 -->
<g id="edge24" class="edge">
<title>marr0008&#45;&gt;020</title>
<path fill="none" stroke="black" d="M557.5,-486.89C557.5,-480.73 557.5,-465.12 557.5,-451.35"/>
</g>
<!-- marr0009&#45;&gt;021 -->
<g id="edge27" class="edge">
<title>marr0009&#45;&gt;021</title>
<path fill="none" stroke="black" d="M183.5,-486.89C183.5,-480.73 183.5,-465.12 183.5,-451.35"/>
</g>
<!-- marr0010&#45;&gt;018 -->
<g id="edge30" class="edge">
<title>marr0010&#45;&gt;018</title>
<path fill="none" stroke="black" d="M381.5,-486.89C381.5,-480.73 381.5,-465.12 381.5,-451.35"/>
</g>
<!-- marr0011&#45;&gt;025 -->
<g id="edge33" class="edge">
<title>marr0011&#45;&gt;025</title>
<path fill="none" stroke="black" d="M300.5,-357.19C300.5,-351.03 300.5,-335.43 300.5,-321.66"/>
</g>
<!-- marr0012&#45;&gt;019 -->
<g id="edge36" class="edge">
<title>marr0012&#45;&gt;019</title>
<path fill="none" stroke="black" d="M647.5,-486.89C647.5,-479.84 647.5,-460.4 647.5,-445.51"/>
</g>
<!-- marr0013&#45;&gt;022 -->
<g id="edge39" class="edge">
<title>marr0013&#45;&gt;022</title>
<path fill="none" stroke="black" d="M183.5,-357.19C183.5,-350.14 183.5,-330.7 183.5,-315.81"/>
</g>
<!-- marr0014&#45;&gt;024 -->
<g id="edge42" class="edge">
<title>marr0014&#45;&gt;024</title>
<path fill="none" stroke="black" d="M557.5,-357.19C557.5,-350.14 557.5,-330.7 557.5,-315.81"/>
</g>
<!-- marr0015&#45;&gt;027 -->
<g id="edge45" class="edge">
<title>marr0015&#45;&gt;027</title>
<path fill="none" stroke="black" d="M300.5,-227.5C300.5,-221.34 300.5,-205.73 300.5,-191.96"/>
</g>
<!-- marr0016&#45;&gt;026 -->
<g id="edge48" class="edge">
<title>marr0016&#45;&gt;026</title>
<path fill="none" stroke="black" d="M381.5,-227.5C381.5,-220.45 381.5,-201.01 381.5,-186.12"/>
</g>
<!-- marr0017&#45;&gt;028 -->
<g id="edge51" class="edge">
<title>marr0017&#45;&gt;028</title>
<path fill="none" stroke="black" d="M363.5,-97.75C363.5,-91.39 363.5,-75.21 363.5,-62.16"/>
</g>
</g>
</svg>
