<?xml version="1.0" encoding="UTF-8" standalone="no"?>
<!DOCTYPE svg PUBLIC "-//W3C//DTD SVG 1.1//EN"
 "http://www.w3.org/Graphics/SVG/1.1/DTD/svg11.dtd">
<!-- Generated by graphviz version 2.43.0 (0)
 -->
<!-- Title: G Pages: 1 -->
<svg width="832pt" height="387pt"
 viewBox="0.00 0.00 831.50 387.00" xmlns="http://www.w3.org/2000/svg" xmlns:xlink="http://www.w3.org/1999/xlink">
<g id="graph0" class="graph" transform="scale(1 1) rotate(0) translate(4 383)">
<title>G</title>
<polygon fill="white" stroke="transparent" points="-4,4 -4,-383 827.5,-383 827.5,4 -4,4"/>
<!-- 140087530674552 -->
<g id="node1" class="node">
<title>140087530674552</title>
<polygon fill="none" stroke="black" points="41,-332.5 41,-378.5 264,-378.5 264,-332.5 41,-332.5"/>
<text text-anchor="middle" x="95.5" y="-351.8" font-family="Helvetica,Arial,sans-serif" font-size="14.00">title: InputLayer</text>
<polyline fill="none" stroke="black" points="150,-332.5 150,-378.5 "/>
<text text-anchor="middle" x="179" y="-363.3" font-family="Helvetica,Arial,sans-serif" font-size="14.00">input:</text>
<polyline fill="none" stroke="black" points="150,-355.5 208,-355.5 "/>
<text text-anchor="middle" x="179" y="-340.3" font-family="Helvetica,Arial,sans-serif" font-size="14.00">output:</text>
<polyline fill="none" stroke="black" points="208,-332.5 208,-378.5 "/>
<text text-anchor="middle" x="236" y="-363.3" font-family="Helvetica,Arial,sans-serif" font-size="14.00">[(?, ?)]</text>
<polyline fill="none" stroke="black" points="208,-355.5 264,-355.5 "/>
<text text-anchor="middle" x="236" y="-340.3" font-family="Helvetica,Arial,sans-serif" font-size="14.00">[(?, ?)]</text>
</g>
<!-- 140087531105640 -->
<g id="node3" class="node">
<title>140087531105640</title>
<polygon fill="none" stroke="black" points="0,-249.5 0,-295.5 305,-295.5 305,-249.5 0,-249.5"/>
<text text-anchor="middle" x="88" y="-268.8" font-family="Helvetica,Arial,sans-serif" font-size="14.00">embedding_2: Embedding</text>
<polyline fill="none" stroke="black" points="176,-249.5 176,-295.5 "/>
<text text-anchor="middle" x="205" y="-280.3" font-family="Helvetica,Arial,sans-serif" font-size="14.00">input:</text>
<polyline fill="none" stroke="black" points="176,-272.5 234,-272.5 "/>
<text text-anchor="middle" x="205" y="-257.3" font-family="Helvetica,Arial,sans-serif" font-size="14.00">output:</text>
<polyline fill="none" stroke="black" points="234,-249.5 234,-295.5 "/>
<text text-anchor="middle" x="269.5" y="-280.3" font-family="Helvetica,Arial,sans-serif" font-size="14.00">(?, ?)</text>
<polyline fill="none" stroke="black" points="234,-272.5 305,-272.5 "/>
<text text-anchor="middle" x="269.5" y="-257.3" font-family="Helvetica,Arial,sans-serif" font-size="14.00">(?, ?, 64)</text>
</g>
<!-- 140087530674552&#45;&gt;140087531105640 -->
<g id="edge1" class="edge">
<title>140087530674552&#45;&gt;140087531105640</title>
<path fill="none" stroke="black" d="M152.5,-332.37C152.5,-324.15 152.5,-314.66 152.5,-305.73"/>
<polygon fill="black" stroke="black" points="156,-305.61 152.5,-295.61 149,-305.61 156,-305.61"/>
</g>
<!-- 140087537895856 -->
<g id="node2" class="node">
<title>140087537895856</title>
<polygon fill="none" stroke="black" points="360,-332.5 360,-378.5 591,-378.5 591,-332.5 360,-332.5"/>
<text text-anchor="middle" x="418.5" y="-351.8" font-family="Helvetica,Arial,sans-serif" font-size="14.00">body: InputLayer</text>
<polyline fill="none" stroke="black" points="477,-332.5 477,-378.5 "/>
<text text-anchor="middle" x="506" y="-363.3" font-family="Helvetica,Arial,sans-serif" font-size="14.00">input:</text>
<polyline fill="none" stroke="black" points="477,-355.5 535,-355.5 "/>
<text text-anchor="middle" x="506" y="-340.3" font-family="Helvetica,Arial,sans-serif" font-size="14.00">output:</text>
<polyline fill="none" stroke="black" points="535,-332.5 535,-378.5 "/>
<text text-anchor="middle" x="563" y="-363.3" font-family="Helvetica,Arial,sans-serif" font-size="14.00">[(?, ?)]</text>
<polyline fill="none" stroke="black" points="535,-355.5 591,-355.5 "/>
<text text-anchor="middle" x="563" y="-340.3" font-family="Helvetica,Arial,sans-serif" font-size="14.00">[(?, ?)]</text>
</g>
<!-- 140087530711024 -->
<g id="node4" class="node">
<title>140087530711024</title>
<polygon fill="none" stroke="black" points="323,-249.5 323,-295.5 628,-295.5 628,-249.5 323,-249.5"/>
<text text-anchor="middle" x="411" y="-268.8" font-family="Helvetica,Arial,sans-serif" font-size="14.00">embedding_3: Embedding</text>
<polyline fill="none" stroke="black" points="499,-249.5 499,-295.5 "/>
<text text-anchor="middle" x="528" y="-280.3" font-family="Helvetica,Arial,sans-serif" font-size="14.00">input:</text>
<polyline fill="none" stroke="black" points="499,-272.5 557,-272.5 "/>
<text text-anchor="middle" x="528" y="-257.3" font-family="Helvetica,Arial,sans-serif" font-size="14.00">output:</text>
<polyline fill="none" stroke="black" points="557,-249.5 557,-295.5 "/>
<text text-anchor="middle" x="592.5" y="-280.3" font-family="Helvetica,Arial,sans-serif" font-size="14.00">(?, ?)</text>
<polyline fill="none" stroke="black" points="557,-272.5 628,-272.5 "/>
<text text-anchor="middle" x="592.5" y="-257.3" font-family="Helvetica,Arial,sans-serif" font-size="14.00">(?, ?, 64)</text>
</g>
<!-- 140087537895856&#45;&gt;140087530711024 -->
<g id="edge2" class="edge">
<title>140087537895856&#45;&gt;140087530711024</title>
<path fill="none" stroke="black" d="M475.5,-332.37C475.5,-324.15 475.5,-314.66 475.5,-305.73"/>
<polygon fill="black" stroke="black" points="479,-305.61 475.5,-295.61 472,-305.61 479,-305.61"/>
</g>
<!-- 140087537980360 -->
<g id="node5" class="node">
<title>140087537980360</title>
<polygon fill="none" stroke="black" points="74.5,-166.5 74.5,-212.5 304.5,-212.5 304.5,-166.5 74.5,-166.5"/>
<text text-anchor="middle" x="125" y="-185.8" font-family="Helvetica,Arial,sans-serif" font-size="14.00">lstm_2: LSTM</text>
<polyline fill="none" stroke="black" points="175.5,-166.5 175.5,-212.5 "/>
<text text-anchor="middle" x="204.5" y="-197.3" font-family="Helvetica,Arial,sans-serif" font-size="14.00">input:</text>
<polyline fill="none" stroke="black" points="175.5,-189.5 233.5,-189.5 "/>
<text text-anchor="middle" x="204.5" y="-174.3" font-family="Helvetica,Arial,sans-serif" font-size="14.00">output:</text>
<polyline fill="none" stroke="black" points="233.5,-166.5 233.5,-212.5 "/>
<text text-anchor="middle" x="269" y="-197.3" font-family="Helvetica,Arial,sans-serif" font-size="14.00">(?, ?, 64)</text>
<polyline fill="none" stroke="black" points="233.5,-189.5 304.5,-189.5 "/>
<text text-anchor="middle" x="269" y="-174.3" font-family="Helvetica,Arial,sans-serif" font-size="14.00">(?, 128)</text>
</g>
<!-- 140087531105640&#45;&gt;140087537980360 -->
<g id="edge3" class="edge">
<title>140087531105640&#45;&gt;140087537980360</title>
<path fill="none" stroke="black" d="M162.61,-249.37C166.49,-240.88 170.98,-231.04 175.18,-221.85"/>
<polygon fill="black" stroke="black" points="178.43,-223.16 179.4,-212.61 172.06,-220.25 178.43,-223.16"/>
</g>
<!-- 140087531256464 -->
<g id="node6" class="node">
<title>140087531256464</title>
<polygon fill="none" stroke="black" points="341.5,-166.5 341.5,-212.5 571.5,-212.5 571.5,-166.5 341.5,-166.5"/>
<text text-anchor="middle" x="392" y="-185.8" font-family="Helvetica,Arial,sans-serif" font-size="14.00">lstm_3: LSTM</text>
<polyline fill="none" stroke="black" points="442.5,-166.5 442.5,-212.5 "/>
<text text-anchor="middle" x="471.5" y="-197.3" font-family="Helvetica,Arial,sans-serif" font-size="14.00">input:</text>
<polyline fill="none" stroke="black" points="442.5,-189.5 500.5,-189.5 "/>
<text text-anchor="middle" x="471.5" y="-174.3" font-family="Helvetica,Arial,sans-serif" font-size="14.00">output:</text>
<polyline fill="none" stroke="black" points="500.5,-166.5 500.5,-212.5 "/>
<text text-anchor="middle" x="536" y="-197.3" font-family="Helvetica,Arial,sans-serif" font-size="14.00">(?, ?, 64)</text>
<polyline fill="none" stroke="black" points="500.5,-189.5 571.5,-189.5 "/>
<text text-anchor="middle" x="536" y="-174.3" font-family="Helvetica,Arial,sans-serif" font-size="14.00">(?, 32)</text>
</g>
<!-- 140087530711024&#45;&gt;140087531256464 -->
<g id="edge4" class="edge">
<title>140087530711024&#45;&gt;140087531256464</title>
<path fill="none" stroke="black" d="M470.31,-249.37C468.36,-241.06 466.11,-231.45 463.99,-222.43"/>
<polygon fill="black" stroke="black" points="467.38,-221.54 461.69,-212.61 460.56,-223.14 467.38,-221.54"/>
</g>
<!-- 140087530348048 -->
<g id="node8" class="node">
<title>140087530348048</title>
<polygon fill="none" stroke="black" points="251,-83.5 251,-129.5 662,-129.5 662,-83.5 251,-83.5"/>
<text text-anchor="middle" x="345.5" y="-102.8" font-family="Helvetica,Arial,sans-serif" font-size="14.00">concatenate_1: Concatenate</text>
<polyline fill="none" stroke="black" points="440,-83.5 440,-129.5 "/>
<text text-anchor="middle" x="469" y="-114.3" font-family="Helvetica,Arial,sans-serif" font-size="14.00">input:</text>
<polyline fill="none" stroke="black" points="440,-106.5 498,-106.5 "/>
<text text-anchor="middle" x="469" y="-91.3" font-family="Helvetica,Arial,sans-serif" font-size="14.00">output:</text>
<polyline fill="none" stroke="black" points="498,-83.5 498,-129.5 "/>
<text text-anchor="middle" x="580" y="-114.3" font-family="Helvetica,Arial,sans-serif" font-size="14.00">[(?, 128), (?, 32), (?, 12)]</text>
<polyline fill="none" stroke="black" points="498,-106.5 662,-106.5 "/>
<text text-anchor="middle" x="580" y="-91.3" font-family="Helvetica,Arial,sans-serif" font-size="14.00">(?, 172)</text>
</g>
<!-- 140087537980360&#45;&gt;140087530348048 -->
<g id="edge5" class="edge">
<title>140087537980360&#45;&gt;140087530348048</title>
<path fill="none" stroke="black" d="M262.11,-166.47C296.69,-155.98 338.21,-143.39 373.98,-132.53"/>
<polygon fill="black" stroke="black" points="375.35,-135.77 383.91,-129.52 373.32,-129.08 375.35,-135.77"/>
</g>
<!-- 140087531256464&#45;&gt;140087530348048 -->
<g id="edge6" class="edge">
<title>140087531256464&#45;&gt;140087530348048</title>
<path fill="none" stroke="black" d="M456.5,-166.37C456.5,-158.15 456.5,-148.66 456.5,-139.73"/>
<polygon fill="black" stroke="black" points="460,-139.61 456.5,-129.61 453,-139.61 460,-139.61"/>
</g>
<!-- 140087531106200 -->
<g id="node7" class="node">
<title>140087531106200</title>
<polygon fill="none" stroke="black" points="589.5,-166.5 589.5,-212.5 823.5,-212.5 823.5,-166.5 589.5,-166.5"/>
<text text-anchor="middle" x="646" y="-185.8" font-family="Helvetica,Arial,sans-serif" font-size="14.00">tags: InputLayer</text>
<polyline fill="none" stroke="black" points="702.5,-166.5 702.5,-212.5 "/>
<text text-anchor="middle" x="731.5" y="-197.3" font-family="Helvetica,Arial,sans-serif" font-size="14.00">input:</text>
<polyline fill="none" stroke="black" points="702.5,-189.5 760.5,-189.5 "/>
<text text-anchor="middle" x="731.5" y="-174.3" font-family="Helvetica,Arial,sans-serif" font-size="14.00">output:</text>
<polyline fill="none" stroke="black" points="760.5,-166.5 760.5,-212.5 "/>
<text text-anchor="middle" x="792" y="-197.3" font-family="Helvetica,Arial,sans-serif" font-size="14.00">[(?, 12)]</text>
<polyline fill="none" stroke="black" points="760.5,-189.5 823.5,-189.5 "/>
<text text-anchor="middle" x="792" y="-174.3" font-family="Helvetica,Arial,sans-serif" font-size="14.00">[(?, 12)]</text>
</g>
<!-- 140087531106200&#45;&gt;140087530348048 -->
<g id="edge7" class="edge">
<title>140087531106200&#45;&gt;140087530348048</title>
<path fill="none" stroke="black" d="M638.52,-166.47C606.27,-156.03 567.59,-143.49 534.19,-132.67"/>
<polygon fill="black" stroke="black" points="535.06,-129.27 524.47,-129.52 532.9,-135.93 535.06,-129.27"/>
</g>
<!-- 140087530347992 -->
<g id="node9" class="node">
<title>140087530347992</title>
<polygon fill="none" stroke="black" points="215,-0.5 215,-46.5 440,-46.5 440,-0.5 215,-0.5"/>
<text text-anchor="middle" x="267" y="-19.8" font-family="Helvetica,Arial,sans-serif" font-size="14.00">priority: Dense</text>
<polyline fill="none" stroke="black" points="319,-0.5 319,-46.5 "/>
<text text-anchor="middle" x="348" y="-31.3" font-family="Helvetica,Arial,sans-serif" font-size="14.00">input:</text>
<polyline fill="none" stroke="black" points="319,-23.5 377,-23.5 "/>
<text text-anchor="middle" x="348" y="-8.3" font-family="Helvetica,Arial,sans-serif" font-size="14.00">output:</text>
<polyline fill="none" stroke="black" points="377,-0.5 377,-46.5 "/>
<text text-anchor="middle" x="408.5" y="-31.3" font-family="Helvetica,Arial,sans-serif" font-size="14.00">(?, 172)</text>
<polyline fill="none" stroke="black" points="377,-23.5 440,-23.5 "/>
<text text-anchor="middle" x="408.5" y="-8.3" font-family="Helvetica,Arial,sans-serif" font-size="14.00">(?, 1)</text>
</g>
<!-- 140087530348048&#45;&gt;140087530347992 -->
<g id="edge8" class="edge">
<title>140087530348048&#45;&gt;140087530347992</title>
<path fill="none" stroke="black" d="M421.25,-83.37C405.89,-73.72 387.73,-62.32 371.5,-52.13"/>
<polygon fill="black" stroke="black" points="373.04,-48.96 362.71,-46.61 369.31,-54.89 373.04,-48.96"/>
</g>
<!-- 140087530711304 -->
<g id="node10" class="node">
<title>140087530711304</title>
<polygon fill="none" stroke="black" points="458.5,-0.5 458.5,-46.5 712.5,-46.5 712.5,-0.5 458.5,-0.5"/>
<text text-anchor="middle" x="525" y="-19.8" font-family="Helvetica,Arial,sans-serif" font-size="14.00">department: Dense</text>
<polyline fill="none" stroke="black" points="591.5,-0.5 591.5,-46.5 "/>
<text text-anchor="middle" x="620.5" y="-31.3" font-family="Helvetica,Arial,sans-serif" font-size="14.00">input:</text>
<polyline fill="none" stroke="black" points="591.5,-23.5 649.5,-23.5 "/>
<text text-anchor="middle" x="620.5" y="-8.3" font-family="Helvetica,Arial,sans-serif" font-size="14.00">output:</text>
<polyline fill="none" stroke="black" points="649.5,-0.5 649.5,-46.5 "/>
<text text-anchor="middle" x="681" y="-31.3" font-family="Helvetica,Arial,sans-serif" font-size="14.00">(?, 172)</text>
<polyline fill="none" stroke="black" points="649.5,-23.5 712.5,-23.5 "/>
<text text-anchor="middle" x="681" y="-8.3" font-family="Helvetica,Arial,sans-serif" font-size="14.00">(?, 4)</text>
</g>
<!-- 140087530348048&#45;&gt;140087530711304 -->
<g id="edge9" class="edge">
<title>140087530348048&#45;&gt;140087530711304</title>
<path fill="none" stroke="black" d="M491.75,-83.37C507.11,-73.72 525.27,-62.32 541.5,-52.13"/>
<polygon fill="black" stroke="black" points="543.69,-54.89 550.29,-46.61 539.96,-48.96 543.69,-54.89"/>
</g>
</g>
</svg>
