<?xml version="1.0" encoding="UTF-8" standalone="no"?>
<!DOCTYPE svg PUBLIC "-//W3C//DTD SVG 1.1//EN"
 "http://www.w3.org/Graphics/SVG/1.1/DTD/svg11.dtd">
<!-- Generated by graphviz version 2.44.1 (20200629.0846)
 -->
<!-- Title: G Pages: 1 -->
<svg width="784pt" height="387pt"
 viewBox="0.00 0.00 783.50 387.00" xmlns="http://www.w3.org/2000/svg" xmlns:xlink="http://www.w3.org/1999/xlink">
<g id="graph0" class="graph" transform="scale(1 1) rotate(0) translate(4 383)">
<title>G</title>
<polygon fill="white" stroke="transparent" points="-4,4 -4,-383 779.5,-383 779.5,4 -4,4"/>
<!-- 140087530674552 -->
<g id="node1" class="node">
<title>140087530674552</title>
<polygon fill="none" stroke="black" points="34,-332.5 34,-378.5 248,-378.5 248,-332.5 34,-332.5"/>
<text text-anchor="middle" x="86.5" y="-351.8" font-family="Times,serif" font-size="14.00">title: InputLayer</text>
<polyline fill="none" stroke="black" points="139,-332.5 139,-378.5 "/>
<text text-anchor="middle" x="166.5" y="-363.3" font-family="Times,serif" font-size="14.00">input:</text>
<polyline fill="none" stroke="black" points="139,-355.5 194,-355.5 "/>
<text text-anchor="middle" x="166.5" y="-340.3" font-family="Times,serif" font-size="14.00">output:</text>
<polyline fill="none" stroke="black" points="194,-332.5 194,-378.5 "/>
<text text-anchor="middle" x="221" y="-363.3" font-family="Times,serif" font-size="14.00">[(?, ?)]</text>
<polyline fill="none" stroke="black" points="194,-355.5 248,-355.5 "/>
<text text-anchor="middle" x="221" y="-340.3" font-family="Times,serif" font-size="14.00">[(?, ?)]</text>
</g>
<!-- 140087531105640 -->
<g id="node3" class="node">
<title>140087531105640</title>
<polygon fill="none" stroke="black" points="0,-249.5 0,-295.5 282,-295.5 282,-249.5 0,-249.5"/>
<text text-anchor="middle" x="80.5" y="-268.8" font-family="Times,serif" font-size="14.00">embedding_2: Embedding</text>
<polyline fill="none" stroke="black" points="161,-249.5 161,-295.5 "/>
<text text-anchor="middle" x="188.5" y="-280.3" font-family="Times,serif" font-size="14.00">input:</text>
<polyline fill="none" stroke="black" points="161,-272.5 216,-272.5 "/>
<text text-anchor="middle" x="188.5" y="-257.3" font-family="Times,serif" font-size="14.00">output:</text>
<polyline fill="none" stroke="black" points="216,-249.5 216,-295.5 "/>
<text text-anchor="middle" x="249" y="-280.3" font-family="Times,serif" font-size="14.00">(?, ?)</text>
<polyline fill="none" stroke="black" points="216,-272.5 282,-272.5 "/>
<text text-anchor="middle" x="249" y="-257.3" font-family="Times,serif" font-size="14.00">(?, ?, 64)</text>
</g>
<!-- 140087530674552&#45;&gt;140087531105640 -->
<g id="edge1" class="edge">
<title>140087530674552&#45;&gt;140087531105640</title>
<path fill="none" stroke="black" d="M141,-332.37C141,-324.15 141,-314.66 141,-305.73"/>
<polygon fill="black" stroke="black" points="144.5,-305.61 141,-295.61 137.5,-305.61 144.5,-305.61"/>
</g>
<!-- 140087537895856 -->
<g id="node2" class="node">
<title>140087537895856</title>
<polygon fill="none" stroke="black" points="331,-332.5 331,-378.5 551,-378.5 551,-332.5 331,-332.5"/>
<text text-anchor="middle" x="386.5" y="-351.8" font-family="Times,serif" font-size="14.00">body: InputLayer</text>
<polyline fill="none" stroke="black" points="442,-332.5 442,-378.5 "/>
<text text-anchor="middle" x="469.5" y="-363.3" font-family="Times,serif" font-size="14.00">input:</text>
<polyline fill="none" stroke="black" points="442,-355.5 497,-355.5 "/>
<text text-anchor="middle" x="469.5" y="-340.3" font-family="Times,serif" font-size="14.00">output:</text>
<polyline fill="none" stroke="black" points="497,-332.5 497,-378.5 "/>
<text text-anchor="middle" x="524" y="-363.3" font-family="Times,serif" font-size="14.00">[(?, ?)]</text>
<polyline fill="none" stroke="black" points="497,-355.5 551,-355.5 "/>
<text text-anchor="middle" x="524" y="-340.3" font-family="Times,serif" font-size="14.00">[(?, ?)]</text>
</g>
<!-- 140087530711024 -->
<g id="node4" class="node">
<title>140087530711024</title>
<polygon fill="none" stroke="black" points="300,-249.5 300,-295.5 582,-295.5 582,-249.5 300,-249.5"/>
<text text-anchor="middle" x="380.5" y="-268.8" font-family="Times,serif" font-size="14.00">embedding_3: Embedding</text>
<polyline fill="none" stroke="black" points="461,-249.5 461,-295.5 "/>
<text text-anchor="middle" x="488.5" y="-280.3" font-family="Times,serif" font-size="14.00">input:</text>
<polyline fill="none" stroke="black" points="461,-272.5 516,-272.5 "/>
<text text-anchor="middle" x="488.5" y="-257.3" font-family="Times,serif" font-size="14.00">output:</text>
<polyline fill="none" stroke="black" points="516,-249.5 516,-295.5 "/>
<text text-anchor="middle" x="549" y="-280.3" font-family="Times,serif" font-size="14.00">(?, ?)</text>
<polyline fill="none" stroke="black" points="516,-272.5 582,-272.5 "/>
<text text-anchor="middle" x="549" y="-257.3" font-family="Times,serif" font-size="14.00">(?, ?, 64)</text>
</g>
<!-- 140087537895856&#45;&gt;140087530711024 -->
<g id="edge2" class="edge">
<title>140087537895856&#45;&gt;140087530711024</title>
<path fill="none" stroke="black" d="M441,-332.37C441,-324.15 441,-314.66 441,-305.73"/>
<polygon fill="black" stroke="black" points="444.5,-305.61 441,-295.61 437.5,-305.61 444.5,-305.61"/>
</g>
<!-- 140087537980360 -->
<g id="node5" class="node">
<title>140087537980360</title>
<polygon fill="none" stroke="black" points="62.5,-166.5 62.5,-212.5 281.5,-212.5 281.5,-166.5 62.5,-166.5"/>
<text text-anchor="middle" x="111.5" y="-185.8" font-family="Times,serif" font-size="14.00">lstm_2: LSTM</text>
<polyline fill="none" stroke="black" points="160.5,-166.5 160.5,-212.5 "/>
<text text-anchor="middle" x="188" y="-197.3" font-family="Times,serif" font-size="14.00">input:</text>
<polyline fill="none" stroke="black" points="160.5,-189.5 215.5,-189.5 "/>
<text text-anchor="middle" x="188" y="-174.3" font-family="Times,serif" font-size="14.00">output:</text>
<polyline fill="none" stroke="black" points="215.5,-166.5 215.5,-212.5 "/>
<text text-anchor="middle" x="248.5" y="-197.3" font-family="Times,serif" font-size="14.00">(?, ?, 64)</text>
<polyline fill="none" stroke="black" points="215.5,-189.5 281.5,-189.5 "/>
<text text-anchor="middle" x="248.5" y="-174.3" font-family="Times,serif" font-size="14.00">(?, 128)</text>
</g>
<!-- 140087531105640&#45;&gt;140087537980360 -->
<g id="edge3" class="edge">
<title>140087531105640&#45;&gt;140087537980360</title>
<path fill="none" stroke="black" d="M149.47,-249.37C152.68,-240.97 156.41,-231.24 159.89,-222.14"/>
<polygon fill="black" stroke="black" points="163.23,-223.2 163.54,-212.61 156.7,-220.7 163.23,-223.2"/>
</g>
<!-- 140087531256464 -->
<g id="node6" class="node">
<title>140087531256464</title>
<polygon fill="none" stroke="black" points="315.5,-166.5 315.5,-212.5 534.5,-212.5 534.5,-166.5 315.5,-166.5"/>
<text text-anchor="middle" x="364.5" y="-185.8" font-family="Times,serif" font-size="14.00">lstm_3: LSTM</text>
<polyline fill="none" stroke="black" points="413.5,-166.5 413.5,-212.5 "/>
<text text-anchor="middle" x="441" y="-197.3" font-family="Times,serif" font-size="14.00">input:</text>
<polyline fill="none" stroke="black" points="413.5,-189.5 468.5,-189.5 "/>
<text text-anchor="middle" x="441" y="-174.3" font-family="Times,serif" font-size="14.00">output:</text>
<polyline fill="none" stroke="black" points="468.5,-166.5 468.5,-212.5 "/>
<text text-anchor="middle" x="501.5" y="-197.3" font-family="Times,serif" font-size="14.00">(?, ?, 64)</text>
<polyline fill="none" stroke="black" points="468.5,-189.5 534.5,-189.5 "/>
<text text-anchor="middle" x="501.5" y="-174.3" font-family="Times,serif" font-size="14.00">(?, 32)</text>
</g>
<!-- 140087530711024&#45;&gt;140087531256464 -->
<g id="edge4" class="edge">
<title>140087530711024&#45;&gt;140087531256464</title>
<path fill="none" stroke="black" d="M436.63,-249.37C434.99,-241.06 433.09,-231.45 431.31,-222.43"/>
<polygon fill="black" stroke="black" points="434.74,-221.74 429.37,-212.61 427.87,-223.1 434.74,-221.74"/>
</g>
<!-- 140087530348048 -->
<g id="node8" class="node">
<title>140087530348048</title>
<polygon fill="none" stroke="black" points="236,-83.5 236,-129.5 614,-129.5 614,-83.5 236,-83.5"/>
<text text-anchor="middle" x="320" y="-102.8" font-family="Times,serif" font-size="14.00">concatenate_1: Concatenate</text>
<polyline fill="none" stroke="black" points="404,-83.5 404,-129.5 "/>
<text text-anchor="middle" x="431.5" y="-114.3" font-family="Times,serif" font-size="14.00">input:</text>
<polyline fill="none" stroke="black" points="404,-106.5 459,-106.5 "/>
<text text-anchor="middle" x="431.5" y="-91.3" font-family="Times,serif" font-size="14.00">output:</text>
<polyline fill="none" stroke="black" points="459,-83.5 459,-129.5 "/>
<text text-anchor="middle" x="536.5" y="-114.3" font-family="Times,serif" font-size="14.00">[(?, 128), (?, 32), (?, 12)]</text>
<polyline fill="none" stroke="black" points="459,-106.5 614,-106.5 "/>
<text text-anchor="middle" x="536.5" y="-91.3" font-family="Times,serif" font-size="14.00">(?, 172)</text>
</g>
<!-- 140087537980360&#45;&gt;140087530348048 -->
<g id="edge5" class="edge">
<title>140087537980360&#45;&gt;140087530348048</title>
<path fill="none" stroke="black" d="M240.8,-166.47C273.43,-156.03 312.57,-143.49 346.37,-132.67"/>
<polygon fill="black" stroke="black" points="347.76,-135.9 356.21,-129.52 345.62,-129.24 347.76,-135.9"/>
</g>
<!-- 140087531256464&#45;&gt;140087530348048 -->
<g id="edge6" class="edge">
<title>140087531256464&#45;&gt;140087530348048</title>
<path fill="none" stroke="black" d="M425,-166.37C425,-158.15 425,-148.66 425,-139.73"/>
<polygon fill="black" stroke="black" points="428.5,-139.61 425,-129.61 421.5,-139.61 428.5,-139.61"/>
</g>
<!-- 140087531106200 -->
<g id="node7" class="node">
<title>140087531106200</title>
<polygon fill="none" stroke="black" points="552.5,-166.5 552.5,-212.5 775.5,-212.5 775.5,-166.5 552.5,-166.5"/>
<text text-anchor="middle" x="605.5" y="-185.8" font-family="Times,serif" font-size="14.00">tags: InputLayer</text>
<polyline fill="none" stroke="black" points="658.5,-166.5 658.5,-212.5 "/>
<text text-anchor="middle" x="686" y="-197.3" font-family="Times,serif" font-size="14.00">input:</text>
<polyline fill="none" stroke="black" points="658.5,-189.5 713.5,-189.5 "/>
<text text-anchor="middle" x="686" y="-174.3" font-family="Times,serif" font-size="14.00">output:</text>
<polyline fill="none" stroke="black" points="713.5,-166.5 713.5,-212.5 "/>
<text text-anchor="middle" x="744.5" y="-197.3" font-family="Times,serif" font-size="14.00">[(?, 12)]</text>
<polyline fill="none" stroke="black" points="713.5,-189.5 775.5,-189.5 "/>
<text text-anchor="middle" x="744.5" y="-174.3" font-family="Times,serif" font-size="14.00">[(?, 12)]</text>
</g>
<!-- 140087531106200&#45;&gt;140087530348048 -->
<g id="edge7" class="edge">
<title>140087531106200&#45;&gt;140087530348048</title>
<path fill="none" stroke="black" d="M599.01,-166.47C568.32,-156.07 531.52,-143.6 499.69,-132.81"/>
<polygon fill="black" stroke="black" points="500.57,-129.42 489.98,-129.52 498.33,-136.05 500.57,-129.42"/>
</g>
<!-- 140087530347992 -->
<g id="node9" class="node">
<title>140087530347992</title>
<polygon fill="none" stroke="black" points="199,-0.5 199,-46.5 411,-46.5 411,-0.5 199,-0.5"/>
<text text-anchor="middle" x="248" y="-19.8" font-family="Times,serif" font-size="14.00">priority: Dense</text>
<polyline fill="none" stroke="black" points="297,-0.5 297,-46.5 "/>
<text text-anchor="middle" x="324.5" y="-31.3" font-family="Times,serif" font-size="14.00">input:</text>
<polyline fill="none" stroke="black" points="297,-23.5 352,-23.5 "/>
<text text-anchor="middle" x="324.5" y="-8.3" font-family="Times,serif" font-size="14.00">output:</text>
<polyline fill="none" stroke="black" points="352,-0.5 352,-46.5 "/>
<text text-anchor="middle" x="381.5" y="-31.3" font-family="Times,serif" font-size="14.00">(?, 172)</text>
<polyline fill="none" stroke="black" points="352,-23.5 411,-23.5 "/>
<text text-anchor="middle" x="381.5" y="-8.3" font-family="Times,serif" font-size="14.00">(?, 1)</text>
</g>
<!-- 140087530348048&#45;&gt;140087530347992 -->
<g id="edge8" class="edge">
<title>140087530348048&#45;&gt;140087530347992</title>
<path fill="none" stroke="black" d="M392.21,-83.37C378.06,-73.81 361.34,-62.53 346.35,-52.41"/>
<polygon fill="black" stroke="black" points="348,-49.3 337.75,-46.61 344.08,-55.1 348,-49.3"/>
</g>
<!-- 140087530711304 -->
<g id="node10" class="node">
<title>140087530711304</title>
<polygon fill="none" stroke="black" points="429.5,-0.5 429.5,-46.5 662.5,-46.5 662.5,-0.5 429.5,-0.5"/>
<text text-anchor="middle" x="489" y="-19.8" font-family="Times,serif" font-size="14.00">department: Dense</text>
<polyline fill="none" stroke="black" points="548.5,-0.5 548.5,-46.5 "/>
<text text-anchor="middle" x="576" y="-31.3" font-family="Times,serif" font-size="14.00">input:</text>
<polyline fill="none" stroke="black" points="548.5,-23.5 603.5,-23.5 "/>
<text text-anchor="middle" x="576" y="-8.3" font-family="Times,serif" font-size="14.00">output:</text>
<polyline fill="none" stroke="black" points="603.5,-0.5 603.5,-46.5 "/>
<text text-anchor="middle" x="633" y="-31.3" font-family="Times,serif" font-size="14.00">(?, 172)</text>
<polyline fill="none" stroke="black" points="603.5,-23.5 662.5,-23.5 "/>
<text text-anchor="middle" x="633" y="-8.3" font-family="Times,serif" font-size="14.00">(?, 4)</text>
</g>
<!-- 140087530348048&#45;&gt;140087530711304 -->
<g id="edge9" class="edge">
<title>140087530348048&#45;&gt;140087530711304</title>
<path fill="none" stroke="black" d="M458.06,-83.37C472.34,-73.81 489.19,-62.53 504.31,-52.41"/>
<polygon fill="black" stroke="black" points="506.61,-55.08 512.98,-46.61 502.72,-49.26 506.61,-55.08"/>
</g>
</g>
</svg>
