<?xml version="1.0" encoding="UTF-8" standalone="no"?>
<!DOCTYPE svg PUBLIC "-//W3C//DTD SVG 1.1//EN"
 "http://www.w3.org/Graphics/SVG/1.1/DTD/svg11.dtd">
<!-- Generated by graphviz version 2.43.0 (0)
 -->
<!-- Title: [stackcollapse] Pages: 1 -->
<svg width="809pt" height="1233pt"
 viewBox="0.00 0.00 809.00 1233.00" xmlns="http://www.w3.org/2000/svg" xmlns:xlink="http://www.w3.org/1999/xlink">
<g id="graph0" class="graph" transform="scale(1 1) rotate(0) translate(4 1229)">
<title>[stackcollapse]</title>
<polygon fill="white" stroke="transparent" points="-4,4 -4,-1229 805,-1229 805,4 -4,4"/>
<g id="clust1" class="cluster">
<title>cluster_L</title>
<polygon fill="none" stroke="black" points="8,-1065 8,-1217 438,-1217 438,-1065 8,-1065"/>
</g>
<!-- File: [stackcollapse] -->
<g id="node1" class="node">
<title>File: [stackcollapse]</title>
<g id="a_node1"><a xlink:title="[stackcollapse]">
<polygon fill="#f8f8f8" stroke="black" points="429.5,-1209 16.5,-1209 16.5,-1073 429.5,-1073 429.5,-1209"/>
<text text-anchor="start" x="24.5" y="-1192.2" font-family="Helvetica,Arial,sans-serif" font-size="16.00">File: [stackcollapse]</text>
<text text-anchor="start" x="24.5" y="-1155.2" font-family="Helvetica,Arial,sans-serif" font-size="16.00">Showing nodes accounting for 380, 90.48% of 420 total</text>
<text text-anchor="start" x="24.5" y="-1137.2" font-family="Helvetica,Arial,sans-serif" font-size="16.00">Dropped 120 nodes (cum &lt;= 2)</text>
<text text-anchor="start" x="24.5" y="-1119.2" font-family="Helvetica,Arial,sans-serif" font-size="16.00">Showing top 20 nodes out of 110</text>
<text text-anchor="start" x="24.5" y="-1082.2" font-family="Helvetica,Arial,sans-serif" font-size="16.00">See https://git.io/JfYMW for how to read the graph</text>
</a>
</g>
</g>
<!-- N1 -->
<g id="node1" class="node">
<title>N1</title>
<g id="a_node1"><a xlink:title="deflate (384)">
<polygon fill="#edd6d5" stroke="#b20400" points="559.5,-761 416.5,-761 416.5,-693 559.5,-693 559.5,-761"/>
<text text-anchor="middle" x="488" y="-742.6" font-family="Helvetica,Arial,sans-serif" font-size="18.00">deflate</text>
<text text-anchor="middle" x="488" y="-722.6" font-family="Helvetica,Arial,sans-serif" font-size="18.00">62 (14.76%)</text>
<text text-anchor="middle" x="488" y="-702.6" font-family="Helvetica,Arial,sans-serif" font-size="18.00">of 384 (91.43%)</text>
</a>
</g>
</g>
<!-- N3 -->
<g id="node3" class="node">
<title>N3</title>
<g id="a_node3"><a xlink:title="longest_match (178)">
<polygon fill="#eddad5" stroke="#b22800" points="574.5,-641 401.5,-641 401.5,-581 574.5,-581 574.5,-641"/>
<text text-anchor="middle" x="488" y="-617.8" font-family="Helvetica,Arial,sans-serif" font-size="24.00">longest_match</text>
<text text-anchor="middle" x="488" y="-591.8" font-family="Helvetica,Arial,sans-serif" font-size="24.00">178 (42.38%)</text>
</a>
</g>
</g>
<!-- N1&#45;&gt;N3 -->
<g id="edge5" class="edge">
<title>N1&#45;&gt;N3</title>
<g id="a_edge5"><a xlink:title="deflate &#45;&gt; longest_match (176)">
<path fill="none" stroke="#b22800" stroke-width="3" d="M488,-692.72C488,-679.86 488,-665.04 488,-651.63"/>
<polygon fill="#b22800" stroke="#b22800" stroke-width="3" points="491.5,-651.25 488,-641.25 484.5,-651.25 491.5,-651.25"/>
</a>
</g>
<g id="a_edge5&#45;label"><a xlink:title="deflate &#45;&gt; longest_match (176)">
<text text-anchor="middle" x="501.5" y="-663.8" font-family="Helvetica,Arial,sans-serif" font-size="14.00"> 176</text>
</a>
</g>
</g>
<!-- N4 -->
<g id="node4" class="node">
<title>N4</title>
<g id="a_node4"><a xlink:title="fill_window (102)">
<polygon fill="#edddd5" stroke="#b23d00" points="292.5,-642 161.5,-642 161.5,-580 292.5,-580 292.5,-642"/>
<text text-anchor="middle" x="227" y="-625.2" font-family="Helvetica,Arial,sans-serif" font-size="16.00">fill_window</text>
<text text-anchor="middle" x="227" y="-607.2" font-family="Helvetica,Arial,sans-serif" font-size="16.00">41 (9.76%)</text>
<text text-anchor="middle" x="227" y="-589.2" font-family="Helvetica,Arial,sans-serif" font-size="16.00">of 102 (24.29%)</text>
</a>
</g>
</g>
<!-- N1&#45;&gt;N4 -->
<g id="edge6" class="edge">
<title>N1&#45;&gt;N4</title>
<g id="a_edge6"><a xlink:title="deflate &#45;&gt; fill_window (102)">
<path fill="none" stroke="#b23d00" stroke-width="2" d="M416.34,-694.7C380.87,-679.21 338.08,-660.52 302.15,-644.82"/>
<polygon fill="#b23d00" stroke="#b23d00" stroke-width="2" points="303.26,-641.49 292.69,-640.69 300.46,-647.9 303.26,-641.49"/>
</a>
</g>
<g id="a_edge6&#45;label"><a xlink:title="deflate &#45;&gt; fill_window (102)">
<text text-anchor="middle" x="379.5" y="-663.8" font-family="Helvetica,Arial,sans-serif" font-size="14.00"> 102</text>
</a>
</g>
</g>
<!-- N10 -->
<g id="node10" class="node">
<title>N10</title>
<g id="a_node10"><a xlink:title="ct_tally (13)">
<polygon fill="#edebe9" stroke="#b2a896" points="675,-629 593,-629 593,-593 675,-593 675,-629"/>
<text text-anchor="middle" x="634" y="-614.6" font-family="Helvetica,Arial,sans-serif" font-size="13.00">ct_tally</text>
<text text-anchor="middle" x="634" y="-600.6" font-family="Helvetica,Arial,sans-serif" font-size="13.00">13 (3.10%)</text>
</a>
</g>
</g>
<!-- N1&#45;&gt;N10 -->
<g id="edge15" class="edge">
<title>N1&#45;&gt;N10</title>
<g id="a_edge15"><a xlink:title="deflate &#45;&gt; ct_tally (12)">
<path fill="none" stroke="#b2a999" d="M510.06,-693C518.96,-681.46 529.97,-669.13 542,-660 557.85,-647.97 565.28,-651.06 583,-642 587.68,-639.61 592.53,-636.97 597.29,-634.28"/>
<polygon fill="#b2a999" stroke="#b2a999" points="599.36,-637.13 606.27,-629.11 595.86,-631.07 599.36,-637.13"/>
</a>
</g>
<g id="a_edge15&#45;label"><a xlink:title="deflate &#45;&gt; ct_tally (12)">
<text text-anchor="middle" x="551.5" y="-663.8" font-family="Helvetica,Arial,sans-serif" font-size="14.00"> 12</text>
</a>
</g>
</g>
<!-- N20 -->
<g id="node20" class="node">
<title>N20</title>
<g id="a_node20"><a xlink:title="flush_block (27)">
<polygon fill="#ede9e5" stroke="#b29979" points="383,-629 311,-629 311,-593 383,-593 383,-629"/>
<text text-anchor="middle" x="347" y="-613.6" font-family="Helvetica,Arial,sans-serif" font-size="8.00">flush_block</text>
<text text-anchor="middle" x="347" y="-604.6" font-family="Helvetica,Arial,sans-serif" font-size="8.00">0 of 27 (6.43%)</text>
</a>
</g>
</g>
<!-- N1&#45;&gt;N20 -->
<g id="edge10" class="edge">
<title>N1&#45;&gt;N20</title>
<g id="a_edge10"><a xlink:title="deflate &#45;&gt; flush_block (26)">
<path fill="none" stroke="#b29a7b" d="M457.31,-692.92C446.34,-681.89 433.57,-669.89 421,-660 409.08,-650.62 404.76,-650.21 392,-642 388.45,-639.71 384.75,-637.3 381.08,-634.89"/>
<polygon fill="#b29a7b" stroke="#b29a7b" points="382.88,-631.88 372.61,-629.28 379.01,-637.72 382.88,-631.88"/>
</a>
</g>
<g id="a_edge10&#45;label"><a xlink:title="deflate &#45;&gt; flush_block (26)">
<text text-anchor="middle" x="446.5" y="-663.8" font-family="Helvetica,Arial,sans-serif" font-size="14.00"> 26</text>
</a>
</g>
</g>
<!-- N2 -->
<g id="node2" class="node">
<title>N2</title>
<g id="a_node2"><a xlink:title="gzip (409)">
<polygon fill="#edd5d5" stroke="#b20100" points="528.5,-1159 447.5,-1159 447.5,-1123 528.5,-1123 528.5,-1159"/>
<text text-anchor="middle" x="488" y="-1143.6" font-family="Helvetica,Arial,sans-serif" font-size="8.00">gzip</text>
<text text-anchor="middle" x="488" y="-1134.6" font-family="Helvetica,Arial,sans-serif" font-size="8.00">0 of 409 (97.38%)</text>
</a>
</g>
</g>
<!-- N7 -->
<g id="node7" class="node">
<title>N7</title>
<g id="a_node7"><a xlink:title="entry_SYSCALL_64_after_hwframe (34)">
<polygon fill="#ede8e3" stroke="#b2906a" points="197.5,-309.5 52.5,-309.5 52.5,-273.5 197.5,-273.5 197.5,-309.5"/>
<text text-anchor="middle" x="125" y="-294.1" font-family="Helvetica,Arial,sans-serif" font-size="8.00">entry_SYSCALL_64_after_hwframe</text>
<text text-anchor="middle" x="125" y="-285.1" font-family="Helvetica,Arial,sans-serif" font-size="8.00">0 of 34 (8.10%)</text>
</a>
</g>
</g>
<!-- N2&#45;&gt;N7 -->
<g id="edge20" class="edge">
<title>N2&#45;&gt;N7</title>
<g id="a_edge20"><a xlink:title="gzip &#45;&gt; entry_SYSCALL_64_after_hwframe (4)">
<path fill="none" stroke="#b2b0aa" d="M482.25,-1122.68C475.5,-1105.18 462.53,-1078.81 442,-1065 374.16,-1019.36 79,-1086.76 79,-1005 79,-1005 79,-1005 79,-394.5 79,-366.7 93.37,-338.12 106.05,-318.3"/>
<polygon fill="#b2b0aa" stroke="#b2b0aa" points="109.05,-320.11 111.69,-309.85 103.23,-316.22 109.05,-320.11"/>
</a>
</g>
<g id="a_edge20&#45;label"><a xlink:title="gzip &#45;&gt; entry_SYSCALL_64_after_hwframe (4)">
<text text-anchor="middle" x="85" y="-723.3" font-family="Helvetica,Arial,sans-serif" font-size="14.00"> 4</text>
</a>
</g>
</g>
<!-- N12 -->
<g id="node12" class="node">
<title>N12</title>
<g id="a_node12"><a xlink:title="_start (393)">
<polygon fill="#edd5d5" stroke="#b20300" points="528.5,-1022 447.5,-1022 447.5,-986 528.5,-986 528.5,-1022"/>
<text text-anchor="middle" x="488" y="-1006.6" font-family="Helvetica,Arial,sans-serif" font-size="8.00">_start</text>
<text text-anchor="middle" x="488" y="-997.6" font-family="Helvetica,Arial,sans-serif" font-size="8.00">0 of 393 (93.57%)</text>
</a>
</g>
</g>
<!-- N2&#45;&gt;N12 -->
<g id="edge1" class="edge">
<title>N2&#45;&gt;N12</title>
<g id="a_edge1"><a xlink:title="gzip &#45;&gt; _start (393)">
<path fill="none" stroke="#b20300" stroke-width="5" d="M488,-1122.9C488,-1100.1 488,-1059.48 488,-1032.39"/>
<polygon fill="#b20300" stroke="#b20300" stroke-width="5" points="492.38,-1032.39 488,-1022.39 483.63,-1032.39 492.38,-1032.39"/>
</a>
</g>
<g id="a_edge1&#45;label"><a xlink:title="gzip &#45;&gt; _start (393)">
<text text-anchor="middle" x="501.5" y="-1043.8" font-family="Helvetica,Arial,sans-serif" font-size="14.00"> 393</text>
</a>
</g>
</g>
<!-- N16 -->
<g id="node16" class="node">
<title>N16</title>
<g id="a_node16"><a xlink:title="[unknown] (10)">
<polygon fill="#edecea" stroke="#b2ab9d" points="655,-745 583,-745 583,-709 655,-709 655,-745"/>
<text text-anchor="middle" x="619" y="-729.6" font-family="Helvetica,Arial,sans-serif" font-size="8.00">[unknown]</text>
<text text-anchor="middle" x="619" y="-720.6" font-family="Helvetica,Arial,sans-serif" font-size="8.00">0 of 10 (2.38%)</text>
</a>
</g>
</g>
<!-- N2&#45;&gt;N16 -->
<g id="edge17" class="edge">
<title>N2&#45;&gt;N16</title>
<g id="a_edge17"><a xlink:title="gzip &#45;&gt; [unknown] (10)">
<path fill="none" stroke="#b2ab9d" d="M511.48,-1122.78C540.19,-1099.54 585,-1055.22 585,-1005 585,-1005 585,-1005 585,-829 585,-802.61 595.56,-774.27 604.91,-754.34"/>
<polygon fill="#b2ab9d" stroke="#b2ab9d" points="608.09,-755.8 609.35,-745.28 601.8,-752.72 608.09,-755.8"/>
</a>
</g>
<g id="a_edge17&#45;label"><a xlink:title="gzip &#45;&gt; [unknown] (10)">
<text text-anchor="middle" x="594.5" y="-913.3" font-family="Helvetica,Arial,sans-serif" font-size="14.00"> 10</text>
</a>
</g>
</g>
<!-- N18 -->
<g id="node18" class="node">
<title>N18</title>
<g id="a_node18"><a xlink:title="asm_exc_page_fault (5)">
<polygon fill="#edeceb" stroke="#b2afa7" points="728,-312 622,-312 622,-271 728,-271 728,-312"/>
<text text-anchor="middle" x="675" y="-300" font-family="Helvetica,Arial,sans-serif" font-size="10.00">asm_exc_page_fault</text>
<text text-anchor="middle" x="675" y="-289" font-family="Helvetica,Arial,sans-serif" font-size="10.00">1 (0.24%)</text>
<text text-anchor="middle" x="675" y="-278" font-family="Helvetica,Arial,sans-serif" font-size="10.00">of 5 (1.19%)</text>
</a>
</g>
</g>
<!-- N2&#45;&gt;N18 -->
<g id="edge23" class="edge">
<title>N2&#45;&gt;N18</title>
<g id="a_edge23"><a xlink:title="gzip ... asm_exc_page_fault (2)">
<path fill="none" stroke="#b2b1ae" stroke-dasharray="1,5" d="M528.59,-1139.77C610.75,-1136.95 789,-1117.83 789,-1005 789,-1005 789,-1005 789,-394.5 789,-359.84 759.38,-334.01 730.33,-317.02"/>
<polygon fill="#b2b1ae" stroke="#b2b1ae" points="731.81,-313.84 721.37,-312.03 728.4,-319.95 731.81,-313.84"/>
</a>
</g>
<g id="a_edge23&#45;label"><a xlink:title="gzip ... asm_exc_page_fault (2)">
<text text-anchor="middle" x="795" y="-723.3" font-family="Helvetica,Arial,sans-serif" font-size="14.00"> 2</text>
</a>
</g>
</g>
<!-- N6 -->
<g id="node6" class="node">
<title>N6</title>
<g id="a_node6"><a xlink:title="file_read (62)">
<polygon fill="#ede3db" stroke="#b2682e" points="265.5,-522 188.5,-522 188.5,-486 265.5,-486 265.5,-522"/>
<text text-anchor="middle" x="227" y="-506.6" font-family="Helvetica,Arial,sans-serif" font-size="8.00">file_read</text>
<text text-anchor="middle" x="227" y="-497.6" font-family="Helvetica,Arial,sans-serif" font-size="8.00">0 of 62 (14.76%)</text>
</a>
</g>
</g>
<!-- N4&#45;&gt;N6 -->
<g id="edge7" class="edge">
<title>N4&#45;&gt;N6</title>
<g id="a_edge7"><a xlink:title="fill_window &#45;&gt; file_read (58)">
<path fill="none" stroke="#b26e37" d="M227,-579.91C227,-564.94 227,-546.98 227,-532.4"/>
<polygon fill="#b26e37" stroke="#b26e37" points="230.5,-532.01 227,-522.01 223.5,-532.01 230.5,-532.01"/>
</a>
</g>
<g id="a_edge7&#45;label"><a xlink:title="fill_window &#45;&gt; file_read (58)">
<text text-anchor="middle" x="236.5" y="-550.8" font-family="Helvetica,Arial,sans-serif" font-size="14.00"> 58</text>
</a>
</g>
</g>
<!-- N5 -->
<g id="node5" class="node">
<title>N5</title>
<g id="a_node5"><a xlink:title="updcrc (48)">
<polygon fill="#ede6df" stroke="#b27d4c" points="292,-428 162,-428 162,-363 292,-363 292,-428"/>
<text text-anchor="middle" x="227" y="-410.4" font-family="Helvetica,Arial,sans-serif" font-size="17.00">updcrc</text>
<text text-anchor="middle" x="227" y="-391.4" font-family="Helvetica,Arial,sans-serif" font-size="17.00">46 (10.95%)</text>
<text text-anchor="middle" x="227" y="-372.4" font-family="Helvetica,Arial,sans-serif" font-size="17.00">of 48 (11.43%)</text>
</a>
</g>
</g>
<!-- N6&#45;&gt;N5 -->
<g id="edge8" class="edge">
<title>N6&#45;&gt;N5</title>
<g id="a_edge8"><a xlink:title="file_read &#45;&gt; updcrc (48)">
<path fill="none" stroke="#b27d4c" d="M227,-485.89C227,-473.03 227,-454.86 227,-438.25"/>
<polygon fill="#b27d4c" stroke="#b27d4c" points="230.5,-438.17 227,-428.17 223.5,-438.17 230.5,-438.17"/>
</a>
</g>
<g id="a_edge8&#45;label"><a xlink:title="file_read &#45;&gt; updcrc (48)">
<text text-anchor="middle" x="236.5" y="-449.8" font-family="Helvetica,Arial,sans-serif" font-size="14.00"> 48</text>
</a>
</g>
</g>
<!-- N6&#45;&gt;N7 -->
<g id="edge13" class="edge">
<title>N6&#45;&gt;N7</title>
<g id="a_edge13"><a xlink:title="file_read ... entry_SYSCALL_64_after_hwframe (14)">
<path fill="none" stroke="#b2a794" stroke-dasharray="1,5" d="M193.89,-485.79C172.82,-472.92 147.1,-453.22 134,-428 116.36,-394.05 117.47,-348.7 120.64,-320.04"/>
<polygon fill="#b2a794" stroke="#b2a794" points="124.14,-320.29 121.93,-309.93 117.19,-319.41 124.14,-320.29"/>
</a>
</g>
<g id="a_edge13&#45;label"><a xlink:title="file_read ... entry_SYSCALL_64_after_hwframe (14)">
<text text-anchor="middle" x="143.5" y="-391.8" font-family="Helvetica,Arial,sans-serif" font-size="14.00"> 14</text>
</a>
</g>
</g>
<!-- N11 -->
<g id="node11" class="node">
<title>N11</title>
<g id="a_node11"><a xlink:title="do_syscall_64 (33)">
<polygon fill="#ede8e3" stroke="#b2916c" points="161,-220 89,-220 89,-184 161,-184 161,-220"/>
<text text-anchor="middle" x="125" y="-204.6" font-family="Helvetica,Arial,sans-serif" font-size="8.00">do_syscall_64</text>
<text text-anchor="middle" x="125" y="-195.6" font-family="Helvetica,Arial,sans-serif" font-size="8.00">0 of 33 (7.86%)</text>
</a>
</g>
</g>
<!-- N7&#45;&gt;N11 -->
<g id="edge9" class="edge">
<title>N7&#45;&gt;N11</title>
<g id="a_edge9"><a xlink:title="entry_SYSCALL_64_after_hwframe &#45;&gt; do_syscall_64 (33)">
<path fill="none" stroke="#b2916c" d="M125,-273.21C125,-260.99 125,-244.35 125,-230.34"/>
<polygon fill="#b2916c" stroke="#b2916c" points="128.5,-230.25 125,-220.25 121.5,-230.25 128.5,-230.25"/>
</a>
</g>
<g id="a_edge9&#45;label"><a xlink:title="entry_SYSCALL_64_after_hwframe &#45;&gt; do_syscall_64 (33)">
<text text-anchor="middle" x="134.5" y="-241.8" font-family="Helvetica,Arial,sans-serif" font-size="14.00"> 33</text>
</a>
</g>
</g>
<!-- N19 -->
<g id="node19" class="node">
<title>N19</title>
<g id="a_node19"><a xlink:title="__x64_sys_read (15)">
<polygon fill="#edebe8" stroke="#b2a692" points="214,-133 128,-133 128,-92 214,-92 214,-133"/>
<text text-anchor="middle" x="171" y="-121" font-family="Helvetica,Arial,sans-serif" font-size="10.00">__x64_sys_read</text>
<text text-anchor="middle" x="171" y="-110" font-family="Helvetica,Arial,sans-serif" font-size="10.00">1 (0.24%)</text>
<text text-anchor="middle" x="171" y="-99" font-family="Helvetica,Arial,sans-serif" font-size="10.00">of 15 (3.57%)</text>
</a>
</g>
</g>
<!-- N7&#45;&gt;N19 -->
<g id="edge26" class="edge">
<title>N7&#45;&gt;N19</title>
<g id="a_edge26"><a xlink:title="entry_SYSCALL_64_after_hwframe &#45;&gt; __x64_sys_read (1)">
<path fill="none" stroke="#b2b2b0" d="M139.3,-273.5C149.8,-259.94 163.36,-239.98 170,-220 178.27,-195.12 177.69,-165.13 175.52,-143.32"/>
<polygon fill="#b2b2b0" stroke="#b2b2b0" points="178.99,-142.86 174.36,-133.33 172.04,-143.67 178.99,-142.86"/>
</a>
</g>
<g id="a_edge26&#45;label"><a xlink:title="entry_SYSCALL_64_after_hwframe &#45;&gt; __x64_sys_read (1)">
<text text-anchor="middle" x="183" y="-198.3" font-family="Helvetica,Arial,sans-serif" font-size="14.00"> 1</text>
</a>
</g>
</g>
<!-- N8 -->
<g id="node8" class="node">
<title>N8</title>
<g id="a_node8"><a xlink:title="compress_block (25)">
<polygon fill="#edeae6" stroke="#b29b7d" points="403.5,-529 290.5,-529 290.5,-479 403.5,-479 403.5,-529"/>
<text text-anchor="middle" x="347" y="-514.6" font-family="Helvetica,Arial,sans-serif" font-size="13.00">compress_block</text>
<text text-anchor="middle" x="347" y="-500.6" font-family="Helvetica,Arial,sans-serif" font-size="13.00">14 (3.33%)</text>
<text text-anchor="middle" x="347" y="-486.6" font-family="Helvetica,Arial,sans-serif" font-size="13.00">of 25 (5.95%)</text>
</a>
</g>
</g>
<!-- N9 -->
<g id="node9" class="node">
<title>N9</title>
<g id="a_node9"><a xlink:title="send_bits (16)">
<polygon fill="#edebe8" stroke="#b2a590" points="407.5,-420.5 310.5,-420.5 310.5,-370.5 407.5,-370.5 407.5,-420.5"/>
<text text-anchor="middle" x="359" y="-406.1" font-family="Helvetica,Arial,sans-serif" font-size="13.00">send_bits</text>
<text text-anchor="middle" x="359" y="-392.1" font-family="Helvetica,Arial,sans-serif" font-size="13.00">13 (3.10%)</text>
<text text-anchor="middle" x="359" y="-378.1" font-family="Helvetica,Arial,sans-serif" font-size="13.00">of 16 (3.81%)</text>
</a>
</g>
</g>
<!-- N8&#45;&gt;N9 -->
<g id="edge16" class="edge">
<title>N8&#45;&gt;N9</title>
<g id="a_edge16"><a xlink:title="compress_block &#45;&gt; send_bits (11)">
<path fill="none" stroke="#b2aa9b" d="M349.72,-478.83C351.32,-464.67 353.36,-446.55 355.12,-430.92"/>
<polygon fill="#b2aa9b" stroke="#b2aa9b" points="358.65,-430.9 356.29,-420.57 351.69,-430.12 358.65,-430.9"/>
</a>
</g>
<g id="a_edge16&#45;label"><a xlink:title="compress_block &#45;&gt; send_bits (11)">
<text text-anchor="middle" x="363.5" y="-449.8" font-family="Helvetica,Arial,sans-serif" font-size="14.00"> 11</text>
</a>
</g>
</g>
<!-- N9&#45;&gt;N7 -->
<g id="edge27" class="edge">
<title>N9&#45;&gt;N7</title>
<g id="a_edge27"><a xlink:title="send_bits ... entry_SYSCALL_64_after_hwframe (1)">
<path fill="none" stroke="#b2b2b0" stroke-dasharray="1,5" d="M315.89,-370.38C310.91,-367.8 305.87,-365.29 301,-363 261.79,-344.57 216.37,-326.46 181.5,-313.21"/>
<polygon fill="#b2b2b0" stroke="#b2b2b0" points="182.54,-309.86 171.95,-309.6 180.07,-316.41 182.54,-309.86"/>
</a>
</g>
<g id="a_edge27&#45;label"><a xlink:title="send_bits ... entry_SYSCALL_64_after_hwframe (1)">
<text text-anchor="middle" x="265" y="-333.8" font-family="Helvetica,Arial,sans-serif" font-size="14.00"> 1</text>
</a>
</g>
</g>
<!-- N9&#45;&gt;N18 -->
<g id="edge24" class="edge">
<title>N9&#45;&gt;N18</title>
<g id="a_edge24"><a xlink:title="send_bits &#45;&gt; asm_exc_page_fault (2)">
<path fill="none" stroke="#b2b1ae" d="M407.68,-378.79C462.54,-361.08 551.88,-332.24 612.01,-312.83"/>
<polygon fill="#b2b1ae" stroke="#b2b1ae" points="613.33,-316.08 621.77,-309.68 611.18,-309.42 613.33,-316.08"/>
</a>
</g>
<g id="a_edge24&#45;label"><a xlink:title="send_bits &#45;&gt; asm_exc_page_fault (2)">
<text text-anchor="middle" x="561" y="-333.8" font-family="Helvetica,Arial,sans-serif" font-size="14.00"> 2</text>
</a>
</g>
</g>
<!-- N14 -->
<g id="node14" class="node">
<title>N14</title>
<g id="a_node14"><a xlink:title="native_write_msr (9)">
<polygon fill="#edecea" stroke="#b2ac9f" points="109.5,-130.5 2.5,-130.5 2.5,-94.5 109.5,-94.5 109.5,-130.5"/>
<text text-anchor="middle" x="56" y="-115.9" font-family="Helvetica,Arial,sans-serif" font-size="12.00">native_write_msr</text>
<text text-anchor="middle" x="56" y="-102.9" font-family="Helvetica,Arial,sans-serif" font-size="12.00">9 (2.14%)</text>
</a>
</g>
</g>
<!-- N11&#45;&gt;N14 -->
<g id="edge18" class="edge">
<title>N11&#45;&gt;N14</title>
<g id="a_edge18"><a xlink:title="do_syscall_64 ... native_write_msr (9)">
<path fill="none" stroke="#b2ac9f" stroke-dasharray="1,5" d="M111.37,-183.71C101.26,-170.89 87.31,-153.21 75.95,-138.8"/>
<polygon fill="#b2ac9f" stroke="#b2ac9f" points="78.54,-136.44 69.6,-130.75 73.05,-140.77 78.54,-136.44"/>
</a>
</g>
<g id="a_edge18&#45;label"><a xlink:title="do_syscall_64 ... native_write_msr (9)">
<text text-anchor="middle" x="103" y="-154.8" font-family="Helvetica,Arial,sans-serif" font-size="14.00"> 9</text>
</a>
</g>
</g>
<!-- N11&#45;&gt;N19 -->
<g id="edge12" class="edge">
<title>N11&#45;&gt;N19</title>
<g id="a_edge12"><a xlink:title="do_syscall_64 &#45;&gt; __x64_sys_read (14)">
<path fill="none" stroke="#b2a794" d="M134.09,-183.71C140.3,-171.9 148.68,-155.96 155.89,-142.25"/>
<polygon fill="#b2a794" stroke="#b2a794" points="159.09,-143.67 160.65,-133.19 152.89,-140.42 159.09,-143.67"/>
</a>
</g>
<g id="a_edge12&#45;label"><a xlink:title="do_syscall_64 &#45;&gt; __x64_sys_read (14)">
<text text-anchor="middle" x="160.5" y="-154.8" font-family="Helvetica,Arial,sans-serif" font-size="14.00"> 14</text>
</a>
</g>
</g>
<!-- N15 -->
<g id="node15" class="node">
<title>N15</title>
<g id="a_node15"><a xlink:title="treat_file (389)">
<polygon fill="#edd5d5" stroke="#b20400" points="528.5,-935 447.5,-935 447.5,-899 528.5,-899 528.5,-935"/>
<text text-anchor="middle" x="488" y="-919.6" font-family="Helvetica,Arial,sans-serif" font-size="8.00">treat_file</text>
<text text-anchor="middle" x="488" y="-910.6" font-family="Helvetica,Arial,sans-serif" font-size="8.00">0 of 389 (92.62%)</text>
</a>
</g>
</g>
<!-- N12&#45;&gt;N15 -->
<g id="edge2" class="edge">
<title>N12&#45;&gt;N15</title>
<g id="a_edge2"><a xlink:title="_start ... treat_file (389)">
<path fill="none" stroke="#b20400" stroke-width="5" stroke-dasharray="1,5" d="M488,-985.8C488,-974.16 488,-958.55 488,-945.24"/>
<polygon fill="#b20400" stroke="#b20400" stroke-width="5" points="492.38,-945.18 488,-935.18 483.63,-945.18 492.38,-945.18"/>
</a>
</g>
<g id="a_edge2&#45;label"><a xlink:title="_start ... treat_file (389)">
<text text-anchor="middle" x="501.5" y="-956.8" font-family="Helvetica,Arial,sans-serif" font-size="14.00"> 389</text>
</a>
</g>
</g>
<!-- N13 -->
<g id="node13" class="node">
<title>N13</title>
<g id="a_node13"><a xlink:title="zip (386)">
<polygon fill="#edd6d5" stroke="#b20400" points="528.5,-848 447.5,-848 447.5,-812 528.5,-812 528.5,-848"/>
<text text-anchor="middle" x="488" y="-832.6" font-family="Helvetica,Arial,sans-serif" font-size="8.00">zip</text>
<text text-anchor="middle" x="488" y="-823.6" font-family="Helvetica,Arial,sans-serif" font-size="8.00">0 of 386 (91.90%)</text>
</a>
</g>
</g>
<!-- N13&#45;&gt;N1 -->
<g id="edge4" class="edge">
<title>N13&#45;&gt;N1</title>
<g id="a_edge4"><a xlink:title="zip &#45;&gt; deflate (384)">
<path fill="none" stroke="#b20400" stroke-width="5" d="M488,-811.87C488,-800.73 488,-785.66 488,-771.38"/>
<polygon fill="#b20400" stroke="#b20400" stroke-width="5" points="492.38,-771.18 488,-761.18 483.63,-771.18 492.38,-771.18"/>
</a>
</g>
<g id="a_edge4&#45;label"><a xlink:title="zip &#45;&gt; deflate (384)">
<text text-anchor="middle" x="501.5" y="-782.8" font-family="Helvetica,Arial,sans-serif" font-size="14.00"> 384</text>
</a>
</g>
</g>
<!-- N13&#45;&gt;N20 -->
<g id="edge28" class="edge">
<title>N13&#45;&gt;N20</title>
<g id="a_edge28"><a xlink:title="zip &#45;&gt; flush_block (1)">
<path fill="none" stroke="#b2b2b0" d="M455.79,-811.95C435.9,-800 411.17,-782.37 395,-761 367.3,-724.4 355.26,-671.23 350.27,-639.29"/>
<polygon fill="#b2b2b0" stroke="#b2b2b0" points="353.72,-638.73 348.83,-629.33 346.79,-639.73 353.72,-638.73"/>
</a>
</g>
<g id="a_edge28&#45;label"><a xlink:title="zip &#45;&gt; flush_block (1)">
<text text-anchor="middle" x="401" y="-723.3" font-family="Helvetica,Arial,sans-serif" font-size="14.00"> 1</text>
</a>
</g>
</g>
<!-- N15&#45;&gt;N13 -->
<g id="edge3" class="edge">
<title>N15&#45;&gt;N13</title>
<g id="a_edge3"><a xlink:title="treat_file &#45;&gt; zip (386)">
<path fill="none" stroke="#b20400" stroke-width="5" d="M488,-898.8C488,-887.16 488,-871.55 488,-858.24"/>
<polygon fill="#b20400" stroke="#b20400" stroke-width="5" points="492.38,-858.18 488,-848.18 483.63,-858.18 492.38,-858.18"/>
</a>
</g>
<g id="a_edge3&#45;label"><a xlink:title="treat_file &#45;&gt; zip (386)">
<text text-anchor="middle" x="501.5" y="-869.8" font-family="Helvetica,Arial,sans-serif" font-size="14.00"> 386</text>
</a>
</g>
</g>
<!-- N16&#45;&gt;N3 -->
<g id="edge22" class="edge">
<title>N16&#45;&gt;N3</title>
<g id="a_edge22"><a xlink:title="[unknown] &#45;&gt; longest_match (2)">
<path fill="none" stroke="#b2b1ae" d="M607.47,-708.97C597.35,-694.8 581.68,-674.66 565,-660 559.91,-655.53 554.36,-651.2 548.65,-647.1"/>
<polygon fill="#b2b1ae" stroke="#b2b1ae" points="550.41,-644.07 540.19,-641.27 546.43,-649.83 550.41,-644.07"/>
</a>
</g>
<g id="a_edge22&#45;label"><a xlink:title="[unknown] &#45;&gt; longest_match (2)">
<text text-anchor="middle" x="586" y="-663.8" font-family="Helvetica,Arial,sans-serif" font-size="14.00"> 2</text>
</a>
</g>
</g>
<!-- N16&#45;&gt;N8 -->
<g id="edge21" class="edge">
<title>N16&#45;&gt;N8</title>
<g id="a_edge21"><a xlink:title="[unknown] &#45;&gt; compress_block (2)">
<path fill="none" stroke="#b2b1ae" d="M637.69,-708.72C666.81,-679.72 716.46,-620.48 684,-580 650.82,-538.62 502.43,-518.61 414,-510.2"/>
<polygon fill="#b2b1ae" stroke="#b2b1ae" points="414.07,-506.69 403.79,-509.25 413.43,-513.66 414.07,-506.69"/>
</a>
</g>
<g id="a_edge21&#45;label"><a xlink:title="[unknown] &#45;&gt; compress_block (2)">
<text text-anchor="middle" x="700" y="-607.3" font-family="Helvetica,Arial,sans-serif" font-size="14.00"> 2</text>
</a>
</g>
</g>
<!-- N16&#45;&gt;N9 -->
<g id="edge19" class="edge">
<title>N16&#45;&gt;N9</title>
<g id="a_edge19"><a xlink:title="[unknown] &#45;&gt; send_bits (5)">
<path fill="none" stroke="#b2afa7" d="M645.77,-708.9C658.99,-699.74 674.7,-687.74 687,-675 717.18,-643.75 730.93,-618.07 710,-580 650.31,-471.43 500.78,-424.79 417.43,-406.68"/>
<polygon fill="#b2afa7" stroke="#b2afa7" points="418.11,-403.25 407.6,-404.62 416.67,-410.1 418.11,-403.25"/>
</a>
</g>
<g id="a_edge19&#45;label"><a xlink:title="[unknown] &#45;&gt; send_bits (5)">
<text text-anchor="middle" x="703" y="-550.8" font-family="Helvetica,Arial,sans-serif" font-size="14.00"> 5</text>
</a>
</g>
</g>
<!-- N16&#45;&gt;N10 -->
<g id="edge25" class="edge">
<title>N16&#45;&gt;N10</title>
<g id="a_edge25"><a xlink:title="[unknown] &#45;&gt; ct_tally (1)">
<path fill="none" stroke="#b2b2b0" d="M621.28,-708.69C623.7,-690.25 627.58,-660.82 630.41,-639.26"/>
<polygon fill="#b2b2b0" stroke="#b2b2b0" points="633.91,-639.47 631.75,-629.1 626.97,-638.56 633.91,-639.47"/>
</a>
</g>
<g id="a_edge25&#45;label"><a xlink:title="[unknown] &#45;&gt; ct_tally (1)">
<text text-anchor="middle" x="634" y="-663.8" font-family="Helvetica,Arial,sans-serif" font-size="14.00"> 1</text>
</a>
</g>
</g>
<!-- N17 -->
<g id="node17" class="node">
<title>N17</title>
<g id="a_node17"><a xlink:title="page_cache_ra_unbounded (13)">
<polygon fill="#edebe9" stroke="#b2a896" points="238.5,-41 103.5,-41 103.5,0 238.5,0 238.5,-41"/>
<text text-anchor="middle" x="171" y="-29" font-family="Helvetica,Arial,sans-serif" font-size="10.00">page_cache_ra_unbounded</text>
<text text-anchor="middle" x="171" y="-18" font-family="Helvetica,Arial,sans-serif" font-size="10.00">2 (0.48%)</text>
<text text-anchor="middle" x="171" y="-7" font-family="Helvetica,Arial,sans-serif" font-size="10.00">of 13 (3.10%)</text>
</a>
</g>
</g>
<!-- N19&#45;&gt;N17 -->
<g id="edge14" class="edge">
<title>N19&#45;&gt;N17</title>
<g id="a_edge14"><a xlink:title="__x64_sys_read ... page_cache_ra_unbounded (13)">
<path fill="none" stroke="#b2a896" stroke-dasharray="1,5" d="M171,-91.97C171,-80.14 171,-64.81 171,-51.47"/>
<polygon fill="#b2a896" stroke="#b2a896" points="174.5,-51.3 171,-41.3 167.5,-51.3 174.5,-51.3"/>
</a>
</g>
<g id="a_edge14&#45;label"><a xlink:title="__x64_sys_read ... page_cache_ra_unbounded (13)">
<text text-anchor="middle" x="180.5" y="-62.8" font-family="Helvetica,Arial,sans-serif" font-size="14.00"> 13</text>
</a>
</g>
</g>
<!-- N20&#45;&gt;N8 -->
<g id="edge11" class="edge">
<title>N20&#45;&gt;N8</title>
<g id="a_edge11"><a xlink:title="flush_block &#45;&gt; compress_block (23)">
<path fill="none" stroke="#b29e81" d="M347,-592.66C347,-578.15 347,-557.01 347,-539.12"/>
<polygon fill="#b29e81" stroke="#b29e81" points="350.5,-539.04 347,-529.04 343.5,-539.04 350.5,-539.04"/>
</a>
</g>
<g id="a_edge11&#45;label"><a xlink:title="flush_block &#45;&gt; compress_block (23)">
<text text-anchor="middle" x="356.5" y="-550.8" font-family="Helvetica,Arial,sans-serif" font-size="14.00"> 23</text>
</a>
</g>
</g>
</g>
</svg>
