<?xml version="1.0" encoding="UTF-8" standalone="no"?>
<!DOCTYPE svg PUBLIC "-//W3C//DTD SVG 1.1//EN"
 "http://www.w3.org/Graphics/SVG/1.1/DTD/svg11.dtd">
<!-- Generated by graphviz version 2.49.0 (20210828.1703)
 -->
<!-- Title: [stackcollapse] Pages: 1 -->
<svg width="757pt" height="1233pt"
 viewBox="0.00 0.00 757.00 1233.00" xmlns="http://www.w3.org/2000/svg" xmlns:xlink="http://www.w3.org/1999/xlink">
<g id="graph0" class="graph" transform="scale(1 1) rotate(0) translate(4 1229)">
<title>[stackcollapse]</title>
<polygon fill="white" stroke="transparent" points="-4,4 -4,-1229 753,-1229 753,4 -4,4"/>
<g id="clust1" class="cluster">
<title>cluster_L</title>
<polygon fill="none" stroke="black" points="14,-1065 14,-1217 406,-1217 406,-1065 14,-1065"/>
</g>
<!-- File: [stackcollapse] -->
<g id="node1" class="node">
<title>File: [stackcollapse]</title>
<g id="a_node1"><a xlink:title="[stackcollapse]">
<polygon fill="#f8f8f8" stroke="black" points="397.5,-1209 22.5,-1209 22.5,-1073 397.5,-1073 397.5,-1209"/>
<text text-anchor="start" x="30.5" y="-1192.2" font-family="Times,serif" font-size="16.00">File: [stackcollapse]</text>
<text text-anchor="start" x="30.5" y="-1155.2" font-family="Times,serif" font-size="16.00">Showing nodes accounting for 380, 90.48% of 420 total</text>
<text text-anchor="start" x="30.5" y="-1137.2" font-family="Times,serif" font-size="16.00">Dropped 120 nodes (cum &lt;= 2)</text>
<text text-anchor="start" x="30.5" y="-1119.2" font-family="Times,serif" font-size="16.00">Showing top 20 nodes out of 110</text>
<text text-anchor="start" x="30.5" y="-1082.2" font-family="Times,serif" font-size="16.00">See https://git.io/JfYMW for how to read the graph</text>
</a>
</g>
</g>
<!-- N1 -->
<g id="node1" class="node">
<title>N1</title>
<g id="a_node1"><a xlink:title="deflate (384)">
<polygon fill="#edd6d5" stroke="#b20400" points="520.5,-761 385.5,-761 385.5,-693 520.5,-693 520.5,-761"/>
<text text-anchor="middle" x="453" y="-742.6" font-family="Times,serif" font-size="18.00">deflate</text>
<text text-anchor="middle" x="453" y="-722.6" font-family="Times,serif" font-size="18.00">62 (14.76%)</text>
<text text-anchor="middle" x="453" y="-702.6" font-family="Times,serif" font-size="18.00">of 384 (91.43%)</text>
</a>
</g>
</g>
<!-- N3 -->
<g id="node3" class="node">
<title>N3</title>
<g id="a_node3"><a xlink:title="longest_match (178)">
<polygon fill="#eddad5" stroke="#b22800" points="531,-641 375,-641 375,-581 531,-581 531,-641"/>
<text text-anchor="middle" x="453" y="-617.8" font-family="Times,serif" font-size="24.00">longest_match</text>
<text text-anchor="middle" x="453" y="-591.8" font-family="Times,serif" font-size="24.00">178 (42.38%)</text>
</a>
</g>
</g>
<!-- N1&#45;&gt;N3 -->
<g id="edge5" class="edge">
<title>N1&#45;&gt;N3</title>
<g id="a_edge5"><a xlink:title="deflate &#45;&gt; longest_match (176)">
<path fill="none" stroke="#b22800" stroke-width="3" d="M453,-692.72C453,-679.86 453,-665.04 453,-651.63"/>
<polygon fill="#b22800" stroke="#b22800" stroke-width="3" points="456.5,-651.25 453,-641.25 449.5,-651.25 456.5,-651.25"/>
</a>
</g>
<g id="a_edge5&#45;label"><a xlink:title="deflate &#45;&gt; longest_match (176)">
<text text-anchor="middle" x="465.5" y="-663.8" font-family="Times,serif" font-size="14.00"> 176</text>
</a>
</g>
</g>
<!-- N4 -->
<g id="node4" class="node">
<title>N4</title>
<g id="a_node4"><a xlink:title="fill_window (102)">
<polygon fill="#edddd5" stroke="#b23d00" points="271,-642 149,-642 149,-580 271,-580 271,-642"/>
<text text-anchor="middle" x="210" y="-625.2" font-family="Times,serif" font-size="16.00">fill_window</text>
<text text-anchor="middle" x="210" y="-607.2" font-family="Times,serif" font-size="16.00">41 (9.76%)</text>
<text text-anchor="middle" x="210" y="-589.2" font-family="Times,serif" font-size="16.00">of 102 (24.29%)</text>
</a>
</g>
</g>
<!-- N1&#45;&gt;N4 -->
<g id="edge6" class="edge">
<title>N1&#45;&gt;N4</title>
<g id="a_edge6"><a xlink:title="deflate &#45;&gt; fill_window (102)">
<path fill="none" stroke="#b23d00" stroke-width="2" d="M385.31,-694.24C352.58,-678.89 313.32,-660.47 280.25,-644.96"/>
<polygon fill="#b23d00" stroke="#b23d00" stroke-width="2" points="281.64,-641.74 271.1,-640.66 278.67,-648.08 281.64,-641.74"/>
</a>
</g>
<g id="a_edge6&#45;label"><a xlink:title="deflate &#45;&gt; fill_window (102)">
<text text-anchor="middle" x="351.5" y="-663.8" font-family="Times,serif" font-size="14.00"> 102</text>
</a>
</g>
</g>
<!-- N10 -->
<g id="node10" class="node">
<title>N10</title>
<g id="a_node10"><a xlink:title="ct_tally (13)">
<polygon fill="#edebe9" stroke="#b2a896" points="624.5,-629 549.5,-629 549.5,-593 624.5,-593 624.5,-629"/>
<text text-anchor="middle" x="587" y="-614.6" font-family="Times,serif" font-size="13.00">ct_tally</text>
<text text-anchor="middle" x="587" y="-600.6" font-family="Times,serif" font-size="13.00">13 (3.10%)</text>
</a>
</g>
</g>
<!-- N1&#45;&gt;N10 -->
<g id="edge15" class="edge">
<title>N1&#45;&gt;N10</title>
<g id="a_edge15"><a xlink:title="deflate &#45;&gt; ct_tally (12)">
<path fill="none" stroke="#b2a999" d="M473.45,-692.85C481.63,-681.43 491.78,-669.22 503,-660 517.13,-648.39 524.04,-650.93 540,-642 544.21,-639.64 548.57,-637.06 552.85,-634.44"/>
<polygon fill="#b2a999" stroke="#b2a999" points="554.85,-637.32 561.47,-629.05 551.13,-631.38 554.85,-637.32"/>
</a>
</g>
<g id="a_edge15&#45;label"><a xlink:title="deflate &#45;&gt; ct_tally (12)">
<text text-anchor="middle" x="512" y="-663.8" font-family="Times,serif" font-size="14.00"> 12</text>
</a>
</g>
</g>
<!-- N20 -->
<g id="node20" class="node">
<title>N20</title>
<g id="a_node20"><a xlink:title="flush_block (27)">
<polygon fill="#ede9e5" stroke="#b29979" points="356.5,-629 289.5,-629 289.5,-593 356.5,-593 356.5,-629"/>
<text text-anchor="middle" x="323" y="-613.6" font-family="Times,serif" font-size="8.00">flush_block</text>
<text text-anchor="middle" x="323" y="-604.6" font-family="Times,serif" font-size="8.00">0 of 27 (6.43%)</text>
</a>
</g>
</g>
<!-- N1&#45;&gt;N20 -->
<g id="edge10" class="edge">
<title>N1&#45;&gt;N20</title>
<g id="a_edge10"><a xlink:title="deflate &#45;&gt; flush_block (26)">
<path fill="none" stroke="#b29a7b" d="M423.13,-692.99C412.71,-682.08 400.69,-670.15 389,-660 382.89,-654.69 369.08,-644.56 355.66,-634.96"/>
<polygon fill="#b29a7b" stroke="#b29a7b" points="357.61,-632.06 347.43,-629.11 353.55,-637.76 357.61,-632.06"/>
</a>
</g>
<g id="a_edge10&#45;label"><a xlink:title="deflate &#45;&gt; flush_block (26)">
<text text-anchor="middle" x="413" y="-663.8" font-family="Times,serif" font-size="14.00"> 26</text>
</a>
</g>
</g>
<!-- N2 -->
<g id="node2" class="node">
<title>N2</title>
<g id="a_node2"><a xlink:title="gzip (409)">
<polygon fill="#edd5d5" stroke="#b20100" points="490.5,-1159 415.5,-1159 415.5,-1123 490.5,-1123 490.5,-1159"/>
<text text-anchor="middle" x="453" y="-1143.6" font-family="Times,serif" font-size="8.00">gzip</text>
<text text-anchor="middle" x="453" y="-1134.6" font-family="Times,serif" font-size="8.00">0 of 409 (97.38%)</text>
</a>
</g>
</g>
<!-- N7 -->
<g id="node7" class="node">
<title>N7</title>
<g id="a_node7"><a xlink:title="entry_SYSCALL_64_after_hwframe (34)">
<polygon fill="#ede8e3" stroke="#b2906a" points="182,-309.5 46,-309.5 46,-273.5 182,-273.5 182,-309.5"/>
<text text-anchor="middle" x="114" y="-294.1" font-family="Times,serif" font-size="8.00">entry_SYSCALL_64_after_hwframe</text>
<text text-anchor="middle" x="114" y="-285.1" font-family="Times,serif" font-size="8.00">0 of 34 (8.10%)</text>
</a>
</g>
</g>
<!-- N2&#45;&gt;N7 -->
<g id="edge20" class="edge">
<title>N2&#45;&gt;N7</title>
<g id="a_edge20"><a xlink:title="gzip &#45;&gt; entry_SYSCALL_64_after_hwframe (4)">
<path fill="none" stroke="#b2b0aa" d="M447.92,-1122.74C441.84,-1105.29 429.9,-1078.97 410,-1065 346.84,-1020.67 68,-1082.16 68,-1005 68,-1005 68,-1005 68,-394.5 68,-366.7 82.37,-338.12 95.05,-318.3"/>
<polygon fill="#b2b0aa" stroke="#b2b0aa" points="98.05,-320.11 100.69,-309.85 92.23,-316.22 98.05,-320.11"/>
</a>
</g>
<g id="a_edge20&#45;label"><a xlink:title="gzip &#45;&gt; entry_SYSCALL_64_after_hwframe (4)">
<text text-anchor="middle" x="73.5" y="-723.3" font-family="Times,serif" font-size="14.00"> 4</text>
</a>
</g>
</g>
<!-- N12 -->
<g id="node12" class="node">
<title>N12</title>
<g id="a_node12"><a xlink:title="_start (393)">
<polygon fill="#edd5d5" stroke="#b20300" points="490.5,-1022 415.5,-1022 415.5,-986 490.5,-986 490.5,-1022"/>
<text text-anchor="middle" x="453" y="-1006.6" font-family="Times,serif" font-size="8.00">_start</text>
<text text-anchor="middle" x="453" y="-997.6" font-family="Times,serif" font-size="8.00">0 of 393 (93.57%)</text>
</a>
</g>
</g>
<!-- N2&#45;&gt;N12 -->
<g id="edge1" class="edge">
<title>N2&#45;&gt;N12</title>
<g id="a_edge1"><a xlink:title="gzip &#45;&gt; _start (393)">
<path fill="none" stroke="#b20300" stroke-width="5" d="M453,-1122.9C453,-1100.1 453,-1059.48 453,-1032.39"/>
<polygon fill="#b20300" stroke="#b20300" stroke-width="5" points="457.38,-1032.39 453,-1022.39 448.63,-1032.39 457.38,-1032.39"/>
</a>
</g>
<g id="a_edge1&#45;label"><a xlink:title="gzip &#45;&gt; _start (393)">
<text text-anchor="middle" x="465.5" y="-1043.8" font-family="Times,serif" font-size="14.00"> 393</text>
</a>
</g>
</g>
<!-- N16 -->
<g id="node16" class="node">
<title>N16</title>
<g id="a_node16"><a xlink:title="[unknown] (10)">
<polygon fill="#edecea" stroke="#b2ab9d" points="609.5,-745 542.5,-745 542.5,-709 609.5,-709 609.5,-745"/>
<text text-anchor="middle" x="576" y="-729.6" font-family="Times,serif" font-size="8.00">[unknown]</text>
<text text-anchor="middle" x="576" y="-720.6" font-family="Times,serif" font-size="8.00">0 of 10 (2.38%)</text>
</a>
</g>
</g>
<!-- N2&#45;&gt;N16 -->
<g id="edge17" class="edge">
<title>N2&#45;&gt;N16</title>
<g id="a_edge17"><a xlink:title="gzip &#45;&gt; [unknown] (10)">
<path fill="none" stroke="#b2ab9d" d="M475.04,-1122.97C502.54,-1099.6 546,-1054.81 546,-1005 546,-1005 546,-1005 546,-829 546,-802.87 555.34,-774.45 563.6,-754.43"/>
<polygon fill="#b2ab9d" stroke="#b2ab9d" points="566.9,-755.63 567.64,-745.06 560.47,-752.85 566.9,-755.63"/>
</a>
</g>
<g id="a_edge17&#45;label"><a xlink:title="gzip &#45;&gt; [unknown] (10)">
<text text-anchor="middle" x="555" y="-913.3" font-family="Times,serif" font-size="14.00"> 10</text>
</a>
</g>
</g>
<!-- N18 -->
<g id="node18" class="node">
<title>N18</title>
<g id="a_node18"><a xlink:title="asm_exc_page_fault (5)">
<polygon fill="#edeceb" stroke="#b2afa7" points="611.5,-312 512.5,-312 512.5,-271 611.5,-271 611.5,-312"/>
<text text-anchor="middle" x="562" y="-300" font-family="Times,serif" font-size="10.00">asm_exc_page_fault</text>
<text text-anchor="middle" x="562" y="-289" font-family="Times,serif" font-size="10.00">1 (0.24%)</text>
<text text-anchor="middle" x="562" y="-278" font-family="Times,serif" font-size="10.00">of 5 (1.19%)</text>
</a>
</g>
</g>
<!-- N2&#45;&gt;N18 -->
<g id="edge23" class="edge">
<title>N2&#45;&gt;N18</title>
<g id="a_edge23"><a xlink:title="gzip ... asm_exc_page_fault (2)">
<path fill="none" stroke="#b2b1ae" stroke-dasharray="1,5" d="M490.55,-1139.03C567.94,-1134.82 738,-1113.27 738,-1005 738,-1005 738,-1005 738,-394.5 738,-339.54 672.96,-313.71 621.95,-301.9"/>
<polygon fill="#b2b1ae" stroke="#b2b1ae" points="622.48,-298.43 611.96,-299.72 620.99,-305.27 622.48,-298.43"/>
</a>
</g>
<g id="a_edge23&#45;label"><a xlink:title="gzip ... asm_exc_page_fault (2)">
<text text-anchor="middle" x="743.5" y="-723.3" font-family="Times,serif" font-size="14.00"> 2</text>
</a>
</g>
</g>
<!-- N6 -->
<g id="node6" class="node">
<title>N6</title>
<g id="a_node6"><a xlink:title="file_read (62)">
<polygon fill="#ede3db" stroke="#b2682e" points="245.5,-522 174.5,-522 174.5,-486 245.5,-486 245.5,-522"/>
<text text-anchor="middle" x="210" y="-506.6" font-family="Times,serif" font-size="8.00">file_read</text>
<text text-anchor="middle" x="210" y="-497.6" font-family="Times,serif" font-size="8.00">0 of 62 (14.76%)</text>
</a>
</g>
</g>
<!-- N4&#45;&gt;N6 -->
<g id="edge7" class="edge">
<title>N4&#45;&gt;N6</title>
<g id="a_edge7"><a xlink:title="fill_window &#45;&gt; file_read (58)">
<path fill="none" stroke="#b26e37" d="M210,-579.91C210,-564.94 210,-546.98 210,-532.4"/>
<polygon fill="#b26e37" stroke="#b26e37" points="213.5,-532.01 210,-522.01 206.5,-532.01 213.5,-532.01"/>
</a>
</g>
<g id="a_edge7&#45;label"><a xlink:title="fill_window &#45;&gt; file_read (58)">
<text text-anchor="middle" x="219" y="-550.8" font-family="Times,serif" font-size="14.00"> 58</text>
</a>
</g>
</g>
<!-- N5 -->
<g id="node5" class="node">
<title>N5</title>
<g id="a_node5"><a xlink:title="updcrc (48)">
<polygon fill="#ede6df" stroke="#b27d4c" points="269.5,-428 150.5,-428 150.5,-363 269.5,-363 269.5,-428"/>
<text text-anchor="middle" x="210" y="-410.4" font-family="Times,serif" font-size="17.00">updcrc</text>
<text text-anchor="middle" x="210" y="-391.4" font-family="Times,serif" font-size="17.00">46 (10.95%)</text>
<text text-anchor="middle" x="210" y="-372.4" font-family="Times,serif" font-size="17.00">of 48 (11.43%)</text>
</a>
</g>
</g>
<!-- N6&#45;&gt;N5 -->
<g id="edge8" class="edge">
<title>N6&#45;&gt;N5</title>
<g id="a_edge8"><a xlink:title="file_read &#45;&gt; updcrc (48)">
<path fill="none" stroke="#b27d4c" d="M210,-485.89C210,-473.03 210,-454.86 210,-438.25"/>
<polygon fill="#b27d4c" stroke="#b27d4c" points="213.5,-438.17 210,-428.17 206.5,-438.17 213.5,-438.17"/>
</a>
</g>
<g id="a_edge8&#45;label"><a xlink:title="file_read &#45;&gt; updcrc (48)">
<text text-anchor="middle" x="219" y="-449.8" font-family="Times,serif" font-size="14.00"> 48</text>
</a>
</g>
</g>
<!-- N6&#45;&gt;N7 -->
<g id="edge13" class="edge">
<title>N6&#45;&gt;N7</title>
<g id="a_edge13"><a xlink:title="file_read ... entry_SYSCALL_64_after_hwframe (14)">
<path fill="none" stroke="#b2a794" stroke-dasharray="1,5" d="M179.85,-485.86C159.96,-472.78 135.38,-452.8 123,-428 105.92,-393.77 106.88,-348.49 109.87,-319.93"/>
<polygon fill="#b2a794" stroke="#b2a794" points="113.36,-320.2 111.08,-309.85 106.41,-319.36 113.36,-320.2"/>
</a>
</g>
<g id="a_edge13&#45;label"><a xlink:title="file_read ... entry_SYSCALL_64_after_hwframe (14)">
<text text-anchor="middle" x="132" y="-391.8" font-family="Times,serif" font-size="14.00"> 14</text>
</a>
</g>
</g>
<!-- N11 -->
<g id="node11" class="node">
<title>N11</title>
<g id="a_node11"><a xlink:title="do_syscall_64 (33)">
<polygon fill="#ede8e3" stroke="#b2916c" points="147.5,-220 80.5,-220 80.5,-184 147.5,-184 147.5,-220"/>
<text text-anchor="middle" x="114" y="-204.6" font-family="Times,serif" font-size="8.00">do_syscall_64</text>
<text text-anchor="middle" x="114" y="-195.6" font-family="Times,serif" font-size="8.00">0 of 33 (7.86%)</text>
</a>
</g>
</g>
<!-- N7&#45;&gt;N11 -->
<g id="edge9" class="edge">
<title>N7&#45;&gt;N11</title>
<g id="a_edge9"><a xlink:title="entry_SYSCALL_64_after_hwframe &#45;&gt; do_syscall_64 (33)">
<path fill="none" stroke="#b2916c" d="M114,-273.21C114,-260.99 114,-244.35 114,-230.34"/>
<polygon fill="#b2916c" stroke="#b2916c" points="117.5,-230.25 114,-220.25 110.5,-230.25 117.5,-230.25"/>
</a>
</g>
<g id="a_edge9&#45;label"><a xlink:title="entry_SYSCALL_64_after_hwframe &#45;&gt; do_syscall_64 (33)">
<text text-anchor="middle" x="123" y="-241.8" font-family="Times,serif" font-size="14.00"> 33</text>
</a>
</g>
</g>
<!-- N19 -->
<g id="node19" class="node">
<title>N19</title>
<g id="a_node19"><a xlink:title="__x64_sys_read (15)">
<polygon fill="#edebe8" stroke="#b2a692" points="199.5,-133 118.5,-133 118.5,-92 199.5,-92 199.5,-133"/>
<text text-anchor="middle" x="159" y="-121" font-family="Times,serif" font-size="10.00">__x64_sys_read</text>
<text text-anchor="middle" x="159" y="-110" font-family="Times,serif" font-size="10.00">1 (0.24%)</text>
<text text-anchor="middle" x="159" y="-99" font-family="Times,serif" font-size="10.00">of 15 (3.57%)</text>
</a>
</g>
</g>
<!-- N7&#45;&gt;N19 -->
<g id="edge26" class="edge">
<title>N7&#45;&gt;N19</title>
<g id="a_edge26"><a xlink:title="entry_SYSCALL_64_after_hwframe &#45;&gt; __x64_sys_read (1)">
<path fill="none" stroke="#b2b2b0" d="M127.13,-273.28C136.82,-259.6 149.42,-239.58 156,-220 164.35,-195.14 164.37,-165.14 162.73,-143.33"/>
<polygon fill="#b2b2b0" stroke="#b2b2b0" points="166.21,-142.98 161.82,-133.34 159.24,-143.61 166.21,-142.98"/>
</a>
</g>
<g id="a_edge26&#45;label"><a xlink:title="entry_SYSCALL_64_after_hwframe &#45;&gt; __x64_sys_read (1)">
<text text-anchor="middle" x="168.5" y="-198.3" font-family="Times,serif" font-size="14.00"> 1</text>
</a>
</g>
</g>
<!-- N8 -->
<g id="node8" class="node">
<title>N8</title>
<g id="a_node8"><a xlink:title="compress_block (25)">
<polygon fill="#edeae6" stroke="#b29b7d" points="373.5,-529 272.5,-529 272.5,-479 373.5,-479 373.5,-529"/>
<text text-anchor="middle" x="323" y="-514.6" font-family="Times,serif" font-size="13.00">compress_block</text>
<text text-anchor="middle" x="323" y="-500.6" font-family="Times,serif" font-size="13.00">14 (3.33%)</text>
<text text-anchor="middle" x="323" y="-486.6" font-family="Times,serif" font-size="13.00">of 25 (5.95%)</text>
</a>
</g>
</g>
<!-- N9 -->
<g id="node9" class="node">
<title>N9</title>
<g id="a_node9"><a xlink:title="send_bits (16)">
<polygon fill="#edebe8" stroke="#b2a590" points="376.5,-420.5 287.5,-420.5 287.5,-370.5 376.5,-370.5 376.5,-420.5"/>
<text text-anchor="middle" x="332" y="-406.1" font-family="Times,serif" font-size="13.00">send_bits</text>
<text text-anchor="middle" x="332" y="-392.1" font-family="Times,serif" font-size="13.00">13 (3.10%)</text>
<text text-anchor="middle" x="332" y="-378.1" font-family="Times,serif" font-size="13.00">of 16 (3.81%)</text>
</a>
</g>
</g>
<!-- N8&#45;&gt;N9 -->
<g id="edge16" class="edge">
<title>N8&#45;&gt;N9</title>
<g id="a_edge16"><a xlink:title="compress_block &#45;&gt; send_bits (11)">
<path fill="none" stroke="#b2aa9b" d="M325.04,-478.83C326.24,-464.67 327.77,-446.55 329.09,-430.92"/>
<polygon fill="#b2aa9b" stroke="#b2aa9b" points="332.61,-430.83 329.97,-420.57 325.64,-430.24 332.61,-430.83"/>
</a>
</g>
<g id="a_edge16&#45;label"><a xlink:title="compress_block &#45;&gt; send_bits (11)">
<text text-anchor="middle" x="336.5" y="-449.8" font-family="Times,serif" font-size="14.00"> 11</text>
</a>
</g>
</g>
<!-- N9&#45;&gt;N7 -->
<g id="edge27" class="edge">
<title>N9&#45;&gt;N7</title>
<g id="a_edge27"><a xlink:title="send_bits ... entry_SYSCALL_64_after_hwframe (1)">
<path fill="none" stroke="#b2b2b0" stroke-dasharray="1,5" d="M291.9,-370.39C287.26,-367.81 282.55,-365.3 278,-363 241.73,-344.71 199.61,-326.67 167.14,-313.42"/>
<polygon fill="#b2b2b0" stroke="#b2b2b0" points="168.41,-310.15 157.82,-309.64 165.77,-316.64 168.41,-310.15"/>
</a>
</g>
<g id="a_edge27&#45;label"><a xlink:title="send_bits ... entry_SYSCALL_64_after_hwframe (1)">
<text text-anchor="middle" x="244.5" y="-333.8" font-family="Times,serif" font-size="14.00"> 1</text>
</a>
</g>
</g>
<!-- N9&#45;&gt;N18 -->
<g id="edge24" class="edge">
<title>N9&#45;&gt;N18</title>
<g id="a_edge24"><a xlink:title="send_bits &#45;&gt; asm_exc_page_fault (2)">
<path fill="none" stroke="#b2b1ae" d="M376.62,-374.71C414.35,-357.98 468.51,-333.96 508.55,-316.2"/>
<polygon fill="#b2b1ae" stroke="#b2b1ae" points="510.17,-319.31 517.9,-312.06 507.34,-312.91 510.17,-319.31"/>
</a>
</g>
<g id="a_edge24&#45;label"><a xlink:title="send_bits &#45;&gt; asm_exc_page_fault (2)">
<text text-anchor="middle" x="480.5" y="-333.8" font-family="Times,serif" font-size="14.00"> 2</text>
</a>
</g>
</g>
<!-- N14 -->
<g id="node14" class="node">
<title>N14</title>
<g id="a_node14"><a xlink:title="native_write_msr (9)">
<polygon fill="#edecea" stroke="#b2ac9f" points="100,-130.5 0,-130.5 0,-94.5 100,-94.5 100,-130.5"/>
<text text-anchor="middle" x="50" y="-115.9" font-family="Times,serif" font-size="12.00">native_write_msr</text>
<text text-anchor="middle" x="50" y="-102.9" font-family="Times,serif" font-size="12.00">9 (2.14%)</text>
</a>
</g>
</g>
<!-- N11&#45;&gt;N14 -->
<g id="edge18" class="edge">
<title>N11&#45;&gt;N14</title>
<g id="a_edge18"><a xlink:title="do_syscall_64 ... native_write_msr (9)">
<path fill="none" stroke="#b2ac9f" stroke-dasharray="1,5" d="M101.36,-183.71C92.06,-171.01 79.28,-153.54 68.8,-139.2"/>
<polygon fill="#b2ac9f" stroke="#b2ac9f" points="71.35,-136.76 62.62,-130.75 65.7,-140.89 71.35,-136.76"/>
</a>
</g>
<g id="a_edge18&#45;label"><a xlink:title="do_syscall_64 ... native_write_msr (9)">
<text text-anchor="middle" x="93.5" y="-154.8" font-family="Times,serif" font-size="14.00"> 9</text>
</a>
</g>
</g>
<!-- N11&#45;&gt;N19 -->
<g id="edge12" class="edge">
<title>N11&#45;&gt;N19</title>
<g id="a_edge12"><a xlink:title="do_syscall_64 &#45;&gt; __x64_sys_read (14)">
<path fill="none" stroke="#b2a794" d="M122.89,-183.71C128.97,-171.9 137.17,-155.96 144.22,-142.25"/>
<polygon fill="#b2a794" stroke="#b2a794" points="147.41,-143.69 148.87,-133.19 141.19,-140.49 147.41,-143.69"/>
</a>
</g>
<g id="a_edge12&#45;label"><a xlink:title="do_syscall_64 &#45;&gt; __x64_sys_read (14)">
<text text-anchor="middle" x="149" y="-154.8" font-family="Times,serif" font-size="14.00"> 14</text>
</a>
</g>
</g>
<!-- N15 -->
<g id="node15" class="node">
<title>N15</title>
<g id="a_node15"><a xlink:title="treat_file (389)">
<polygon fill="#edd5d5" stroke="#b20400" points="490.5,-935 415.5,-935 415.5,-899 490.5,-899 490.5,-935"/>
<text text-anchor="middle" x="453" y="-919.6" font-family="Times,serif" font-size="8.00">treat_file</text>
<text text-anchor="middle" x="453" y="-910.6" font-family="Times,serif" font-size="8.00">0 of 389 (92.62%)</text>
</a>
</g>
</g>
<!-- N12&#45;&gt;N15 -->
<g id="edge2" class="edge">
<title>N12&#45;&gt;N15</title>
<g id="a_edge2"><a xlink:title="_start ... treat_file (389)">
<path fill="none" stroke="#b20400" stroke-width="5" stroke-dasharray="1,5" d="M453,-985.8C453,-974.16 453,-958.55 453,-945.24"/>
<polygon fill="#b20400" stroke="#b20400" stroke-width="5" points="457.38,-945.18 453,-935.18 448.63,-945.18 457.38,-945.18"/>
</a>
</g>
<g id="a_edge2&#45;label"><a xlink:title="_start ... treat_file (389)">
<text text-anchor="middle" x="465.5" y="-956.8" font-family="Times,serif" font-size="14.00"> 389</text>
</a>
</g>
</g>
<!-- N13 -->
<g id="node13" class="node">
<title>N13</title>
<g id="a_node13"><a xlink:title="zip (386)">
<polygon fill="#edd6d5" stroke="#b20400" points="490.5,-848 415.5,-848 415.5,-812 490.5,-812 490.5,-848"/>
<text text-anchor="middle" x="453" y="-832.6" font-family="Times,serif" font-size="8.00">zip</text>
<text text-anchor="middle" x="453" y="-823.6" font-family="Times,serif" font-size="8.00">0 of 386 (91.90%)</text>
</a>
</g>
</g>
<!-- N13&#45;&gt;N1 -->
<g id="edge4" class="edge">
<title>N13&#45;&gt;N1</title>
<g id="a_edge4"><a xlink:title="zip &#45;&gt; deflate (384)">
<path fill="none" stroke="#b20400" stroke-width="5" d="M453,-811.87C453,-800.73 453,-785.66 453,-771.38"/>
<polygon fill="#b20400" stroke="#b20400" stroke-width="5" points="457.38,-771.18 453,-761.18 448.63,-771.18 457.38,-771.18"/>
</a>
</g>
<g id="a_edge4&#45;label"><a xlink:title="zip &#45;&gt; deflate (384)">
<text text-anchor="middle" x="465.5" y="-782.8" font-family="Times,serif" font-size="14.00"> 384</text>
</a>
</g>
</g>
<!-- N13&#45;&gt;N20 -->
<g id="edge28" class="edge">
<title>N13&#45;&gt;N20</title>
<g id="a_edge28"><a xlink:title="zip &#45;&gt; flush_block (1)">
<path fill="none" stroke="#b2b2b0" d="M422.17,-811.85C403.21,-799.86 379.79,-782.23 365,-761 339.16,-723.92 329.15,-671.25 325.31,-639.48"/>
<polygon fill="#b2b2b0" stroke="#b2b2b0" points="328.76,-638.75 324.2,-629.18 321.8,-639.5 328.76,-638.75"/>
</a>
</g>
<g id="a_edge28&#45;label"><a xlink:title="zip &#45;&gt; flush_block (1)">
<text text-anchor="middle" x="370.5" y="-723.3" font-family="Times,serif" font-size="14.00"> 1</text>
</a>
</g>
</g>
<!-- N15&#45;&gt;N13 -->
<g id="edge3" class="edge">
<title>N15&#45;&gt;N13</title>
<g id="a_edge3"><a xlink:title="treat_file &#45;&gt; zip (386)">
<path fill="none" stroke="#b20400" stroke-width="5" d="M453,-898.8C453,-887.16 453,-871.55 453,-858.24"/>
<polygon fill="#b20400" stroke="#b20400" stroke-width="5" points="457.38,-858.18 453,-848.18 448.63,-858.18 457.38,-858.18"/>
</a>
</g>
<g id="a_edge3&#45;label"><a xlink:title="treat_file &#45;&gt; zip (386)">
<text text-anchor="middle" x="465.5" y="-869.8" font-family="Times,serif" font-size="14.00"> 386</text>
</a>
</g>
</g>
<!-- N16&#45;&gt;N3 -->
<g id="edge22" class="edge">
<title>N16&#45;&gt;N3</title>
<g id="a_edge22"><a xlink:title="[unknown] &#45;&gt; longest_match (2)">
<path fill="none" stroke="#b2b1ae" d="M564.99,-708.76C555.47,-694.66 540.78,-674.71 525,-660 520.31,-655.63 515.19,-651.38 509.9,-647.34"/>
<polygon fill="#b2b1ae" stroke="#b2b1ae" points="511.64,-644.27 501.51,-641.17 507.49,-649.91 511.64,-644.27"/>
</a>
</g>
<g id="a_edge22&#45;label"><a xlink:title="[unknown] &#45;&gt; longest_match (2)">
<text text-anchor="middle" x="545.5" y="-663.8" font-family="Times,serif" font-size="14.00"> 2</text>
</a>
</g>
</g>
<!-- N16&#45;&gt;N8 -->
<g id="edge21" class="edge">
<title>N16&#45;&gt;N8</title>
<g id="a_edge21"><a xlink:title="[unknown] &#45;&gt; compress_block (2)">
<path fill="none" stroke="#b2b1ae" d="M593.05,-708.61C619.55,-679.46 664.47,-619.99 633,-580 602.58,-541.35 465.1,-520.22 383.79,-510.91"/>
<polygon fill="#b2b1ae" stroke="#b2b1ae" points="384,-507.42 373.68,-509.78 383.23,-514.37 384,-507.42"/>
</a>
</g>
<g id="a_edge21&#45;label"><a xlink:title="[unknown] &#45;&gt; compress_block (2)">
<text text-anchor="middle" x="649.5" y="-607.3" font-family="Times,serif" font-size="14.00"> 2</text>
</a>
</g>
</g>
<!-- N16&#45;&gt;N9 -->
<g id="edge19" class="edge">
<title>N16&#45;&gt;N9</title>
<g id="a_edge19"><a xlink:title="[unknown] &#45;&gt; send_bits (5)">
<path fill="none" stroke="#b2afa7" d="M601.05,-708.88C613.36,-699.72 627.9,-687.72 639,-675 667.37,-642.49 679.79,-617.81 659,-580 602.65,-477.5 464.31,-428.49 386.83,-408.37"/>
<polygon fill="#b2afa7" stroke="#b2afa7" points="387.33,-404.89 376.78,-405.84 385.62,-411.68 387.33,-404.89"/>
</a>
</g>
<g id="a_edge19&#45;label"><a xlink:title="[unknown] &#45;&gt; send_bits (5)">
<text text-anchor="middle" x="652.5" y="-550.8" font-family="Times,serif" font-size="14.00"> 5</text>
</a>
</g>
</g>
<!-- N16&#45;&gt;N10 -->
<g id="edge25" class="edge">
<title>N16&#45;&gt;N10</title>
<g id="a_edge25"><a xlink:title="[unknown] &#45;&gt; ct_tally (1)">
<path fill="none" stroke="#b2b2b0" d="M577.67,-708.69C579.45,-690.25 582.29,-660.82 584.37,-639.26"/>
<polygon fill="#b2b2b0" stroke="#b2b2b0" points="587.87,-639.39 585.35,-629.1 580.91,-638.72 587.87,-639.39"/>
</a>
</g>
<g id="a_edge25&#45;label"><a xlink:title="[unknown] &#45;&gt; ct_tally (1)">
<text text-anchor="middle" x="588.5" y="-663.8" font-family="Times,serif" font-size="14.00"> 1</text>
</a>
</g>
</g>
<!-- N17 -->
<g id="node17" class="node">
<title>N17</title>
<g id="a_node17"><a xlink:title="page_cache_ra_unbounded (13)">
<polygon fill="#edebe9" stroke="#b2a896" points="221.5,-41 96.5,-41 96.5,0 221.5,0 221.5,-41"/>
<text text-anchor="middle" x="159" y="-29" font-family="Times,serif" font-size="10.00">page_cache_ra_unbounded</text>
<text text-anchor="middle" x="159" y="-18" font-family="Times,serif" font-size="10.00">2 (0.48%)</text>
<text text-anchor="middle" x="159" y="-7" font-family="Times,serif" font-size="10.00">of 13 (3.10%)</text>
</a>
</g>
</g>
<!-- N19&#45;&gt;N17 -->
<g id="edge14" class="edge">
<title>N19&#45;&gt;N17</title>
<g id="a_edge14"><a xlink:title="__x64_sys_read ... page_cache_ra_unbounded (13)">
<path fill="none" stroke="#b2a896" stroke-dasharray="1,5" d="M159,-91.97C159,-80.14 159,-64.81 159,-51.47"/>
<polygon fill="#b2a896" stroke="#b2a896" points="162.5,-51.3 159,-41.3 155.5,-51.3 162.5,-51.3"/>
</a>
</g>
<g id="a_edge14&#45;label"><a xlink:title="__x64_sys_read ... page_cache_ra_unbounded (13)">
<text text-anchor="middle" x="168" y="-62.8" font-family="Times,serif" font-size="14.00"> 13</text>
</a>
</g>
</g>
<!-- N20&#45;&gt;N8 -->
<g id="edge11" class="edge">
<title>N20&#45;&gt;N8</title>
<g id="a_edge11"><a xlink:title="flush_block &#45;&gt; compress_block (23)">
<path fill="none" stroke="#b29e81" d="M323,-592.66C323,-578.15 323,-557.01 323,-539.12"/>
<polygon fill="#b29e81" stroke="#b29e81" points="326.5,-539.04 323,-529.04 319.5,-539.04 326.5,-539.04"/>
</a>
</g>
<g id="a_edge11&#45;label"><a xlink:title="flush_block &#45;&gt; compress_block (23)">
<text text-anchor="middle" x="332" y="-550.8" font-family="Times,serif" font-size="14.00"> 23</text>
</a>
</g>
</g>
</g>
</svg>
