<?xml version="1.0" encoding="UTF-8" standalone="no"?>
<!DOCTYPE svg PUBLIC "-//W3C//DTD SVG 1.1//EN"
 "http://www.w3.org/Graphics/SVG/1.1/DTD/svg11.dtd">
<!-- Generated by graphviz version 2.43.0 (0)
 -->
<!-- Title: prof Pages: 1 -->
<svg width="2052pt" height="620pt"
 viewBox="0.00 0.00 2051.99 620.00" xmlns="http://www.w3.org/2000/svg" xmlns:xlink="http://www.w3.org/1999/xlink">
<g id="graph0" class="graph" transform="scale(1 1) rotate(0) translate(4 616)">
<title>prof</title>
<polygon fill="white" stroke="transparent" points="-4,4 -4,-616 2047.99,-616 2047.99,4 -4,4"/>
<!-- start -->
<g id="node1" class="node">
<title>start</title>
<ellipse fill="lightgrey" stroke="black" cx="1480.45" cy="-594" rx="28.7" ry="18"/>
<text text-anchor="middle" x="1480.45" y="-590.3" font-family="Helvetica,Arial,sans-serif" font-size="14.00">start</text>
</g>
<!-- main -->
<g id="node2" class="node">
<title>main</title>
<ellipse fill="#ccd1ff" stroke="#ccd1ff" cx="986.45" cy="-450" rx="30.59" ry="18"/>
<text text-anchor="middle" x="986.45" y="-446.3" font-family="Helvetica,Arial,sans-serif" font-size="14.00">main</text>
</g>
<!-- start&#45;&gt;main -->
<g id="edge1" class="edge">
<title>start&#45;&gt;main</title>
<path fill="none" stroke="#fe0300" d="M1454.93,-585.66C1373.34,-562.21 1118.6,-488.99 1023.1,-461.54"/>
<polygon fill="#fe0300" stroke="#fe0300" points="1023.89,-458.12 1013.31,-458.72 1021.95,-464.85 1023.89,-458.12"/>
</g>
<!-- on_exit -->
<g id="node3" class="node">
<title>on_exit</title>
<ellipse fill="#ccd1ff" stroke="#ccd1ff" cx="1500.45" cy="-522" rx="38.99" ry="18"/>
<text text-anchor="middle" x="1500.45" y="-518.3" font-family="Helvetica,Arial,sans-serif" font-size="14.00">on_exit</text>
</g>
<!-- start&#45;&gt;on_exit -->
<g id="edge2" class="edge">
<title>start&#45;&gt;on_exit</title>
<path fill="none" stroke="#3542b2" d="M1485.29,-576.05C1487.52,-568.26 1490.21,-558.82 1492.71,-550.08"/>
<polygon fill="#3542b2" stroke="#3542b2" points="1496.13,-550.85 1495.51,-540.28 1489.4,-548.93 1496.13,-550.85"/>
</g>
<!-- sort -->
<g id="node4" class="node">
<title>sort</title>
<ellipse fill="#80ffb8" stroke="#80ffb8" cx="344.45" cy="-378" rx="27" ry="18"/>
<text text-anchor="middle" x="344.45" y="-374.3" font-family="Helvetica,Arial,sans-serif" font-size="14.00">sort</text>
</g>
<!-- main&#45;&gt;sort -->
<g id="edge3" class="edge">
<title>main&#45;&gt;sort</title>
<path fill="none" stroke="#22d532" d="M955.9,-449.56C866.64,-450.49 599.08,-448.39 385.45,-396 382.05,-395.17 378.57,-394.1 375.14,-392.9"/>
<polygon fill="#22d532" stroke="#22d532" points="376.32,-389.6 365.73,-389.27 373.81,-396.13 376.32,-389.6"/>
</g>
<!-- merge -->
<g id="node5" class="node">
<title>merge</title>
<ellipse fill="#bdd6ff" stroke="#bdd6ff" cx="463.45" cy="-378" rx="36.29" ry="18"/>
<text text-anchor="middle" x="463.45" y="-374.3" font-family="Helvetica,Arial,sans-serif" font-size="14.00">merge</text>
</g>
<!-- main&#45;&gt;merge -->
<g id="edge4" class="edge">
<title>main&#45;&gt;merge</title>
<path fill="none" stroke="#2eb4c2" d="M956.83,-445.04C869.5,-433.35 612.66,-398.97 508.3,-385"/>
<polygon fill="#2eb4c2" stroke="#2eb4c2" points="508.47,-381.5 498.1,-383.64 507.54,-388.43 508.47,-381.5"/>
</g>
<!-- term -->
<g id="node6" class="node">
<title>term</title>
<ellipse fill="#ccd1ff" stroke="#ccd1ff" cx="839.45" cy="-378" rx="28.7" ry="18"/>
<text text-anchor="middle" x="839.45" y="-374.3" font-family="Helvetica,Arial,sans-serif" font-size="14.00">term</text>
</g>
<!-- main&#45;&gt;term -->
<g id="edge5" class="edge">
<title>main&#45;&gt;term</title>
<path fill="none" stroke="#3544b3" d="M963.48,-438.06C938.63,-426.23 898.85,-407.29 871.06,-394.05"/>
<polygon fill="#3544b3" stroke="#3544b3" points="872.31,-390.77 861.77,-389.63 869.3,-397.09 872.31,-390.77"/>
</g>
<!-- signal -->
<g id="node7" class="node">
<title>signal</title>
<ellipse fill="#cad1ff" stroke="#cad1ff" cx="1167.45" cy="-306" rx="33.6" ry="18"/>
<text text-anchor="middle" x="1167.45" y="-302.3" font-family="Helvetica,Arial,sans-serif" font-size="14.00">signal</text>
</g>
<!-- main&#45;&gt;signal -->
<g id="edge6" class="edge">
<title>main&#45;&gt;signal</title>
<path fill="none" stroke="#3542b2" d="M1017,-448.2C1084.98,-445.7 1245.35,-435.65 1278.45,-396 1288.7,-383.72 1286.98,-373.53 1278.45,-360 1263.23,-335.87 1233.67,-322.49 1208.87,-315.21"/>
<polygon fill="#3542b2" stroke="#3542b2" points="1209.51,-311.76 1198.95,-312.54 1207.69,-318.52 1209.51,-311.76"/>
</g>
<!-- sbrk -->
<g id="node8" class="node">
<title>sbrk</title>
<ellipse fill="#cad1ff" stroke="#cad1ff" cx="1663.45" cy="-90" rx="27.1" ry="18"/>
<text text-anchor="middle" x="1663.45" y="-86.3" font-family="Helvetica,Arial,sans-serif" font-size="14.00">sbrk</text>
</g>
<!-- main&#45;&gt;sbrk -->
<g id="edge7" class="edge">
<title>main&#45;&gt;sbrk</title>
<path fill="none" stroke="#3542b2" d="M1016.95,-448.35C1133.15,-445.61 1543.76,-433.35 1587.45,-396 1670.23,-325.23 1670.13,-179.43 1666.06,-118.6"/>
<polygon fill="#3542b2" stroke="#3542b2" points="1669.53,-117.98 1665.28,-108.27 1662.55,-118.51 1669.53,-117.98"/>
</g>
<!-- unlink -->
<g id="node9" class="node">
<title>unlink</title>
<ellipse fill="#c5d2ff" stroke="#c5d2ff" cx="834.45" cy="-306" rx="33.6" ry="18"/>
<text text-anchor="middle" x="834.45" y="-302.3" font-family="Helvetica,Arial,sans-serif" font-size="14.00">unlink</text>
</g>
<!-- main&#45;&gt;unlink -->
<g id="edge8" class="edge">
<title>main&#45;&gt;unlink</title>
<path fill="none" stroke="#3542b2" d="M955.83,-447.37C894.01,-443.36 757.72,-430.7 729.45,-396 719.34,-383.6 721.06,-373.63 729.45,-360 737.31,-347.22 770.75,-331.65 797.8,-320.7"/>
<polygon fill="#3542b2" stroke="#3542b2" points="799.42,-323.83 807.42,-316.89 796.84,-317.32 799.42,-323.83"/>
</g>
<!-- newfile -->
<g id="node10" class="node">
<title>newfile</title>
<ellipse fill="#ccd1ff" stroke="#ccd1ff" cx="706.45" cy="-306" rx="38.19" ry="18"/>
<text text-anchor="middle" x="706.45" y="-302.3" font-family="Helvetica,Arial,sans-serif" font-size="14.00">newfile</text>
</g>
<!-- main&#45;&gt;newfile -->
<g id="edge9" class="edge">
<title>main&#45;&gt;newfile</title>
<path fill="none" stroke="#3542b2" d="M956.03,-447.26C893.06,-443.01 751.6,-429.83 719.45,-396 704.11,-379.86 701.82,-354.09 702.81,-334.42"/>
<polygon fill="#3542b2" stroke="#3542b2" points="706.32,-334.47 703.63,-324.22 699.34,-333.91 706.32,-334.47"/>
</g>
<!-- fclose -->
<g id="node11" class="node">
<title>fclose</title>
<ellipse fill="#ccd1ff" stroke="#ccd1ff" cx="354.45" cy="-306" rx="33.6" ry="18"/>
<text text-anchor="middle" x="354.45" y="-302.3" font-family="Helvetica,Arial,sans-serif" font-size="14.00">fclose</text>
</g>
<!-- main&#45;&gt;fclose -->
<g id="edge10" class="edge">
<title>main&#45;&gt;fclose</title>
<path fill="none" stroke="#3542b2" d="M955.61,-449.42C851.03,-450.34 511.15,-449.1 418.45,-396 393.78,-381.87 376.11,-353.94 365.67,-333.11"/>
<polygon fill="#3542b2" stroke="#3542b2" points="368.72,-331.36 361.26,-323.84 362.4,-334.37 368.72,-331.36"/>
</g>
<!-- close -->
<g id="node12" class="node">
<title>close</title>
<ellipse fill="#ccd1ff" stroke="#ccd1ff" cx="614.45" cy="-234" rx="31.4" ry="18"/>
<text text-anchor="middle" x="614.45" y="-230.3" font-family="Helvetica,Arial,sans-serif" font-size="14.00">close</text>
</g>
<!-- main&#45;&gt;close -->
<g id="edge11" class="edge">
<title>main&#45;&gt;close</title>
<path fill="none" stroke="#3542b2" d="M956.31,-446.62C891.5,-440.99 741.39,-425.12 700.45,-396 654.61,-363.4 631,-298.62 620.82,-261.95"/>
<polygon fill="#3542b2" stroke="#3542b2" points="624.12,-260.75 618.19,-251.97 617.35,-262.53 624.12,-260.75"/>
</g>
<!-- brk -->
<g id="node13" class="node">
<title>brk</title>
<ellipse fill="#ccd1ff" stroke="#ccd1ff" cx="765.45" cy="-378" rx="27" ry="18"/>
<text text-anchor="middle" x="765.45" y="-374.3" font-family="Helvetica,Arial,sans-serif" font-size="14.00">brk</text>
</g>
<!-- main&#45;&gt;brk -->
<g id="edge12" class="edge">
<title>main&#45;&gt;brk</title>
<path fill="none" stroke="#3542b2" d="M958.41,-442.48C921.77,-433.61 855.85,-416.48 801.45,-396 799.6,-395.31 797.72,-394.56 795.84,-393.77"/>
<polygon fill="#3542b2" stroke="#3542b2" points="797.08,-390.49 786.52,-389.65 794.25,-396.89 797.08,-390.49"/>
</g>
<!-- setbuf -->
<g id="node14" class="node">
<title>setbuf</title>
<ellipse fill="#ccd1ff" stroke="#ccd1ff" cx="34.45" cy="-306" rx="34.39" ry="18"/>
<text text-anchor="middle" x="34.45" y="-302.3" font-family="Helvetica,Arial,sans-serif" font-size="14.00">setbuf</text>
</g>
<!-- main&#45;&gt;setbuf -->
<g id="edge13" class="edge">
<title>main&#45;&gt;setbuf</title>
<path fill="none" stroke="#3542b2" d="M955.69,-449.16C859.24,-449.13 554.53,-444.87 308.45,-396 220.65,-378.56 121.7,-342.01 70.1,-321.59"/>
<polygon fill="#3542b2" stroke="#3542b2" points="71.31,-318.31 60.73,-317.85 68.72,-324.81 71.31,-318.31"/>
</g>
<!-- copyproto -->
<g id="node15" class="node">
<title>copyproto</title>
<ellipse fill="#ccd1ff" stroke="#ccd1ff" cx="935.45" cy="-378" rx="49.29" ry="18"/>
<text text-anchor="middle" x="935.45" y="-374.3" font-family="Helvetica,Arial,sans-serif" font-size="14.00">copyproto</text>
</g>
<!-- main&#45;&gt;copyproto -->
<g id="edge14" class="edge">
<title>main&#45;&gt;copyproto</title>
<path fill="none" stroke="#3542b2" d="M974.87,-433.12C968.6,-424.51 960.7,-413.67 953.63,-403.96"/>
<polygon fill="#3542b2" stroke="#3542b2" points="956.4,-401.82 947.69,-395.8 950.74,-405.94 956.4,-401.82"/>
</g>
<!-- initree -->
<g id="node16" class="node">
<title>initree</title>
<ellipse fill="#ccd1ff" stroke="#ccd1ff" cx="1037.45" cy="-378" rx="34.39" ry="18"/>
<text text-anchor="middle" x="1037.45" y="-374.3" font-family="Helvetica,Arial,sans-serif" font-size="14.00">initree</text>
</g>
<!-- main&#45;&gt;initree -->
<g id="edge15" class="edge">
<title>main&#45;&gt;initree</title>
<path fill="none" stroke="#3542b2" d="M998.02,-433.12C1004.38,-424.38 1012.42,-413.35 1019.57,-403.54"/>
<polygon fill="#3542b2" stroke="#3542b2" points="1022.51,-405.45 1025.57,-395.31 1016.85,-401.33 1022.51,-405.45"/>
</g>
<!-- safeoutfil -->
<g id="node17" class="node">
<title>safeoutfil</title>
<ellipse fill="#ccd1ff" stroke="#ccd1ff" cx="1136.45" cy="-378" rx="46.29" ry="18"/>
<text text-anchor="middle" x="1136.45" y="-374.3" font-family="Helvetica,Arial,sans-serif" font-size="14.00">safeoutfil</text>
</g>
<!-- main&#45;&gt;safeoutfil -->
<g id="edge16" class="edge">
<title>main&#45;&gt;safeoutfil</title>
<path fill="none" stroke="#3542b2" d="M1009.56,-438.22C1033.33,-427.12 1070.75,-409.66 1098.8,-396.57"/>
<polygon fill="#3542b2" stroke="#3542b2" points="1100.34,-399.71 1107.93,-392.31 1097.38,-393.37 1100.34,-399.71"/>
</g>
<!-- getpid -->
<g id="node18" class="node">
<title>getpid</title>
<ellipse fill="#ccd1ff" stroke="#ccd1ff" cx="1235.45" cy="-378" rx="34.39" ry="18"/>
<text text-anchor="middle" x="1235.45" y="-374.3" font-family="Helvetica,Arial,sans-serif" font-size="14.00">getpid</text>
</g>
<!-- main&#45;&gt;getpid -->
<g id="edge17" class="edge">
<title>main&#45;&gt;getpid</title>
<path fill="none" stroke="#3542b2" d="M1014.59,-442.81C1054.38,-433.82 1129.15,-416.01 1191.45,-396 1194.06,-395.16 1196.75,-394.25 1199.44,-393.3"/>
<polygon fill="#3542b2" stroke="#3542b2" points="1200.92,-396.48 1209.1,-389.75 1198.51,-389.91 1200.92,-396.48"/>
</g>
<!-- sprintf -->
<g id="node19" class="node">
<title>sprintf</title>
<ellipse fill="#ccd1ff" stroke="#ccd1ff" cx="1439.45" cy="-378" rx="34.39" ry="18"/>
<text text-anchor="middle" x="1439.45" y="-374.3" font-family="Helvetica,Arial,sans-serif" font-size="14.00">sprintf</text>
</g>
<!-- main&#45;&gt;sprintf -->
<g id="edge18" class="edge">
<title>main&#45;&gt;sprintf</title>
<path fill="none" stroke="#3542b2" d="M1016.77,-447.65C1085.39,-444.04 1257.45,-431.86 1396.45,-396 1399.05,-395.33 1401.71,-394.54 1404.37,-393.68"/>
<polygon fill="#3542b2" stroke="#3542b2" points="1405.62,-396.95 1413.87,-390.31 1403.28,-390.35 1405.62,-396.95"/>
</g>
<!-- creat -->
<g id="node20" class="node">
<title>creat</title>
<ellipse fill="#ccd1ff" stroke="#ccd1ff" cx="1356.45" cy="-378" rx="30.59" ry="18"/>
<text text-anchor="middle" x="1356.45" y="-374.3" font-family="Helvetica,Arial,sans-serif" font-size="14.00">creat</text>
</g>
<!-- main&#45;&gt;creat -->
<g id="edge19" class="edge">
<title>main&#45;&gt;creat</title>
<path fill="none" stroke="#3542b2" d="M1016.44,-446.13C1074.26,-440.16 1204.86,-424.52 1311.45,-396 1315.05,-395.04 1318.76,-393.89 1322.44,-392.66"/>
<polygon fill="#3542b2" stroke="#3542b2" points="1323.74,-395.91 1331.98,-389.25 1321.39,-389.32 1323.74,-395.91"/>
</g>
<!-- rem -->
<g id="node21" class="node">
<title>rem</title>
<ellipse fill="#ccd1ff" stroke="#ccd1ff" cx="1067.45" cy="-162" rx="27" ry="18"/>
<text text-anchor="middle" x="1067.45" y="-158.3" font-family="Helvetica,Arial,sans-serif" font-size="14.00">rem</text>
</g>
<!-- main&#45;&gt;rem -->
<g id="edge20" class="edge">
<title>main&#45;&gt;rem</title>
<path fill="none" stroke="#3542b2" d="M1017.06,-448.57C1131.7,-446.64 1530.99,-437.02 1568.45,-396 1593.52,-368.54 1557.01,-257.36 1496.45,-216 1424.03,-166.54 1188.06,-203.08 1103.45,-180 1101.5,-179.47 1099.52,-178.84 1097.55,-178.13"/>
<polygon fill="#3542b2" stroke="#3542b2" points="1098.49,-174.73 1087.91,-174.17 1095.83,-181.21 1098.49,-174.73"/>
</g>
<!-- oldfile -->
<g id="node22" class="node">
<title>oldfile</title>
<ellipse fill="#ccd1ff" stroke="#ccd1ff" cx="1525.45" cy="-378" rx="33.6" ry="18"/>
<text text-anchor="middle" x="1525.45" y="-374.3" font-family="Helvetica,Arial,sans-serif" font-size="14.00">oldfile</text>
</g>
<!-- main&#45;&gt;oldfile -->
<g id="edge21" class="edge">
<title>main&#45;&gt;oldfile</title>
<path fill="none" stroke="#3542b2" d="M1017.13,-448.58C1095.7,-446.9 1310.06,-438.45 1482.45,-396 1485.22,-395.32 1488.06,-394.49 1490.89,-393.58"/>
<polygon fill="#3542b2" stroke="#3542b2" points="1492.09,-396.87 1500.35,-390.23 1489.76,-390.27 1492.09,-396.87"/>
</g>
<!-- malloc -->
<g id="node44" class="node">
<title>malloc</title>
<ellipse fill="#ccd1ff" stroke="#ccd1ff" cx="1701.45" cy="-450" rx="36.29" ry="18"/>
<text text-anchor="middle" x="1701.45" y="-446.3" font-family="Helvetica,Arial,sans-serif" font-size="14.00">malloc</text>
</g>
<!-- on_exit&#45;&gt;malloc -->
<g id="edge71" class="edge">
<title>on_exit&#45;&gt;malloc</title>
<path fill="none" stroke="#29d820" d="M1530.54,-510.52C1565.73,-498.27 1624.05,-477.95 1662.62,-464.52"/>
<polygon fill="#29d820" stroke="#29d820" points="1664.16,-467.69 1672.46,-461.1 1661.86,-461.08 1664.16,-467.69"/>
</g>
<!-- sort&#45;&gt;newfile -->
<g id="edge24" class="edge">
<title>sort&#45;&gt;newfile</title>
<path fill="none" stroke="#3542b2" d="M369.38,-370.94C383.7,-367.55 402.04,-363.34 418.45,-360 508.24,-341.74 531.41,-340.99 621.45,-324 634.52,-321.53 648.69,-318.75 661.65,-316.15"/>
<polygon fill="#3542b2" stroke="#3542b2" points="662.63,-319.52 671.74,-314.12 661.25,-312.66 662.63,-319.52"/>
</g>
<!-- sort&#45;&gt;fclose -->
<g id="edge25" class="edge">
<title>sort&#45;&gt;fclose</title>
<path fill="none" stroke="#3542b2" d="M346.87,-360.05C347.97,-352.35 349.3,-343.03 350.54,-334.36"/>
<polygon fill="#3542b2" stroke="#3542b2" points="354.03,-334.67 351.98,-324.28 347.1,-333.68 354.03,-334.67"/>
</g>
<!-- sort&#45;&gt;setbuf -->
<g id="edge26" class="edge">
<title>sort&#45;&gt;setbuf</title>
<path fill="none" stroke="#3542b2" d="M318.5,-373C271.13,-365.41 167.65,-347.58 82.45,-324 78.67,-322.96 74.77,-321.76 70.89,-320.51"/>
<polygon fill="#3542b2" stroke="#3542b2" points="71.99,-317.18 61.4,-317.29 69.75,-323.81 71.99,-317.18"/>
</g>
<!-- msort -->
<g id="node23" class="node">
<title>msort</title>
<ellipse fill="#b9d9ff" stroke="#b9d9ff" cx="268.45" cy="-306" rx="33.6" ry="18"/>
<text text-anchor="middle" x="268.45" y="-302.3" font-family="Helvetica,Arial,sans-serif" font-size="14.00">msort</text>
</g>
<!-- sort&#45;&gt;msort -->
<g id="edge22" class="edge">
<title>sort&#45;&gt;msort</title>
<path fill="none" stroke="#3459b6" d="M329.07,-362.83C318.46,-353.07 304.17,-339.9 292.12,-328.8"/>
<polygon fill="#3459b6" stroke="#3459b6" points="294.32,-326.07 284.59,-321.87 289.58,-331.22 294.32,-326.07"/>
</g>
<!-- filbuf -->
<g id="node24" class="node">
<title>filbuf</title>
<ellipse fill="#c8d1ff" stroke="#c8d1ff" cx="101.45" cy="-234" rx="29.5" ry="18"/>
<text text-anchor="middle" x="101.45" y="-230.3" font-family="Helvetica,Arial,sans-serif" font-size="14.00">filbuf</text>
</g>
<!-- sort&#45;&gt;filbuf -->
<g id="edge23" class="edge">
<title>sort&#45;&gt;filbuf</title>
<path fill="none" stroke="#3542b2" d="M317.93,-374.54C263.68,-368.95 142.84,-353.42 115.45,-324 100.25,-307.68 97.64,-281.92 98.31,-262.31"/>
<polygon fill="#3542b2" stroke="#3542b2" points="101.81,-262.35 98.96,-252.15 94.83,-261.9 101.81,-262.35"/>
</g>
<!-- setfil -->
<g id="node25" class="node">
<title>setfil</title>
<ellipse fill="#ccd1ff" stroke="#ccd1ff" cx="776.45" cy="-234" rx="28.7" ry="18"/>
<text text-anchor="middle" x="776.45" y="-230.3" font-family="Helvetica,Arial,sans-serif" font-size="14.00">setfil</text>
</g>
<!-- sort&#45;&gt;setfil -->
<g id="edge27" class="edge">
<title>sort&#45;&gt;setfil</title>
<path fill="none" stroke="#3542b2" d="M365.11,-366.2C401.45,-347.63 479.56,-309.57 549.45,-288 630.74,-262.91 656.18,-277.15 737.45,-252 739.92,-251.24 742.44,-250.36 744.96,-249.42"/>
<polygon fill="#3542b2" stroke="#3542b2" points="746.53,-252.56 754.5,-245.58 743.91,-246.07 746.53,-252.56"/>
</g>
<!-- merge&#45;&gt;unlink -->
<g id="edge36" class="edge">
<title>merge&#45;&gt;unlink</title>
<path fill="none" stroke="#3542b2" d="M498.76,-373.29C558.62,-366.54 683.53,-350.45 786.45,-324 790.33,-323 794.35,-321.82 798.33,-320.56"/>
<polygon fill="#3542b2" stroke="#3542b2" points="799.68,-323.8 808.05,-317.3 797.45,-317.16 799.68,-323.8"/>
</g>
<!-- merge&#45;&gt;fclose -->
<g id="edge38" class="edge">
<title>merge&#45;&gt;fclose</title>
<path fill="none" stroke="#3542b2" d="M442.17,-363.34C425.56,-352.67 402.29,-337.72 383.89,-325.91"/>
<polygon fill="#3542b2" stroke="#3542b2" points="385.6,-322.85 375.3,-320.39 381.82,-328.74 385.6,-322.85"/>
</g>
<!-- merge&#45;&gt;setbuf -->
<g id="edge41" class="edge">
<title>merge&#45;&gt;setbuf</title>
<path fill="none" stroke="#3542b2" d="M430.82,-369.79C415.57,-366.56 397.12,-362.84 380.45,-360 263.27,-340.06 232.57,-344.22 115.45,-324 102.37,-321.74 88.2,-318.9 75.41,-316.19"/>
<polygon fill="#3542b2" stroke="#3542b2" points="76.01,-312.74 65.5,-314.06 74.54,-319.59 76.01,-312.74"/>
</g>
<!-- merge&#45;&gt;setfil -->
<g id="edge39" class="edge">
<title>merge&#45;&gt;setfil</title>
<path fill="none" stroke="#3542b2" d="M499.57,-375.15C568.92,-370.85 717.05,-357.86 753.45,-324 770.28,-308.34 775.45,-282.11 776.76,-262.17"/>
<polygon fill="#3542b2" stroke="#3542b2" points="780.26,-262.25 777.13,-252.13 773.26,-261.99 780.26,-262.25"/>
</g>
<!-- insert -->
<g id="node27" class="node">
<title>insert</title>
<ellipse fill="#ccd1ff" stroke="#ccd1ff" cx="532.45" cy="-234" rx="32.49" ry="18"/>
<text text-anchor="middle" x="532.45" y="-230.3" font-family="Helvetica,Arial,sans-serif" font-size="14.00">insert</text>
</g>
<!-- merge&#45;&gt;insert -->
<g id="edge33" class="edge">
<title>merge&#45;&gt;insert</title>
<path fill="none" stroke="#3542b2" d="M463.25,-359.95C463.71,-341.27 466.49,-310.92 478.45,-288 484.92,-275.59 495.36,-264.34 505.34,-255.42"/>
<polygon fill="#3542b2" stroke="#3542b2" points="507.79,-257.93 513.16,-248.79 503.26,-252.58 507.79,-257.93"/>
</g>
<!-- wline -->
<g id="node28" class="node">
<title>wline</title>
<ellipse fill="#d7ff3e" stroke="#d7ff3e" cx="186.45" cy="-234" rx="30.59" ry="18"/>
<text text-anchor="middle" x="186.45" y="-230.3" font-family="Helvetica,Arial,sans-serif" font-size="14.00">wline</text>
</g>
<!-- merge&#45;&gt;wline -->
<g id="edge35" class="edge">
<title>merge&#45;&gt;wline</title>
<path fill="none" stroke="#3542b2" d="M430.52,-370.07C366.14,-356.46 229.44,-327.29 225.45,-324 206.59,-308.48 196.59,-282.06 191.46,-262.02"/>
<polygon fill="#3542b2" stroke="#3542b2" points="194.85,-261.17 189.2,-252.21 188.03,-262.75 194.85,-261.17"/>
</g>
<!-- cmpsave -->
<g id="node30" class="node">
<title>cmpsave</title>
<ellipse fill="#ccd1ff" stroke="#ccd1ff" cx="398.45" cy="-234" rx="46.29" ry="18"/>
<text text-anchor="middle" x="398.45" y="-230.3" font-family="Helvetica,Arial,sans-serif" font-size="14.00">cmpsave</text>
</g>
<!-- merge&#45;&gt;cmpsave -->
<g id="edge42" class="edge">
<title>merge&#45;&gt;cmpsave</title>
<path fill="none" stroke="#3542b2" d="M455.74,-360.15C444.54,-335.71 423.7,-290.17 410.48,-261.29"/>
<polygon fill="#3542b2" stroke="#3542b2" points="413.49,-259.46 406.15,-251.82 407.13,-262.37 413.49,-259.46"/>
</g>
<!-- rline -->
<g id="node31" class="node">
<title>rline</title>
<ellipse fill="#6fff82" stroke="#6fff82" cx="151.45" cy="-306" rx="27.1" ry="18"/>
<text text-anchor="middle" x="151.45" y="-302.3" font-family="Helvetica,Arial,sans-serif" font-size="14.00">rline</text>
</g>
<!-- merge&#45;&gt;rline -->
<g id="edge34" class="edge">
<title>merge&#45;&gt;rline</title>
<path fill="none" stroke="#3542b2" d="M430.35,-370.12C415.15,-366.99 396.9,-363.26 380.45,-360 297,-343.46 273.94,-348.42 192.45,-324 189.27,-323.05 186.01,-321.94 182.77,-320.75"/>
<polygon fill="#3542b2" stroke="#3542b2" points="183.86,-317.42 173.28,-317.02 181.3,-323.93 183.86,-317.42"/>
</g>
<!-- fopen -->
<g id="node32" class="node">
<title>fopen</title>
<ellipse fill="#ccd1ff" stroke="#ccd1ff" cx="696.45" cy="-234" rx="32.49" ry="18"/>
<text text-anchor="middle" x="696.45" y="-230.3" font-family="Helvetica,Arial,sans-serif" font-size="14.00">fopen</text>
</g>
<!-- merge&#45;&gt;fopen -->
<g id="edge37" class="edge">
<title>merge&#45;&gt;fopen</title>
<path fill="none" stroke="#3542b2" d="M475.34,-360.6C490.49,-340.8 518.44,-307.72 549.45,-288 591.08,-261.53 608.23,-269.26 654.45,-252 656.83,-251.11 659.29,-250.17 661.75,-249.21"/>
<polygon fill="#3542b2" stroke="#3542b2" points="663.2,-252.4 671.21,-245.47 660.63,-245.89 663.2,-252.4"/>
</g>
<!-- mul -->
<g id="node33" class="node">
<title>mul</title>
<ellipse fill="#ccd1ff" stroke="#ccd1ff" cx="585.45" cy="-306" rx="27" ry="18"/>
<text text-anchor="middle" x="585.45" y="-302.3" font-family="Helvetica,Arial,sans-serif" font-size="14.00">mul</text>
</g>
<!-- merge&#45;&gt;mul -->
<g id="edge40" class="edge">
<title>merge&#45;&gt;mul</title>
<path fill="none" stroke="#3542b2" d="M486.39,-363.83C506.32,-352.4 535.28,-335.78 556.74,-323.47"/>
<polygon fill="#3542b2" stroke="#3542b2" points="558.5,-326.5 565.43,-318.48 555.02,-320.43 558.5,-326.5"/>
</g>
<!-- term&#45;&gt;signal -->
<g id="edge51" class="edge">
<title>term&#45;&gt;signal</title>
<path fill="none" stroke="#3542b2" d="M861.2,-366.19C866.43,-363.9 872.06,-361.67 877.45,-360 963.04,-333.45 1067.22,-318.43 1124.51,-311.58"/>
<polygon fill="#3542b2" stroke="#3542b2" points="1125.12,-315.03 1134.65,-310.4 1124.31,-308.08 1125.12,-315.03"/>
</g>
<!-- term&#45;&gt;unlink -->
<g id="edge50" class="edge">
<title>term&#45;&gt;unlink</title>
<path fill="none" stroke="#3542b2" d="M838.21,-359.7C837.66,-351.98 837,-342.71 836.38,-334.11"/>
<polygon fill="#3542b2" stroke="#3542b2" points="839.87,-333.83 835.67,-324.1 832.89,-334.33 839.87,-333.83"/>
</g>
<!-- term&#45;&gt;setfil -->
<g id="edge52" class="edge">
<title>term&#45;&gt;setfil</title>
<path fill="none" stroke="#3542b2" d="M862.1,-366.83C893.56,-352.6 946.91,-328.04 949.45,-324 957.96,-310.45 958.96,-300.86 949.45,-288 918.78,-246.53 856.27,-236.45 815.39,-234.56"/>
<polygon fill="#3542b2" stroke="#3542b2" points="815.35,-231.06 805.25,-234.24 815.13,-238.05 815.35,-231.06"/>
</g>
<!-- exit -->
<g id="node39" class="node">
<title>exit</title>
<ellipse fill="#ccd1ff" stroke="#ccd1ff" cx="913.45" cy="-306" rx="27" ry="18"/>
<text text-anchor="middle" x="913.45" y="-302.3" font-family="Helvetica,Arial,sans-serif" font-size="14.00">exit</text>
</g>
<!-- term&#45;&gt;exit -->
<g id="edge53" class="edge">
<title>term&#45;&gt;exit</title>
<path fill="none" stroke="#3542b2" d="M854.78,-362.5C865.27,-352.58 879.34,-339.26 891.08,-328.16"/>
<polygon fill="#3542b2" stroke="#3542b2" points="893.53,-330.66 898.39,-321.25 888.72,-325.58 893.53,-330.66"/>
</g>
<!-- sigvec -->
<g id="node53" class="node">
<title>sigvec</title>
<ellipse fill="#ccd1ff" stroke="#ccd1ff" cx="1167.45" cy="-234" rx="36" ry="18"/>
<text text-anchor="middle" x="1167.45" y="-230.3" font-family="Helvetica,Arial,sans-serif" font-size="14.00">sigvec</text>
</g>
<!-- signal&#45;&gt;sigvec -->
<g id="edge72" class="edge">
<title>signal&#45;&gt;sigvec</title>
<path fill="none" stroke="#3542b2" d="M1167.45,-287.7C1167.45,-279.98 1167.45,-270.71 1167.45,-262.11"/>
<polygon fill="#3542b2" stroke="#3542b2" points="1170.95,-262.1 1167.45,-252.1 1163.95,-262.1 1170.95,-262.1"/>
</g>
<!-- newfile&#45;&gt;setfil -->
<g id="edge58" class="edge">
<title>newfile&#45;&gt;setfil</title>
<path fill="none" stroke="#3542b2" d="M721.98,-289.46C731.58,-279.87 744.03,-267.42 754.61,-256.84"/>
<polygon fill="#3542b2" stroke="#3542b2" points="757.31,-259.08 761.91,-249.54 752.37,-254.13 757.31,-259.08"/>
</g>
<!-- newfile&#45;&gt;fopen -->
<g id="edge57" class="edge">
<title>newfile&#45;&gt;fopen</title>
<path fill="none" stroke="#344db4" d="M703.98,-287.7C702.87,-279.98 701.55,-270.71 700.32,-262.11"/>
<polygon fill="#344db4" stroke="#344db4" points="703.77,-261.51 698.89,-252.1 696.84,-262.5 703.77,-261.51"/>
</g>
<!-- fclose&#45;&gt;close -->
<g id="edge60" class="edge">
<title>fclose&#45;&gt;close</title>
<path fill="none" stroke="#3542b2" d="M385.7,-299.03C428.58,-290.49 507.81,-273.41 573.45,-252 575.88,-251.21 578.38,-250.33 580.87,-249.41"/>
<polygon fill="#3542b2" stroke="#3542b2" points="582.35,-252.59 590.4,-245.7 579.81,-246.07 582.35,-252.59"/>
</g>
<!-- fflush -->
<g id="node43" class="node">
<title>fflush</title>
<ellipse fill="#ccd1ff" stroke="#ccd1ff" cx="362.45" cy="-162" rx="32.49" ry="18"/>
<text text-anchor="middle" x="362.45" y="-158.3" font-family="Helvetica,Arial,sans-serif" font-size="14.00">fflush</text>
</g>
<!-- fclose&#45;&gt;fflush -->
<g id="edge59" class="edge">
<title>fclose&#45;&gt;fflush</title>
<path fill="none" stroke="#3547b3" d="M385,-297.73C408.26,-290.41 438.72,-276.59 453.45,-252 461.67,-238.27 461.42,-229.87 453.45,-216 442.02,-196.11 419.93,-182.99 400.38,-174.77"/>
<polygon fill="#3547b3" stroke="#3547b3" points="401.63,-171.51 391.04,-171.13 399.09,-178.03 401.63,-171.51"/>
</g>
<!-- doprnt -->
<g id="node58" class="node">
<title>doprnt</title>
<ellipse fill="#ccd1ff" stroke="#ccd1ff" cx="1439.45" cy="-306" rx="36" ry="18"/>
<text text-anchor="middle" x="1439.45" y="-302.3" font-family="Helvetica,Arial,sans-serif" font-size="14.00">doprnt</text>
</g>
<!-- sprintf&#45;&gt;doprnt -->
<g id="edge85" class="edge">
<title>sprintf&#45;&gt;doprnt</title>
<path fill="none" stroke="#3542b2" d="M1439.45,-359.7C1439.45,-351.98 1439.45,-342.71 1439.45,-334.11"/>
<polygon fill="#3542b2" stroke="#3542b2" points="1442.95,-334.1 1439.45,-324.1 1435.95,-334.1 1442.95,-334.1"/>
</g>
<!-- qsort -->
<g id="node26" class="node">
<title>qsort</title>
<ellipse fill="#8dffdc" stroke="#8dffdc" cx="265.45" cy="-234" rx="30.59" ry="18"/>
<text text-anchor="middle" x="265.45" y="-230.3" font-family="Helvetica,Arial,sans-serif" font-size="14.00">qsort</text>
</g>
<!-- msort&#45;&gt;qsort -->
<g id="edge28" class="edge">
<title>msort&#45;&gt;qsort</title>
<path fill="none" stroke="#3542b2" d="M267.71,-287.7C267.37,-279.98 266.98,-270.71 266.61,-262.11"/>
<polygon fill="#3542b2" stroke="#3542b2" points="270.11,-261.95 266.18,-252.1 263.11,-262.25 270.11,-261.95"/>
</g>
<!-- msort&#45;&gt;insert -->
<g id="edge29" class="edge">
<title>msort&#45;&gt;insert</title>
<path fill="none" stroke="#3542b2" d="M294.16,-294.15C299.8,-291.96 305.78,-289.79 311.45,-288 344.94,-277.42 438.72,-255.93 492.75,-243.81"/>
<polygon fill="#3542b2" stroke="#3542b2" points="493.68,-247.19 502.67,-241.59 492.15,-240.36 493.68,-247.19"/>
</g>
<!-- msort&#45;&gt;wline -->
<g id="edge30" class="edge">
<title>msort&#45;&gt;wline</title>
<path fill="none" stroke="#3542b2" d="M251.06,-290.15C239.38,-280.18 223.82,-266.9 210.9,-255.87"/>
<polygon fill="#3542b2" stroke="#3542b2" points="213.13,-253.18 203.25,-249.35 208.58,-258.5 213.13,-253.18"/>
</g>
<!-- div -->
<g id="node29" class="node">
<title>div</title>
<ellipse fill="#ccd1ff" stroke="#ccd1ff" cx="776.45" cy="-162" rx="27" ry="18"/>
<text text-anchor="middle" x="776.45" y="-158.3" font-family="Helvetica,Arial,sans-serif" font-size="14.00">div</text>
</g>
<!-- msort&#45;&gt;div -->
<g id="edge31" class="edge">
<title>msort&#45;&gt;div</title>
<path fill="none" stroke="#3542b2" d="M279.81,-288.74C296.45,-265.44 327.23,-224.45 343.45,-216 500.55,-134.11 569.5,-226.54 740.45,-180 742.4,-179.47 744.37,-178.84 746.34,-178.13"/>
<polygon fill="#3542b2" stroke="#3542b2" points="748.06,-181.21 755.98,-174.17 745.4,-174.74 748.06,-181.21"/>
</g>
<!-- msort&#45;&gt;cmpsave -->
<g id="edge32" class="edge">
<title>msort&#45;&gt;cmpsave</title>
<path fill="none" stroke="#3542b2" d="M291.39,-292.65C311.25,-281.95 340.29,-266.32 363.11,-254.02"/>
<polygon fill="#3542b2" stroke="#3542b2" points="365.01,-256.98 372.16,-249.16 361.69,-250.82 365.01,-256.98"/>
</g>
<!-- read -->
<g id="node38" class="node">
<title>read</title>
<ellipse fill="#b5dcff" stroke="#b5dcff" cx="101.45" cy="-162" rx="28.7" ry="18"/>
<text text-anchor="middle" x="101.45" y="-158.3" font-family="Helvetica,Arial,sans-serif" font-size="14.00">read</text>
</g>
<!-- filbuf&#45;&gt;read -->
<g id="edge49" class="edge">
<title>filbuf&#45;&gt;read</title>
<path fill="none" stroke="#3542b2" d="M101.45,-215.7C101.45,-207.98 101.45,-198.71 101.45,-190.11"/>
<polygon fill="#3542b2" stroke="#3542b2" points="104.95,-190.1 101.45,-180.1 97.95,-190.1 104.95,-190.1"/>
</g>
<!-- setfil&#45;&gt;rem -->
<g id="edge78" class="edge">
<title>setfil&#45;&gt;rem</title>
<path fill="none" stroke="#3542b2" d="M804.18,-229.43C851.63,-222.84 951.05,-206.92 1031.45,-180 1033.36,-179.36 1035.31,-178.64 1037.26,-177.87"/>
<polygon fill="#3542b2" stroke="#3542b2" points="1039.05,-180.91 1046.85,-173.74 1036.28,-174.49 1039.05,-180.91"/>
</g>
<!-- setfil&#45;&gt;div -->
<g id="edge77" class="edge">
<title>setfil&#45;&gt;div</title>
<path fill="none" stroke="#3542b2" d="M776.45,-215.7C776.45,-207.98 776.45,-198.71 776.45,-190.11"/>
<polygon fill="#3542b2" stroke="#3542b2" points="779.95,-190.1 776.45,-180.1 772.95,-190.1 779.95,-190.1"/>
</g>
<!-- cmpa -->
<g id="node34" class="node">
<title>cmpa</title>
<ellipse fill="#ff0000" stroke="#ff0000" cx="482.45" cy="-162" rx="32.49" ry="18"/>
<text text-anchor="middle" x="482.45" y="-158.3" font-family="Helvetica,Arial,sans-serif" font-size="14.00">cmpa</text>
</g>
<!-- qsort&#45;&gt;cmpa -->
<g id="edge45" class="edge">
<title>qsort&#45;&gt;cmpa</title>
<path fill="none" stroke="#3542b2" d="M290.1,-223.37C296.68,-220.89 303.81,-218.27 310.45,-216 356.18,-200.33 409.47,-184.24 444.46,-173.96"/>
<polygon fill="#3542b2" stroke="#3542b2" points="445.65,-177.26 454.27,-171.1 443.69,-170.54 445.65,-177.26"/>
</g>
<!-- insert&#45;&gt;cmpa -->
<g id="edge43" class="edge">
<title>insert&#45;&gt;cmpa</title>
<path fill="none" stroke="#3542b2" d="M521.1,-217.12C514.86,-208.38 506.98,-197.35 499.97,-187.54"/>
<polygon fill="#3542b2" stroke="#3542b2" points="502.76,-185.41 494.09,-179.31 497.06,-189.48 502.76,-185.41"/>
</g>
<!-- getfreehdr -->
<g id="node47" class="node">
<title>getfreehdr</title>
<ellipse fill="#ccd1ff" stroke="#ccd1ff" cx="971.45" cy="-162" rx="50.89" ry="18"/>
<text text-anchor="middle" x="971.45" y="-158.3" font-family="Helvetica,Arial,sans-serif" font-size="14.00">getfreehdr</text>
</g>
<!-- insert&#45;&gt;getfreehdr -->
<g id="edge76" class="edge">
<title>insert&#45;&gt;getfreehdr</title>
<path fill="none" stroke="#3542b2" d="M556.97,-221.87C562.62,-219.65 568.67,-217.53 574.45,-216 637.05,-199.44 818.73,-178.92 913.06,-168.97"/>
<polygon fill="#3542b2" stroke="#3542b2" points="913.71,-172.42 923.29,-167.89 912.98,-165.46 913.71,-172.42"/>
</g>
<!-- flsbuf -->
<g id="node35" class="node">
<title>flsbuf</title>
<ellipse fill="#ccd1ff" stroke="#ccd1ff" cx="206.45" cy="-162" rx="31.7" ry="18"/>
<text text-anchor="middle" x="206.45" y="-158.3" font-family="Helvetica,Arial,sans-serif" font-size="14.00">flsbuf</text>
</g>
<!-- wline&#45;&gt;flsbuf -->
<g id="edge44" class="edge">
<title>wline&#45;&gt;flsbuf</title>
<path fill="none" stroke="#3542b2" d="M191.29,-216.05C193.52,-208.26 196.21,-198.82 198.71,-190.08"/>
<polygon fill="#3542b2" stroke="#3542b2" points="202.13,-190.85 201.51,-180.28 195.4,-188.93 202.13,-190.85"/>
</g>
<!-- rline&#45;&gt;filbuf -->
<g id="edge46" class="edge">
<title>rline&#45;&gt;filbuf</title>
<path fill="none" stroke="#3542b2" d="M140.35,-289.46C134.03,-280.62 125.97,-269.34 118.83,-259.34"/>
<polygon fill="#3542b2" stroke="#3542b2" points="121.52,-257.08 112.86,-250.98 115.82,-261.15 121.52,-257.08"/>
</g>
<!-- endopen -->
<g id="node40" class="node">
<title>endopen</title>
<ellipse fill="#ccd1ff" stroke="#ccd1ff" cx="596.45" cy="-162" rx="44.69" ry="18"/>
<text text-anchor="middle" x="596.45" y="-158.3" font-family="Helvetica,Arial,sans-serif" font-size="14.00">endopen</text>
</g>
<!-- fopen&#45;&gt;endopen -->
<g id="edge55" class="edge">
<title>fopen&#45;&gt;endopen</title>
<path fill="none" stroke="#354ab3" d="M677.17,-219.5C662.67,-209.35 642.54,-195.27 626.01,-183.7"/>
<polygon fill="#354ab3" stroke="#354ab3" points="627.95,-180.78 617.75,-177.91 623.93,-186.51 627.95,-180.78"/>
</g>
<!-- findiop -->
<g id="node42" class="node">
<title>findiop</title>
<ellipse fill="#ccd1ff" stroke="#ccd1ff" cx="695.45" cy="-162" rx="36.29" ry="18"/>
<text text-anchor="middle" x="695.45" y="-158.3" font-family="Helvetica,Arial,sans-serif" font-size="14.00">findiop</text>
</g>
<!-- fopen&#45;&gt;findiop -->
<g id="edge56" class="edge">
<title>fopen&#45;&gt;findiop</title>
<path fill="none" stroke="#3542b2" d="M696.2,-215.7C696.09,-207.98 695.96,-198.71 695.83,-190.11"/>
<polygon fill="#3542b2" stroke="#3542b2" points="699.33,-190.05 695.69,-180.1 692.33,-190.15 699.33,-190.05"/>
</g>
<!-- xflsbuf -->
<g id="node36" class="node">
<title>xflsbuf</title>
<ellipse fill="#ccd1ff" stroke="#ccd1ff" cx="284.45" cy="-90" rx="36.29" ry="18"/>
<text text-anchor="middle" x="284.45" y="-86.3" font-family="Helvetica,Arial,sans-serif" font-size="14.00">xflsbuf</text>
</g>
<!-- flsbuf&#45;&gt;xflsbuf -->
<g id="edge48" class="edge">
<title>flsbuf&#45;&gt;xflsbuf</title>
<path fill="none" stroke="#3542b2" d="M222.99,-146.15C233.77,-136.48 248.03,-123.68 260.1,-112.85"/>
<polygon fill="#3542b2" stroke="#3542b2" points="262.56,-115.35 267.66,-106.07 257.88,-110.14 262.56,-115.35"/>
</g>
<!-- write -->
<g id="node37" class="node">
<title>write</title>
<ellipse fill="#9cfffe" stroke="#9cfffe" cx="284.45" cy="-18" rx="29.5" ry="18"/>
<text text-anchor="middle" x="284.45" y="-14.3" font-family="Helvetica,Arial,sans-serif" font-size="14.00">write</text>
</g>
<!-- xflsbuf&#45;&gt;write -->
<g id="edge47" class="edge">
<title>xflsbuf&#45;&gt;write</title>
<path fill="none" stroke="#3542b2" d="M284.45,-71.7C284.45,-63.98 284.45,-54.71 284.45,-46.11"/>
<polygon fill="#3542b2" stroke="#3542b2" points="287.95,-46.1 284.45,-36.1 280.95,-46.1 287.95,-46.1"/>
</g>
<!-- open -->
<g id="node41" class="node">
<title>open</title>
<ellipse fill="#c8d1ff" stroke="#c8d1ff" cx="596.45" cy="-90" rx="30.59" ry="18"/>
<text text-anchor="middle" x="596.45" y="-86.3" font-family="Helvetica,Arial,sans-serif" font-size="14.00">open</text>
</g>
<!-- endopen&#45;&gt;open -->
<g id="edge54" class="edge">
<title>endopen&#45;&gt;open</title>
<path fill="none" stroke="#3542b2" d="M596.45,-143.7C596.45,-135.98 596.45,-126.71 596.45,-118.11"/>
<polygon fill="#3542b2" stroke="#3542b2" points="599.95,-118.1 596.45,-108.1 592.95,-118.1 599.95,-118.1"/>
</g>
<!-- fflush&#45;&gt;xflsbuf -->
<g id="edge61" class="edge">
<title>fflush&#45;&gt;xflsbuf</title>
<path fill="none" stroke="#344db4" d="M345.91,-146.15C335.12,-136.48 320.86,-123.68 308.79,-112.85"/>
<polygon fill="#344db4" stroke="#344db4" points="311.01,-110.14 301.23,-106.07 306.34,-115.35 311.01,-110.14"/>
</g>
<!-- morecore -->
<g id="node45" class="node">
<title>morecore</title>
<ellipse fill="#ccd1ff" stroke="#ccd1ff" cx="1701.45" cy="-378" rx="48.19" ry="18"/>
<text text-anchor="middle" x="1701.45" y="-374.3" font-family="Helvetica,Arial,sans-serif" font-size="14.00">morecore</text>
</g>
<!-- malloc&#45;&gt;morecore -->
<g id="edge62" class="edge">
<title>malloc&#45;&gt;morecore</title>
<path fill="none" stroke="#29d820" d="M1701.45,-431.7C1701.45,-423.98 1701.45,-414.71 1701.45,-406.11"/>
<polygon fill="#29d820" stroke="#29d820" points="1704.95,-406.1 1701.45,-396.1 1697.95,-406.1 1704.95,-406.1"/>
</g>
<!-- demote -->
<g id="node46" class="node">
<title>demote</title>
<ellipse fill="#ccd1ff" stroke="#ccd1ff" cx="1807.45" cy="-378" rx="40.09" ry="18"/>
<text text-anchor="middle" x="1807.45" y="-374.3" font-family="Helvetica,Arial,sans-serif" font-size="14.00">demote</text>
</g>
<!-- malloc&#45;&gt;demote -->
<g id="edge63" class="edge">
<title>malloc&#45;&gt;demote</title>
<path fill="none" stroke="#3542b2" d="M1722.39,-435.17C1738.01,-424.86 1759.58,-410.61 1777.09,-399.05"/>
<polygon fill="#3542b2" stroke="#3542b2" points="1779.4,-401.71 1785.82,-393.28 1775.55,-395.87 1779.4,-401.71"/>
</g>
<!-- morecore&#45;&gt;sbrk -->
<g id="edge64" class="edge">
<title>morecore&#45;&gt;sbrk</title>
<path fill="none" stroke="#3542b2" d="M1700.6,-359.92C1698.48,-321.22 1692.04,-224.01 1677.45,-144 1675.89,-135.44 1673.65,-126.24 1671.43,-117.94"/>
<polygon fill="#3542b2" stroke="#3542b2" points="1674.73,-116.73 1668.67,-108.03 1667.98,-118.61 1674.73,-116.73"/>
</g>
<!-- morecore&#45;&gt;getfreehdr -->
<g id="edge65" class="edge">
<title>morecore&#45;&gt;getfreehdr</title>
<path fill="none" stroke="#3542b2" d="M1697.1,-359.83C1687.42,-325.57 1660.53,-249.17 1606.45,-216 1497.31,-149.07 1157.64,-201.57 1031.45,-180 1027,-179.24 1022.42,-178.28 1017.86,-177.2"/>
<polygon fill="#3542b2" stroke="#3542b2" points="1018.52,-173.76 1007.97,-174.69 1016.8,-180.54 1018.52,-173.76"/>
</g>
<!-- free -->
<g id="node48" class="node">
<title>free</title>
<ellipse fill="#ccd1ff" stroke="#ccd1ff" cx="1302.45" cy="-306" rx="27" ry="18"/>
<text text-anchor="middle" x="1302.45" y="-302.3" font-family="Helvetica,Arial,sans-serif" font-size="14.00">free</text>
</g>
<!-- morecore&#45;&gt;free -->
<g id="edge66" class="edge">
<title>morecore&#45;&gt;free</title>
<path fill="none" stroke="#3542b2" d="M1658.46,-369.74C1599.06,-359.68 1488.55,-340.82 1394.45,-324 1375.91,-320.69 1355.29,-316.89 1338.28,-313.72"/>
<polygon fill="#3542b2" stroke="#3542b2" points="1338.68,-310.24 1328.21,-311.84 1337.4,-317.12 1338.68,-310.24"/>
</g>
<!-- getpagesize -->
<g id="node49" class="node">
<title>getpagesize</title>
<ellipse fill="#ccd1ff" stroke="#ccd1ff" cx="1787.45" cy="-306" rx="57.69" ry="18"/>
<text text-anchor="middle" x="1787.45" y="-302.3" font-family="Helvetica,Arial,sans-serif" font-size="14.00">getpagesize</text>
</g>
<!-- morecore&#45;&gt;getpagesize -->
<g id="edge67" class="edge">
<title>morecore&#45;&gt;getpagesize</title>
<path fill="none" stroke="#3542b2" d="M1720.53,-361.46C1732.06,-352.08 1746.95,-339.96 1759.76,-329.54"/>
<polygon fill="#3542b2" stroke="#3542b2" points="1762.27,-332 1767.82,-322.98 1757.85,-326.58 1762.27,-332"/>
</g>
<!-- putfreehdr -->
<g id="node50" class="node">
<title>putfreehdr</title>
<ellipse fill="#ccd1ff" stroke="#ccd1ff" cx="1914.45" cy="-306" rx="50.89" ry="18"/>
<text text-anchor="middle" x="1914.45" y="-302.3" font-family="Helvetica,Arial,sans-serif" font-size="14.00">putfreehdr</text>
</g>
<!-- morecore&#45;&gt;putfreehdr -->
<g id="edge68" class="edge">
<title>morecore&#45;&gt;putfreehdr</title>
<path fill="none" stroke="#3542b2" d="M1736.62,-365.44C1772.78,-353.56 1829.26,-335 1868.83,-321.99"/>
<polygon fill="#3542b2" stroke="#3542b2" points="1870.1,-325.26 1878.51,-318.81 1867.92,-318.61 1870.1,-325.26"/>
</g>
<!-- udiv -->
<g id="node51" class="node">
<title>udiv</title>
<ellipse fill="#ccd1ff" stroke="#ccd1ff" cx="1570.45" cy="-234" rx="27" ry="18"/>
<text text-anchor="middle" x="1570.45" y="-230.3" font-family="Helvetica,Arial,sans-serif" font-size="14.00">udiv</text>
</g>
<!-- morecore&#45;&gt;udiv -->
<g id="edge69" class="edge">
<title>morecore&#45;&gt;udiv</title>
<path fill="none" stroke="#3542b2" d="M1685.3,-360.97C1674.93,-350.56 1661.23,-336.63 1649.45,-324 1628.79,-301.86 1605.89,-275.9 1590.09,-257.75"/>
<polygon fill="#3542b2" stroke="#3542b2" points="1592.56,-255.26 1583.36,-250.01 1587.28,-259.85 1592.56,-255.26"/>
</g>
<!-- umul -->
<g id="node52" class="node">
<title>umul</title>
<ellipse fill="#ccd1ff" stroke="#ccd1ff" cx="2013.45" cy="-306" rx="30.59" ry="18"/>
<text text-anchor="middle" x="2013.45" y="-302.3" font-family="Helvetica,Arial,sans-serif" font-size="14.00">umul</text>
</g>
<!-- morecore&#45;&gt;umul -->
<g id="edge70" class="edge">
<title>morecore&#45;&gt;umul</title>
<path fill="none" stroke="#3542b2" d="M1736.84,-365.7C1743.95,-363.64 1751.4,-361.63 1758.45,-360 1853.26,-338.05 1881.13,-351.65 1974.45,-324 1976.72,-323.33 1979.03,-322.56 1981.34,-321.72"/>
<polygon fill="#3542b2" stroke="#3542b2" points="1982.68,-324.96 1990.7,-318.03 1980.11,-318.44 1982.68,-324.96"/>
</g>
<!-- getfreehdr&#45;&gt;sbrk -->
<g id="edge74" class="edge">
<title>getfreehdr&#45;&gt;sbrk</title>
<path fill="none" stroke="#3542b2" d="M1007.99,-149.44C1015.68,-147.35 1023.78,-145.39 1031.45,-144 1254.6,-103.42 1527.84,-93.83 1626.07,-91.63"/>
<polygon fill="#3542b2" stroke="#3542b2" points="1626.17,-95.13 1636.1,-91.42 1626.03,-88.13 1626.17,-95.13"/>
</g>
<!-- free&#45;&gt;insert -->
<g id="edge75" class="edge">
<title>free&#45;&gt;insert</title>
<path fill="none" stroke="#3542b2" d="M1277.2,-299.45C1258.79,-295.61 1233.19,-290.73 1210.45,-288 929.35,-254.21 850.71,-313.94 574.45,-252 571.64,-251.37 568.78,-250.57 565.94,-249.67"/>
<polygon fill="#3542b2" stroke="#3542b2" points="567.04,-246.35 556.44,-246.28 564.68,-252.94 567.04,-246.35"/>
</g>
<!-- sigblock -->
<g id="node56" class="node">
<title>sigblock</title>
<ellipse fill="#ccd1ff" stroke="#ccd1ff" cx="1282.45" cy="-162" rx="42.49" ry="18"/>
<text text-anchor="middle" x="1282.45" y="-158.3" font-family="Helvetica,Arial,sans-serif" font-size="14.00">sigblock</text>
</g>
<!-- sigvec&#45;&gt;sigblock -->
<g id="edge79" class="edge">
<title>sigvec&#45;&gt;sigblock</title>
<path fill="none" stroke="#3542b2" d="M1189.35,-219.67C1206.64,-209.14 1231.02,-194.31 1250.49,-182.45"/>
<polygon fill="#3542b2" stroke="#3542b2" points="1252.32,-185.43 1259.05,-177.24 1248.68,-179.45 1252.32,-185.43"/>
</g>
<!-- sigsetmask -->
<g id="node57" class="node">
<title>sigsetmask</title>
<ellipse fill="#ccd1ff" stroke="#ccd1ff" cx="1167.45" cy="-162" rx="55.49" ry="18"/>
<text text-anchor="middle" x="1167.45" y="-158.3" font-family="Helvetica,Arial,sans-serif" font-size="14.00">sigsetmask</text>
</g>
<!-- sigvec&#45;&gt;sigsetmask -->
<g id="edge80" class="edge">
<title>sigvec&#45;&gt;sigsetmask</title>
<path fill="none" stroke="#3542b2" d="M1167.45,-215.7C1167.45,-207.98 1167.45,-198.71 1167.45,-190.11"/>
<polygon fill="#3542b2" stroke="#3542b2" points="1170.95,-190.1 1167.45,-180.1 1163.95,-190.1 1170.95,-190.1"/>
</g>
<!-- moncontrol -->
<g id="node54" class="node">
<title>moncontrol</title>
<ellipse fill="#cad1ff" stroke="#cad1ff" cx="1607.45" cy="-594" rx="54.69" ry="18"/>
<text text-anchor="middle" x="1607.45" y="-590.3" font-family="Helvetica,Arial,sans-serif" font-size="14.00">moncontrol</text>
</g>
<!-- profil -->
<g id="node55" class="node">
<title>profil</title>
<ellipse fill="#ccd1ff" stroke="#ccd1ff" cx="1607.45" cy="-522" rx="29.8" ry="18"/>
<text text-anchor="middle" x="1607.45" y="-518.3" font-family="Helvetica,Arial,sans-serif" font-size="14.00">profil</text>
</g>
<!-- moncontrol&#45;&gt;profil -->
<g id="edge73" class="edge">
<title>moncontrol&#45;&gt;profil</title>
<path fill="none" stroke="#3542b2" d="M1607.45,-575.7C1607.45,-567.98 1607.45,-558.71 1607.45,-550.11"/>
<polygon fill="#3542b2" stroke="#3542b2" points="1610.95,-550.1 1607.45,-540.1 1603.95,-550.1 1610.95,-550.1"/>
</g>
<!-- doprnt&#45;&gt;udiv -->
<g id="edge82" class="edge">
<title>doprnt&#45;&gt;udiv</title>
<path fill="none" stroke="#3542b2" d="M1463.17,-292.32C1485.04,-280.64 1517.58,-263.25 1541.08,-250.69"/>
<polygon fill="#3542b2" stroke="#3542b2" points="1542.74,-253.77 1549.92,-245.97 1539.45,-247.6 1542.74,-253.77"/>
</g>
<!-- urem -->
<g id="node59" class="node">
<title>urem</title>
<ellipse fill="#ccd1ff" stroke="#ccd1ff" cx="1456.45" cy="-234" rx="31.4" ry="18"/>
<text text-anchor="middle" x="1456.45" y="-230.3" font-family="Helvetica,Arial,sans-serif" font-size="14.00">urem</text>
</g>
<!-- doprnt&#45;&gt;urem -->
<g id="edge81" class="edge">
<title>doprnt&#45;&gt;urem</title>
<path fill="none" stroke="#3542b2" d="M1443.56,-288.05C1445.46,-280.26 1447.75,-270.82 1449.87,-262.08"/>
<polygon fill="#3542b2" stroke="#3542b2" points="1453.29,-262.82 1452.25,-252.28 1446.49,-261.17 1453.29,-262.82"/>
</g>
<!-- strlen -->
<g id="node60" class="node">
<title>strlen</title>
<ellipse fill="#ccd1ff" stroke="#ccd1ff" cx="1253.45" cy="-234" rx="32.49" ry="18"/>
<text text-anchor="middle" x="1253.45" y="-230.3" font-family="Helvetica,Arial,sans-serif" font-size="14.00">strlen</text>
</g>
<!-- doprnt&#45;&gt;strlen -->
<g id="edge83" class="edge">
<title>doprnt&#45;&gt;strlen</title>
<path fill="none" stroke="#3542b2" d="M1410.97,-295C1381.64,-284.6 1334.65,-267.67 1294.45,-252 1292.35,-251.18 1290.19,-250.33 1288.02,-249.46"/>
<polygon fill="#3542b2" stroke="#3542b2" points="1289.11,-246.12 1278.53,-245.6 1286.48,-252.61 1289.11,-246.12"/>
</g>
<!-- localeconv -->
<g id="node61" class="node">
<title>localeconv</title>
<ellipse fill="#ccd1ff" stroke="#ccd1ff" cx="1355.45" cy="-234" rx="51.99" ry="18"/>
<text text-anchor="middle" x="1355.45" y="-230.3" font-family="Helvetica,Arial,sans-serif" font-size="14.00">localeconv</text>
</g>
<!-- doprnt&#45;&gt;localeconv -->
<g id="edge84" class="edge">
<title>doprnt&#45;&gt;localeconv</title>
<path fill="none" stroke="#3542b2" d="M1421.63,-290.15C1410.15,-280.58 1395,-267.96 1382.1,-257.21"/>
<polygon fill="#3542b2" stroke="#3542b2" points="1384.33,-254.51 1374.4,-250.8 1379.84,-259.89 1384.33,-254.51"/>
</g>
</g>
</svg>
