<?xml version="1.0" encoding="UTF-8" standalone="no"?>
<!DOCTYPE svg PUBLIC "-//W3C//DTD SVG 1.1//EN"
 "http://www.w3.org/Graphics/SVG/1.1/DTD/svg11.dtd">
<!-- Generated by graphviz version 2.43.0 (0)
 -->
<!-- Title: G Pages: 1 -->
<svg width="436pt" height="310pt"
 viewBox="0.00 0.00 436.00 310.00" xmlns="http://www.w3.org/2000/svg" xmlns:xlink="http://www.w3.org/1999/xlink">
<g id="graph0" class="graph" transform="scale(1 1) rotate(0) translate(4 306)">
<title>G</title>
<polygon fill="white" stroke="transparent" points="-4,4 -4,-306 432,-306 432,4 -4,4"/>
<!-- 1 -->
<!-- a -->
<g id="node17" class="node">
<title>a</title>
<ellipse fill="none" stroke="black" cx="69" cy="-291" rx="11" ry="11"/>
</g>
<!-- 1&#45;&gt;a -->
<g id="edge1" class="edge">
<title>1&#45;&gt;a</title>
<path fill="none" stroke="#0000ff" d="M22.01,-291C32.08,-291 47.53,-291 57.7,-291"/>
</g>
<!-- 2 -->
<!-- b -->
<g id="node18" class="node">
<title>b</title>
<ellipse fill="none" stroke="black" cx="69" cy="-251" rx="11" ry="11"/>
</g>
<!-- 2&#45;&gt;b -->
<g id="edge4" class="edge">
<title>2&#45;&gt;b</title>
<path fill="none" stroke="#ff0000" d="M22.01,-251C32.08,-251 47.53,-251 57.7,-251"/>
</g>
<!-- 3 -->
<!-- c -->
<g id="node19" class="node">
<title>c</title>
<ellipse fill="none" stroke="black" cx="69" cy="-211" rx="11" ry="11"/>
</g>
<!-- 3&#45;&gt;c -->
<g id="edge7" class="edge">
<title>3&#45;&gt;c</title>
<path fill="none" stroke="#ffff00" d="M22.01,-211C32.08,-211 47.53,-211 57.7,-211"/>
</g>
<!-- 4 -->
<!-- d -->
<g id="node20" class="node">
<title>d</title>
<ellipse fill="none" stroke="black" cx="69" cy="-171" rx="11" ry="11"/>
</g>
<!-- 4&#45;&gt;d -->
<g id="edge10" class="edge">
<title>4&#45;&gt;d</title>
<path fill="none" stroke="#00ff00" d="M22.01,-171C32.08,-171 47.53,-171 57.7,-171"/>
</g>
<!-- 5 -->
<!-- e -->
<g id="node21" class="node">
<title>e</title>
<ellipse fill="none" stroke="black" cx="69" cy="-131" rx="11" ry="11"/>
</g>
<!-- 5&#45;&gt;e -->
<g id="edge13" class="edge">
<title>5&#45;&gt;e</title>
<path fill="none" stroke="#000000" d="M22.01,-131C32.08,-131 47.53,-131 57.7,-131"/>
</g>
<!-- 6 -->
<!-- f -->
<g id="node22" class="node">
<title>f</title>
<ellipse fill="none" stroke="black" cx="69" cy="-91" rx="11" ry="11"/>
</g>
<!-- 6&#45;&gt;f -->
<g id="edge16" class="edge">
<title>6&#45;&gt;f</title>
<path fill="none" stroke="#00ffff" d="M22.01,-91C32.08,-91 47.53,-91 57.7,-91"/>
</g>
<!-- 7 -->
<!-- g -->
<g id="node23" class="node">
<title>g</title>
<ellipse fill="none" stroke="black" cx="69" cy="-51" rx="11" ry="11"/>
</g>
<!-- 7&#45;&gt;g -->
<g id="edge19" class="edge">
<title>7&#45;&gt;g</title>
<path fill="none" stroke="#ffffff" d="M22.01,-51C32.08,-51 47.53,-51 57.7,-51"/>
</g>
<!-- 8 -->
<!-- h -->
<g id="node24" class="node">
<title>h</title>
<ellipse fill="none" stroke="black" cx="69" cy="-11" rx="11" ry="11"/>
</g>
<!-- 8&#45;&gt;h -->
<g id="edge22" class="edge">
<title>8&#45;&gt;h</title>
<path fill="none" stroke="#ff00ff" d="M22.01,-11C32.08,-11 47.53,-11 57.7,-11"/>
</g>
<!-- 10 -->
<!-- 20 -->
<!-- 30 -->
<!-- 40 -->
<!-- 50 -->
<!-- 60 -->
<!-- 70 -->
<!-- 80 -->
<!-- A -->
<g id="node41" class="node">
<title>A</title>
<polygon fill="none" stroke="black" points="127,-302 116,-291 127,-280 138,-291 127,-302"/>
</g>
<!-- a&#45;&gt;A -->
<g id="edge2" class="edge">
<title>a&#45;&gt;A</title>
<path fill="none" stroke="#0000ff" d="M80.01,-291C90.08,-291 105.53,-291 115.7,-291"/>
</g>
<!-- B -->
<g id="node42" class="node">
<title>B</title>
<polygon fill="none" stroke="black" points="127,-262 116,-251 127,-240 138,-251 127,-262"/>
</g>
<!-- a&#45;&gt;B -->
<g id="edge3" class="edge">
<title>a&#45;&gt;B</title>
<path fill="none" stroke="#0000ff" d="M78.75,-284.75C90.19,-276.58 109.95,-262.46 119.9,-255.36"/>
</g>
<!-- b&#45;&gt;A -->
<g id="edge5" class="edge">
<title>b&#45;&gt;A</title>
<path fill="none" stroke="#ff0000" d="M78.75,-257.25C90.19,-265.42 109.95,-279.54 119.9,-286.64"/>
</g>
<!-- b&#45;&gt;B -->
<g id="edge6" class="edge">
<title>b&#45;&gt;B</title>
<path fill="none" stroke="#ff0000" d="M80.01,-251C90.08,-251 105.53,-251 115.7,-251"/>
</g>
<!-- C -->
<g id="node43" class="node">
<title>C</title>
<polygon fill="none" stroke="black" points="127,-222 116,-211 127,-200 138,-211 127,-222"/>
</g>
<!-- c&#45;&gt;C -->
<g id="edge8" class="edge">
<title>c&#45;&gt;C</title>
<path fill="none" stroke="#ffff00" d="M80.01,-211C90.08,-211 105.53,-211 115.7,-211"/>
</g>
<!-- D -->
<g id="node44" class="node">
<title>D</title>
<polygon fill="none" stroke="black" points="127,-182 116,-171 127,-160 138,-171 127,-182"/>
</g>
<!-- c&#45;&gt;D -->
<g id="edge9" class="edge">
<title>c&#45;&gt;D</title>
<path fill="none" stroke="#ffff00" d="M78.75,-204.75C90.19,-196.58 109.95,-182.46 119.9,-175.36"/>
</g>
<!-- d&#45;&gt;C -->
<g id="edge11" class="edge">
<title>d&#45;&gt;C</title>
<path fill="none" stroke="#00ff00" d="M78.75,-177.25C90.19,-185.42 109.95,-199.54 119.9,-206.64"/>
</g>
<!-- d&#45;&gt;D -->
<g id="edge12" class="edge">
<title>d&#45;&gt;D</title>
<path fill="none" stroke="#00ff00" d="M80.01,-171C90.08,-171 105.53,-171 115.7,-171"/>
</g>
<!-- E -->
<g id="node45" class="node">
<title>E</title>
<polygon fill="none" stroke="black" points="127,-142 116,-131 127,-120 138,-131 127,-142"/>
</g>
<!-- e&#45;&gt;E -->
<g id="edge14" class="edge">
<title>e&#45;&gt;E</title>
<path fill="none" stroke="#000000" d="M80.01,-131C90.08,-131 105.53,-131 115.7,-131"/>
</g>
<!-- F -->
<g id="node46" class="node">
<title>F</title>
<polygon fill="none" stroke="black" points="127,-102 116,-91 127,-80 138,-91 127,-102"/>
</g>
<!-- e&#45;&gt;F -->
<g id="edge15" class="edge">
<title>e&#45;&gt;F</title>
<path fill="none" stroke="#000000" d="M78.75,-124.75C90.19,-116.58 109.95,-102.46 119.9,-95.36"/>
</g>
<!-- f&#45;&gt;E -->
<g id="edge17" class="edge">
<title>f&#45;&gt;E</title>
<path fill="none" stroke="#00ffff" d="M78.75,-97.25C90.19,-105.42 109.95,-119.54 119.9,-126.64"/>
</g>
<!-- f&#45;&gt;F -->
<g id="edge18" class="edge">
<title>f&#45;&gt;F</title>
<path fill="none" stroke="#00ffff" d="M80.01,-91C90.08,-91 105.53,-91 115.7,-91"/>
</g>
<!-- G -->
<g id="node47" class="node">
<title>G</title>
<polygon fill="none" stroke="black" points="127,-62 116,-51 127,-40 138,-51 127,-62"/>
</g>
<!-- g&#45;&gt;G -->
<g id="edge20" class="edge">
<title>g&#45;&gt;G</title>
<path fill="none" stroke="#ffffff" d="M80.01,-51C90.08,-51 105.53,-51 115.7,-51"/>
</g>
<!-- H -->
<g id="node48" class="node">
<title>H</title>
<polygon fill="none" stroke="black" points="127,-22 116,-11 127,0 138,-11 127,-22"/>
</g>
<!-- g&#45;&gt;H -->
<g id="edge21" class="edge">
<title>g&#45;&gt;H</title>
<path fill="none" stroke="#ffffff" d="M78.75,-44.75C90.19,-36.58 109.95,-22.46 119.9,-15.36"/>
</g>
<!-- h&#45;&gt;G -->
<g id="edge23" class="edge">
<title>h&#45;&gt;G</title>
<path fill="none" stroke="#ff00ff" d="M78.75,-17.25C90.19,-25.42 109.95,-39.54 119.9,-46.64"/>
</g>
<!-- h&#45;&gt;H -->
<g id="edge24" class="edge">
<title>h&#45;&gt;H</title>
<path fill="none" stroke="#ff00ff" d="M80.01,-11C90.08,-11 105.53,-11 115.7,-11"/>
</g>
<!-- i -->
<g id="node25" class="node">
<title>i</title>
<ellipse fill="none" stroke="black" cx="185" cy="-291" rx="11" ry="11"/>
</g>
<!-- I -->
<g id="node49" class="node">
<title>I</title>
<polygon fill="none" stroke="black" points="243,-302 232,-291 243,-280 254,-291 243,-302"/>
</g>
<!-- i&#45;&gt;I -->
<g id="edge26" class="edge">
<title>i&#45;&gt;I</title>
<path fill="none" stroke="#ff0000" d="M196.01,-290C206.08,-290 221.53,-290 231.7,-290"/>
<path fill="none" stroke="#0000ff" d="M196.01,-292C206.08,-292 221.53,-292 231.7,-292"/>
</g>
<!-- K -->
<g id="node51" class="node">
<title>K</title>
<polygon fill="none" stroke="black" points="243,-262 232,-251 243,-240 254,-251 243,-262"/>
</g>
<!-- i&#45;&gt;K -->
<g id="edge27" class="edge">
<title>i&#45;&gt;K</title>
<path fill="none" stroke="#ff0000" d="M194.17,-283.94C205.61,-275.76 225.37,-261.65 235.32,-254.54"/>
<path fill="none" stroke="#0000ff" d="M195.33,-285.56C206.77,-277.39 226.53,-263.28 236.48,-256.17"/>
</g>
<!-- j -->
<g id="node26" class="node">
<title>j</title>
<ellipse fill="none" stroke="black" cx="185" cy="-131" rx="11" ry="11"/>
</g>
<!-- J -->
<g id="node50" class="node">
<title>J</title>
<polygon fill="none" stroke="black" points="243,-142 232,-131 243,-120 254,-131 243,-142"/>
</g>
<!-- j&#45;&gt;J -->
<g id="edge29" class="edge">
<title>j&#45;&gt;J</title>
<path fill="none" stroke="#ff0000" d="M196.01,-130C206.08,-130 221.53,-130 231.7,-130"/>
<path fill="none" stroke="#0000ff" d="M196.01,-132C206.08,-132 221.53,-132 231.7,-132"/>
</g>
<!-- L -->
<g id="node52" class="node">
<title>L</title>
<polygon fill="none" stroke="black" points="243,-102 232,-91 243,-80 254,-91 243,-102"/>
</g>
<!-- j&#45;&gt;L -->
<g id="edge30" class="edge">
<title>j&#45;&gt;L</title>
<path fill="none" stroke="#ff0000" d="M194.17,-123.94C205.61,-115.76 225.37,-101.65 235.32,-94.54"/>
<path fill="none" stroke="#0000ff" d="M195.33,-125.56C206.77,-117.39 226.53,-103.28 236.48,-96.17"/>
</g>
<!-- k -->
<g id="node27" class="node">
<title>k</title>
<ellipse fill="none" stroke="black" cx="185" cy="-251" rx="11" ry="11"/>
</g>
<!-- k&#45;&gt;I -->
<g id="edge32" class="edge">
<title>k&#45;&gt;I</title>
<path fill="none" stroke="#00ff00" d="M195.33,-256.44C206.77,-264.61 226.53,-278.72 236.48,-285.83"/>
<path fill="none" stroke="#ffff00" d="M194.17,-258.06C205.61,-266.24 225.37,-280.35 235.32,-287.46"/>
</g>
<!-- k&#45;&gt;K -->
<g id="edge33" class="edge">
<title>k&#45;&gt;K</title>
<path fill="none" stroke="#00ff00" d="M196.01,-250C206.08,-250 221.53,-250 231.7,-250"/>
<path fill="none" stroke="#ffff00" d="M196.01,-252C206.08,-252 221.53,-252 231.7,-252"/>
</g>
<!-- l -->
<g id="node28" class="node">
<title>l</title>
<ellipse fill="none" stroke="black" cx="185" cy="-91" rx="11" ry="11"/>
</g>
<!-- l&#45;&gt;J -->
<g id="edge35" class="edge">
<title>l&#45;&gt;J</title>
<path fill="none" stroke="#00ff00" d="M195.33,-96.44C206.77,-104.61 226.53,-118.72 236.48,-125.83"/>
<path fill="none" stroke="#ffff00" d="M194.17,-98.06C205.61,-106.24 225.37,-120.35 235.32,-127.46"/>
</g>
<!-- l&#45;&gt;L -->
<g id="edge36" class="edge">
<title>l&#45;&gt;L</title>
<path fill="none" stroke="#00ff00" d="M196.01,-90C206.08,-90 221.53,-90 231.7,-90"/>
<path fill="none" stroke="#ffff00" d="M196.01,-92C206.08,-92 221.53,-92 231.7,-92"/>
</g>
<!-- m -->
<g id="node29" class="node">
<title>m</title>
<ellipse fill="none" stroke="black" cx="185" cy="-211" rx="11" ry="11"/>
</g>
<!-- M -->
<g id="node53" class="node">
<title>M</title>
<polygon fill="none" stroke="black" points="243,-222 232,-211 243,-200 254,-211 243,-222"/>
</g>
<!-- m&#45;&gt;M -->
<g id="edge38" class="edge">
<title>m&#45;&gt;M</title>
<path fill="none" stroke="#00ffff" d="M196.01,-210C206.08,-210 221.53,-210 231.7,-210"/>
<path fill="none" stroke="#000000" d="M196.01,-212C206.08,-212 221.53,-212 231.7,-212"/>
</g>
<!-- O -->
<g id="node55" class="node">
<title>O</title>
<polygon fill="none" stroke="black" points="243,-182 232,-171 243,-160 254,-171 243,-182"/>
</g>
<!-- m&#45;&gt;O -->
<g id="edge39" class="edge">
<title>m&#45;&gt;O</title>
<path fill="none" stroke="#00ffff" d="M194.17,-203.94C205.61,-195.76 225.37,-181.65 235.32,-174.54"/>
<path fill="none" stroke="#000000" d="M195.33,-205.56C206.77,-197.39 226.53,-183.28 236.48,-176.17"/>
</g>
<!-- n -->
<g id="node30" class="node">
<title>n</title>
<ellipse fill="none" stroke="black" cx="185" cy="-51" rx="11" ry="11"/>
</g>
<!-- N -->
<g id="node54" class="node">
<title>N</title>
<polygon fill="none" stroke="black" points="243,-62 232,-51 243,-40 254,-51 243,-62"/>
</g>
<!-- n&#45;&gt;N -->
<g id="edge41" class="edge">
<title>n&#45;&gt;N</title>
<path fill="none" stroke="#00ffff" d="M196.01,-50C206.08,-50 221.53,-50 231.7,-50"/>
<path fill="none" stroke="#000000" d="M196.01,-52C206.08,-52 221.53,-52 231.7,-52"/>
</g>
<!-- P -->
<g id="node56" class="node">
<title>P</title>
<polygon fill="none" stroke="black" points="243,-22 232,-11 243,0 254,-11 243,-22"/>
</g>
<!-- n&#45;&gt;P -->
<g id="edge42" class="edge">
<title>n&#45;&gt;P</title>
<path fill="none" stroke="#00ffff" d="M194.17,-43.94C205.61,-35.76 225.37,-21.65 235.32,-14.54"/>
<path fill="none" stroke="#000000" d="M195.33,-45.56C206.77,-37.39 226.53,-23.28 236.48,-16.17"/>
</g>
<!-- o -->
<g id="node31" class="node">
<title>o</title>
<ellipse fill="none" stroke="black" cx="185" cy="-171" rx="11" ry="11"/>
</g>
<!-- o&#45;&gt;M -->
<g id="edge44" class="edge">
<title>o&#45;&gt;M</title>
<path fill="none" stroke="#ff00ff" d="M195.33,-176.44C206.77,-184.61 226.53,-198.72 236.48,-205.83"/>
<path fill="none" stroke="#ffffff" d="M194.17,-178.06C205.61,-186.24 225.37,-200.35 235.32,-207.46"/>
</g>
<!-- o&#45;&gt;O -->
<g id="edge45" class="edge">
<title>o&#45;&gt;O</title>
<path fill="none" stroke="#ff00ff" d="M196.01,-170C206.08,-170 221.53,-170 231.7,-170"/>
<path fill="none" stroke="#ffffff" d="M196.01,-172C206.08,-172 221.53,-172 231.7,-172"/>
</g>
<!-- p -->
<g id="node32" class="node">
<title>p</title>
<ellipse fill="none" stroke="black" cx="185" cy="-11" rx="11" ry="11"/>
</g>
<!-- p&#45;&gt;N -->
<g id="edge47" class="edge">
<title>p&#45;&gt;N</title>
<path fill="none" stroke="#ff00ff" d="M195.33,-16.44C206.77,-24.61 226.53,-38.72 236.48,-45.83"/>
<path fill="none" stroke="#ffffff" d="M194.17,-18.06C205.61,-26.24 225.37,-40.35 235.32,-47.46"/>
</g>
<!-- p&#45;&gt;P -->
<g id="edge48" class="edge">
<title>p&#45;&gt;P</title>
<path fill="none" stroke="#ff00ff" d="M196.01,-10C206.08,-10 221.53,-10 231.7,-10"/>
<path fill="none" stroke="#ffffff" d="M196.01,-12C206.08,-12 221.53,-12 231.7,-12"/>
</g>
<!-- q -->
<g id="node33" class="node">
<title>q</title>
<ellipse fill="none" stroke="black" cx="301" cy="-291" rx="11" ry="11"/>
</g>
<!-- Q -->
<g id="node57" class="node">
<title>Q</title>
<polygon fill="none" stroke="black" points="359,-302 348,-291 359,-280 370,-291 359,-302"/>
</g>
<!-- q&#45;&gt;Q -->
<g id="edge50" class="edge">
<title>q&#45;&gt;Q</title>
<path fill="none" stroke="#00ff00" d="M312.01,-288C322.08,-288 337.53,-288 347.7,-288"/>
<path fill="none" stroke="#ffff00" d="M312.01,-290C322.08,-290 337.53,-290 347.7,-290"/>
<path fill="none" stroke="#ff0000" d="M312.01,-292C322.08,-292 337.53,-292 347.7,-292"/>
<path fill="none" stroke="#0000ff" d="M312.01,-294C322.08,-294 337.53,-294 347.7,-294"/>
</g>
<!-- U -->
<g id="node61" class="node">
<title>U</title>
<polygon fill="none" stroke="black" points="359,-262 348,-251 359,-240 370,-251 359,-262"/>
</g>
<!-- q&#45;&gt;U -->
<g id="edge51" class="edge">
<title>q&#45;&gt;U</title>
<path fill="none" stroke="#00ff00" d="M309.01,-282.31C320.45,-274.13 340.21,-260.02 350.16,-252.92"/>
<path fill="none" stroke="#ffff00" d="M310.17,-283.94C321.61,-275.76 341.37,-261.65 351.32,-254.54"/>
<path fill="none" stroke="#ff0000" d="M311.33,-285.56C322.77,-277.39 342.53,-263.28 352.48,-256.17"/>
<path fill="none" stroke="#0000ff" d="M312.49,-287.19C323.94,-279.02 343.69,-264.9 353.64,-257.8"/>
</g>
<!-- r -->
<g id="node34" class="node">
<title>r</title>
<ellipse fill="none" stroke="black" cx="301" cy="-131" rx="11" ry="11"/>
</g>
<!-- R -->
<g id="node58" class="node">
<title>R</title>
<polygon fill="none" stroke="black" points="359,-142 348,-131 359,-120 370,-131 359,-142"/>
</g>
<!-- r&#45;&gt;R -->
<g id="edge53" class="edge">
<title>r&#45;&gt;R</title>
<path fill="none" stroke="#00ff00" d="M312.01,-128C322.08,-128 337.53,-128 347.7,-128"/>
<path fill="none" stroke="#ffff00" d="M312.01,-130C322.08,-130 337.53,-130 347.7,-130"/>
<path fill="none" stroke="#ff0000" d="M312.01,-132C322.08,-132 337.53,-132 347.7,-132"/>
<path fill="none" stroke="#0000ff" d="M312.01,-134C322.08,-134 337.53,-134 347.7,-134"/>
</g>
<!-- V -->
<g id="node62" class="node">
<title>V</title>
<polygon fill="none" stroke="black" points="359,-102 348,-91 359,-80 370,-91 359,-102"/>
</g>
<!-- r&#45;&gt;V -->
<g id="edge54" class="edge">
<title>r&#45;&gt;V</title>
<path fill="none" stroke="#00ff00" d="M309.01,-122.31C320.45,-114.13 340.21,-100.02 350.16,-92.92"/>
<path fill="none" stroke="#ffff00" d="M310.17,-123.94C321.61,-115.76 341.37,-101.65 351.32,-94.54"/>
<path fill="none" stroke="#ff0000" d="M311.33,-125.56C322.77,-117.39 342.53,-103.28 352.48,-96.17"/>
<path fill="none" stroke="#0000ff" d="M312.49,-127.19C323.94,-119.02 343.69,-104.9 353.64,-97.8"/>
</g>
<!-- s -->
<g id="node35" class="node">
<title>s</title>
<ellipse fill="none" stroke="black" cx="301" cy="-211" rx="11" ry="11"/>
</g>
<!-- S -->
<g id="node59" class="node">
<title>S</title>
<polygon fill="none" stroke="black" points="359,-222 348,-211 359,-200 370,-211 359,-222"/>
</g>
<!-- s&#45;&gt;S -->
<g id="edge56" class="edge">
<title>s&#45;&gt;S</title>
<path fill="none" stroke="#00ff00" d="M312.01,-208C322.08,-208 337.53,-208 347.7,-208"/>
<path fill="none" stroke="#ffff00" d="M312.01,-210C322.08,-210 337.53,-210 347.7,-210"/>
<path fill="none" stroke="#ff0000" d="M312.01,-212C322.08,-212 337.53,-212 347.7,-212"/>
<path fill="none" stroke="#0000ff" d="M312.01,-214C322.08,-214 337.53,-214 347.7,-214"/>
</g>
<!-- W -->
<g id="node63" class="node">
<title>W</title>
<polygon fill="none" stroke="black" points="359,-182 348,-171 359,-160 370,-171 359,-182"/>
</g>
<!-- s&#45;&gt;W -->
<g id="edge57" class="edge">
<title>s&#45;&gt;W</title>
<path fill="none" stroke="#00ff00" d="M309.01,-202.31C320.45,-194.13 340.21,-180.02 350.16,-172.92"/>
<path fill="none" stroke="#ffff00" d="M310.17,-203.94C321.61,-195.76 341.37,-181.65 351.32,-174.54"/>
<path fill="none" stroke="#ff0000" d="M311.33,-205.56C322.77,-197.39 342.53,-183.28 352.48,-176.17"/>
<path fill="none" stroke="#0000ff" d="M312.49,-207.19C323.94,-199.02 343.69,-184.9 353.64,-177.8"/>
</g>
<!-- t -->
<g id="node36" class="node">
<title>t</title>
<ellipse fill="none" stroke="black" cx="301" cy="-51" rx="11" ry="11"/>
</g>
<!-- T -->
<g id="node60" class="node">
<title>T</title>
<polygon fill="none" stroke="black" points="359,-62 348,-51 359,-40 370,-51 359,-62"/>
</g>
<!-- t&#45;&gt;T -->
<g id="edge59" class="edge">
<title>t&#45;&gt;T</title>
<path fill="none" stroke="#00ff00" d="M312.01,-48C322.08,-48 337.53,-48 347.7,-48"/>
<path fill="none" stroke="#ffff00" d="M312.01,-50C322.08,-50 337.53,-50 347.7,-50"/>
<path fill="none" stroke="#ff0000" d="M312.01,-52C322.08,-52 337.53,-52 347.7,-52"/>
<path fill="none" stroke="#0000ff" d="M312.01,-54C322.08,-54 337.53,-54 347.7,-54"/>
</g>
<!-- X -->
<g id="node64" class="node">
<title>X</title>
<polygon fill="none" stroke="black" points="359,-22 348,-11 359,0 370,-11 359,-22"/>
</g>
<!-- t&#45;&gt;X -->
<g id="edge60" class="edge">
<title>t&#45;&gt;X</title>
<path fill="none" stroke="#00ff00" d="M309.01,-42.31C320.45,-34.13 340.21,-20.02 350.16,-12.92"/>
<path fill="none" stroke="#ffff00" d="M310.17,-43.94C321.61,-35.76 341.37,-21.65 351.32,-14.54"/>
<path fill="none" stroke="#ff0000" d="M311.33,-45.56C322.77,-37.39 342.53,-23.28 352.48,-16.17"/>
<path fill="none" stroke="#0000ff" d="M312.49,-47.19C323.94,-39.02 343.69,-24.9 353.64,-17.8"/>
</g>
<!-- u -->
<g id="node37" class="node">
<title>u</title>
<ellipse fill="none" stroke="black" cx="301" cy="-251" rx="11" ry="11"/>
</g>
<!-- u&#45;&gt;Q -->
<g id="edge62" class="edge">
<title>u&#45;&gt;Q</title>
<path fill="none" stroke="#ff00ff" d="M312.49,-254.81C323.94,-262.98 343.69,-277.1 353.64,-284.2"/>
<path fill="none" stroke="#ffffff" d="M311.33,-256.44C322.77,-264.61 342.53,-278.72 352.48,-285.83"/>
<path fill="none" stroke="#00ffff" d="M310.17,-258.06C321.61,-266.24 341.37,-280.35 351.32,-287.46"/>
<path fill="none" stroke="#000000" d="M309.01,-259.69C320.45,-267.87 340.21,-281.98 350.16,-289.08"/>
</g>
<!-- u&#45;&gt;U -->
<g id="edge63" class="edge">
<title>u&#45;&gt;U</title>
<path fill="none" stroke="#ff00ff" d="M312.01,-248C322.08,-248 337.53,-248 347.7,-248"/>
<path fill="none" stroke="#ffffff" d="M312.01,-250C322.08,-250 337.53,-250 347.7,-250"/>
<path fill="none" stroke="#00ffff" d="M312.01,-252C322.08,-252 337.53,-252 347.7,-252"/>
<path fill="none" stroke="#000000" d="M312.01,-254C322.08,-254 337.53,-254 347.7,-254"/>
</g>
<!-- v -->
<g id="node38" class="node">
<title>v</title>
<ellipse fill="none" stroke="black" cx="301" cy="-91" rx="11" ry="11"/>
</g>
<!-- v&#45;&gt;R -->
<g id="edge65" class="edge">
<title>v&#45;&gt;R</title>
<path fill="none" stroke="#ff00ff" d="M312.49,-94.81C323.94,-102.98 343.69,-117.1 353.64,-124.2"/>
<path fill="none" stroke="#ffffff" d="M311.33,-96.44C322.77,-104.61 342.53,-118.72 352.48,-125.83"/>
<path fill="none" stroke="#00ffff" d="M310.17,-98.06C321.61,-106.24 341.37,-120.35 351.32,-127.46"/>
<path fill="none" stroke="#000000" d="M309.01,-99.69C320.45,-107.87 340.21,-121.98 350.16,-129.08"/>
</g>
<!-- v&#45;&gt;V -->
<g id="edge66" class="edge">
<title>v&#45;&gt;V</title>
<path fill="none" stroke="#ff00ff" d="M312.01,-88C322.08,-88 337.53,-88 347.7,-88"/>
<path fill="none" stroke="#ffffff" d="M312.01,-90C322.08,-90 337.53,-90 347.7,-90"/>
<path fill="none" stroke="#00ffff" d="M312.01,-92C322.08,-92 337.53,-92 347.7,-92"/>
<path fill="none" stroke="#000000" d="M312.01,-94C322.08,-94 337.53,-94 347.7,-94"/>
</g>
<!-- w -->
<g id="node39" class="node">
<title>w</title>
<ellipse fill="none" stroke="black" cx="301" cy="-171" rx="11" ry="11"/>
</g>
<!-- w&#45;&gt;S -->
<g id="edge68" class="edge">
<title>w&#45;&gt;S</title>
<path fill="none" stroke="#ff00ff" d="M312.49,-174.81C323.94,-182.98 343.69,-197.1 353.64,-204.2"/>
<path fill="none" stroke="#ffffff" d="M311.33,-176.44C322.77,-184.61 342.53,-198.72 352.48,-205.83"/>
<path fill="none" stroke="#00ffff" d="M310.17,-178.06C321.61,-186.24 341.37,-200.35 351.32,-207.46"/>
<path fill="none" stroke="#000000" d="M309.01,-179.69C320.45,-187.87 340.21,-201.98 350.16,-209.08"/>
</g>
<!-- w&#45;&gt;W -->
<g id="edge69" class="edge">
<title>w&#45;&gt;W</title>
<path fill="none" stroke="#ff00ff" d="M312.01,-168C322.08,-168 337.53,-168 347.7,-168"/>
<path fill="none" stroke="#ffffff" d="M312.01,-170C322.08,-170 337.53,-170 347.7,-170"/>
<path fill="none" stroke="#00ffff" d="M312.01,-172C322.08,-172 337.53,-172 347.7,-172"/>
<path fill="none" stroke="#000000" d="M312.01,-174C322.08,-174 337.53,-174 347.7,-174"/>
</g>
<!-- x -->
<g id="node40" class="node">
<title>x</title>
<ellipse fill="none" stroke="black" cx="301" cy="-11" rx="11" ry="11"/>
</g>
<!-- x&#45;&gt;T -->
<g id="edge71" class="edge">
<title>x&#45;&gt;T</title>
<path fill="none" stroke="#ff00ff" d="M312.49,-14.81C323.94,-22.98 343.69,-37.1 353.64,-44.2"/>
<path fill="none" stroke="#ffffff" d="M311.33,-16.44C322.77,-24.61 342.53,-38.72 352.48,-45.83"/>
<path fill="none" stroke="#00ffff" d="M310.17,-18.06C321.61,-26.24 341.37,-40.35 351.32,-47.46"/>
<path fill="none" stroke="#000000" d="M309.01,-19.69C320.45,-27.87 340.21,-41.98 350.16,-49.08"/>
</g>
<!-- x&#45;&gt;X -->
<g id="edge72" class="edge">
<title>x&#45;&gt;X</title>
<path fill="none" stroke="#ff00ff" d="M312.01,-8C322.08,-8 337.53,-8 347.7,-8"/>
<path fill="none" stroke="#ffffff" d="M312.01,-10C322.08,-10 337.53,-10 347.7,-10"/>
<path fill="none" stroke="#00ffff" d="M312.01,-12C322.08,-12 337.53,-12 347.7,-12"/>
<path fill="none" stroke="#000000" d="M312.01,-14C322.08,-14 337.53,-14 347.7,-14"/>
</g>
<!-- A&#45;&gt;i -->
<g id="edge25" class="edge">
<title>A&#45;&gt;i</title>
<path fill="none" stroke="#ff0000" d="M138.01,-290C148.08,-290 163.53,-290 173.7,-290"/>
<path fill="none" stroke="#0000ff" d="M138.01,-292C148.08,-292 163.53,-292 173.7,-292"/>
</g>
<!-- B&#45;&gt;j -->
<g id="edge28" class="edge">
<title>B&#45;&gt;j</title>
<path fill="none" stroke="#ff0000" d="M130.51,-243.91C132.47,-240.04 134.97,-235.04 137.1,-230.57 153.76,-195.52 156.31,-185.96 173.1,-150.57 174.7,-147.19 176.51,-143.54 178.14,-140.28"/>
<path fill="none" stroke="#0000ff" d="M132.29,-244.82C134.26,-240.94 136.76,-235.94 138.9,-231.43 155.69,-196.04 158.24,-186.48 174.9,-151.43 176.49,-148.08 178.3,-144.42 179.93,-141.18"/>
</g>
<!-- C&#45;&gt;k -->
<g id="edge31" class="edge">
<title>C&#45;&gt;k</title>
<path fill="none" stroke="#00ff00" d="M134.57,-214.47C144.62,-221.64 164.87,-236.11 176.28,-244.26"/>
<path fill="none" stroke="#ffff00" d="M133.41,-216.09C143.46,-223.27 163.71,-237.74 175.12,-245.88"/>
</g>
<!-- D&#45;&gt;l -->
<g id="edge34" class="edge">
<title>D&#45;&gt;l</title>
<path fill="none" stroke="#00ff00" d="M131.39,-164.41C141.16,-150.46 165.41,-115.82 176.92,-99.37"/>
<path fill="none" stroke="#ffff00" d="M133.03,-165.56C142.8,-151.61 167.04,-116.97 178.56,-100.52"/>
</g>
<!-- E&#45;&gt;m -->
<g id="edge37" class="edge">
<title>E&#45;&gt;m</title>
<path fill="none" stroke="#00ffff" d="M133.03,-136.44C142.8,-150.39 167.04,-185.03 178.56,-201.48"/>
<path fill="none" stroke="#000000" d="M131.39,-137.59C141.16,-151.54 165.41,-186.18 176.92,-202.63"/>
</g>
<!-- F&#45;&gt;n -->
<g id="edge40" class="edge">
<title>F&#45;&gt;n</title>
<path fill="none" stroke="#00ffff" d="M133.41,-85.91C143.46,-78.73 163.71,-64.26 175.12,-56.12"/>
<path fill="none" stroke="#000000" d="M134.57,-87.53C144.62,-80.36 164.87,-65.89 176.28,-57.74"/>
</g>
<!-- G&#45;&gt;o -->
<g id="edge43" class="edge">
<title>G&#45;&gt;o</title>
<path fill="none" stroke="#ff00ff" d="M132.29,-57.18C134.26,-61.06 136.76,-66.06 138.9,-70.57 155.69,-105.96 158.24,-115.52 174.9,-150.57 176.49,-153.92 178.3,-157.58 179.93,-160.82"/>
<path fill="none" stroke="#ffffff" d="M130.51,-58.09C132.47,-61.96 134.97,-66.96 137.1,-71.43 153.76,-106.48 156.31,-116.04 173.1,-151.43 174.7,-154.81 176.51,-158.46 178.14,-161.72"/>
</g>
<!-- H&#45;&gt;p -->
<g id="edge46" class="edge">
<title>H&#45;&gt;p</title>
<path fill="none" stroke="#ff00ff" d="M138.01,-10C148.08,-10 163.53,-10 173.7,-10"/>
<path fill="none" stroke="#ffffff" d="M138.01,-12C148.08,-12 163.53,-12 173.7,-12"/>
</g>
<!-- I&#45;&gt;q -->
<g id="edge49" class="edge">
<title>I&#45;&gt;q</title>
<path fill="none" stroke="#00ff00" d="M254.01,-288C264.08,-288 279.53,-288 289.7,-288"/>
<path fill="none" stroke="#ffff00" d="M254.01,-290C264.08,-290 279.53,-290 289.7,-290"/>
<path fill="none" stroke="#ff0000" d="M254.01,-292C264.08,-292 279.53,-292 289.7,-292"/>
<path fill="none" stroke="#0000ff" d="M254.01,-294C264.08,-294 279.53,-294 289.7,-294"/>
</g>
<!-- J&#45;&gt;r -->
<g id="edge52" class="edge">
<title>J&#45;&gt;r</title>
<path fill="none" stroke="#00ff00" d="M254.01,-128C264.08,-128 279.53,-128 289.7,-128"/>
<path fill="none" stroke="#ffff00" d="M254.01,-130C264.08,-130 279.53,-130 289.7,-130"/>
<path fill="none" stroke="#ff0000" d="M254.01,-132C264.08,-132 279.53,-132 289.7,-132"/>
<path fill="none" stroke="#0000ff" d="M254.01,-134C264.08,-134 279.53,-134 289.7,-134"/>
</g>
<!-- K&#45;&gt;s -->
<g id="edge55" class="edge">
<title>K&#45;&gt;s</title>
<path fill="none" stroke="#00ff00" d="M248.25,-244.28C258.29,-237.1 278.55,-222.64 289.96,-214.49"/>
<path fill="none" stroke="#ffff00" d="M249.41,-245.91C259.46,-238.73 279.71,-224.26 291.12,-216.12"/>
<path fill="none" stroke="#ff0000" d="M250.57,-247.53C260.62,-240.36 280.87,-225.89 292.28,-217.74"/>
<path fill="none" stroke="#0000ff" d="M251.74,-249.16C261.78,-241.99 282.03,-227.52 293.44,-219.37"/>
</g>
<!-- L&#45;&gt;t -->
<g id="edge58" class="edge">
<title>L&#45;&gt;t</title>
<path fill="none" stroke="#00ff00" d="M248.25,-84.28C258.29,-77.1 278.55,-62.64 289.96,-54.49"/>
<path fill="none" stroke="#ffff00" d="M249.41,-85.91C259.46,-78.73 279.71,-64.26 291.12,-56.12"/>
<path fill="none" stroke="#ff0000" d="M250.57,-87.53C260.62,-80.36 280.87,-65.89 292.28,-57.74"/>
<path fill="none" stroke="#0000ff" d="M251.74,-89.16C261.78,-81.99 282.03,-67.52 293.44,-59.37"/>
</g>
<!-- M&#45;&gt;u -->
<g id="edge61" class="edge">
<title>M&#45;&gt;u</title>
<path fill="none" stroke="#ff00ff" d="M251.74,-212.84C261.78,-220.01 282.03,-234.48 293.44,-242.63"/>
<path fill="none" stroke="#ffffff" d="M250.57,-214.47C260.62,-221.64 280.87,-236.11 292.28,-244.26"/>
<path fill="none" stroke="#00ffff" d="M249.41,-216.09C259.46,-223.27 279.71,-237.74 291.12,-245.88"/>
<path fill="none" stroke="#000000" d="M248.25,-217.72C258.29,-224.9 278.55,-239.36 289.96,-247.51"/>
</g>
<!-- N&#45;&gt;v -->
<g id="edge64" class="edge">
<title>N&#45;&gt;v</title>
<path fill="none" stroke="#ff00ff" d="M251.74,-52.84C261.78,-60.01 282.03,-74.48 293.44,-82.63"/>
<path fill="none" stroke="#ffffff" d="M250.57,-54.47C260.62,-61.64 280.87,-76.11 292.28,-84.26"/>
<path fill="none" stroke="#00ffff" d="M249.41,-56.09C259.46,-63.27 279.71,-77.74 291.12,-85.88"/>
<path fill="none" stroke="#000000" d="M248.25,-57.72C258.29,-64.9 278.55,-79.36 289.96,-87.51"/>
</g>
<!-- O&#45;&gt;w -->
<g id="edge67" class="edge">
<title>O&#45;&gt;w</title>
<path fill="none" stroke="#ff00ff" d="M254.01,-168C264.08,-168 279.53,-168 289.7,-168"/>
<path fill="none" stroke="#ffffff" d="M254.01,-170C264.08,-170 279.53,-170 289.7,-170"/>
<path fill="none" stroke="#00ffff" d="M254.01,-172C264.08,-172 279.53,-172 289.7,-172"/>
<path fill="none" stroke="#000000" d="M254.01,-174C264.08,-174 279.53,-174 289.7,-174"/>
</g>
<!-- P&#45;&gt;x -->
<g id="edge70" class="edge">
<title>P&#45;&gt;x</title>
<path fill="none" stroke="#ff00ff" d="M254.01,-8C264.08,-8 279.53,-8 289.7,-8"/>
<path fill="none" stroke="#ffffff" d="M254.01,-10C264.08,-10 279.53,-10 289.7,-10"/>
<path fill="none" stroke="#00ffff" d="M254.01,-12C264.08,-12 279.53,-12 289.7,-12"/>
<path fill="none" stroke="#000000" d="M254.01,-14C264.08,-14 279.53,-14 289.7,-14"/>
</g>
<!-- Q&#45;&gt;10 -->
<g id="edge73" class="edge">
<title>Q&#45;&gt;10</title>
<path fill="none" stroke="#ff00ff" d="M370.01,-284C380.08,-284 395.53,-284 405.7,-284"/>
<path fill="none" stroke="#ffffff" d="M370.01,-286C380.08,-286 395.53,-286 405.7,-286"/>
<path fill="none" stroke="#00ffff" d="M370.01,-288C380.08,-288 395.53,-288 405.7,-288"/>
<path fill="none" stroke="#000000" d="M370.01,-290C380.08,-290 395.53,-290 405.7,-290"/>
<path fill="none" stroke="#00ff00" d="M370.01,-292C380.08,-292 395.53,-292 405.7,-292"/>
<path fill="none" stroke="#ffff00" d="M370.01,-294C380.08,-294 395.53,-294 405.7,-294"/>
<path fill="none" stroke="#ff0000" d="M370.01,-296C380.08,-296 395.53,-296 405.7,-296"/>
<path fill="none" stroke="#0000ff" d="M370.01,-298C380.08,-298 395.53,-298 405.7,-298"/>
</g>
<!-- R&#45;&gt;20 -->
<g id="edge74" class="edge">
<title>R&#45;&gt;20</title>
<path fill="none" stroke="#ff00ff" d="M370.01,-124C380.08,-124 395.53,-124 405.7,-124"/>
<path fill="none" stroke="#ffffff" d="M370.01,-126C380.08,-126 395.53,-126 405.7,-126"/>
<path fill="none" stroke="#00ffff" d="M370.01,-128C380.08,-128 395.53,-128 405.7,-128"/>
<path fill="none" stroke="#000000" d="M370.01,-130C380.08,-130 395.53,-130 405.7,-130"/>
<path fill="none" stroke="#00ff00" d="M370.01,-132C380.08,-132 395.53,-132 405.7,-132"/>
<path fill="none" stroke="#ffff00" d="M370.01,-134C380.08,-134 395.53,-134 405.7,-134"/>
<path fill="none" stroke="#ff0000" d="M370.01,-136C380.08,-136 395.53,-136 405.7,-136"/>
<path fill="none" stroke="#0000ff" d="M370.01,-138C380.08,-138 395.53,-138 405.7,-138"/>
</g>
<!-- S&#45;&gt;30 -->
<g id="edge75" class="edge">
<title>S&#45;&gt;30</title>
<path fill="none" stroke="#ff00ff" d="M370.01,-204C380.08,-204 395.53,-204 405.7,-204"/>
<path fill="none" stroke="#ffffff" d="M370.01,-206C380.08,-206 395.53,-206 405.7,-206"/>
<path fill="none" stroke="#00ffff" d="M370.01,-208C380.08,-208 395.53,-208 405.7,-208"/>
<path fill="none" stroke="#000000" d="M370.01,-210C380.08,-210 395.53,-210 405.7,-210"/>
<path fill="none" stroke="#00ff00" d="M370.01,-212C380.08,-212 395.53,-212 405.7,-212"/>
<path fill="none" stroke="#ffff00" d="M370.01,-214C380.08,-214 395.53,-214 405.7,-214"/>
<path fill="none" stroke="#ff0000" d="M370.01,-216C380.08,-216 395.53,-216 405.7,-216"/>
<path fill="none" stroke="#0000ff" d="M370.01,-218C380.08,-218 395.53,-218 405.7,-218"/>
</g>
<!-- T&#45;&gt;40 -->
<g id="edge76" class="edge">
<title>T&#45;&gt;40</title>
<path fill="none" stroke="#ff00ff" d="M370.01,-44C380.08,-44 395.53,-44 405.7,-44"/>
<path fill="none" stroke="#ffffff" d="M370.01,-46C380.08,-46 395.53,-46 405.7,-46"/>
<path fill="none" stroke="#00ffff" d="M370.01,-48C380.08,-48 395.53,-48 405.7,-48"/>
<path fill="none" stroke="#000000" d="M370.01,-50C380.08,-50 395.53,-50 405.7,-50"/>
<path fill="none" stroke="#00ff00" d="M370.01,-52C380.08,-52 395.53,-52 405.7,-52"/>
<path fill="none" stroke="#ffff00" d="M370.01,-54C380.08,-54 395.53,-54 405.7,-54"/>
<path fill="none" stroke="#ff0000" d="M370.01,-56C380.08,-56 395.53,-56 405.7,-56"/>
<path fill="none" stroke="#0000ff" d="M370.01,-58C380.08,-58 395.53,-58 405.7,-58"/>
</g>
<!-- U&#45;&gt;50 -->
<g id="edge77" class="edge">
<title>U&#45;&gt;50</title>
<path fill="none" stroke="#ff00ff" d="M370.01,-244C380.08,-244 395.53,-244 405.7,-244"/>
<path fill="none" stroke="#ffffff" d="M370.01,-246C380.08,-246 395.53,-246 405.7,-246"/>
<path fill="none" stroke="#00ffff" d="M370.01,-248C380.08,-248 395.53,-248 405.7,-248"/>
<path fill="none" stroke="#000000" d="M370.01,-250C380.08,-250 395.53,-250 405.7,-250"/>
<path fill="none" stroke="#00ff00" d="M370.01,-252C380.08,-252 395.53,-252 405.7,-252"/>
<path fill="none" stroke="#ffff00" d="M370.01,-254C380.08,-254 395.53,-254 405.7,-254"/>
<path fill="none" stroke="#ff0000" d="M370.01,-256C380.08,-256 395.53,-256 405.7,-256"/>
<path fill="none" stroke="#0000ff" d="M370.01,-258C380.08,-258 395.53,-258 405.7,-258"/>
</g>
<!-- V&#45;&gt;60 -->
<g id="edge78" class="edge">
<title>V&#45;&gt;60</title>
<path fill="none" stroke="#ff00ff" d="M370.01,-84C380.08,-84 395.53,-84 405.7,-84"/>
<path fill="none" stroke="#ffffff" d="M370.01,-86C380.08,-86 395.53,-86 405.7,-86"/>
<path fill="none" stroke="#00ffff" d="M370.01,-88C380.08,-88 395.53,-88 405.7,-88"/>
<path fill="none" stroke="#000000" d="M370.01,-90C380.08,-90 395.53,-90 405.7,-90"/>
<path fill="none" stroke="#00ff00" d="M370.01,-92C380.08,-92 395.53,-92 405.7,-92"/>
<path fill="none" stroke="#ffff00" d="M370.01,-94C380.08,-94 395.53,-94 405.7,-94"/>
<path fill="none" stroke="#ff0000" d="M370.01,-96C380.08,-96 395.53,-96 405.7,-96"/>
<path fill="none" stroke="#0000ff" d="M370.01,-98C380.08,-98 395.53,-98 405.7,-98"/>
</g>
<!-- W&#45;&gt;70 -->
<g id="edge79" class="edge">
<title>W&#45;&gt;70</title>
<path fill="none" stroke="#ff00ff" d="M370.01,-164C380.08,-164 395.53,-164 405.7,-164"/>
<path fill="none" stroke="#ffffff" d="M370.01,-166C380.08,-166 395.53,-166 405.7,-166"/>
<path fill="none" stroke="#00ffff" d="M370.01,-168C380.08,-168 395.53,-168 405.7,-168"/>
<path fill="none" stroke="#000000" d="M370.01,-170C380.08,-170 395.53,-170 405.7,-170"/>
<path fill="none" stroke="#00ff00" d="M370.01,-172C380.08,-172 395.53,-172 405.7,-172"/>
<path fill="none" stroke="#ffff00" d="M370.01,-174C380.08,-174 395.53,-174 405.7,-174"/>
<path fill="none" stroke="#ff0000" d="M370.01,-176C380.08,-176 395.53,-176 405.7,-176"/>
<path fill="none" stroke="#0000ff" d="M370.01,-178C380.08,-178 395.53,-178 405.7,-178"/>
</g>
<!-- X&#45;&gt;80 -->
<g id="edge80" class="edge">
<title>X&#45;&gt;80</title>
<path fill="none" stroke="#ff00ff" d="M370.01,-4C380.08,-4 395.53,-4 405.7,-4"/>
<path fill="none" stroke="#ffffff" d="M370.01,-6C380.08,-6 395.53,-6 405.7,-6"/>
<path fill="none" stroke="#00ffff" d="M370.01,-8C380.08,-8 395.53,-8 405.7,-8"/>
<path fill="none" stroke="#000000" d="M370.01,-10C380.08,-10 395.53,-10 405.7,-10"/>
<path fill="none" stroke="#00ff00" d="M370.01,-12C380.08,-12 395.53,-12 405.7,-12"/>
<path fill="none" stroke="#ffff00" d="M370.01,-14C380.08,-14 395.53,-14 405.7,-14"/>
<path fill="none" stroke="#ff0000" d="M370.01,-16C380.08,-16 395.53,-16 405.7,-16"/>
<path fill="none" stroke="#0000ff" d="M370.01,-18C380.08,-18 395.53,-18 405.7,-18"/>
</g>
</g>
</svg>
