<?xml version="1.0" encoding="UTF-8" standalone="no"?>
<!DOCTYPE svg PUBLIC "-//W3C//DTD SVG 1.1//EN"
 "http://www.w3.org/Graphics/SVG/1.1/DTD/svg11.dtd">
<!-- Generated by graphviz version 2.43.0 (0)
 -->
<!-- Title: UML_Class_diagram Pages: 1 -->
<svg width="365pt" height="897pt"
 viewBox="0.00 0.00 364.86 897.00" xmlns="http://www.w3.org/2000/svg" xmlns:xlink="http://www.w3.org/1999/xlink">
<g id="graph0" class="graph" transform="scale(1 1) rotate(0) translate(4 893)">
<title>UML_Class_diagram</title>
<polygon fill="white" stroke="transparent" points="-4,4 -4,-893 360.86,-893 360.86,4 -4,4"/>
<text text-anchor="middle" x="178.43" y="-873.8" font-family="Helvetica,Arial,sans-serif" font-size="14.00">UML Class diagram demo</text>
<!-- Client -->
<g id="node1" class="node">
<title>Client</title>
<polygon fill="#f2f2f2" stroke="black" points="158.36,-829.5 158.36,-865.5 212.36,-865.5 212.36,-829.5 158.36,-829.5"/>
<text text-anchor="middle" x="185.36" y="-843.8" font-family="Helvetica,Arial,sans-serif" font-size="14.00">Client</text>
</g>
<!-- Interface1 -->
<g id="node2" class="node">
<title>Interface1</title>
<polygon fill="#f2f2f2" stroke="black" points="83.36,-678.5 83.36,-777.5 195.36,-777.5 195.36,-678.5 83.36,-678.5"/>
<text text-anchor="start" x="91.36" y="-763.3" font-family="Helvetica,Arial,sans-serif" font-weight="bold" font-size="14.00">«interface» I/O</text>
<polyline fill="none" stroke="black" points="83.36,-754.5 195.36,-754.5 "/>
<text text-anchor="start" x="107.86" y="-739.3" font-family="Helvetica,Arial,sans-serif" font-size="14.00">+ property</text>
<text text-anchor="start" x="107.86" y="-724.3" font-family="Helvetica,Arial,sans-serif" font-size="14.00">...</text>
<polyline fill="none" stroke="black" points="83.36,-716.5 195.36,-716.5 "/>
<text text-anchor="start" x="110.36" y="-701.3" font-family="Helvetica,Arial,sans-serif" font-size="14.00">+ method</text>
<text text-anchor="start" x="110.36" y="-686.3" font-family="Helvetica,Arial,sans-serif" font-size="14.00">...</text>
</g>
<!-- Client&#45;&gt;Interface1 -->
<g id="edge1" class="edge">
<title>Client&#45;&gt;Interface1</title>
<path fill="none" stroke="black" stroke-dasharray="5,2" d="M158.08,-829.83C151.82,-824.62 145.96,-818.29 142.36,-811 138.85,-803.9 136.73,-796.03 135.55,-788.04"/>
<polygon fill="black" stroke="black" points="134.53,-777.92 140.01,-787.42 135.03,-782.9 135.53,-787.87 135.53,-787.87 135.53,-787.87 135.03,-782.9 131.05,-788.32 134.53,-777.92 134.53,-777.92"/>
<text text-anchor="middle" x="179.36" y="-799.8" font-family="Helvetica,Arial,sans-serif" font-size="14.00">dependency</text>
</g>
<!-- Interface2 -->
<g id="node3" class="node">
<title>Interface2</title>
<ellipse fill="#f2f2f2" stroke="black" cx="231.36" cy="-728" rx="18" ry="18"/>
<text text-anchor="middle" x="239.86" y="-764.8" font-family="Helvetica,Arial,sans-serif" font-size="14.00">Simple</text>
<text text-anchor="middle" x="239.86" y="-749.8" font-family="Helvetica,Arial,sans-serif" font-size="14.00">interface</text>
</g>
<!-- Client&#45;&gt;Interface2 -->
<g id="edge2" class="edge">
<title>Client&#45;&gt;Interface2</title>
<path fill="none" stroke="black" stroke-dasharray="5,2" d="M203.52,-829.44C208.38,-823.99 213.16,-817.63 216.36,-811 224.61,-793.89 228.34,-772.77 230.02,-756.25"/>
<polygon fill="black" stroke="black" points="230.85,-746.15 234.52,-756.48 230.44,-751.13 230.03,-756.11 230.03,-756.11 230.03,-756.11 230.44,-751.13 225.55,-755.74 230.85,-746.15 230.85,-746.15"/>
</g>
<!-- Class1 -->
<g id="node4" class="node">
<title>Class1</title>
<polygon fill="#f2f2f2" stroke="black" points="144.86,-541.5 144.86,-640.5 223.86,-640.5 223.86,-541.5 144.86,-541.5"/>
<text text-anchor="start" x="155.86" y="-626.3" font-family="Helvetica,Arial,sans-serif" font-weight="bold" font-size="14.00">I/O class</text>
<polyline fill="none" stroke="black" points="144.86,-617.5 223.86,-617.5 "/>
<text text-anchor="start" x="152.86" y="-602.3" font-family="Helvetica,Arial,sans-serif" font-size="14.00">+ property</text>
<text text-anchor="start" x="152.86" y="-587.3" font-family="Helvetica,Arial,sans-serif" font-size="14.00">...</text>
<polyline fill="none" stroke="black" points="144.86,-579.5 223.86,-579.5 "/>
<text text-anchor="start" x="155.36" y="-564.3" font-family="Helvetica,Arial,sans-serif" font-size="14.00">+ method</text>
<text text-anchor="start" x="155.36" y="-549.3" font-family="Helvetica,Arial,sans-serif" font-size="14.00">...</text>
</g>
<!-- Interface1&#45;&gt;Class1 -->
<g id="edge3" class="edge">
<title>Interface1&#45;&gt;Class1</title>
<path fill="none" stroke="black" d="M158.8,-668.65C161.92,-659.32 165.11,-649.74 168.13,-640.67"/>
<polygon fill="none" stroke="black" points="155.44,-667.67 155.6,-678.26 162.08,-669.88 155.44,-667.67"/>
<text text-anchor="middle" x="128.38" y="-663.21" font-family="Helvetica,Arial,sans-serif" font-size="14.00">inheritance</text>
</g>
<!-- Interface2&#45;&gt;Class1 -->
<g id="edge4" class="edge">
<title>Interface2&#45;&gt;Class1</title>
<path fill="none" stroke="black" d="M225.69,-710.72C219.66,-693.39 209.82,-665.16 201.26,-640.57"/>
</g>
<!-- System_1 -->
<g id="node5" class="node">
<title>System_1</title>
<polygon fill="#f2f2f2" stroke="transparent" points="235.36,-490 133.36,-490 133.36,-320 235.36,-320 235.36,-490"/>
<polygon fill="none" stroke="black" points="133.36,-465 133.36,-490 235.36,-490 235.36,-465 133.36,-465"/>
<text text-anchor="start" x="155.86" y="-474.8" font-family="Helvetica,Arial,sans-serif" font-size="14.00"> </text>
<text text-anchor="start" x="159.86" y="-474.8" font-family="Helvetica,Arial,sans-serif" font-weight="bold" font-size="14.00">System</text>
<text text-anchor="start" x="208.86" y="-474.8" font-family="Helvetica,Arial,sans-serif" font-size="14.00"> </text>
<polygon fill="none" stroke="black" points="133.36,-360 133.36,-465 235.36,-465 235.36,-360 133.36,-360"/>
<text text-anchor="start" x="140.36" y="-446.8" font-family="Helvetica,Arial,sans-serif" font-size="14.00">+ property</text>
<text text-anchor="start" x="140.36" y="-427.8" font-family="Helvetica,Arial,sans-serif" font-size="14.00">&#45; Subsystem 1</text>
<text text-anchor="start" x="140.36" y="-408.8" font-family="Helvetica,Arial,sans-serif" font-size="14.00">&#45; Subsystem 2</text>
<text text-anchor="start" x="140.36" y="-389.8" font-family="Helvetica,Arial,sans-serif" font-size="14.00">&#45; Subsystem 3</text>
<text text-anchor="start" x="140.36" y="-370.8" font-family="Helvetica,Arial,sans-serif" font-size="14.00">...</text>
<polygon fill="none" stroke="black" points="133.36,-320 133.36,-360 235.36,-360 235.36,-320 133.36,-320"/>
<text text-anchor="start" x="138.36" y="-343.8" font-family="Helvetica,Arial,sans-serif" font-size="14.00">+ method</text>
<text text-anchor="start" x="138.36" y="-328.8" font-family="Helvetica,Arial,sans-serif" font-size="14.00">...</text>
</g>
<!-- Class1&#45;&gt;System_1 -->
<g id="edge5" class="edge">
<title>Class1&#45;&gt;System_1</title>
<path fill="none" stroke="black" stroke-dasharray="5,2" d="M184.36,-531.01C184.36,-518.03 184.36,-504.04 184.36,-490.28"/>
<polygon fill="none" stroke="black" points="180.86,-531.17 184.36,-541.17 187.86,-531.17 180.86,-531.17"/>
<text text-anchor="middle" x="231.36" y="-511.8" font-family="Helvetica,Arial,sans-serif" font-size="14.00">implementation</text>
</g>
<!-- Subsystem_1 -->
<g id="node6" class="node">
<title>Subsystem_1</title>
<polygon fill="#f2f2f2" stroke="transparent" points="114.86,-283 11.86,-283 11.86,-151 114.86,-151 114.86,-283"/>
<polygon fill="none" stroke="black" points="12.36,-258 12.36,-283 115.36,-283 115.36,-258 12.36,-258"/>
<text text-anchor="start" x="17.36" y="-267.8" font-family="Helvetica,Arial,sans-serif" font-size="14.00"> </text>
<text text-anchor="start" x="21.36" y="-267.8" font-family="Helvetica,Arial,sans-serif" font-weight="bold" font-size="14.00">Subsystem 1</text>
<text text-anchor="start" x="106.36" y="-267.8" font-family="Helvetica,Arial,sans-serif" font-size="14.00"> </text>
<polygon fill="none" stroke="black" points="12.36,-191 12.36,-258 115.36,-258 115.36,-191 12.36,-191"/>
<text text-anchor="start" x="19.36" y="-239.8" font-family="Helvetica,Arial,sans-serif" font-size="14.00">+ property</text>
<text text-anchor="start" x="19.36" y="-220.8" font-family="Helvetica,Arial,sans-serif" font-size="14.00">&#45; resource</text>
<text text-anchor="start" x="19.36" y="-201.8" font-family="Helvetica,Arial,sans-serif" font-size="14.00">...</text>
<polygon fill="none" stroke="black" points="12.36,-151 12.36,-191 115.36,-191 115.36,-151 12.36,-151"/>
<text text-anchor="start" x="17.36" y="-174.8" font-family="Helvetica,Arial,sans-serif" font-size="14.00">+ method</text>
<text text-anchor="start" x="17.36" y="-159.8" font-family="Helvetica,Arial,sans-serif" font-size="14.00">...</text>
</g>
<!-- System_1&#45;&gt;Subsystem_1 -->
<g id="edge6" class="edge">
<title>System_1:ss1&#45;&gt;Subsystem_1</title>
<path fill="none" stroke="black" stroke-dasharray="5,2" d="M125.31,-430.89C71.94,-420.68 60.87,-341.86 60.2,-283.08"/>
<polygon fill="black" stroke="black" points="125.41,-430.9 131.75,-427.47 137.36,-432 131.01,-435.43 125.41,-430.9"/>
<text text-anchor="middle" x="36.5" y="-379.02" font-family="Helvetica,Arial,sans-serif" font-size="14.00">composition</text>
</g>
<!-- Subsystem_2 -->
<g id="node7" class="node">
<title>Subsystem_2</title>
<polygon fill="#f2f2f2" stroke="transparent" points="235.86,-283 132.86,-283 132.86,-151 235.86,-151 235.86,-283"/>
<polygon fill="none" stroke="black" points="133.36,-258 133.36,-283 236.36,-283 236.36,-258 133.36,-258"/>
<text text-anchor="start" x="138.36" y="-267.8" font-family="Helvetica,Arial,sans-serif" font-size="14.00"> </text>
<text text-anchor="start" x="142.36" y="-267.8" font-family="Helvetica,Arial,sans-serif" font-weight="bold" font-size="14.00">Subsystem 2</text>
<text text-anchor="start" x="227.36" y="-267.8" font-family="Helvetica,Arial,sans-serif" font-size="14.00"> </text>
<polygon fill="none" stroke="black" points="133.36,-191 133.36,-258 236.36,-258 236.36,-191 133.36,-191"/>
<text text-anchor="start" x="140.36" y="-239.8" font-family="Helvetica,Arial,sans-serif" font-size="14.00">+ property</text>
<text text-anchor="start" x="140.36" y="-220.8" font-family="Helvetica,Arial,sans-serif" font-size="14.00">&#45; resource</text>
<text text-anchor="start" x="140.36" y="-201.8" font-family="Helvetica,Arial,sans-serif" font-size="14.00">...</text>
<polygon fill="none" stroke="black" points="133.36,-151 133.36,-191 236.36,-191 236.36,-151 133.36,-151"/>
<text text-anchor="start" x="138.36" y="-174.8" font-family="Helvetica,Arial,sans-serif" font-size="14.00">+ method</text>
<text text-anchor="start" x="138.36" y="-159.8" font-family="Helvetica,Arial,sans-serif" font-size="14.00">...</text>
</g>
<!-- System_1&#45;&gt;Subsystem_2 -->
<g id="edge7" class="edge">
<title>System_1:ss2&#45;&gt;Subsystem_2</title>
<path fill="none" stroke="black" stroke-dasharray="5,2" d="M243.61,-411.44C280.79,-400.56 253.36,-335.02 224.69,-283.2"/>
<polygon fill="black" stroke="black" points="243.26,-411.48 237.81,-416.21 231.36,-413 236.8,-408.27 243.26,-411.48"/>
</g>
<!-- Subsystem_3 -->
<g id="node8" class="node">
<title>Subsystem_3</title>
<polygon fill="#f2f2f2" stroke="transparent" points="356.86,-283 253.86,-283 253.86,-151 356.86,-151 356.86,-283"/>
<polygon fill="none" stroke="black" points="254.36,-258 254.36,-283 357.36,-283 357.36,-258 254.36,-258"/>
<text text-anchor="start" x="259.36" y="-267.8" font-family="Helvetica,Arial,sans-serif" font-size="14.00"> </text>
<text text-anchor="start" x="263.36" y="-267.8" font-family="Helvetica,Arial,sans-serif" font-weight="bold" font-size="14.00">Subsystem 3</text>
<text text-anchor="start" x="348.36" y="-267.8" font-family="Helvetica,Arial,sans-serif" font-size="14.00"> </text>
<polygon fill="none" stroke="black" points="254.36,-191 254.36,-258 357.36,-258 357.36,-191 254.36,-191"/>
<text text-anchor="start" x="261.36" y="-239.8" font-family="Helvetica,Arial,sans-serif" font-size="14.00">+ property</text>
<text text-anchor="start" x="261.36" y="-220.8" font-family="Helvetica,Arial,sans-serif" font-size="14.00">&#45; resource</text>
<text text-anchor="start" x="261.36" y="-201.8" font-family="Helvetica,Arial,sans-serif" font-size="14.00">...</text>
<polygon fill="none" stroke="black" points="254.36,-151 254.36,-191 357.36,-191 357.36,-151 254.36,-151"/>
<text text-anchor="start" x="259.36" y="-174.8" font-family="Helvetica,Arial,sans-serif" font-size="14.00">+ method</text>
<text text-anchor="start" x="259.36" y="-159.8" font-family="Helvetica,Arial,sans-serif" font-size="14.00">...</text>
</g>
<!-- System_1&#45;&gt;Subsystem_3 -->
<g id="edge8" class="edge">
<title>System_1:ss3&#45;&gt;Subsystem_3</title>
<path fill="none" stroke="black" stroke-dasharray="5,2" d="M243.4,-391.71C283.66,-382.75 298.21,-328.64 303.25,-283.16"/>
<polygon fill="black" stroke="black" points="243.29,-391.73 237.75,-396.34 231.36,-393 236.9,-388.39 243.29,-391.73"/>
</g>
<!-- Shared resource -->
<g id="node9" class="node">
<title>Shared resource</title>
<polygon fill="#f2f2f2" stroke="black" points="123.36,-0.5 123.36,-99.5 247.36,-99.5 247.36,-0.5 123.36,-0.5"/>
<text text-anchor="start" x="131.36" y="-85.3" font-family="Helvetica,Arial,sans-serif" font-weight="bold" font-size="14.00">Shared resource</text>
<polyline fill="none" stroke="black" points="123.36,-76.5 247.36,-76.5 "/>
<text text-anchor="start" x="153.86" y="-61.3" font-family="Helvetica,Arial,sans-serif" font-size="14.00">+ property</text>
<text text-anchor="start" x="153.86" y="-46.3" font-family="Helvetica,Arial,sans-serif" font-size="14.00">...</text>
<polyline fill="none" stroke="black" points="123.36,-38.5 247.36,-38.5 "/>
<text text-anchor="start" x="156.36" y="-23.3" font-family="Helvetica,Arial,sans-serif" font-size="14.00">+ method</text>
<text text-anchor="start" x="156.36" y="-8.3" font-family="Helvetica,Arial,sans-serif" font-size="14.00">...</text>
</g>
<!-- Subsystem_1&#45;&gt;Shared resource -->
<g id="edge9" class="edge">
<title>Subsystem_1:r1&#45;&gt;Shared resource</title>
<path fill="none" stroke="black" stroke-dasharray="5,2" d="M119.37,-215.9C123.84,-198.85 118.96,-162.76 123.36,-151 129.97,-133.3 139.9,-115.34 149.89,-99.61"/>
<polygon fill="none" stroke="black" points="119.29,-215.99 118.32,-223.14 111.36,-225 112.32,-217.85 119.29,-215.99"/>
<text text-anchor="middle" x="175.36" y="-121.8" font-family="Helvetica,Arial,sans-serif" font-size="14.00">aggregation</text>
</g>
<!-- Subsystem_2&#45;&gt;Shared resource -->
<g id="edge10" class="edge">
<title>Subsystem_2:r1&#45;&gt;Shared resource</title>
<path fill="none" stroke="black" stroke-dasharray="5,2" d="M239.69,-215.43C242.44,-198.27 234.06,-162.97 231.36,-151 227.42,-133.57 220.22,-115.54 212.67,-99.66"/>
<polygon fill="none" stroke="black" points="239.65,-215.47 239.18,-222.67 232.36,-225 232.83,-217.8 239.65,-215.47"/>
</g>
<!-- Subsystem_3&#45;&gt;Shared resource -->
<g id="edge11" class="edge">
<title>Subsystem_3:r1&#45;&gt;Shared resource</title>
<path fill="none" stroke="black" stroke-dasharray="5,2" d="M249.93,-216.26C244.49,-199.5 247.94,-163.39 245.36,-151 242.27,-136.23 243.9,-131.6 237.36,-118 234.35,-111.77 230.7,-105.56 226.74,-99.59"/>
<polygon fill="none" stroke="black" points="250.02,-216.36 257.07,-217.9 258.36,-225 251.31,-223.46 250.02,-216.36"/>
</g>
</g>
</svg>
