<?xml version="1.0" encoding="UTF-8" standalone="no"?>
<!DOCTYPE svg PUBLIC "-//W3C//DTD SVG 1.1//EN"
 "http://www.w3.org/Graphics/SVG/1.1/DTD/svg11.dtd">
<!-- Generated by graphviz version 2.45.20200621.0824 (20200621.0824)
 -->
<!-- Title: UML_Class_diagram Pages: 1 -->
<svg width="392pt" height="748pt"
 viewBox="0.00 0.00 392.00 748.00" xmlns="http://www.w3.org/2000/svg" xmlns:xlink="http://www.w3.org/1999/xlink">
<g id="graph0" class="graph" transform="scale(1 1) rotate(0) translate(4 744)">
<title>UML_Class_diagram</title>
<polygon fill="white" stroke="transparent" points="-4,4 -4,-744 388,-744 388,4 -4,4"/>
<text text-anchor="middle" x="192" y="-724.8" font-family="Times,serif" font-size="14.00">UML Class diagram demo</text>
<!-- Client -->
<g id="node1" class="node">
<title>Client</title>
<polygon fill="#f2f2f2" stroke="black" points="162.5,-680.5 162.5,-716.5 221.5,-716.5 221.5,-680.5 162.5,-680.5"/>
<text text-anchor="middle" x="192" y="-694.8" font-family="Times,serif" font-size="14.00">Client</text>
</g>
<!-- Interface1 -->
<g id="node2" class="node">
<title>Interface1</title>
<polygon fill="#f2f2f2" stroke="black" points="74,-544.5 74,-643.5 208,-643.5 208,-544.5 74,-544.5"/>
<text text-anchor="start" x="82" y="-629.3" font-family="Times,serif" font-weight="bold" font-size="14.00">«interface» I/O</text>
<polyline fill="none" stroke="black" points="74,-620.5 208,-620.5 "/>
<text text-anchor="start" x="101.5" y="-605.3" font-family="Times,serif" font-size="14.00">+ property</text>
<text text-anchor="start" x="101.5" y="-590.3" font-family="Times,serif" font-size="14.00">...</text>
<polyline fill="none" stroke="black" points="74,-582.5 208,-582.5 "/>
<text text-anchor="start" x="105.5" y="-567.3" font-family="Times,serif" font-size="14.00">+ method</text>
<text text-anchor="start" x="105.5" y="-552.3" font-family="Times,serif" font-size="14.00">...</text>
</g>
<!-- Client&#45;&gt;Interface1 -->
<g id="edge1" class="edge">
<title>Client&#45;&gt;Interface1</title>
<path fill="none" stroke="black" stroke-dasharray="5,2" d="M183.35,-680.11C179.52,-672.42 174.77,-662.88 169.86,-652.99"/>
<polygon fill="black" stroke="black" points="165.31,-643.87 173.8,-650.82 167.54,-648.34 169.77,-652.82 169.77,-652.82 169.77,-652.82 167.54,-648.34 165.74,-654.82 165.31,-643.87 165.31,-643.87"/>
<text text-anchor="middle" x="133.6" y="-655.35" font-family="Times,serif" font-size="14.00">dependency</text>
</g>
<!-- Interface2 -->
<g id="node3" class="node">
<title>Interface2</title>
<ellipse fill="#f2f2f2" stroke="black" cx="244" cy="-594" rx="18" ry="18"/>
<text text-anchor="middle" x="258" y="-630.8" font-family="Times,serif" font-size="14.00">Simple</text>
<text text-anchor="middle" x="258" y="-615.8" font-family="Times,serif" font-size="14.00">interface</text>
</g>
<!-- Client&#45;&gt;Interface2 -->
<g id="edge2" class="edge">
<title>Client&#45;&gt;Interface2</title>
<path fill="none" stroke="black" stroke-dasharray="5,2" d="M200.82,-680.11C209.26,-663.48 222.07,-638.23 231.55,-619.55"/>
<polygon fill="black" stroke="black" points="236.16,-610.46 235.65,-621.41 233.9,-614.92 231.63,-619.38 231.63,-619.38 231.63,-619.38 233.9,-614.92 227.62,-617.34 236.16,-610.46 236.16,-610.46"/>
</g>
<!-- Class1 -->
<g id="node4" class="node">
<title>Class1</title>
<polygon fill="#f2f2f2" stroke="black" points="144.5,-408.5 144.5,-507.5 239.5,-507.5 239.5,-408.5 144.5,-408.5"/>
<text text-anchor="start" x="158" y="-493.3" font-family="Times,serif" font-weight="bold" font-size="14.00">I/O class</text>
<polyline fill="none" stroke="black" points="144.5,-484.5 239.5,-484.5 "/>
<text text-anchor="start" x="152.5" y="-469.3" font-family="Times,serif" font-size="14.00">+ property</text>
<text text-anchor="start" x="152.5" y="-454.3" font-family="Times,serif" font-size="14.00">...</text>
<polyline fill="none" stroke="black" points="144.5,-446.5 239.5,-446.5 "/>
<text text-anchor="start" x="156.5" y="-431.3" font-family="Times,serif" font-size="14.00">+ method</text>
<text text-anchor="start" x="156.5" y="-416.3" font-family="Times,serif" font-size="14.00">...</text>
</g>
<!-- Interface1&#45;&gt;Class1 -->
<g id="edge3" class="edge">
<title>Interface1&#45;&gt;Class1</title>
<path fill="none" stroke="black" d="M163.2,-534.68C166.59,-525.76 170.06,-516.63 173.37,-507.94"/>
<polygon fill="none" stroke="black" points="159.84,-533.65 159.56,-544.24 166.38,-536.14 159.84,-533.65"/>
<text text-anchor="middle" x="127.28" y="-525.11" font-family="Times,serif" font-size="14.00">inheritance</text>
</g>
<!-- Interface2&#45;&gt;Class1 -->
<g id="edge4" class="edge">
<title>Interface2&#45;&gt;Class1</title>
<path fill="none" stroke="black" d="M237.73,-576.84C231.08,-559.71 220.27,-531.84 210.82,-507.5"/>
</g>
<!-- System_1 -->
<g id="node5" class="node">
<title>System_1</title>
<polygon fill="#f2f2f2" stroke="black" points="144.5,-272.5 144.5,-371.5 239.5,-371.5 239.5,-272.5 144.5,-272.5"/>
<text text-anchor="start" x="163" y="-357.3" font-family="Times,serif" font-weight="bold" font-size="14.00">System</text>
<polyline fill="none" stroke="black" points="144.5,-348.5 239.5,-348.5 "/>
<text text-anchor="start" x="152.5" y="-333.3" font-family="Times,serif" font-size="14.00">+ property</text>
<text text-anchor="start" x="152.5" y="-318.3" font-family="Times,serif" font-size="14.00">...</text>
<polyline fill="none" stroke="black" points="144.5,-310.5 239.5,-310.5 "/>
<text text-anchor="start" x="156.5" y="-295.3" font-family="Times,serif" font-size="14.00">+ method</text>
<text text-anchor="start" x="156.5" y="-280.3" font-family="Times,serif" font-size="14.00">...</text>
</g>
<!-- Class1&#45;&gt;System_1 -->
<g id="edge5" class="edge">
<title>Class1&#45;&gt;System_1</title>
<path fill="none" stroke="black" stroke-dasharray="5,2" d="M192,-398.11C192,-389.37 192,-380.45 192,-371.94"/>
<polygon fill="none" stroke="black" points="188.5,-398.24 192,-408.24 195.5,-398.24 188.5,-398.24"/>
<text text-anchor="middle" x="135.5" y="-388.83" font-family="Times,serif" font-size="14.00">implementation</text>
</g>
<!-- Subsystem_1 -->
<g id="node7" class="node">
<title>Subsystem_1</title>
<polygon fill="#f2f2f2" stroke="black" points="0,-136.5 0,-235.5 116,-235.5 116,-136.5 0,-136.5"/>
<text text-anchor="start" x="8" y="-221.3" font-family="Times,serif" font-weight="bold" font-size="14.00">Subsystem 1</text>
<polyline fill="none" stroke="black" points="0,-212.5 116,-212.5 "/>
<text text-anchor="start" x="18.5" y="-197.3" font-family="Times,serif" font-size="14.00">+ property</text>
<text text-anchor="start" x="18.5" y="-182.3" font-family="Times,serif" font-size="14.00">...</text>
<polyline fill="none" stroke="black" points="0,-174.5 116,-174.5 "/>
<text text-anchor="start" x="22.5" y="-159.3" font-family="Times,serif" font-size="14.00">+ method</text>
<text text-anchor="start" x="22.5" y="-144.3" font-family="Times,serif" font-size="14.00">...</text>
</g>
<!-- System_1&#45;&gt;Subsystem_1 -->
<g id="edge6" class="edge">
<title>System_1&#45;&gt;Subsystem_1</title>
<path fill="none" stroke="black" stroke-dasharray="5,2" d="M135.68,-264.68C126.09,-255.09 116.2,-245.2 106.82,-235.82"/>
<polygon fill="black" stroke="black" points="135.89,-264.89 142.97,-266.31 144.38,-273.38 137.31,-271.97 135.89,-264.89"/>
<text text-anchor="middle" x="77.75" y="-254.05" font-family="Times,serif" font-size="14.00">composition</text>
</g>
<!-- Subsystem_2 -->
<g id="node8" class="node">
<title>Subsystem_2</title>
<polygon fill="#f2f2f2" stroke="black" points="134,-136.5 134,-235.5 250,-235.5 250,-136.5 134,-136.5"/>
<text text-anchor="start" x="142" y="-221.3" font-family="Times,serif" font-weight="bold" font-size="14.00">Subsystem 2</text>
<polyline fill="none" stroke="black" points="134,-212.5 250,-212.5 "/>
<text text-anchor="start" x="152.5" y="-197.3" font-family="Times,serif" font-size="14.00">+ property</text>
<text text-anchor="start" x="152.5" y="-182.3" font-family="Times,serif" font-size="14.00">...</text>
<polyline fill="none" stroke="black" points="134,-174.5 250,-174.5 "/>
<text text-anchor="start" x="156.5" y="-159.3" font-family="Times,serif" font-size="14.00">+ method</text>
<text text-anchor="start" x="156.5" y="-144.3" font-family="Times,serif" font-size="14.00">...</text>
</g>
<!-- System_1&#45;&gt;Subsystem_2 -->
<g id="edge7" class="edge">
<title>System_1&#45;&gt;Subsystem_2</title>
<path fill="none" stroke="black" stroke-dasharray="5,2" d="M192,-260.11C192,-252.02 192,-243.8 192,-235.94"/>
<polygon fill="black" stroke="black" points="192,-260.24 196,-266.24 192,-272.24 188,-266.24 192,-260.24"/>
</g>
<!-- Subsystem_3 -->
<g id="node9" class="node">
<title>Subsystem_3</title>
<polygon fill="#f2f2f2" stroke="black" points="268,-136.5 268,-235.5 384,-235.5 384,-136.5 268,-136.5"/>
<text text-anchor="start" x="276" y="-221.3" font-family="Times,serif" font-weight="bold" font-size="14.00">Subsystem 3</text>
<polyline fill="none" stroke="black" points="268,-212.5 384,-212.5 "/>
<text text-anchor="start" x="286.5" y="-197.3" font-family="Times,serif" font-size="14.00">+ property</text>
<text text-anchor="start" x="286.5" y="-182.3" font-family="Times,serif" font-size="14.00">...</text>
<polyline fill="none" stroke="black" points="268,-174.5 384,-174.5 "/>
<text text-anchor="start" x="290.5" y="-159.3" font-family="Times,serif" font-size="14.00">+ method</text>
<text text-anchor="start" x="290.5" y="-144.3" font-family="Times,serif" font-size="14.00">...</text>
</g>
<!-- System_1&#45;&gt;Subsystem_3 -->
<g id="edge8" class="edge">
<title>System_1&#45;&gt;Subsystem_3</title>
<path fill="none" stroke="black" stroke-dasharray="5,2" d="M248.32,-264.68C257.91,-255.09 267.8,-245.2 277.18,-235.82"/>
<polygon fill="black" stroke="black" points="248.11,-264.89 246.69,-271.97 239.62,-273.38 241.03,-266.31 248.11,-264.89"/>
</g>
<!-- Shared resource -->
<g id="node6" class="node">
<title>Shared resource</title>
<polygon fill="#f2f2f2" stroke="black" points="119,-0.5 119,-99.5 265,-99.5 265,-0.5 119,-0.5"/>
<text text-anchor="start" x="127" y="-85.3" font-family="Times,serif" font-weight="bold" font-size="14.00">Shared resource</text>
<polyline fill="none" stroke="black" points="119,-76.5 265,-76.5 "/>
<text text-anchor="start" x="152.5" y="-61.3" font-family="Times,serif" font-size="14.00">+ property</text>
<text text-anchor="start" x="152.5" y="-46.3" font-family="Times,serif" font-size="14.00">...</text>
<polyline fill="none" stroke="black" points="119,-38.5 265,-38.5 "/>
<text text-anchor="start" x="156.5" y="-23.3" font-family="Times,serif" font-size="14.00">+ method</text>
<text text-anchor="start" x="156.5" y="-8.3" font-family="Times,serif" font-size="14.00">...</text>
</g>
<!-- Subsystem_1&#45;&gt;Shared resource -->
<g id="edge9" class="edge">
<title>Subsystem_1&#45;&gt;Shared resource</title>
<path fill="none" stroke="black" stroke-dasharray="5,2" d="M115.47,-127.53C124.66,-118.34 134.09,-108.91 143.06,-99.94"/>
<polygon fill="none" stroke="black" points="115.24,-127.76 113.83,-134.83 106.76,-136.24 108.17,-129.17 115.24,-127.76"/>
<text text-anchor="middle" x="85.76" y="-117.54" font-family="Times,serif" font-size="14.00">aggregation</text>
</g>
<!-- Subsystem_2&#45;&gt;Shared resource -->
<g id="edge10" class="edge">
<title>Subsystem_2&#45;&gt;Shared resource</title>
<path fill="none" stroke="black" stroke-dasharray="5,2" d="M192,-124.11C192,-116.02 192,-107.8 192,-99.94"/>
<polygon fill="none" stroke="black" points="192,-124.24 196,-130.24 192,-136.24 188,-130.24 192,-124.24"/>
</g>
<!-- Subsystem_3&#45;&gt;Shared resource -->
<g id="edge11" class="edge">
<title>Subsystem_3&#45;&gt;Shared resource</title>
<path fill="none" stroke="black" stroke-dasharray="5,2" d="M268.53,-127.53C259.34,-118.34 249.91,-108.91 240.94,-99.94"/>
<polygon fill="none" stroke="black" points="268.76,-127.76 275.83,-129.17 277.24,-136.24 270.17,-134.83 268.76,-127.76"/>
</g>
</g>
</svg>
