<?xml version="1.0" encoding="UTF-8" standalone="no"?>
<!DOCTYPE svg PUBLIC "-//W3C//DTD SVG 1.1//EN"
 "http://www.w3.org/Graphics/SVG/1.1/DTD/svg11.dtd">
<!-- Generated by graphviz version 2.43.0 (0)
 -->
<!-- Title: UML_Class_diagram Pages: 1 -->
<svg width="347pt" height="748pt"
 viewBox="0.00 0.00 347.00 748.00" xmlns="http://www.w3.org/2000/svg" xmlns:xlink="http://www.w3.org/1999/xlink">
<g id="graph0" class="graph" transform="scale(1 1) rotate(0) translate(4 744)">
<title>UML_Class_diagram</title>
<polygon fill="white" stroke="transparent" points="-4,4 -4,-744 343,-744 343,4 -4,4"/>
<text text-anchor="middle" x="169.5" y="-724.8" font-family="Helvetica,Arial,sans-serif" font-size="14.00">UML Class diagram demo</text>
<!-- Client -->
<g id="node1" class="node">
<title>Client</title>
<polygon fill="#f2f2f2" stroke="black" points="142.5,-680.5 142.5,-716.5 196.5,-716.5 196.5,-680.5 142.5,-680.5"/>
<text text-anchor="middle" x="169.5" y="-694.8" font-family="Helvetica,Arial,sans-serif" font-size="14.00">Client</text>
</g>
<!-- Interface1 -->
<g id="node2" class="node">
<title>Interface1</title>
<polygon fill="#f2f2f2" stroke="black" points="67.5,-544.5 67.5,-643.5 179.5,-643.5 179.5,-544.5 67.5,-544.5"/>
<text text-anchor="start" x="75.5" y="-629.3" font-family="Helvetica,Arial,sans-serif" font-weight="bold" font-size="14.00">«interface» I/O</text>
<polyline fill="none" stroke="black" points="67.5,-620.5 179.5,-620.5 "/>
<text text-anchor="start" x="92" y="-605.3" font-family="Helvetica,Arial,sans-serif" font-size="14.00">+ property</text>
<text text-anchor="start" x="92" y="-590.3" font-family="Helvetica,Arial,sans-serif" font-size="14.00">...</text>
<polyline fill="none" stroke="black" points="67.5,-582.5 179.5,-582.5 "/>
<text text-anchor="start" x="94.5" y="-567.3" font-family="Helvetica,Arial,sans-serif" font-size="14.00">+ method</text>
<text text-anchor="start" x="94.5" y="-552.3" font-family="Helvetica,Arial,sans-serif" font-size="14.00">...</text>
</g>
<!-- Client&#45;&gt;Interface1 -->
<g id="edge1" class="edge">
<title>Client&#45;&gt;Interface1</title>
<path fill="none" stroke="black" stroke-dasharray="5,2" d="M161.7,-680.11C158.24,-672.42 153.96,-662.88 149.53,-652.99"/>
<polygon fill="black" stroke="black" points="145.43,-643.87 153.63,-651.15 147.48,-648.43 149.53,-652.99 149.53,-652.99 149.53,-652.99 147.48,-648.43 145.42,-654.83 145.43,-643.87 145.43,-643.87"/>
<text text-anchor="middle" x="118.61" y="-655.35" font-family="Helvetica,Arial,sans-serif" font-size="14.00">dependency</text>
</g>
<!-- Interface2 -->
<g id="node3" class="node">
<title>Interface2</title>
<ellipse fill="#f2f2f2" stroke="black" cx="215.5" cy="-594" rx="18" ry="18"/>
<text text-anchor="middle" x="224" y="-630.8" font-family="Helvetica,Arial,sans-serif" font-size="14.00">Simple</text>
<text text-anchor="middle" x="224" y="-615.8" font-family="Helvetica,Arial,sans-serif" font-size="14.00">interface</text>
</g>
<!-- Client&#45;&gt;Interface2 -->
<g id="edge2" class="edge">
<title>Client&#45;&gt;Interface2</title>
<path fill="none" stroke="black" stroke-dasharray="5,2" d="M177.3,-680.11C184.69,-663.65 195.86,-638.75 204.22,-620.13"/>
<polygon fill="black" stroke="black" points="208.41,-610.79 208.43,-621.75 206.37,-615.35 204.32,-619.91 204.32,-619.91 204.32,-619.91 206.37,-615.35 200.21,-618.07 208.41,-610.79 208.41,-610.79"/>
</g>
<!-- Class1 -->
<g id="node4" class="node">
<title>Class1</title>
<polygon fill="#f2f2f2" stroke="black" points="130,-408.5 130,-507.5 209,-507.5 209,-408.5 130,-408.5"/>
<text text-anchor="start" x="141" y="-493.3" font-family="Helvetica,Arial,sans-serif" font-weight="bold" font-size="14.00">I/O class</text>
<polyline fill="none" stroke="black" points="130,-484.5 209,-484.5 "/>
<text text-anchor="start" x="138" y="-469.3" font-family="Helvetica,Arial,sans-serif" font-size="14.00">+ property</text>
<text text-anchor="start" x="138" y="-454.3" font-family="Helvetica,Arial,sans-serif" font-size="14.00">...</text>
<polyline fill="none" stroke="black" points="130,-446.5 209,-446.5 "/>
<text text-anchor="start" x="140.5" y="-431.3" font-family="Helvetica,Arial,sans-serif" font-size="14.00">+ method</text>
<text text-anchor="start" x="140.5" y="-416.3" font-family="Helvetica,Arial,sans-serif" font-size="14.00">...</text>
</g>
<!-- Interface1&#45;&gt;Class1 -->
<g id="edge3" class="edge">
<title>Interface1&#45;&gt;Class1</title>
<path fill="none" stroke="black" d="M143.52,-534.68C146.58,-525.76 149.72,-516.63 152.7,-507.94"/>
<polygon fill="none" stroke="black" points="140.17,-533.65 140.24,-544.24 146.79,-535.92 140.17,-533.65"/>
<text text-anchor="middle" x="114.61" y="-525.11" font-family="Helvetica,Arial,sans-serif" font-size="14.00">inheritance</text>
</g>
<!-- Interface2&#45;&gt;Class1 -->
<g id="edge4" class="edge">
<title>Interface2&#45;&gt;Class1</title>
<path fill="none" stroke="black" d="M209.95,-576.84C204.07,-559.71 194.51,-531.84 186.15,-507.5"/>
</g>
<!-- System_1 -->
<g id="node5" class="node">
<title>System_1</title>
<polygon fill="#f2f2f2" stroke="black" points="130,-272.5 130,-371.5 209,-371.5 209,-272.5 130,-272.5"/>
<text text-anchor="start" x="145" y="-357.3" font-family="Helvetica,Arial,sans-serif" font-weight="bold" font-size="14.00">System</text>
<polyline fill="none" stroke="black" points="130,-348.5 209,-348.5 "/>
<text text-anchor="start" x="138" y="-333.3" font-family="Helvetica,Arial,sans-serif" font-size="14.00">+ property</text>
<text text-anchor="start" x="138" y="-318.3" font-family="Helvetica,Arial,sans-serif" font-size="14.00">...</text>
<polyline fill="none" stroke="black" points="130,-310.5 209,-310.5 "/>
<text text-anchor="start" x="140.5" y="-295.3" font-family="Helvetica,Arial,sans-serif" font-size="14.00">+ method</text>
<text text-anchor="start" x="140.5" y="-280.3" font-family="Helvetica,Arial,sans-serif" font-size="14.00">...</text>
</g>
<!-- Class1&#45;&gt;System_1 -->
<g id="edge5" class="edge">
<title>Class1&#45;&gt;System_1</title>
<path fill="none" stroke="black" stroke-dasharray="5,2" d="M169.5,-398.11C169.5,-389.37 169.5,-380.45 169.5,-371.94"/>
<polygon fill="none" stroke="black" points="166,-398.24 169.5,-408.24 173,-398.24 166,-398.24"/>
<text text-anchor="middle" x="122.5" y="-388.83" font-family="Helvetica,Arial,sans-serif" font-size="14.00">implementation</text>
</g>
<!-- Subsystem_1 -->
<g id="node7" class="node">
<title>Subsystem_1</title>
<polygon fill="#f2f2f2" stroke="black" points="0,-136.5 0,-235.5 101,-235.5 101,-136.5 0,-136.5"/>
<text text-anchor="start" x="8" y="-221.3" font-family="Helvetica,Arial,sans-serif" font-weight="bold" font-size="14.00">Subsystem 1</text>
<polyline fill="none" stroke="black" points="0,-212.5 101,-212.5 "/>
<text text-anchor="start" x="19" y="-197.3" font-family="Helvetica,Arial,sans-serif" font-size="14.00">+ property</text>
<text text-anchor="start" x="19" y="-182.3" font-family="Helvetica,Arial,sans-serif" font-size="14.00">...</text>
<polyline fill="none" stroke="black" points="0,-174.5 101,-174.5 "/>
<text text-anchor="start" x="21.5" y="-159.3" font-family="Helvetica,Arial,sans-serif" font-size="14.00">+ method</text>
<text text-anchor="start" x="21.5" y="-144.3" font-family="Helvetica,Arial,sans-serif" font-size="14.00">...</text>
</g>
<!-- System_1&#45;&gt;Subsystem_1 -->
<g id="edge6" class="edge">
<title>System_1&#45;&gt;Subsystem_1</title>
<path fill="none" stroke="black" stroke-dasharray="5,2" d="M121.82,-267.31C112.51,-256.82 102.79,-245.88 93.64,-235.57"/>
<polygon fill="black" stroke="black" points="121.91,-267.41 128.88,-269.24 129.87,-276.38 122.9,-274.55 121.91,-267.41"/>
<text text-anchor="middle" x="71.23" y="-255.24" font-family="Helvetica,Arial,sans-serif" font-size="14.00">composition</text>
</g>
<!-- Subsystem_2 -->
<g id="node8" class="node">
<title>Subsystem_2</title>
<polygon fill="#f2f2f2" stroke="black" points="119,-136.5 119,-235.5 220,-235.5 220,-136.5 119,-136.5"/>
<text text-anchor="start" x="127" y="-221.3" font-family="Helvetica,Arial,sans-serif" font-weight="bold" font-size="14.00">Subsystem 2</text>
<polyline fill="none" stroke="black" points="119,-212.5 220,-212.5 "/>
<text text-anchor="start" x="138" y="-197.3" font-family="Helvetica,Arial,sans-serif" font-size="14.00">+ property</text>
<text text-anchor="start" x="138" y="-182.3" font-family="Helvetica,Arial,sans-serif" font-size="14.00">...</text>
<polyline fill="none" stroke="black" points="119,-174.5 220,-174.5 "/>
<text text-anchor="start" x="140.5" y="-159.3" font-family="Helvetica,Arial,sans-serif" font-size="14.00">+ method</text>
<text text-anchor="start" x="140.5" y="-144.3" font-family="Helvetica,Arial,sans-serif" font-size="14.00">...</text>
</g>
<!-- System_1&#45;&gt;Subsystem_2 -->
<g id="edge7" class="edge">
<title>System_1&#45;&gt;Subsystem_2</title>
<path fill="none" stroke="black" stroke-dasharray="5,2" d="M169.5,-260.11C169.5,-252.02 169.5,-243.8 169.5,-235.94"/>
<polygon fill="black" stroke="black" points="169.5,-260.24 173.5,-266.24 169.5,-272.24 165.5,-266.24 169.5,-260.24"/>
</g>
<!-- Subsystem_3 -->
<g id="node9" class="node">
<title>Subsystem_3</title>
<polygon fill="#f2f2f2" stroke="black" points="238,-136.5 238,-235.5 339,-235.5 339,-136.5 238,-136.5"/>
<text text-anchor="start" x="246" y="-221.3" font-family="Helvetica,Arial,sans-serif" font-weight="bold" font-size="14.00">Subsystem 3</text>
<polyline fill="none" stroke="black" points="238,-212.5 339,-212.5 "/>
<text text-anchor="start" x="257" y="-197.3" font-family="Helvetica,Arial,sans-serif" font-size="14.00">+ property</text>
<text text-anchor="start" x="257" y="-182.3" font-family="Helvetica,Arial,sans-serif" font-size="14.00">...</text>
<polyline fill="none" stroke="black" points="238,-174.5 339,-174.5 "/>
<text text-anchor="start" x="259.5" y="-159.3" font-family="Helvetica,Arial,sans-serif" font-size="14.00">+ method</text>
<text text-anchor="start" x="259.5" y="-144.3" font-family="Helvetica,Arial,sans-serif" font-size="14.00">...</text>
</g>
<!-- System_1&#45;&gt;Subsystem_3 -->
<g id="edge8" class="edge">
<title>System_1&#45;&gt;Subsystem_3</title>
<path fill="none" stroke="black" stroke-dasharray="5,2" d="M217.18,-267.31C226.49,-256.82 236.21,-245.88 245.36,-235.57"/>
<polygon fill="black" stroke="black" points="217.09,-267.41 216.1,-274.55 209.13,-276.38 210.12,-269.24 217.09,-267.41"/>
</g>
<!-- Shared resource -->
<g id="node6" class="node">
<title>Shared resource</title>
<polygon fill="#f2f2f2" stroke="black" points="107.5,-0.5 107.5,-99.5 231.5,-99.5 231.5,-0.5 107.5,-0.5"/>
<text text-anchor="start" x="115.5" y="-85.3" font-family="Helvetica,Arial,sans-serif" font-weight="bold" font-size="14.00">Shared resource</text>
<polyline fill="none" stroke="black" points="107.5,-76.5 231.5,-76.5 "/>
<text text-anchor="start" x="138" y="-61.3" font-family="Helvetica,Arial,sans-serif" font-size="14.00">+ property</text>
<text text-anchor="start" x="138" y="-46.3" font-family="Helvetica,Arial,sans-serif" font-size="14.00">...</text>
<polyline fill="none" stroke="black" points="107.5,-38.5 231.5,-38.5 "/>
<text text-anchor="start" x="140.5" y="-23.3" font-family="Helvetica,Arial,sans-serif" font-size="14.00">+ method</text>
<text text-anchor="start" x="140.5" y="-8.3" font-family="Helvetica,Arial,sans-serif" font-size="14.00">...</text>
</g>
<!-- Subsystem_1&#45;&gt;Shared resource -->
<g id="edge9" class="edge">
<title>Subsystem_1&#45;&gt;Shared resource</title>
<path fill="none" stroke="black" stroke-dasharray="5,2" d="M101.79,-127.25C109.87,-118.15 118.15,-108.82 126.03,-99.94"/>
<polygon fill="none" stroke="black" points="101.77,-127.27 100.77,-134.41 93.8,-136.24 94.79,-129.1 101.77,-127.27"/>
<text text-anchor="middle" x="77.91" y="-117.4" font-family="Helvetica,Arial,sans-serif" font-size="14.00">aggregation</text>
</g>
<!-- Subsystem_2&#45;&gt;Shared resource -->
<g id="edge10" class="edge">
<title>Subsystem_2&#45;&gt;Shared resource</title>
<path fill="none" stroke="black" stroke-dasharray="5,2" d="M169.5,-124.11C169.5,-116.02 169.5,-107.8 169.5,-99.94"/>
<polygon fill="none" stroke="black" points="169.5,-124.24 173.5,-130.24 169.5,-136.24 165.5,-130.24 169.5,-124.24"/>
</g>
<!-- Subsystem_3&#45;&gt;Shared resource -->
<g id="edge11" class="edge">
<title>Subsystem_3&#45;&gt;Shared resource</title>
<path fill="none" stroke="black" stroke-dasharray="5,2" d="M237.21,-127.25C229.13,-118.15 220.85,-108.82 212.97,-99.94"/>
<polygon fill="none" stroke="black" points="237.23,-127.27 244.21,-129.1 245.2,-136.24 238.23,-134.41 237.23,-127.27"/>
</g>
</g>
</svg>
