<?xml version="1.0" encoding="UTF-8" standalone="no"?>
<!DOCTYPE svg PUBLIC "-//W3C//DTD SVG 1.1//EN"
 "http://www.w3.org/Graphics/SVG/1.1/DTD/svg11.dtd">
<!-- Generated by graphviz version 2.43.0 (0)
 -->
<!-- Title: unix Pages: 1 -->
<svg width="991pt" height="764pt"
 viewBox="0.00 0.00 991.19 764.00" xmlns="http://www.w3.org/2000/svg" xmlns:xlink="http://www.w3.org/1999/xlink">
<g id="graph0" class="graph" transform="scale(1 1) rotate(0) translate(4 760)">
<title>unix</title>
<polygon fill="white" stroke="transparent" points="-4,4 -4,-760 987.19,-760 987.19,4 -4,4"/>
<!-- 5th Edition -->
<g id="node1" class="node">
<title>5th Edition</title>
<ellipse fill="#b2dfee" stroke="#b2dfee" cx="521.25" cy="-738" rx="51.99" ry="18"/>
<text text-anchor="middle" x="521.25" y="-734.3" font-family="Helvetica,Arial,sans-serif" font-size="14.00">5th Edition</text>
</g>
<!-- 6th Edition -->
<g id="node2" class="node">
<title>6th Edition</title>
<ellipse fill="#b2dfee" stroke="#b2dfee" cx="425.25" cy="-666" rx="51.99" ry="18"/>
<text text-anchor="middle" x="425.25" y="-662.3" font-family="Helvetica,Arial,sans-serif" font-size="14.00">6th Edition</text>
</g>
<!-- 5th Edition&#45;&gt;6th Edition -->
<g id="edge1" class="edge">
<title>5th Edition&#45;&gt;6th Edition</title>
<path fill="none" stroke="black" d="M499.94,-721.46C486.64,-711.77 469.34,-699.15 454.73,-688.5"/>
<polygon fill="black" stroke="black" points="456.64,-685.56 446.49,-682.49 452.51,-691.21 456.64,-685.56"/>
</g>
<!-- PWB 1.0 -->
<g id="node3" class="node">
<title>PWB 1.0</title>
<ellipse fill="#b2dfee" stroke="#b2dfee" cx="679.25" cy="-666" rx="45.49" ry="18"/>
<text text-anchor="middle" x="679.25" y="-662.3" font-family="Helvetica,Arial,sans-serif" font-size="14.00">PWB 1.0</text>
</g>
<!-- 5th Edition&#45;&gt;PWB 1.0 -->
<g id="edge2" class="edge">
<title>5th Edition&#45;&gt;PWB 1.0</title>
<path fill="none" stroke="black" d="M552.09,-723.34C577.47,-712.09 613.59,-696.09 640.85,-684.01"/>
<polygon fill="black" stroke="black" points="642.36,-687.17 650.09,-679.92 639.53,-680.77 642.36,-687.17"/>
</g>
<!-- LSX -->
<g id="node4" class="node">
<title>LSX</title>
<ellipse fill="#b2dfee" stroke="#b2dfee" cx="588.25" cy="-594" rx="27.1" ry="18"/>
<text text-anchor="middle" x="588.25" y="-590.3" font-family="Helvetica,Arial,sans-serif" font-size="14.00">LSX</text>
</g>
<!-- 6th Edition&#45;&gt;LSX -->
<g id="edge3" class="edge">
<title>6th Edition&#45;&gt;LSX</title>
<path fill="none" stroke="black" d="M457.79,-651.9C483.55,-641.41 520.37,-626.17 552.25,-612 553.85,-611.29 555.5,-610.55 557.15,-609.79"/>
<polygon fill="black" stroke="black" points="559.01,-612.79 566.62,-605.41 556.07,-606.43 559.01,-612.79"/>
</g>
<!-- 1 BSD -->
<g id="node5" class="node">
<title>1 BSD</title>
<ellipse fill="#b2dfee" stroke="#b2dfee" cx="120.25" cy="-594" rx="36.29" ry="18"/>
<text text-anchor="middle" x="120.25" y="-590.3" font-family="Helvetica,Arial,sans-serif" font-size="14.00">1 BSD</text>
</g>
<!-- 6th Edition&#45;&gt;1 BSD -->
<g id="edge4" class="edge">
<title>6th Edition&#45;&gt;1 BSD</title>
<path fill="none" stroke="black" d="M383.16,-655.34C325.04,-642 220.81,-618.08 162.57,-604.71"/>
<polygon fill="black" stroke="black" points="163.12,-601.25 152.59,-602.42 161.56,-608.07 163.12,-601.25"/>
</g>
<!-- Mini Unix -->
<g id="node6" class="node">
<title>Mini Unix</title>
<ellipse fill="#b2dfee" stroke="#b2dfee" cx="363.25" cy="-594" rx="47.39" ry="18"/>
<text text-anchor="middle" x="363.25" y="-590.3" font-family="Helvetica,Arial,sans-serif" font-size="14.00">Mini Unix</text>
</g>
<!-- 6th Edition&#45;&gt;Mini Unix -->
<g id="edge5" class="edge">
<title>6th Edition&#45;&gt;Mini Unix</title>
<path fill="none" stroke="black" d="M410.55,-648.41C402.83,-639.69 393.22,-628.85 384.69,-619.21"/>
<polygon fill="black" stroke="black" points="387.09,-616.64 377.84,-611.47 381.85,-621.28 387.09,-616.64"/>
</g>
<!-- Wollongong -->
<g id="node7" class="node">
<title>Wollongong</title>
<ellipse fill="#b2dfee" stroke="#b2dfee" cx="486.25" cy="-594" rx="57.39" ry="18"/>
<text text-anchor="middle" x="486.25" y="-590.3" font-family="Helvetica,Arial,sans-serif" font-size="14.00">Wollongong</text>
</g>
<!-- 6th Edition&#45;&gt;Wollongong -->
<g id="edge6" class="edge">
<title>6th Edition&#45;&gt;Wollongong</title>
<path fill="none" stroke="black" d="M439.7,-648.41C447.3,-639.69 456.75,-628.85 465.15,-619.21"/>
<polygon fill="black" stroke="black" points="467.96,-621.31 471.9,-611.47 462.69,-616.71 467.96,-621.31"/>
</g>
<!-- Interdata -->
<g id="node8" class="node">
<title>Interdata</title>
<ellipse fill="#b2dfee" stroke="#b2dfee" cx="252.25" cy="-594" rx="45.49" ry="18"/>
<text text-anchor="middle" x="252.25" y="-590.3" font-family="Helvetica,Arial,sans-serif" font-size="14.00">Interdata</text>
</g>
<!-- 6th Edition&#45;&gt;Interdata -->
<g id="edge7" class="edge">
<title>6th Edition&#45;&gt;Interdata</title>
<path fill="none" stroke="black" d="M392.71,-651.83C364.27,-640.33 322.87,-623.58 292.38,-611.24"/>
<polygon fill="black" stroke="black" points="293.48,-607.91 282.9,-607.4 290.86,-614.4 293.48,-607.91"/>
</g>
<!-- PWB 1.2 -->
<g id="node28" class="node">
<title>PWB 1.2</title>
<ellipse fill="#b2dfee" stroke="#b2dfee" cx="679.25" cy="-594" rx="45.49" ry="18"/>
<text text-anchor="middle" x="679.25" y="-590.3" font-family="Helvetica,Arial,sans-serif" font-size="14.00">PWB 1.2</text>
</g>
<!-- PWB 1.0&#45;&gt;PWB 1.2 -->
<g id="edge31" class="edge">
<title>PWB 1.0&#45;&gt;PWB 1.2</title>
<path fill="none" stroke="black" d="M679.25,-647.7C679.25,-639.98 679.25,-630.71 679.25,-622.11"/>
<polygon fill="black" stroke="black" points="682.75,-622.1 679.25,-612.1 675.75,-622.1 682.75,-622.1"/>
</g>
<!-- USG 1.0 -->
<g id="node29" class="node">
<title>USG 1.0</title>
<ellipse fill="#b2dfee" stroke="#b2dfee" cx="787.25" cy="-594" rx="44.69" ry="18"/>
<text text-anchor="middle" x="787.25" y="-590.3" font-family="Helvetica,Arial,sans-serif" font-size="14.00">USG 1.0</text>
</g>
<!-- PWB 1.0&#45;&gt;USG 1.0 -->
<g id="edge32" class="edge">
<title>PWB 1.0&#45;&gt;USG 1.0</title>
<path fill="none" stroke="black" d="M701.89,-650.33C717.58,-640.15 738.69,-626.47 755.99,-615.26"/>
<polygon fill="black" stroke="black" points="758.15,-618.03 764.64,-609.65 754.34,-612.16 758.15,-618.03"/>
</g>
<!-- 2 BSD -->
<g id="node19" class="node">
<title>2 BSD</title>
<ellipse fill="#b2dfee" stroke="#b2dfee" cx="76.25" cy="-234" rx="36.29" ry="18"/>
<text text-anchor="middle" x="76.25" y="-230.3" font-family="Helvetica,Arial,sans-serif" font-size="14.00">2 BSD</text>
</g>
<!-- 1 BSD&#45;&gt;2 BSD -->
<g id="edge19" class="edge">
<title>1 BSD&#45;&gt;2 BSD</title>
<path fill="none" stroke="black" d="M114.12,-576.21C105.09,-549.9 89.25,-497.18 89.25,-451 89.25,-451 89.25,-451 89.25,-377 89.25,-336.83 84.02,-290.53 80.2,-262.01"/>
<polygon fill="black" stroke="black" points="83.65,-261.43 78.82,-252 76.72,-262.39 83.65,-261.43"/>
</g>
<!-- Unix/TS 3.0 -->
<g id="node9" class="node">
<title>Unix/TS 3.0</title>
<ellipse fill="#b2dfee" stroke="#b2dfee" cx="610.25" cy="-378" rx="57.39" ry="18"/>
<text text-anchor="middle" x="610.25" y="-374.3" font-family="Helvetica,Arial,sans-serif" font-size="14.00">Unix/TS 3.0</text>
</g>
<!-- Interdata&#45;&gt;Unix/TS 3.0 -->
<g id="edge8" class="edge">
<title>Interdata&#45;&gt;Unix/TS 3.0</title>
<path fill="none" stroke="black" d="M276.29,-578.63C338.38,-541.51 504.25,-442.36 576.18,-399.36"/>
<polygon fill="black" stroke="black" points="578.09,-402.3 584.88,-394.16 574.5,-396.29 578.09,-402.3"/>
</g>
<!-- PWB 2.0 -->
<g id="node10" class="node">
<title>PWB 2.0</title>
<ellipse fill="#b2dfee" stroke="#b2dfee" cx="554.25" cy="-522" rx="45.49" ry="18"/>
<text text-anchor="middle" x="554.25" y="-518.3" font-family="Helvetica,Arial,sans-serif" font-size="14.00">PWB 2.0</text>
</g>
<!-- Interdata&#45;&gt;PWB 2.0 -->
<g id="edge9" class="edge">
<title>Interdata&#45;&gt;PWB 2.0</title>
<path fill="none" stroke="black" d="M286.12,-581.89C293.07,-579.79 300.36,-577.72 307.25,-576 389.79,-555.41 412.51,-559.8 495.25,-540 499.93,-538.88 504.79,-537.63 509.62,-536.32"/>
<polygon fill="black" stroke="black" points="510.74,-539.64 519.45,-533.6 508.87,-532.9 510.74,-539.64"/>
</g>
<!-- 7th Edition -->
<g id="node11" class="node">
<title>7th Edition</title>
<ellipse fill="#b2dfee" stroke="#b2dfee" cx="252.25" cy="-522" rx="51.99" ry="18"/>
<text text-anchor="middle" x="252.25" y="-518.3" font-family="Helvetica,Arial,sans-serif" font-size="14.00">7th Edition</text>
</g>
<!-- Interdata&#45;&gt;7th Edition -->
<g id="edge10" class="edge">
<title>Interdata&#45;&gt;7th Edition</title>
<path fill="none" stroke="black" d="M252.25,-575.7C252.25,-567.98 252.25,-558.71 252.25,-550.11"/>
<polygon fill="black" stroke="black" points="255.75,-550.1 252.25,-540.1 248.75,-550.1 255.75,-550.1"/>
</g>
<!-- TS 4.0 -->
<g id="node38" class="node">
<title>TS 4.0</title>
<ellipse fill="#b2dfee" stroke="#b2dfee" cx="697.25" cy="-234" rx="36.29" ry="18"/>
<text text-anchor="middle" x="697.25" y="-230.3" font-family="Helvetica,Arial,sans-serif" font-size="14.00">TS 4.0</text>
</g>
<!-- Unix/TS 3.0&#45;&gt;TS 4.0 -->
<g id="edge44" class="edge">
<title>Unix/TS 3.0&#45;&gt;TS 4.0</title>
<path fill="none" stroke="black" d="M620.57,-360.15C635.76,-335.36 664.24,-288.88 681.89,-260.07"/>
<polygon fill="black" stroke="black" points="684.97,-261.74 687.21,-251.39 679,-258.09 684.97,-261.74"/>
</g>
<!-- PWB 2.0&#45;&gt;Unix/TS 3.0 -->
<g id="edge42" class="edge">
<title>PWB 2.0&#45;&gt;Unix/TS 3.0</title>
<path fill="none" stroke="black" d="M550.93,-503.79C548.19,-485.24 546.18,-455.26 556.25,-432 561.34,-420.23 570.41,-409.72 579.68,-401.24"/>
<polygon fill="black" stroke="black" points="582.11,-403.76 587.42,-394.59 577.55,-398.45 582.11,-403.76"/>
</g>
<!-- 8th Edition -->
<g id="node12" class="node">
<title>8th Edition</title>
<ellipse fill="#b2dfee" stroke="#b2dfee" cx="454.25" cy="-162" rx="51.99" ry="18"/>
<text text-anchor="middle" x="454.25" y="-158.3" font-family="Helvetica,Arial,sans-serif" font-size="14.00">8th Edition</text>
</g>
<!-- 7th Edition&#45;&gt;8th Edition -->
<g id="edge11" class="edge">
<title>7th Edition&#45;&gt;8th Edition</title>
<path fill="none" stroke="black" d="M296.63,-512.62C341.63,-503.24 407,-486.84 424.25,-468 451.55,-438.16 443.25,-419.45 443.25,-379 443.25,-379 443.25,-379 443.25,-305 443.25,-264.88 447.67,-218.57 450.9,-190.03"/>
<polygon fill="black" stroke="black" points="454.39,-190.36 452.07,-180.02 447.44,-189.54 454.39,-190.36"/>
</g>
<!-- 32V -->
<g id="node13" class="node">
<title>32V</title>
<ellipse fill="#b2dfee" stroke="#b2dfee" cx="388.25" cy="-450" rx="27" ry="18"/>
<text text-anchor="middle" x="388.25" y="-446.3" font-family="Helvetica,Arial,sans-serif" font-size="14.00">32V</text>
</g>
<!-- 7th Edition&#45;&gt;32V -->
<g id="edge12" class="edge">
<title>7th Edition&#45;&gt;32V</title>
<path fill="none" stroke="black" d="M280.1,-506.67C302.91,-494.92 335.12,-478.35 358.44,-466.34"/>
<polygon fill="black" stroke="black" points="360.24,-469.35 367.53,-461.66 357.04,-463.13 360.24,-469.35"/>
</g>
<!-- V7M -->
<g id="node14" class="node">
<title>V7M</title>
<ellipse fill="#b2dfee" stroke="#b2dfee" cx="29.25" cy="-378" rx="29.5" ry="18"/>
<text text-anchor="middle" x="29.25" y="-374.3" font-family="Helvetica,Arial,sans-serif" font-size="14.00">V7M</text>
</g>
<!-- 7th Edition&#45;&gt;V7M -->
<g id="edge13" class="edge">
<title>7th Edition&#45;&gt;V7M</title>
<path fill="none" stroke="black" d="M215.31,-509.26C189.27,-500.11 154.21,-485.94 126.25,-468 97,-449.24 68.27,-421.37 49.77,-401.83"/>
<polygon fill="black" stroke="black" points="52.11,-399.2 42.73,-394.27 46.99,-403.97 52.11,-399.2"/>
</g>
<!-- Ultrix&#45;11 -->
<g id="node15" class="node">
<title>Ultrix&#45;11</title>
<ellipse fill="#b2dfee" stroke="#b2dfee" cx="108.25" cy="-90" rx="42.79" ry="18"/>
<text text-anchor="middle" x="108.25" y="-86.3" font-family="Helvetica,Arial,sans-serif" font-size="14.00">Ultrix&#45;11</text>
</g>
<!-- 7th Edition&#45;&gt;Ultrix&#45;11 -->
<g id="edge14" class="edge">
<title>7th Edition&#45;&gt;Ultrix&#45;11</title>
<path fill="none" stroke="black" d="M216.28,-508.9C196.54,-500.45 173.29,-487.2 159.25,-468 135.37,-435.36 140.25,-419.45 140.25,-379 140.25,-379 140.25,-379 140.25,-233 140.25,-192.04 127.42,-146.02 118.01,-117.77"/>
<polygon fill="black" stroke="black" points="121.28,-116.53 114.72,-108.21 114.66,-118.8 121.28,-116.53"/>
</g>
<!-- Xenix -->
<g id="node16" class="node">
<title>Xenix</title>
<ellipse fill="#b2dfee" stroke="#b2dfee" cx="200.25" cy="-450" rx="32.49" ry="18"/>
<text text-anchor="middle" x="200.25" y="-446.3" font-family="Helvetica,Arial,sans-serif" font-size="14.00">Xenix</text>
</g>
<!-- 7th Edition&#45;&gt;Xenix -->
<g id="edge15" class="edge">
<title>7th Edition&#45;&gt;Xenix</title>
<path fill="none" stroke="black" d="M239.92,-504.41C233.42,-495.66 225.32,-484.75 218.14,-475.08"/>
<polygon fill="black" stroke="black" points="220.9,-472.93 212.12,-466.99 215.28,-477.1 220.9,-472.93"/>
</g>
<!-- UniPlus+ -->
<g id="node17" class="node">
<title>UniPlus+</title>
<ellipse fill="#b2dfee" stroke="#b2dfee" cx="297.25" cy="-450" rx="46.29" ry="18"/>
<text text-anchor="middle" x="297.25" y="-446.3" font-family="Helvetica,Arial,sans-serif" font-size="14.00">UniPlus+</text>
</g>
<!-- 7th Edition&#45;&gt;UniPlus+ -->
<g id="edge16" class="edge">
<title>7th Edition&#45;&gt;UniPlus+</title>
<path fill="none" stroke="black" d="M263.14,-504.05C268.5,-495.71 275.07,-485.49 281.01,-476.25"/>
<polygon fill="black" stroke="black" points="283.99,-478.09 286.45,-467.79 278.1,-474.31 283.99,-478.09"/>
</g>
<!-- 9th Edition -->
<g id="node18" class="node">
<title>9th Edition</title>
<ellipse fill="#b2dfee" stroke="#b2dfee" cx="534.25" cy="-90" rx="51.99" ry="18"/>
<text text-anchor="middle" x="534.25" y="-86.3" font-family="Helvetica,Arial,sans-serif" font-size="14.00">9th Edition</text>
</g>
<!-- 8th Edition&#45;&gt;9th Edition -->
<g id="edge18" class="edge">
<title>8th Edition&#45;&gt;9th Edition</title>
<path fill="none" stroke="black" d="M472.4,-145.12C482.96,-135.87 496.46,-124.07 508.15,-113.84"/>
<polygon fill="black" stroke="black" points="510.67,-116.28 515.89,-107.06 506.06,-111.01 510.67,-116.28"/>
</g>
<!-- 3 BSD -->
<g id="node22" class="node">
<title>3 BSD</title>
<ellipse fill="#b2dfee" stroke="#b2dfee" cx="375.25" cy="-378" rx="36.29" ry="18"/>
<text text-anchor="middle" x="375.25" y="-374.3" font-family="Helvetica,Arial,sans-serif" font-size="14.00">3 BSD</text>
</g>
<!-- 32V&#45;&gt;3 BSD -->
<g id="edge23" class="edge">
<title>32V&#45;&gt;3 BSD</title>
<path fill="none" stroke="black" d="M385.1,-432.05C383.67,-424.35 381.94,-415.03 380.33,-406.36"/>
<polygon fill="black" stroke="black" points="383.72,-405.47 378.46,-396.28 376.84,-406.75 383.72,-405.47"/>
</g>
<!-- V7M&#45;&gt;Ultrix&#45;11 -->
<g id="edge17" class="edge">
<title>V7M&#45;&gt;Ultrix&#45;11</title>
<path fill="none" stroke="black" d="M26.5,-359.64C22.39,-329.64 16.61,-266.47 31.25,-216 42.42,-177.46 68.98,-139.05 87.76,-115.18"/>
<polygon fill="black" stroke="black" points="90.51,-117.35 94.05,-107.37 85.05,-112.97 90.51,-117.35"/>
</g>
<!-- 2.8 BSD -->
<g id="node20" class="node">
<title>2.8 BSD</title>
<ellipse fill="#b2dfee" stroke="#b2dfee" cx="212.25" cy="-162" rx="43.59" ry="18"/>
<text text-anchor="middle" x="212.25" y="-158.3" font-family="Helvetica,Arial,sans-serif" font-size="14.00">2.8 BSD</text>
</g>
<!-- 2 BSD&#45;&gt;2.8 BSD -->
<g id="edge20" class="edge">
<title>2 BSD&#45;&gt;2.8 BSD</title>
<path fill="none" stroke="black" d="M100.56,-220.49C121.74,-209.58 152.72,-193.64 176.69,-181.3"/>
<polygon fill="black" stroke="black" points="178.53,-184.29 185.82,-176.6 175.33,-178.07 178.53,-184.29"/>
</g>
<!-- 2.8 BSD&#45;&gt;Ultrix&#45;11 -->
<g id="edge21" class="edge">
<title>2.8 BSD&#45;&gt;Ultrix&#45;11</title>
<path fill="none" stroke="black" d="M190.45,-146.33C175.33,-136.15 155.01,-122.47 138.35,-111.26"/>
<polygon fill="black" stroke="black" points="140.27,-108.34 130.02,-105.65 136.36,-114.14 140.27,-108.34"/>
</g>
<!-- 2.9 BSD -->
<g id="node21" class="node">
<title>2.9 BSD</title>
<ellipse fill="#b2dfee" stroke="#b2dfee" cx="212.25" cy="-90" rx="43.59" ry="18"/>
<text text-anchor="middle" x="212.25" y="-86.3" font-family="Helvetica,Arial,sans-serif" font-size="14.00">2.9 BSD</text>
</g>
<!-- 2.8 BSD&#45;&gt;2.9 BSD -->
<g id="edge22" class="edge">
<title>2.8 BSD&#45;&gt;2.9 BSD</title>
<path fill="none" stroke="black" d="M212.25,-143.7C212.25,-135.98 212.25,-126.71 212.25,-118.11"/>
<polygon fill="black" stroke="black" points="215.75,-118.1 212.25,-108.1 208.75,-118.1 215.75,-118.1"/>
</g>
<!-- 4 BSD -->
<g id="node23" class="node">
<title>4 BSD</title>
<ellipse fill="#b2dfee" stroke="#b2dfee" cx="363.25" cy="-306" rx="36.29" ry="18"/>
<text text-anchor="middle" x="363.25" y="-302.3" font-family="Helvetica,Arial,sans-serif" font-size="14.00">4 BSD</text>
</g>
<!-- 3 BSD&#45;&gt;4 BSD -->
<g id="edge24" class="edge">
<title>3 BSD&#45;&gt;4 BSD</title>
<path fill="none" stroke="black" d="M372.34,-360.05C371.02,-352.35 369.42,-343.03 367.94,-334.36"/>
<polygon fill="black" stroke="black" points="371.35,-333.54 366.21,-324.28 364.45,-334.72 371.35,-333.54"/>
</g>
<!-- 4.1 BSD -->
<g id="node24" class="node">
<title>4.1 BSD</title>
<ellipse fill="#b2dfee" stroke="#b2dfee" cx="361.25" cy="-234" rx="43.59" ry="18"/>
<text text-anchor="middle" x="361.25" y="-230.3" font-family="Helvetica,Arial,sans-serif" font-size="14.00">4.1 BSD</text>
</g>
<!-- 4 BSD&#45;&gt;4.1 BSD -->
<g id="edge25" class="edge">
<title>4 BSD&#45;&gt;4.1 BSD</title>
<path fill="none" stroke="black" d="M362.75,-287.7C362.53,-279.98 362.27,-270.71 362.02,-262.11"/>
<polygon fill="black" stroke="black" points="365.52,-262 361.74,-252.1 358.52,-262.2 365.52,-262"/>
</g>
<!-- 4.1 BSD&#45;&gt;8th Edition -->
<g id="edge28" class="edge">
<title>4.1 BSD&#45;&gt;8th Edition</title>
<path fill="none" stroke="black" d="M381.43,-217.81C394.29,-208.13 411.16,-195.43 425.42,-184.7"/>
<polygon fill="black" stroke="black" points="427.58,-187.45 433.46,-178.64 423.37,-181.86 427.58,-187.45"/>
</g>
<!-- 4.1 BSD&#45;&gt;2.8 BSD -->
<g id="edge27" class="edge">
<title>4.1 BSD&#45;&gt;2.8 BSD</title>
<path fill="none" stroke="black" d="M333.57,-220C309.81,-208.83 275.36,-192.65 249.24,-180.38"/>
<polygon fill="black" stroke="black" points="250.57,-177.14 240.03,-176.05 247.59,-183.47 250.57,-177.14"/>
</g>
<!-- 4.2 BSD -->
<g id="node25" class="node">
<title>4.2 BSD</title>
<ellipse fill="#b2dfee" stroke="#b2dfee" cx="340.25" cy="-162" rx="43.59" ry="18"/>
<text text-anchor="middle" x="340.25" y="-158.3" font-family="Helvetica,Arial,sans-serif" font-size="14.00">4.2 BSD</text>
</g>
<!-- 4.1 BSD&#45;&gt;4.2 BSD -->
<g id="edge26" class="edge">
<title>4.1 BSD&#45;&gt;4.2 BSD</title>
<path fill="none" stroke="black" d="M356.16,-216.05C353.83,-208.26 350.99,-198.82 348.37,-190.08"/>
<polygon fill="black" stroke="black" points="351.66,-188.85 345.43,-180.28 344.95,-190.86 351.66,-188.85"/>
</g>
<!-- 4.3 BSD -->
<g id="node26" class="node">
<title>4.3 BSD</title>
<ellipse fill="#b2dfee" stroke="#b2dfee" cx="420.25" cy="-90" rx="43.59" ry="18"/>
<text text-anchor="middle" x="420.25" y="-86.3" font-family="Helvetica,Arial,sans-serif" font-size="14.00">4.3 BSD</text>
</g>
<!-- 4.2 BSD&#45;&gt;4.3 BSD -->
<g id="edge29" class="edge">
<title>4.2 BSD&#45;&gt;4.3 BSD</title>
<path fill="none" stroke="black" d="M358,-145.46C368.88,-135.95 382.97,-123.62 394.99,-113.1"/>
<polygon fill="black" stroke="black" points="397.32,-115.71 402.54,-106.49 392.71,-110.44 397.32,-115.71"/>
</g>
<!-- Ultrix&#45;32 -->
<g id="node27" class="node">
<title>Ultrix&#45;32</title>
<ellipse fill="#b2dfee" stroke="#b2dfee" cx="316.25" cy="-90" rx="42.79" ry="18"/>
<text text-anchor="middle" x="316.25" y="-86.3" font-family="Helvetica,Arial,sans-serif" font-size="14.00">Ultrix&#45;32</text>
</g>
<!-- 4.2 BSD&#45;&gt;Ultrix&#45;32 -->
<g id="edge30" class="edge">
<title>4.2 BSD&#45;&gt;Ultrix&#45;32</title>
<path fill="none" stroke="black" d="M334.44,-144.05C331.74,-136.18 328.46,-126.62 325.43,-117.79"/>
<polygon fill="black" stroke="black" points="328.72,-116.6 322.17,-108.28 322.1,-118.87 328.72,-116.6"/>
</g>
<!-- PWB 1.2&#45;&gt;PWB 2.0 -->
<g id="edge33" class="edge">
<title>PWB 1.2&#45;&gt;PWB 2.0</title>
<path fill="none" stroke="black" d="M653.95,-578.83C635.06,-568.26 609.04,-553.68 588.32,-542.08"/>
<polygon fill="black" stroke="black" points="589.94,-538.98 579.51,-537.14 586.52,-545.08 589.94,-538.98"/>
</g>
<!-- CB Unix 1 -->
<g id="node30" class="node">
<title>CB Unix 1</title>
<ellipse fill="#b2dfee" stroke="#b2dfee" cx="817.25" cy="-522" rx="50.09" ry="18"/>
<text text-anchor="middle" x="817.25" y="-518.3" font-family="Helvetica,Arial,sans-serif" font-size="14.00">CB Unix 1</text>
</g>
<!-- USG 1.0&#45;&gt;CB Unix 1 -->
<g id="edge34" class="edge">
<title>USG 1.0&#45;&gt;CB Unix 1</title>
<path fill="none" stroke="black" d="M794.51,-576.05C797.92,-568.09 802.07,-558.41 805.89,-549.51"/>
<polygon fill="black" stroke="black" points="809.12,-550.85 809.84,-540.28 802.69,-548.09 809.12,-550.85"/>
</g>
<!-- USG 2.0 -->
<g id="node31" class="node">
<title>USG 2.0</title>
<ellipse fill="#b2dfee" stroke="#b2dfee" cx="690.25" cy="-522" rx="44.69" ry="18"/>
<text text-anchor="middle" x="690.25" y="-518.3" font-family="Helvetica,Arial,sans-serif" font-size="14.00">USG 2.0</text>
</g>
<!-- USG 1.0&#45;&gt;USG 2.0 -->
<g id="edge35" class="edge">
<title>USG 1.0&#45;&gt;USG 2.0</title>
<path fill="none" stroke="black" d="M766.2,-577.81C752.6,-568 734.7,-555.08 719.7,-544.25"/>
<polygon fill="black" stroke="black" points="721.41,-541.17 711.25,-538.16 717.31,-546.85 721.41,-541.17"/>
</g>
<!-- CB Unix 2 -->
<g id="node32" class="node">
<title>CB Unix 2</title>
<ellipse fill="#b2dfee" stroke="#b2dfee" cx="855.25" cy="-450" rx="50.09" ry="18"/>
<text text-anchor="middle" x="855.25" y="-446.3" font-family="Helvetica,Arial,sans-serif" font-size="14.00">CB Unix 2</text>
</g>
<!-- CB Unix 1&#45;&gt;CB Unix 2 -->
<g id="edge36" class="edge">
<title>CB Unix 1&#45;&gt;CB Unix 2</title>
<path fill="none" stroke="black" d="M826.45,-504.05C830.88,-495.89 836.3,-485.91 841.23,-476.82"/>
<polygon fill="black" stroke="black" points="844.44,-478.25 846.13,-467.79 838.29,-474.91 844.44,-478.25"/>
</g>
<!-- USG 3.0 -->
<g id="node36" class="node">
<title>USG 3.0</title>
<ellipse fill="#b2dfee" stroke="#b2dfee" cx="610.25" cy="-450" rx="44.69" ry="18"/>
<text text-anchor="middle" x="610.25" y="-446.3" font-family="Helvetica,Arial,sans-serif" font-size="14.00">USG 3.0</text>
</g>
<!-- USG 2.0&#45;&gt;USG 3.0 -->
<g id="edge40" class="edge">
<title>USG 2.0&#45;&gt;USG 3.0</title>
<path fill="none" stroke="black" d="M672.49,-505.46C661.8,-496.11 647.99,-484.02 636.09,-473.62"/>
<polygon fill="black" stroke="black" points="638.06,-470.68 628.23,-466.73 633.45,-475.95 638.06,-470.68"/>
</g>
<!-- CB Unix 3 -->
<g id="node33" class="node">
<title>CB Unix 3</title>
<ellipse fill="#b2dfee" stroke="#b2dfee" cx="795.25" cy="-378" rx="50.09" ry="18"/>
<text text-anchor="middle" x="795.25" y="-374.3" font-family="Helvetica,Arial,sans-serif" font-size="14.00">CB Unix 3</text>
</g>
<!-- CB Unix 2&#45;&gt;CB Unix 3 -->
<g id="edge37" class="edge">
<title>CB Unix 2&#45;&gt;CB Unix 3</title>
<path fill="none" stroke="black" d="M841.03,-432.41C833.56,-423.69 824.26,-412.85 816,-403.21"/>
<polygon fill="black" stroke="black" points="818.53,-400.78 809.36,-395.47 813.22,-405.34 818.53,-400.78"/>
</g>
<!-- Unix/TS++ -->
<g id="node34" class="node">
<title>Unix/TS++</title>
<ellipse fill="#b2dfee" stroke="#b2dfee" cx="778.25" cy="-306" rx="53.09" ry="18"/>
<text text-anchor="middle" x="778.25" y="-302.3" font-family="Helvetica,Arial,sans-serif" font-size="14.00">Unix/TS++</text>
</g>
<!-- CB Unix 3&#45;&gt;Unix/TS++ -->
<g id="edge38" class="edge">
<title>CB Unix 3&#45;&gt;Unix/TS++</title>
<path fill="none" stroke="black" d="M791.13,-360.05C789.24,-352.26 786.95,-342.82 784.82,-334.08"/>
<polygon fill="black" stroke="black" points="788.2,-333.17 782.44,-324.28 781.4,-334.82 788.2,-333.17"/>
</g>
<!-- PDP&#45;11 Sys V -->
<g id="node35" class="node">
<title>PDP&#45;11 Sys V</title>
<ellipse fill="#b2dfee" stroke="#b2dfee" cx="916.25" cy="-306" rx="66.89" ry="18"/>
<text text-anchor="middle" x="916.25" y="-302.3" font-family="Helvetica,Arial,sans-serif" font-size="14.00">PDP&#45;11 Sys V</text>
</g>
<!-- CB Unix 3&#45;&gt;PDP&#45;11 Sys V -->
<g id="edge39" class="edge">
<title>CB Unix 3&#45;&gt;PDP&#45;11 Sys V</title>
<path fill="none" stroke="black" d="M820.61,-362.33C837.96,-352.29 861.21,-338.84 880.44,-327.71"/>
<polygon fill="black" stroke="black" points="882.33,-330.66 889.24,-322.63 878.83,-324.61 882.33,-330.66"/>
</g>
<!-- CB Unix 3&#45;&gt;TS 4.0 -->
<g id="edge46" class="edge">
<title>CB Unix 3&#45;&gt;TS 4.0</title>
<path fill="none" stroke="black" d="M764.64,-363.63C747.85,-354.76 728.1,-341.51 716.25,-324 703.9,-305.76 699.37,-280.99 697.8,-262.21"/>
<polygon fill="black" stroke="black" points="701.29,-261.98 697.19,-252.21 694.3,-262.41 701.29,-261.98"/>
</g>
<!-- Unix/TS++&#45;&gt;TS 4.0 -->
<g id="edge45" class="edge">
<title>Unix/TS++&#45;&gt;TS 4.0</title>
<path fill="none" stroke="black" d="M759.46,-288.76C748.45,-279.25 734.4,-267.1 722.43,-256.77"/>
<polygon fill="black" stroke="black" points="724.4,-253.84 714.55,-249.95 719.83,-259.14 724.4,-253.84"/>
</g>
<!-- USG 3.0&#45;&gt;Unix/TS 3.0 -->
<g id="edge41" class="edge">
<title>USG 3.0&#45;&gt;Unix/TS 3.0</title>
<path fill="none" stroke="black" d="M610.25,-431.7C610.25,-423.98 610.25,-414.71 610.25,-406.11"/>
<polygon fill="black" stroke="black" points="613.75,-406.1 610.25,-396.1 606.75,-406.1 613.75,-406.1"/>
</g>
<!-- Unix/TS 1.0 -->
<g id="node37" class="node">
<title>Unix/TS 1.0</title>
<ellipse fill="#b2dfee" stroke="#b2dfee" cx="730.25" cy="-450" rx="57.39" ry="18"/>
<text text-anchor="middle" x="730.25" y="-446.3" font-family="Helvetica,Arial,sans-serif" font-size="14.00">Unix/TS 1.0</text>
</g>
<!-- Unix/TS 1.0&#45;&gt;Unix/TS 3.0 -->
<g id="edge43" class="edge">
<title>Unix/TS 1.0&#45;&gt;Unix/TS 3.0</title>
<path fill="none" stroke="black" d="M704.21,-433.81C686.83,-423.67 663.79,-410.23 644.87,-399.2"/>
<polygon fill="black" stroke="black" points="646.64,-396.17 636.23,-394.16 643.11,-402.22 646.64,-396.17"/>
</g>
<!-- System V.0 -->
<g id="node39" class="node">
<title>System V.0</title>
<ellipse fill="#b2dfee" stroke="#b2dfee" cx="697.25" cy="-162" rx="55.79" ry="18"/>
<text text-anchor="middle" x="697.25" y="-158.3" font-family="Helvetica,Arial,sans-serif" font-size="14.00">System V.0</text>
</g>
<!-- TS 4.0&#45;&gt;System V.0 -->
<g id="edge47" class="edge">
<title>TS 4.0&#45;&gt;System V.0</title>
<path fill="none" stroke="black" d="M697.25,-215.7C697.25,-207.98 697.25,-198.71 697.25,-190.11"/>
<polygon fill="black" stroke="black" points="700.75,-190.1 697.25,-180.1 693.75,-190.1 700.75,-190.1"/>
</g>
<!-- System V.2 -->
<g id="node40" class="node">
<title>System V.2</title>
<ellipse fill="#b2dfee" stroke="#b2dfee" cx="697.25" cy="-90" rx="55.79" ry="18"/>
<text text-anchor="middle" x="697.25" y="-86.3" font-family="Helvetica,Arial,sans-serif" font-size="14.00">System V.2</text>
</g>
<!-- System V.0&#45;&gt;System V.2 -->
<g id="edge48" class="edge">
<title>System V.0&#45;&gt;System V.2</title>
<path fill="none" stroke="black" d="M697.25,-143.7C697.25,-135.98 697.25,-126.71 697.25,-118.11"/>
<polygon fill="black" stroke="black" points="700.75,-118.1 697.25,-108.1 693.75,-118.1 700.75,-118.1"/>
</g>
<!-- System V.3 -->
<g id="node41" class="node">
<title>System V.3</title>
<ellipse fill="#b2dfee" stroke="#b2dfee" cx="697.25" cy="-18" rx="55.79" ry="18"/>
<text text-anchor="middle" x="697.25" y="-14.3" font-family="Helvetica,Arial,sans-serif" font-size="14.00">System V.3</text>
</g>
<!-- System V.2&#45;&gt;System V.3 -->
<g id="edge49" class="edge">
<title>System V.2&#45;&gt;System V.3</title>
<path fill="none" stroke="black" d="M697.25,-71.7C697.25,-63.98 697.25,-54.71 697.25,-46.11"/>
<polygon fill="black" stroke="black" points="700.75,-46.1 697.25,-36.1 693.75,-46.1 700.75,-46.1"/>
</g>
</g>
</svg>
