<?xml version="1.0" encoding="UTF-8" standalone="no"?>
<!DOCTYPE svg PUBLIC "-//W3C//DTD SVG 1.0//EN"
 "http://www.w3.org/TR/2001/REC-SVG-20010904/DTD/svg10.dtd" [
 <!ATTLIST svg xmlns:xlink CDATA #FIXED "http://www.w3.org/1999/xlink">
]>
<!-- Generated by Graphviz version 2.21.0 (Wed Jul 23 15:20:11 UTC 2008)
     For user: (ellson) John Ellson -->
<!-- Title: world Pages: 1 -->
<svg width="504pt" height="281pt"
 viewBox="0.00 0.00 504.00 281.26" xmlns="http://www.w3.org/2000/svg" xmlns:xlink="http://www.w3.org/1999/xlink">
<g id="graph0" class="graph" transform="scale(0.453645 0.453645) rotate(0) translate(4 616)">
<title>world</title>
<polygon style="fill:white;stroke:white;" points="-4,4 -4,-616 1107,-616 1107,4 -4,4"/>
<!-- S8 -->
<g id="node2" class="node"><title>S8</title>
<ellipse style="fill:none;stroke:black;" cx="192" cy="-594" rx="27" ry="18"/>
<text text-anchor="middle" x="192" y="-589.9" style="font-family:Times New Roman;font-size:14.00;">S8</text>
</g>
<!-- 9 -->
<g id="node21" class="node"><title>9</title>
<ellipse style="fill:none;stroke:black;" cx="192" cy="-450" rx="27" ry="18"/>
<text text-anchor="middle" x="192" y="-445.9" style="font-family:Times New Roman;font-size:14.00;">9</text>
</g>
<!-- S8&#45;&gt;9 -->
<g id="edge11" class="edge"><title>S8&#45;&gt;9</title>
<path style="fill:none;stroke:black;" d="M192,-576C192,-551 192,-507 192,-478"/>
<polygon style="fill:black;stroke:black;" points="195.5,-478 192,-468 188.5,-478 195.5,-478"/>
</g>
<!-- S24 -->
<g id="node3" class="node"><title>S24</title>
<ellipse style="fill:none;stroke:black;" cx="50" cy="-594" rx="27.1004" ry="18"/>
<text text-anchor="middle" x="50" y="-589.9" style="font-family:Times New Roman;font-size:14.00;">S24</text>
</g>
<!-- 25 -->
<g id="node20" class="node"><title>25</title>
<ellipse style="fill:none;stroke:black;" cx="82" cy="-450" rx="27" ry="18"/>
<text text-anchor="middle" x="82" y="-445.9" style="font-family:Times New Roman;font-size:14.00;">25</text>
</g>
<!-- S24&#45;&gt;25 -->
<g id="edge13" class="edge"><title>S24&#45;&gt;25</title>
<path style="fill:none;stroke:black;" d="M54,-576C59,-551 69,-507 76,-478"/>
<polygon style="fill:black;stroke:black;" points="79.4708,-478.492 78,-468 72.6067,-477.119 79.4708,-478.492"/>
</g>
<!-- 27 -->
<g id="node47" class="node"><title>27</title>
<ellipse style="fill:none;stroke:black;" cx="27" cy="-234" rx="27" ry="18"/>
<text text-anchor="middle" x="27" y="-229.9" style="font-family:Times New Roman;font-size:14.00;">27</text>
</g>
<!-- S24&#45;&gt;27 -->
<g id="edge15" class="edge"><title>S24&#45;&gt;27</title>
<path style="fill:none;stroke:black;" d="M45,-576C39,-549 27,-496 27,-450 27,-450 27,-450 27,-378 27,-338 27,-291 27,-262"/>
<polygon style="fill:black;stroke:black;" points="30.5001,-262 27,-252 23.5001,-262 30.5001,-262"/>
</g>
<!-- S1 -->
<g id="node4" class="node"><title>S1</title>
<ellipse style="fill:none;stroke:black;" cx="769" cy="-594" rx="27" ry="18"/>
<text text-anchor="middle" x="769" y="-589.9" style="font-family:Times New Roman;font-size:14.00;">S1</text>
</g>
<!-- 10 -->
<g id="node17" class="node"><title>10</title>
<ellipse style="fill:none;stroke:black;" cx="879" cy="-522" rx="27" ry="18"/>
<text text-anchor="middle" x="879" y="-517.9" style="font-family:Times New Roman;font-size:14.00;">10</text>
</g>
<!-- S1&#45;&gt;10 -->
<g id="edge19" class="edge"><title>S1&#45;&gt;10</title>
<path style="fill:none;stroke:black;" d="M788,-581C805,-570 832,-553 851,-541"/>
<polygon style="fill:black;stroke:black;" points="853.621,-543.459 860,-535 849.738,-537.635 853.621,-543.459"/>
</g>
<!-- 2 -->
<g id="node18" class="node"><title>2</title>
<ellipse style="fill:none;stroke:black;" cx="660" cy="-522" rx="27" ry="18"/>
<text text-anchor="middle" x="660" y="-517.9" style="font-family:Times New Roman;font-size:14.00;">2</text>
</g>
<!-- S1&#45;&gt;2 -->
<g id="edge17" class="edge"><title>S1&#45;&gt;2</title>
<path style="fill:none;stroke:black;" d="M750,-581C733,-570 707,-553 687,-541"/>
<polygon style="fill:black;stroke:black;" points="689.1,-538.2 679,-535 684.9,-543.8 689.1,-538.2"/>
</g>
<!-- S35 -->
<g id="node5" class="node"><title>S35</title>
<ellipse style="fill:none;stroke:black;" cx="291" cy="-594" rx="27" ry="18"/>
<text text-anchor="middle" x="291" y="-589.9" style="font-family:Times New Roman;font-size:14.00;">S35</text>
</g>
<!-- 43 -->
<g id="node14" class="node"><title>43</title>
<ellipse style="fill:none;stroke:black;" cx="319" cy="-522" rx="27" ry="18"/>
<text text-anchor="middle" x="319" y="-517.9" style="font-family:Times New Roman;font-size:14.00;">43</text>
</g>
<!-- S35&#45;&gt;43 -->
<g id="edge21" class="edge"><title>S35&#45;&gt;43</title>
<path style="fill:none;stroke:black;" d="M298,-577C301,-568 305,-558 309,-549"/>
<polygon style="fill:black;stroke:black;" points="312.479,-549.584 312,-539 305.774,-547.573 312.479,-549.584"/>
</g>
<!-- 36 -->
<g id="node16" class="node"><title>36</title>
<ellipse style="fill:none;stroke:black;" cx="247" cy="-522" rx="27" ry="18"/>
<text text-anchor="middle" x="247" y="-517.9" style="font-family:Times New Roman;font-size:14.00;">36</text>
</g>
<!-- S35&#45;&gt;36 -->
<g id="edge23" class="edge"><title>S35&#45;&gt;36</title>
<path style="fill:none;stroke:black;" d="M281,-577C276,-569 269,-558 263,-548"/>
<polygon style="fill:black;stroke:black;" points="265.916,-546.042 258,-539 259.797,-549.441 265.916,-546.042"/>
</g>
<!-- S30 -->
<g id="node6" class="node"><title>S30</title>
<ellipse style="fill:none;stroke:black;" cx="1044" cy="-594" rx="27" ry="18"/>
<text text-anchor="middle" x="1044" y="-589.9" style="font-family:Times New Roman;font-size:14.00;">S30</text>
</g>
<!-- 33 -->
<g id="node33" class="node"><title>33</title>
<ellipse style="fill:none;stroke:black;" cx="1076" cy="-378" rx="27" ry="18"/>
<text text-anchor="middle" x="1076" y="-373.9" style="font-family:Times New Roman;font-size:14.00;">33</text>
</g>
<!-- S30&#45;&gt;33 -->
<g id="edge27" class="edge"><title>S30&#45;&gt;33</title>
<path style="fill:none;stroke:black;" d="M1047,-576C1052,-538 1065,-451 1072,-406"/>
<polygon style="fill:black;stroke:black;" points="1075.49,-406.299 1073,-396 1068.52,-405.602 1075.49,-406.299"/>
</g>
<!-- 31 -->
<g id="node40" class="node"><title>31</title>
<ellipse style="fill:none;stroke:black;" cx="1021" cy="-306" rx="27" ry="18"/>
<text text-anchor="middle" x="1021" y="-301.9" style="font-family:Times New Roman;font-size:14.00;">31</text>
</g>
<!-- S30&#45;&gt;31 -->
<g id="edge25" class="edge"><title>S30&#45;&gt;31</title>
<path style="fill:none;stroke:black;" d="M1043,-576C1039,-527 1028,-393 1023,-334"/>
<polygon style="fill:black;stroke:black;" points="1026.48,-333.602 1022,-324 1019.51,-334.299 1026.48,-333.602"/>
</g>
<!-- T8 -->
<g id="node8" class="node"><title>T8</title>
<ellipse style="fill:none;stroke:black;" cx="293" cy="-18" rx="27" ry="18"/>
<text text-anchor="middle" x="293" y="-13.9" style="font-family:Times New Roman;font-size:14.00;">T8</text>
</g>
<!-- T24 -->
<g id="node9" class="node"><title>T24</title>
<ellipse style="fill:none;stroke:black;" cx="122" cy="-18" rx="27.7953" ry="18"/>
<text text-anchor="middle" x="122" y="-13.9" style="font-family:Times New Roman;font-size:14.00;">T24</text>
</g>
<!-- T1 -->
<g id="node10" class="node"><title>T1</title>
<ellipse style="fill:none;stroke:black;" cx="557" cy="-18" rx="27" ry="18"/>
<text text-anchor="middle" x="557" y="-13.9" style="font-family:Times New Roman;font-size:14.00;">T1</text>
</g>
<!-- T35 -->
<g id="node11" class="node"><title>T35</title>
<ellipse style="fill:none;stroke:black;" cx="365" cy="-18" rx="27.1004" ry="18"/>
<text text-anchor="middle" x="365" y="-13.9" style="font-family:Times New Roman;font-size:14.00;">T35</text>
</g>
<!-- T30 -->
<g id="node12" class="node"><title>T30</title>
<ellipse style="fill:none;stroke:black;" cx="907" cy="-18" rx="27.1004" ry="18"/>
<text text-anchor="middle" x="907" y="-13.9" style="font-family:Times New Roman;font-size:14.00;">T30</text>
</g>
<!-- 38 -->
<g id="node22" class="node"><title>38</title>
<ellipse style="fill:none;stroke:black;" cx="302" cy="-450" rx="27" ry="18"/>
<text text-anchor="middle" x="302" y="-445.9" style="font-family:Times New Roman;font-size:14.00;">38</text>
</g>
<!-- 43&#45;&gt;38 -->
<g id="edge87" class="edge"><title>43&#45;&gt;38</title>
<path style="fill:none;stroke:black;" d="M315,-504C313,-496 311,-487 309,-478"/>
<polygon style="fill:black;stroke:black;" points="312.226,-476.573 306,-468 305.521,-478.584 312.226,-476.573"/>
</g>
<!-- 40 -->
<g id="node23" class="node"><title>40</title>
<ellipse style="fill:none;stroke:black;" cx="374" cy="-450" rx="27" ry="18"/>
<text text-anchor="middle" x="374" y="-445.9" style="font-family:Times New Roman;font-size:14.00;">40</text>
</g>
<!-- 43&#45;&gt;40 -->
<g id="edge89" class="edge"><title>43&#45;&gt;40</title>
<path style="fill:none;stroke:black;" d="M331,-506C338,-497 348,-485 356,-474"/>
<polygon style="fill:black;stroke:black;" points="358.8,-476.1 362,-466 353.2,-471.9 358.8,-476.1"/>
</g>
<!-- 37 -->
<g id="node15" class="node"><title>37</title>
<ellipse style="fill:none;stroke:black;" cx="410" cy="-522" rx="27" ry="18"/>
<text text-anchor="middle" x="410" y="-517.9" style="font-family:Times New Roman;font-size:14.00;">37</text>
</g>
<!-- 37&#45;&gt;38 -->
<g id="edge78" class="edge"><title>37&#45;&gt;38</title>
<path style="fill:none;stroke:black;" d="M391,-509C374,-498 349,-481 329,-469"/>
<polygon style="fill:black;stroke:black;" points="331.1,-466.2 321,-463 326.9,-471.8 331.1,-466.2"/>
</g>
<!-- 37&#45;&gt;40 -->
<g id="edge79" class="edge"><title>37&#45;&gt;40</title>
<path style="fill:none;stroke:black;" d="M401,-505C397,-496 392,-486 387,-476"/>
<polygon style="fill:black;stroke:black;" points="390.26,-474.717 383,-467 383.863,-477.56 390.26,-474.717"/>
</g>
<!-- 39 -->
<g id="node35" class="node"><title>39</title>
<ellipse style="fill:none;stroke:black;" cx="357" cy="-378" rx="27" ry="18"/>
<text text-anchor="middle" x="357" y="-373.9" style="font-family:Times New Roman;font-size:14.00;">39</text>
</g>
<!-- 37&#45;&gt;39 -->
<g id="edge80" class="edge"><title>37&#45;&gt;39</title>
<path style="fill:none;stroke:black;" d="M414,-504C417,-485 419,-455 410,-432 404,-419 394,-406 384,-397"/>
<polygon style="fill:black;stroke:black;" points="386.1,-394.2 376,-391 381.9,-399.8 386.1,-394.2"/>
</g>
<!-- 41 -->
<g id="node43" class="node"><title>41</title>
<ellipse style="fill:none;stroke:black;" cx="602" cy="-306" rx="27" ry="18"/>
<text text-anchor="middle" x="602" y="-301.9" style="font-family:Times New Roman;font-size:14.00;">41</text>
</g>
<!-- 37&#45;&gt;41 -->
<g id="edge81" class="edge"><title>37&#45;&gt;41</title>
<path style="fill:none;stroke:black;" d="M419,-505C436,-473 475,-406 522,-360 536,-345 556,-332 572,-322"/>
<polygon style="fill:black;stroke:black;" points="573.958,-324.916 581,-317 570.559,-318.797 573.958,-324.916"/>
</g>
<!-- 19 -->
<g id="node34" class="node"><title>19</title>
<ellipse style="fill:none;stroke:black;" cx="429" cy="-378" rx="27" ry="18"/>
<text text-anchor="middle" x="429" y="-373.9" style="font-family:Times New Roman;font-size:14.00;">19</text>
</g>
<!-- 36&#45;&gt;19 -->
<g id="edge91" class="edge"><title>36&#45;&gt;19</title>
<path style="fill:none;stroke:black;" d="M246,-504C246,-483 248,-451 266,-432 306,-389 338,-417 393,-396 395,-395 397,-394 399,-393"/>
<polygon style="fill:black;stroke:black;" points="400.283,-396.26 408,-389 397.44,-389.863 400.283,-396.26"/>
</g>
<!-- 10&#45;&gt;T1 -->
<g id="edge47" class="edge"><title>10&#45;&gt;T1</title>
<path style="fill:none;stroke:black;" d="M893,-506C913,-484 947,-441 960,-396 964,-380 967,-374 960,-360 948,-336 927,-346 913,-324 891,-289 894,-274 894,-234 894,-234 894,-234 894,-162 894,-97 680,-44 593,-25"/>
<polygon style="fill:black;stroke:black;" points="593.492,-21.5292 583,-23 592.119,-28.3933 593.492,-21.5292"/>
</g>
<!-- 13 -->
<g id="node24" class="node"><title>13</title>
<ellipse style="fill:none;stroke:black;" cx="780" cy="-450" rx="27" ry="18"/>
<text text-anchor="middle" x="780" y="-445.9" style="font-family:Times New Roman;font-size:14.00;">13</text>
</g>
<!-- 10&#45;&gt;13 -->
<g id="edge48" class="edge"><title>10&#45;&gt;13</title>
<path style="fill:none;stroke:black;" d="M860,-508C846,-498 824,-482 807,-469"/>
<polygon style="fill:black;stroke:black;" points="808.262,-465.635 798,-463 804.379,-471.459 808.262,-465.635"/>
</g>
<!-- 12 -->
<g id="node26" class="node"><title>12</title>
<ellipse style="fill:none;stroke:black;" cx="852" cy="-450" rx="27" ry="18"/>
<text text-anchor="middle" x="852" y="-445.9" style="font-family:Times New Roman;font-size:14.00;">12</text>
</g>
<!-- 10&#45;&gt;12 -->
<g id="edge49" class="edge"><title>10&#45;&gt;12</title>
<path style="fill:none;stroke:black;" d="M872,-504C869,-496 866,-486 862,-477"/>
<polygon style="fill:black;stroke:black;" points="865.26,-475.717 858,-468 858.863,-478.56 865.26,-475.717"/>
</g>
<!-- 11 -->
<g id="node31" class="node"><title>11</title>
<ellipse style="fill:none;stroke:black;" cx="847" cy="-378" rx="27" ry="18"/>
<text text-anchor="middle" x="847" y="-373.9" style="font-family:Times New Roman;font-size:14.00;">11</text>
</g>
<!-- 10&#45;&gt;11 -->
<g id="edge50" class="edge"><title>10&#45;&gt;11</title>
<path style="fill:none;stroke:black;" d="M885,-504C890,-486 896,-456 888,-432 884,-420 877,-409 869,-400"/>
<polygon style="fill:black;stroke:black;" points="871.546,-397.596 862,-393 866.596,-402.546 871.546,-397.596"/>
</g>
<!-- 14 -->
<g id="node36" class="node"><title>14</title>
<ellipse style="fill:none;stroke:black;" cx="924" cy="-378" rx="27" ry="18"/>
<text text-anchor="middle" x="924" y="-373.9" style="font-family:Times New Roman;font-size:14.00;">14</text>
</g>
<!-- 10&#45;&gt;14 -->
<g id="edge51" class="edge"><title>10&#45;&gt;14</title>
<path style="fill:none;stroke:black;" d="M887,-504C892,-494 898,-480 903,-468 910,-448 915,-424 919,-406"/>
<polygon style="fill:black;stroke:black;" points="922.471,-406.492 921,-396 915.607,-405.119 922.471,-406.492"/>
</g>
<!-- 2&#45;&gt;T1 -->
<g id="edge40" class="edge"><title>2&#45;&gt;T1</title>
<path style="fill:none;stroke:black;" d="M671,-505C693,-470 742,-384 742,-306 742,-306 742,-306 742,-162 742,-86 646,-45 592,-28"/>
<polygon style="fill:black;stroke:black;" points="592.584,-24.5212 582,-25 590.573,-31.2259 592.584,-24.5212"/>
</g>
<!-- 17 -->
<g id="node25" class="node"><title>17</title>
<ellipse style="fill:none;stroke:black;" cx="522" cy="-450" rx="27" ry="18"/>
<text text-anchor="middle" x="522" y="-445.9" style="font-family:Times New Roman;font-size:14.00;">17</text>
</g>
<!-- 2&#45;&gt;17 -->
<g id="edge41" class="edge"><title>2&#45;&gt;17</title>
<path style="fill:none;stroke:black;" d="M638,-511C616,-499 578,-480 552,-466"/>
<polygon style="fill:black;stroke:black;" points="553.441,-462.797 543,-461 550.042,-468.916 553.441,-462.797"/>
</g>
<!-- 18 -->
<g id="node27" class="node"><title>18</title>
<ellipse style="fill:none;stroke:black;" cx="632" cy="-450" rx="27" ry="18"/>
<text text-anchor="middle" x="632" y="-445.9" style="font-family:Times New Roman;font-size:14.00;">18</text>
</g>
<!-- 2&#45;&gt;18 -->
<g id="edge42" class="edge"><title>2&#45;&gt;18</title>
<path style="fill:none;stroke:black;" d="M653,-505C650,-496 646,-486 642,-477"/>
<polygon style="fill:black;stroke:black;" points="645.226,-475.573 639,-467 638.521,-477.584 645.226,-475.573"/>
</g>
<!-- 3 -->
<g id="node32" class="node"><title>3</title>
<ellipse style="fill:none;stroke:black;" cx="558" cy="-378" rx="27" ry="18"/>
<text text-anchor="middle" x="558" y="-373.9" style="font-family:Times New Roman;font-size:14.00;">3</text>
</g>
<!-- 2&#45;&gt;3 -->
<g id="edge43" class="edge"><title>2&#45;&gt;3</title>
<path style="fill:none;stroke:black;" d="M641,-509C627,-499 608,-484 596,-468 582,-449 572,-424 566,-406"/>
<polygon style="fill:black;stroke:black;" points="569.226,-404.573 563,-396 562.521,-406.584 569.226,-404.573"/>
</g>
<!-- 16 -->
<g id="node37" class="node"><title>16</title>
<ellipse style="fill:none;stroke:black;" cx="687" cy="-378" rx="27" ry="18"/>
<text text-anchor="middle" x="687" y="-373.9" style="font-family:Times New Roman;font-size:14.00;">16</text>
</g>
<!-- 2&#45;&gt;16 -->
<g id="edge44" class="edge"><title>2&#45;&gt;16</title>
<path style="fill:none;stroke:black;" d="M663,-504C668,-479 677,-435 682,-406"/>
<polygon style="fill:black;stroke:black;" points="685.471,-406.492 684,-396 678.607,-405.119 685.471,-406.492"/>
</g>
<!-- 25&#45;&gt;T1 -->
<g id="edge33" class="edge"><title>25&#45;&gt;T1</title>
<path style="fill:none;stroke:black;" d="M82,-432C82,-404 82,-351 82,-306 82,-306 82,-306 82,-162 82,-93 145,-97 208,-72 237,-60 437,-33 520,-22"/>
<polygon style="fill:black;stroke:black;" points="520.398,-25.4778 530,-21 519.701,-18.5125 520.398,-25.4778"/>
</g>
<!-- 26 -->
<g id="node29" class="node"><title>26</title>
<ellipse style="fill:none;stroke:black;" cx="137" cy="-378" rx="27" ry="18"/>
<text text-anchor="middle" x="137" y="-373.9" style="font-family:Times New Roman;font-size:14.00;">26</text>
</g>
<!-- 25&#45;&gt;26 -->
<g id="edge35" class="edge"><title>25&#45;&gt;26</title>
<path style="fill:none;stroke:black;" d="M94,-434C101,-425 111,-413 119,-402"/>
<polygon style="fill:black;stroke:black;" points="121.8,-404.1 125,-394 116.2,-399.9 121.8,-404.1"/>
</g>
<!-- 9&#45;&gt;T1 -->
<g id="edge31" class="edge"><title>9&#45;&gt;T1</title>
<path style="fill:none;stroke:black;" d="M192,-432C192,-404 192,-351 192,-306 192,-306 192,-306 192,-162 192,-110 222,-98 266,-72 308,-46 451,-29 520,-22"/>
<polygon style="fill:black;stroke:black;" points="520.398,-25.4778 530,-21 519.701,-18.5125 520.398,-25.4778"/>
</g>
<!-- 42 -->
<g id="node30" class="node"><title>42</title>
<ellipse style="fill:none;stroke:black;" cx="247" cy="-378" rx="27" ry="18"/>
<text text-anchor="middle" x="247" y="-373.9" style="font-family:Times New Roman;font-size:14.00;">42</text>
</g>
<!-- 9&#45;&gt;42 -->
<g id="edge29" class="edge"><title>9&#45;&gt;42</title>
<path style="fill:none;stroke:black;" d="M204,-434C211,-425 221,-413 229,-402"/>
<polygon style="fill:black;stroke:black;" points="231.8,-404.1 235,-394 226.2,-399.9 231.8,-404.1"/>
</g>
<!-- 4 -->
<g id="node39" class="node"><title>4</title>
<ellipse style="fill:none;stroke:black;" cx="276" cy="-306" rx="27" ry="18"/>
<text text-anchor="middle" x="276" y="-301.9" style="font-family:Times New Roman;font-size:14.00;">4</text>
</g>
<!-- 38&#45;&gt;4 -->
<g id="edge101" class="edge"><title>38&#45;&gt;4</title>
<path style="fill:none;stroke:black;" d="M299,-432C295,-407 286,-363 281,-334"/>
<polygon style="fill:black;stroke:black;" points="284.393,-333.119 279,-324 277.529,-334.492 284.393,-333.119"/>
</g>
<!-- 40&#45;&gt;19 -->
<g id="edge103" class="edge"><title>40&#45;&gt;19</title>
<path style="fill:none;stroke:black;" d="M386,-434C393,-425 403,-413 411,-402"/>
<polygon style="fill:black;stroke:black;" points="413.8,-404.1 417,-394 408.2,-399.9 413.8,-404.1"/>
</g>
<!-- 13&#45;&gt;19 -->
<g id="edge83" class="edge"><title>13&#45;&gt;19</title>
<path style="fill:none;stroke:black;" d="M754,-445C692,-432 536,-400 465,-385"/>
<polygon style="fill:black;stroke:black;" points="465.492,-381.529 455,-383 464.119,-388.393 465.492,-381.529"/>
</g>
<!-- 17&#45;&gt;19 -->
<g id="edge69" class="edge"><title>17&#45;&gt;19</title>
<path style="fill:none;stroke:black;" d="M504,-436C491,-425 471,-410 455,-398"/>
<polygon style="fill:black;stroke:black;" points="457.1,-395.2 447,-392 452.9,-400.8 457.1,-395.2"/>
</g>
<!-- 29 -->
<g id="node51" class="node"><title>29</title>
<ellipse style="fill:none;stroke:black;" cx="676" cy="-234" rx="27" ry="18"/>
<text text-anchor="middle" x="676" y="-229.9" style="font-family:Times New Roman;font-size:14.00;">29</text>
</g>
<!-- 12&#45;&gt;29 -->
<g id="edge85" class="edge"><title>12&#45;&gt;29</title>
<path style="fill:none;stroke:black;" d="M839,-434C808,-396 731,-302 695,-258"/>
<polygon style="fill:black;stroke:black;" points="697.8,-255.9 689,-250 692.2,-260.1 697.8,-255.9"/>
</g>
<!-- 18&#45;&gt;29 -->
<g id="edge71" class="edge"><title>18&#45;&gt;29</title>
<path style="fill:none;stroke:black;" d="M636,-432C643,-394 661,-306 670,-262"/>
<polygon style="fill:black;stroke:black;" points="673.471,-262.492 672,-252 666.607,-261.119 673.471,-262.492"/>
</g>
<!-- 26&#45;&gt;4 -->
<g id="edge63" class="edge"><title>26&#45;&gt;4</title>
<path style="fill:none;stroke:black;" d="M158,-367C181,-355 219,-336 246,-322"/>
<polygon style="fill:black;stroke:black;" points="247.958,-324.916 255,-317 244.559,-318.797 247.958,-324.916"/>
</g>
<!-- 42&#45;&gt;4 -->
<g id="edge61" class="edge"><title>42&#45;&gt;4</title>
<path style="fill:none;stroke:black;" d="M254,-361C258,-352 262,-342 266,-333"/>
<polygon style="fill:black;stroke:black;" points="269.479,-333.584 269,-323 262.774,-331.573 269.479,-333.584"/>
</g>
<!-- 11&#45;&gt;4 -->
<g id="edge73" class="edge"><title>11&#45;&gt;4</title>
<path style="fill:none;stroke:black;" d="M820,-374C795,-370 757,-364 723,-360 557,-340 514,-351 350,-324 337,-322 323,-319 311,-316"/>
<polygon style="fill:black;stroke:black;" points="311.584,-312.521 301,-313 309.573,-319.226 311.584,-312.521"/>
</g>
<!-- 3&#45;&gt;4 -->
<g id="edge65" class="edge"><title>3&#45;&gt;4</title>
<path style="fill:none;stroke:black;" d="M532,-371C482,-359 369,-330 311,-315"/>
<polygon style="fill:black;stroke:black;" points="311.584,-311.521 301,-312 309.573,-318.226 311.584,-311.521"/>
</g>
<!-- 33&#45;&gt;T30 -->
<g id="edge57" class="edge"><title>33&#45;&gt;T30</title>
<path style="fill:none;stroke:black;" d="M1076,-360C1076,-332 1076,-279 1076,-234 1076,-234 1076,-234 1076,-162 1076,-92 990,-49 942,-30"/>
<polygon style="fill:black;stroke:black;" points="942.585,-26.4643 932,-26 939.985,-32.9636 942.585,-26.4643"/>
</g>
<!-- 34 -->
<g id="node41" class="node"><title>34</title>
<ellipse style="fill:none;stroke:black;" cx="949" cy="-306" rx="27" ry="18"/>
<text text-anchor="middle" x="949" y="-301.9" style="font-family:Times New Roman;font-size:14.00;">34</text>
</g>
<!-- 33&#45;&gt;34 -->
<g id="edge59" class="edge"><title>33&#45;&gt;34</title>
<path style="fill:none;stroke:black;" d="M1055,-366C1034,-355 1002,-336 979,-323"/>
<polygon style="fill:black;stroke:black;" points="980.441,-319.797 970,-318 977.042,-325.916 980.441,-319.797"/>
</g>
<!-- 21 -->
<g id="node42" class="node"><title>21</title>
<ellipse style="fill:none;stroke:black;" cx="386" cy="-306" rx="27" ry="18"/>
<text text-anchor="middle" x="386" y="-301.9" style="font-family:Times New Roman;font-size:14.00;">21</text>
</g>
<!-- 19&#45;&gt;21 -->
<g id="edge108" class="edge"><title>19&#45;&gt;21</title>
<path style="fill:none;stroke:black;" d="M419,-361C414,-353 407,-342 401,-332"/>
<polygon style="fill:black;stroke:black;" points="403.916,-330.042 396,-323 397.797,-333.441 403.916,-330.042"/>
</g>
<!-- 28 -->
<g id="node44" class="node"><title>28</title>
<ellipse style="fill:none;stroke:black;" cx="530" cy="-306" rx="27" ry="18"/>
<text text-anchor="middle" x="530" y="-301.9" style="font-family:Times New Roman;font-size:14.00;">28</text>
</g>
<!-- 19&#45;&gt;28 -->
<g id="edge109" class="edge"><title>19&#45;&gt;28</title>
<path style="fill:none;stroke:black;" d="M448,-365C463,-354 485,-338 502,-325"/>
<polygon style="fill:black;stroke:black;" points="504.621,-327.459 511,-319 500.738,-321.635 504.621,-327.459"/>
</g>
<!-- 20 -->
<g id="node45" class="node"><title>20</title>
<ellipse style="fill:none;stroke:black;" cx="458" cy="-306" rx="27" ry="18"/>
<text text-anchor="middle" x="458" y="-301.9" style="font-family:Times New Roman;font-size:14.00;">20</text>
</g>
<!-- 19&#45;&gt;20 -->
<g id="edge110" class="edge"><title>19&#45;&gt;20</title>
<path style="fill:none;stroke:black;" d="M436,-361C440,-352 444,-342 448,-333"/>
<polygon style="fill:black;stroke:black;" points="451.479,-333.584 451,-323 444.774,-331.573 451.479,-333.584"/>
</g>
<!-- 15 -->
<g id="node52" class="node"><title>15</title>
<ellipse style="fill:none;stroke:black;" cx="557" cy="-234" rx="27" ry="18"/>
<text text-anchor="middle" x="557" y="-229.9" style="font-family:Times New Roman;font-size:14.00;">15</text>
</g>
<!-- 39&#45;&gt;15 -->
<g id="edge97" class="edge"><title>39&#45;&gt;15</title>
<path style="fill:none;stroke:black;" d="M349,-361C342,-341 334,-308 350,-288 371,-261 467,-245 520,-238"/>
<polygon style="fill:black;stroke:black;" points="520.398,-241.478 530,-237 519.701,-234.512 520.398,-241.478"/>
</g>
<!-- 14&#45;&gt;15 -->
<g id="edge75" class="edge"><title>14&#45;&gt;15</title>
<path style="fill:none;stroke:black;" d="M901,-368C895,-365 889,-362 883,-360 777,-316 650,-268 591,-247"/>
<polygon style="fill:black;stroke:black;" points="591.585,-243.464 581,-243 588.985,-249.964 591.585,-243.464"/>
</g>
<!-- 16&#45;&gt;15 -->
<g id="edge67" class="edge"><title>16&#45;&gt;15</title>
<path style="fill:none;stroke:black;" d="M680,-360C672,-341 657,-309 638,-288 624,-273 604,-259 588,-250"/>
<polygon style="fill:black;stroke:black;" points="589.441,-246.797 579,-245 586.042,-252.916 589.441,-246.797"/>
</g>
<!-- 5 -->
<g id="node48" class="node"><title>5</title>
<ellipse style="fill:none;stroke:black;" cx="298" cy="-234" rx="27" ry="18"/>
<text text-anchor="middle" x="298" y="-229.9" style="font-family:Times New Roman;font-size:14.00;">5</text>
</g>
<!-- 4&#45;&gt;5 -->
<g id="edge105" class="edge"><title>4&#45;&gt;5</title>
<path style="fill:none;stroke:black;" d="M281,-288C284,-280 287,-271 289,-262"/>
<polygon style="fill:black;stroke:black;" points="292.479,-262.584 292,-252 285.774,-260.573 292.479,-262.584"/>
</g>
<!-- 31&#45;&gt;T1 -->
<g id="edge53" class="edge"><title>31&#45;&gt;T1</title>
<path style="fill:none;stroke:black;" d="M1018,-288C1011,-242 984,-123 908,-72 856,-37 674,-24 594,-20"/>
<polygon style="fill:black;stroke:black;" points="594.299,-16.5125 584,-19 593.602,-23.4778 594.299,-16.5125"/>
</g>
<!-- 32 -->
<g id="node50" class="node"><title>32</title>
<ellipse style="fill:none;stroke:black;" cx="957" cy="-234" rx="27" ry="18"/>
<text text-anchor="middle" x="957" y="-229.9" style="font-family:Times New Roman;font-size:14.00;">32</text>
</g>
<!-- 31&#45;&gt;32 -->
<g id="edge55" class="edge"><title>31&#45;&gt;32</title>
<path style="fill:none;stroke:black;" d="M1007,-290C998,-280 987,-268 978,-257"/>
<polygon style="fill:black;stroke:black;" points="980.219,-254.221 971,-249 974.951,-258.831 980.219,-254.221"/>
</g>
<!-- 34&#45;&gt;29 -->
<g id="edge95" class="edge"><title>34&#45;&gt;29</title>
<path style="fill:none;stroke:black;" d="M924,-299C875,-287 767,-258 711,-243"/>
<polygon style="fill:black;stroke:black;" points="711.492,-239.529 701,-241 710.119,-246.393 711.492,-239.529"/>
</g>
<!-- 22 -->
<g id="node49" class="node"><title>22</title>
<ellipse style="fill:none;stroke:black;" cx="386" cy="-234" rx="27" ry="18"/>
<text text-anchor="middle" x="386" y="-229.9" style="font-family:Times New Roman;font-size:14.00;">22</text>
</g>
<!-- 21&#45;&gt;22 -->
<g id="edge117" class="edge"><title>21&#45;&gt;22</title>
<path style="fill:none;stroke:black;" d="M386,-288C386,-280 386,-271 386,-262"/>
<polygon style="fill:black;stroke:black;" points="389.5,-262 386,-252 382.5,-262 389.5,-262"/>
</g>
<!-- 41&#45;&gt;29 -->
<g id="edge99" class="edge"><title>41&#45;&gt;29</title>
<path style="fill:none;stroke:black;" d="M617,-291C628,-281 642,-267 654,-256"/>
<polygon style="fill:black;stroke:black;" points="656.404,-258.546 661,-249 651.454,-253.596 656.404,-258.546"/>
</g>
<!-- 28&#45;&gt;29 -->
<g id="edge121" class="edge"><title>28&#45;&gt;29</title>
<path style="fill:none;stroke:black;" d="M551,-295C556,-292 561,-290 566,-288 592,-274 622,-259 645,-248"/>
<polygon style="fill:black;stroke:black;" points="646.283,-251.26 654,-244 643.44,-244.863 646.283,-251.26"/>
</g>
<!-- 20&#45;&gt;15 -->
<g id="edge119" class="edge"><title>20&#45;&gt;15</title>
<path style="fill:none;stroke:black;" d="M477,-292C491,-282 513,-266 530,-253"/>
<polygon style="fill:black;stroke:black;" points="532.621,-255.459 539,-247 528.738,-249.635 532.621,-255.459"/>
</g>
<!-- 27&#45;&gt;T24 -->
<g id="edge37" class="edge"><title>27&#45;&gt;T24</title>
<path style="fill:none;stroke:black;" d="M29,-216C32,-184 42,-119 68,-72 75,-59 86,-48 96,-39"/>
<polygon style="fill:black;stroke:black;" points="98.779,-41.2191 104,-32 94.1694,-35.9511 98.779,-41.2191"/>
</g>
<!-- 5&#45;&gt;T35 -->
<g id="edge113" class="edge"><title>5&#45;&gt;T35</title>
<path style="fill:none;stroke:black;" d="M286,-218C279,-207 270,-193 266,-180 254,-133 242,-113 266,-72 269,-68 306,-49 334,-34"/>
<polygon style="fill:black;stroke:black;" points="335.958,-36.916 343,-29 332.559,-30.7969 335.958,-36.916"/>
</g>
<!-- 6 -->
<g id="node54" class="node"><title>6</title>
<ellipse style="fill:none;stroke:black;" cx="302" cy="-162" rx="27" ry="18"/>
<text text-anchor="middle" x="302" y="-157.9" style="font-family:Times New Roman;font-size:14.00;">6</text>
</g>
<!-- 5&#45;&gt;6 -->
<g id="edge114" class="edge"><title>5&#45;&gt;6</title>
<path style="fill:none;stroke:black;" d="M299,-216C300,-208 300,-199 300,-190"/>
<polygon style="fill:black;stroke:black;" points="303.488,-190.299 301,-180 296.522,-189.602 303.488,-190.299"/>
</g>
<!-- 23 -->
<g id="node55" class="node"><title>23</title>
<ellipse style="fill:none;stroke:black;" cx="420" cy="-162" rx="27" ry="18"/>
<text text-anchor="middle" x="420" y="-157.9" style="font-family:Times New Roman;font-size:14.00;">23</text>
</g>
<!-- 5&#45;&gt;23 -->
<g id="edge115" class="edge"><title>5&#45;&gt;23</title>
<path style="fill:none;stroke:black;" d="M318,-222C338,-210 368,-192 390,-179"/>
<polygon style="fill:black;stroke:black;" points="391.958,-181.916 399,-174 388.559,-175.797 391.958,-181.916"/>
</g>
<!-- 22&#45;&gt;T35 -->
<g id="edge127" class="edge"><title>22&#45;&gt;T35</title>
<path style="fill:none;stroke:black;" d="M384,-216C380,-178 372,-91 368,-46"/>
<polygon style="fill:black;stroke:black;" points="371.478,-45.6021 367,-36 364.512,-46.2987 371.478,-45.6021"/>
</g>
<!-- 22&#45;&gt;23 -->
<g id="edge129" class="edge"><title>22&#45;&gt;23</title>
<path style="fill:none;stroke:black;" d="M394,-217C398,-208 403,-198 408,-188"/>
<polygon style="fill:black;stroke:black;" points="411.137,-189.56 412,-179 404.74,-186.717 411.137,-189.56"/>
</g>
<!-- 32&#45;&gt;23 -->
<g id="edge93" class="edge"><title>32&#45;&gt;23</title>
<path style="fill:none;stroke:black;" d="M930,-230C842,-218 558,-181 456,-167"/>
<polygon style="fill:black;stroke:black;" points="456.299,-163.512 446,-166 455.602,-170.478 456.299,-163.512"/>
</g>
<!-- 29&#45;&gt;T30 -->
<g id="edge131" class="edge"><title>29&#45;&gt;T30</title>
<path style="fill:none;stroke:black;" d="M692,-219C732,-181 837,-84 883,-40"/>
<polygon style="fill:black;stroke:black;" points="885.779,-42.2191 891,-33 881.169,-36.9511 885.779,-42.2191"/>
</g>
<!-- 15&#45;&gt;T1 -->
<g id="edge125" class="edge"><title>15&#45;&gt;T1</title>
<path style="fill:none;stroke:black;" d="M557,-216C557,-178 557,-91 557,-46"/>
<polygon style="fill:black;stroke:black;" points="560.5,-46 557,-36 553.5,-46 560.5,-46"/>
</g>
<!-- 7 -->
<g id="node57" class="node"><title>7</title>
<ellipse style="fill:none;stroke:black;" cx="302" cy="-90" rx="27" ry="18"/>
<text text-anchor="middle" x="302" y="-85.9" style="font-family:Times New Roman;font-size:14.00;">7</text>
</g>
<!-- 6&#45;&gt;7 -->
<g id="edge123" class="edge"><title>6&#45;&gt;7</title>
<path style="fill:none;stroke:black;" d="M302,-144C302,-136 302,-127 302,-118"/>
<polygon style="fill:black;stroke:black;" points="305.5,-118 302,-108 298.5,-118 305.5,-118"/>
</g>
<!-- 23&#45;&gt;T24 -->
<g id="edge135" class="edge"><title>23&#45;&gt;T24</title>
<path style="fill:none;stroke:black;" d="M409,-145C395,-125 369,-90 338,-72 282,-39 205,-26 160,-21"/>
<polygon style="fill:black;stroke:black;" points="160.299,-17.5125 150,-20 159.602,-24.4778 160.299,-17.5125"/>
</g>
<!-- 23&#45;&gt;T1 -->
<g id="edge137" class="edge"><title>23&#45;&gt;T1</title>
<path style="fill:none;stroke:black;" d="M435,-147C459,-121 507,-70 535,-40"/>
<polygon style="fill:black;stroke:black;" points="537.404,-42.546 542,-33 532.454,-37.5962 537.404,-42.546"/>
</g>
<!-- 7&#45;&gt;T8 -->
<g id="edge133" class="edge"><title>7&#45;&gt;T8</title>
<path style="fill:none;stroke:black;" d="M300,-72C299,-64 298,-55 297,-46"/>
<polygon style="fill:black;stroke:black;" points="300.393,-45.1194 295,-36 293.529,-46.4922 300.393,-45.1194"/>
</g>
</g>
</svg>
