<?xml version="1.0" encoding="UTF-8" standalone="no"?>
<!DOCTYPE svg PUBLIC "-//W3C//DTD SVG 1.0//EN"
 "http://www.w3.org/TR/2001/REC-SVG-20010904/DTD/svg10.dtd" [
 <!ATTLIST svg xmlns:xlink CDATA #FIXED "http://www.w3.org/1999/xlink">
]>
<!-- Generated by dot version 2.7.20051025.0440 (Tue Oct 25 07:40:11 UTC 2005)
     For user: (ellson) John Ellson -->
<!-- Title: G Pages: 1 -->
<svg width="383pt" height="301pt"
 viewBox = "0 0 383 301"
 xmlns="http://www.w3.org/2000/svg" xmlns:xlink="http://www.w3.org/1999/xlink">
<g id="graph0" class="graph" style="font-family:Times-Roman;font-size:14.00;">
<title>G</title>
<g id="graph2" class="cluster"><title>clusterA</title>
<polygon style="fill:none;stroke:black;" points="6,179 259,179 259,6 6,6 6,179"/>
</g>
<g id="graph3" class="cluster"><title>clusterC</title>
<polygon style="fill:none;stroke:black;" points="14,170 131,170 131,75 14,75 14,170"/>
</g>
<g id="graph4" class="cluster"><title>clusterB</title>
<polygon style="fill:none;stroke:black;" points="277,247 378,247 378,147 277,147 277,247"/>
</g>
<!-- e -->
<g id="node1" class="node"><title>e</title>
<ellipse style="fill:none;stroke:black;" cx="300" cy="277" rx="27" ry="18"/>
<text text-anchor="middle" x="300" y="282">e</text>
</g>
<!-- __0:clusterB -->
<g id="node20" class="node"><title>__0:clusterB</title>
</g>
<!-- e&#45;&#45;__0:clusterB -->
<g id="edge17" class="edge"><title>e&#45;&#45;__0:clusterB</title>
<path style="fill:none;stroke:black;" d="M306,259C307,255 309,251 310,247"/>
</g>
<!-- a -->
<g id="node3" class="node"><title>a</title>
<ellipse style="fill:none;stroke:black;" cx="163" cy="33" rx="27" ry="18"/>
<text text-anchor="middle" x="163" y="38">a</text>
</g>
<!-- b -->
<g id="node5" class="node"><title>b</title>
<ellipse style="fill:none;stroke:black;" cx="223" cy="42" rx="27" ry="18"/>
<text text-anchor="middle" x="223" y="47">b</text>
</g>
<!-- a&#45;&#45;b -->
<g id="edge3" class="edge"><title>a&#45;&#45;b</title>
<path style="fill:none;stroke:black;" d="M189,37C192,37 194,38 197,38"/>
</g>
<!-- C -->
<g id="node7" class="node"><title>C</title>
<ellipse style="fill:none;stroke:black;" cx="96" cy="143" rx="27" ry="18"/>
<text text-anchor="middle" x="96" y="148">C</text>
</g>
<!-- D -->
<g id="node9" class="node"><title>D</title>
<ellipse style="fill:none;stroke:black;" cx="50" cy="102" rx="27" ry="18"/>
<text text-anchor="middle" x="50" y="107">D</text>
</g>
<!-- C&#45;&#45;D -->
<g id="edge6" class="edge"><title>C&#45;&#45;D</title>
<path style="fill:none;stroke:black;" d="M80,128C75,124 71,120 66,117"/>
</g>
<!-- d -->
<g id="node11" class="node"><title>d</title>
<ellipse style="fill:none;stroke:black;" cx="312" cy="175" rx="27" ry="18"/>
<text text-anchor="middle" x="312" y="180">d</text>
</g>
<!-- d&#45;&#45;D -->
<g id="edge11" class="edge"><title>d&#45;&#45;D</title>
<path style="fill:none;stroke:black;" d="M287,168C237,154 125,123 75,109"/>
</g>
<!-- f -->
<g id="node13" class="node"><title>f</title>
<ellipse style="fill:none;stroke:black;" cx="342" cy="220" rx="27" ry="18"/>
<text text-anchor="middle" x="342" y="225">f</text>
</g>
<!-- d&#45;&#45;f -->
<g id="edge9" class="edge"><title>d&#45;&#45;f</title>
<path style="fill:none;stroke:black;" d="M323,192C326,196 328,199 331,203"/>
</g>
<!-- __1:clusterC -->
<g id="node21" class="node"><title>__1:clusterC</title>
</g>
<!-- __2:clusterB -->
<g id="node22" class="node"><title>__2:clusterB</title>
</g>
<!-- __1:clusterC&#45;&#45;__2:clusterB -->
<g id="edge18" class="edge"><title>__1:clusterC&#45;&#45;__2:clusterB</title>
<path style="fill:none;stroke:black;" d="M132,139C176,153 236,170 277,182"/>
</g>
</g>
</svg>
