<?xml version="1.0" encoding="UTF-8" standalone="no"?>
<!DOCTYPE svg PUBLIC "-//W3C//DTD SVG 1.0//EN"
 "http://www.w3.org/TR/2001/REC-SVG-20010904/DTD/svg10.dtd" [
 <!ATTLIST svg xmlns:xlink CDATA #FIXED "http://www.w3.org/1999/xlink">
]>
<!-- Generated by Graphviz version 2.21.0 (Fri Jul 25 17:10:02 UTC 2008)
     For user: (ellson) John Ellson -->
<!-- Title: G Pages: 1 -->
<svg width="482pt" height="490pt"
 viewBox="0.00 0.00 482.00 490.00" xmlns="http://www.w3.org/2000/svg" xmlns:xlink="http://www.w3.org/1999/xlink">
<g id="graph0" class="graph" transform="scale(1 1) rotate(0) translate(4 486)">
<title>G</title>
<polygon style="fill:#ff0000;stroke:#ff0000;" points="-4,4 -4,-486 478,-486 478,4 -4,4"/>
<!-- 1 -->
<g id="node1" class="node"><title>1</title>
<ellipse style="fill:#00ff00;stroke:black;" cx="267" cy="-19" rx="27" ry="18"/>
<text text-anchor="middle" x="267" y="-14.9" style="font-family:Times New Roman;font-size:14.00;">1</text>
</g>
<!-- 30 -->
<g id="node3" class="node"><title>30</title>
<ellipse style="fill:#00ff00;stroke:black;" cx="305" cy="-79" rx="27" ry="18"/>
<text text-anchor="middle" x="305" y="-74.9" style="font-family:Times New Roman;font-size:14.00;">30</text>
</g>
<!-- 1&#45;&#45;30 -->
<g id="edge2" class="edge"><title>1&#45;&#45;30</title>
<path style="fill:none;stroke:black;" d="M278,-36C283,-44 289,-54 295,-62"/>
</g>
<!-- 40 -->
<g id="node5" class="node"><title>40</title>
<ellipse style="fill:#00ff00;stroke:black;" cx="231" cy="-96" rx="27" ry="18"/>
<text text-anchor="middle" x="231" y="-91.9" style="font-family:Times New Roman;font-size:14.00;">40</text>
</g>
<!-- 1&#45;&#45;40 -->
<g id="edge4" class="edge"><title>1&#45;&#45;40</title>
<path style="fill:none;stroke:black;" d="M259,-36C253,-49 245,-66 239,-79"/>
</g>
<!-- 24 -->
<g id="node28" class="node"><title>24</title>
<ellipse style="fill:#00ff00;stroke:black;" cx="370" cy="-157" rx="27" ry="18"/>
<text text-anchor="middle" x="370" y="-152.9" style="font-family:Times New Roman;font-size:14.00;">24</text>
</g>
<!-- 30&#45;&#45;24 -->
<g id="edge46" class="edge"><title>30&#45;&#45;24</title>
<path style="fill:none;stroke:black;" d="M318,-95C329,-109 345,-128 357,-141"/>
</g>
<!-- 44 -->
<g id="node46" class="node"><title>44</title>
<ellipse style="fill:#00ff00;stroke:black;" cx="186" cy="-125" rx="27" ry="18"/>
<text text-anchor="middle" x="186" y="-120.9" style="font-family:Times New Roman;font-size:14.00;">44</text>
</g>
<!-- 30&#45;&#45;44 -->
<g id="edge48" class="edge"><title>30&#45;&#45;44</title>
<path style="fill:none;stroke:black;" d="M281,-88C261,-96 230,-108 209,-116"/>
</g>
<!-- 47 -->
<g id="node33" class="node"><title>47</title>
<ellipse style="fill:#00ff00;stroke:black;" cx="314" cy="-141" rx="27" ry="18"/>
<text text-anchor="middle" x="314" y="-136.9" style="font-family:Times New Roman;font-size:14.00;">47</text>
</g>
<!-- 40&#45;&#45;47 -->
<g id="edge196" class="edge"><title>40&#45;&#45;47</title>
<path style="fill:none;stroke:black;" d="M252,-108C265,-115 280,-123 293,-130"/>
</g>
<!-- 22 -->
<g id="node140" class="node"><title>22</title>
<ellipse style="fill:#00ff00;stroke:black;" cx="137" cy="-102" rx="27" ry="18"/>
<text text-anchor="middle" x="137" y="-97.9" style="font-family:Times New Roman;font-size:14.00;">22</text>
</g>
<!-- 40&#45;&#45;22 -->
<g id="edge194" class="edge"><title>40&#45;&#45;22</title>
<path style="fill:none;stroke:black;" d="M204,-98C191,-98 177,-99 164,-100"/>
</g>
<!-- 8 -->
<g id="node6" class="node"><title>8</title>
<ellipse style="fill:#00ff00;stroke:black;" cx="193" cy="-252" rx="27" ry="18"/>
<text text-anchor="middle" x="193" y="-247.9" style="font-family:Times New Roman;font-size:14.00;">8</text>
</g>
<!-- 46 -->
<g id="node8" class="node"><title>46</title>
<ellipse style="fill:#00ff00;stroke:black;" cx="143" cy="-200" rx="27" ry="18"/>
<text text-anchor="middle" x="143" y="-195.9" style="font-family:Times New Roman;font-size:14.00;">46</text>
</g>
<!-- 8&#45;&#45;46 -->
<g id="edge6" class="edge"><title>8&#45;&#45;46</title>
<path style="fill:none;stroke:black;" d="M178,-237C172,-230 164,-222 158,-215"/>
</g>
<!-- 16 -->
<g id="node10" class="node"><title>16</title>
<ellipse style="fill:#00ff00;stroke:black;" cx="223" cy="-290" rx="27" ry="18"/>
<text text-anchor="middle" x="223" y="-285.9" style="font-family:Times New Roman;font-size:14.00;">16</text>
</g>
<!-- 8&#45;&#45;16 -->
<g id="edge8" class="edge"><title>8&#45;&#45;16</title>
<path style="fill:none;stroke:black;" d="M206,-268C207,-270 209,-272 210,-274"/>
</g>
<!-- 39 -->
<g id="node68" class="node"><title>39</title>
<ellipse style="fill:#00ff00;stroke:black;" cx="285" cy="-225" rx="27" ry="18"/>
<text text-anchor="middle" x="285" y="-220.9" style="font-family:Times New Roman;font-size:14.00;">39</text>
</g>
<!-- 16&#45;&#45;39 -->
<g id="edge124" class="edge"><title>16&#45;&#45;39</title>
<path style="fill:none;stroke:black;" d="M238,-275C248,-264 261,-251 270,-240"/>
</g>
<!-- 50 -->
<g id="node75" class="node"><title>50</title>
<ellipse style="fill:#00ff00;stroke:black;" cx="291" cy="-303" rx="27" ry="18"/>
<text text-anchor="middle" x="291" y="-298.9" style="font-family:Times New Roman;font-size:14.00;">50</text>
</g>
<!-- 16&#45;&#45;50 -->
<g id="edge120" class="edge"><title>16&#45;&#45;50</title>
<path style="fill:none;stroke:black;" d="M249,-295C254,-296 260,-297 265,-298"/>
</g>
<!-- 32 -->
<g id="node85" class="node"><title>32</title>
<ellipse style="fill:#00ff00;stroke:black;" cx="200" cy="-219" rx="27" ry="18"/>
<text text-anchor="middle" x="200" y="-214.9" style="font-family:Times New Roman;font-size:14.00;">32</text>
</g>
<!-- 16&#45;&#45;32 -->
<g id="edge122" class="edge"><title>16&#45;&#45;32</title>
<path style="fill:none;stroke:black;" d="M217,-272C213,-261 209,-247 206,-237"/>
</g>
<!-- 10 -->
<g id="node11" class="node"><title>10</title>
<ellipse style="fill:#00ff00;stroke:black;" cx="211" cy="-340" rx="27" ry="18"/>
<text text-anchor="middle" x="211" y="-335.9" style="font-family:Times New Roman;font-size:14.00;">10</text>
</g>
<!-- 25 -->
<g id="node13" class="node"><title>25</title>
<ellipse style="fill:#00ff00;stroke:black;" cx="288" cy="-280" rx="27" ry="18"/>
<text text-anchor="middle" x="288" y="-275.9" style="font-family:Times New Roman;font-size:14.00;">25</text>
</g>
<!-- 10&#45;&#45;25 -->
<g id="edge10" class="edge"><title>10&#45;&#45;25</title>
<path style="fill:none;stroke:black;" d="M229,-326C242,-316 258,-303 270,-294"/>
</g>
<!-- 19 -->
<g id="node15" class="node"><title>19</title>
<ellipse style="fill:#00ff00;stroke:black;" cx="287" cy="-370" rx="27" ry="18"/>
<text text-anchor="middle" x="287" y="-365.9" style="font-family:Times New Roman;font-size:14.00;">19</text>
</g>
<!-- 10&#45;&#45;19 -->
<g id="edge12" class="edge"><title>10&#45;&#45;19</title>
<path style="fill:none;stroke:black;" d="M235,-349C244,-353 255,-357 264,-361"/>
</g>
<!-- 33 -->
<g id="node17" class="node"><title>33</title>
<ellipse style="fill:#00ff00;stroke:black;" cx="114" cy="-302" rx="27" ry="18"/>
<text text-anchor="middle" x="114" y="-297.9" style="font-family:Times New Roman;font-size:14.00;">33</text>
</g>
<!-- 10&#45;&#45;33 -->
<g id="edge14" class="edge"><title>10&#45;&#45;33</title>
<path style="fill:none;stroke:black;" d="M188,-331C173,-325 153,-317 137,-311"/>
</g>
<!-- 12 -->
<g id="node18" class="node"><title>12</title>
<ellipse style="fill:#00ff00;stroke:black;" cx="315" cy="-246" rx="27" ry="18"/>
<text text-anchor="middle" x="315" y="-241.9" style="font-family:Times New Roman;font-size:14.00;">12</text>
</g>
<!-- 25&#45;&#45;12 -->
<g id="edge36" class="edge"><title>25&#45;&#45;12</title>
<path style="fill:none;stroke:black;" d="M301,-264C301,-263 302,-263 302,-262"/>
</g>
<!-- 27 -->
<g id="node36" class="node"><title>27</title>
<ellipse style="fill:#00ff00;stroke:black;" cx="393" cy="-273" rx="27" ry="18"/>
<text text-anchor="middle" x="393" y="-268.9" style="font-family:Times New Roman;font-size:14.00;">27</text>
</g>
<!-- 25&#45;&#45;27 -->
<g id="edge34" class="edge"><title>25&#45;&#45;27</title>
<path style="fill:none;stroke:black;" d="M315,-278C331,-277 350,-276 366,-275"/>
</g>
<!-- 35 -->
<g id="node49" class="node"><title>35</title>
<ellipse style="fill:#00ff00;stroke:black;" cx="329" cy="-271" rx="27" ry="18"/>
<text text-anchor="middle" x="329" y="-266.9" style="font-family:Times New Roman;font-size:14.00;">35</text>
</g>
<!-- 19&#45;&#45;35 -->
<g id="edge144" class="edge"><title>19&#45;&#45;35</title>
<path style="fill:none;stroke:black;" d="M295,-352C303,-334 314,-307 322,-289"/>
</g>
<!-- 15 -->
<g id="node98" class="node"><title>15</title>
<ellipse style="fill:#00ff00;stroke:black;" cx="231" cy="-389" rx="27" ry="18"/>
<text text-anchor="middle" x="231" y="-384.9" style="font-family:Times New Roman;font-size:14.00;">15</text>
</g>
<!-- 19&#45;&#45;15 -->
<g id="edge146" class="edge"><title>19&#45;&#45;15</title>
<path style="fill:none;stroke:black;" d="M263,-378C260,-379 258,-380 255,-381"/>
</g>
<!-- 43 -->
<g id="node119" class="node"><title>43</title>
<ellipse style="fill:#00ff00;stroke:black;" cx="247" cy="-326" rx="27" ry="18"/>
<text text-anchor="middle" x="247" y="-321.9" style="font-family:Times New Roman;font-size:14.00;">43</text>
</g>
<!-- 19&#45;&#45;43 -->
<g id="edge148" class="edge"><title>19&#45;&#45;43</title>
<path style="fill:none;stroke:black;" d="M273,-354C269,-350 265,-346 261,-342"/>
</g>
<!-- 33&#45;&#45;46 -->
<g id="edge130" class="edge"><title>33&#45;&#45;46</title>
<path style="fill:none;stroke:black;" d="M119,-284C124,-266 132,-237 138,-218"/>
</g>
<!-- 9 -->
<g id="node95" class="node"><title>9</title>
<ellipse style="fill:#00ff00;stroke:black;" cx="151" cy="-346" rx="27" ry="18"/>
<text text-anchor="middle" x="151" y="-341.9" style="font-family:Times New Roman;font-size:14.00;">9</text>
</g>
<!-- 33&#45;&#45;9 -->
<g id="edge128" class="edge"><title>33&#45;&#45;9</title>
<path style="fill:none;stroke:black;" d="M127,-318C131,-322 134,-326 138,-330"/>
</g>
<!-- 48 -->
<g id="node101" class="node"><title>48</title>
<ellipse style="fill:#00ff00;stroke:black;" cx="132" cy="-396" rx="27" ry="18"/>
<text text-anchor="middle" x="132" y="-391.9" style="font-family:Times New Roman;font-size:14.00;">48</text>
</g>
<!-- 33&#45;&#45;48 -->
<g id="edge132" class="edge"><title>33&#45;&#45;48</title>
<path style="fill:none;stroke:black;" d="M117,-320C121,-337 125,-361 129,-378"/>
</g>
<!-- 12&#45;&#45;8 -->
<g id="edge16" class="edge"><title>12&#45;&#45;8</title>
<path style="fill:none;stroke:black;" d="M288,-247C268,-248 240,-250 220,-251"/>
</g>
<!-- 36 -->
<g id="node21" class="node"><title>36</title>
<ellipse style="fill:#00ff00;stroke:black;" cx="260" cy="-146" rx="27" ry="18"/>
<text text-anchor="middle" x="260" y="-141.9" style="font-family:Times New Roman;font-size:14.00;">36</text>
</g>
<!-- 12&#45;&#45;36 -->
<g id="edge18" class="edge"><title>12&#45;&#45;36</title>
<path style="fill:none;stroke:black;" d="M306,-229C296,-211 280,-182 269,-163"/>
</g>
<!-- 17 -->
<g id="node23" class="node"><title>17</title>
<ellipse style="fill:#00ff00;stroke:black;" cx="353" cy="-333" rx="27" ry="18"/>
<text text-anchor="middle" x="353" y="-328.9" style="font-family:Times New Roman;font-size:14.00;">17</text>
</g>
<!-- 12&#45;&#45;17 -->
<g id="edge20" class="edge"><title>12&#45;&#45;17</title>
<path style="fill:none;stroke:black;" d="M323,-264C330,-279 339,-300 345,-315"/>
</g>
<!-- 36&#45;&#45;46 -->
<g id="edge166" class="edge"><title>36&#45;&#45;46</title>
<path style="fill:none;stroke:black;" d="M238,-156C217,-166 186,-180 165,-190"/>
</g>
<!-- 21 -->
<g id="node115" class="node"><title>21</title>
<ellipse style="fill:#00ff00;stroke:black;" cx="347" cy="-388" rx="27" ry="18"/>
<text text-anchor="middle" x="347" y="-383.9" style="font-family:Times New Roman;font-size:14.00;">21</text>
</g>
<!-- 17&#45;&#45;21 -->
<g id="edge142" class="edge"><title>17&#45;&#45;21</title>
<path style="fill:none;stroke:black;" d="M351,-351C350,-357 350,-364 349,-370"/>
</g>
<!-- 13 -->
<g id="node24" class="node"><title>13</title>
<ellipse style="fill:#00ff00;stroke:black;" cx="446" cy="-223" rx="27" ry="18"/>
<text text-anchor="middle" x="446" y="-218.9" style="font-family:Times New Roman;font-size:14.00;">13</text>
</g>
<!-- 38 -->
<g id="node26" class="node"><title>38</title>
<ellipse style="fill:#00ff00;stroke:black;" cx="370" cy="-283" rx="27" ry="18"/>
<text text-anchor="middle" x="370" y="-278.9" style="font-family:Times New Roman;font-size:14.00;">38</text>
</g>
<!-- 13&#45;&#45;38 -->
<g id="edge22" class="edge"><title>13&#45;&#45;38</title>
<path style="fill:none;stroke:black;" d="M428,-237C416,-247 400,-260 388,-269"/>
</g>
<!-- 13&#45;&#45;24 -->
<g id="edge24" class="edge"><title>13&#45;&#45;24</title>
<path style="fill:none;stroke:black;" d="M435,-206C423,-194 405,-179 391,-168"/>
</g>
<!-- 29 -->
<g id="node41" class="node"><title>29</title>
<ellipse style="fill:#00ff00;stroke:black;" cx="239" cy="-269" rx="27" ry="18"/>
<text text-anchor="middle" x="239" y="-264.9" style="font-family:Times New Roman;font-size:14.00;">29</text>
</g>
<!-- 38&#45;&#45;29 -->
<g id="edge50" class="edge"><title>38&#45;&#45;29</title>
<path style="fill:none;stroke:black;" d="M343,-280C321,-278 288,-274 266,-272"/>
</g>
<!-- 38&#45;&#45;35 -->
<g id="edge52" class="edge"><title>38&#45;&#45;35</title>
<path style="fill:none;stroke:black;" d="M345,-276C345,-276 345,-276 345,-276"/>
</g>
<!-- 24&#45;&#45;12 -->
<g id="edge32" class="edge"><title>24&#45;&#45;12</title>
<path style="fill:none;stroke:black;" d="M360,-174C350,-190 335,-213 326,-229"/>
</g>
<!-- 24&#45;&#45;13 -->
<g id="edge28" class="edge"><title>24&#45;&#45;13</title>
<path style="fill:none;stroke:black;" d="M381,-174C393,-186 411,-201 425,-212"/>
</g>
<!-- 49 -->
<g id="node30" class="node"><title>49</title>
<ellipse style="fill:#00ff00;stroke:black;" cx="443" cy="-143" rx="27" ry="18"/>
<text text-anchor="middle" x="443" y="-138.9" style="font-family:Times New Roman;font-size:14.00;">49</text>
</g>
<!-- 24&#45;&#45;49 -->
<g id="edge26" class="edge"><title>24&#45;&#45;49</title>
<path style="fill:none;stroke:black;" d="M396,-152C403,-151 410,-149 417,-148"/>
</g>
<!-- 24&#45;&#45;47 -->
<g id="edge30" class="edge"><title>24&#45;&#45;47</title>
<path style="fill:none;stroke:black;" d="M345,-150C343,-149 341,-149 339,-148"/>
</g>
<!-- 27&#45;&#45;12 -->
<g id="edge38" class="edge"><title>27&#45;&#45;12</title>
<path style="fill:none;stroke:black;" d="M369,-265C359,-262 349,-258 339,-255"/>
</g>
<!-- 14 -->
<g id="node40" class="node"><title>14</title>
<ellipse style="fill:#00ff00;stroke:black;" cx="355" cy="-203" rx="27" ry="18"/>
<text text-anchor="middle" x="355" y="-198.9" style="font-family:Times New Roman;font-size:14.00;">14</text>
</g>
<!-- 27&#45;&#45;14 -->
<g id="edge40" class="edge"><title>27&#45;&#45;14</title>
<path style="fill:none;stroke:black;" d="M384,-256C378,-245 371,-231 365,-220"/>
</g>
<!-- 14&#45;&#45;38 -->
<g id="edge64" class="edge"><title>14&#45;&#45;38</title>
<path style="fill:none;stroke:black;" d="M358,-221C361,-234 364,-252 367,-265"/>
</g>
<!-- 14&#45;&#45;24 -->
<g id="edge62" class="edge"><title>14&#45;&#45;24</title>
<path style="fill:none;stroke:black;" d="M361,-185C362,-182 363,-178 364,-175"/>
</g>
<!-- 18 -->
<g id="node57" class="node"><title>18</title>
<ellipse style="fill:#00ff00;stroke:black;" cx="382" cy="-206" rx="27" ry="18"/>
<text text-anchor="middle" x="382" y="-201.9" style="font-family:Times New Roman;font-size:14.00;">18</text>
</g>
<!-- 14&#45;&#45;18 -->
<g id="edge60" class="edge"><title>14&#45;&#45;18</title>
<path style="fill:none;stroke:black;" d="M382,-206C382,-206 382,-206 382,-206"/>
</g>
<!-- 29&#45;&#45;8 -->
<g id="edge44" class="edge"><title>29&#45;&#45;8</title>
<path style="fill:none;stroke:black;" d="M215,-260C215,-260 215,-260 215,-260"/>
</g>
<!-- 29&#45;&#45;10 -->
<g id="edge42" class="edge"><title>29&#45;&#45;10</title>
<path style="fill:none;stroke:black;" d="M232,-287C228,-298 222,-312 218,-322"/>
</g>
<!-- 37 -->
<g id="node71" class="node"><title>37</title>
<ellipse style="fill:#00ff00;stroke:black;" cx="129" cy="-225" rx="27" ry="18"/>
<text text-anchor="middle" x="129" y="-220.9" style="font-family:Times New Roman;font-size:14.00;">37</text>
</g>
<!-- 44&#45;&#45;37 -->
<g id="edge100" class="edge"><title>44&#45;&#45;37</title>
<path style="fill:none;stroke:black;" d="M176,-142C166,-160 149,-189 139,-208"/>
</g>
<!-- 44&#45;&#45;32 -->
<g id="edge102" class="edge"><title>44&#45;&#45;32</title>
<path style="fill:none;stroke:black;" d="M189,-143C191,-159 195,-184 197,-201"/>
</g>
<!-- 35&#45;&#45;16 -->
<g id="edge162" class="edge"><title>35&#45;&#45;16</title>
<path style="fill:none;stroke:black;" d="M303,-276C286,-279 265,-282 249,-285"/>
</g>
<!-- 35&#45;&#45;18 -->
<g id="edge164" class="edge"><title>35&#45;&#45;18</title>
<path style="fill:none;stroke:black;" d="M342,-255C350,-245 361,-232 369,-222"/>
</g>
<!-- 34 -->
<g id="node124" class="node"><title>34</title>
<ellipse style="fill:#00ff00;stroke:black;" cx="408" cy="-189" rx="27" ry="18"/>
<text text-anchor="middle" x="408" y="-184.9" style="font-family:Times New Roman;font-size:14.00;">34</text>
</g>
<!-- 35&#45;&#45;34 -->
<g id="edge160" class="edge"><title>35&#45;&#45;34</title>
<path style="fill:none;stroke:black;" d="M344,-256C358,-241 379,-219 393,-204"/>
</g>
<!-- 2 -->
<g id="node50" class="node"><title>2</title>
<ellipse style="fill:#00ff00;stroke:black;" cx="285" cy="-187" rx="27" ry="18"/>
<text text-anchor="middle" x="285" y="-182.9" style="font-family:Times New Roman;font-size:14.00;">2</text>
</g>
<!-- 2&#45;&#45;35 -->
<g id="edge56" class="edge"><title>2&#45;&#45;35</title>
<path style="fill:none;stroke:black;" d="M294,-204C302,-219 312,-239 320,-254"/>
</g>
<!-- 42 -->
<g id="node52" class="node"><title>42</title>
<ellipse style="fill:#00ff00;stroke:black;" cx="179" cy="-176" rx="27" ry="18"/>
<text text-anchor="middle" x="179" y="-171.9" style="font-family:Times New Roman;font-size:14.00;">42</text>
</g>
<!-- 2&#45;&#45;42 -->
<g id="edge54" class="edge"><title>2&#45;&#45;42</title>
<path style="fill:none;stroke:black;" d="M258,-184C242,-182 222,-180 206,-179"/>
</g>
<!-- 11 -->
<g id="node55" class="node"><title>11</title>
<ellipse style="fill:#00ff00;stroke:black;" cx="244" cy="-214" rx="27" ry="18"/>
<text text-anchor="middle" x="244" y="-209.9" style="font-family:Times New Roman;font-size:14.00;">11</text>
</g>
<!-- 2&#45;&#45;11 -->
<g id="edge58" class="edge"><title>2&#45;&#45;11</title>
<path style="fill:none;stroke:black;" d="M265,-200C265,-200 264,-201 264,-201"/>
</g>
<!-- 42&#45;&#45;29 -->
<g id="edge98" class="edge"><title>42&#45;&#45;29</title>
<path style="fill:none;stroke:black;" d="M190,-193C201,-209 218,-236 228,-252"/>
</g>
<!-- 42&#45;&#45;44 -->
<g id="edge96" class="edge"><title>42&#45;&#45;44</title>
<path style="fill:none;stroke:black;" d="M181,-158C182,-153 182,-148 183,-143"/>
</g>
<!-- 11&#45;&#45;40 -->
<g id="edge178" class="edge"><title>11&#45;&#45;40</title>
<path style="fill:none;stroke:black;" d="M242,-196C239,-174 235,-136 233,-114"/>
</g>
<!-- 11&#45;&#45;50 -->
<g id="edge180" class="edge"><title>11&#45;&#45;50</title>
<path style="fill:none;stroke:black;" d="M253,-231C262,-247 274,-270 282,-286"/>
</g>
<!-- 18&#45;&#45;49 -->
<g id="edge66" class="edge"><title>18&#45;&#45;49</title>
<path style="fill:none;stroke:black;" d="M397,-191C406,-181 419,-168 428,-159"/>
</g>
<!-- 18&#45;&#45;47 -->
<g id="edge68" class="edge"><title>18&#45;&#45;47</title>
<path style="fill:none;stroke:black;" d="M366,-191C355,-181 341,-167 330,-156"/>
</g>
<!-- 26 -->
<g id="node62" class="node"><title>26</title>
<ellipse style="fill:#00ff00;stroke:black;" cx="86" cy="-171" rx="27" ry="18"/>
<text text-anchor="middle" x="86" y="-166.9" style="font-family:Times New Roman;font-size:14.00;">26</text>
</g>
<!-- 26&#45;&#45;42 -->
<g id="edge72" class="edge"><title>26&#45;&#45;42</title>
<path style="fill:none;stroke:black;" d="M113,-172C125,-173 140,-174 152,-174"/>
</g>
<!-- 41 -->
<g id="node64" class="node"><title>41</title>
<ellipse style="fill:#00ff00;stroke:black;" cx="142" cy="-167" rx="27" ry="18"/>
<text text-anchor="middle" x="142" y="-162.9" style="font-family:Times New Roman;font-size:14.00;">41</text>
</g>
<!-- 26&#45;&#45;41 -->
<g id="edge70" class="edge"><title>26&#45;&#45;41</title>
<path style="fill:none;stroke:black;" d="M113,-169C114,-169 114,-169 115,-169"/>
</g>
<!-- 41&#45;&#45;8 -->
<g id="edge94" class="edge"><title>41&#45;&#45;8</title>
<path style="fill:none;stroke:black;" d="M152,-184C161,-199 174,-220 183,-235"/>
</g>
<!-- 31 -->
<g id="node66" class="node"><title>31</title>
<ellipse style="fill:#00ff00;stroke:black;" cx="240" cy="-174" rx="27" ry="18"/>
<text text-anchor="middle" x="240" y="-169.9" style="font-family:Times New Roman;font-size:14.00;">31</text>
</g>
<!-- 41&#45;&#45;31 -->
<g id="edge92" class="edge"><title>41&#45;&#45;31</title>
<path style="fill:none;stroke:black;" d="M169,-169C183,-170 199,-171 213,-172"/>
</g>
<!-- 31&#45;&#45;25 -->
<g id="edge78" class="edge"><title>31&#45;&#45;25</title>
<path style="fill:none;stroke:black;" d="M248,-192C257,-212 271,-243 280,-263"/>
</g>
<!-- 31&#45;&#45;47 -->
<g id="edge76" class="edge"><title>31&#45;&#45;47</title>
<path style="fill:none;stroke:black;" d="M263,-164C272,-160 282,-155 291,-151"/>
</g>
<!-- 31&#45;&#45;39 -->
<g id="edge74" class="edge"><title>31&#45;&#45;39</title>
<path style="fill:none;stroke:black;" d="M254,-190C259,-196 266,-203 271,-209"/>
</g>
<!-- 39&#45;&#45;47 -->
<g id="edge90" class="edge"><title>39&#45;&#45;47</title>
<path style="fill:none;stroke:black;" d="M291,-207C296,-193 303,-173 308,-159"/>
</g>
<!-- 39&#45;&#45;14 -->
<g id="edge86" class="edge"><title>39&#45;&#45;14</title>
<path style="fill:none;stroke:black;" d="M309,-217C316,-215 324,-213 330,-211"/>
</g>
<!-- 39&#45;&#45;18 -->
<g id="edge88" class="edge"><title>39&#45;&#45;18</title>
<path style="fill:none;stroke:black;" d="M311,-220C325,-217 342,-214 356,-211"/>
</g>
<!-- 39&#45;&#45;50 -->
<g id="edge84" class="edge"><title>39&#45;&#45;50</title>
<path style="fill:none;stroke:black;" d="M286,-243C287,-256 288,-272 290,-285"/>
</g>
<!-- 37&#45;&#45;16 -->
<g id="edge82" class="edge"><title>37&#45;&#45;16</title>
<path style="fill:none;stroke:black;" d="M148,-238C164,-249 188,-266 204,-277"/>
</g>
<!-- 37&#45;&#45;26 -->
<g id="edge80" class="edge"><title>37&#45;&#45;26</title>
<path style="fill:none;stroke:black;" d="M116,-209C111,-202 104,-194 99,-187"/>
</g>
<!-- 32&#45;&#45;42 -->
<g id="edge192" class="edge"><title>32&#45;&#45;42</title>
<path style="fill:none;stroke:black;" d="M191,-202C190,-199 189,-196 187,-193"/>
</g>
<!-- 32&#45;&#45;39 -->
<g id="edge190" class="edge"><title>32&#45;&#45;39</title>
<path style="fill:none;stroke:black;" d="M227,-221C237,-222 248,-223 258,-223"/>
</g>
<!-- 28 -->
<g id="node90" class="node"><title>28</title>
<ellipse style="fill:#00ff00;stroke:black;" cx="157" cy="-306" rx="27" ry="18"/>
<text text-anchor="middle" x="157" y="-301.9" style="font-family:Times New Roman;font-size:14.00;">28</text>
</g>
<!-- 32&#45;&#45;28 -->
<g id="edge188" class="edge"><title>32&#45;&#45;28</title>
<path style="fill:none;stroke:black;" d="M192,-236C184,-252 173,-274 166,-289"/>
</g>
<!-- 3 -->
<g id="node86" class="node"><title>3</title>
<ellipse style="fill:#00ff00;stroke:black;" cx="68" cy="-340" rx="27" ry="18"/>
<text text-anchor="middle" x="68" y="-335.9" style="font-family:Times New Roman;font-size:14.00;">3</text>
</g>
<!-- 20 -->
<g id="node88" class="node"><title>20</title>
<ellipse style="fill:#00ff00;stroke:black;" cx="28" cy="-305" rx="27" ry="18"/>
<text text-anchor="middle" x="28" y="-300.9" style="font-family:Times New Roman;font-size:14.00;">20</text>
</g>
<!-- 3&#45;&#45;20 -->
<g id="edge104" class="edge"><title>3&#45;&#45;20</title>
<path style="fill:none;stroke:black;" d="M51,-325C49,-323 46,-321 44,-319"/>
</g>
<!-- 3&#45;&#45;28 -->
<g id="edge106" class="edge"><title>3&#45;&#45;28</title>
<path style="fill:none;stroke:black;" d="M92,-331C105,-326 120,-320 133,-315"/>
</g>
<!-- 20&#45;&#45;33 -->
<g id="edge126" class="edge"><title>20&#45;&#45;33</title>
<path style="fill:none;stroke:black;" d="M55,-304C65,-304 77,-303 87,-303"/>
</g>
<!-- 28&#45;&#45;8 -->
<g id="edge186" class="edge"><title>28&#45;&#45;8</title>
<path style="fill:none;stroke:black;" d="M168,-290C173,-283 178,-275 182,-269"/>
</g>
<!-- 28&#45;&#45;43 -->
<g id="edge184" class="edge"><title>28&#45;&#45;43</title>
<path style="fill:none;stroke:black;" d="M183,-312C195,-315 209,-318 221,-320"/>
</g>
<!-- 6 -->
<g id="node91" class="node"><title>6</title>
<ellipse style="fill:#00ff00;stroke:black;" cx="152" cy="-408" rx="27" ry="18"/>
<text text-anchor="middle" x="152" y="-403.9" style="font-family:Times New Roman;font-size:14.00;">6</text>
</g>
<!-- 6&#45;&#45;28 -->
<g id="edge110" class="edge"><title>6&#45;&#45;28</title>
<path style="fill:none;stroke:black;" d="M153,-390C154,-371 155,-343 156,-324"/>
</g>
<!-- 45 -->
<g id="node93" class="node"><title>45</title>
<ellipse style="fill:#00ff00;stroke:black;" cx="209" cy="-463" rx="27" ry="18"/>
<text text-anchor="middle" x="209" y="-458.9" style="font-family:Times New Roman;font-size:14.00;">45</text>
</g>
<!-- 6&#45;&#45;45 -->
<g id="edge108" class="edge"><title>6&#45;&#45;45</title>
<path style="fill:none;stroke:black;" d="M168,-423C176,-431 185,-440 193,-448"/>
</g>
<!-- 45&#45;&#45;15 -->
<g id="edge134" class="edge"><title>45&#45;&#45;15</title>
<path style="fill:none;stroke:black;" d="M214,-445C218,-433 222,-418 226,-407"/>
</g>
<!-- 9&#45;&#45;16 -->
<g id="edge114" class="edge"><title>9&#45;&#45;16</title>
<path style="fill:none;stroke:black;" d="M169,-332C180,-324 194,-313 205,-304"/>
</g>
<!-- 9&#45;&#45;6 -->
<g id="edge112" class="edge"><title>9&#45;&#45;6</title>
<path style="fill:none;stroke:black;" d="M151,-364C151,-372 152,-382 152,-390"/>
</g>
<!-- 15&#45;&#45;16 -->
<g id="edge116" class="edge"><title>15&#45;&#45;16</title>
<path style="fill:none;stroke:black;" d="M230,-371C228,-353 226,-326 224,-308"/>
</g>
<!-- 15&#45;&#45;48 -->
<g id="edge118" class="edge"><title>15&#45;&#45;48</title>
<path style="fill:none;stroke:black;" d="M204,-391C190,-392 173,-393 159,-394"/>
</g>
<!-- 4 -->
<g id="node110" class="node"><title>4</title>
<ellipse style="fill:#00ff00;stroke:black;" cx="318" cy="-365" rx="27" ry="18"/>
<text text-anchor="middle" x="318" y="-360.9" style="font-family:Times New Roman;font-size:14.00;">4</text>
</g>
<!-- 4&#45;&#45;12 -->
<g id="edge140" class="edge"><title>4&#45;&#45;12</title>
<path style="fill:none;stroke:black;" d="M318,-347C317,-325 316,-287 316,-264"/>
</g>
<!-- 4&#45;&#45;17 -->
<g id="edge136" class="edge"><title>4&#45;&#45;17</title>
<path style="fill:none;stroke:black;" d="M334,-350C335,-349 336,-348 337,-348"/>
</g>
<!-- 4&#45;&#45;15 -->
<g id="edge138" class="edge"><title>4&#45;&#45;15</title>
<path style="fill:none;stroke:black;" d="M293,-372C281,-375 268,-379 256,-382"/>
</g>
<!-- 21&#45;&#45;19 -->
<g id="edge150" class="edge"><title>21&#45;&#45;19</title>
<path style="fill:none;stroke:black;" d="M322,-381C319,-380 315,-379 312,-378"/>
</g>
<!-- 21&#45;&#45;50 -->
<g id="edge152" class="edge"><title>21&#45;&#45;50</title>
<path style="fill:none;stroke:black;" d="M336,-371C326,-356 312,-334 302,-320"/>
</g>
<!-- 43&#45;&#45;17 -->
<g id="edge200" class="edge"><title>43&#45;&#45;17</title>
<path style="fill:none;stroke:black;" d="M274,-328C290,-329 310,-330 326,-331"/>
</g>
<!-- 43&#45;&#45;11 -->
<g id="edge198" class="edge"><title>43&#45;&#45;11</title>
<path style="fill:none;stroke:black;" d="M247,-308C246,-287 245,-253 245,-232"/>
</g>
<!-- 23 -->
<g id="node122" class="node"><title>23</title>
<ellipse style="fill:#00ff00;stroke:black;" cx="372" cy="-97" rx="27" ry="18"/>
<text text-anchor="middle" x="372" y="-92.9" style="font-family:Times New Roman;font-size:14.00;">23</text>
</g>
<!-- 23&#45;&#45;36 -->
<g id="edge154" class="edge"><title>23&#45;&#45;36</title>
<path style="fill:none;stroke:black;" d="M349,-107C330,-115 302,-128 283,-136"/>
</g>
<!-- 34&#45;&#45;24 -->
<g id="edge158" class="edge"><title>34&#45;&#45;24</title>
<path style="fill:none;stroke:black;" d="M391,-175C390,-174 388,-172 387,-171"/>
</g>
<!-- 34&#45;&#45;23 -->
<g id="edge156" class="edge"><title>34&#45;&#45;23</title>
<path style="fill:none;stroke:black;" d="M401,-171C395,-155 385,-131 379,-114"/>
</g>
<!-- 5 -->
<g id="node131" class="node"><title>5</title>
<ellipse style="fill:#00ff00;stroke:black;" cx="262" cy="-70" rx="27" ry="18"/>
<text text-anchor="middle" x="262" y="-65.9" style="font-family:Times New Roman;font-size:14.00;">5</text>
</g>
<!-- 5&#45;&#45;36 -->
<g id="edge170" class="edge"><title>5&#45;&#45;36</title>
<path style="fill:none;stroke:black;" d="M262,-88C261,-100 261,-116 261,-128"/>
</g>
<!-- 7 -->
<g id="node133" class="node"><title>7</title>
<ellipse style="fill:#00ff00;stroke:black;" cx="283" cy="-152" rx="27" ry="18"/>
<text text-anchor="middle" x="283" y="-147.9" style="font-family:Times New Roman;font-size:14.00;">7</text>
</g>
<!-- 5&#45;&#45;7 -->
<g id="edge168" class="edge"><title>5&#45;&#45;7</title>
<path style="fill:none;stroke:black;" d="M267,-88C270,-102 275,-120 279,-134"/>
</g>
<!-- 7&#45;&#45;14 -->
<g id="edge176" class="edge"><title>7&#45;&#45;14</title>
<path style="fill:none;stroke:black;" d="M302,-165C313,-173 326,-182 336,-190"/>
</g>
<!-- 7&#45;&#45;11 -->
<g id="edge174" class="edge"><title>7&#45;&#45;11</title>
<path style="fill:none;stroke:black;" d="M273,-169C267,-178 260,-189 255,-197"/>
</g>
<!-- 7&#45;&#45;32 -->
<g id="edge172" class="edge"><title>7&#45;&#45;32</title>
<path style="fill:none;stroke:black;" d="M266,-166C251,-178 231,-194 217,-205"/>
</g>
<!-- 22&#45;&#45;46 -->
<g id="edge182" class="edge"><title>22&#45;&#45;46</title>
<path style="fill:none;stroke:black;" d="M138,-120C139,-138 141,-165 142,-182"/>
</g>
</g>
</svg>
