<?xml version="1.0" encoding="UTF-8" standalone="no"?>
<!DOCTYPE svg PUBLIC "-//W3C//DTD SVG 1.1//EN"
 "http://www.w3.org/Graphics/SVG/1.1/DTD/svg11.dtd">
<!-- Generated by graphviz version 2.29.0 (20120110.1522)
 -->
<!-- Title: g Pages: 1 -->
<svg width="828pt" height="613pt"
 viewBox="0.00 0.00 828.00 613.00" xmlns="http://www.w3.org/2000/svg" xmlns:xlink="http://www.w3.org/1999/xlink">
<g id="graph1" class="graph" transform="scale(1 1) rotate(0) translate(4 609)">
<title>g</title>
<defs>
<linearGradient id="l_0" gradientUnits="userSpaceOnUse" x1="410.5" y1="-609" x2="410.5" y2="5" >
<stop offset="0" style="stop-color:white;stop-opacity:1.;"/>
<stop offset="1" style="stop-color:lightblue;stop-opacity:1.;"/>
</linearGradient>
</defs>
<polygon fill="url(#l_0)" stroke="none" points="-4,5 -4,-609 825,-609 825,5 -4,5"/>
<!-- node0 -->
<g id="node1" class="node"><title>node0</title>
<defs>
<linearGradient id="l_1" gradientUnits="userSpaceOnUse" x1="37" y1="-444" x2="37" y2="-496" >
<stop offset="0" style="stop-color:yellow;stop-opacity:1.;"/>
<stop offset="1" style="stop-color:blue;stop-opacity:1.;"/>
</linearGradient>
</defs>
<polygon fill="url(#l_1)" stroke="black" points="0.5,-444 0.5,-496 73.5,-496 73.5,-444 0.5,-444"/>
<text text-anchor="middle" x="37" y="-479.2" font-family="Times,serif" font-size="16.00">0x10ba8</text>
<polyline fill="none" stroke="black" points="0.5,-470 73.5,-470 "/>
<text text-anchor="middle" x="37" y="-453.2" font-family="Times,serif" font-size="16.00"> </text>
</g>
<!-- node1 -->
<g id="node2" class="node"><title>node1</title>
<defs>
<linearGradient id="l_2" gradientUnits="userSpaceOnUse" x1="110" y1="-493" x2="202" y2="-493" >
<stop offset="0" style="stop-color:blue;stop-opacity:1.;"/>
<stop offset="1" style="stop-color:red;stop-opacity:1.;"/>
</linearGradient>
</defs>
<polygon fill="url(#l_2)" stroke="black" points="110,-441 110,-545 202,-545 202,-441 110,-441"/>
<text text-anchor="middle" x="156" y="-528.2" font-family="Times,serif" font-size="16.00">0xf7fc4380</text>
<polyline fill="none" stroke="black" points="110,-519 202,-519 "/>
<text text-anchor="middle" x="156" y="-502.2" font-family="Times,serif" font-size="16.00"> </text>
<polyline fill="none" stroke="black" points="110,-493 202,-493 "/>
<text text-anchor="middle" x="156" y="-476.2" font-family="Times,serif" font-size="16.00"> </text>
<polyline fill="none" stroke="black" points="110,-467 202,-467 "/>
<text text-anchor="middle" x="156" y="-450.2" font-family="Times,serif" font-size="16.00">&#45;1</text>
</g>
<!-- node0&#45;&gt;node1 -->
<g id="0" class="edge"><title>node0:f0&#45;&gt;node1:f0</title>
<path fill="none" stroke="black" d="M74,-483C96.8011,-483 87.5158,-517.884 100.29,-528.785"/>
<polygon fill="black" stroke="black" points="99.4067,-532.179 110,-532 101.607,-525.534 99.4067,-532.179"/>
</g>
<!-- node2 -->
<g id="node3" class="node"><title>node2</title>
<defs>
<linearGradient id="l_3" gradientUnits="userSpaceOnUse" x1="156" y1="-318" x2="156" y2="-422" >
<stop offset="0" style="stop-color:brown;stop-opacity:1.;"/>
<stop offset="1" style="stop-color:yellow;stop-opacity:1.;"/>
</linearGradient>
</defs>
<polygon fill="url(#l_3)" stroke="black" points="110,-318 110,-422 202,-422 202,-318 110,-318"/>
<text text-anchor="middle" x="156" y="-405.2" font-family="Times,serif" font-size="16.00">0xf7fc44b8</text>
<polyline fill="none" stroke="black" points="110,-396 202,-396 "/>
<text text-anchor="middle" x="156" y="-379.2" font-family="Times,serif" font-size="16.00"> </text>
<polyline fill="none" stroke="black" points="110,-370 202,-370 "/>
<text text-anchor="middle" x="156" y="-353.2" font-family="Times,serif" font-size="16.00"> </text>
<polyline fill="none" stroke="black" points="110,-344 202,-344 "/>
<text text-anchor="middle" x="156" y="-327.2" font-family="Times,serif" font-size="16.00">2</text>
</g>
<!-- node0&#45;&gt;node2 -->
<g id="1" class="edge"><title>node0:f1&#45;&gt;node2:f0</title>
<path fill="none" stroke="black" d="M74,-457C96.5,-457 87.6758,-422.828 100.387,-412.149"/>
<polygon fill="black" stroke="black" points="101.587,-415.439 110,-409 99.4073,-408.787 101.587,-415.439"/>
</g>
<!-- node3 -->
<g id="node4" class="node"><title>node3</title>
<defs>
<linearGradient id="l_4" gradientUnits="userSpaceOnUse" x1="721" y1="-501" x2="721" y2="-605" >
<stop offset="0" style="stop-color:green;stop-opacity:1.;"/>
<stop offset="1" style="stop-color:red;stop-opacity:1.;"/>
</linearGradient>
</defs>
<polygon fill="url(#l_4)" stroke="black" points="622.5,-501 622.5,-605 819.5,-605 819.5,-501 622.5,-501"/>
<text text-anchor="middle" x="721" y="-588.2" font-family="Times,serif" font-size="16.00">3.43322790286038071e&#45;06</text>
<polyline fill="none" stroke="black" points="622.5,-579 819.5,-579 "/>
<text text-anchor="middle" x="721" y="-562.2" font-family="Times,serif" font-size="16.00">44.79998779296875</text>
<polyline fill="none" stroke="black" points="622.5,-553 819.5,-553 "/>
<text text-anchor="middle" x="721" y="-536.2" font-family="Times,serif" font-size="16.00">0</text>
<polyline fill="none" stroke="black" points="622.5,-527 819.5,-527 "/>
<text text-anchor="middle" x="721" y="-510.2" font-family="Times,serif" font-size="16.00"> </text>
</g>
<!-- node1&#45;&gt;node3 -->
<g id="2" class="edge"><title>node1:f0&#45;&gt;node3:f0</title>
<path fill="none" stroke="black" d="M202,-532C220.092,-532 220.695,-545.723 238,-551 398.806,-600.038 448.338,-592.347 611.594,-592.011"/>
<polygon fill="black" stroke="black" points="612.004,-595.511 622,-592 611.996,-588.511 612.004,-595.511"/>
</g>
<!-- node4 -->
<g id="node5" class="node"><title>node4</title>
<defs>
<linearGradient id="l_5" gradientUnits="userSpaceOnUse" x1="238" y1="-467" x2="330" y2="-467" >
<stop offset="0" style="stop-color:red;stop-opacity:1.;"/>
<stop offset="1" style="stop-color:green;stop-opacity:1.;"/>
</linearGradient>
</defs>
<polygon fill="url(#l_5)" stroke="black" points="238,-415 238,-519 330,-519 330,-415 238,-415"/>
<text text-anchor="middle" x="284" y="-502.2" font-family="Times,serif" font-size="16.00">0xf7fc4380</text>
<polyline fill="none" stroke="black" points="238,-493 330,-493 "/>
<text text-anchor="middle" x="284" y="-476.2" font-family="Times,serif" font-size="16.00"> </text>
<polyline fill="none" stroke="black" points="238,-467 330,-467 "/>
<text text-anchor="middle" x="284" y="-450.2" font-family="Times,serif" font-size="16.00"> </text>
<polyline fill="none" stroke="black" points="238,-441 330,-441 "/>
<text text-anchor="middle" x="284" y="-424.2" font-family="Times,serif" font-size="16.00">2</text>
</g>
<!-- node1&#45;&gt;node4 -->
<g id="3" class="edge"><title>node1:f1&#45;&gt;node4:f0</title>
<path fill="none" stroke="black" d="M202,-506C214,-506 219.25,-506 227.875,-506"/>
<polygon fill="black" stroke="black" points="228,-509.5 238,-506 228,-502.5 228,-509.5"/>
</g>
<!-- node5 -->
<g id="node6" class="node"><title>node5</title>
<defs>
<linearGradient id="l_6" gradientUnits="userSpaceOnUse" x1="284" y1="-76" x2="284" y2="-180" >
<stop offset="0" style="stop-color:red;stop-opacity:1.;"/>
<stop offset="1" style="stop-color:red;stop-opacity:1.;"/>
</linearGradient>
</defs>
<polygon fill="url(#l_6)" stroke="black" points="257,-76 257,-180 311,-180 311,-76 257,-76"/>
<text text-anchor="middle" x="284" y="-163.2" font-family="Times,serif" font-size="16.00">(nil)</text>
<polyline fill="none" stroke="black" points="257,-154 311,-154 "/>
<text text-anchor="middle" x="284" y="-137.2" font-family="Times,serif" font-size="16.00"> </text>
<polyline fill="none" stroke="black" points="257,-128 311,-128 "/>
<text text-anchor="middle" x="284" y="-111.2" font-family="Times,serif" font-size="16.00"> </text>
<polyline fill="none" stroke="black" points="257,-102 311,-102 "/>
<text text-anchor="middle" x="284" y="-85.2" font-family="Times,serif" font-size="16.00">&#45;1</text>
</g>
<!-- node1&#45;&gt;node5 -->
<g id="4" class="edge"><title>node1:f2&#45;&gt;node5:f0</title>
<path fill="none" stroke="black" d="M202,-480C265.837,-480 196.851,-243.804 238,-195 248.439,-182.619 269.473,-193.236 279.049,-189.804"/>
<polygon fill="black" stroke="black" points="282.149,-191.432 284,-181 276.048,-188.001 282.149,-191.432"/>
</g>
<!-- node4&#45;&gt;node3 -->
<g id="5" class="edge"><title>node4:f0&#45;&gt;node3:f1</title>
<path fill="none" stroke="black" d="M330,-506C402.923,-506 421.104,-509.035 494,-511 547.329,-512.438 563.152,-513.816 611.81,-513.983"/>
<polygon fill="black" stroke="black" points="611.994,-517.483 622,-514 612.006,-510.483 611.994,-517.483"/>
</g>
<!-- node6 -->
<g id="node7" class="node"><title>node6</title>
<defs>
<linearGradient id="l_7" gradientUnits="userSpaceOnUse" x1="412" y1="-389" x2="412" y2="-493" >
<stop offset="0" style="stop-color:orange;stop-opacity:1.;"/>
<stop offset="1" style="stop-color:green;stop-opacity:1.;"/>
</linearGradient>
</defs>
<polygon fill="url(#l_7)" stroke="black" points="366,-389 366,-493 458,-493 458,-389 366,-389"/>
<text text-anchor="middle" x="412" y="-476.2" font-family="Times,serif" font-size="16.00">0xf7fc4380</text>
<polyline fill="none" stroke="black" points="366,-467 458,-467 "/>
<text text-anchor="middle" x="412" y="-450.2" font-family="Times,serif" font-size="16.00"> </text>
<polyline fill="none" stroke="black" points="366,-441 458,-441 "/>
<text text-anchor="middle" x="412" y="-424.2" font-family="Times,serif" font-size="16.00"> </text>
<polyline fill="none" stroke="black" points="366,-415 458,-415 "/>
<text text-anchor="middle" x="412" y="-398.2" font-family="Times,serif" font-size="16.00">1</text>
</g>
<!-- node4&#45;&gt;node6 -->
<g id="6" class="edge"><title>node4:f1&#45;&gt;node6:f0</title>
<path fill="none" stroke="black" d="M330,-480C342,-480 347.25,-480 355.875,-480"/>
<polygon fill="black" stroke="black" points="356,-483.5 366,-480 356,-476.5 356,-483.5"/>
</g>
<!-- node10 -->
<g id="node11" class="node"><title>node10</title>
<defs>
<linearGradient id="l_8" gradientUnits="userSpaceOnUse" x1="412" y1="-238" x2="412" y2="-342" >
<stop offset="0" style="stop-color:magenta;stop-opacity:1.;"/>
<stop offset="1" style="stop-color:green;stop-opacity:1.;"/>
</linearGradient>
</defs>
<polygon fill="url(#l_8)" stroke="black" points="385,-238 385,-342 439,-342 439,-238 385,-238"/>
<text text-anchor="middle" x="412" y="-325.2" font-family="Times,serif" font-size="16.00">(nil)</text>
<polyline fill="none" stroke="black" points="385,-316 439,-316 "/>
<text text-anchor="middle" x="412" y="-299.2" font-family="Times,serif" font-size="16.00"> </text>
<polyline fill="none" stroke="black" points="385,-290 439,-290 "/>
<text text-anchor="middle" x="412" y="-273.2" font-family="Times,serif" font-size="16.00"> </text>
<polyline fill="none" stroke="black" points="385,-264 439,-264 "/>
<text text-anchor="middle" x="412" y="-247.2" font-family="Times,serif" font-size="16.00">&#45;1</text>
</g>
<!-- node4&#45;&gt;node10 -->
<g id="7" class="edge"><title>node4:f2&#45;&gt;node10:f0</title>
<path fill="none" stroke="black" d="M330,-454C386.736,-454 331.363,-344.137 374.085,-330.404"/>
<polygon fill="black" stroke="black" points="374.589,-333.867 384,-329 373.608,-326.937 374.589,-333.867"/>
</g>
<!-- node6&#45;&gt;node3 -->
<g id="8" class="edge"><title>node6:f0&#45;&gt;node3:f1</title>
<path fill="none" stroke="black" d="M458,-480C528.949,-480 546.013,-510.887 611.911,-513.783"/>
<polygon fill="black" stroke="black" points="611.927,-517.284 622,-514 612.078,-510.286 611.927,-517.284"/>
</g>
<!-- node7 -->
<g id="node8" class="node"><title>node7</title>
<defs>
<linearGradient id="l_9" gradientUnits="userSpaceOnUse" x1="540" y1="-369" x2="540" y2="-473" >
<stop offset="0" style="stop-color:cyan;stop-opacity:1.;"/>
<stop offset="1" style="stop-color:green;stop-opacity:1.;"/>
</linearGradient>
</defs>
<polygon fill="url(#l_9)" stroke="black" points="494,-369 494,-473 586,-473 586,-369 494,-369"/>
<text text-anchor="middle" x="540" y="-456.2" font-family="Times,serif" font-size="16.00">0xf7fc4380</text>
<polyline fill="none" stroke="black" points="494,-447 586,-447 "/>
<text text-anchor="middle" x="540" y="-430.2" font-family="Times,serif" font-size="16.00"> </text>
<polyline fill="none" stroke="black" points="494,-421 586,-421 "/>
<text text-anchor="middle" x="540" y="-404.2" font-family="Times,serif" font-size="16.00"> </text>
<polyline fill="none" stroke="black" points="494,-395 586,-395 "/>
<text text-anchor="middle" x="540" y="-378.2" font-family="Times,serif" font-size="16.00">2</text>
</g>
<!-- node6&#45;&gt;node7 -->
<g id="9" class="edge"><title>node6:f1&#45;&gt;node7:f0</title>
<path fill="none" stroke="black" d="M458,-454C470.166,-454 475.209,-457.375 483.813,-459.062"/>
<polygon fill="black" stroke="black" points="483.721,-462.569 494,-460 484.363,-455.598 483.721,-462.569"/>
</g>
<!-- node9 -->
<g id="node10" class="node"><title>node9</title>
<defs>
<linearGradient id="l_10" gradientUnits="userSpaceOnUse" x1="540" y1="-246" x2="540" y2="-350" >
<stop offset="0" style="stop-color:orange;stop-opacity:1.;"/>
<stop offset="1" style="stop-color:orange;stop-opacity:1.;"/>
</linearGradient>
</defs>
<polygon fill="url(#l_10)" stroke="black" points="513,-246 513,-350 567,-350 567,-246 513,-246"/>
<text text-anchor="middle" x="540" y="-333.2" font-family="Times,serif" font-size="16.00">(nil)</text>
<polyline fill="none" stroke="black" points="513,-324 567,-324 "/>
<text text-anchor="middle" x="540" y="-307.2" font-family="Times,serif" font-size="16.00"> </text>
<polyline fill="none" stroke="black" points="513,-298 567,-298 "/>
<text text-anchor="middle" x="540" y="-281.2" font-family="Times,serif" font-size="16.00"> </text>
<polyline fill="none" stroke="black" points="513,-272 567,-272 "/>
<text text-anchor="middle" x="540" y="-255.2" font-family="Times,serif" font-size="16.00">&#45;1</text>
</g>
<!-- node6&#45;&gt;node9 -->
<g id="10" class="edge"><title>node6:f2&#45;&gt;node9:f0</title>
<path fill="none" stroke="black" d="M458,-428C501.171,-428 470.957,-351.317 502.088,-338.737"/>
<polygon fill="black" stroke="black" points="502.754,-342.173 512,-337 501.546,-335.278 502.754,-342.173"/>
</g>
<!-- node7&#45;&gt;node1 -->
<g id="12" class="edge"><title>node7:f1&#45;&gt;node1:f0</title>
<path fill="none" stroke="black" d="M494,-434C459.804,-434 485.385,-481.519 458,-502 369.039,-568.533 319.604,-534.239 212.229,-532.102"/>
<polygon fill="black" stroke="black" points="212.034,-528.6 202,-532 211.965,-535.6 212.034,-528.6"/>
</g>
<!-- node7&#45;&gt;node3 -->
<g id="11" class="edge"><title>node7:f0&#45;&gt;node3:f1</title>
<path fill="none" stroke="black" d="M586,-460C610.563,-460 598.481,-499.159 612.165,-510.784"/>
<polygon fill="black" stroke="black" points="611.407,-514.218 622,-514 613.583,-507.565 611.407,-514.218"/>
</g>
<!-- node8 -->
<g id="node9" class="node"><title>node8</title>
<defs>
<linearGradient id="l_11" gradientUnits="userSpaceOnUse" x1="721" y1="-317" x2="721" y2="-421" >
<stop offset="0" style="stop-color:cyan;stop-opacity:1.;"/>
<stop offset="1" style="stop-color:cyan;stop-opacity:1.;"/>
</linearGradient>
</defs>
<polygon fill="url(#l_11)" stroke="black" points="694,-317 694,-421 748,-421 748,-317 694,-317"/>
<text text-anchor="middle" x="721" y="-404.2" font-family="Times,serif" font-size="16.00">(nil)</text>
<polyline fill="none" stroke="black" points="694,-395 748,-395 "/>
<text text-anchor="middle" x="721" y="-378.2" font-family="Times,serif" font-size="16.00"> </text>
<polyline fill="none" stroke="black" points="694,-369 748,-369 "/>
<text text-anchor="middle" x="721" y="-352.2" font-family="Times,serif" font-size="16.00"> </text>
<polyline fill="none" stroke="black" points="694,-343 748,-343 "/>
<text text-anchor="middle" x="721" y="-326.2" font-family="Times,serif" font-size="16.00">&#45;1</text>
</g>
<!-- node7&#45;&gt;node8 -->
<g id="13" class="edge"><title>node7:f2&#45;&gt;node8:f0</title>
<path fill="none" stroke="black" d="M586,-408C630.026,-408 643.483,-408 682.972,-408"/>
<polygon fill="black" stroke="black" points="683,-411.5 693,-408 683,-404.5 683,-411.5"/>
</g>
<!-- node11 -->
<g id="node12" class="node"><title>node11</title>
<defs>
<linearGradient id="l_12" gradientUnits="userSpaceOnUse" x1="540" y1="-123" x2="540" y2="-227" >
<stop offset="0" style="stop-color:red;stop-opacity:1.;"/>
<stop offset="1" style="stop-color:green;stop-opacity:1.;"/>
</linearGradient>
</defs>
<polygon fill="url(#l_12)" stroke="black" points="513,-123 513,-227 567,-227 567,-123 513,-123"/>
<text text-anchor="middle" x="540" y="-210.2" font-family="Times,serif" font-size="16.00">(nil)</text>
<polyline fill="none" stroke="black" points="513,-201 567,-201 "/>
<text text-anchor="middle" x="540" y="-184.2" font-family="Times,serif" font-size="16.00"> </text>
<polyline fill="none" stroke="black" points="513,-175 567,-175 "/>
<text text-anchor="middle" x="540" y="-158.2" font-family="Times,serif" font-size="16.00"> </text>
<polyline fill="none" stroke="black" points="513,-149 567,-149 "/>
<text text-anchor="middle" x="540" y="-132.2" font-family="Times,serif" font-size="16.00">&#45;1</text>
</g>
<!-- node10&#45;&gt;node11 -->
<g id="14" class="edge"><title>node10:f1&#45;&gt;node11:f0</title>
<path fill="none" stroke="black" d="M440,-303C487.103,-303 465.094,-226.721 501.938,-215.398"/>
<polygon fill="black" stroke="black" points="502.577,-218.843 512,-214 501.613,-211.91 502.577,-218.843"/>
</g>
<!-- node12 -->
<g id="node13" class="node"><title>node12</title>
<defs>
<linearGradient id="l_13" gradientUnits="userSpaceOnUse" x1="540" y1="-4.9738e-14" x2="540" y2="-104" >
<stop offset="0" style="stop-color:magenta;stop-opacity:1.;"/>
<stop offset="1" style="stop-color:magenta;stop-opacity:1.;"/>
</linearGradient>
</defs>
<polygon fill="url(#l_13)" stroke="black" points="495,-0 495,-104 585,-104 585,-0 495,-0"/>
<text text-anchor="middle" x="540" y="-87.2" font-family="Times,serif" font-size="16.00">0xf7fc43e0</text>
<polyline fill="none" stroke="black" points="495,-78 585,-78 "/>
<text text-anchor="middle" x="540" y="-61.2" font-family="Times,serif" font-size="16.00"> </text>
<polyline fill="none" stroke="black" points="495,-52 585,-52 "/>
<text text-anchor="middle" x="540" y="-35.2" font-family="Times,serif" font-size="16.00"> </text>
<polyline fill="none" stroke="black" points="495,-26 585,-26 "/>
<text text-anchor="middle" x="540" y="-9.2" font-family="Times,serif" font-size="16.00">1</text>
</g>
<!-- node10&#45;&gt;node12 -->
<g id="15" class="edge"><title>node10:f2&#45;&gt;node12:f0</title>
<path fill="none" stroke="black" d="M440,-277C522.381,-277 417.697,-106.641 484.003,-92.0007"/>
<polygon fill="black" stroke="black" points="484.398,-95.4787 494,-91 483.701,-88.5135 484.398,-95.4787"/>
</g>
<!-- node11&#45;&gt;node1 -->
<g id="16" class="edge"><title>node11:f2&#45;&gt;node1:f0</title>
<path fill="none" stroke="black" d="M512,-162C348.936,-162 309.054,-259.23 238,-406 214.258,-455.042 254.406,-522.603 211.99,-531.108"/>
<polygon fill="black" stroke="black" points="211.649,-527.625 202,-532 212.272,-534.597 211.649,-527.625"/>
</g>
</g>
</svg>
